G75*
%MOIN*%
%OFA0B0*%
%FSLAX25Y25*%
%IPPOS*%
%LPD*%
%AMOC8*
5,1,8,0,0,1.08239X$1,22.5*
%
%ADD10C,0.00000*%
%ADD11C,0.00300*%
%ADD12C,0.00600*%
%ADD13C,0.00500*%
%ADD14C,0.01600*%
%ADD15C,0.01000*%
%ADD16C,0.00800*%
D10*
X0363268Y0253031D02*
X0646732Y0253031D01*
X0646732Y0253032D02*
X0647113Y0253037D01*
X0647493Y0253050D01*
X0647873Y0253073D01*
X0648252Y0253106D01*
X0648630Y0253147D01*
X0649007Y0253197D01*
X0649383Y0253257D01*
X0649758Y0253325D01*
X0650130Y0253403D01*
X0650501Y0253490D01*
X0650869Y0253585D01*
X0651235Y0253690D01*
X0651598Y0253803D01*
X0651959Y0253925D01*
X0652316Y0254055D01*
X0652670Y0254195D01*
X0653021Y0254342D01*
X0653368Y0254499D01*
X0653711Y0254663D01*
X0654050Y0254836D01*
X0654385Y0255017D01*
X0654716Y0255206D01*
X0655041Y0255403D01*
X0655362Y0255607D01*
X0655678Y0255820D01*
X0655988Y0256040D01*
X0656294Y0256267D01*
X0656593Y0256502D01*
X0656887Y0256744D01*
X0657175Y0256992D01*
X0657457Y0257248D01*
X0657732Y0257511D01*
X0658001Y0257780D01*
X0658264Y0258055D01*
X0658520Y0258337D01*
X0658768Y0258625D01*
X0659010Y0258919D01*
X0659245Y0259218D01*
X0659472Y0259524D01*
X0659692Y0259834D01*
X0659905Y0260150D01*
X0660109Y0260471D01*
X0660306Y0260796D01*
X0660495Y0261127D01*
X0660676Y0261462D01*
X0660849Y0261801D01*
X0661013Y0262144D01*
X0661170Y0262491D01*
X0661317Y0262842D01*
X0661457Y0263196D01*
X0661587Y0263553D01*
X0661709Y0263914D01*
X0661822Y0264277D01*
X0661927Y0264643D01*
X0662022Y0265011D01*
X0662109Y0265382D01*
X0662187Y0265754D01*
X0662255Y0266129D01*
X0662315Y0266505D01*
X0662365Y0266882D01*
X0662406Y0267260D01*
X0662439Y0267639D01*
X0662462Y0268019D01*
X0662475Y0268399D01*
X0662480Y0268780D01*
X0662480Y0434134D01*
X0662475Y0434515D01*
X0662462Y0434895D01*
X0662439Y0435275D01*
X0662406Y0435654D01*
X0662365Y0436032D01*
X0662315Y0436409D01*
X0662255Y0436785D01*
X0662187Y0437160D01*
X0662109Y0437532D01*
X0662022Y0437903D01*
X0661927Y0438271D01*
X0661822Y0438637D01*
X0661709Y0439000D01*
X0661587Y0439361D01*
X0661457Y0439718D01*
X0661317Y0440072D01*
X0661170Y0440423D01*
X0661013Y0440770D01*
X0660849Y0441113D01*
X0660676Y0441452D01*
X0660495Y0441787D01*
X0660306Y0442118D01*
X0660109Y0442443D01*
X0659905Y0442764D01*
X0659692Y0443080D01*
X0659472Y0443390D01*
X0659245Y0443696D01*
X0659010Y0443995D01*
X0658768Y0444289D01*
X0658520Y0444577D01*
X0658264Y0444859D01*
X0658001Y0445134D01*
X0657732Y0445403D01*
X0657457Y0445666D01*
X0657175Y0445922D01*
X0656887Y0446170D01*
X0656593Y0446412D01*
X0656294Y0446647D01*
X0655988Y0446874D01*
X0655678Y0447094D01*
X0655362Y0447307D01*
X0655041Y0447511D01*
X0654716Y0447708D01*
X0654385Y0447897D01*
X0654050Y0448078D01*
X0653711Y0448251D01*
X0653368Y0448415D01*
X0653021Y0448572D01*
X0652670Y0448719D01*
X0652316Y0448859D01*
X0651959Y0448989D01*
X0651598Y0449111D01*
X0651235Y0449224D01*
X0650869Y0449329D01*
X0650501Y0449424D01*
X0650130Y0449511D01*
X0649758Y0449589D01*
X0649383Y0449657D01*
X0649007Y0449717D01*
X0648630Y0449767D01*
X0648252Y0449808D01*
X0647873Y0449841D01*
X0647493Y0449864D01*
X0647113Y0449877D01*
X0646732Y0449882D01*
X0363268Y0449882D01*
X0362887Y0449877D01*
X0362507Y0449864D01*
X0362127Y0449841D01*
X0361748Y0449808D01*
X0361370Y0449767D01*
X0360993Y0449717D01*
X0360617Y0449657D01*
X0360242Y0449589D01*
X0359870Y0449511D01*
X0359499Y0449424D01*
X0359131Y0449329D01*
X0358765Y0449224D01*
X0358402Y0449111D01*
X0358041Y0448989D01*
X0357684Y0448859D01*
X0357330Y0448719D01*
X0356979Y0448572D01*
X0356632Y0448415D01*
X0356289Y0448251D01*
X0355950Y0448078D01*
X0355615Y0447897D01*
X0355284Y0447708D01*
X0354959Y0447511D01*
X0354638Y0447307D01*
X0354322Y0447094D01*
X0354012Y0446874D01*
X0353706Y0446647D01*
X0353407Y0446412D01*
X0353113Y0446170D01*
X0352825Y0445922D01*
X0352543Y0445666D01*
X0352268Y0445403D01*
X0351999Y0445134D01*
X0351736Y0444859D01*
X0351480Y0444577D01*
X0351232Y0444289D01*
X0350990Y0443995D01*
X0350755Y0443696D01*
X0350528Y0443390D01*
X0350308Y0443080D01*
X0350095Y0442764D01*
X0349891Y0442443D01*
X0349694Y0442118D01*
X0349505Y0441787D01*
X0349324Y0441452D01*
X0349151Y0441113D01*
X0348987Y0440770D01*
X0348830Y0440423D01*
X0348683Y0440072D01*
X0348543Y0439718D01*
X0348413Y0439361D01*
X0348291Y0439000D01*
X0348178Y0438637D01*
X0348073Y0438271D01*
X0347978Y0437903D01*
X0347891Y0437532D01*
X0347813Y0437160D01*
X0347745Y0436785D01*
X0347685Y0436409D01*
X0347635Y0436032D01*
X0347594Y0435654D01*
X0347561Y0435275D01*
X0347538Y0434895D01*
X0347525Y0434515D01*
X0347520Y0434134D01*
X0347520Y0268780D01*
X0347525Y0268399D01*
X0347538Y0268019D01*
X0347561Y0267639D01*
X0347594Y0267260D01*
X0347635Y0266882D01*
X0347685Y0266505D01*
X0347745Y0266129D01*
X0347813Y0265754D01*
X0347891Y0265382D01*
X0347978Y0265011D01*
X0348073Y0264643D01*
X0348178Y0264277D01*
X0348291Y0263914D01*
X0348413Y0263553D01*
X0348543Y0263196D01*
X0348683Y0262842D01*
X0348830Y0262491D01*
X0348987Y0262144D01*
X0349151Y0261801D01*
X0349324Y0261462D01*
X0349505Y0261127D01*
X0349694Y0260796D01*
X0349891Y0260471D01*
X0350095Y0260150D01*
X0350308Y0259834D01*
X0350528Y0259524D01*
X0350755Y0259218D01*
X0350990Y0258919D01*
X0351232Y0258625D01*
X0351480Y0258337D01*
X0351736Y0258055D01*
X0351999Y0257780D01*
X0352268Y0257511D01*
X0352543Y0257248D01*
X0352825Y0256992D01*
X0353113Y0256744D01*
X0353407Y0256502D01*
X0353706Y0256267D01*
X0354012Y0256040D01*
X0354322Y0255820D01*
X0354638Y0255607D01*
X0354959Y0255403D01*
X0355284Y0255206D01*
X0355615Y0255017D01*
X0355950Y0254836D01*
X0356289Y0254663D01*
X0356632Y0254499D01*
X0356979Y0254342D01*
X0357330Y0254195D01*
X0357684Y0254055D01*
X0358041Y0253925D01*
X0358402Y0253803D01*
X0358765Y0253690D01*
X0359131Y0253585D01*
X0359499Y0253490D01*
X0359870Y0253403D01*
X0360242Y0253325D01*
X0360617Y0253257D01*
X0360993Y0253197D01*
X0361370Y0253147D01*
X0361748Y0253106D01*
X0362127Y0253073D01*
X0362507Y0253050D01*
X0362887Y0253037D01*
X0363268Y0253032D01*
D11*
X0383292Y0279559D02*
X0382674Y0280177D01*
X0382674Y0281411D01*
X0383292Y0282028D01*
X0384526Y0282028D02*
X0384526Y0280794D01*
X0384526Y0282028D02*
X0385760Y0282028D01*
X0386378Y0281411D01*
X0386378Y0280177D01*
X0385760Y0279559D01*
X0383292Y0279559D01*
X0382674Y0283243D02*
X0386378Y0283243D01*
X0386378Y0285711D02*
X0382674Y0285711D01*
X0382674Y0286926D02*
X0382674Y0288777D01*
X0383292Y0289395D01*
X0385760Y0289395D01*
X0386378Y0288777D01*
X0386378Y0286926D01*
X0382674Y0286926D01*
X0382674Y0283243D02*
X0386378Y0285711D01*
X0392911Y0285094D02*
X0393528Y0285711D01*
X0395997Y0285711D01*
X0396614Y0285094D01*
X0396614Y0283860D01*
X0395997Y0283243D01*
X0393528Y0283243D01*
X0392911Y0283860D01*
X0392911Y0285094D01*
X0392911Y0282028D02*
X0396614Y0282028D01*
X0392911Y0279559D01*
X0396614Y0279559D01*
X0403147Y0279559D02*
X0406850Y0282028D01*
X0403147Y0282028D01*
X0403764Y0283243D02*
X0406233Y0283243D01*
X0406850Y0283860D01*
X0406850Y0285094D01*
X0406233Y0285711D01*
X0403764Y0285711D02*
X0403147Y0285094D01*
X0403147Y0283860D01*
X0403764Y0283243D01*
X0403147Y0279559D02*
X0406850Y0279559D01*
X0410627Y0278655D02*
X0411244Y0279272D01*
X0413713Y0279272D01*
X0414330Y0278655D01*
X0414330Y0277421D01*
X0413713Y0276804D01*
X0411244Y0276804D01*
X0410627Y0277421D01*
X0410627Y0278655D01*
X0411862Y0280487D02*
X0410627Y0281721D01*
X0414330Y0281721D01*
X0414330Y0280487D02*
X0414330Y0282955D01*
X0414330Y0284170D02*
X0414330Y0284787D01*
X0413713Y0284787D01*
X0413713Y0284170D01*
X0414330Y0284170D01*
X0414330Y0286011D02*
X0414330Y0288480D01*
X0414330Y0287246D02*
X0410627Y0287246D01*
X0411862Y0286011D01*
X0418107Y0285711D02*
X0421811Y0285711D01*
X0418107Y0283243D01*
X0421811Y0283243D01*
X0421193Y0282028D02*
X0419959Y0282028D01*
X0419959Y0280794D01*
X0418725Y0282028D02*
X0418107Y0281411D01*
X0418107Y0280177D01*
X0418725Y0279559D01*
X0421193Y0279559D01*
X0421811Y0280177D01*
X0421811Y0281411D01*
X0421193Y0282028D01*
X0421811Y0286926D02*
X0421811Y0288777D01*
X0421193Y0289395D01*
X0418725Y0289395D01*
X0418107Y0288777D01*
X0418107Y0286926D01*
X0421811Y0286926D01*
X0428344Y0285094D02*
X0428344Y0283860D01*
X0428961Y0283243D01*
X0431430Y0283243D01*
X0432047Y0283860D01*
X0432047Y0285094D01*
X0431430Y0285711D01*
X0428961Y0285711D01*
X0428344Y0285094D01*
X0428344Y0282028D02*
X0432047Y0282028D01*
X0428344Y0279559D01*
X0432047Y0279559D01*
X0438580Y0279559D02*
X0442283Y0282028D01*
X0438580Y0282028D01*
X0439197Y0283243D02*
X0441666Y0283243D01*
X0442283Y0283860D01*
X0442283Y0285094D01*
X0441666Y0285711D01*
X0439197Y0285711D02*
X0438580Y0285094D01*
X0438580Y0283860D01*
X0439197Y0283243D01*
X0438580Y0279559D02*
X0442283Y0279559D01*
X0446060Y0278655D02*
X0446060Y0277421D01*
X0446677Y0276804D01*
X0449146Y0276804D01*
X0449763Y0277421D01*
X0449763Y0278655D01*
X0449146Y0279272D01*
X0446677Y0279272D01*
X0446060Y0278655D01*
X0447295Y0280487D02*
X0446060Y0281721D01*
X0449763Y0281721D01*
X0449763Y0280487D02*
X0449763Y0282955D01*
X0449763Y0284170D02*
X0449763Y0284787D01*
X0449146Y0284787D01*
X0449146Y0284170D01*
X0449763Y0284170D01*
X0449763Y0286011D02*
X0447295Y0288480D01*
X0446677Y0288480D01*
X0446060Y0287863D01*
X0446060Y0286629D01*
X0446677Y0286011D01*
X0449763Y0286011D02*
X0449763Y0288480D01*
X0473226Y0288777D02*
X0473226Y0286926D01*
X0476929Y0286926D01*
X0476929Y0288777D01*
X0476312Y0289395D01*
X0473843Y0289395D01*
X0473226Y0288777D01*
X0473226Y0285711D02*
X0476929Y0285711D01*
X0473226Y0283243D01*
X0476929Y0283243D01*
X0476312Y0282028D02*
X0476929Y0281411D01*
X0476929Y0280177D01*
X0476312Y0279559D01*
X0473843Y0279559D01*
X0473226Y0280177D01*
X0473226Y0281411D01*
X0473843Y0282028D01*
X0475077Y0282028D02*
X0475077Y0280794D01*
X0475077Y0282028D02*
X0476312Y0282028D01*
X0483462Y0282028D02*
X0487165Y0282028D01*
X0483462Y0279559D01*
X0487165Y0279559D01*
X0486548Y0283243D02*
X0487165Y0283860D01*
X0487165Y0285094D01*
X0486548Y0285711D01*
X0484079Y0285711D01*
X0483462Y0285094D01*
X0483462Y0283860D01*
X0484079Y0283243D01*
X0486548Y0283243D01*
X0493698Y0283860D02*
X0493698Y0285094D01*
X0494315Y0285711D01*
X0493698Y0283860D02*
X0494315Y0283243D01*
X0496784Y0283243D01*
X0497401Y0283860D01*
X0497401Y0285094D01*
X0496784Y0285711D01*
X0497401Y0282028D02*
X0493698Y0282028D01*
X0493698Y0279559D02*
X0497401Y0282028D01*
X0497401Y0279559D02*
X0493698Y0279559D01*
X0501178Y0278655D02*
X0501178Y0277421D01*
X0501796Y0276804D01*
X0504264Y0276804D01*
X0504881Y0277421D01*
X0504881Y0278655D01*
X0504264Y0279272D01*
X0501796Y0279272D01*
X0501178Y0278655D01*
X0501796Y0280487D02*
X0501178Y0281104D01*
X0501178Y0282338D01*
X0501796Y0282955D01*
X0502413Y0282955D01*
X0504881Y0280487D01*
X0504881Y0282955D01*
X0504881Y0284170D02*
X0504881Y0284787D01*
X0504264Y0284787D01*
X0504264Y0284170D01*
X0504881Y0284170D01*
X0504881Y0286011D02*
X0504881Y0288480D01*
X0504881Y0287246D02*
X0501178Y0287246D01*
X0502413Y0286011D01*
X0508659Y0285711D02*
X0512362Y0285711D01*
X0508659Y0283243D01*
X0512362Y0283243D01*
X0511745Y0282028D02*
X0510510Y0282028D01*
X0510510Y0280794D01*
X0509276Y0282028D02*
X0508659Y0281411D01*
X0508659Y0280177D01*
X0509276Y0279559D01*
X0511745Y0279559D01*
X0512362Y0280177D01*
X0512362Y0281411D01*
X0511745Y0282028D01*
X0512362Y0286926D02*
X0512362Y0288777D01*
X0511745Y0289395D01*
X0509276Y0289395D01*
X0508659Y0288777D01*
X0508659Y0286926D01*
X0512362Y0286926D01*
X0518895Y0285094D02*
X0518895Y0283860D01*
X0519512Y0283243D01*
X0521981Y0283243D01*
X0522598Y0283860D01*
X0522598Y0285094D01*
X0521981Y0285711D01*
X0519512Y0285711D01*
X0518895Y0285094D01*
X0518895Y0282028D02*
X0522598Y0282028D01*
X0518895Y0279559D01*
X0522598Y0279559D01*
X0529131Y0279559D02*
X0532834Y0282028D01*
X0529131Y0282028D01*
X0529748Y0283243D02*
X0532217Y0283243D01*
X0532834Y0283860D01*
X0532834Y0285094D01*
X0532217Y0285711D01*
X0529748Y0285711D02*
X0529131Y0285094D01*
X0529131Y0283860D01*
X0529748Y0283243D01*
X0529131Y0279559D02*
X0532834Y0279559D01*
X0536611Y0278655D02*
X0537229Y0279272D01*
X0539697Y0279272D01*
X0540315Y0278655D01*
X0540315Y0277421D01*
X0539697Y0276804D01*
X0537229Y0276804D01*
X0536611Y0277421D01*
X0536611Y0278655D01*
X0537229Y0280487D02*
X0536611Y0281104D01*
X0536611Y0282338D01*
X0537229Y0282955D01*
X0537846Y0282955D01*
X0540315Y0280487D01*
X0540315Y0282955D01*
X0540315Y0284170D02*
X0540315Y0284787D01*
X0539697Y0284787D01*
X0539697Y0284170D01*
X0540315Y0284170D01*
X0540315Y0286011D02*
X0537846Y0288480D01*
X0537229Y0288480D01*
X0536611Y0287863D01*
X0536611Y0286629D01*
X0537229Y0286011D01*
X0540315Y0286011D02*
X0540315Y0288480D01*
X0567714Y0288777D02*
X0567714Y0286926D01*
X0571417Y0286926D01*
X0571417Y0288777D01*
X0570800Y0289395D01*
X0568331Y0289395D01*
X0567714Y0288777D01*
X0567714Y0285711D02*
X0571417Y0285711D01*
X0567714Y0283243D01*
X0571417Y0283243D01*
X0570800Y0282028D02*
X0569565Y0282028D01*
X0569565Y0280794D01*
X0568331Y0282028D02*
X0567714Y0281411D01*
X0567714Y0280177D01*
X0568331Y0279559D01*
X0570800Y0279559D01*
X0571417Y0280177D01*
X0571417Y0281411D01*
X0570800Y0282028D01*
X0577950Y0282028D02*
X0581653Y0282028D01*
X0577950Y0279559D01*
X0581653Y0279559D01*
X0581036Y0283243D02*
X0581653Y0283860D01*
X0581653Y0285094D01*
X0581036Y0285711D01*
X0578567Y0285711D01*
X0577950Y0285094D01*
X0577950Y0283860D01*
X0578567Y0283243D01*
X0581036Y0283243D01*
X0588186Y0283860D02*
X0588803Y0283243D01*
X0591272Y0283243D01*
X0591889Y0283860D01*
X0591889Y0285094D01*
X0591272Y0285711D01*
X0588803Y0285711D02*
X0588186Y0285094D01*
X0588186Y0283860D01*
X0588186Y0282028D02*
X0591889Y0282028D01*
X0588186Y0279559D01*
X0591889Y0279559D01*
X0595667Y0278655D02*
X0596284Y0279272D01*
X0598752Y0279272D01*
X0599370Y0278655D01*
X0599370Y0277421D01*
X0598752Y0276804D01*
X0596284Y0276804D01*
X0595667Y0277421D01*
X0595667Y0278655D01*
X0596284Y0280487D02*
X0595667Y0281104D01*
X0595667Y0282338D01*
X0596284Y0282955D01*
X0596901Y0282955D01*
X0597518Y0282338D01*
X0598135Y0282955D01*
X0598752Y0282955D01*
X0599370Y0282338D01*
X0599370Y0281104D01*
X0598752Y0280487D01*
X0597518Y0281721D02*
X0597518Y0282338D01*
X0598752Y0284170D02*
X0598752Y0284787D01*
X0599370Y0284787D01*
X0599370Y0284170D01*
X0598752Y0284170D01*
X0599370Y0286011D02*
X0599370Y0288480D01*
X0599370Y0287246D02*
X0595667Y0287246D01*
X0596901Y0286011D01*
X0603147Y0285711D02*
X0606850Y0285711D01*
X0603147Y0283243D01*
X0606850Y0283243D01*
X0606233Y0282028D02*
X0604998Y0282028D01*
X0604998Y0280794D01*
X0603764Y0282028D02*
X0603147Y0281411D01*
X0603147Y0280177D01*
X0603764Y0279559D01*
X0606233Y0279559D01*
X0606850Y0280177D01*
X0606850Y0281411D01*
X0606233Y0282028D01*
X0606850Y0286926D02*
X0606850Y0288777D01*
X0606233Y0289395D01*
X0603764Y0289395D01*
X0603147Y0288777D01*
X0603147Y0286926D01*
X0606850Y0286926D01*
X0613383Y0285094D02*
X0613383Y0283860D01*
X0614000Y0283243D01*
X0616469Y0283243D01*
X0617086Y0283860D01*
X0617086Y0285094D01*
X0616469Y0285711D01*
X0614000Y0285711D01*
X0613383Y0285094D01*
X0613383Y0282028D02*
X0617086Y0282028D01*
X0613383Y0279559D01*
X0617086Y0279559D01*
X0623619Y0279559D02*
X0627322Y0282028D01*
X0623619Y0282028D01*
X0624236Y0283243D02*
X0626705Y0283243D01*
X0627322Y0283860D01*
X0627322Y0285094D01*
X0626705Y0285711D01*
X0624236Y0285711D02*
X0623619Y0285094D01*
X0623619Y0283860D01*
X0624236Y0283243D01*
X0623619Y0279559D02*
X0627322Y0279559D01*
X0631100Y0278655D02*
X0631717Y0279272D01*
X0634186Y0279272D01*
X0634803Y0278655D01*
X0634803Y0277421D01*
X0634186Y0276804D01*
X0631717Y0276804D01*
X0631100Y0277421D01*
X0631100Y0278655D01*
X0631717Y0280487D02*
X0631100Y0281104D01*
X0631100Y0282338D01*
X0631717Y0282955D01*
X0632334Y0282955D01*
X0632951Y0282338D01*
X0633568Y0282955D01*
X0634186Y0282955D01*
X0634803Y0282338D01*
X0634803Y0281104D01*
X0634186Y0280487D01*
X0632951Y0281721D02*
X0632951Y0282338D01*
X0634186Y0284170D02*
X0634186Y0284787D01*
X0634803Y0284787D01*
X0634803Y0284170D01*
X0634186Y0284170D01*
X0634803Y0286011D02*
X0632334Y0288480D01*
X0631717Y0288480D01*
X0631100Y0287863D01*
X0631100Y0286629D01*
X0631717Y0286011D01*
X0634803Y0286011D02*
X0634803Y0288480D01*
X0623060Y0407874D02*
X0624294Y0409109D01*
X0624294Y0411578D01*
X0621825Y0411578D02*
X0621825Y0409109D01*
X0623060Y0407874D01*
X0619994Y0407874D02*
X0619994Y0411578D01*
X0618142Y0409726D01*
X0620611Y0409726D01*
X0616928Y0410343D02*
X0616928Y0410960D01*
X0616311Y0411578D01*
X0615076Y0411578D01*
X0614459Y0410960D01*
X0613245Y0409726D02*
X0610776Y0409726D01*
X0612010Y0410960D02*
X0612010Y0408492D01*
X0614459Y0407874D02*
X0616928Y0410343D01*
X0616928Y0407874D02*
X0614459Y0407874D01*
X0603601Y0408492D02*
X0602984Y0407874D01*
X0601750Y0407874D01*
X0601133Y0408492D01*
X0599918Y0408492D02*
X0599918Y0409726D01*
X0598684Y0409726D01*
X0599918Y0410960D02*
X0599301Y0411578D01*
X0598067Y0411578D01*
X0597450Y0410960D01*
X0597450Y0408492D01*
X0598067Y0407874D01*
X0599301Y0407874D01*
X0599918Y0408492D01*
X0602367Y0409726D02*
X0602984Y0409726D01*
X0603601Y0409109D01*
X0603601Y0408492D01*
X0602984Y0409726D02*
X0603601Y0410343D01*
X0603601Y0410960D01*
X0602984Y0411578D01*
X0601750Y0411578D01*
X0601133Y0410960D01*
X0596228Y0411578D02*
X0594994Y0411578D01*
X0595611Y0411578D02*
X0595611Y0407874D01*
X0594994Y0407874D02*
X0596228Y0407874D01*
X0593780Y0408492D02*
X0593163Y0407874D01*
X0591928Y0407874D01*
X0591311Y0408492D01*
X0591928Y0409726D02*
X0593163Y0409726D01*
X0593780Y0409109D01*
X0593780Y0408492D01*
X0591928Y0409726D02*
X0591311Y0410343D01*
X0591311Y0410960D01*
X0591928Y0411578D01*
X0593163Y0411578D01*
X0593780Y0410960D01*
X0581901Y0410960D02*
X0581284Y0411578D01*
X0579433Y0411578D01*
X0579433Y0407874D01*
X0581284Y0407874D01*
X0581901Y0408492D01*
X0581901Y0410960D01*
X0578218Y0411578D02*
X0578218Y0407874D01*
X0575749Y0411578D01*
X0575749Y0407874D01*
X0574535Y0408492D02*
X0574535Y0409726D01*
X0573301Y0409726D01*
X0574535Y0410960D02*
X0573918Y0411578D01*
X0572683Y0411578D01*
X0572066Y0410960D01*
X0572066Y0408492D01*
X0572683Y0407874D01*
X0573918Y0407874D01*
X0574535Y0408492D01*
X0556184Y0409109D02*
X0556184Y0411578D01*
X0553715Y0411578D02*
X0553715Y0409109D01*
X0554949Y0407874D01*
X0556184Y0409109D01*
X0552501Y0409726D02*
X0550032Y0409726D01*
X0551883Y0411578D01*
X0551883Y0407874D01*
X0548818Y0407874D02*
X0546349Y0407874D01*
X0548818Y0410343D01*
X0548818Y0410960D01*
X0548200Y0411578D01*
X0546966Y0411578D01*
X0546349Y0410960D01*
X0545134Y0409726D02*
X0542666Y0409726D01*
X0543900Y0410960D02*
X0543900Y0408492D01*
X0535491Y0407874D02*
X0533022Y0407874D01*
X0535491Y0410343D01*
X0535491Y0410960D01*
X0534874Y0411578D01*
X0533640Y0411578D01*
X0533022Y0410960D01*
X0531808Y0410960D02*
X0531191Y0411578D01*
X0529956Y0411578D01*
X0529339Y0410960D01*
X0529339Y0408492D01*
X0529956Y0407874D01*
X0531191Y0407874D01*
X0531808Y0408492D01*
X0531808Y0409726D01*
X0530574Y0409726D01*
X0528118Y0411578D02*
X0526884Y0411578D01*
X0527501Y0411578D02*
X0527501Y0407874D01*
X0526884Y0407874D02*
X0528118Y0407874D01*
X0525669Y0408492D02*
X0525052Y0407874D01*
X0523818Y0407874D01*
X0523201Y0408492D01*
X0523818Y0409726D02*
X0525052Y0409726D01*
X0525669Y0409109D01*
X0525669Y0408492D01*
X0523818Y0409726D02*
X0523201Y0410343D01*
X0523201Y0410960D01*
X0523818Y0411578D01*
X0525052Y0411578D01*
X0525669Y0410960D01*
X0513791Y0410960D02*
X0513174Y0411578D01*
X0511322Y0411578D01*
X0511322Y0407874D01*
X0513174Y0407874D01*
X0513791Y0408492D01*
X0513791Y0410960D01*
X0510108Y0411578D02*
X0510108Y0407874D01*
X0507639Y0411578D01*
X0507639Y0407874D01*
X0506425Y0408492D02*
X0506425Y0409726D01*
X0505190Y0409726D01*
X0503956Y0410960D02*
X0503956Y0408492D01*
X0504573Y0407874D01*
X0505808Y0407874D01*
X0506425Y0408492D01*
X0506425Y0410960D02*
X0505808Y0411578D01*
X0504573Y0411578D01*
X0503956Y0410960D01*
X0487286Y0411578D02*
X0487286Y0409109D01*
X0486052Y0407874D01*
X0484817Y0409109D01*
X0484817Y0411578D01*
X0482986Y0411578D02*
X0481134Y0409726D01*
X0483603Y0409726D01*
X0482986Y0407874D02*
X0482986Y0411578D01*
X0479920Y0410960D02*
X0479303Y0411578D01*
X0478068Y0411578D01*
X0477451Y0410960D01*
X0476237Y0409726D02*
X0473768Y0409726D01*
X0475002Y0410960D02*
X0475002Y0408492D01*
X0477451Y0407874D02*
X0479920Y0410343D01*
X0479920Y0410960D01*
X0479920Y0407874D02*
X0477451Y0407874D01*
X0466594Y0407874D02*
X0464125Y0407874D01*
X0465359Y0407874D02*
X0465359Y0411578D01*
X0464125Y0410343D01*
X0462910Y0409726D02*
X0461676Y0409726D01*
X0462910Y0409726D02*
X0462910Y0408492D01*
X0462293Y0407874D01*
X0461059Y0407874D01*
X0460442Y0408492D01*
X0460442Y0410960D01*
X0461059Y0411578D01*
X0462293Y0411578D01*
X0462910Y0410960D01*
X0459221Y0411578D02*
X0457986Y0411578D01*
X0458603Y0411578D02*
X0458603Y0407874D01*
X0457986Y0407874D02*
X0459221Y0407874D01*
X0456772Y0408492D02*
X0456155Y0407874D01*
X0454920Y0407874D01*
X0454303Y0408492D01*
X0454920Y0409726D02*
X0456155Y0409726D01*
X0456772Y0409109D01*
X0456772Y0408492D01*
X0454920Y0409726D02*
X0454303Y0410343D01*
X0454303Y0410960D01*
X0454920Y0411578D01*
X0456155Y0411578D01*
X0456772Y0410960D01*
X0444893Y0410960D02*
X0444276Y0411578D01*
X0442425Y0411578D01*
X0442425Y0407874D01*
X0444276Y0407874D01*
X0444893Y0408492D01*
X0444893Y0410960D01*
X0441210Y0411578D02*
X0441210Y0407874D01*
X0438741Y0411578D01*
X0438741Y0407874D01*
X0437527Y0408492D02*
X0437527Y0409726D01*
X0436293Y0409726D01*
X0437527Y0410960D02*
X0436910Y0411578D01*
X0435676Y0411578D01*
X0435058Y0410960D01*
X0435058Y0408492D01*
X0435676Y0407874D01*
X0436910Y0407874D01*
X0437527Y0408492D01*
X0418782Y0409502D02*
X0418782Y0411971D01*
X0418782Y0409502D02*
X0417548Y0408268D01*
X0416313Y0409502D01*
X0416313Y0411971D01*
X0414482Y0411971D02*
X0412630Y0410120D01*
X0415099Y0410120D01*
X0414482Y0411971D02*
X0414482Y0408268D01*
X0411416Y0408268D02*
X0408947Y0408268D01*
X0411416Y0410737D01*
X0411416Y0411354D01*
X0410799Y0411971D01*
X0409564Y0411971D01*
X0408947Y0411354D01*
X0407733Y0410120D02*
X0405264Y0410120D01*
X0406498Y0411354D02*
X0406498Y0408885D01*
X0394893Y0408885D02*
X0394893Y0411354D01*
X0394276Y0411971D01*
X0392425Y0411971D01*
X0392425Y0408268D01*
X0394276Y0408268D01*
X0394893Y0408885D01*
X0391210Y0408268D02*
X0391210Y0411971D01*
X0388741Y0411971D02*
X0391210Y0408268D01*
X0388741Y0408268D02*
X0388741Y0411971D01*
X0387527Y0411354D02*
X0386910Y0411971D01*
X0385676Y0411971D01*
X0385058Y0411354D01*
X0385058Y0408885D01*
X0385676Y0408268D01*
X0386910Y0408268D01*
X0387527Y0408885D01*
X0387527Y0410120D01*
X0386293Y0410120D01*
D12*
X0390138Y0414008D02*
X0378638Y0414008D01*
X0378638Y0449508D01*
X0378638Y0461508D01*
X0389138Y0461508D01*
X0396138Y0461508D01*
X0394638Y0456508D01*
X0390638Y0456508D01*
X0389138Y0461508D01*
X0396138Y0461508D02*
X0409138Y0461508D01*
X0416138Y0461508D01*
X0414638Y0456508D01*
X0410638Y0456508D01*
X0409138Y0461508D01*
X0416138Y0461508D02*
X0426638Y0461508D01*
X0426638Y0449508D01*
X0378638Y0449508D01*
X0349768Y0434134D02*
X0349772Y0434465D01*
X0349784Y0434796D01*
X0349805Y0435127D01*
X0349833Y0435457D01*
X0349870Y0435787D01*
X0349914Y0436115D01*
X0349967Y0436442D01*
X0350027Y0436768D01*
X0350096Y0437092D01*
X0350173Y0437414D01*
X0350257Y0437735D01*
X0350349Y0438053D01*
X0350449Y0438369D01*
X0350557Y0438682D01*
X0350673Y0438993D01*
X0350796Y0439300D01*
X0350926Y0439605D01*
X0351064Y0439906D01*
X0351209Y0440204D01*
X0351362Y0440498D01*
X0351522Y0440788D01*
X0351689Y0441074D01*
X0351862Y0441356D01*
X0352043Y0441634D01*
X0352231Y0441907D01*
X0352425Y0442176D01*
X0352625Y0442440D01*
X0352832Y0442698D01*
X0353046Y0442952D01*
X0353265Y0443200D01*
X0353491Y0443443D01*
X0353722Y0443680D01*
X0353959Y0443911D01*
X0354202Y0444137D01*
X0354450Y0444356D01*
X0354704Y0444570D01*
X0354962Y0444777D01*
X0355226Y0444977D01*
X0355495Y0445171D01*
X0355768Y0445359D01*
X0356046Y0445540D01*
X0356328Y0445713D01*
X0356614Y0445880D01*
X0356904Y0446040D01*
X0357198Y0446193D01*
X0357496Y0446338D01*
X0357797Y0446476D01*
X0358102Y0446606D01*
X0358409Y0446729D01*
X0358720Y0446845D01*
X0359033Y0446953D01*
X0359349Y0447053D01*
X0359667Y0447145D01*
X0359988Y0447229D01*
X0360310Y0447306D01*
X0360634Y0447375D01*
X0360960Y0447435D01*
X0361287Y0447488D01*
X0361615Y0447532D01*
X0361945Y0447569D01*
X0362275Y0447597D01*
X0362606Y0447618D01*
X0362937Y0447630D01*
X0363268Y0447634D01*
X0363599Y0447630D01*
X0363930Y0447618D01*
X0364261Y0447597D01*
X0364591Y0447569D01*
X0364921Y0447532D01*
X0365249Y0447488D01*
X0365576Y0447435D01*
X0365902Y0447375D01*
X0366226Y0447306D01*
X0366548Y0447229D01*
X0366869Y0447145D01*
X0367187Y0447053D01*
X0367503Y0446953D01*
X0367816Y0446845D01*
X0368127Y0446729D01*
X0368434Y0446606D01*
X0368739Y0446476D01*
X0369040Y0446338D01*
X0369338Y0446193D01*
X0369632Y0446040D01*
X0369922Y0445880D01*
X0370208Y0445713D01*
X0370490Y0445540D01*
X0370768Y0445359D01*
X0371041Y0445171D01*
X0371310Y0444977D01*
X0371574Y0444777D01*
X0371832Y0444570D01*
X0372086Y0444356D01*
X0372334Y0444137D01*
X0372577Y0443911D01*
X0372814Y0443680D01*
X0373045Y0443443D01*
X0373271Y0443200D01*
X0373490Y0442952D01*
X0373704Y0442698D01*
X0373911Y0442440D01*
X0374111Y0442176D01*
X0374305Y0441907D01*
X0374493Y0441634D01*
X0374674Y0441356D01*
X0374847Y0441074D01*
X0375014Y0440788D01*
X0375174Y0440498D01*
X0375327Y0440204D01*
X0375472Y0439906D01*
X0375610Y0439605D01*
X0375740Y0439300D01*
X0375863Y0438993D01*
X0375979Y0438682D01*
X0376087Y0438369D01*
X0376187Y0438053D01*
X0376279Y0437735D01*
X0376363Y0437414D01*
X0376440Y0437092D01*
X0376509Y0436768D01*
X0376569Y0436442D01*
X0376622Y0436115D01*
X0376666Y0435787D01*
X0376703Y0435457D01*
X0376731Y0435127D01*
X0376752Y0434796D01*
X0376764Y0434465D01*
X0376768Y0434134D01*
X0376764Y0433803D01*
X0376752Y0433472D01*
X0376731Y0433141D01*
X0376703Y0432811D01*
X0376666Y0432481D01*
X0376622Y0432153D01*
X0376569Y0431826D01*
X0376509Y0431500D01*
X0376440Y0431176D01*
X0376363Y0430854D01*
X0376279Y0430533D01*
X0376187Y0430215D01*
X0376087Y0429899D01*
X0375979Y0429586D01*
X0375863Y0429275D01*
X0375740Y0428968D01*
X0375610Y0428663D01*
X0375472Y0428362D01*
X0375327Y0428064D01*
X0375174Y0427770D01*
X0375014Y0427480D01*
X0374847Y0427194D01*
X0374674Y0426912D01*
X0374493Y0426634D01*
X0374305Y0426361D01*
X0374111Y0426092D01*
X0373911Y0425828D01*
X0373704Y0425570D01*
X0373490Y0425316D01*
X0373271Y0425068D01*
X0373045Y0424825D01*
X0372814Y0424588D01*
X0372577Y0424357D01*
X0372334Y0424131D01*
X0372086Y0423912D01*
X0371832Y0423698D01*
X0371574Y0423491D01*
X0371310Y0423291D01*
X0371041Y0423097D01*
X0370768Y0422909D01*
X0370490Y0422728D01*
X0370208Y0422555D01*
X0369922Y0422388D01*
X0369632Y0422228D01*
X0369338Y0422075D01*
X0369040Y0421930D01*
X0368739Y0421792D01*
X0368434Y0421662D01*
X0368127Y0421539D01*
X0367816Y0421423D01*
X0367503Y0421315D01*
X0367187Y0421215D01*
X0366869Y0421123D01*
X0366548Y0421039D01*
X0366226Y0420962D01*
X0365902Y0420893D01*
X0365576Y0420833D01*
X0365249Y0420780D01*
X0364921Y0420736D01*
X0364591Y0420699D01*
X0364261Y0420671D01*
X0363930Y0420650D01*
X0363599Y0420638D01*
X0363268Y0420634D01*
X0362937Y0420638D01*
X0362606Y0420650D01*
X0362275Y0420671D01*
X0361945Y0420699D01*
X0361615Y0420736D01*
X0361287Y0420780D01*
X0360960Y0420833D01*
X0360634Y0420893D01*
X0360310Y0420962D01*
X0359988Y0421039D01*
X0359667Y0421123D01*
X0359349Y0421215D01*
X0359033Y0421315D01*
X0358720Y0421423D01*
X0358409Y0421539D01*
X0358102Y0421662D01*
X0357797Y0421792D01*
X0357496Y0421930D01*
X0357198Y0422075D01*
X0356904Y0422228D01*
X0356614Y0422388D01*
X0356328Y0422555D01*
X0356046Y0422728D01*
X0355768Y0422909D01*
X0355495Y0423097D01*
X0355226Y0423291D01*
X0354962Y0423491D01*
X0354704Y0423698D01*
X0354450Y0423912D01*
X0354202Y0424131D01*
X0353959Y0424357D01*
X0353722Y0424588D01*
X0353491Y0424825D01*
X0353265Y0425068D01*
X0353046Y0425316D01*
X0352832Y0425570D01*
X0352625Y0425828D01*
X0352425Y0426092D01*
X0352231Y0426361D01*
X0352043Y0426634D01*
X0351862Y0426912D01*
X0351689Y0427194D01*
X0351522Y0427480D01*
X0351362Y0427770D01*
X0351209Y0428064D01*
X0351064Y0428362D01*
X0350926Y0428663D01*
X0350796Y0428968D01*
X0350673Y0429275D01*
X0350557Y0429586D01*
X0350449Y0429899D01*
X0350349Y0430215D01*
X0350257Y0430533D01*
X0350173Y0430854D01*
X0350096Y0431176D01*
X0350027Y0431500D01*
X0349967Y0431826D01*
X0349914Y0432153D01*
X0349870Y0432481D01*
X0349833Y0432811D01*
X0349805Y0433141D01*
X0349784Y0433472D01*
X0349772Y0433803D01*
X0349768Y0434134D01*
X0395138Y0414008D02*
X0410138Y0414008D01*
X0415138Y0414008D02*
X0426638Y0414008D01*
X0426638Y0449508D01*
X0426906Y0449508D02*
X0426906Y0461508D01*
X0437406Y0461508D01*
X0438906Y0456508D01*
X0442906Y0456508D01*
X0444406Y0461508D01*
X0437406Y0461508D01*
X0444406Y0461508D02*
X0457406Y0461508D01*
X0464406Y0461508D01*
X0462906Y0456508D01*
X0458906Y0456508D01*
X0457406Y0461508D01*
X0464406Y0461508D02*
X0477406Y0461508D01*
X0484406Y0461508D01*
X0482906Y0456508D01*
X0478906Y0456508D01*
X0477406Y0461508D01*
X0484406Y0461508D02*
X0494906Y0461508D01*
X0494906Y0449508D01*
X0426906Y0449508D01*
X0426906Y0414008D01*
X0438406Y0414008D01*
X0443406Y0414008D02*
X0458406Y0414008D01*
X0463406Y0414008D02*
X0478406Y0414008D01*
X0483406Y0414008D02*
X0494906Y0414008D01*
X0494906Y0449508D01*
X0495409Y0449508D02*
X0495409Y0461508D01*
X0505909Y0461508D01*
X0507409Y0456508D01*
X0511409Y0456508D01*
X0512909Y0461508D01*
X0505909Y0461508D01*
X0512909Y0461508D02*
X0525909Y0461508D01*
X0532909Y0461508D01*
X0531409Y0456508D01*
X0527409Y0456508D01*
X0525909Y0461508D01*
X0532909Y0461508D02*
X0545909Y0461508D01*
X0552909Y0461508D01*
X0551409Y0456508D01*
X0547409Y0456508D01*
X0545909Y0461508D01*
X0552909Y0461508D02*
X0563409Y0461508D01*
X0563409Y0449508D01*
X0495409Y0449508D01*
X0495409Y0414008D01*
X0506909Y0414008D01*
X0511909Y0414008D02*
X0526909Y0414008D01*
X0531909Y0414008D02*
X0546909Y0414008D01*
X0551909Y0414008D02*
X0563409Y0414008D01*
X0563409Y0449508D01*
X0563913Y0449508D02*
X0563913Y0461508D01*
X0574413Y0461508D01*
X0575913Y0456508D01*
X0579913Y0456508D01*
X0581413Y0461508D01*
X0574413Y0461508D01*
X0581413Y0461508D02*
X0594413Y0461508D01*
X0601413Y0461508D01*
X0599913Y0456508D01*
X0595913Y0456508D01*
X0594413Y0461508D01*
X0601413Y0461508D02*
X0614413Y0461508D01*
X0621413Y0461508D01*
X0619913Y0456508D01*
X0615913Y0456508D01*
X0614413Y0461508D01*
X0621413Y0461508D02*
X0631913Y0461508D01*
X0631913Y0449508D01*
X0563913Y0449508D01*
X0563913Y0414008D01*
X0575413Y0414008D01*
X0580413Y0414008D02*
X0595413Y0414008D01*
X0600413Y0414008D02*
X0615413Y0414008D01*
X0620413Y0414008D02*
X0631913Y0414008D01*
X0631913Y0449508D01*
X0633232Y0434134D02*
X0633236Y0434465D01*
X0633248Y0434796D01*
X0633269Y0435127D01*
X0633297Y0435457D01*
X0633334Y0435787D01*
X0633378Y0436115D01*
X0633431Y0436442D01*
X0633491Y0436768D01*
X0633560Y0437092D01*
X0633637Y0437414D01*
X0633721Y0437735D01*
X0633813Y0438053D01*
X0633913Y0438369D01*
X0634021Y0438682D01*
X0634137Y0438993D01*
X0634260Y0439300D01*
X0634390Y0439605D01*
X0634528Y0439906D01*
X0634673Y0440204D01*
X0634826Y0440498D01*
X0634986Y0440788D01*
X0635153Y0441074D01*
X0635326Y0441356D01*
X0635507Y0441634D01*
X0635695Y0441907D01*
X0635889Y0442176D01*
X0636089Y0442440D01*
X0636296Y0442698D01*
X0636510Y0442952D01*
X0636729Y0443200D01*
X0636955Y0443443D01*
X0637186Y0443680D01*
X0637423Y0443911D01*
X0637666Y0444137D01*
X0637914Y0444356D01*
X0638168Y0444570D01*
X0638426Y0444777D01*
X0638690Y0444977D01*
X0638959Y0445171D01*
X0639232Y0445359D01*
X0639510Y0445540D01*
X0639792Y0445713D01*
X0640078Y0445880D01*
X0640368Y0446040D01*
X0640662Y0446193D01*
X0640960Y0446338D01*
X0641261Y0446476D01*
X0641566Y0446606D01*
X0641873Y0446729D01*
X0642184Y0446845D01*
X0642497Y0446953D01*
X0642813Y0447053D01*
X0643131Y0447145D01*
X0643452Y0447229D01*
X0643774Y0447306D01*
X0644098Y0447375D01*
X0644424Y0447435D01*
X0644751Y0447488D01*
X0645079Y0447532D01*
X0645409Y0447569D01*
X0645739Y0447597D01*
X0646070Y0447618D01*
X0646401Y0447630D01*
X0646732Y0447634D01*
X0647063Y0447630D01*
X0647394Y0447618D01*
X0647725Y0447597D01*
X0648055Y0447569D01*
X0648385Y0447532D01*
X0648713Y0447488D01*
X0649040Y0447435D01*
X0649366Y0447375D01*
X0649690Y0447306D01*
X0650012Y0447229D01*
X0650333Y0447145D01*
X0650651Y0447053D01*
X0650967Y0446953D01*
X0651280Y0446845D01*
X0651591Y0446729D01*
X0651898Y0446606D01*
X0652203Y0446476D01*
X0652504Y0446338D01*
X0652802Y0446193D01*
X0653096Y0446040D01*
X0653386Y0445880D01*
X0653672Y0445713D01*
X0653954Y0445540D01*
X0654232Y0445359D01*
X0654505Y0445171D01*
X0654774Y0444977D01*
X0655038Y0444777D01*
X0655296Y0444570D01*
X0655550Y0444356D01*
X0655798Y0444137D01*
X0656041Y0443911D01*
X0656278Y0443680D01*
X0656509Y0443443D01*
X0656735Y0443200D01*
X0656954Y0442952D01*
X0657168Y0442698D01*
X0657375Y0442440D01*
X0657575Y0442176D01*
X0657769Y0441907D01*
X0657957Y0441634D01*
X0658138Y0441356D01*
X0658311Y0441074D01*
X0658478Y0440788D01*
X0658638Y0440498D01*
X0658791Y0440204D01*
X0658936Y0439906D01*
X0659074Y0439605D01*
X0659204Y0439300D01*
X0659327Y0438993D01*
X0659443Y0438682D01*
X0659551Y0438369D01*
X0659651Y0438053D01*
X0659743Y0437735D01*
X0659827Y0437414D01*
X0659904Y0437092D01*
X0659973Y0436768D01*
X0660033Y0436442D01*
X0660086Y0436115D01*
X0660130Y0435787D01*
X0660167Y0435457D01*
X0660195Y0435127D01*
X0660216Y0434796D01*
X0660228Y0434465D01*
X0660232Y0434134D01*
X0660228Y0433803D01*
X0660216Y0433472D01*
X0660195Y0433141D01*
X0660167Y0432811D01*
X0660130Y0432481D01*
X0660086Y0432153D01*
X0660033Y0431826D01*
X0659973Y0431500D01*
X0659904Y0431176D01*
X0659827Y0430854D01*
X0659743Y0430533D01*
X0659651Y0430215D01*
X0659551Y0429899D01*
X0659443Y0429586D01*
X0659327Y0429275D01*
X0659204Y0428968D01*
X0659074Y0428663D01*
X0658936Y0428362D01*
X0658791Y0428064D01*
X0658638Y0427770D01*
X0658478Y0427480D01*
X0658311Y0427194D01*
X0658138Y0426912D01*
X0657957Y0426634D01*
X0657769Y0426361D01*
X0657575Y0426092D01*
X0657375Y0425828D01*
X0657168Y0425570D01*
X0656954Y0425316D01*
X0656735Y0425068D01*
X0656509Y0424825D01*
X0656278Y0424588D01*
X0656041Y0424357D01*
X0655798Y0424131D01*
X0655550Y0423912D01*
X0655296Y0423698D01*
X0655038Y0423491D01*
X0654774Y0423291D01*
X0654505Y0423097D01*
X0654232Y0422909D01*
X0653954Y0422728D01*
X0653672Y0422555D01*
X0653386Y0422388D01*
X0653096Y0422228D01*
X0652802Y0422075D01*
X0652504Y0421930D01*
X0652203Y0421792D01*
X0651898Y0421662D01*
X0651591Y0421539D01*
X0651280Y0421423D01*
X0650967Y0421315D01*
X0650651Y0421215D01*
X0650333Y0421123D01*
X0650012Y0421039D01*
X0649690Y0420962D01*
X0649366Y0420893D01*
X0649040Y0420833D01*
X0648713Y0420780D01*
X0648385Y0420736D01*
X0648055Y0420699D01*
X0647725Y0420671D01*
X0647394Y0420650D01*
X0647063Y0420638D01*
X0646732Y0420634D01*
X0646401Y0420638D01*
X0646070Y0420650D01*
X0645739Y0420671D01*
X0645409Y0420699D01*
X0645079Y0420736D01*
X0644751Y0420780D01*
X0644424Y0420833D01*
X0644098Y0420893D01*
X0643774Y0420962D01*
X0643452Y0421039D01*
X0643131Y0421123D01*
X0642813Y0421215D01*
X0642497Y0421315D01*
X0642184Y0421423D01*
X0641873Y0421539D01*
X0641566Y0421662D01*
X0641261Y0421792D01*
X0640960Y0421930D01*
X0640662Y0422075D01*
X0640368Y0422228D01*
X0640078Y0422388D01*
X0639792Y0422555D01*
X0639510Y0422728D01*
X0639232Y0422909D01*
X0638959Y0423097D01*
X0638690Y0423291D01*
X0638426Y0423491D01*
X0638168Y0423698D01*
X0637914Y0423912D01*
X0637666Y0424131D01*
X0637423Y0424357D01*
X0637186Y0424588D01*
X0636955Y0424825D01*
X0636729Y0425068D01*
X0636510Y0425316D01*
X0636296Y0425570D01*
X0636089Y0425828D01*
X0635889Y0426092D01*
X0635695Y0426361D01*
X0635507Y0426634D01*
X0635326Y0426912D01*
X0635153Y0427194D01*
X0634986Y0427480D01*
X0634826Y0427770D01*
X0634673Y0428064D01*
X0634528Y0428362D01*
X0634390Y0428663D01*
X0634260Y0428968D01*
X0634137Y0429275D01*
X0634021Y0429586D01*
X0633913Y0429899D01*
X0633813Y0430215D01*
X0633721Y0430533D01*
X0633637Y0430854D01*
X0633560Y0431176D01*
X0633491Y0431500D01*
X0633431Y0431826D01*
X0633378Y0432153D01*
X0633334Y0432481D01*
X0633297Y0432811D01*
X0633269Y0433141D01*
X0633248Y0433472D01*
X0633236Y0433803D01*
X0633232Y0434134D01*
X0633232Y0268780D02*
X0633236Y0269111D01*
X0633248Y0269442D01*
X0633269Y0269773D01*
X0633297Y0270103D01*
X0633334Y0270433D01*
X0633378Y0270761D01*
X0633431Y0271088D01*
X0633491Y0271414D01*
X0633560Y0271738D01*
X0633637Y0272060D01*
X0633721Y0272381D01*
X0633813Y0272699D01*
X0633913Y0273015D01*
X0634021Y0273328D01*
X0634137Y0273639D01*
X0634260Y0273946D01*
X0634390Y0274251D01*
X0634528Y0274552D01*
X0634673Y0274850D01*
X0634826Y0275144D01*
X0634986Y0275434D01*
X0635153Y0275720D01*
X0635326Y0276002D01*
X0635507Y0276280D01*
X0635695Y0276553D01*
X0635889Y0276822D01*
X0636089Y0277086D01*
X0636296Y0277344D01*
X0636510Y0277598D01*
X0636729Y0277846D01*
X0636955Y0278089D01*
X0637186Y0278326D01*
X0637423Y0278557D01*
X0637666Y0278783D01*
X0637914Y0279002D01*
X0638168Y0279216D01*
X0638426Y0279423D01*
X0638690Y0279623D01*
X0638959Y0279817D01*
X0639232Y0280005D01*
X0639510Y0280186D01*
X0639792Y0280359D01*
X0640078Y0280526D01*
X0640368Y0280686D01*
X0640662Y0280839D01*
X0640960Y0280984D01*
X0641261Y0281122D01*
X0641566Y0281252D01*
X0641873Y0281375D01*
X0642184Y0281491D01*
X0642497Y0281599D01*
X0642813Y0281699D01*
X0643131Y0281791D01*
X0643452Y0281875D01*
X0643774Y0281952D01*
X0644098Y0282021D01*
X0644424Y0282081D01*
X0644751Y0282134D01*
X0645079Y0282178D01*
X0645409Y0282215D01*
X0645739Y0282243D01*
X0646070Y0282264D01*
X0646401Y0282276D01*
X0646732Y0282280D01*
X0647063Y0282276D01*
X0647394Y0282264D01*
X0647725Y0282243D01*
X0648055Y0282215D01*
X0648385Y0282178D01*
X0648713Y0282134D01*
X0649040Y0282081D01*
X0649366Y0282021D01*
X0649690Y0281952D01*
X0650012Y0281875D01*
X0650333Y0281791D01*
X0650651Y0281699D01*
X0650967Y0281599D01*
X0651280Y0281491D01*
X0651591Y0281375D01*
X0651898Y0281252D01*
X0652203Y0281122D01*
X0652504Y0280984D01*
X0652802Y0280839D01*
X0653096Y0280686D01*
X0653386Y0280526D01*
X0653672Y0280359D01*
X0653954Y0280186D01*
X0654232Y0280005D01*
X0654505Y0279817D01*
X0654774Y0279623D01*
X0655038Y0279423D01*
X0655296Y0279216D01*
X0655550Y0279002D01*
X0655798Y0278783D01*
X0656041Y0278557D01*
X0656278Y0278326D01*
X0656509Y0278089D01*
X0656735Y0277846D01*
X0656954Y0277598D01*
X0657168Y0277344D01*
X0657375Y0277086D01*
X0657575Y0276822D01*
X0657769Y0276553D01*
X0657957Y0276280D01*
X0658138Y0276002D01*
X0658311Y0275720D01*
X0658478Y0275434D01*
X0658638Y0275144D01*
X0658791Y0274850D01*
X0658936Y0274552D01*
X0659074Y0274251D01*
X0659204Y0273946D01*
X0659327Y0273639D01*
X0659443Y0273328D01*
X0659551Y0273015D01*
X0659651Y0272699D01*
X0659743Y0272381D01*
X0659827Y0272060D01*
X0659904Y0271738D01*
X0659973Y0271414D01*
X0660033Y0271088D01*
X0660086Y0270761D01*
X0660130Y0270433D01*
X0660167Y0270103D01*
X0660195Y0269773D01*
X0660216Y0269442D01*
X0660228Y0269111D01*
X0660232Y0268780D01*
X0660228Y0268449D01*
X0660216Y0268118D01*
X0660195Y0267787D01*
X0660167Y0267457D01*
X0660130Y0267127D01*
X0660086Y0266799D01*
X0660033Y0266472D01*
X0659973Y0266146D01*
X0659904Y0265822D01*
X0659827Y0265500D01*
X0659743Y0265179D01*
X0659651Y0264861D01*
X0659551Y0264545D01*
X0659443Y0264232D01*
X0659327Y0263921D01*
X0659204Y0263614D01*
X0659074Y0263309D01*
X0658936Y0263008D01*
X0658791Y0262710D01*
X0658638Y0262416D01*
X0658478Y0262126D01*
X0658311Y0261840D01*
X0658138Y0261558D01*
X0657957Y0261280D01*
X0657769Y0261007D01*
X0657575Y0260738D01*
X0657375Y0260474D01*
X0657168Y0260216D01*
X0656954Y0259962D01*
X0656735Y0259714D01*
X0656509Y0259471D01*
X0656278Y0259234D01*
X0656041Y0259003D01*
X0655798Y0258777D01*
X0655550Y0258558D01*
X0655296Y0258344D01*
X0655038Y0258137D01*
X0654774Y0257937D01*
X0654505Y0257743D01*
X0654232Y0257555D01*
X0653954Y0257374D01*
X0653672Y0257201D01*
X0653386Y0257034D01*
X0653096Y0256874D01*
X0652802Y0256721D01*
X0652504Y0256576D01*
X0652203Y0256438D01*
X0651898Y0256308D01*
X0651591Y0256185D01*
X0651280Y0256069D01*
X0650967Y0255961D01*
X0650651Y0255861D01*
X0650333Y0255769D01*
X0650012Y0255685D01*
X0649690Y0255608D01*
X0649366Y0255539D01*
X0649040Y0255479D01*
X0648713Y0255426D01*
X0648385Y0255382D01*
X0648055Y0255345D01*
X0647725Y0255317D01*
X0647394Y0255296D01*
X0647063Y0255284D01*
X0646732Y0255280D01*
X0646401Y0255284D01*
X0646070Y0255296D01*
X0645739Y0255317D01*
X0645409Y0255345D01*
X0645079Y0255382D01*
X0644751Y0255426D01*
X0644424Y0255479D01*
X0644098Y0255539D01*
X0643774Y0255608D01*
X0643452Y0255685D01*
X0643131Y0255769D01*
X0642813Y0255861D01*
X0642497Y0255961D01*
X0642184Y0256069D01*
X0641873Y0256185D01*
X0641566Y0256308D01*
X0641261Y0256438D01*
X0640960Y0256576D01*
X0640662Y0256721D01*
X0640368Y0256874D01*
X0640078Y0257034D01*
X0639792Y0257201D01*
X0639510Y0257374D01*
X0639232Y0257555D01*
X0638959Y0257743D01*
X0638690Y0257937D01*
X0638426Y0258137D01*
X0638168Y0258344D01*
X0637914Y0258558D01*
X0637666Y0258777D01*
X0637423Y0259003D01*
X0637186Y0259234D01*
X0636955Y0259471D01*
X0636729Y0259714D01*
X0636510Y0259962D01*
X0636296Y0260216D01*
X0636089Y0260474D01*
X0635889Y0260738D01*
X0635695Y0261007D01*
X0635507Y0261280D01*
X0635326Y0261558D01*
X0635153Y0261840D01*
X0634986Y0262126D01*
X0634826Y0262416D01*
X0634673Y0262710D01*
X0634528Y0263008D01*
X0634390Y0263309D01*
X0634260Y0263614D01*
X0634137Y0263921D01*
X0634021Y0264232D01*
X0633913Y0264545D01*
X0633813Y0264861D01*
X0633721Y0265179D01*
X0633637Y0265500D01*
X0633560Y0265822D01*
X0633491Y0266146D01*
X0633431Y0266472D01*
X0633378Y0266799D01*
X0633334Y0267127D01*
X0633297Y0267457D01*
X0633269Y0267787D01*
X0633248Y0268118D01*
X0633236Y0268449D01*
X0633232Y0268780D01*
X0349768Y0268780D02*
X0349772Y0269111D01*
X0349784Y0269442D01*
X0349805Y0269773D01*
X0349833Y0270103D01*
X0349870Y0270433D01*
X0349914Y0270761D01*
X0349967Y0271088D01*
X0350027Y0271414D01*
X0350096Y0271738D01*
X0350173Y0272060D01*
X0350257Y0272381D01*
X0350349Y0272699D01*
X0350449Y0273015D01*
X0350557Y0273328D01*
X0350673Y0273639D01*
X0350796Y0273946D01*
X0350926Y0274251D01*
X0351064Y0274552D01*
X0351209Y0274850D01*
X0351362Y0275144D01*
X0351522Y0275434D01*
X0351689Y0275720D01*
X0351862Y0276002D01*
X0352043Y0276280D01*
X0352231Y0276553D01*
X0352425Y0276822D01*
X0352625Y0277086D01*
X0352832Y0277344D01*
X0353046Y0277598D01*
X0353265Y0277846D01*
X0353491Y0278089D01*
X0353722Y0278326D01*
X0353959Y0278557D01*
X0354202Y0278783D01*
X0354450Y0279002D01*
X0354704Y0279216D01*
X0354962Y0279423D01*
X0355226Y0279623D01*
X0355495Y0279817D01*
X0355768Y0280005D01*
X0356046Y0280186D01*
X0356328Y0280359D01*
X0356614Y0280526D01*
X0356904Y0280686D01*
X0357198Y0280839D01*
X0357496Y0280984D01*
X0357797Y0281122D01*
X0358102Y0281252D01*
X0358409Y0281375D01*
X0358720Y0281491D01*
X0359033Y0281599D01*
X0359349Y0281699D01*
X0359667Y0281791D01*
X0359988Y0281875D01*
X0360310Y0281952D01*
X0360634Y0282021D01*
X0360960Y0282081D01*
X0361287Y0282134D01*
X0361615Y0282178D01*
X0361945Y0282215D01*
X0362275Y0282243D01*
X0362606Y0282264D01*
X0362937Y0282276D01*
X0363268Y0282280D01*
X0363599Y0282276D01*
X0363930Y0282264D01*
X0364261Y0282243D01*
X0364591Y0282215D01*
X0364921Y0282178D01*
X0365249Y0282134D01*
X0365576Y0282081D01*
X0365902Y0282021D01*
X0366226Y0281952D01*
X0366548Y0281875D01*
X0366869Y0281791D01*
X0367187Y0281699D01*
X0367503Y0281599D01*
X0367816Y0281491D01*
X0368127Y0281375D01*
X0368434Y0281252D01*
X0368739Y0281122D01*
X0369040Y0280984D01*
X0369338Y0280839D01*
X0369632Y0280686D01*
X0369922Y0280526D01*
X0370208Y0280359D01*
X0370490Y0280186D01*
X0370768Y0280005D01*
X0371041Y0279817D01*
X0371310Y0279623D01*
X0371574Y0279423D01*
X0371832Y0279216D01*
X0372086Y0279002D01*
X0372334Y0278783D01*
X0372577Y0278557D01*
X0372814Y0278326D01*
X0373045Y0278089D01*
X0373271Y0277846D01*
X0373490Y0277598D01*
X0373704Y0277344D01*
X0373911Y0277086D01*
X0374111Y0276822D01*
X0374305Y0276553D01*
X0374493Y0276280D01*
X0374674Y0276002D01*
X0374847Y0275720D01*
X0375014Y0275434D01*
X0375174Y0275144D01*
X0375327Y0274850D01*
X0375472Y0274552D01*
X0375610Y0274251D01*
X0375740Y0273946D01*
X0375863Y0273639D01*
X0375979Y0273328D01*
X0376087Y0273015D01*
X0376187Y0272699D01*
X0376279Y0272381D01*
X0376363Y0272060D01*
X0376440Y0271738D01*
X0376509Y0271414D01*
X0376569Y0271088D01*
X0376622Y0270761D01*
X0376666Y0270433D01*
X0376703Y0270103D01*
X0376731Y0269773D01*
X0376752Y0269442D01*
X0376764Y0269111D01*
X0376768Y0268780D01*
X0376764Y0268449D01*
X0376752Y0268118D01*
X0376731Y0267787D01*
X0376703Y0267457D01*
X0376666Y0267127D01*
X0376622Y0266799D01*
X0376569Y0266472D01*
X0376509Y0266146D01*
X0376440Y0265822D01*
X0376363Y0265500D01*
X0376279Y0265179D01*
X0376187Y0264861D01*
X0376087Y0264545D01*
X0375979Y0264232D01*
X0375863Y0263921D01*
X0375740Y0263614D01*
X0375610Y0263309D01*
X0375472Y0263008D01*
X0375327Y0262710D01*
X0375174Y0262416D01*
X0375014Y0262126D01*
X0374847Y0261840D01*
X0374674Y0261558D01*
X0374493Y0261280D01*
X0374305Y0261007D01*
X0374111Y0260738D01*
X0373911Y0260474D01*
X0373704Y0260216D01*
X0373490Y0259962D01*
X0373271Y0259714D01*
X0373045Y0259471D01*
X0372814Y0259234D01*
X0372577Y0259003D01*
X0372334Y0258777D01*
X0372086Y0258558D01*
X0371832Y0258344D01*
X0371574Y0258137D01*
X0371310Y0257937D01*
X0371041Y0257743D01*
X0370768Y0257555D01*
X0370490Y0257374D01*
X0370208Y0257201D01*
X0369922Y0257034D01*
X0369632Y0256874D01*
X0369338Y0256721D01*
X0369040Y0256576D01*
X0368739Y0256438D01*
X0368434Y0256308D01*
X0368127Y0256185D01*
X0367816Y0256069D01*
X0367503Y0255961D01*
X0367187Y0255861D01*
X0366869Y0255769D01*
X0366548Y0255685D01*
X0366226Y0255608D01*
X0365902Y0255539D01*
X0365576Y0255479D01*
X0365249Y0255426D01*
X0364921Y0255382D01*
X0364591Y0255345D01*
X0364261Y0255317D01*
X0363930Y0255296D01*
X0363599Y0255284D01*
X0363268Y0255280D01*
X0362937Y0255284D01*
X0362606Y0255296D01*
X0362275Y0255317D01*
X0361945Y0255345D01*
X0361615Y0255382D01*
X0361287Y0255426D01*
X0360960Y0255479D01*
X0360634Y0255539D01*
X0360310Y0255608D01*
X0359988Y0255685D01*
X0359667Y0255769D01*
X0359349Y0255861D01*
X0359033Y0255961D01*
X0358720Y0256069D01*
X0358409Y0256185D01*
X0358102Y0256308D01*
X0357797Y0256438D01*
X0357496Y0256576D01*
X0357198Y0256721D01*
X0356904Y0256874D01*
X0356614Y0257034D01*
X0356328Y0257201D01*
X0356046Y0257374D01*
X0355768Y0257555D01*
X0355495Y0257743D01*
X0355226Y0257937D01*
X0354962Y0258137D01*
X0354704Y0258344D01*
X0354450Y0258558D01*
X0354202Y0258777D01*
X0353959Y0259003D01*
X0353722Y0259234D01*
X0353491Y0259471D01*
X0353265Y0259714D01*
X0353046Y0259962D01*
X0352832Y0260216D01*
X0352625Y0260474D01*
X0352425Y0260738D01*
X0352231Y0261007D01*
X0352043Y0261280D01*
X0351862Y0261558D01*
X0351689Y0261840D01*
X0351522Y0262126D01*
X0351362Y0262416D01*
X0351209Y0262710D01*
X0351064Y0263008D01*
X0350926Y0263309D01*
X0350796Y0263614D01*
X0350673Y0263921D01*
X0350557Y0264232D01*
X0350449Y0264545D01*
X0350349Y0264861D01*
X0350257Y0265179D01*
X0350173Y0265500D01*
X0350096Y0265822D01*
X0350027Y0266146D01*
X0349967Y0266472D01*
X0349914Y0266799D01*
X0349870Y0267127D01*
X0349833Y0267457D01*
X0349805Y0267787D01*
X0349784Y0268118D01*
X0349772Y0268449D01*
X0349768Y0268780D01*
D13*
X0397284Y0419758D02*
X0400286Y0422760D01*
X0400286Y0423511D01*
X0399536Y0424262D01*
X0398035Y0424262D01*
X0397284Y0423511D01*
X0397284Y0419758D02*
X0400286Y0419758D01*
X0416284Y0419758D02*
X0419286Y0419758D01*
X0417785Y0419758D02*
X0417785Y0424262D01*
X0416284Y0422760D01*
X0445552Y0423511D02*
X0446302Y0424262D01*
X0447804Y0424262D01*
X0448554Y0423511D01*
X0448554Y0422760D01*
X0447804Y0422010D01*
X0448554Y0421259D01*
X0448554Y0420509D01*
X0447804Y0419758D01*
X0446302Y0419758D01*
X0445552Y0420509D01*
X0447053Y0422010D02*
X0447804Y0422010D01*
X0465552Y0423511D02*
X0466302Y0424262D01*
X0467804Y0424262D01*
X0468554Y0423511D01*
X0468554Y0422760D01*
X0465552Y0419758D01*
X0468554Y0419758D01*
X0484552Y0419758D02*
X0487554Y0419758D01*
X0486053Y0419758D02*
X0486053Y0424262D01*
X0484552Y0422760D01*
X0514056Y0423511D02*
X0514806Y0424262D01*
X0516307Y0424262D01*
X0517058Y0423511D01*
X0517058Y0422760D01*
X0516307Y0422010D01*
X0517058Y0421259D01*
X0517058Y0420509D01*
X0516307Y0419758D01*
X0514806Y0419758D01*
X0514056Y0420509D01*
X0515557Y0422010D02*
X0516307Y0422010D01*
X0534056Y0423511D02*
X0534806Y0424262D01*
X0536307Y0424262D01*
X0537058Y0423511D01*
X0537058Y0422760D01*
X0534056Y0419758D01*
X0537058Y0419758D01*
X0553056Y0419758D02*
X0556058Y0419758D01*
X0554557Y0419758D02*
X0554557Y0424262D01*
X0553056Y0422760D01*
X0582559Y0423511D02*
X0583310Y0424262D01*
X0584811Y0424262D01*
X0585562Y0423511D01*
X0585562Y0422760D01*
X0584811Y0422010D01*
X0585562Y0421259D01*
X0585562Y0420509D01*
X0584811Y0419758D01*
X0583310Y0419758D01*
X0582559Y0420509D01*
X0584061Y0422010D02*
X0584811Y0422010D01*
X0602559Y0423511D02*
X0603310Y0424262D01*
X0604811Y0424262D01*
X0605562Y0423511D01*
X0605562Y0422760D01*
X0602559Y0419758D01*
X0605562Y0419758D01*
X0621559Y0419758D02*
X0624562Y0419758D01*
X0623061Y0419758D02*
X0623061Y0424262D01*
X0621559Y0422760D01*
D14*
X0645965Y0404508D02*
X0560925Y0404508D01*
X0560925Y0290531D01*
X0645965Y0290531D01*
X0645965Y0404508D01*
X0645551Y0398307D02*
X0645551Y0296732D01*
X0561299Y0296732D01*
X0561299Y0398307D01*
X0645551Y0398307D01*
X0547539Y0404508D02*
X0462500Y0404508D01*
X0462500Y0290531D01*
X0547539Y0290531D01*
X0547539Y0404508D01*
X0547126Y0398307D02*
X0547126Y0296732D01*
X0462874Y0296732D01*
X0462874Y0398307D01*
X0547126Y0398307D01*
X0449114Y0404508D02*
X0364075Y0404508D01*
X0364075Y0290531D01*
X0449114Y0290531D01*
X0449114Y0404508D01*
X0448701Y0398307D02*
X0448701Y0296732D01*
X0364449Y0296732D01*
X0364449Y0398307D01*
X0448701Y0398307D01*
X0445647Y0272717D02*
X0445649Y0272773D01*
X0445655Y0272830D01*
X0445665Y0272885D01*
X0445679Y0272940D01*
X0445696Y0272994D01*
X0445718Y0273046D01*
X0445743Y0273096D01*
X0445771Y0273145D01*
X0445803Y0273192D01*
X0445838Y0273236D01*
X0445876Y0273278D01*
X0445917Y0273317D01*
X0445961Y0273352D01*
X0446007Y0273385D01*
X0446055Y0273414D01*
X0446105Y0273440D01*
X0446157Y0273463D01*
X0446211Y0273481D01*
X0446265Y0273496D01*
X0446320Y0273507D01*
X0446376Y0273514D01*
X0446433Y0273517D01*
X0446489Y0273516D01*
X0446546Y0273511D01*
X0446601Y0273502D01*
X0446656Y0273489D01*
X0446710Y0273472D01*
X0446763Y0273452D01*
X0446814Y0273428D01*
X0446863Y0273400D01*
X0446910Y0273369D01*
X0446955Y0273335D01*
X0446998Y0273297D01*
X0447037Y0273257D01*
X0447074Y0273214D01*
X0447107Y0273169D01*
X0447137Y0273121D01*
X0447164Y0273071D01*
X0447187Y0273020D01*
X0447207Y0272967D01*
X0447223Y0272913D01*
X0447235Y0272857D01*
X0447243Y0272802D01*
X0447247Y0272745D01*
X0447247Y0272689D01*
X0447243Y0272632D01*
X0447235Y0272577D01*
X0447223Y0272521D01*
X0447207Y0272467D01*
X0447187Y0272414D01*
X0447164Y0272363D01*
X0447137Y0272313D01*
X0447107Y0272265D01*
X0447074Y0272220D01*
X0447037Y0272177D01*
X0446998Y0272137D01*
X0446955Y0272099D01*
X0446910Y0272065D01*
X0446863Y0272034D01*
X0446814Y0272006D01*
X0446763Y0271982D01*
X0446710Y0271962D01*
X0446656Y0271945D01*
X0446601Y0271932D01*
X0446546Y0271923D01*
X0446489Y0271918D01*
X0446433Y0271917D01*
X0446376Y0271920D01*
X0446320Y0271927D01*
X0446265Y0271938D01*
X0446211Y0271953D01*
X0446157Y0271971D01*
X0446105Y0271994D01*
X0446055Y0272020D01*
X0446007Y0272049D01*
X0445961Y0272082D01*
X0445917Y0272117D01*
X0445876Y0272156D01*
X0445838Y0272198D01*
X0445803Y0272242D01*
X0445771Y0272289D01*
X0445743Y0272338D01*
X0445718Y0272388D01*
X0445696Y0272440D01*
X0445679Y0272494D01*
X0445665Y0272549D01*
X0445655Y0272604D01*
X0445649Y0272661D01*
X0445647Y0272717D01*
X0410214Y0272717D02*
X0410216Y0272773D01*
X0410222Y0272830D01*
X0410232Y0272885D01*
X0410246Y0272940D01*
X0410263Y0272994D01*
X0410285Y0273046D01*
X0410310Y0273096D01*
X0410338Y0273145D01*
X0410370Y0273192D01*
X0410405Y0273236D01*
X0410443Y0273278D01*
X0410484Y0273317D01*
X0410528Y0273352D01*
X0410574Y0273385D01*
X0410622Y0273414D01*
X0410672Y0273440D01*
X0410724Y0273463D01*
X0410778Y0273481D01*
X0410832Y0273496D01*
X0410887Y0273507D01*
X0410943Y0273514D01*
X0411000Y0273517D01*
X0411056Y0273516D01*
X0411113Y0273511D01*
X0411168Y0273502D01*
X0411223Y0273489D01*
X0411277Y0273472D01*
X0411330Y0273452D01*
X0411381Y0273428D01*
X0411430Y0273400D01*
X0411477Y0273369D01*
X0411522Y0273335D01*
X0411565Y0273297D01*
X0411604Y0273257D01*
X0411641Y0273214D01*
X0411674Y0273169D01*
X0411704Y0273121D01*
X0411731Y0273071D01*
X0411754Y0273020D01*
X0411774Y0272967D01*
X0411790Y0272913D01*
X0411802Y0272857D01*
X0411810Y0272802D01*
X0411814Y0272745D01*
X0411814Y0272689D01*
X0411810Y0272632D01*
X0411802Y0272577D01*
X0411790Y0272521D01*
X0411774Y0272467D01*
X0411754Y0272414D01*
X0411731Y0272363D01*
X0411704Y0272313D01*
X0411674Y0272265D01*
X0411641Y0272220D01*
X0411604Y0272177D01*
X0411565Y0272137D01*
X0411522Y0272099D01*
X0411477Y0272065D01*
X0411430Y0272034D01*
X0411381Y0272006D01*
X0411330Y0271982D01*
X0411277Y0271962D01*
X0411223Y0271945D01*
X0411168Y0271932D01*
X0411113Y0271923D01*
X0411056Y0271918D01*
X0411000Y0271917D01*
X0410943Y0271920D01*
X0410887Y0271927D01*
X0410832Y0271938D01*
X0410778Y0271953D01*
X0410724Y0271971D01*
X0410672Y0271994D01*
X0410622Y0272020D01*
X0410574Y0272049D01*
X0410528Y0272082D01*
X0410484Y0272117D01*
X0410443Y0272156D01*
X0410405Y0272198D01*
X0410370Y0272242D01*
X0410338Y0272289D01*
X0410310Y0272338D01*
X0410285Y0272388D01*
X0410263Y0272440D01*
X0410246Y0272494D01*
X0410232Y0272549D01*
X0410222Y0272604D01*
X0410216Y0272661D01*
X0410214Y0272717D01*
X0500765Y0272717D02*
X0500767Y0272773D01*
X0500773Y0272830D01*
X0500783Y0272885D01*
X0500797Y0272940D01*
X0500814Y0272994D01*
X0500836Y0273046D01*
X0500861Y0273096D01*
X0500889Y0273145D01*
X0500921Y0273192D01*
X0500956Y0273236D01*
X0500994Y0273278D01*
X0501035Y0273317D01*
X0501079Y0273352D01*
X0501125Y0273385D01*
X0501173Y0273414D01*
X0501223Y0273440D01*
X0501275Y0273463D01*
X0501329Y0273481D01*
X0501383Y0273496D01*
X0501438Y0273507D01*
X0501494Y0273514D01*
X0501551Y0273517D01*
X0501607Y0273516D01*
X0501664Y0273511D01*
X0501719Y0273502D01*
X0501774Y0273489D01*
X0501828Y0273472D01*
X0501881Y0273452D01*
X0501932Y0273428D01*
X0501981Y0273400D01*
X0502028Y0273369D01*
X0502073Y0273335D01*
X0502116Y0273297D01*
X0502155Y0273257D01*
X0502192Y0273214D01*
X0502225Y0273169D01*
X0502255Y0273121D01*
X0502282Y0273071D01*
X0502305Y0273020D01*
X0502325Y0272967D01*
X0502341Y0272913D01*
X0502353Y0272857D01*
X0502361Y0272802D01*
X0502365Y0272745D01*
X0502365Y0272689D01*
X0502361Y0272632D01*
X0502353Y0272577D01*
X0502341Y0272521D01*
X0502325Y0272467D01*
X0502305Y0272414D01*
X0502282Y0272363D01*
X0502255Y0272313D01*
X0502225Y0272265D01*
X0502192Y0272220D01*
X0502155Y0272177D01*
X0502116Y0272137D01*
X0502073Y0272099D01*
X0502028Y0272065D01*
X0501981Y0272034D01*
X0501932Y0272006D01*
X0501881Y0271982D01*
X0501828Y0271962D01*
X0501774Y0271945D01*
X0501719Y0271932D01*
X0501664Y0271923D01*
X0501607Y0271918D01*
X0501551Y0271917D01*
X0501494Y0271920D01*
X0501438Y0271927D01*
X0501383Y0271938D01*
X0501329Y0271953D01*
X0501275Y0271971D01*
X0501223Y0271994D01*
X0501173Y0272020D01*
X0501125Y0272049D01*
X0501079Y0272082D01*
X0501035Y0272117D01*
X0500994Y0272156D01*
X0500956Y0272198D01*
X0500921Y0272242D01*
X0500889Y0272289D01*
X0500861Y0272338D01*
X0500836Y0272388D01*
X0500814Y0272440D01*
X0500797Y0272494D01*
X0500783Y0272549D01*
X0500773Y0272604D01*
X0500767Y0272661D01*
X0500765Y0272717D01*
X0536198Y0272717D02*
X0536200Y0272773D01*
X0536206Y0272830D01*
X0536216Y0272885D01*
X0536230Y0272940D01*
X0536247Y0272994D01*
X0536269Y0273046D01*
X0536294Y0273096D01*
X0536322Y0273145D01*
X0536354Y0273192D01*
X0536389Y0273236D01*
X0536427Y0273278D01*
X0536468Y0273317D01*
X0536512Y0273352D01*
X0536558Y0273385D01*
X0536606Y0273414D01*
X0536656Y0273440D01*
X0536708Y0273463D01*
X0536762Y0273481D01*
X0536816Y0273496D01*
X0536871Y0273507D01*
X0536927Y0273514D01*
X0536984Y0273517D01*
X0537040Y0273516D01*
X0537097Y0273511D01*
X0537152Y0273502D01*
X0537207Y0273489D01*
X0537261Y0273472D01*
X0537314Y0273452D01*
X0537365Y0273428D01*
X0537414Y0273400D01*
X0537461Y0273369D01*
X0537506Y0273335D01*
X0537549Y0273297D01*
X0537588Y0273257D01*
X0537625Y0273214D01*
X0537658Y0273169D01*
X0537688Y0273121D01*
X0537715Y0273071D01*
X0537738Y0273020D01*
X0537758Y0272967D01*
X0537774Y0272913D01*
X0537786Y0272857D01*
X0537794Y0272802D01*
X0537798Y0272745D01*
X0537798Y0272689D01*
X0537794Y0272632D01*
X0537786Y0272577D01*
X0537774Y0272521D01*
X0537758Y0272467D01*
X0537738Y0272414D01*
X0537715Y0272363D01*
X0537688Y0272313D01*
X0537658Y0272265D01*
X0537625Y0272220D01*
X0537588Y0272177D01*
X0537549Y0272137D01*
X0537506Y0272099D01*
X0537461Y0272065D01*
X0537414Y0272034D01*
X0537365Y0272006D01*
X0537314Y0271982D01*
X0537261Y0271962D01*
X0537207Y0271945D01*
X0537152Y0271932D01*
X0537097Y0271923D01*
X0537040Y0271918D01*
X0536984Y0271917D01*
X0536927Y0271920D01*
X0536871Y0271927D01*
X0536816Y0271938D01*
X0536762Y0271953D01*
X0536708Y0271971D01*
X0536656Y0271994D01*
X0536606Y0272020D01*
X0536558Y0272049D01*
X0536512Y0272082D01*
X0536468Y0272117D01*
X0536427Y0272156D01*
X0536389Y0272198D01*
X0536354Y0272242D01*
X0536322Y0272289D01*
X0536294Y0272338D01*
X0536269Y0272388D01*
X0536247Y0272440D01*
X0536230Y0272494D01*
X0536216Y0272549D01*
X0536206Y0272604D01*
X0536200Y0272661D01*
X0536198Y0272717D01*
X0595253Y0272717D02*
X0595255Y0272773D01*
X0595261Y0272830D01*
X0595271Y0272885D01*
X0595285Y0272940D01*
X0595302Y0272994D01*
X0595324Y0273046D01*
X0595349Y0273096D01*
X0595377Y0273145D01*
X0595409Y0273192D01*
X0595444Y0273236D01*
X0595482Y0273278D01*
X0595523Y0273317D01*
X0595567Y0273352D01*
X0595613Y0273385D01*
X0595661Y0273414D01*
X0595711Y0273440D01*
X0595763Y0273463D01*
X0595817Y0273481D01*
X0595871Y0273496D01*
X0595926Y0273507D01*
X0595982Y0273514D01*
X0596039Y0273517D01*
X0596095Y0273516D01*
X0596152Y0273511D01*
X0596207Y0273502D01*
X0596262Y0273489D01*
X0596316Y0273472D01*
X0596369Y0273452D01*
X0596420Y0273428D01*
X0596469Y0273400D01*
X0596516Y0273369D01*
X0596561Y0273335D01*
X0596604Y0273297D01*
X0596643Y0273257D01*
X0596680Y0273214D01*
X0596713Y0273169D01*
X0596743Y0273121D01*
X0596770Y0273071D01*
X0596793Y0273020D01*
X0596813Y0272967D01*
X0596829Y0272913D01*
X0596841Y0272857D01*
X0596849Y0272802D01*
X0596853Y0272745D01*
X0596853Y0272689D01*
X0596849Y0272632D01*
X0596841Y0272577D01*
X0596829Y0272521D01*
X0596813Y0272467D01*
X0596793Y0272414D01*
X0596770Y0272363D01*
X0596743Y0272313D01*
X0596713Y0272265D01*
X0596680Y0272220D01*
X0596643Y0272177D01*
X0596604Y0272137D01*
X0596561Y0272099D01*
X0596516Y0272065D01*
X0596469Y0272034D01*
X0596420Y0272006D01*
X0596369Y0271982D01*
X0596316Y0271962D01*
X0596262Y0271945D01*
X0596207Y0271932D01*
X0596152Y0271923D01*
X0596095Y0271918D01*
X0596039Y0271917D01*
X0595982Y0271920D01*
X0595926Y0271927D01*
X0595871Y0271938D01*
X0595817Y0271953D01*
X0595763Y0271971D01*
X0595711Y0271994D01*
X0595661Y0272020D01*
X0595613Y0272049D01*
X0595567Y0272082D01*
X0595523Y0272117D01*
X0595482Y0272156D01*
X0595444Y0272198D01*
X0595409Y0272242D01*
X0595377Y0272289D01*
X0595349Y0272338D01*
X0595324Y0272388D01*
X0595302Y0272440D01*
X0595285Y0272494D01*
X0595271Y0272549D01*
X0595261Y0272604D01*
X0595255Y0272661D01*
X0595253Y0272717D01*
X0630686Y0272717D02*
X0630688Y0272773D01*
X0630694Y0272830D01*
X0630704Y0272885D01*
X0630718Y0272940D01*
X0630735Y0272994D01*
X0630757Y0273046D01*
X0630782Y0273096D01*
X0630810Y0273145D01*
X0630842Y0273192D01*
X0630877Y0273236D01*
X0630915Y0273278D01*
X0630956Y0273317D01*
X0631000Y0273352D01*
X0631046Y0273385D01*
X0631094Y0273414D01*
X0631144Y0273440D01*
X0631196Y0273463D01*
X0631250Y0273481D01*
X0631304Y0273496D01*
X0631359Y0273507D01*
X0631415Y0273514D01*
X0631472Y0273517D01*
X0631528Y0273516D01*
X0631585Y0273511D01*
X0631640Y0273502D01*
X0631695Y0273489D01*
X0631749Y0273472D01*
X0631802Y0273452D01*
X0631853Y0273428D01*
X0631902Y0273400D01*
X0631949Y0273369D01*
X0631994Y0273335D01*
X0632037Y0273297D01*
X0632076Y0273257D01*
X0632113Y0273214D01*
X0632146Y0273169D01*
X0632176Y0273121D01*
X0632203Y0273071D01*
X0632226Y0273020D01*
X0632246Y0272967D01*
X0632262Y0272913D01*
X0632274Y0272857D01*
X0632282Y0272802D01*
X0632286Y0272745D01*
X0632286Y0272689D01*
X0632282Y0272632D01*
X0632274Y0272577D01*
X0632262Y0272521D01*
X0632246Y0272467D01*
X0632226Y0272414D01*
X0632203Y0272363D01*
X0632176Y0272313D01*
X0632146Y0272265D01*
X0632113Y0272220D01*
X0632076Y0272177D01*
X0632037Y0272137D01*
X0631994Y0272099D01*
X0631949Y0272065D01*
X0631902Y0272034D01*
X0631853Y0272006D01*
X0631802Y0271982D01*
X0631749Y0271962D01*
X0631695Y0271945D01*
X0631640Y0271932D01*
X0631585Y0271923D01*
X0631528Y0271918D01*
X0631472Y0271917D01*
X0631415Y0271920D01*
X0631359Y0271927D01*
X0631304Y0271938D01*
X0631250Y0271953D01*
X0631196Y0271971D01*
X0631144Y0271994D01*
X0631094Y0272020D01*
X0631046Y0272049D01*
X0631000Y0272082D01*
X0630956Y0272117D01*
X0630915Y0272156D01*
X0630877Y0272198D01*
X0630842Y0272242D01*
X0630810Y0272289D01*
X0630782Y0272338D01*
X0630757Y0272388D01*
X0630735Y0272440D01*
X0630718Y0272494D01*
X0630704Y0272549D01*
X0630694Y0272604D01*
X0630688Y0272661D01*
X0630686Y0272717D01*
D15*
X0630236Y0265217D02*
X0630236Y0252717D01*
X0600236Y0252717D02*
X0600236Y0265217D01*
X0594803Y0265217D02*
X0594803Y0252717D01*
X0564803Y0252717D02*
X0564803Y0265217D01*
X0535748Y0265217D02*
X0535748Y0252717D01*
X0505748Y0252717D02*
X0505748Y0265217D01*
X0500315Y0265217D02*
X0500315Y0252717D01*
X0470315Y0252717D02*
X0470315Y0265217D01*
X0445197Y0265217D02*
X0445197Y0252717D01*
X0415197Y0252717D02*
X0415197Y0265217D01*
X0409764Y0265217D02*
X0409764Y0252717D01*
X0379764Y0252717D02*
X0379764Y0265217D01*
D16*
X0356969Y0268780D02*
X0356971Y0268938D01*
X0356977Y0269096D01*
X0356987Y0269254D01*
X0357001Y0269412D01*
X0357019Y0269569D01*
X0357040Y0269726D01*
X0357066Y0269882D01*
X0357096Y0270038D01*
X0357129Y0270193D01*
X0357167Y0270346D01*
X0357208Y0270499D01*
X0357253Y0270651D01*
X0357302Y0270802D01*
X0357355Y0270951D01*
X0357411Y0271099D01*
X0357471Y0271245D01*
X0357535Y0271390D01*
X0357603Y0271533D01*
X0357674Y0271675D01*
X0357748Y0271815D01*
X0357826Y0271952D01*
X0357908Y0272088D01*
X0357992Y0272222D01*
X0358081Y0272353D01*
X0358172Y0272482D01*
X0358267Y0272609D01*
X0358364Y0272734D01*
X0358465Y0272856D01*
X0358569Y0272975D01*
X0358676Y0273092D01*
X0358786Y0273206D01*
X0358899Y0273317D01*
X0359014Y0273426D01*
X0359132Y0273531D01*
X0359253Y0273633D01*
X0359376Y0273733D01*
X0359502Y0273829D01*
X0359630Y0273922D01*
X0359760Y0274012D01*
X0359893Y0274098D01*
X0360028Y0274182D01*
X0360164Y0274261D01*
X0360303Y0274338D01*
X0360444Y0274410D01*
X0360586Y0274480D01*
X0360730Y0274545D01*
X0360876Y0274607D01*
X0361023Y0274665D01*
X0361172Y0274720D01*
X0361322Y0274771D01*
X0361473Y0274818D01*
X0361625Y0274861D01*
X0361778Y0274900D01*
X0361933Y0274936D01*
X0362088Y0274967D01*
X0362244Y0274995D01*
X0362400Y0275019D01*
X0362557Y0275039D01*
X0362715Y0275055D01*
X0362872Y0275067D01*
X0363031Y0275075D01*
X0363189Y0275079D01*
X0363347Y0275079D01*
X0363505Y0275075D01*
X0363664Y0275067D01*
X0363821Y0275055D01*
X0363979Y0275039D01*
X0364136Y0275019D01*
X0364292Y0274995D01*
X0364448Y0274967D01*
X0364603Y0274936D01*
X0364758Y0274900D01*
X0364911Y0274861D01*
X0365063Y0274818D01*
X0365214Y0274771D01*
X0365364Y0274720D01*
X0365513Y0274665D01*
X0365660Y0274607D01*
X0365806Y0274545D01*
X0365950Y0274480D01*
X0366092Y0274410D01*
X0366233Y0274338D01*
X0366372Y0274261D01*
X0366508Y0274182D01*
X0366643Y0274098D01*
X0366776Y0274012D01*
X0366906Y0273922D01*
X0367034Y0273829D01*
X0367160Y0273733D01*
X0367283Y0273633D01*
X0367404Y0273531D01*
X0367522Y0273426D01*
X0367637Y0273317D01*
X0367750Y0273206D01*
X0367860Y0273092D01*
X0367967Y0272975D01*
X0368071Y0272856D01*
X0368172Y0272734D01*
X0368269Y0272609D01*
X0368364Y0272482D01*
X0368455Y0272353D01*
X0368544Y0272222D01*
X0368628Y0272088D01*
X0368710Y0271952D01*
X0368788Y0271815D01*
X0368862Y0271675D01*
X0368933Y0271533D01*
X0369001Y0271390D01*
X0369065Y0271245D01*
X0369125Y0271099D01*
X0369181Y0270951D01*
X0369234Y0270802D01*
X0369283Y0270651D01*
X0369328Y0270499D01*
X0369369Y0270346D01*
X0369407Y0270193D01*
X0369440Y0270038D01*
X0369470Y0269882D01*
X0369496Y0269726D01*
X0369517Y0269569D01*
X0369535Y0269412D01*
X0369549Y0269254D01*
X0369559Y0269096D01*
X0369565Y0268938D01*
X0369567Y0268780D01*
X0369565Y0268622D01*
X0369559Y0268464D01*
X0369549Y0268306D01*
X0369535Y0268148D01*
X0369517Y0267991D01*
X0369496Y0267834D01*
X0369470Y0267678D01*
X0369440Y0267522D01*
X0369407Y0267367D01*
X0369369Y0267214D01*
X0369328Y0267061D01*
X0369283Y0266909D01*
X0369234Y0266758D01*
X0369181Y0266609D01*
X0369125Y0266461D01*
X0369065Y0266315D01*
X0369001Y0266170D01*
X0368933Y0266027D01*
X0368862Y0265885D01*
X0368788Y0265745D01*
X0368710Y0265608D01*
X0368628Y0265472D01*
X0368544Y0265338D01*
X0368455Y0265207D01*
X0368364Y0265078D01*
X0368269Y0264951D01*
X0368172Y0264826D01*
X0368071Y0264704D01*
X0367967Y0264585D01*
X0367860Y0264468D01*
X0367750Y0264354D01*
X0367637Y0264243D01*
X0367522Y0264134D01*
X0367404Y0264029D01*
X0367283Y0263927D01*
X0367160Y0263827D01*
X0367034Y0263731D01*
X0366906Y0263638D01*
X0366776Y0263548D01*
X0366643Y0263462D01*
X0366508Y0263378D01*
X0366372Y0263299D01*
X0366233Y0263222D01*
X0366092Y0263150D01*
X0365950Y0263080D01*
X0365806Y0263015D01*
X0365660Y0262953D01*
X0365513Y0262895D01*
X0365364Y0262840D01*
X0365214Y0262789D01*
X0365063Y0262742D01*
X0364911Y0262699D01*
X0364758Y0262660D01*
X0364603Y0262624D01*
X0364448Y0262593D01*
X0364292Y0262565D01*
X0364136Y0262541D01*
X0363979Y0262521D01*
X0363821Y0262505D01*
X0363664Y0262493D01*
X0363505Y0262485D01*
X0363347Y0262481D01*
X0363189Y0262481D01*
X0363031Y0262485D01*
X0362872Y0262493D01*
X0362715Y0262505D01*
X0362557Y0262521D01*
X0362400Y0262541D01*
X0362244Y0262565D01*
X0362088Y0262593D01*
X0361933Y0262624D01*
X0361778Y0262660D01*
X0361625Y0262699D01*
X0361473Y0262742D01*
X0361322Y0262789D01*
X0361172Y0262840D01*
X0361023Y0262895D01*
X0360876Y0262953D01*
X0360730Y0263015D01*
X0360586Y0263080D01*
X0360444Y0263150D01*
X0360303Y0263222D01*
X0360164Y0263299D01*
X0360028Y0263378D01*
X0359893Y0263462D01*
X0359760Y0263548D01*
X0359630Y0263638D01*
X0359502Y0263731D01*
X0359376Y0263827D01*
X0359253Y0263927D01*
X0359132Y0264029D01*
X0359014Y0264134D01*
X0358899Y0264243D01*
X0358786Y0264354D01*
X0358676Y0264468D01*
X0358569Y0264585D01*
X0358465Y0264704D01*
X0358364Y0264826D01*
X0358267Y0264951D01*
X0358172Y0265078D01*
X0358081Y0265207D01*
X0357992Y0265338D01*
X0357908Y0265472D01*
X0357826Y0265608D01*
X0357748Y0265745D01*
X0357674Y0265885D01*
X0357603Y0266027D01*
X0357535Y0266170D01*
X0357471Y0266315D01*
X0357411Y0266461D01*
X0357355Y0266609D01*
X0357302Y0266758D01*
X0357253Y0266909D01*
X0357208Y0267061D01*
X0357167Y0267214D01*
X0357129Y0267367D01*
X0357096Y0267522D01*
X0357066Y0267678D01*
X0357040Y0267834D01*
X0357019Y0267991D01*
X0357001Y0268148D01*
X0356987Y0268306D01*
X0356977Y0268464D01*
X0356971Y0268622D01*
X0356969Y0268780D01*
X0356969Y0434134D02*
X0356971Y0434292D01*
X0356977Y0434450D01*
X0356987Y0434608D01*
X0357001Y0434766D01*
X0357019Y0434923D01*
X0357040Y0435080D01*
X0357066Y0435236D01*
X0357096Y0435392D01*
X0357129Y0435547D01*
X0357167Y0435700D01*
X0357208Y0435853D01*
X0357253Y0436005D01*
X0357302Y0436156D01*
X0357355Y0436305D01*
X0357411Y0436453D01*
X0357471Y0436599D01*
X0357535Y0436744D01*
X0357603Y0436887D01*
X0357674Y0437029D01*
X0357748Y0437169D01*
X0357826Y0437306D01*
X0357908Y0437442D01*
X0357992Y0437576D01*
X0358081Y0437707D01*
X0358172Y0437836D01*
X0358267Y0437963D01*
X0358364Y0438088D01*
X0358465Y0438210D01*
X0358569Y0438329D01*
X0358676Y0438446D01*
X0358786Y0438560D01*
X0358899Y0438671D01*
X0359014Y0438780D01*
X0359132Y0438885D01*
X0359253Y0438987D01*
X0359376Y0439087D01*
X0359502Y0439183D01*
X0359630Y0439276D01*
X0359760Y0439366D01*
X0359893Y0439452D01*
X0360028Y0439536D01*
X0360164Y0439615D01*
X0360303Y0439692D01*
X0360444Y0439764D01*
X0360586Y0439834D01*
X0360730Y0439899D01*
X0360876Y0439961D01*
X0361023Y0440019D01*
X0361172Y0440074D01*
X0361322Y0440125D01*
X0361473Y0440172D01*
X0361625Y0440215D01*
X0361778Y0440254D01*
X0361933Y0440290D01*
X0362088Y0440321D01*
X0362244Y0440349D01*
X0362400Y0440373D01*
X0362557Y0440393D01*
X0362715Y0440409D01*
X0362872Y0440421D01*
X0363031Y0440429D01*
X0363189Y0440433D01*
X0363347Y0440433D01*
X0363505Y0440429D01*
X0363664Y0440421D01*
X0363821Y0440409D01*
X0363979Y0440393D01*
X0364136Y0440373D01*
X0364292Y0440349D01*
X0364448Y0440321D01*
X0364603Y0440290D01*
X0364758Y0440254D01*
X0364911Y0440215D01*
X0365063Y0440172D01*
X0365214Y0440125D01*
X0365364Y0440074D01*
X0365513Y0440019D01*
X0365660Y0439961D01*
X0365806Y0439899D01*
X0365950Y0439834D01*
X0366092Y0439764D01*
X0366233Y0439692D01*
X0366372Y0439615D01*
X0366508Y0439536D01*
X0366643Y0439452D01*
X0366776Y0439366D01*
X0366906Y0439276D01*
X0367034Y0439183D01*
X0367160Y0439087D01*
X0367283Y0438987D01*
X0367404Y0438885D01*
X0367522Y0438780D01*
X0367637Y0438671D01*
X0367750Y0438560D01*
X0367860Y0438446D01*
X0367967Y0438329D01*
X0368071Y0438210D01*
X0368172Y0438088D01*
X0368269Y0437963D01*
X0368364Y0437836D01*
X0368455Y0437707D01*
X0368544Y0437576D01*
X0368628Y0437442D01*
X0368710Y0437306D01*
X0368788Y0437169D01*
X0368862Y0437029D01*
X0368933Y0436887D01*
X0369001Y0436744D01*
X0369065Y0436599D01*
X0369125Y0436453D01*
X0369181Y0436305D01*
X0369234Y0436156D01*
X0369283Y0436005D01*
X0369328Y0435853D01*
X0369369Y0435700D01*
X0369407Y0435547D01*
X0369440Y0435392D01*
X0369470Y0435236D01*
X0369496Y0435080D01*
X0369517Y0434923D01*
X0369535Y0434766D01*
X0369549Y0434608D01*
X0369559Y0434450D01*
X0369565Y0434292D01*
X0369567Y0434134D01*
X0369565Y0433976D01*
X0369559Y0433818D01*
X0369549Y0433660D01*
X0369535Y0433502D01*
X0369517Y0433345D01*
X0369496Y0433188D01*
X0369470Y0433032D01*
X0369440Y0432876D01*
X0369407Y0432721D01*
X0369369Y0432568D01*
X0369328Y0432415D01*
X0369283Y0432263D01*
X0369234Y0432112D01*
X0369181Y0431963D01*
X0369125Y0431815D01*
X0369065Y0431669D01*
X0369001Y0431524D01*
X0368933Y0431381D01*
X0368862Y0431239D01*
X0368788Y0431099D01*
X0368710Y0430962D01*
X0368628Y0430826D01*
X0368544Y0430692D01*
X0368455Y0430561D01*
X0368364Y0430432D01*
X0368269Y0430305D01*
X0368172Y0430180D01*
X0368071Y0430058D01*
X0367967Y0429939D01*
X0367860Y0429822D01*
X0367750Y0429708D01*
X0367637Y0429597D01*
X0367522Y0429488D01*
X0367404Y0429383D01*
X0367283Y0429281D01*
X0367160Y0429181D01*
X0367034Y0429085D01*
X0366906Y0428992D01*
X0366776Y0428902D01*
X0366643Y0428816D01*
X0366508Y0428732D01*
X0366372Y0428653D01*
X0366233Y0428576D01*
X0366092Y0428504D01*
X0365950Y0428434D01*
X0365806Y0428369D01*
X0365660Y0428307D01*
X0365513Y0428249D01*
X0365364Y0428194D01*
X0365214Y0428143D01*
X0365063Y0428096D01*
X0364911Y0428053D01*
X0364758Y0428014D01*
X0364603Y0427978D01*
X0364448Y0427947D01*
X0364292Y0427919D01*
X0364136Y0427895D01*
X0363979Y0427875D01*
X0363821Y0427859D01*
X0363664Y0427847D01*
X0363505Y0427839D01*
X0363347Y0427835D01*
X0363189Y0427835D01*
X0363031Y0427839D01*
X0362872Y0427847D01*
X0362715Y0427859D01*
X0362557Y0427875D01*
X0362400Y0427895D01*
X0362244Y0427919D01*
X0362088Y0427947D01*
X0361933Y0427978D01*
X0361778Y0428014D01*
X0361625Y0428053D01*
X0361473Y0428096D01*
X0361322Y0428143D01*
X0361172Y0428194D01*
X0361023Y0428249D01*
X0360876Y0428307D01*
X0360730Y0428369D01*
X0360586Y0428434D01*
X0360444Y0428504D01*
X0360303Y0428576D01*
X0360164Y0428653D01*
X0360028Y0428732D01*
X0359893Y0428816D01*
X0359760Y0428902D01*
X0359630Y0428992D01*
X0359502Y0429085D01*
X0359376Y0429181D01*
X0359253Y0429281D01*
X0359132Y0429383D01*
X0359014Y0429488D01*
X0358899Y0429597D01*
X0358786Y0429708D01*
X0358676Y0429822D01*
X0358569Y0429939D01*
X0358465Y0430058D01*
X0358364Y0430180D01*
X0358267Y0430305D01*
X0358172Y0430432D01*
X0358081Y0430561D01*
X0357992Y0430692D01*
X0357908Y0430826D01*
X0357826Y0430962D01*
X0357748Y0431099D01*
X0357674Y0431239D01*
X0357603Y0431381D01*
X0357535Y0431524D01*
X0357471Y0431669D01*
X0357411Y0431815D01*
X0357355Y0431963D01*
X0357302Y0432112D01*
X0357253Y0432263D01*
X0357208Y0432415D01*
X0357167Y0432568D01*
X0357129Y0432721D01*
X0357096Y0432876D01*
X0357066Y0433032D01*
X0357040Y0433188D01*
X0357019Y0433345D01*
X0357001Y0433502D01*
X0356987Y0433660D01*
X0356977Y0433818D01*
X0356971Y0433976D01*
X0356969Y0434134D01*
X0640433Y0434134D02*
X0640435Y0434292D01*
X0640441Y0434450D01*
X0640451Y0434608D01*
X0640465Y0434766D01*
X0640483Y0434923D01*
X0640504Y0435080D01*
X0640530Y0435236D01*
X0640560Y0435392D01*
X0640593Y0435547D01*
X0640631Y0435700D01*
X0640672Y0435853D01*
X0640717Y0436005D01*
X0640766Y0436156D01*
X0640819Y0436305D01*
X0640875Y0436453D01*
X0640935Y0436599D01*
X0640999Y0436744D01*
X0641067Y0436887D01*
X0641138Y0437029D01*
X0641212Y0437169D01*
X0641290Y0437306D01*
X0641372Y0437442D01*
X0641456Y0437576D01*
X0641545Y0437707D01*
X0641636Y0437836D01*
X0641731Y0437963D01*
X0641828Y0438088D01*
X0641929Y0438210D01*
X0642033Y0438329D01*
X0642140Y0438446D01*
X0642250Y0438560D01*
X0642363Y0438671D01*
X0642478Y0438780D01*
X0642596Y0438885D01*
X0642717Y0438987D01*
X0642840Y0439087D01*
X0642966Y0439183D01*
X0643094Y0439276D01*
X0643224Y0439366D01*
X0643357Y0439452D01*
X0643492Y0439536D01*
X0643628Y0439615D01*
X0643767Y0439692D01*
X0643908Y0439764D01*
X0644050Y0439834D01*
X0644194Y0439899D01*
X0644340Y0439961D01*
X0644487Y0440019D01*
X0644636Y0440074D01*
X0644786Y0440125D01*
X0644937Y0440172D01*
X0645089Y0440215D01*
X0645242Y0440254D01*
X0645397Y0440290D01*
X0645552Y0440321D01*
X0645708Y0440349D01*
X0645864Y0440373D01*
X0646021Y0440393D01*
X0646179Y0440409D01*
X0646336Y0440421D01*
X0646495Y0440429D01*
X0646653Y0440433D01*
X0646811Y0440433D01*
X0646969Y0440429D01*
X0647128Y0440421D01*
X0647285Y0440409D01*
X0647443Y0440393D01*
X0647600Y0440373D01*
X0647756Y0440349D01*
X0647912Y0440321D01*
X0648067Y0440290D01*
X0648222Y0440254D01*
X0648375Y0440215D01*
X0648527Y0440172D01*
X0648678Y0440125D01*
X0648828Y0440074D01*
X0648977Y0440019D01*
X0649124Y0439961D01*
X0649270Y0439899D01*
X0649414Y0439834D01*
X0649556Y0439764D01*
X0649697Y0439692D01*
X0649836Y0439615D01*
X0649972Y0439536D01*
X0650107Y0439452D01*
X0650240Y0439366D01*
X0650370Y0439276D01*
X0650498Y0439183D01*
X0650624Y0439087D01*
X0650747Y0438987D01*
X0650868Y0438885D01*
X0650986Y0438780D01*
X0651101Y0438671D01*
X0651214Y0438560D01*
X0651324Y0438446D01*
X0651431Y0438329D01*
X0651535Y0438210D01*
X0651636Y0438088D01*
X0651733Y0437963D01*
X0651828Y0437836D01*
X0651919Y0437707D01*
X0652008Y0437576D01*
X0652092Y0437442D01*
X0652174Y0437306D01*
X0652252Y0437169D01*
X0652326Y0437029D01*
X0652397Y0436887D01*
X0652465Y0436744D01*
X0652529Y0436599D01*
X0652589Y0436453D01*
X0652645Y0436305D01*
X0652698Y0436156D01*
X0652747Y0436005D01*
X0652792Y0435853D01*
X0652833Y0435700D01*
X0652871Y0435547D01*
X0652904Y0435392D01*
X0652934Y0435236D01*
X0652960Y0435080D01*
X0652981Y0434923D01*
X0652999Y0434766D01*
X0653013Y0434608D01*
X0653023Y0434450D01*
X0653029Y0434292D01*
X0653031Y0434134D01*
X0653029Y0433976D01*
X0653023Y0433818D01*
X0653013Y0433660D01*
X0652999Y0433502D01*
X0652981Y0433345D01*
X0652960Y0433188D01*
X0652934Y0433032D01*
X0652904Y0432876D01*
X0652871Y0432721D01*
X0652833Y0432568D01*
X0652792Y0432415D01*
X0652747Y0432263D01*
X0652698Y0432112D01*
X0652645Y0431963D01*
X0652589Y0431815D01*
X0652529Y0431669D01*
X0652465Y0431524D01*
X0652397Y0431381D01*
X0652326Y0431239D01*
X0652252Y0431099D01*
X0652174Y0430962D01*
X0652092Y0430826D01*
X0652008Y0430692D01*
X0651919Y0430561D01*
X0651828Y0430432D01*
X0651733Y0430305D01*
X0651636Y0430180D01*
X0651535Y0430058D01*
X0651431Y0429939D01*
X0651324Y0429822D01*
X0651214Y0429708D01*
X0651101Y0429597D01*
X0650986Y0429488D01*
X0650868Y0429383D01*
X0650747Y0429281D01*
X0650624Y0429181D01*
X0650498Y0429085D01*
X0650370Y0428992D01*
X0650240Y0428902D01*
X0650107Y0428816D01*
X0649972Y0428732D01*
X0649836Y0428653D01*
X0649697Y0428576D01*
X0649556Y0428504D01*
X0649414Y0428434D01*
X0649270Y0428369D01*
X0649124Y0428307D01*
X0648977Y0428249D01*
X0648828Y0428194D01*
X0648678Y0428143D01*
X0648527Y0428096D01*
X0648375Y0428053D01*
X0648222Y0428014D01*
X0648067Y0427978D01*
X0647912Y0427947D01*
X0647756Y0427919D01*
X0647600Y0427895D01*
X0647443Y0427875D01*
X0647285Y0427859D01*
X0647128Y0427847D01*
X0646969Y0427839D01*
X0646811Y0427835D01*
X0646653Y0427835D01*
X0646495Y0427839D01*
X0646336Y0427847D01*
X0646179Y0427859D01*
X0646021Y0427875D01*
X0645864Y0427895D01*
X0645708Y0427919D01*
X0645552Y0427947D01*
X0645397Y0427978D01*
X0645242Y0428014D01*
X0645089Y0428053D01*
X0644937Y0428096D01*
X0644786Y0428143D01*
X0644636Y0428194D01*
X0644487Y0428249D01*
X0644340Y0428307D01*
X0644194Y0428369D01*
X0644050Y0428434D01*
X0643908Y0428504D01*
X0643767Y0428576D01*
X0643628Y0428653D01*
X0643492Y0428732D01*
X0643357Y0428816D01*
X0643224Y0428902D01*
X0643094Y0428992D01*
X0642966Y0429085D01*
X0642840Y0429181D01*
X0642717Y0429281D01*
X0642596Y0429383D01*
X0642478Y0429488D01*
X0642363Y0429597D01*
X0642250Y0429708D01*
X0642140Y0429822D01*
X0642033Y0429939D01*
X0641929Y0430058D01*
X0641828Y0430180D01*
X0641731Y0430305D01*
X0641636Y0430432D01*
X0641545Y0430561D01*
X0641456Y0430692D01*
X0641372Y0430826D01*
X0641290Y0430962D01*
X0641212Y0431099D01*
X0641138Y0431239D01*
X0641067Y0431381D01*
X0640999Y0431524D01*
X0640935Y0431669D01*
X0640875Y0431815D01*
X0640819Y0431963D01*
X0640766Y0432112D01*
X0640717Y0432263D01*
X0640672Y0432415D01*
X0640631Y0432568D01*
X0640593Y0432721D01*
X0640560Y0432876D01*
X0640530Y0433032D01*
X0640504Y0433188D01*
X0640483Y0433345D01*
X0640465Y0433502D01*
X0640451Y0433660D01*
X0640441Y0433818D01*
X0640435Y0433976D01*
X0640433Y0434134D01*
X0640433Y0268780D02*
X0640435Y0268938D01*
X0640441Y0269096D01*
X0640451Y0269254D01*
X0640465Y0269412D01*
X0640483Y0269569D01*
X0640504Y0269726D01*
X0640530Y0269882D01*
X0640560Y0270038D01*
X0640593Y0270193D01*
X0640631Y0270346D01*
X0640672Y0270499D01*
X0640717Y0270651D01*
X0640766Y0270802D01*
X0640819Y0270951D01*
X0640875Y0271099D01*
X0640935Y0271245D01*
X0640999Y0271390D01*
X0641067Y0271533D01*
X0641138Y0271675D01*
X0641212Y0271815D01*
X0641290Y0271952D01*
X0641372Y0272088D01*
X0641456Y0272222D01*
X0641545Y0272353D01*
X0641636Y0272482D01*
X0641731Y0272609D01*
X0641828Y0272734D01*
X0641929Y0272856D01*
X0642033Y0272975D01*
X0642140Y0273092D01*
X0642250Y0273206D01*
X0642363Y0273317D01*
X0642478Y0273426D01*
X0642596Y0273531D01*
X0642717Y0273633D01*
X0642840Y0273733D01*
X0642966Y0273829D01*
X0643094Y0273922D01*
X0643224Y0274012D01*
X0643357Y0274098D01*
X0643492Y0274182D01*
X0643628Y0274261D01*
X0643767Y0274338D01*
X0643908Y0274410D01*
X0644050Y0274480D01*
X0644194Y0274545D01*
X0644340Y0274607D01*
X0644487Y0274665D01*
X0644636Y0274720D01*
X0644786Y0274771D01*
X0644937Y0274818D01*
X0645089Y0274861D01*
X0645242Y0274900D01*
X0645397Y0274936D01*
X0645552Y0274967D01*
X0645708Y0274995D01*
X0645864Y0275019D01*
X0646021Y0275039D01*
X0646179Y0275055D01*
X0646336Y0275067D01*
X0646495Y0275075D01*
X0646653Y0275079D01*
X0646811Y0275079D01*
X0646969Y0275075D01*
X0647128Y0275067D01*
X0647285Y0275055D01*
X0647443Y0275039D01*
X0647600Y0275019D01*
X0647756Y0274995D01*
X0647912Y0274967D01*
X0648067Y0274936D01*
X0648222Y0274900D01*
X0648375Y0274861D01*
X0648527Y0274818D01*
X0648678Y0274771D01*
X0648828Y0274720D01*
X0648977Y0274665D01*
X0649124Y0274607D01*
X0649270Y0274545D01*
X0649414Y0274480D01*
X0649556Y0274410D01*
X0649697Y0274338D01*
X0649836Y0274261D01*
X0649972Y0274182D01*
X0650107Y0274098D01*
X0650240Y0274012D01*
X0650370Y0273922D01*
X0650498Y0273829D01*
X0650624Y0273733D01*
X0650747Y0273633D01*
X0650868Y0273531D01*
X0650986Y0273426D01*
X0651101Y0273317D01*
X0651214Y0273206D01*
X0651324Y0273092D01*
X0651431Y0272975D01*
X0651535Y0272856D01*
X0651636Y0272734D01*
X0651733Y0272609D01*
X0651828Y0272482D01*
X0651919Y0272353D01*
X0652008Y0272222D01*
X0652092Y0272088D01*
X0652174Y0271952D01*
X0652252Y0271815D01*
X0652326Y0271675D01*
X0652397Y0271533D01*
X0652465Y0271390D01*
X0652529Y0271245D01*
X0652589Y0271099D01*
X0652645Y0270951D01*
X0652698Y0270802D01*
X0652747Y0270651D01*
X0652792Y0270499D01*
X0652833Y0270346D01*
X0652871Y0270193D01*
X0652904Y0270038D01*
X0652934Y0269882D01*
X0652960Y0269726D01*
X0652981Y0269569D01*
X0652999Y0269412D01*
X0653013Y0269254D01*
X0653023Y0269096D01*
X0653029Y0268938D01*
X0653031Y0268780D01*
X0653029Y0268622D01*
X0653023Y0268464D01*
X0653013Y0268306D01*
X0652999Y0268148D01*
X0652981Y0267991D01*
X0652960Y0267834D01*
X0652934Y0267678D01*
X0652904Y0267522D01*
X0652871Y0267367D01*
X0652833Y0267214D01*
X0652792Y0267061D01*
X0652747Y0266909D01*
X0652698Y0266758D01*
X0652645Y0266609D01*
X0652589Y0266461D01*
X0652529Y0266315D01*
X0652465Y0266170D01*
X0652397Y0266027D01*
X0652326Y0265885D01*
X0652252Y0265745D01*
X0652174Y0265608D01*
X0652092Y0265472D01*
X0652008Y0265338D01*
X0651919Y0265207D01*
X0651828Y0265078D01*
X0651733Y0264951D01*
X0651636Y0264826D01*
X0651535Y0264704D01*
X0651431Y0264585D01*
X0651324Y0264468D01*
X0651214Y0264354D01*
X0651101Y0264243D01*
X0650986Y0264134D01*
X0650868Y0264029D01*
X0650747Y0263927D01*
X0650624Y0263827D01*
X0650498Y0263731D01*
X0650370Y0263638D01*
X0650240Y0263548D01*
X0650107Y0263462D01*
X0649972Y0263378D01*
X0649836Y0263299D01*
X0649697Y0263222D01*
X0649556Y0263150D01*
X0649414Y0263080D01*
X0649270Y0263015D01*
X0649124Y0262953D01*
X0648977Y0262895D01*
X0648828Y0262840D01*
X0648678Y0262789D01*
X0648527Y0262742D01*
X0648375Y0262699D01*
X0648222Y0262660D01*
X0648067Y0262624D01*
X0647912Y0262593D01*
X0647756Y0262565D01*
X0647600Y0262541D01*
X0647443Y0262521D01*
X0647285Y0262505D01*
X0647128Y0262493D01*
X0646969Y0262485D01*
X0646811Y0262481D01*
X0646653Y0262481D01*
X0646495Y0262485D01*
X0646336Y0262493D01*
X0646179Y0262505D01*
X0646021Y0262521D01*
X0645864Y0262541D01*
X0645708Y0262565D01*
X0645552Y0262593D01*
X0645397Y0262624D01*
X0645242Y0262660D01*
X0645089Y0262699D01*
X0644937Y0262742D01*
X0644786Y0262789D01*
X0644636Y0262840D01*
X0644487Y0262895D01*
X0644340Y0262953D01*
X0644194Y0263015D01*
X0644050Y0263080D01*
X0643908Y0263150D01*
X0643767Y0263222D01*
X0643628Y0263299D01*
X0643492Y0263378D01*
X0643357Y0263462D01*
X0643224Y0263548D01*
X0643094Y0263638D01*
X0642966Y0263731D01*
X0642840Y0263827D01*
X0642717Y0263927D01*
X0642596Y0264029D01*
X0642478Y0264134D01*
X0642363Y0264243D01*
X0642250Y0264354D01*
X0642140Y0264468D01*
X0642033Y0264585D01*
X0641929Y0264704D01*
X0641828Y0264826D01*
X0641731Y0264951D01*
X0641636Y0265078D01*
X0641545Y0265207D01*
X0641456Y0265338D01*
X0641372Y0265472D01*
X0641290Y0265608D01*
X0641212Y0265745D01*
X0641138Y0265885D01*
X0641067Y0266027D01*
X0640999Y0266170D01*
X0640935Y0266315D01*
X0640875Y0266461D01*
X0640819Y0266609D01*
X0640766Y0266758D01*
X0640717Y0266909D01*
X0640672Y0267061D01*
X0640631Y0267214D01*
X0640593Y0267367D01*
X0640560Y0267522D01*
X0640530Y0267678D01*
X0640504Y0267834D01*
X0640483Y0267991D01*
X0640465Y0268148D01*
X0640451Y0268306D01*
X0640441Y0268464D01*
X0640435Y0268622D01*
X0640433Y0268780D01*
M02*
