G75*
%MOIN*%
%OFA0B0*%
%FSLAX25Y25*%
%IPPOS*%
%LPD*%
%AMOC8*
5,1,8,0,0,1.08239X$1,22.5*
%
%ADD10C,0.00000*%
%ADD11C,0.08250*%
%ADD12C,0.07677*%
%ADD13C,0.06000*%
%ADD14C,0.23622*%
%ADD15C,0.03200*%
%ADD16C,0.05906*%
D10*
X0363268Y0253031D02*
X0646732Y0253031D01*
X0646732Y0253032D02*
X0647113Y0253037D01*
X0647493Y0253050D01*
X0647873Y0253073D01*
X0648252Y0253106D01*
X0648630Y0253147D01*
X0649007Y0253197D01*
X0649383Y0253257D01*
X0649758Y0253325D01*
X0650130Y0253403D01*
X0650501Y0253490D01*
X0650869Y0253585D01*
X0651235Y0253690D01*
X0651598Y0253803D01*
X0651959Y0253925D01*
X0652316Y0254055D01*
X0652670Y0254195D01*
X0653021Y0254342D01*
X0653368Y0254499D01*
X0653711Y0254663D01*
X0654050Y0254836D01*
X0654385Y0255017D01*
X0654716Y0255206D01*
X0655041Y0255403D01*
X0655362Y0255607D01*
X0655678Y0255820D01*
X0655988Y0256040D01*
X0656294Y0256267D01*
X0656593Y0256502D01*
X0656887Y0256744D01*
X0657175Y0256992D01*
X0657457Y0257248D01*
X0657732Y0257511D01*
X0658001Y0257780D01*
X0658264Y0258055D01*
X0658520Y0258337D01*
X0658768Y0258625D01*
X0659010Y0258919D01*
X0659245Y0259218D01*
X0659472Y0259524D01*
X0659692Y0259834D01*
X0659905Y0260150D01*
X0660109Y0260471D01*
X0660306Y0260796D01*
X0660495Y0261127D01*
X0660676Y0261462D01*
X0660849Y0261801D01*
X0661013Y0262144D01*
X0661170Y0262491D01*
X0661317Y0262842D01*
X0661457Y0263196D01*
X0661587Y0263553D01*
X0661709Y0263914D01*
X0661822Y0264277D01*
X0661927Y0264643D01*
X0662022Y0265011D01*
X0662109Y0265382D01*
X0662187Y0265754D01*
X0662255Y0266129D01*
X0662315Y0266505D01*
X0662365Y0266882D01*
X0662406Y0267260D01*
X0662439Y0267639D01*
X0662462Y0268019D01*
X0662475Y0268399D01*
X0662480Y0268780D01*
X0662480Y0434134D01*
X0662475Y0434515D01*
X0662462Y0434895D01*
X0662439Y0435275D01*
X0662406Y0435654D01*
X0662365Y0436032D01*
X0662315Y0436409D01*
X0662255Y0436785D01*
X0662187Y0437160D01*
X0662109Y0437532D01*
X0662022Y0437903D01*
X0661927Y0438271D01*
X0661822Y0438637D01*
X0661709Y0439000D01*
X0661587Y0439361D01*
X0661457Y0439718D01*
X0661317Y0440072D01*
X0661170Y0440423D01*
X0661013Y0440770D01*
X0660849Y0441113D01*
X0660676Y0441452D01*
X0660495Y0441787D01*
X0660306Y0442118D01*
X0660109Y0442443D01*
X0659905Y0442764D01*
X0659692Y0443080D01*
X0659472Y0443390D01*
X0659245Y0443696D01*
X0659010Y0443995D01*
X0658768Y0444289D01*
X0658520Y0444577D01*
X0658264Y0444859D01*
X0658001Y0445134D01*
X0657732Y0445403D01*
X0657457Y0445666D01*
X0657175Y0445922D01*
X0656887Y0446170D01*
X0656593Y0446412D01*
X0656294Y0446647D01*
X0655988Y0446874D01*
X0655678Y0447094D01*
X0655362Y0447307D01*
X0655041Y0447511D01*
X0654716Y0447708D01*
X0654385Y0447897D01*
X0654050Y0448078D01*
X0653711Y0448251D01*
X0653368Y0448415D01*
X0653021Y0448572D01*
X0652670Y0448719D01*
X0652316Y0448859D01*
X0651959Y0448989D01*
X0651598Y0449111D01*
X0651235Y0449224D01*
X0650869Y0449329D01*
X0650501Y0449424D01*
X0650130Y0449511D01*
X0649758Y0449589D01*
X0649383Y0449657D01*
X0649007Y0449717D01*
X0648630Y0449767D01*
X0648252Y0449808D01*
X0647873Y0449841D01*
X0647493Y0449864D01*
X0647113Y0449877D01*
X0646732Y0449882D01*
X0363268Y0449882D01*
X0362887Y0449877D01*
X0362507Y0449864D01*
X0362127Y0449841D01*
X0361748Y0449808D01*
X0361370Y0449767D01*
X0360993Y0449717D01*
X0360617Y0449657D01*
X0360242Y0449589D01*
X0359870Y0449511D01*
X0359499Y0449424D01*
X0359131Y0449329D01*
X0358765Y0449224D01*
X0358402Y0449111D01*
X0358041Y0448989D01*
X0357684Y0448859D01*
X0357330Y0448719D01*
X0356979Y0448572D01*
X0356632Y0448415D01*
X0356289Y0448251D01*
X0355950Y0448078D01*
X0355615Y0447897D01*
X0355284Y0447708D01*
X0354959Y0447511D01*
X0354638Y0447307D01*
X0354322Y0447094D01*
X0354012Y0446874D01*
X0353706Y0446647D01*
X0353407Y0446412D01*
X0353113Y0446170D01*
X0352825Y0445922D01*
X0352543Y0445666D01*
X0352268Y0445403D01*
X0351999Y0445134D01*
X0351736Y0444859D01*
X0351480Y0444577D01*
X0351232Y0444289D01*
X0350990Y0443995D01*
X0350755Y0443696D01*
X0350528Y0443390D01*
X0350308Y0443080D01*
X0350095Y0442764D01*
X0349891Y0442443D01*
X0349694Y0442118D01*
X0349505Y0441787D01*
X0349324Y0441452D01*
X0349151Y0441113D01*
X0348987Y0440770D01*
X0348830Y0440423D01*
X0348683Y0440072D01*
X0348543Y0439718D01*
X0348413Y0439361D01*
X0348291Y0439000D01*
X0348178Y0438637D01*
X0348073Y0438271D01*
X0347978Y0437903D01*
X0347891Y0437532D01*
X0347813Y0437160D01*
X0347745Y0436785D01*
X0347685Y0436409D01*
X0347635Y0436032D01*
X0347594Y0435654D01*
X0347561Y0435275D01*
X0347538Y0434895D01*
X0347525Y0434515D01*
X0347520Y0434134D01*
X0347520Y0268780D01*
X0347525Y0268399D01*
X0347538Y0268019D01*
X0347561Y0267639D01*
X0347594Y0267260D01*
X0347635Y0266882D01*
X0347685Y0266505D01*
X0347745Y0266129D01*
X0347813Y0265754D01*
X0347891Y0265382D01*
X0347978Y0265011D01*
X0348073Y0264643D01*
X0348178Y0264277D01*
X0348291Y0263914D01*
X0348413Y0263553D01*
X0348543Y0263196D01*
X0348683Y0262842D01*
X0348830Y0262491D01*
X0348987Y0262144D01*
X0349151Y0261801D01*
X0349324Y0261462D01*
X0349505Y0261127D01*
X0349694Y0260796D01*
X0349891Y0260471D01*
X0350095Y0260150D01*
X0350308Y0259834D01*
X0350528Y0259524D01*
X0350755Y0259218D01*
X0350990Y0258919D01*
X0351232Y0258625D01*
X0351480Y0258337D01*
X0351736Y0258055D01*
X0351999Y0257780D01*
X0352268Y0257511D01*
X0352543Y0257248D01*
X0352825Y0256992D01*
X0353113Y0256744D01*
X0353407Y0256502D01*
X0353706Y0256267D01*
X0354012Y0256040D01*
X0354322Y0255820D01*
X0354638Y0255607D01*
X0354959Y0255403D01*
X0355284Y0255206D01*
X0355615Y0255017D01*
X0355950Y0254836D01*
X0356289Y0254663D01*
X0356632Y0254499D01*
X0356979Y0254342D01*
X0357330Y0254195D01*
X0357684Y0254055D01*
X0358041Y0253925D01*
X0358402Y0253803D01*
X0358765Y0253690D01*
X0359131Y0253585D01*
X0359499Y0253490D01*
X0359870Y0253403D01*
X0360242Y0253325D01*
X0360617Y0253257D01*
X0360993Y0253197D01*
X0361370Y0253147D01*
X0361748Y0253106D01*
X0362127Y0253073D01*
X0362507Y0253050D01*
X0362887Y0253037D01*
X0363268Y0253032D01*
D11*
X0392638Y0417883D02*
X0392638Y0426133D01*
X0412638Y0426133D02*
X0412638Y0417883D01*
X0440906Y0417883D02*
X0440906Y0426133D01*
X0460906Y0426133D02*
X0460906Y0417883D01*
X0480906Y0417883D02*
X0480906Y0426133D01*
X0509409Y0426133D02*
X0509409Y0417883D01*
X0529409Y0417883D02*
X0529409Y0426133D01*
X0549409Y0426133D02*
X0549409Y0417883D01*
X0577913Y0417883D02*
X0577913Y0426133D01*
X0597913Y0426133D02*
X0597913Y0417883D01*
X0617913Y0417883D02*
X0617913Y0426133D01*
D12*
X0629429Y0379311D03*
X0629429Y0354311D03*
X0629429Y0329508D03*
X0629429Y0313366D03*
X0577461Y0313366D03*
X0577461Y0329508D03*
X0577461Y0354311D03*
X0577461Y0379311D03*
X0531004Y0379311D03*
X0531004Y0354311D03*
X0531004Y0329508D03*
X0531004Y0313366D03*
X0479035Y0313366D03*
X0479035Y0329508D03*
X0479035Y0354311D03*
X0479035Y0379311D03*
X0432579Y0379311D03*
X0432579Y0354311D03*
X0432579Y0329508D03*
X0432579Y0313366D03*
X0380610Y0313366D03*
X0380610Y0329508D03*
X0380610Y0354311D03*
X0380610Y0379311D03*
D13*
X0384764Y0275717D02*
X0384764Y0269717D01*
X0394764Y0269717D02*
X0394764Y0275717D01*
X0404764Y0275717D02*
X0404764Y0269717D01*
X0420197Y0269717D02*
X0420197Y0275717D01*
X0430197Y0275717D02*
X0430197Y0269717D01*
X0440197Y0269717D02*
X0440197Y0275717D01*
X0475315Y0275717D02*
X0475315Y0269717D01*
X0485315Y0269717D02*
X0485315Y0275717D01*
X0495315Y0275717D02*
X0495315Y0269717D01*
X0510748Y0269717D02*
X0510748Y0275717D01*
X0520748Y0275717D02*
X0520748Y0269717D01*
X0530748Y0269717D02*
X0530748Y0275717D01*
X0569803Y0275717D02*
X0569803Y0269717D01*
X0579803Y0269717D02*
X0579803Y0275717D01*
X0589803Y0275717D02*
X0589803Y0269717D01*
X0605236Y0269717D02*
X0605236Y0275717D01*
X0615236Y0275717D02*
X0615236Y0269717D01*
X0625236Y0269717D02*
X0625236Y0275717D01*
D14*
X0646732Y0268780D03*
X0646732Y0434134D03*
X0363268Y0434134D03*
X0363268Y0268780D03*
D15*
X0375079Y0256969D01*
X0382953Y0256969D01*
X0438071Y0256969D01*
X0493189Y0256969D01*
X0552244Y0256969D01*
X0623110Y0256969D01*
X0634921Y0256969D01*
X0646732Y0268780D01*
X0658543Y0280591D01*
X0658543Y0292402D01*
X0658543Y0339646D01*
X0658543Y0386890D01*
X0658543Y0410512D01*
X0658543Y0422323D01*
X0646732Y0434134D01*
X0634921Y0445945D01*
X0623110Y0445945D01*
X0560118Y0445945D01*
X0497126Y0445945D01*
X0445945Y0445945D01*
X0386890Y0445945D01*
X0375079Y0445945D01*
X0363268Y0434134D01*
X0351457Y0422323D01*
X0351457Y0410512D01*
X0351457Y0363268D01*
X0351457Y0316024D01*
X0351457Y0288465D01*
X0351457Y0280591D01*
X0363268Y0268780D01*
X0375079Y0256969D01*
X0382953Y0256969D01*
X0438071Y0256969D01*
X0493189Y0256969D01*
X0552244Y0256969D01*
X0623110Y0256969D01*
X0634921Y0256969D01*
X0646732Y0268780D01*
X0634921Y0256969D01*
X0633099Y0261368D02*
X0626846Y0261368D01*
X0626369Y0261845D01*
X0624255Y0262721D01*
X0621966Y0262721D01*
X0619852Y0261845D01*
X0619375Y0261368D01*
X0555980Y0261368D01*
X0555503Y0261845D01*
X0553388Y0262721D01*
X0551100Y0262721D01*
X0548985Y0261845D01*
X0548508Y0261368D01*
X0496925Y0261368D01*
X0496448Y0261845D01*
X0494333Y0262721D01*
X0492045Y0262721D01*
X0489930Y0261845D01*
X0489453Y0261368D01*
X0441806Y0261368D01*
X0441330Y0261845D01*
X0439215Y0262721D01*
X0436927Y0262721D01*
X0434812Y0261845D01*
X0434335Y0261368D01*
X0386688Y0261368D01*
X0386211Y0261845D01*
X0384097Y0262721D01*
X0381808Y0262721D01*
X0379694Y0261845D01*
X0379217Y0261368D01*
X0376901Y0261368D01*
X0376241Y0262028D01*
X0376883Y0263140D01*
X0377879Y0266856D01*
X0377879Y0270703D01*
X0376883Y0274419D01*
X0374959Y0277751D01*
X0372239Y0280471D01*
X0368907Y0282395D01*
X0365191Y0283391D01*
X0361344Y0283391D01*
X0357628Y0282395D01*
X0356517Y0281753D01*
X0355857Y0282413D01*
X0355857Y0284729D01*
X0356334Y0285206D01*
X0357209Y0287320D01*
X0357209Y0289609D01*
X0356334Y0291723D01*
X0355857Y0292200D01*
X0355857Y0312288D01*
X0356334Y0312765D01*
X0357209Y0314879D01*
X0357209Y0317168D01*
X0356334Y0319282D01*
X0355857Y0319759D01*
X0355857Y0359532D01*
X0356334Y0360009D01*
X0357209Y0362123D01*
X0357209Y0364412D01*
X0356334Y0366526D01*
X0355857Y0367003D01*
X0355857Y0406776D01*
X0356334Y0407253D01*
X0357209Y0409368D01*
X0357209Y0411656D01*
X0356334Y0413770D01*
X0355857Y0414247D01*
X0355857Y0420500D01*
X0356517Y0421160D01*
X0357628Y0420519D01*
X0361344Y0419523D01*
X0365191Y0419523D01*
X0368907Y0420519D01*
X0372239Y0422442D01*
X0374959Y0425162D01*
X0376883Y0428494D01*
X0377879Y0432210D01*
X0377879Y0436057D01*
X0376883Y0439773D01*
X0376241Y0440885D01*
X0376901Y0441545D01*
X0383154Y0441545D01*
X0383631Y0441068D01*
X0385745Y0440192D01*
X0388034Y0440192D01*
X0390148Y0441068D01*
X0390625Y0441545D01*
X0442209Y0441545D01*
X0442686Y0441068D01*
X0444801Y0440192D01*
X0447089Y0440192D01*
X0449204Y0441068D01*
X0449680Y0441545D01*
X0493390Y0441545D01*
X0493867Y0441068D01*
X0495982Y0440192D01*
X0498270Y0440192D01*
X0500385Y0441068D01*
X0500862Y0441545D01*
X0556382Y0441545D01*
X0556859Y0441068D01*
X0558974Y0440192D01*
X0561262Y0440192D01*
X0563377Y0441068D01*
X0563854Y0441545D01*
X0619375Y0441545D01*
X0619852Y0441068D01*
X0621966Y0440192D01*
X0624255Y0440192D01*
X0626369Y0441068D01*
X0626846Y0441545D01*
X0633099Y0441545D01*
X0633759Y0440885D01*
X0633117Y0439773D01*
X0632121Y0436057D01*
X0632121Y0432210D01*
X0633117Y0428494D01*
X0635041Y0425162D01*
X0637761Y0422442D01*
X0641093Y0420519D01*
X0644809Y0419523D01*
X0648656Y0419523D01*
X0652372Y0420519D01*
X0653483Y0421160D01*
X0654143Y0420500D01*
X0654143Y0414247D01*
X0653666Y0413770D01*
X0652791Y0411656D01*
X0652791Y0409368D01*
X0653666Y0407253D01*
X0654143Y0406776D01*
X0654143Y0390625D01*
X0653666Y0390148D01*
X0652791Y0388034D01*
X0652791Y0385745D01*
X0653666Y0383631D01*
X0654143Y0383154D01*
X0654143Y0343381D01*
X0653666Y0342904D01*
X0652791Y0340790D01*
X0652791Y0338501D01*
X0653666Y0336387D01*
X0654143Y0335910D01*
X0654143Y0296137D01*
X0653666Y0295660D01*
X0652791Y0293546D01*
X0652791Y0291257D01*
X0653666Y0289143D01*
X0654143Y0288666D01*
X0654143Y0282413D01*
X0653483Y0281753D01*
X0652372Y0282395D01*
X0648656Y0283391D01*
X0644809Y0283391D01*
X0641093Y0282395D01*
X0637761Y0280471D01*
X0635041Y0277751D01*
X0633117Y0274419D01*
X0632121Y0270703D01*
X0632121Y0266856D01*
X0633117Y0263140D01*
X0633759Y0262028D01*
X0633099Y0261368D01*
X0633413Y0262627D02*
X0624482Y0262627D01*
X0624083Y0263917D02*
X0626390Y0263917D01*
X0628522Y0264800D01*
X0630153Y0266431D01*
X0631036Y0268563D01*
X0631036Y0276870D01*
X0630153Y0279002D01*
X0628522Y0280634D01*
X0626390Y0281517D01*
X0624083Y0281517D01*
X0621951Y0280634D01*
X0620319Y0279002D01*
X0620236Y0278802D01*
X0620153Y0279002D01*
X0618522Y0280634D01*
X0616390Y0281517D01*
X0614083Y0281517D01*
X0611951Y0280634D01*
X0610319Y0279002D01*
X0610001Y0278233D01*
X0609844Y0278540D01*
X0609345Y0279226D01*
X0608746Y0279826D01*
X0608060Y0280324D01*
X0607304Y0280709D01*
X0606498Y0280971D01*
X0605660Y0281104D01*
X0605236Y0281104D01*
X0604812Y0281104D01*
X0603975Y0280971D01*
X0603168Y0280709D01*
X0602413Y0280324D01*
X0601727Y0279826D01*
X0601127Y0279226D01*
X0600628Y0278540D01*
X0600244Y0277785D01*
X0599981Y0276978D01*
X0599849Y0276141D01*
X0599849Y0272717D01*
X0605236Y0272717D01*
X0605236Y0281104D01*
X0605236Y0272717D01*
X0605236Y0272717D01*
X0605236Y0272716D01*
X0605236Y0272716D01*
X0605236Y0264329D01*
X0604812Y0264329D01*
X0603975Y0264462D01*
X0603168Y0264724D01*
X0602413Y0265109D01*
X0601727Y0265607D01*
X0601127Y0266207D01*
X0600628Y0266893D01*
X0600244Y0267648D01*
X0599981Y0268455D01*
X0599849Y0269293D01*
X0599849Y0272716D01*
X0605236Y0272716D01*
X0605236Y0264329D01*
X0605660Y0264329D01*
X0606498Y0264462D01*
X0607304Y0264724D01*
X0608060Y0265109D01*
X0608746Y0265607D01*
X0609345Y0266207D01*
X0609844Y0266893D01*
X0610001Y0267200D01*
X0610319Y0266431D01*
X0611951Y0264800D01*
X0614083Y0263917D01*
X0616390Y0263917D01*
X0618522Y0264800D01*
X0620153Y0266431D01*
X0620236Y0266631D01*
X0620319Y0266431D01*
X0621951Y0264800D01*
X0624083Y0263917D01*
X0621738Y0262627D02*
X0553616Y0262627D01*
X0550872Y0262627D02*
X0494561Y0262627D01*
X0494161Y0263917D02*
X0496469Y0263917D01*
X0498600Y0264800D01*
X0500232Y0266431D01*
X0501115Y0268563D01*
X0501115Y0276870D01*
X0500232Y0279002D01*
X0498600Y0280634D01*
X0496469Y0281517D01*
X0494161Y0281517D01*
X0492030Y0280634D01*
X0490398Y0279002D01*
X0490315Y0278802D01*
X0490232Y0279002D01*
X0488600Y0280634D01*
X0486469Y0281517D01*
X0484161Y0281517D01*
X0482030Y0280634D01*
X0480398Y0279002D01*
X0480079Y0278233D01*
X0479923Y0278540D01*
X0479424Y0279226D01*
X0478825Y0279826D01*
X0478139Y0280324D01*
X0477383Y0280709D01*
X0476577Y0280971D01*
X0475739Y0281104D01*
X0475315Y0281104D01*
X0475315Y0272717D01*
X0475315Y0272717D01*
X0475315Y0281104D01*
X0474891Y0281104D01*
X0474053Y0280971D01*
X0473247Y0280709D01*
X0472491Y0280324D01*
X0471805Y0279826D01*
X0471206Y0279226D01*
X0470707Y0278540D01*
X0470322Y0277785D01*
X0470060Y0276978D01*
X0469928Y0276141D01*
X0469928Y0272717D01*
X0475315Y0272717D01*
X0475315Y0272716D01*
X0475315Y0264329D01*
X0475739Y0264329D01*
X0476577Y0264462D01*
X0477383Y0264724D01*
X0478139Y0265109D01*
X0478825Y0265607D01*
X0479424Y0266207D01*
X0479923Y0266893D01*
X0480079Y0267200D01*
X0480398Y0266431D01*
X0482030Y0264800D01*
X0484161Y0263917D01*
X0486469Y0263917D01*
X0488600Y0264800D01*
X0490232Y0266431D01*
X0490315Y0266631D01*
X0490398Y0266431D01*
X0492030Y0264800D01*
X0494161Y0263917D01*
X0491817Y0262627D02*
X0439443Y0262627D01*
X0439043Y0263917D02*
X0441351Y0263917D01*
X0443482Y0264800D01*
X0445114Y0266431D01*
X0445997Y0268563D01*
X0445997Y0276870D01*
X0445114Y0279002D01*
X0443482Y0280634D01*
X0441351Y0281517D01*
X0439043Y0281517D01*
X0436911Y0280634D01*
X0435280Y0279002D01*
X0435197Y0278802D01*
X0435114Y0279002D01*
X0433482Y0280634D01*
X0431351Y0281517D01*
X0429043Y0281517D01*
X0426911Y0280634D01*
X0425280Y0279002D01*
X0424961Y0278233D01*
X0424805Y0278540D01*
X0424306Y0279226D01*
X0423706Y0279826D01*
X0423020Y0280324D01*
X0422265Y0280709D01*
X0421458Y0280971D01*
X0420621Y0281104D01*
X0420197Y0281104D01*
X0420197Y0272717D01*
X0420197Y0272717D01*
X0420197Y0281104D01*
X0419773Y0281104D01*
X0418935Y0280971D01*
X0418129Y0280709D01*
X0417373Y0280324D01*
X0416687Y0279826D01*
X0416088Y0279226D01*
X0415589Y0278540D01*
X0415204Y0277785D01*
X0414942Y0276978D01*
X0414809Y0276141D01*
X0414809Y0272717D01*
X0420197Y0272717D01*
X0420197Y0272716D01*
X0420197Y0264329D01*
X0420621Y0264329D01*
X0421458Y0264462D01*
X0422265Y0264724D01*
X0423020Y0265109D01*
X0423706Y0265607D01*
X0424306Y0266207D01*
X0424805Y0266893D01*
X0424961Y0267200D01*
X0425280Y0266431D01*
X0426911Y0264800D01*
X0429043Y0263917D01*
X0431351Y0263917D01*
X0433482Y0264800D01*
X0435114Y0266431D01*
X0435197Y0266631D01*
X0435280Y0266431D01*
X0436911Y0264800D01*
X0439043Y0263917D01*
X0436699Y0262627D02*
X0384325Y0262627D01*
X0384340Y0264329D02*
X0384764Y0264329D01*
X0385188Y0264329D01*
X0386025Y0264462D01*
X0386832Y0264724D01*
X0387587Y0265109D01*
X0388273Y0265607D01*
X0388873Y0266207D01*
X0389371Y0266893D01*
X0389528Y0267200D01*
X0389847Y0266431D01*
X0391478Y0264800D01*
X0393610Y0263917D01*
X0395917Y0263917D01*
X0398049Y0264800D01*
X0399681Y0266431D01*
X0399764Y0266631D01*
X0399847Y0266431D01*
X0401478Y0264800D01*
X0403610Y0263917D01*
X0405917Y0263917D01*
X0408049Y0264800D01*
X0409681Y0266431D01*
X0410564Y0268563D01*
X0410564Y0276870D01*
X0409681Y0279002D01*
X0408049Y0280634D01*
X0405917Y0281517D01*
X0403610Y0281517D01*
X0401478Y0280634D01*
X0399847Y0279002D01*
X0399764Y0278802D01*
X0399681Y0279002D01*
X0398049Y0280634D01*
X0395917Y0281517D01*
X0393610Y0281517D01*
X0391478Y0280634D01*
X0389847Y0279002D01*
X0389528Y0278233D01*
X0389371Y0278540D01*
X0388873Y0279226D01*
X0388273Y0279826D01*
X0387587Y0280324D01*
X0386832Y0280709D01*
X0386025Y0280971D01*
X0385188Y0281104D01*
X0384764Y0281104D01*
X0384764Y0272717D01*
X0384764Y0272717D01*
X0384764Y0281104D01*
X0384340Y0281104D01*
X0383502Y0280971D01*
X0382696Y0280709D01*
X0381940Y0280324D01*
X0381254Y0279826D01*
X0380654Y0279226D01*
X0380156Y0278540D01*
X0379771Y0277785D01*
X0379509Y0276978D01*
X0379376Y0276141D01*
X0379376Y0272717D01*
X0384764Y0272717D01*
X0384764Y0272716D01*
X0384764Y0264329D01*
X0384764Y0272716D01*
X0384764Y0272716D01*
X0379376Y0272716D01*
X0379376Y0269293D01*
X0379509Y0268455D01*
X0379771Y0267648D01*
X0380156Y0266893D01*
X0380654Y0266207D01*
X0381254Y0265607D01*
X0381940Y0265109D01*
X0382696Y0264724D01*
X0383502Y0264462D01*
X0384340Y0264329D01*
X0384764Y0265826D02*
X0384764Y0265826D01*
X0384764Y0269024D02*
X0384764Y0269024D01*
X0384764Y0272223D02*
X0384764Y0272223D01*
X0384764Y0275421D02*
X0384764Y0275421D01*
X0384764Y0278620D02*
X0384764Y0278620D01*
X0389314Y0278620D02*
X0389688Y0278620D01*
X0380214Y0278620D02*
X0374091Y0278620D01*
X0376305Y0275421D02*
X0379376Y0275421D01*
X0379376Y0272223D02*
X0377472Y0272223D01*
X0377879Y0269024D02*
X0379419Y0269024D01*
X0381036Y0265826D02*
X0377603Y0265826D01*
X0376587Y0262627D02*
X0381581Y0262627D01*
X0388492Y0265826D02*
X0390452Y0265826D01*
X0399075Y0265826D02*
X0400452Y0265826D01*
X0409075Y0265826D02*
X0416469Y0265826D01*
X0416687Y0265607D02*
X0417373Y0265109D01*
X0418129Y0264724D01*
X0418935Y0264462D01*
X0419773Y0264329D01*
X0420197Y0264329D01*
X0420197Y0272716D01*
X0420197Y0272716D01*
X0414809Y0272716D01*
X0414809Y0269293D01*
X0414942Y0268455D01*
X0415204Y0267648D01*
X0415589Y0266893D01*
X0416088Y0266207D01*
X0416687Y0265607D01*
X0420197Y0265826D02*
X0420197Y0265826D01*
X0420197Y0269024D02*
X0420197Y0269024D01*
X0420197Y0272223D02*
X0420197Y0272223D01*
X0420197Y0275421D02*
X0420197Y0275421D01*
X0420197Y0278620D02*
X0420197Y0278620D01*
X0424747Y0278620D02*
X0425121Y0278620D01*
X0415647Y0278620D02*
X0409839Y0278620D01*
X0410564Y0275421D02*
X0414809Y0275421D01*
X0414809Y0272223D02*
X0410564Y0272223D01*
X0410564Y0269024D02*
X0414852Y0269024D01*
X0423925Y0265826D02*
X0425885Y0265826D01*
X0434508Y0265826D02*
X0435885Y0265826D01*
X0444508Y0265826D02*
X0471587Y0265826D01*
X0471805Y0265607D02*
X0472491Y0265109D01*
X0473247Y0264724D01*
X0474053Y0264462D01*
X0474891Y0264329D01*
X0475315Y0264329D01*
X0475315Y0272716D01*
X0475315Y0272716D01*
X0469928Y0272716D01*
X0469928Y0269293D01*
X0470060Y0268455D01*
X0470322Y0267648D01*
X0470707Y0266893D01*
X0471206Y0266207D01*
X0471805Y0265607D01*
X0475315Y0265826D02*
X0475315Y0265826D01*
X0475315Y0269024D02*
X0475315Y0269024D01*
X0475315Y0272223D02*
X0475315Y0272223D01*
X0475315Y0275421D02*
X0475315Y0275421D01*
X0475315Y0278620D02*
X0475315Y0278620D01*
X0479865Y0278620D02*
X0480240Y0278620D01*
X0470765Y0278620D02*
X0445272Y0278620D01*
X0445997Y0275421D02*
X0469928Y0275421D01*
X0469928Y0272223D02*
X0445997Y0272223D01*
X0445997Y0269024D02*
X0469970Y0269024D01*
X0479043Y0265826D02*
X0481004Y0265826D01*
X0489626Y0265826D02*
X0491004Y0265826D01*
X0499626Y0265826D02*
X0507020Y0265826D01*
X0507238Y0265607D02*
X0507924Y0265109D01*
X0508680Y0264724D01*
X0509486Y0264462D01*
X0510324Y0264329D01*
X0510748Y0264329D01*
X0510748Y0272716D01*
X0510748Y0264329D01*
X0511172Y0264329D01*
X0512010Y0264462D01*
X0512816Y0264724D01*
X0513572Y0265109D01*
X0514258Y0265607D01*
X0514857Y0266207D01*
X0515356Y0266893D01*
X0515512Y0267200D01*
X0515831Y0266431D01*
X0517463Y0264800D01*
X0519594Y0263917D01*
X0521902Y0263917D01*
X0524033Y0264800D01*
X0525665Y0266431D01*
X0525748Y0266631D01*
X0525831Y0266431D01*
X0527463Y0264800D01*
X0529594Y0263917D01*
X0531902Y0263917D01*
X0534033Y0264800D01*
X0535665Y0266431D01*
X0536548Y0268563D01*
X0536548Y0276870D01*
X0535665Y0279002D01*
X0534033Y0280634D01*
X0531902Y0281517D01*
X0529594Y0281517D01*
X0527463Y0280634D01*
X0525831Y0279002D01*
X0525748Y0278802D01*
X0525665Y0279002D01*
X0524033Y0280634D01*
X0521902Y0281517D01*
X0519594Y0281517D01*
X0517463Y0280634D01*
X0515831Y0279002D01*
X0515512Y0278233D01*
X0515356Y0278540D01*
X0514857Y0279226D01*
X0514258Y0279826D01*
X0513572Y0280324D01*
X0512816Y0280709D01*
X0512010Y0280971D01*
X0511172Y0281104D01*
X0510748Y0281104D01*
X0510324Y0281104D01*
X0509486Y0280971D01*
X0508680Y0280709D01*
X0507924Y0280324D01*
X0507238Y0279826D01*
X0506639Y0279226D01*
X0506140Y0278540D01*
X0505755Y0277785D01*
X0505493Y0276978D01*
X0505361Y0276141D01*
X0505361Y0272717D01*
X0510748Y0272717D01*
X0510748Y0281104D01*
X0510748Y0272717D01*
X0510748Y0272717D01*
X0510748Y0272716D01*
X0510748Y0272716D01*
X0505361Y0272716D01*
X0505361Y0269293D01*
X0505493Y0268455D01*
X0505755Y0267648D01*
X0506140Y0266893D01*
X0506639Y0266207D01*
X0507238Y0265607D01*
X0510748Y0265826D02*
X0510748Y0265826D01*
X0510748Y0269024D02*
X0510748Y0269024D01*
X0510748Y0272223D02*
X0510748Y0272223D01*
X0510748Y0275421D02*
X0510748Y0275421D01*
X0510748Y0278620D02*
X0510748Y0278620D01*
X0506198Y0278620D02*
X0500390Y0278620D01*
X0501115Y0275421D02*
X0505361Y0275421D01*
X0505361Y0272223D02*
X0501115Y0272223D01*
X0501115Y0269024D02*
X0505403Y0269024D01*
X0514476Y0265826D02*
X0516437Y0265826D01*
X0525059Y0265826D02*
X0526437Y0265826D01*
X0535059Y0265826D02*
X0566075Y0265826D01*
X0566293Y0265607D02*
X0566980Y0265109D01*
X0567735Y0264724D01*
X0568542Y0264462D01*
X0569379Y0264329D01*
X0569803Y0264329D01*
X0569803Y0272716D01*
X0569803Y0272716D01*
X0569803Y0264329D01*
X0570227Y0264329D01*
X0571065Y0264462D01*
X0571871Y0264724D01*
X0572627Y0265109D01*
X0573313Y0265607D01*
X0573912Y0266207D01*
X0574411Y0266893D01*
X0574568Y0267200D01*
X0574886Y0266431D01*
X0576518Y0264800D01*
X0578649Y0263917D01*
X0580957Y0263917D01*
X0583089Y0264800D01*
X0584720Y0266431D01*
X0584803Y0266631D01*
X0584886Y0266431D01*
X0586518Y0264800D01*
X0588649Y0263917D01*
X0590957Y0263917D01*
X0593089Y0264800D01*
X0594720Y0266431D01*
X0595603Y0268563D01*
X0595603Y0276870D01*
X0594720Y0279002D01*
X0593089Y0280634D01*
X0590957Y0281517D01*
X0588649Y0281517D01*
X0586518Y0280634D01*
X0584886Y0279002D01*
X0584803Y0278802D01*
X0584720Y0279002D01*
X0583089Y0280634D01*
X0580957Y0281517D01*
X0578649Y0281517D01*
X0576518Y0280634D01*
X0574886Y0279002D01*
X0574568Y0278233D01*
X0574411Y0278540D01*
X0573912Y0279226D01*
X0573313Y0279826D01*
X0572627Y0280324D01*
X0571871Y0280709D01*
X0571065Y0280971D01*
X0570227Y0281104D01*
X0569803Y0281104D01*
X0569379Y0281104D01*
X0568542Y0280971D01*
X0567735Y0280709D01*
X0566980Y0280324D01*
X0566293Y0279826D01*
X0565694Y0279226D01*
X0565195Y0278540D01*
X0564810Y0277785D01*
X0564548Y0276978D01*
X0564416Y0276141D01*
X0564416Y0272717D01*
X0569803Y0272717D01*
X0569803Y0281104D01*
X0569803Y0272717D01*
X0569803Y0272717D01*
X0569803Y0272716D01*
X0564416Y0272716D01*
X0564416Y0269293D01*
X0564548Y0268455D01*
X0564810Y0267648D01*
X0565195Y0266893D01*
X0565694Y0266207D01*
X0566293Y0265607D01*
X0569803Y0265826D02*
X0569803Y0265826D01*
X0569803Y0269024D02*
X0569803Y0269024D01*
X0569803Y0272223D02*
X0569803Y0272223D01*
X0569803Y0275421D02*
X0569803Y0275421D01*
X0569803Y0278620D02*
X0569803Y0278620D01*
X0565253Y0278620D02*
X0535823Y0278620D01*
X0536548Y0275421D02*
X0564416Y0275421D01*
X0564416Y0272223D02*
X0536548Y0272223D01*
X0536548Y0269024D02*
X0564458Y0269024D01*
X0573531Y0265826D02*
X0575492Y0265826D01*
X0584115Y0265826D02*
X0585492Y0265826D01*
X0594115Y0265826D02*
X0601508Y0265826D01*
X0599891Y0269024D02*
X0595603Y0269024D01*
X0595603Y0272223D02*
X0599849Y0272223D01*
X0599849Y0275421D02*
X0595603Y0275421D01*
X0594879Y0278620D02*
X0600686Y0278620D01*
X0605236Y0278620D02*
X0605236Y0278620D01*
X0605236Y0275421D02*
X0605236Y0275421D01*
X0605236Y0272223D02*
X0605236Y0272223D01*
X0605236Y0269024D02*
X0605236Y0269024D01*
X0605236Y0265826D02*
X0605236Y0265826D01*
X0608964Y0265826D02*
X0610925Y0265826D01*
X0619548Y0265826D02*
X0620925Y0265826D01*
X0629548Y0265826D02*
X0632397Y0265826D01*
X0632121Y0269024D02*
X0631036Y0269024D01*
X0631036Y0272223D02*
X0632528Y0272223D01*
X0633695Y0275421D02*
X0631036Y0275421D01*
X0630312Y0278620D02*
X0635909Y0278620D01*
X0640094Y0281818D02*
X0369906Y0281818D01*
X0356629Y0281818D02*
X0356452Y0281818D01*
X0356144Y0285017D02*
X0654143Y0285017D01*
X0654143Y0288215D02*
X0357209Y0288215D01*
X0356462Y0291414D02*
X0652791Y0291414D01*
X0653232Y0294612D02*
X0355857Y0294612D01*
X0355857Y0297811D02*
X0654143Y0297811D01*
X0654143Y0301009D02*
X0355857Y0301009D01*
X0355857Y0304208D02*
X0654143Y0304208D01*
X0654143Y0307406D02*
X0632388Y0307406D01*
X0633190Y0307738D02*
X0635057Y0309606D01*
X0636068Y0312046D01*
X0636068Y0314687D01*
X0635057Y0317127D01*
X0633190Y0318994D01*
X0630750Y0320005D01*
X0628109Y0320005D01*
X0625669Y0318994D01*
X0623801Y0317127D01*
X0622791Y0314687D01*
X0622791Y0312046D01*
X0623801Y0309606D01*
X0625669Y0307738D01*
X0628109Y0306728D01*
X0630750Y0306728D01*
X0633190Y0307738D01*
X0635471Y0310605D02*
X0654143Y0310605D01*
X0654143Y0313803D02*
X0636068Y0313803D01*
X0635109Y0317002D02*
X0654143Y0317002D01*
X0654143Y0320200D02*
X0355857Y0320200D01*
X0355857Y0323399D02*
X0378012Y0323399D01*
X0376850Y0323880D02*
X0379290Y0322869D01*
X0381931Y0322869D01*
X0384371Y0323880D01*
X0386238Y0325747D01*
X0387249Y0328187D01*
X0387249Y0330828D01*
X0386238Y0333268D01*
X0384371Y0335136D01*
X0381931Y0336146D01*
X0379290Y0336146D01*
X0376850Y0335136D01*
X0374982Y0333268D01*
X0373972Y0330828D01*
X0373972Y0328187D01*
X0374982Y0325747D01*
X0376850Y0323880D01*
X0374630Y0326597D02*
X0355857Y0326597D01*
X0355857Y0329796D02*
X0373972Y0329796D01*
X0374869Y0332994D02*
X0355857Y0332994D01*
X0355857Y0336193D02*
X0653861Y0336193D01*
X0654143Y0332994D02*
X0635171Y0332994D01*
X0635057Y0333268D02*
X0633190Y0335136D01*
X0630750Y0336146D01*
X0628109Y0336146D01*
X0625669Y0335136D01*
X0623801Y0333268D01*
X0622791Y0330828D01*
X0622791Y0328187D01*
X0623801Y0325747D01*
X0625669Y0323880D01*
X0628109Y0322869D01*
X0630750Y0322869D01*
X0633190Y0323880D01*
X0635057Y0325747D01*
X0636068Y0328187D01*
X0636068Y0330828D01*
X0635057Y0333268D01*
X0636068Y0329796D02*
X0654143Y0329796D01*
X0654143Y0326597D02*
X0635409Y0326597D01*
X0632028Y0323399D02*
X0654143Y0323399D01*
X0652791Y0339391D02*
X0355857Y0339391D01*
X0355857Y0342590D02*
X0653536Y0342590D01*
X0654143Y0345788D02*
X0355857Y0345788D01*
X0355857Y0348987D02*
X0376546Y0348987D01*
X0376850Y0348683D02*
X0374982Y0350551D01*
X0373972Y0352991D01*
X0373972Y0355632D01*
X0374982Y0358071D01*
X0376850Y0359939D01*
X0379290Y0360950D01*
X0381931Y0360950D01*
X0384371Y0359939D01*
X0386238Y0358071D01*
X0387249Y0355632D01*
X0387249Y0352991D01*
X0386238Y0350551D01*
X0384371Y0348683D01*
X0381931Y0347672D01*
X0379290Y0347672D01*
X0376850Y0348683D01*
X0374305Y0352185D02*
X0355857Y0352185D01*
X0355857Y0355384D02*
X0373972Y0355384D01*
X0375493Y0358582D02*
X0355857Y0358582D01*
X0357068Y0361781D02*
X0654143Y0361781D01*
X0654143Y0364979D02*
X0356974Y0364979D01*
X0355857Y0368178D02*
X0654143Y0368178D01*
X0654143Y0371376D02*
X0355857Y0371376D01*
X0355857Y0374575D02*
X0376541Y0374575D01*
X0376554Y0374562D02*
X0377347Y0373986D01*
X0378220Y0373541D01*
X0379152Y0373238D01*
X0380120Y0373085D01*
X0380610Y0373085D01*
X0380610Y0379311D01*
X0374384Y0379311D01*
X0374384Y0378821D01*
X0374538Y0377853D01*
X0374840Y0376921D01*
X0375285Y0376048D01*
X0375861Y0375255D01*
X0376554Y0374562D01*
X0374563Y0377773D02*
X0355857Y0377773D01*
X0355857Y0380972D02*
X0374604Y0380972D01*
X0374538Y0380769D02*
X0374384Y0379801D01*
X0374384Y0379311D01*
X0380610Y0379311D01*
X0380610Y0379311D01*
X0380610Y0379311D01*
X0380610Y0385537D01*
X0380120Y0385537D01*
X0379152Y0385384D01*
X0378220Y0385081D01*
X0377347Y0384636D01*
X0376554Y0384060D01*
X0375861Y0383367D01*
X0375285Y0382574D01*
X0374840Y0381701D01*
X0374538Y0380769D01*
X0376706Y0384170D02*
X0355857Y0384170D01*
X0355857Y0387369D02*
X0652791Y0387369D01*
X0653443Y0384170D02*
X0633958Y0384170D01*
X0633190Y0384939D02*
X0635057Y0383071D01*
X0636068Y0380632D01*
X0636068Y0377991D01*
X0635057Y0375551D01*
X0633190Y0373683D01*
X0630750Y0372672D01*
X0628109Y0372672D01*
X0625669Y0373683D01*
X0623801Y0375551D01*
X0622791Y0377991D01*
X0622791Y0380632D01*
X0623801Y0383071D01*
X0625669Y0384939D01*
X0628109Y0385950D01*
X0630750Y0385950D01*
X0633190Y0384939D01*
X0635927Y0380972D02*
X0654143Y0380972D01*
X0654143Y0377773D02*
X0635978Y0377773D01*
X0634081Y0374575D02*
X0654143Y0374575D01*
X0658543Y0386890D02*
X0658543Y0339646D01*
X0658543Y0292402D01*
X0658543Y0280591D01*
X0646732Y0268780D01*
X0653371Y0281818D02*
X0653548Y0281818D01*
X0626470Y0307406D02*
X0580419Y0307406D01*
X0581221Y0307738D02*
X0583089Y0309606D01*
X0584099Y0312046D01*
X0584099Y0314687D01*
X0583089Y0317127D01*
X0581221Y0318994D01*
X0578781Y0320005D01*
X0576140Y0320005D01*
X0573700Y0318994D01*
X0571833Y0317127D01*
X0570822Y0314687D01*
X0570822Y0312046D01*
X0571833Y0309606D01*
X0573700Y0307738D01*
X0576140Y0306728D01*
X0578781Y0306728D01*
X0581221Y0307738D01*
X0583502Y0310605D02*
X0623387Y0310605D01*
X0622791Y0313803D02*
X0584099Y0313803D01*
X0583140Y0317002D02*
X0623750Y0317002D01*
X0626830Y0323399D02*
X0580059Y0323399D01*
X0581221Y0323880D02*
X0583089Y0325747D01*
X0584099Y0328187D01*
X0584099Y0330828D01*
X0583089Y0333268D01*
X0581221Y0335136D01*
X0578781Y0336146D01*
X0576140Y0336146D01*
X0573700Y0335136D01*
X0571833Y0333268D01*
X0570822Y0330828D01*
X0570822Y0328187D01*
X0571833Y0325747D01*
X0573700Y0323880D01*
X0576140Y0322869D01*
X0578781Y0322869D01*
X0581221Y0323880D01*
X0583441Y0326597D02*
X0623449Y0326597D01*
X0622791Y0329796D02*
X0584099Y0329796D01*
X0583202Y0332994D02*
X0623688Y0332994D01*
X0628109Y0347672D02*
X0630750Y0347672D01*
X0633190Y0348683D01*
X0635057Y0350551D01*
X0636068Y0352991D01*
X0636068Y0355632D01*
X0635057Y0358071D01*
X0633190Y0359939D01*
X0630750Y0360950D01*
X0628109Y0360950D01*
X0625669Y0359939D01*
X0623801Y0358071D01*
X0622791Y0355632D01*
X0622791Y0352991D01*
X0623801Y0350551D01*
X0625669Y0348683D01*
X0628109Y0347672D01*
X0625365Y0348987D02*
X0581525Y0348987D01*
X0581221Y0348683D02*
X0583089Y0350551D01*
X0584099Y0352991D01*
X0584099Y0355632D01*
X0583089Y0358071D01*
X0581221Y0359939D01*
X0578781Y0360950D01*
X0576140Y0360950D01*
X0573700Y0359939D01*
X0571833Y0358071D01*
X0570822Y0355632D01*
X0570822Y0352991D01*
X0571833Y0350551D01*
X0573700Y0348683D01*
X0576140Y0347672D01*
X0578781Y0347672D01*
X0581221Y0348683D01*
X0583766Y0352185D02*
X0623124Y0352185D01*
X0622791Y0355384D02*
X0584099Y0355384D01*
X0582578Y0358582D02*
X0624312Y0358582D01*
X0634546Y0358582D02*
X0654143Y0358582D01*
X0654143Y0355384D02*
X0636068Y0355384D01*
X0635734Y0352185D02*
X0654143Y0352185D01*
X0654143Y0348987D02*
X0633493Y0348987D01*
X0624777Y0374575D02*
X0581529Y0374575D01*
X0581517Y0374562D02*
X0582210Y0375255D01*
X0582786Y0376048D01*
X0583230Y0376921D01*
X0583533Y0377853D01*
X0583687Y0378821D01*
X0583687Y0379311D01*
X0583687Y0379801D01*
X0583533Y0380769D01*
X0583230Y0381701D01*
X0582786Y0382574D01*
X0582210Y0383367D01*
X0581517Y0384060D01*
X0580724Y0384636D01*
X0579851Y0385081D01*
X0578919Y0385384D01*
X0577951Y0385537D01*
X0577461Y0385537D01*
X0577461Y0379311D01*
X0583687Y0379311D01*
X0577461Y0379311D01*
X0577461Y0379311D01*
X0577461Y0373085D01*
X0577951Y0373085D01*
X0578919Y0373238D01*
X0579851Y0373541D01*
X0580724Y0373986D01*
X0581517Y0374562D01*
X0583507Y0377773D02*
X0622880Y0377773D01*
X0622932Y0380972D02*
X0583467Y0380972D01*
X0581364Y0384170D02*
X0624900Y0384170D01*
X0654085Y0390567D02*
X0355857Y0390567D01*
X0355857Y0393766D02*
X0654143Y0393766D01*
X0654143Y0396965D02*
X0355857Y0396965D01*
X0355857Y0400163D02*
X0654143Y0400163D01*
X0654143Y0403362D02*
X0355857Y0403362D01*
X0355857Y0406560D02*
X0654143Y0406560D01*
X0652791Y0409759D02*
X0357209Y0409759D01*
X0356671Y0412957D02*
X0388359Y0412957D01*
X0388335Y0412976D02*
X0389012Y0412456D01*
X0389751Y0412030D01*
X0390540Y0411703D01*
X0391365Y0411482D01*
X0392211Y0411370D01*
X0392638Y0411370D01*
X0393065Y0411370D01*
X0393911Y0411482D01*
X0394736Y0411703D01*
X0395524Y0412030D01*
X0396264Y0412456D01*
X0396941Y0412976D01*
X0397545Y0413580D01*
X0398064Y0414257D01*
X0398491Y0414996D01*
X0398818Y0415785D01*
X0399039Y0416610D01*
X0399150Y0417456D01*
X0399150Y0422008D01*
X0399150Y0426560D01*
X0399039Y0427406D01*
X0398818Y0428231D01*
X0398491Y0429019D01*
X0398064Y0429759D01*
X0397545Y0430436D01*
X0396941Y0431040D01*
X0396264Y0431559D01*
X0395524Y0431986D01*
X0394736Y0432313D01*
X0393911Y0432534D01*
X0393065Y0432645D01*
X0392638Y0432645D01*
X0392638Y0422008D01*
X0399150Y0422008D01*
X0392638Y0422008D01*
X0392638Y0422008D01*
X0392638Y0422008D01*
X0392638Y0432645D01*
X0392211Y0432645D01*
X0391365Y0432534D01*
X0390540Y0432313D01*
X0389751Y0431986D01*
X0389012Y0431559D01*
X0388335Y0431040D01*
X0387731Y0430436D01*
X0387211Y0429759D01*
X0386784Y0429019D01*
X0386458Y0428231D01*
X0386237Y0427406D01*
X0386125Y0426560D01*
X0386125Y0422008D01*
X0392638Y0422008D01*
X0392638Y0411370D01*
X0392638Y0422008D01*
X0392638Y0422008D01*
X0392638Y0422008D01*
X0386125Y0422008D01*
X0386125Y0417456D01*
X0386237Y0416610D01*
X0386458Y0415785D01*
X0386784Y0414996D01*
X0387211Y0414257D01*
X0387731Y0413580D01*
X0388335Y0412976D01*
X0386358Y0416156D02*
X0355857Y0416156D01*
X0355857Y0419354D02*
X0386125Y0419354D01*
X0386125Y0422553D02*
X0372350Y0422553D01*
X0375299Y0425751D02*
X0386125Y0425751D01*
X0386756Y0428950D02*
X0377005Y0428950D01*
X0377862Y0432148D02*
X0390142Y0432148D01*
X0392638Y0432148D02*
X0392638Y0432148D01*
X0395133Y0432148D02*
X0409064Y0432148D01*
X0408715Y0432004D02*
X0406767Y0430056D01*
X0405713Y0427510D01*
X0405713Y0416505D01*
X0406767Y0413960D01*
X0408715Y0412012D01*
X0411260Y0410958D01*
X0414015Y0410958D01*
X0416560Y0412012D01*
X0418509Y0413960D01*
X0419563Y0416505D01*
X0419563Y0427510D01*
X0418509Y0430056D01*
X0416560Y0432004D01*
X0414015Y0433058D01*
X0411260Y0433058D01*
X0408715Y0432004D01*
X0406309Y0428950D02*
X0398520Y0428950D01*
X0399150Y0425751D02*
X0405713Y0425751D01*
X0405713Y0422553D02*
X0399150Y0422553D01*
X0399150Y0419354D02*
X0405713Y0419354D01*
X0405858Y0416156D02*
X0398917Y0416156D01*
X0396916Y0412957D02*
X0407770Y0412957D01*
X0417505Y0412957D02*
X0436627Y0412957D01*
X0436602Y0412976D02*
X0437280Y0412456D01*
X0438019Y0412030D01*
X0438808Y0411703D01*
X0439632Y0411482D01*
X0440479Y0411370D01*
X0440905Y0411370D01*
X0440905Y0422008D01*
X0440905Y0422008D01*
X0434393Y0422008D01*
X0434393Y0426560D01*
X0434505Y0427406D01*
X0434725Y0428231D01*
X0435052Y0429019D01*
X0435479Y0429759D01*
X0435999Y0430436D01*
X0436602Y0431040D01*
X0437280Y0431559D01*
X0438019Y0431986D01*
X0438808Y0432313D01*
X0439632Y0432534D01*
X0440479Y0432645D01*
X0440905Y0432645D01*
X0440905Y0422008D01*
X0434393Y0422008D01*
X0434393Y0417456D01*
X0434505Y0416610D01*
X0434725Y0415785D01*
X0435052Y0414996D01*
X0435479Y0414257D01*
X0435999Y0413580D01*
X0436602Y0412976D01*
X0434626Y0416156D02*
X0419418Y0416156D01*
X0419563Y0419354D02*
X0434393Y0419354D01*
X0434393Y0422553D02*
X0419563Y0422553D01*
X0419563Y0425751D02*
X0434393Y0425751D01*
X0435023Y0428950D02*
X0418967Y0428950D01*
X0416212Y0432148D02*
X0438410Y0432148D01*
X0440905Y0432148D02*
X0440906Y0432148D01*
X0440906Y0432645D02*
X0440906Y0422008D01*
X0447418Y0422008D01*
X0447418Y0426560D01*
X0447306Y0427406D01*
X0447086Y0428231D01*
X0446759Y0429019D01*
X0446332Y0429759D01*
X0445812Y0430436D01*
X0445209Y0431040D01*
X0444531Y0431559D01*
X0443792Y0431986D01*
X0443003Y0432313D01*
X0442179Y0432534D01*
X0441332Y0432645D01*
X0440906Y0432645D01*
X0443401Y0432148D02*
X0457332Y0432148D01*
X0456983Y0432004D02*
X0455035Y0430056D01*
X0453981Y0427510D01*
X0453981Y0416505D01*
X0455035Y0413960D01*
X0456983Y0412012D01*
X0459528Y0410958D01*
X0462283Y0410958D01*
X0464828Y0412012D01*
X0466776Y0413960D01*
X0467830Y0416505D01*
X0467830Y0427510D01*
X0466776Y0430056D01*
X0464828Y0432004D01*
X0462283Y0433058D01*
X0459528Y0433058D01*
X0456983Y0432004D01*
X0454577Y0428950D02*
X0446788Y0428950D01*
X0447418Y0425751D02*
X0453981Y0425751D01*
X0453981Y0422553D02*
X0447418Y0422553D01*
X0447418Y0422008D02*
X0440906Y0422008D01*
X0440906Y0422008D01*
X0440905Y0422008D01*
X0440906Y0422008D01*
X0440906Y0411370D01*
X0441332Y0411370D01*
X0442179Y0411482D01*
X0443003Y0411703D01*
X0443792Y0412030D01*
X0444531Y0412456D01*
X0445209Y0412976D01*
X0445812Y0413580D01*
X0446332Y0414257D01*
X0446759Y0414996D01*
X0447086Y0415785D01*
X0447306Y0416610D01*
X0447418Y0417456D01*
X0447418Y0422008D01*
X0447418Y0419354D02*
X0453981Y0419354D01*
X0454125Y0416156D02*
X0447185Y0416156D01*
X0445184Y0412957D02*
X0456038Y0412957D01*
X0465773Y0412957D02*
X0476038Y0412957D01*
X0476983Y0412012D02*
X0475035Y0413960D01*
X0473981Y0416505D01*
X0473981Y0427510D01*
X0475035Y0430056D01*
X0476983Y0432004D01*
X0479528Y0433058D01*
X0482283Y0433058D01*
X0484828Y0432004D01*
X0486776Y0430056D01*
X0487830Y0427510D01*
X0487830Y0416505D01*
X0486776Y0413960D01*
X0484828Y0412012D01*
X0482283Y0410958D01*
X0479528Y0410958D01*
X0476983Y0412012D01*
X0474125Y0416156D02*
X0467686Y0416156D01*
X0467830Y0419354D02*
X0473981Y0419354D01*
X0473981Y0422553D02*
X0467830Y0422553D01*
X0467830Y0425751D02*
X0473981Y0425751D01*
X0474577Y0428950D02*
X0467234Y0428950D01*
X0464479Y0432148D02*
X0477332Y0432148D01*
X0484479Y0432148D02*
X0506914Y0432148D01*
X0506523Y0431986D02*
X0505784Y0431559D01*
X0505106Y0431040D01*
X0504503Y0430436D01*
X0503983Y0429759D01*
X0503556Y0429019D01*
X0503229Y0428231D01*
X0503008Y0427406D01*
X0502897Y0426560D01*
X0502897Y0422008D01*
X0509409Y0422008D01*
X0509409Y0422008D01*
X0502897Y0422008D01*
X0502897Y0417456D01*
X0503008Y0416610D01*
X0503229Y0415785D01*
X0503556Y0414996D01*
X0503983Y0414257D01*
X0504503Y0413580D01*
X0505106Y0412976D01*
X0505784Y0412456D01*
X0506523Y0412030D01*
X0507312Y0411703D01*
X0508136Y0411482D01*
X0508983Y0411370D01*
X0509409Y0411370D01*
X0509409Y0422008D01*
X0509409Y0432645D01*
X0508983Y0432645D01*
X0508136Y0432534D01*
X0507312Y0432313D01*
X0506523Y0431986D01*
X0509409Y0432148D02*
X0509409Y0432148D01*
X0509409Y0432645D02*
X0509409Y0422008D01*
X0509409Y0422008D01*
X0509409Y0422008D01*
X0509409Y0411370D01*
X0509836Y0411370D01*
X0510683Y0411482D01*
X0511507Y0411703D01*
X0512296Y0412030D01*
X0513035Y0412456D01*
X0513713Y0412976D01*
X0514316Y0413580D01*
X0514836Y0414257D01*
X0515263Y0414996D01*
X0515589Y0415785D01*
X0515810Y0416610D01*
X0515922Y0417456D01*
X0515922Y0422008D01*
X0515922Y0426560D01*
X0515810Y0427406D01*
X0515589Y0428231D01*
X0515263Y0429019D01*
X0514836Y0429759D01*
X0514316Y0430436D01*
X0513713Y0431040D01*
X0513035Y0431559D01*
X0512296Y0431986D01*
X0511507Y0432313D01*
X0510683Y0432534D01*
X0509836Y0432645D01*
X0509409Y0432645D01*
X0511905Y0432148D02*
X0525836Y0432148D01*
X0525487Y0432004D02*
X0523539Y0430056D01*
X0522484Y0427510D01*
X0522484Y0416505D01*
X0523539Y0413960D01*
X0525487Y0412012D01*
X0528032Y0410958D01*
X0530787Y0410958D01*
X0533332Y0412012D01*
X0535280Y0413960D01*
X0536334Y0416505D01*
X0536334Y0427510D01*
X0535280Y0430056D01*
X0533332Y0432004D01*
X0530787Y0433058D01*
X0528032Y0433058D01*
X0525487Y0432004D01*
X0523081Y0428950D02*
X0515292Y0428950D01*
X0515922Y0425751D02*
X0522484Y0425751D01*
X0522484Y0422553D02*
X0515922Y0422553D01*
X0515922Y0422008D02*
X0509410Y0422008D01*
X0509410Y0422008D01*
X0515922Y0422008D01*
X0515922Y0419354D02*
X0522484Y0419354D01*
X0522629Y0416156D02*
X0515689Y0416156D01*
X0513688Y0412957D02*
X0524542Y0412957D01*
X0534277Y0412957D02*
X0544542Y0412957D01*
X0545487Y0412012D02*
X0548032Y0410958D01*
X0550787Y0410958D01*
X0553332Y0412012D01*
X0555280Y0413960D01*
X0556334Y0416505D01*
X0556334Y0427510D01*
X0555280Y0430056D01*
X0553332Y0432004D01*
X0550787Y0433058D01*
X0548032Y0433058D01*
X0545487Y0432004D01*
X0543539Y0430056D01*
X0542484Y0427510D01*
X0542484Y0416505D01*
X0543539Y0413960D01*
X0545487Y0412012D01*
X0542629Y0416156D02*
X0536190Y0416156D01*
X0536334Y0419354D02*
X0542484Y0419354D01*
X0542484Y0422553D02*
X0536334Y0422553D01*
X0536334Y0425751D02*
X0542484Y0425751D01*
X0543081Y0428950D02*
X0535738Y0428950D01*
X0532983Y0432148D02*
X0545836Y0432148D01*
X0552983Y0432148D02*
X0575418Y0432148D01*
X0575027Y0431986D02*
X0574288Y0431559D01*
X0573610Y0431040D01*
X0573007Y0430436D01*
X0572487Y0429759D01*
X0572060Y0429019D01*
X0571733Y0428231D01*
X0571512Y0427406D01*
X0571401Y0426560D01*
X0571401Y0422008D01*
X0577913Y0422008D01*
X0577913Y0422008D01*
X0571401Y0422008D01*
X0571401Y0417456D01*
X0571512Y0416610D01*
X0571733Y0415785D01*
X0572060Y0414996D01*
X0572487Y0414257D01*
X0573007Y0413580D01*
X0573610Y0412976D01*
X0574288Y0412456D01*
X0575027Y0412030D01*
X0575816Y0411703D01*
X0576640Y0411482D01*
X0577487Y0411370D01*
X0577913Y0411370D01*
X0577913Y0422008D01*
X0577913Y0432645D01*
X0577487Y0432645D01*
X0576640Y0432534D01*
X0575816Y0432313D01*
X0575027Y0431986D01*
X0577913Y0432148D02*
X0577913Y0432148D01*
X0577913Y0432645D02*
X0577913Y0422008D01*
X0577913Y0422008D01*
X0577913Y0422008D01*
X0577913Y0411370D01*
X0578340Y0411370D01*
X0579187Y0411482D01*
X0580011Y0411703D01*
X0580800Y0412030D01*
X0581539Y0412456D01*
X0582217Y0412976D01*
X0582820Y0413580D01*
X0583340Y0414257D01*
X0583767Y0414996D01*
X0584093Y0415785D01*
X0584314Y0416610D01*
X0584426Y0417456D01*
X0584426Y0422008D01*
X0584426Y0426560D01*
X0584314Y0427406D01*
X0584093Y0428231D01*
X0583767Y0429019D01*
X0583340Y0429759D01*
X0582820Y0430436D01*
X0582217Y0431040D01*
X0581539Y0431559D01*
X0580800Y0431986D01*
X0580011Y0432313D01*
X0579187Y0432534D01*
X0578340Y0432645D01*
X0577913Y0432645D01*
X0580409Y0432148D02*
X0594340Y0432148D01*
X0593991Y0432004D02*
X0592043Y0430056D01*
X0590988Y0427510D01*
X0590988Y0416505D01*
X0592043Y0413960D01*
X0593991Y0412012D01*
X0596536Y0410958D01*
X0599291Y0410958D01*
X0601836Y0412012D01*
X0603784Y0413960D01*
X0604838Y0416505D01*
X0604838Y0427510D01*
X0603784Y0430056D01*
X0601836Y0432004D01*
X0599291Y0433058D01*
X0596536Y0433058D01*
X0593991Y0432004D01*
X0591585Y0428950D02*
X0583796Y0428950D01*
X0584426Y0425751D02*
X0590988Y0425751D01*
X0590988Y0422553D02*
X0584426Y0422553D01*
X0584426Y0422008D02*
X0577914Y0422008D01*
X0577914Y0422008D01*
X0584426Y0422008D01*
X0584426Y0419354D02*
X0590988Y0419354D01*
X0591133Y0416156D02*
X0584193Y0416156D01*
X0582192Y0412957D02*
X0593046Y0412957D01*
X0602781Y0412957D02*
X0613046Y0412957D01*
X0613991Y0412012D02*
X0616536Y0410958D01*
X0619291Y0410958D01*
X0621836Y0412012D01*
X0623784Y0413960D01*
X0624838Y0416505D01*
X0624838Y0427510D01*
X0623784Y0430056D01*
X0621836Y0432004D01*
X0619291Y0433058D01*
X0616536Y0433058D01*
X0613991Y0432004D01*
X0612043Y0430056D01*
X0610988Y0427510D01*
X0610988Y0416505D01*
X0612043Y0413960D01*
X0613991Y0412012D01*
X0611133Y0416156D02*
X0604693Y0416156D01*
X0604838Y0419354D02*
X0610988Y0419354D01*
X0610988Y0422553D02*
X0604838Y0422553D01*
X0604838Y0425751D02*
X0610988Y0425751D01*
X0611585Y0428950D02*
X0604242Y0428950D01*
X0601487Y0432148D02*
X0614340Y0432148D01*
X0621487Y0432148D02*
X0632138Y0432148D01*
X0632121Y0435347D02*
X0377879Y0435347D01*
X0377212Y0438545D02*
X0632788Y0438545D01*
X0634921Y0445945D02*
X0623110Y0445945D01*
X0560118Y0445945D01*
X0497126Y0445945D01*
X0445945Y0445945D01*
X0386890Y0445945D01*
X0375079Y0445945D01*
X0363268Y0434134D01*
X0351457Y0422323D01*
X0351457Y0410512D01*
X0351457Y0363268D01*
X0351457Y0316024D01*
X0351457Y0288465D01*
X0351457Y0280591D01*
X0363268Y0268780D01*
X0355857Y0307406D02*
X0377651Y0307406D01*
X0376850Y0307738D02*
X0379290Y0306728D01*
X0381931Y0306728D01*
X0384371Y0307738D01*
X0386238Y0309606D01*
X0387249Y0312046D01*
X0387249Y0314687D01*
X0386238Y0317127D01*
X0384371Y0318994D01*
X0381931Y0320005D01*
X0379290Y0320005D01*
X0376850Y0318994D01*
X0374982Y0317127D01*
X0373972Y0314687D01*
X0373972Y0312046D01*
X0374982Y0309606D01*
X0376850Y0307738D01*
X0374569Y0310605D02*
X0355857Y0310605D01*
X0356764Y0313803D02*
X0373972Y0313803D01*
X0374931Y0317002D02*
X0357209Y0317002D01*
X0383209Y0323399D02*
X0429980Y0323399D01*
X0428818Y0323880D02*
X0431258Y0322869D01*
X0433899Y0322869D01*
X0436339Y0323880D01*
X0438207Y0325747D01*
X0439217Y0328187D01*
X0439217Y0330828D01*
X0438207Y0333268D01*
X0436339Y0335136D01*
X0433899Y0336146D01*
X0431258Y0336146D01*
X0428818Y0335136D01*
X0426951Y0333268D01*
X0425940Y0330828D01*
X0425940Y0328187D01*
X0426951Y0325747D01*
X0428818Y0323880D01*
X0426599Y0326597D02*
X0386590Y0326597D01*
X0387249Y0329796D02*
X0425940Y0329796D01*
X0426837Y0332994D02*
X0386352Y0332994D01*
X0386290Y0317002D02*
X0426899Y0317002D01*
X0426951Y0317127D02*
X0425940Y0314687D01*
X0425940Y0312046D01*
X0426951Y0309606D01*
X0428818Y0307738D01*
X0431258Y0306728D01*
X0433899Y0306728D01*
X0436339Y0307738D01*
X0438207Y0309606D01*
X0439217Y0312046D01*
X0439217Y0314687D01*
X0438207Y0317127D01*
X0436339Y0318994D01*
X0433899Y0320005D01*
X0431258Y0320005D01*
X0428818Y0318994D01*
X0426951Y0317127D01*
X0425940Y0313803D02*
X0387249Y0313803D01*
X0386652Y0310605D02*
X0426537Y0310605D01*
X0429620Y0307406D02*
X0383569Y0307406D01*
X0435538Y0307406D02*
X0476077Y0307406D01*
X0475275Y0307738D02*
X0477715Y0306728D01*
X0480356Y0306728D01*
X0482796Y0307738D01*
X0484663Y0309606D01*
X0485674Y0312046D01*
X0485674Y0314687D01*
X0484663Y0317127D01*
X0482796Y0318994D01*
X0480356Y0320005D01*
X0477715Y0320005D01*
X0475275Y0318994D01*
X0473408Y0317127D01*
X0472397Y0314687D01*
X0472397Y0312046D01*
X0473408Y0309606D01*
X0475275Y0307738D01*
X0472994Y0310605D02*
X0438620Y0310605D01*
X0439217Y0313803D02*
X0472397Y0313803D01*
X0473356Y0317002D02*
X0438258Y0317002D01*
X0435177Y0323399D02*
X0476437Y0323399D01*
X0475275Y0323880D02*
X0477715Y0322869D01*
X0480356Y0322869D01*
X0482796Y0323880D01*
X0484663Y0325747D01*
X0485674Y0328187D01*
X0485674Y0330828D01*
X0484663Y0333268D01*
X0482796Y0335136D01*
X0480356Y0336146D01*
X0477715Y0336146D01*
X0475275Y0335136D01*
X0473408Y0333268D01*
X0472397Y0330828D01*
X0472397Y0328187D01*
X0473408Y0325747D01*
X0475275Y0323880D01*
X0473055Y0326597D02*
X0438559Y0326597D01*
X0439217Y0329796D02*
X0472397Y0329796D01*
X0473294Y0332994D02*
X0438320Y0332994D01*
X0433899Y0347672D02*
X0436339Y0348683D01*
X0438207Y0350551D01*
X0439217Y0352991D01*
X0439217Y0355632D01*
X0438207Y0358071D01*
X0436339Y0359939D01*
X0433899Y0360950D01*
X0431258Y0360950D01*
X0428818Y0359939D01*
X0426951Y0358071D01*
X0425940Y0355632D01*
X0425940Y0352991D01*
X0426951Y0350551D01*
X0428818Y0348683D01*
X0431258Y0347672D01*
X0433899Y0347672D01*
X0436643Y0348987D02*
X0474971Y0348987D01*
X0475275Y0348683D02*
X0473408Y0350551D01*
X0472397Y0352991D01*
X0472397Y0355632D01*
X0473408Y0358071D01*
X0475275Y0359939D01*
X0477715Y0360950D01*
X0480356Y0360950D01*
X0482796Y0359939D01*
X0484663Y0358071D01*
X0485674Y0355632D01*
X0485674Y0352991D01*
X0484663Y0350551D01*
X0482796Y0348683D01*
X0480356Y0347672D01*
X0477715Y0347672D01*
X0475275Y0348683D01*
X0472730Y0352185D02*
X0438884Y0352185D01*
X0439217Y0355384D02*
X0472397Y0355384D01*
X0473918Y0358582D02*
X0437696Y0358582D01*
X0427462Y0358582D02*
X0385727Y0358582D01*
X0387249Y0355384D02*
X0425940Y0355384D01*
X0426274Y0352185D02*
X0386915Y0352185D01*
X0384674Y0348987D02*
X0428515Y0348987D01*
X0431258Y0372672D02*
X0433899Y0372672D01*
X0436339Y0373683D01*
X0438207Y0375551D01*
X0439217Y0377991D01*
X0439217Y0380632D01*
X0438207Y0383071D01*
X0436339Y0384939D01*
X0433899Y0385950D01*
X0431258Y0385950D01*
X0428818Y0384939D01*
X0426951Y0383071D01*
X0425940Y0380632D01*
X0425940Y0377991D01*
X0426951Y0375551D01*
X0428818Y0373683D01*
X0431258Y0372672D01*
X0427926Y0374575D02*
X0384679Y0374575D01*
X0384666Y0374562D02*
X0385359Y0375255D01*
X0385935Y0376048D01*
X0386380Y0376921D01*
X0386683Y0377853D01*
X0386836Y0378821D01*
X0386836Y0379311D01*
X0380610Y0379311D01*
X0380610Y0379311D01*
X0380610Y0373085D01*
X0381100Y0373085D01*
X0382068Y0373238D01*
X0383000Y0373541D01*
X0383873Y0373986D01*
X0384666Y0374562D01*
X0386657Y0377773D02*
X0426030Y0377773D01*
X0426081Y0380972D02*
X0386617Y0380972D01*
X0386683Y0380769D02*
X0386380Y0381701D01*
X0385935Y0382574D01*
X0385359Y0383367D01*
X0384666Y0384060D01*
X0383873Y0384636D01*
X0383000Y0385081D01*
X0382068Y0385384D01*
X0381100Y0385537D01*
X0380610Y0385537D01*
X0380610Y0379311D01*
X0386836Y0379311D01*
X0386836Y0379801D01*
X0386683Y0380769D01*
X0384514Y0384170D02*
X0428050Y0384170D01*
X0437108Y0384170D02*
X0475132Y0384170D01*
X0474979Y0384060D02*
X0474287Y0383367D01*
X0473710Y0382574D01*
X0473266Y0381701D01*
X0472963Y0380769D01*
X0472809Y0379801D01*
X0472809Y0379311D01*
X0472809Y0378821D01*
X0472963Y0377853D01*
X0473266Y0376921D01*
X0473710Y0376048D01*
X0474287Y0375255D01*
X0474979Y0374562D01*
X0475772Y0373986D01*
X0476645Y0373541D01*
X0477577Y0373238D01*
X0478545Y0373085D01*
X0479035Y0373085D01*
X0479035Y0379311D01*
X0472809Y0379311D01*
X0479035Y0379311D01*
X0479035Y0379311D01*
X0479035Y0379311D01*
X0479035Y0385537D01*
X0478545Y0385537D01*
X0477577Y0385384D01*
X0476645Y0385081D01*
X0475772Y0384636D01*
X0474979Y0384060D01*
X0473029Y0380972D02*
X0439076Y0380972D01*
X0439127Y0377773D02*
X0472989Y0377773D01*
X0474967Y0374575D02*
X0437231Y0374575D01*
X0479035Y0374575D02*
X0479035Y0374575D01*
X0479035Y0373085D02*
X0479525Y0373085D01*
X0480493Y0373238D01*
X0481425Y0373541D01*
X0482299Y0373986D01*
X0483091Y0374562D01*
X0483784Y0375255D01*
X0484360Y0376048D01*
X0484805Y0376921D01*
X0485108Y0377853D01*
X0485261Y0378821D01*
X0485261Y0379311D01*
X0485261Y0379801D01*
X0485108Y0380769D01*
X0484805Y0381701D01*
X0484360Y0382574D01*
X0483784Y0383367D01*
X0483091Y0384060D01*
X0482299Y0384636D01*
X0481425Y0385081D01*
X0480493Y0385384D01*
X0479525Y0385537D01*
X0479035Y0385537D01*
X0479035Y0379311D01*
X0479035Y0379311D01*
X0479035Y0373085D01*
X0483104Y0374575D02*
X0526352Y0374575D01*
X0527243Y0373683D02*
X0529683Y0372672D01*
X0532324Y0372672D01*
X0534764Y0373683D01*
X0536632Y0375551D01*
X0537643Y0377991D01*
X0537643Y0380632D01*
X0536632Y0383071D01*
X0534764Y0384939D01*
X0532324Y0385950D01*
X0529683Y0385950D01*
X0527243Y0384939D01*
X0525376Y0383071D01*
X0524365Y0380632D01*
X0524365Y0377991D01*
X0525376Y0375551D01*
X0527243Y0373683D01*
X0524455Y0377773D02*
X0485082Y0377773D01*
X0485261Y0379311D02*
X0479036Y0379311D01*
X0485261Y0379311D01*
X0485042Y0380972D02*
X0524506Y0380972D01*
X0526475Y0384170D02*
X0482939Y0384170D01*
X0479035Y0384170D02*
X0479035Y0384170D01*
X0479035Y0380972D02*
X0479035Y0380972D01*
X0479036Y0379311D02*
X0479036Y0379311D01*
X0479035Y0377773D02*
X0479035Y0377773D01*
X0484152Y0358582D02*
X0525887Y0358582D01*
X0525376Y0358071D02*
X0524365Y0355632D01*
X0524365Y0352991D01*
X0525376Y0350551D01*
X0527243Y0348683D01*
X0529683Y0347672D01*
X0532324Y0347672D01*
X0534764Y0348683D01*
X0536632Y0350551D01*
X0537643Y0352991D01*
X0537643Y0355632D01*
X0536632Y0358071D01*
X0534764Y0359939D01*
X0532324Y0360950D01*
X0529683Y0360950D01*
X0527243Y0359939D01*
X0525376Y0358071D01*
X0524365Y0355384D02*
X0485674Y0355384D01*
X0485340Y0352185D02*
X0524699Y0352185D01*
X0526940Y0348987D02*
X0483100Y0348987D01*
X0484777Y0332994D02*
X0525263Y0332994D01*
X0525376Y0333268D02*
X0524365Y0330828D01*
X0524365Y0328187D01*
X0525376Y0325747D01*
X0527243Y0323880D01*
X0529683Y0322869D01*
X0532324Y0322869D01*
X0534764Y0323880D01*
X0536632Y0325747D01*
X0537643Y0328187D01*
X0537643Y0330828D01*
X0536632Y0333268D01*
X0534764Y0335136D01*
X0532324Y0336146D01*
X0529683Y0336146D01*
X0527243Y0335136D01*
X0525376Y0333268D01*
X0524365Y0329796D02*
X0485674Y0329796D01*
X0485015Y0326597D02*
X0525024Y0326597D01*
X0528405Y0323399D02*
X0481634Y0323399D01*
X0484715Y0317002D02*
X0525324Y0317002D01*
X0525376Y0317127D02*
X0524365Y0314687D01*
X0524365Y0312046D01*
X0525376Y0309606D01*
X0527243Y0307738D01*
X0529683Y0306728D01*
X0532324Y0306728D01*
X0534764Y0307738D01*
X0536632Y0309606D01*
X0537643Y0312046D01*
X0537643Y0314687D01*
X0536632Y0317127D01*
X0534764Y0318994D01*
X0532324Y0320005D01*
X0529683Y0320005D01*
X0527243Y0318994D01*
X0525376Y0317127D01*
X0524365Y0313803D02*
X0485674Y0313803D01*
X0485077Y0310605D02*
X0524962Y0310605D01*
X0528045Y0307406D02*
X0481994Y0307406D01*
X0515298Y0278620D02*
X0515673Y0278620D01*
X0533963Y0307406D02*
X0574502Y0307406D01*
X0571419Y0310605D02*
X0537046Y0310605D01*
X0537643Y0313803D02*
X0570822Y0313803D01*
X0571781Y0317002D02*
X0536684Y0317002D01*
X0533603Y0323399D02*
X0574862Y0323399D01*
X0571481Y0326597D02*
X0536984Y0326597D01*
X0537643Y0329796D02*
X0570822Y0329796D01*
X0571719Y0332994D02*
X0536745Y0332994D01*
X0535068Y0348987D02*
X0573396Y0348987D01*
X0571156Y0352185D02*
X0537309Y0352185D01*
X0537643Y0355384D02*
X0570822Y0355384D01*
X0572344Y0358582D02*
X0536121Y0358582D01*
X0535656Y0374575D02*
X0573392Y0374575D01*
X0573405Y0374562D02*
X0574198Y0373986D01*
X0575071Y0373541D01*
X0576003Y0373238D01*
X0576971Y0373085D01*
X0577461Y0373085D01*
X0577461Y0379311D01*
X0577461Y0379311D01*
X0577461Y0379311D01*
X0577461Y0385537D01*
X0576971Y0385537D01*
X0576003Y0385384D01*
X0575071Y0385081D01*
X0574198Y0384636D01*
X0573405Y0384060D01*
X0572712Y0383367D01*
X0572136Y0382574D01*
X0571691Y0381701D01*
X0571388Y0380769D01*
X0571235Y0379801D01*
X0571235Y0379311D01*
X0571235Y0378821D01*
X0571388Y0377853D01*
X0571691Y0376921D01*
X0572136Y0376048D01*
X0572712Y0375255D01*
X0573405Y0374562D01*
X0571414Y0377773D02*
X0537553Y0377773D01*
X0537502Y0380972D02*
X0571454Y0380972D01*
X0571235Y0379311D02*
X0577460Y0379311D01*
X0571235Y0379311D01*
X0573557Y0384170D02*
X0535533Y0384170D01*
X0554277Y0412957D02*
X0573635Y0412957D01*
X0571634Y0416156D02*
X0556190Y0416156D01*
X0556334Y0419354D02*
X0571401Y0419354D01*
X0571401Y0422553D02*
X0556334Y0422553D01*
X0556334Y0425751D02*
X0571401Y0425751D01*
X0572031Y0428950D02*
X0555738Y0428950D01*
X0577913Y0428950D02*
X0577913Y0428950D01*
X0577913Y0425751D02*
X0577913Y0425751D01*
X0577913Y0422553D02*
X0577913Y0422553D01*
X0577913Y0419354D02*
X0577913Y0419354D01*
X0577913Y0416156D02*
X0577913Y0416156D01*
X0577913Y0412957D02*
X0577913Y0412957D01*
X0577461Y0384170D02*
X0577461Y0384170D01*
X0577461Y0380972D02*
X0577461Y0380972D01*
X0577460Y0379311D02*
X0577460Y0379311D01*
X0577461Y0377773D02*
X0577461Y0377773D01*
X0577461Y0374575D02*
X0577461Y0374575D01*
X0622781Y0412957D02*
X0653329Y0412957D01*
X0654143Y0416156D02*
X0624693Y0416156D01*
X0624838Y0419354D02*
X0654143Y0419354D01*
X0658543Y0422323D02*
X0658543Y0410512D01*
X0658543Y0386890D01*
X0658543Y0422323D02*
X0646732Y0434134D01*
X0658543Y0422323D01*
X0646732Y0434134D01*
X0634921Y0445945D01*
X0632995Y0428950D02*
X0624242Y0428950D01*
X0624838Y0425751D02*
X0634701Y0425751D01*
X0637650Y0422553D02*
X0624838Y0422553D01*
X0509409Y0422553D02*
X0509409Y0422553D01*
X0509409Y0425751D02*
X0509409Y0425751D01*
X0509409Y0428950D02*
X0509409Y0428950D01*
X0503527Y0428950D02*
X0487234Y0428950D01*
X0487830Y0425751D02*
X0502897Y0425751D01*
X0502897Y0422553D02*
X0487830Y0422553D01*
X0487830Y0419354D02*
X0502897Y0419354D01*
X0503130Y0416156D02*
X0487686Y0416156D01*
X0485773Y0412957D02*
X0505131Y0412957D01*
X0509409Y0412957D02*
X0509409Y0412957D01*
X0509409Y0416156D02*
X0509409Y0416156D01*
X0509409Y0419354D02*
X0509409Y0419354D01*
X0440906Y0419354D02*
X0440905Y0419354D01*
X0440905Y0416156D02*
X0440906Y0416156D01*
X0440905Y0412957D02*
X0440906Y0412957D01*
X0440905Y0422553D02*
X0440906Y0422553D01*
X0440905Y0425751D02*
X0440906Y0425751D01*
X0440905Y0428950D02*
X0440906Y0428950D01*
X0392638Y0428950D02*
X0392638Y0428950D01*
X0392638Y0425751D02*
X0392638Y0425751D01*
X0392638Y0422553D02*
X0392638Y0422553D01*
X0392638Y0419354D02*
X0392638Y0419354D01*
X0392638Y0416156D02*
X0392638Y0416156D01*
X0392638Y0412957D02*
X0392638Y0412957D01*
X0380610Y0384170D02*
X0380610Y0384170D01*
X0380610Y0380972D02*
X0380610Y0380972D01*
X0380610Y0379311D02*
X0380610Y0379311D01*
X0380610Y0377773D02*
X0380610Y0377773D01*
X0380610Y0374575D02*
X0380610Y0374575D01*
X0574353Y0278620D02*
X0574728Y0278620D01*
X0609786Y0278620D02*
X0610161Y0278620D01*
D16*
X0623110Y0256969D03*
X0658543Y0292402D03*
X0658543Y0339646D03*
X0658543Y0386890D03*
X0658543Y0410512D03*
X0623110Y0445945D03*
X0560118Y0445945D03*
X0497126Y0445945D03*
X0445945Y0445945D03*
X0386890Y0445945D03*
X0351457Y0410512D03*
X0351457Y0363268D03*
X0351457Y0316024D03*
X0351457Y0288465D03*
X0382953Y0256969D03*
X0438071Y0256969D03*
X0493189Y0256969D03*
X0552244Y0256969D03*
M02*
