G75*
%MOIN*%
%OFA0B0*%
%FSLAX25Y25*%
%IPPOS*%
%LPD*%
%AMOC8*
5,1,8,0,0,1.08239X$1,22.5*
%
%ADD10C,0.00000*%
%ADD11C,0.08250*%
%ADD12C,0.07677*%
%ADD13C,0.06000*%
%ADD14C,0.23622*%
%ADD15C,0.03937*%
%ADD16C,0.05906*%
D10*
X0363268Y0253031D02*
X0646732Y0253031D01*
X0646732Y0253032D02*
X0647113Y0253037D01*
X0647493Y0253050D01*
X0647873Y0253073D01*
X0648252Y0253106D01*
X0648630Y0253147D01*
X0649007Y0253197D01*
X0649383Y0253257D01*
X0649758Y0253325D01*
X0650130Y0253403D01*
X0650501Y0253490D01*
X0650869Y0253585D01*
X0651235Y0253690D01*
X0651598Y0253803D01*
X0651959Y0253925D01*
X0652316Y0254055D01*
X0652670Y0254195D01*
X0653021Y0254342D01*
X0653368Y0254499D01*
X0653711Y0254663D01*
X0654050Y0254836D01*
X0654385Y0255017D01*
X0654716Y0255206D01*
X0655041Y0255403D01*
X0655362Y0255607D01*
X0655678Y0255820D01*
X0655988Y0256040D01*
X0656294Y0256267D01*
X0656593Y0256502D01*
X0656887Y0256744D01*
X0657175Y0256992D01*
X0657457Y0257248D01*
X0657732Y0257511D01*
X0658001Y0257780D01*
X0658264Y0258055D01*
X0658520Y0258337D01*
X0658768Y0258625D01*
X0659010Y0258919D01*
X0659245Y0259218D01*
X0659472Y0259524D01*
X0659692Y0259834D01*
X0659905Y0260150D01*
X0660109Y0260471D01*
X0660306Y0260796D01*
X0660495Y0261127D01*
X0660676Y0261462D01*
X0660849Y0261801D01*
X0661013Y0262144D01*
X0661170Y0262491D01*
X0661317Y0262842D01*
X0661457Y0263196D01*
X0661587Y0263553D01*
X0661709Y0263914D01*
X0661822Y0264277D01*
X0661927Y0264643D01*
X0662022Y0265011D01*
X0662109Y0265382D01*
X0662187Y0265754D01*
X0662255Y0266129D01*
X0662315Y0266505D01*
X0662365Y0266882D01*
X0662406Y0267260D01*
X0662439Y0267639D01*
X0662462Y0268019D01*
X0662475Y0268399D01*
X0662480Y0268780D01*
X0662480Y0434134D01*
X0662475Y0434515D01*
X0662462Y0434895D01*
X0662439Y0435275D01*
X0662406Y0435654D01*
X0662365Y0436032D01*
X0662315Y0436409D01*
X0662255Y0436785D01*
X0662187Y0437160D01*
X0662109Y0437532D01*
X0662022Y0437903D01*
X0661927Y0438271D01*
X0661822Y0438637D01*
X0661709Y0439000D01*
X0661587Y0439361D01*
X0661457Y0439718D01*
X0661317Y0440072D01*
X0661170Y0440423D01*
X0661013Y0440770D01*
X0660849Y0441113D01*
X0660676Y0441452D01*
X0660495Y0441787D01*
X0660306Y0442118D01*
X0660109Y0442443D01*
X0659905Y0442764D01*
X0659692Y0443080D01*
X0659472Y0443390D01*
X0659245Y0443696D01*
X0659010Y0443995D01*
X0658768Y0444289D01*
X0658520Y0444577D01*
X0658264Y0444859D01*
X0658001Y0445134D01*
X0657732Y0445403D01*
X0657457Y0445666D01*
X0657175Y0445922D01*
X0656887Y0446170D01*
X0656593Y0446412D01*
X0656294Y0446647D01*
X0655988Y0446874D01*
X0655678Y0447094D01*
X0655362Y0447307D01*
X0655041Y0447511D01*
X0654716Y0447708D01*
X0654385Y0447897D01*
X0654050Y0448078D01*
X0653711Y0448251D01*
X0653368Y0448415D01*
X0653021Y0448572D01*
X0652670Y0448719D01*
X0652316Y0448859D01*
X0651959Y0448989D01*
X0651598Y0449111D01*
X0651235Y0449224D01*
X0650869Y0449329D01*
X0650501Y0449424D01*
X0650130Y0449511D01*
X0649758Y0449589D01*
X0649383Y0449657D01*
X0649007Y0449717D01*
X0648630Y0449767D01*
X0648252Y0449808D01*
X0647873Y0449841D01*
X0647493Y0449864D01*
X0647113Y0449877D01*
X0646732Y0449882D01*
X0363268Y0449882D01*
X0362887Y0449877D01*
X0362507Y0449864D01*
X0362127Y0449841D01*
X0361748Y0449808D01*
X0361370Y0449767D01*
X0360993Y0449717D01*
X0360617Y0449657D01*
X0360242Y0449589D01*
X0359870Y0449511D01*
X0359499Y0449424D01*
X0359131Y0449329D01*
X0358765Y0449224D01*
X0358402Y0449111D01*
X0358041Y0448989D01*
X0357684Y0448859D01*
X0357330Y0448719D01*
X0356979Y0448572D01*
X0356632Y0448415D01*
X0356289Y0448251D01*
X0355950Y0448078D01*
X0355615Y0447897D01*
X0355284Y0447708D01*
X0354959Y0447511D01*
X0354638Y0447307D01*
X0354322Y0447094D01*
X0354012Y0446874D01*
X0353706Y0446647D01*
X0353407Y0446412D01*
X0353113Y0446170D01*
X0352825Y0445922D01*
X0352543Y0445666D01*
X0352268Y0445403D01*
X0351999Y0445134D01*
X0351736Y0444859D01*
X0351480Y0444577D01*
X0351232Y0444289D01*
X0350990Y0443995D01*
X0350755Y0443696D01*
X0350528Y0443390D01*
X0350308Y0443080D01*
X0350095Y0442764D01*
X0349891Y0442443D01*
X0349694Y0442118D01*
X0349505Y0441787D01*
X0349324Y0441452D01*
X0349151Y0441113D01*
X0348987Y0440770D01*
X0348830Y0440423D01*
X0348683Y0440072D01*
X0348543Y0439718D01*
X0348413Y0439361D01*
X0348291Y0439000D01*
X0348178Y0438637D01*
X0348073Y0438271D01*
X0347978Y0437903D01*
X0347891Y0437532D01*
X0347813Y0437160D01*
X0347745Y0436785D01*
X0347685Y0436409D01*
X0347635Y0436032D01*
X0347594Y0435654D01*
X0347561Y0435275D01*
X0347538Y0434895D01*
X0347525Y0434515D01*
X0347520Y0434134D01*
X0347520Y0268780D01*
X0347525Y0268399D01*
X0347538Y0268019D01*
X0347561Y0267639D01*
X0347594Y0267260D01*
X0347635Y0266882D01*
X0347685Y0266505D01*
X0347745Y0266129D01*
X0347813Y0265754D01*
X0347891Y0265382D01*
X0347978Y0265011D01*
X0348073Y0264643D01*
X0348178Y0264277D01*
X0348291Y0263914D01*
X0348413Y0263553D01*
X0348543Y0263196D01*
X0348683Y0262842D01*
X0348830Y0262491D01*
X0348987Y0262144D01*
X0349151Y0261801D01*
X0349324Y0261462D01*
X0349505Y0261127D01*
X0349694Y0260796D01*
X0349891Y0260471D01*
X0350095Y0260150D01*
X0350308Y0259834D01*
X0350528Y0259524D01*
X0350755Y0259218D01*
X0350990Y0258919D01*
X0351232Y0258625D01*
X0351480Y0258337D01*
X0351736Y0258055D01*
X0351999Y0257780D01*
X0352268Y0257511D01*
X0352543Y0257248D01*
X0352825Y0256992D01*
X0353113Y0256744D01*
X0353407Y0256502D01*
X0353706Y0256267D01*
X0354012Y0256040D01*
X0354322Y0255820D01*
X0354638Y0255607D01*
X0354959Y0255403D01*
X0355284Y0255206D01*
X0355615Y0255017D01*
X0355950Y0254836D01*
X0356289Y0254663D01*
X0356632Y0254499D01*
X0356979Y0254342D01*
X0357330Y0254195D01*
X0357684Y0254055D01*
X0358041Y0253925D01*
X0358402Y0253803D01*
X0358765Y0253690D01*
X0359131Y0253585D01*
X0359499Y0253490D01*
X0359870Y0253403D01*
X0360242Y0253325D01*
X0360617Y0253257D01*
X0360993Y0253197D01*
X0361370Y0253147D01*
X0361748Y0253106D01*
X0362127Y0253073D01*
X0362507Y0253050D01*
X0362887Y0253037D01*
X0363268Y0253032D01*
D11*
X0392638Y0417883D02*
X0392638Y0426133D01*
X0412638Y0426133D02*
X0412638Y0417883D01*
X0440906Y0417883D02*
X0440906Y0426133D01*
X0460906Y0426133D02*
X0460906Y0417883D01*
X0480906Y0417883D02*
X0480906Y0426133D01*
X0509409Y0426133D02*
X0509409Y0417883D01*
X0529409Y0417883D02*
X0529409Y0426133D01*
X0549409Y0426133D02*
X0549409Y0417883D01*
X0577913Y0417883D02*
X0577913Y0426133D01*
X0597913Y0426133D02*
X0597913Y0417883D01*
X0617913Y0417883D02*
X0617913Y0426133D01*
D12*
X0629429Y0379311D03*
X0629429Y0354311D03*
X0629429Y0329508D03*
X0629429Y0313366D03*
X0577461Y0313366D03*
X0577461Y0329508D03*
X0577461Y0354311D03*
X0577461Y0379311D03*
X0531004Y0379311D03*
X0531004Y0354311D03*
X0531004Y0329508D03*
X0531004Y0313366D03*
X0479035Y0313366D03*
X0479035Y0329508D03*
X0479035Y0354311D03*
X0479035Y0379311D03*
X0432579Y0379311D03*
X0432579Y0354311D03*
X0432579Y0329508D03*
X0432579Y0313366D03*
X0380610Y0313366D03*
X0380610Y0329508D03*
X0380610Y0354311D03*
X0380610Y0379311D03*
D13*
X0384764Y0275717D02*
X0384764Y0269717D01*
X0394764Y0269717D02*
X0394764Y0275717D01*
X0404764Y0275717D02*
X0404764Y0269717D01*
X0420197Y0269717D02*
X0420197Y0275717D01*
X0430197Y0275717D02*
X0430197Y0269717D01*
X0440197Y0269717D02*
X0440197Y0275717D01*
X0475315Y0275717D02*
X0475315Y0269717D01*
X0485315Y0269717D02*
X0485315Y0275717D01*
X0495315Y0275717D02*
X0495315Y0269717D01*
X0510748Y0269717D02*
X0510748Y0275717D01*
X0520748Y0275717D02*
X0520748Y0269717D01*
X0530748Y0269717D02*
X0530748Y0275717D01*
X0569803Y0275717D02*
X0569803Y0269717D01*
X0579803Y0269717D02*
X0579803Y0275717D01*
X0589803Y0275717D02*
X0589803Y0269717D01*
X0605236Y0269717D02*
X0605236Y0275717D01*
X0615236Y0275717D02*
X0615236Y0269717D01*
X0625236Y0269717D02*
X0625236Y0275717D01*
D14*
X0646732Y0268780D03*
X0646732Y0434134D03*
X0363268Y0434134D03*
X0363268Y0268780D03*
D15*
X0363268Y0288465D03*
X0363268Y0414449D03*
X0646732Y0414449D03*
X0646732Y0288465D03*
D16*
X0658543Y0292402D03*
X0623110Y0256969D03*
X0552244Y0256969D03*
X0493189Y0256969D03*
X0438071Y0256969D03*
X0382953Y0256969D03*
X0351457Y0288465D03*
X0351457Y0316024D03*
X0351457Y0363268D03*
X0351457Y0410512D03*
X0386890Y0445945D03*
X0445945Y0445945D03*
X0497126Y0445945D03*
X0560118Y0445945D03*
X0623110Y0445945D03*
X0658543Y0410512D03*
X0658543Y0386890D03*
X0658543Y0339646D03*
M02*
