G75*
%MOIN*%
%OFA0B0*%
%FSLAX25Y25*%
%IPPOS*%
%LPD*%
%AMOC8*
5,1,8,0,0,1.08239X$1,22.5*
%
%ADD10C,0.00000*%
%ADD11C,0.23622*%
%ADD12C,0.08250*%
%ADD13C,0.07677*%
%ADD14C,0.06000*%
%ADD15C,0.03200*%
D10*
X0359331Y0253031D02*
X0611299Y0253031D01*
X0611299Y0253032D02*
X0611584Y0253035D01*
X0611870Y0253046D01*
X0612155Y0253063D01*
X0612439Y0253087D01*
X0612723Y0253118D01*
X0613006Y0253156D01*
X0613287Y0253201D01*
X0613568Y0253252D01*
X0613848Y0253310D01*
X0614126Y0253375D01*
X0614402Y0253447D01*
X0614676Y0253525D01*
X0614949Y0253610D01*
X0615219Y0253702D01*
X0615487Y0253800D01*
X0615753Y0253904D01*
X0616016Y0254015D01*
X0616276Y0254132D01*
X0616534Y0254255D01*
X0616788Y0254385D01*
X0617039Y0254521D01*
X0617287Y0254662D01*
X0617531Y0254810D01*
X0617772Y0254963D01*
X0618008Y0255123D01*
X0618241Y0255288D01*
X0618470Y0255458D01*
X0618695Y0255634D01*
X0618915Y0255816D01*
X0619131Y0256002D01*
X0619342Y0256194D01*
X0619549Y0256391D01*
X0619751Y0256593D01*
X0619948Y0256800D01*
X0620140Y0257011D01*
X0620326Y0257227D01*
X0620508Y0257447D01*
X0620684Y0257672D01*
X0620854Y0257901D01*
X0621019Y0258134D01*
X0621179Y0258370D01*
X0621332Y0258611D01*
X0621480Y0258855D01*
X0621621Y0259103D01*
X0621757Y0259354D01*
X0621887Y0259608D01*
X0622010Y0259866D01*
X0622127Y0260126D01*
X0622238Y0260389D01*
X0622342Y0260655D01*
X0622440Y0260923D01*
X0622532Y0261193D01*
X0622617Y0261466D01*
X0622695Y0261740D01*
X0622767Y0262016D01*
X0622832Y0262294D01*
X0622890Y0262574D01*
X0622941Y0262855D01*
X0622986Y0263136D01*
X0623024Y0263419D01*
X0623055Y0263703D01*
X0623079Y0263987D01*
X0623096Y0264272D01*
X0623107Y0264558D01*
X0623110Y0264843D01*
X0623110Y0359331D01*
X0623107Y0359616D01*
X0623096Y0359902D01*
X0623079Y0360187D01*
X0623055Y0360471D01*
X0623024Y0360755D01*
X0622986Y0361038D01*
X0622941Y0361319D01*
X0622890Y0361600D01*
X0622832Y0361880D01*
X0622767Y0362158D01*
X0622695Y0362434D01*
X0622617Y0362708D01*
X0622532Y0362981D01*
X0622440Y0363251D01*
X0622342Y0363519D01*
X0622238Y0363785D01*
X0622127Y0364048D01*
X0622010Y0364308D01*
X0621887Y0364566D01*
X0621757Y0364820D01*
X0621621Y0365071D01*
X0621480Y0365319D01*
X0621332Y0365563D01*
X0621179Y0365804D01*
X0621019Y0366040D01*
X0620854Y0366273D01*
X0620684Y0366502D01*
X0620508Y0366727D01*
X0620326Y0366947D01*
X0620140Y0367163D01*
X0619948Y0367374D01*
X0619751Y0367581D01*
X0619549Y0367783D01*
X0619342Y0367980D01*
X0619131Y0368172D01*
X0618915Y0368358D01*
X0618695Y0368540D01*
X0618470Y0368716D01*
X0618241Y0368886D01*
X0618008Y0369051D01*
X0617772Y0369211D01*
X0617531Y0369364D01*
X0617287Y0369512D01*
X0617039Y0369653D01*
X0616788Y0369789D01*
X0616534Y0369919D01*
X0616276Y0370042D01*
X0616016Y0370159D01*
X0615753Y0370270D01*
X0615487Y0370374D01*
X0615219Y0370472D01*
X0614949Y0370564D01*
X0614676Y0370649D01*
X0614402Y0370727D01*
X0614126Y0370799D01*
X0613848Y0370864D01*
X0613568Y0370922D01*
X0613287Y0370973D01*
X0613006Y0371018D01*
X0612723Y0371056D01*
X0612439Y0371087D01*
X0612155Y0371111D01*
X0611870Y0371128D01*
X0611584Y0371139D01*
X0611299Y0371142D01*
X0359331Y0371142D01*
X0359046Y0371139D01*
X0358760Y0371128D01*
X0358475Y0371111D01*
X0358191Y0371087D01*
X0357907Y0371056D01*
X0357624Y0371018D01*
X0357343Y0370973D01*
X0357062Y0370922D01*
X0356782Y0370864D01*
X0356504Y0370799D01*
X0356228Y0370727D01*
X0355954Y0370649D01*
X0355681Y0370564D01*
X0355411Y0370472D01*
X0355143Y0370374D01*
X0354877Y0370270D01*
X0354614Y0370159D01*
X0354354Y0370042D01*
X0354096Y0369919D01*
X0353842Y0369789D01*
X0353591Y0369653D01*
X0353343Y0369512D01*
X0353099Y0369364D01*
X0352858Y0369211D01*
X0352622Y0369051D01*
X0352389Y0368886D01*
X0352160Y0368716D01*
X0351935Y0368540D01*
X0351715Y0368358D01*
X0351499Y0368172D01*
X0351288Y0367980D01*
X0351081Y0367783D01*
X0350879Y0367581D01*
X0350682Y0367374D01*
X0350490Y0367163D01*
X0350304Y0366947D01*
X0350122Y0366727D01*
X0349946Y0366502D01*
X0349776Y0366273D01*
X0349611Y0366040D01*
X0349451Y0365804D01*
X0349298Y0365563D01*
X0349150Y0365319D01*
X0349009Y0365071D01*
X0348873Y0364820D01*
X0348743Y0364566D01*
X0348620Y0364308D01*
X0348503Y0364048D01*
X0348392Y0363785D01*
X0348288Y0363519D01*
X0348190Y0363251D01*
X0348098Y0362981D01*
X0348013Y0362708D01*
X0347935Y0362434D01*
X0347863Y0362158D01*
X0347798Y0361880D01*
X0347740Y0361600D01*
X0347689Y0361319D01*
X0347644Y0361038D01*
X0347606Y0360755D01*
X0347575Y0360471D01*
X0347551Y0360187D01*
X0347534Y0359902D01*
X0347523Y0359616D01*
X0347520Y0359331D01*
X0347520Y0264843D01*
X0347523Y0264558D01*
X0347534Y0264272D01*
X0347551Y0263987D01*
X0347575Y0263703D01*
X0347606Y0263419D01*
X0347644Y0263136D01*
X0347689Y0262855D01*
X0347740Y0262574D01*
X0347798Y0262294D01*
X0347863Y0262016D01*
X0347935Y0261740D01*
X0348013Y0261466D01*
X0348098Y0261193D01*
X0348190Y0260923D01*
X0348288Y0260655D01*
X0348392Y0260389D01*
X0348503Y0260126D01*
X0348620Y0259866D01*
X0348743Y0259608D01*
X0348873Y0259354D01*
X0349009Y0259103D01*
X0349150Y0258855D01*
X0349298Y0258611D01*
X0349451Y0258370D01*
X0349611Y0258134D01*
X0349776Y0257901D01*
X0349946Y0257672D01*
X0350122Y0257447D01*
X0350304Y0257227D01*
X0350490Y0257011D01*
X0350682Y0256800D01*
X0350879Y0256593D01*
X0351081Y0256391D01*
X0351288Y0256194D01*
X0351499Y0256002D01*
X0351715Y0255816D01*
X0351935Y0255634D01*
X0352160Y0255458D01*
X0352389Y0255288D01*
X0352622Y0255123D01*
X0352858Y0254963D01*
X0353099Y0254810D01*
X0353343Y0254662D01*
X0353591Y0254521D01*
X0353842Y0254385D01*
X0354096Y0254255D01*
X0354354Y0254132D01*
X0354614Y0254015D01*
X0354877Y0253904D01*
X0355143Y0253800D01*
X0355411Y0253702D01*
X0355681Y0253610D01*
X0355954Y0253525D01*
X0356228Y0253447D01*
X0356504Y0253375D01*
X0356782Y0253310D01*
X0357062Y0253252D01*
X0357343Y0253201D01*
X0357624Y0253156D01*
X0357907Y0253118D01*
X0358191Y0253087D01*
X0358475Y0253063D01*
X0358760Y0253046D01*
X0359046Y0253035D01*
X0359331Y0253032D01*
D11*
X0406575Y0312087D03*
X0564055Y0312087D03*
D12*
X0379519Y0308465D02*
X0371269Y0308465D01*
X0371269Y0288465D02*
X0379519Y0288465D01*
X0379519Y0268465D02*
X0371269Y0268465D01*
X0371269Y0336339D02*
X0379519Y0336339D01*
X0379519Y0356339D02*
X0371269Y0356339D01*
D13*
X0453524Y0338091D03*
X0478524Y0338091D03*
X0503327Y0338091D03*
X0519469Y0338091D03*
X0519469Y0286122D03*
X0503327Y0286122D03*
X0478524Y0286122D03*
X0453524Y0286122D03*
D14*
X0600425Y0286339D02*
X0606425Y0286339D01*
X0606425Y0296339D02*
X0600425Y0296339D01*
X0600425Y0306339D02*
X0606425Y0306339D01*
X0606425Y0317835D02*
X0600425Y0317835D01*
X0600425Y0327835D02*
X0606425Y0327835D01*
X0606425Y0337835D02*
X0600425Y0337835D01*
D15*
X0603425Y0337835D02*
X0589488Y0337835D01*
X0575866Y0351457D01*
X0516693Y0351457D01*
X0503327Y0338091D01*
X0498438Y0342590D02*
X0483130Y0342590D01*
X0483375Y0342345D02*
X0482778Y0342942D01*
X0482108Y0343456D01*
X0481377Y0343878D01*
X0480598Y0344201D01*
X0479782Y0344419D01*
X0478946Y0344529D01*
X0478524Y0344529D01*
X0478524Y0338091D01*
X0478524Y0338091D01*
X0484962Y0338091D01*
X0484962Y0338513D01*
X0484852Y0339349D01*
X0484634Y0340165D01*
X0484311Y0340944D01*
X0483889Y0341675D01*
X0483375Y0342345D01*
X0484841Y0339391D02*
X0496688Y0339391D01*
X0496688Y0339411D02*
X0496688Y0336770D01*
X0497699Y0334330D01*
X0499566Y0332463D01*
X0502006Y0331452D01*
X0504647Y0331452D01*
X0507087Y0332463D01*
X0508955Y0334330D01*
X0509965Y0336770D01*
X0509965Y0338507D01*
X0518515Y0347057D01*
X0574044Y0347057D01*
X0585758Y0335342D01*
X0586996Y0334105D01*
X0588613Y0333435D01*
X0596623Y0333435D01*
X0597140Y0332918D01*
X0597340Y0332835D01*
X0597140Y0332752D01*
X0596623Y0332235D01*
X0581626Y0332235D01*
X0573277Y0340583D01*
X0572040Y0341821D01*
X0570422Y0342491D01*
X0524457Y0342491D01*
X0523229Y0343718D01*
X0520789Y0344729D01*
X0518148Y0344729D01*
X0515708Y0343718D01*
X0513841Y0341851D01*
X0512830Y0339411D01*
X0512830Y0336770D01*
X0513841Y0334330D01*
X0515708Y0332463D01*
X0518148Y0331452D01*
X0520789Y0331452D01*
X0523229Y0332463D01*
X0524457Y0333691D01*
X0567725Y0333691D01*
X0576073Y0325342D01*
X0577311Y0324105D01*
X0578928Y0323435D01*
X0596623Y0323435D01*
X0597140Y0322918D01*
X0597340Y0322835D01*
X0597140Y0322752D01*
X0595508Y0321120D01*
X0594625Y0318988D01*
X0594625Y0316681D01*
X0595508Y0314549D01*
X0597140Y0312918D01*
X0599146Y0312087D01*
X0597140Y0311256D01*
X0596623Y0310739D01*
X0584991Y0310739D01*
X0583374Y0310069D01*
X0574044Y0300739D01*
X0573370Y0300739D01*
X0575747Y0303115D01*
X0577670Y0306447D01*
X0578666Y0310163D01*
X0578666Y0314010D01*
X0577670Y0317726D01*
X0575747Y0321058D01*
X0573026Y0323778D01*
X0569695Y0325702D01*
X0565979Y0326698D01*
X0562132Y0326698D01*
X0558415Y0325702D01*
X0555084Y0323778D01*
X0552363Y0321058D01*
X0550440Y0317726D01*
X0549444Y0314010D01*
X0549444Y0310163D01*
X0550440Y0306447D01*
X0552363Y0303115D01*
X0554740Y0300739D01*
X0554067Y0300739D01*
X0552037Y0302768D01*
X0550799Y0304006D01*
X0549182Y0304676D01*
X0516605Y0304676D01*
X0514988Y0304006D01*
X0503743Y0292761D01*
X0502006Y0292761D01*
X0499566Y0291750D01*
X0497699Y0289882D01*
X0496688Y0287443D01*
X0496688Y0284802D01*
X0497699Y0282362D01*
X0499566Y0280494D01*
X0502006Y0279483D01*
X0504647Y0279483D01*
X0507087Y0280494D01*
X0508955Y0282362D01*
X0509965Y0284802D01*
X0509965Y0286538D01*
X0519303Y0295876D01*
X0546485Y0295876D01*
X0549752Y0292608D01*
X0551369Y0291939D01*
X0576741Y0291939D01*
X0578359Y0292608D01*
X0579596Y0293846D01*
X0587689Y0301939D01*
X0596623Y0301939D01*
X0597140Y0301422D01*
X0597340Y0301339D01*
X0597140Y0301256D01*
X0596623Y0300739D01*
X0590739Y0300739D01*
X0589122Y0300069D01*
X0587884Y0298831D01*
X0579575Y0290522D01*
X0524457Y0290522D01*
X0523229Y0291750D01*
X0520789Y0292761D01*
X0518148Y0292761D01*
X0515708Y0291750D01*
X0513841Y0289882D01*
X0512830Y0287443D01*
X0512830Y0284802D01*
X0513841Y0282362D01*
X0515708Y0280494D01*
X0518148Y0279483D01*
X0520789Y0279483D01*
X0523229Y0280494D01*
X0524457Y0281722D01*
X0582273Y0281722D01*
X0583890Y0282392D01*
X0585128Y0283630D01*
X0593437Y0291939D01*
X0596623Y0291939D01*
X0597140Y0291422D01*
X0597340Y0291339D01*
X0597140Y0291256D01*
X0595508Y0289624D01*
X0594625Y0287492D01*
X0594625Y0285185D01*
X0595508Y0283053D01*
X0597140Y0281422D01*
X0599271Y0280539D01*
X0607579Y0280539D01*
X0609711Y0281422D01*
X0611342Y0283053D01*
X0612225Y0285185D01*
X0612225Y0287492D01*
X0611342Y0289624D01*
X0609711Y0291256D01*
X0609510Y0291339D01*
X0609711Y0291422D01*
X0611342Y0293053D01*
X0612225Y0295185D01*
X0612225Y0297492D01*
X0611342Y0299624D01*
X0609711Y0301256D01*
X0609510Y0301339D01*
X0609711Y0301422D01*
X0611342Y0303053D01*
X0612225Y0305185D01*
X0612225Y0307492D01*
X0611342Y0309624D01*
X0609711Y0311256D01*
X0607704Y0312087D01*
X0609711Y0312918D01*
X0611342Y0314549D01*
X0612225Y0316681D01*
X0612225Y0318988D01*
X0611342Y0321120D01*
X0609711Y0322752D01*
X0609510Y0322835D01*
X0609711Y0322918D01*
X0611342Y0324549D01*
X0612225Y0326681D01*
X0612225Y0328988D01*
X0611342Y0331120D01*
X0609711Y0332752D01*
X0609510Y0332835D01*
X0609711Y0332918D01*
X0611342Y0334549D01*
X0612225Y0336681D01*
X0612225Y0338988D01*
X0611342Y0341120D01*
X0609711Y0342752D01*
X0607579Y0343635D01*
X0599271Y0343635D01*
X0597140Y0342752D01*
X0596623Y0342235D01*
X0591311Y0342235D01*
X0578359Y0355187D01*
X0576741Y0355857D01*
X0515818Y0355857D01*
X0514201Y0355187D01*
X0503743Y0344729D01*
X0502006Y0344729D01*
X0499566Y0343718D01*
X0497699Y0341851D01*
X0496688Y0339411D01*
X0496927Y0336193D02*
X0484681Y0336193D01*
X0484634Y0336016D02*
X0484852Y0336832D01*
X0484962Y0337669D01*
X0484962Y0338090D01*
X0478524Y0338090D01*
X0478524Y0331652D01*
X0478946Y0331652D01*
X0479782Y0331762D01*
X0480598Y0331981D01*
X0481377Y0332304D01*
X0482108Y0332726D01*
X0482778Y0333239D01*
X0483375Y0333836D01*
X0483889Y0334506D01*
X0484311Y0335237D01*
X0484634Y0336016D01*
X0482459Y0332994D02*
X0499035Y0332994D01*
X0507619Y0332994D02*
X0515176Y0332994D01*
X0513069Y0336193D02*
X0509726Y0336193D01*
X0510850Y0339391D02*
X0512830Y0339391D01*
X0514049Y0342590D02*
X0514579Y0342590D01*
X0517247Y0345788D02*
X0575312Y0345788D01*
X0578510Y0342590D02*
X0524358Y0342590D01*
X0519469Y0338091D02*
X0569547Y0338091D01*
X0579803Y0327835D01*
X0603425Y0327835D01*
X0596659Y0323399D02*
X0573406Y0323399D01*
X0574818Y0326597D02*
X0566353Y0326597D01*
X0561757Y0326597D02*
X0439119Y0326597D01*
X0438534Y0326012D02*
X0446212Y0333691D01*
X0448535Y0333691D01*
X0449763Y0332463D01*
X0452203Y0331452D01*
X0454844Y0331452D01*
X0457284Y0332463D01*
X0459152Y0334330D01*
X0460162Y0336770D01*
X0460162Y0339411D01*
X0459152Y0341851D01*
X0457284Y0343718D01*
X0454844Y0344729D01*
X0452203Y0344729D01*
X0449763Y0343718D01*
X0448535Y0342491D01*
X0443515Y0342491D01*
X0441897Y0341821D01*
X0440660Y0340583D01*
X0430404Y0330327D01*
X0429734Y0328710D01*
X0429734Y0298161D01*
X0424437Y0292865D01*
X0384912Y0292865D01*
X0383441Y0294335D01*
X0380896Y0295390D01*
X0369891Y0295390D01*
X0367346Y0294335D01*
X0365398Y0292387D01*
X0364344Y0289842D01*
X0364344Y0287087D01*
X0365398Y0284542D01*
X0367346Y0282594D01*
X0369891Y0281540D01*
X0380896Y0281540D01*
X0383441Y0282594D01*
X0384912Y0284065D01*
X0427135Y0284065D01*
X0428752Y0284734D01*
X0436626Y0292608D01*
X0437864Y0293846D01*
X0438534Y0295463D01*
X0438534Y0326012D01*
X0438534Y0323399D02*
X0554704Y0323399D01*
X0551868Y0320200D02*
X0438534Y0320200D01*
X0438534Y0317002D02*
X0550246Y0317002D01*
X0549444Y0313803D02*
X0438534Y0313803D01*
X0438534Y0310605D02*
X0549444Y0310605D01*
X0550183Y0307406D02*
X0438534Y0307406D01*
X0438534Y0304208D02*
X0515475Y0304208D01*
X0517480Y0300276D02*
X0503327Y0286122D01*
X0497008Y0288215D02*
X0484626Y0288215D01*
X0484634Y0288196D02*
X0484311Y0288976D01*
X0483889Y0289707D01*
X0483375Y0290376D01*
X0482778Y0290973D01*
X0482108Y0291487D01*
X0481377Y0291909D01*
X0480598Y0292232D01*
X0479782Y0292450D01*
X0478946Y0292561D01*
X0478524Y0292561D01*
X0478524Y0286122D01*
X0478524Y0286122D01*
X0484962Y0286122D01*
X0484962Y0285700D01*
X0484852Y0284863D01*
X0484634Y0284048D01*
X0484311Y0283268D01*
X0483889Y0282537D01*
X0483375Y0281868D01*
X0482778Y0281271D01*
X0482108Y0280757D01*
X0481377Y0280335D01*
X0480598Y0280012D01*
X0479782Y0279794D01*
X0478946Y0279683D01*
X0478524Y0279683D01*
X0478524Y0286122D01*
X0484962Y0286122D01*
X0484962Y0286544D01*
X0484852Y0287381D01*
X0484634Y0288196D01*
X0484872Y0285017D02*
X0496688Y0285017D01*
X0498242Y0281818D02*
X0483325Y0281818D01*
X0478524Y0281818D02*
X0478524Y0281818D01*
X0478524Y0279683D02*
X0478524Y0286122D01*
X0478524Y0286122D01*
X0478524Y0286122D01*
X0478524Y0292561D01*
X0478102Y0292561D01*
X0477265Y0292450D01*
X0476450Y0292232D01*
X0475670Y0291909D01*
X0474939Y0291487D01*
X0474269Y0290973D01*
X0473672Y0290376D01*
X0473159Y0289707D01*
X0472737Y0288976D01*
X0472414Y0288196D01*
X0472195Y0287381D01*
X0472085Y0286544D01*
X0472085Y0286122D01*
X0472085Y0285700D01*
X0472195Y0284863D01*
X0472414Y0284048D01*
X0472737Y0283268D01*
X0473159Y0282537D01*
X0473672Y0281868D01*
X0474269Y0281271D01*
X0474939Y0280757D01*
X0475670Y0280335D01*
X0476450Y0280012D01*
X0477265Y0279794D01*
X0478102Y0279683D01*
X0478524Y0279683D01*
X0473722Y0281818D02*
X0458608Y0281818D01*
X0459152Y0282362D02*
X0460162Y0284802D01*
X0460162Y0287443D01*
X0459152Y0289882D01*
X0457284Y0291750D01*
X0454844Y0292761D01*
X0452203Y0292761D01*
X0449763Y0291750D01*
X0447896Y0289882D01*
X0446885Y0287443D01*
X0446885Y0284802D01*
X0447896Y0282362D01*
X0449763Y0280494D01*
X0452203Y0279483D01*
X0454844Y0279483D01*
X0457284Y0280494D01*
X0459152Y0282362D01*
X0460162Y0285017D02*
X0472175Y0285017D01*
X0472085Y0286122D02*
X0478523Y0286122D01*
X0478523Y0286122D01*
X0472085Y0286122D01*
X0472422Y0288215D02*
X0459842Y0288215D01*
X0457620Y0291414D02*
X0474843Y0291414D01*
X0478524Y0291414D02*
X0478524Y0291414D01*
X0478524Y0288215D02*
X0478524Y0288215D01*
X0478524Y0285017D02*
X0478524Y0285017D01*
X0482204Y0291414D02*
X0499230Y0291414D01*
X0505594Y0294612D02*
X0438181Y0294612D01*
X0438534Y0297811D02*
X0508793Y0297811D01*
X0511991Y0301009D02*
X0438534Y0301009D01*
X0434134Y0296339D02*
X0434134Y0327835D01*
X0444390Y0338091D01*
X0453524Y0338091D01*
X0458413Y0342590D02*
X0473917Y0342590D01*
X0473672Y0342345D02*
X0473159Y0341675D01*
X0472737Y0340944D01*
X0472414Y0340165D01*
X0472195Y0339349D01*
X0472085Y0338513D01*
X0472085Y0338091D01*
X0478523Y0338091D01*
X0478523Y0338090D01*
X0472085Y0338090D01*
X0472085Y0337669D01*
X0472195Y0336832D01*
X0472414Y0336016D01*
X0472737Y0335237D01*
X0473159Y0334506D01*
X0473672Y0333836D01*
X0474269Y0333239D01*
X0474939Y0332726D01*
X0475670Y0332304D01*
X0476450Y0331981D01*
X0477265Y0331762D01*
X0478102Y0331652D01*
X0478524Y0331652D01*
X0478524Y0338090D01*
X0478524Y0338090D01*
X0478524Y0338091D01*
X0478524Y0344529D01*
X0478102Y0344529D01*
X0477265Y0344419D01*
X0476450Y0344201D01*
X0475670Y0343878D01*
X0474939Y0343456D01*
X0474269Y0342942D01*
X0473672Y0342345D01*
X0472206Y0339391D02*
X0460162Y0339391D01*
X0459923Y0336193D02*
X0472366Y0336193D01*
X0474589Y0332994D02*
X0457816Y0332994D01*
X0449232Y0332994D02*
X0445516Y0332994D01*
X0442318Y0329796D02*
X0571619Y0329796D01*
X0568421Y0332994D02*
X0523761Y0332994D01*
X0504802Y0345788D02*
X0353120Y0345788D01*
X0353120Y0342590D02*
X0368265Y0342590D01*
X0367346Y0342209D02*
X0365398Y0340261D01*
X0364344Y0337716D01*
X0364344Y0334961D01*
X0365398Y0332416D01*
X0367346Y0330468D01*
X0369891Y0329414D01*
X0380896Y0329414D01*
X0383441Y0330468D01*
X0385389Y0332416D01*
X0386444Y0334961D01*
X0386444Y0337716D01*
X0385389Y0340261D01*
X0383441Y0342209D01*
X0380896Y0343264D01*
X0369891Y0343264D01*
X0367346Y0342209D01*
X0365038Y0339391D02*
X0353120Y0339391D01*
X0353120Y0336193D02*
X0364344Y0336193D01*
X0365158Y0332994D02*
X0353120Y0332994D01*
X0353120Y0329796D02*
X0368969Y0329796D01*
X0381819Y0329796D02*
X0430184Y0329796D01*
X0429734Y0326597D02*
X0408873Y0326597D01*
X0408498Y0326698D02*
X0404651Y0326698D01*
X0400935Y0325702D01*
X0397603Y0323778D01*
X0394883Y0321058D01*
X0392959Y0317726D01*
X0391964Y0314010D01*
X0391964Y0310163D01*
X0392959Y0306447D01*
X0394883Y0303115D01*
X0397603Y0300395D01*
X0400935Y0298471D01*
X0404651Y0297476D01*
X0408498Y0297476D01*
X0412214Y0298471D01*
X0415546Y0300395D01*
X0418267Y0303115D01*
X0420190Y0306447D01*
X0421186Y0310163D01*
X0421186Y0314010D01*
X0420190Y0317726D01*
X0418267Y0321058D01*
X0415546Y0323778D01*
X0412214Y0325702D01*
X0408498Y0326698D01*
X0404277Y0326597D02*
X0353120Y0326597D01*
X0353120Y0323399D02*
X0397224Y0323399D01*
X0394388Y0320200D02*
X0353120Y0320200D01*
X0353120Y0317002D02*
X0392765Y0317002D01*
X0391964Y0313803D02*
X0383608Y0313803D01*
X0383263Y0314068D02*
X0382499Y0314509D01*
X0381685Y0314846D01*
X0380834Y0315074D01*
X0379959Y0315190D01*
X0375394Y0315190D01*
X0375394Y0308465D01*
X0375394Y0308465D01*
X0386244Y0308465D01*
X0386244Y0308905D01*
X0386129Y0309779D01*
X0385900Y0310631D01*
X0385563Y0311445D01*
X0385122Y0312209D01*
X0384586Y0312908D01*
X0383962Y0313532D01*
X0383263Y0314068D01*
X0385907Y0310605D02*
X0391964Y0310605D01*
X0392702Y0307406D02*
X0386162Y0307406D01*
X0386129Y0307150D02*
X0386244Y0308024D01*
X0386244Y0308464D01*
X0375394Y0308464D01*
X0375394Y0301740D01*
X0379959Y0301740D01*
X0380834Y0301855D01*
X0381685Y0302083D01*
X0382499Y0302420D01*
X0383263Y0302861D01*
X0383962Y0303398D01*
X0384586Y0304021D01*
X0385122Y0304720D01*
X0385563Y0305484D01*
X0385900Y0306298D01*
X0386129Y0307150D01*
X0384729Y0304208D02*
X0394252Y0304208D01*
X0396989Y0301009D02*
X0353120Y0301009D01*
X0353120Y0297811D02*
X0403401Y0297811D01*
X0409749Y0297811D02*
X0429383Y0297811D01*
X0429734Y0301009D02*
X0416160Y0301009D01*
X0418897Y0304208D02*
X0429734Y0304208D01*
X0429734Y0307406D02*
X0420447Y0307406D01*
X0421186Y0310605D02*
X0429734Y0310605D01*
X0429734Y0313803D02*
X0421186Y0313803D01*
X0420384Y0317002D02*
X0429734Y0317002D01*
X0429734Y0320200D02*
X0418762Y0320200D01*
X0415926Y0323399D02*
X0429734Y0323399D01*
X0433071Y0332994D02*
X0385629Y0332994D01*
X0386444Y0336193D02*
X0436269Y0336193D01*
X0439468Y0339391D02*
X0385750Y0339391D01*
X0382523Y0342590D02*
X0448635Y0342590D01*
X0478524Y0342590D02*
X0478524Y0342590D01*
X0478524Y0339391D02*
X0478524Y0339391D01*
X0478524Y0336193D02*
X0478524Y0336193D01*
X0478524Y0332994D02*
X0478524Y0332994D01*
X0508001Y0348987D02*
X0353120Y0348987D01*
X0353120Y0352185D02*
X0365979Y0352185D01*
X0366202Y0351895D02*
X0366825Y0351272D01*
X0367524Y0350735D01*
X0368288Y0350294D01*
X0369102Y0349957D01*
X0369954Y0349729D01*
X0370828Y0349614D01*
X0375394Y0349614D01*
X0379959Y0349614D01*
X0380834Y0349729D01*
X0381685Y0349957D01*
X0382499Y0350294D01*
X0383263Y0350735D01*
X0383962Y0351272D01*
X0384586Y0351895D01*
X0385122Y0352594D01*
X0385563Y0353358D01*
X0385900Y0354172D01*
X0386129Y0355024D01*
X0386244Y0355898D01*
X0386244Y0356339D01*
X0386244Y0356779D01*
X0386129Y0357653D01*
X0385900Y0358505D01*
X0385563Y0359319D01*
X0385122Y0360083D01*
X0384586Y0360782D01*
X0383962Y0361406D01*
X0383263Y0361942D01*
X0382499Y0362383D01*
X0381685Y0362720D01*
X0380834Y0362948D01*
X0379959Y0363064D01*
X0375394Y0363064D01*
X0375394Y0356339D01*
X0375394Y0356339D01*
X0386244Y0356339D01*
X0375394Y0356339D01*
X0375394Y0356339D01*
X0375394Y0363064D01*
X0370828Y0363064D01*
X0369954Y0362948D01*
X0369102Y0362720D01*
X0368288Y0362383D01*
X0367524Y0361942D01*
X0366825Y0361406D01*
X0366202Y0360782D01*
X0365665Y0360083D01*
X0365224Y0359319D01*
X0364887Y0358505D01*
X0364659Y0357653D01*
X0364544Y0356779D01*
X0364544Y0356339D01*
X0375394Y0356339D01*
X0375394Y0356339D01*
X0375394Y0356338D02*
X0375394Y0349614D01*
X0375394Y0356338D01*
X0375394Y0356338D01*
X0375394Y0356339D02*
X0364544Y0356339D01*
X0364544Y0355898D01*
X0364659Y0355024D01*
X0364887Y0354172D01*
X0365224Y0353358D01*
X0365665Y0352594D01*
X0366202Y0351895D01*
X0364611Y0355384D02*
X0353120Y0355384D01*
X0353120Y0358582D02*
X0364919Y0358582D01*
X0367314Y0361781D02*
X0353635Y0361781D01*
X0353592Y0361708D02*
X0354403Y0363112D01*
X0355550Y0364258D01*
X0356954Y0365069D01*
X0358520Y0365489D01*
X0359331Y0365542D01*
X0611299Y0365542D01*
X0612110Y0365489D01*
X0613676Y0365069D01*
X0615080Y0364258D01*
X0616227Y0363112D01*
X0617037Y0361708D01*
X0617457Y0360141D01*
X0617510Y0359331D01*
X0617510Y0264842D01*
X0617457Y0264032D01*
X0617037Y0262466D01*
X0616227Y0261061D01*
X0615080Y0259915D01*
X0613676Y0259104D01*
X0612110Y0258685D01*
X0611299Y0258631D01*
X0359331Y0258631D01*
X0358520Y0258685D01*
X0356954Y0259104D01*
X0355550Y0259915D01*
X0354403Y0261061D01*
X0353592Y0262466D01*
X0353173Y0264032D01*
X0353120Y0264843D01*
X0353120Y0359331D01*
X0353173Y0360141D01*
X0353592Y0361708D01*
X0353592Y0361708D01*
X0356799Y0364979D02*
X0613831Y0364979D01*
X0616995Y0361781D02*
X0383473Y0361781D01*
X0385868Y0358582D02*
X0617510Y0358582D01*
X0617510Y0355384D02*
X0577883Y0355384D01*
X0581360Y0352185D02*
X0617510Y0352185D01*
X0617510Y0348987D02*
X0584559Y0348987D01*
X0587757Y0345788D02*
X0617510Y0345788D01*
X0617510Y0342590D02*
X0609872Y0342590D01*
X0612058Y0339391D02*
X0617510Y0339391D01*
X0617510Y0336193D02*
X0612023Y0336193D01*
X0609787Y0332994D02*
X0617510Y0332994D01*
X0617510Y0329796D02*
X0611891Y0329796D01*
X0612191Y0326597D02*
X0617510Y0326597D01*
X0617510Y0323399D02*
X0610192Y0323399D01*
X0611723Y0320200D02*
X0617510Y0320200D01*
X0617510Y0317002D02*
X0612225Y0317002D01*
X0610596Y0313803D02*
X0617510Y0313803D01*
X0617510Y0310605D02*
X0610362Y0310605D01*
X0612225Y0307406D02*
X0617510Y0307406D01*
X0617510Y0304208D02*
X0611820Y0304208D01*
X0609957Y0301009D02*
X0617510Y0301009D01*
X0617510Y0297811D02*
X0612093Y0297811D01*
X0611988Y0294612D02*
X0617510Y0294612D01*
X0617510Y0291414D02*
X0609691Y0291414D01*
X0611926Y0288215D02*
X0617510Y0288215D01*
X0617510Y0285017D02*
X0612155Y0285017D01*
X0610107Y0281818D02*
X0617510Y0281818D01*
X0617510Y0278620D02*
X0353120Y0278620D01*
X0353120Y0281818D02*
X0369219Y0281818D01*
X0365201Y0285017D02*
X0353120Y0285017D01*
X0353120Y0288215D02*
X0364344Y0288215D01*
X0364995Y0291414D02*
X0353120Y0291414D01*
X0353120Y0294612D02*
X0368014Y0294612D01*
X0369954Y0301855D02*
X0370828Y0301740D01*
X0375394Y0301740D01*
X0375394Y0308464D01*
X0375394Y0308464D01*
X0375394Y0308465D01*
X0375394Y0315190D01*
X0370828Y0315190D01*
X0369954Y0315074D01*
X0369102Y0314846D01*
X0368288Y0314509D01*
X0367524Y0314068D01*
X0366825Y0313532D01*
X0366202Y0312908D01*
X0365665Y0312209D01*
X0365224Y0311445D01*
X0364887Y0310631D01*
X0364659Y0309779D01*
X0364544Y0308905D01*
X0364544Y0308465D01*
X0375394Y0308465D01*
X0375394Y0308464D01*
X0364544Y0308464D01*
X0364544Y0308024D01*
X0364659Y0307150D01*
X0364887Y0306298D01*
X0365224Y0305484D01*
X0365665Y0304720D01*
X0366202Y0304021D01*
X0366825Y0303398D01*
X0367524Y0302861D01*
X0368288Y0302420D01*
X0369102Y0302083D01*
X0369954Y0301855D01*
X0366058Y0304208D02*
X0353120Y0304208D01*
X0353120Y0307406D02*
X0364625Y0307406D01*
X0364880Y0310605D02*
X0353120Y0310605D01*
X0353120Y0313803D02*
X0367179Y0313803D01*
X0375394Y0313803D02*
X0375394Y0313803D01*
X0375394Y0310605D02*
X0375394Y0310605D01*
X0375394Y0307406D02*
X0375394Y0307406D01*
X0375394Y0304208D02*
X0375394Y0304208D01*
X0382773Y0294612D02*
X0426185Y0294612D01*
X0426260Y0288465D02*
X0434134Y0296339D01*
X0435431Y0291414D02*
X0449427Y0291414D01*
X0447205Y0288215D02*
X0432233Y0288215D01*
X0429034Y0285017D02*
X0446885Y0285017D01*
X0448439Y0281818D02*
X0381569Y0281818D01*
X0380896Y0275390D02*
X0369891Y0275390D01*
X0367346Y0274335D01*
X0365398Y0272387D01*
X0364344Y0269842D01*
X0364344Y0267087D01*
X0365398Y0264542D01*
X0367346Y0262594D01*
X0369891Y0261540D01*
X0380896Y0261540D01*
X0383441Y0262594D01*
X0385389Y0264542D01*
X0386444Y0267087D01*
X0386444Y0269842D01*
X0385389Y0272387D01*
X0383441Y0274335D01*
X0380896Y0275390D01*
X0385458Y0272223D02*
X0617510Y0272223D01*
X0617510Y0275421D02*
X0353120Y0275421D01*
X0353120Y0272223D02*
X0365330Y0272223D01*
X0364344Y0269024D02*
X0353120Y0269024D01*
X0353120Y0265826D02*
X0364866Y0265826D01*
X0367313Y0262627D02*
X0353549Y0262627D01*
X0356392Y0259429D02*
X0614238Y0259429D01*
X0617081Y0262627D02*
X0383475Y0262627D01*
X0385921Y0265826D02*
X0617510Y0265826D01*
X0617510Y0269024D02*
X0386444Y0269024D01*
X0375394Y0288465D02*
X0426260Y0288465D01*
X0508411Y0281818D02*
X0514384Y0281818D01*
X0512830Y0285017D02*
X0509965Y0285017D01*
X0511642Y0288215D02*
X0513150Y0288215D01*
X0514841Y0291414D02*
X0515372Y0291414D01*
X0518039Y0294612D02*
X0547748Y0294612D01*
X0552244Y0296339D02*
X0548307Y0300276D01*
X0517480Y0300276D01*
X0523565Y0291414D02*
X0580467Y0291414D01*
X0580362Y0294612D02*
X0583665Y0294612D01*
X0583561Y0297811D02*
X0586864Y0297811D01*
X0586759Y0301009D02*
X0596893Y0301009D01*
X0591614Y0296339D02*
X0603425Y0296339D01*
X0597159Y0291414D02*
X0592912Y0291414D01*
X0594925Y0288215D02*
X0589713Y0288215D01*
X0586515Y0285017D02*
X0594695Y0285017D01*
X0596743Y0281818D02*
X0582505Y0281818D01*
X0581398Y0286122D02*
X0519469Y0286122D01*
X0552244Y0296339D02*
X0575866Y0296339D01*
X0585866Y0306339D01*
X0603425Y0306339D01*
X0596254Y0313803D02*
X0578666Y0313803D01*
X0578666Y0310605D02*
X0584668Y0310605D01*
X0580711Y0307406D02*
X0577927Y0307406D01*
X0577513Y0304208D02*
X0576378Y0304208D01*
X0574314Y0301009D02*
X0573641Y0301009D01*
X0577865Y0317002D02*
X0594625Y0317002D01*
X0595127Y0320200D02*
X0576242Y0320200D01*
X0580866Y0332994D02*
X0597063Y0332994D01*
X0584907Y0336193D02*
X0577668Y0336193D01*
X0574469Y0339391D02*
X0581709Y0339391D01*
X0590956Y0342590D02*
X0596978Y0342590D01*
X0551733Y0304208D02*
X0550312Y0304208D01*
X0553796Y0301009D02*
X0554469Y0301009D01*
X0581398Y0286122D02*
X0591614Y0296339D01*
X0514676Y0355384D02*
X0386176Y0355384D01*
X0384808Y0352185D02*
X0511199Y0352185D01*
X0375394Y0352185D02*
X0375394Y0352185D01*
X0375394Y0355384D02*
X0375394Y0355384D01*
X0375394Y0358582D02*
X0375394Y0358582D01*
X0375394Y0361781D02*
X0375394Y0361781D01*
M02*
