G75*
%MOIN*%
%OFA0B0*%
%FSLAX25Y25*%
%IPPOS*%
%LPD*%
%AMOC8*
5,1,8,0,0,1.08239X$1,22.5*
%
%ADD10C,0.00000*%
%ADD11C,0.08250*%
%ADD12C,0.07677*%
%ADD13C,0.23622*%
%ADD14C,0.03937*%
%ADD15C,0.06000*%
%ADD16C,0.03200*%
%ADD17C,0.05906*%
D10*
X0363268Y0253031D02*
X0646732Y0253031D01*
X0646732Y0253032D02*
X0647113Y0253037D01*
X0647493Y0253050D01*
X0647873Y0253073D01*
X0648252Y0253106D01*
X0648630Y0253147D01*
X0649007Y0253197D01*
X0649383Y0253257D01*
X0649758Y0253325D01*
X0650130Y0253403D01*
X0650501Y0253490D01*
X0650869Y0253585D01*
X0651235Y0253690D01*
X0651598Y0253803D01*
X0651959Y0253925D01*
X0652316Y0254055D01*
X0652670Y0254195D01*
X0653021Y0254342D01*
X0653368Y0254499D01*
X0653711Y0254663D01*
X0654050Y0254836D01*
X0654385Y0255017D01*
X0654716Y0255206D01*
X0655041Y0255403D01*
X0655362Y0255607D01*
X0655678Y0255820D01*
X0655988Y0256040D01*
X0656294Y0256267D01*
X0656593Y0256502D01*
X0656887Y0256744D01*
X0657175Y0256992D01*
X0657457Y0257248D01*
X0657732Y0257511D01*
X0658001Y0257780D01*
X0658264Y0258055D01*
X0658520Y0258337D01*
X0658768Y0258625D01*
X0659010Y0258919D01*
X0659245Y0259218D01*
X0659472Y0259524D01*
X0659692Y0259834D01*
X0659905Y0260150D01*
X0660109Y0260471D01*
X0660306Y0260796D01*
X0660495Y0261127D01*
X0660676Y0261462D01*
X0660849Y0261801D01*
X0661013Y0262144D01*
X0661170Y0262491D01*
X0661317Y0262842D01*
X0661457Y0263196D01*
X0661587Y0263553D01*
X0661709Y0263914D01*
X0661822Y0264277D01*
X0661927Y0264643D01*
X0662022Y0265011D01*
X0662109Y0265382D01*
X0662187Y0265754D01*
X0662255Y0266129D01*
X0662315Y0266505D01*
X0662365Y0266882D01*
X0662406Y0267260D01*
X0662439Y0267639D01*
X0662462Y0268019D01*
X0662475Y0268399D01*
X0662480Y0268780D01*
X0662480Y0434134D01*
X0662475Y0434515D01*
X0662462Y0434895D01*
X0662439Y0435275D01*
X0662406Y0435654D01*
X0662365Y0436032D01*
X0662315Y0436409D01*
X0662255Y0436785D01*
X0662187Y0437160D01*
X0662109Y0437532D01*
X0662022Y0437903D01*
X0661927Y0438271D01*
X0661822Y0438637D01*
X0661709Y0439000D01*
X0661587Y0439361D01*
X0661457Y0439718D01*
X0661317Y0440072D01*
X0661170Y0440423D01*
X0661013Y0440770D01*
X0660849Y0441113D01*
X0660676Y0441452D01*
X0660495Y0441787D01*
X0660306Y0442118D01*
X0660109Y0442443D01*
X0659905Y0442764D01*
X0659692Y0443080D01*
X0659472Y0443390D01*
X0659245Y0443696D01*
X0659010Y0443995D01*
X0658768Y0444289D01*
X0658520Y0444577D01*
X0658264Y0444859D01*
X0658001Y0445134D01*
X0657732Y0445403D01*
X0657457Y0445666D01*
X0657175Y0445922D01*
X0656887Y0446170D01*
X0656593Y0446412D01*
X0656294Y0446647D01*
X0655988Y0446874D01*
X0655678Y0447094D01*
X0655362Y0447307D01*
X0655041Y0447511D01*
X0654716Y0447708D01*
X0654385Y0447897D01*
X0654050Y0448078D01*
X0653711Y0448251D01*
X0653368Y0448415D01*
X0653021Y0448572D01*
X0652670Y0448719D01*
X0652316Y0448859D01*
X0651959Y0448989D01*
X0651598Y0449111D01*
X0651235Y0449224D01*
X0650869Y0449329D01*
X0650501Y0449424D01*
X0650130Y0449511D01*
X0649758Y0449589D01*
X0649383Y0449657D01*
X0649007Y0449717D01*
X0648630Y0449767D01*
X0648252Y0449808D01*
X0647873Y0449841D01*
X0647493Y0449864D01*
X0647113Y0449877D01*
X0646732Y0449882D01*
X0363268Y0449882D01*
X0362887Y0449877D01*
X0362507Y0449864D01*
X0362127Y0449841D01*
X0361748Y0449808D01*
X0361370Y0449767D01*
X0360993Y0449717D01*
X0360617Y0449657D01*
X0360242Y0449589D01*
X0359870Y0449511D01*
X0359499Y0449424D01*
X0359131Y0449329D01*
X0358765Y0449224D01*
X0358402Y0449111D01*
X0358041Y0448989D01*
X0357684Y0448859D01*
X0357330Y0448719D01*
X0356979Y0448572D01*
X0356632Y0448415D01*
X0356289Y0448251D01*
X0355950Y0448078D01*
X0355615Y0447897D01*
X0355284Y0447708D01*
X0354959Y0447511D01*
X0354638Y0447307D01*
X0354322Y0447094D01*
X0354012Y0446874D01*
X0353706Y0446647D01*
X0353407Y0446412D01*
X0353113Y0446170D01*
X0352825Y0445922D01*
X0352543Y0445666D01*
X0352268Y0445403D01*
X0351999Y0445134D01*
X0351736Y0444859D01*
X0351480Y0444577D01*
X0351232Y0444289D01*
X0350990Y0443995D01*
X0350755Y0443696D01*
X0350528Y0443390D01*
X0350308Y0443080D01*
X0350095Y0442764D01*
X0349891Y0442443D01*
X0349694Y0442118D01*
X0349505Y0441787D01*
X0349324Y0441452D01*
X0349151Y0441113D01*
X0348987Y0440770D01*
X0348830Y0440423D01*
X0348683Y0440072D01*
X0348543Y0439718D01*
X0348413Y0439361D01*
X0348291Y0439000D01*
X0348178Y0438637D01*
X0348073Y0438271D01*
X0347978Y0437903D01*
X0347891Y0437532D01*
X0347813Y0437160D01*
X0347745Y0436785D01*
X0347685Y0436409D01*
X0347635Y0436032D01*
X0347594Y0435654D01*
X0347561Y0435275D01*
X0347538Y0434895D01*
X0347525Y0434515D01*
X0347520Y0434134D01*
X0347520Y0268780D01*
X0347525Y0268399D01*
X0347538Y0268019D01*
X0347561Y0267639D01*
X0347594Y0267260D01*
X0347635Y0266882D01*
X0347685Y0266505D01*
X0347745Y0266129D01*
X0347813Y0265754D01*
X0347891Y0265382D01*
X0347978Y0265011D01*
X0348073Y0264643D01*
X0348178Y0264277D01*
X0348291Y0263914D01*
X0348413Y0263553D01*
X0348543Y0263196D01*
X0348683Y0262842D01*
X0348830Y0262491D01*
X0348987Y0262144D01*
X0349151Y0261801D01*
X0349324Y0261462D01*
X0349505Y0261127D01*
X0349694Y0260796D01*
X0349891Y0260471D01*
X0350095Y0260150D01*
X0350308Y0259834D01*
X0350528Y0259524D01*
X0350755Y0259218D01*
X0350990Y0258919D01*
X0351232Y0258625D01*
X0351480Y0258337D01*
X0351736Y0258055D01*
X0351999Y0257780D01*
X0352268Y0257511D01*
X0352543Y0257248D01*
X0352825Y0256992D01*
X0353113Y0256744D01*
X0353407Y0256502D01*
X0353706Y0256267D01*
X0354012Y0256040D01*
X0354322Y0255820D01*
X0354638Y0255607D01*
X0354959Y0255403D01*
X0355284Y0255206D01*
X0355615Y0255017D01*
X0355950Y0254836D01*
X0356289Y0254663D01*
X0356632Y0254499D01*
X0356979Y0254342D01*
X0357330Y0254195D01*
X0357684Y0254055D01*
X0358041Y0253925D01*
X0358402Y0253803D01*
X0358765Y0253690D01*
X0359131Y0253585D01*
X0359499Y0253490D01*
X0359870Y0253403D01*
X0360242Y0253325D01*
X0360617Y0253257D01*
X0360993Y0253197D01*
X0361370Y0253147D01*
X0361748Y0253106D01*
X0362127Y0253073D01*
X0362507Y0253050D01*
X0362887Y0253037D01*
X0363268Y0253032D01*
D11*
X0392638Y0417883D02*
X0392638Y0426133D01*
X0412638Y0426133D02*
X0412638Y0417883D01*
X0440906Y0417883D02*
X0440906Y0426133D01*
X0460906Y0426133D02*
X0460906Y0417883D01*
X0480906Y0417883D02*
X0480906Y0426133D01*
X0509409Y0426133D02*
X0509409Y0417883D01*
X0529409Y0417883D02*
X0529409Y0426133D01*
X0549409Y0426133D02*
X0549409Y0417883D01*
X0577913Y0417883D02*
X0577913Y0426133D01*
X0597913Y0426133D02*
X0597913Y0417883D01*
X0617913Y0417883D02*
X0617913Y0426133D01*
D12*
X0629429Y0379311D03*
X0629429Y0354311D03*
X0629429Y0329508D03*
X0629429Y0313366D03*
X0577461Y0313366D03*
X0577461Y0329508D03*
X0577461Y0354311D03*
X0577461Y0379311D03*
X0531004Y0379311D03*
X0531004Y0354311D03*
X0531004Y0329508D03*
X0531004Y0313366D03*
X0479035Y0313366D03*
X0479035Y0329508D03*
X0479035Y0354311D03*
X0479035Y0379311D03*
X0432579Y0379311D03*
X0432579Y0354311D03*
X0432579Y0329508D03*
X0432579Y0313366D03*
X0380610Y0313366D03*
X0380610Y0329508D03*
X0380610Y0354311D03*
X0380610Y0379311D03*
D13*
X0363268Y0434134D03*
X0363268Y0268780D03*
X0646732Y0268780D03*
X0646732Y0434134D03*
D14*
X0646732Y0414449D03*
X0646732Y0288465D03*
X0363268Y0288465D03*
X0363268Y0414449D03*
D15*
X0381732Y0275717D02*
X0381732Y0269717D01*
X0391732Y0269717D02*
X0391732Y0275717D01*
X0401732Y0275717D02*
X0401732Y0269717D01*
X0411732Y0269717D02*
X0411732Y0275717D01*
X0425039Y0275717D02*
X0425039Y0269717D01*
X0435039Y0269717D02*
X0435039Y0275717D01*
X0445039Y0275717D02*
X0445039Y0269717D01*
X0455039Y0269717D02*
X0455039Y0275717D01*
X0468346Y0275717D02*
X0468346Y0269717D01*
X0478346Y0269717D02*
X0478346Y0275717D01*
X0488346Y0275717D02*
X0488346Y0269717D01*
X0498346Y0269717D02*
X0498346Y0275717D01*
X0511654Y0275717D02*
X0511654Y0269717D01*
X0521654Y0269717D02*
X0521654Y0275717D01*
X0531654Y0275717D02*
X0531654Y0269717D01*
X0541654Y0269717D02*
X0541654Y0275717D01*
X0554961Y0275717D02*
X0554961Y0269717D01*
X0564961Y0269717D02*
X0564961Y0275717D01*
X0574961Y0275717D02*
X0574961Y0269717D01*
X0584961Y0269717D02*
X0584961Y0275717D01*
X0598268Y0275717D02*
X0598268Y0269717D01*
X0608268Y0269717D02*
X0608268Y0275717D01*
X0618268Y0275717D02*
X0618268Y0269717D01*
X0628268Y0269717D02*
X0628268Y0275717D01*
D16*
X0628268Y0272717D02*
X0628268Y0293622D01*
X0642795Y0308150D01*
X0642795Y0347520D01*
X0636004Y0354311D01*
X0629429Y0354311D01*
X0634299Y0349793D02*
X0638395Y0345697D01*
X0638395Y0309972D01*
X0624538Y0296114D01*
X0623868Y0294497D01*
X0623868Y0279519D01*
X0623351Y0279002D01*
X0623268Y0278802D01*
X0623185Y0279002D01*
X0622668Y0279519D01*
X0622668Y0300382D01*
X0629013Y0306728D01*
X0630750Y0306728D01*
X0633190Y0307738D01*
X0635057Y0309606D01*
X0636068Y0312046D01*
X0636068Y0314687D01*
X0635057Y0317127D01*
X0633190Y0318994D01*
X0630750Y0320005D01*
X0628109Y0320005D01*
X0625669Y0318994D01*
X0623801Y0317127D01*
X0622791Y0314687D01*
X0622791Y0312950D01*
X0614538Y0304697D01*
X0613868Y0303080D01*
X0613868Y0279519D01*
X0613351Y0279002D01*
X0613268Y0278802D01*
X0613185Y0279002D01*
X0612668Y0279519D01*
X0612668Y0315107D01*
X0622669Y0325108D01*
X0624441Y0325108D01*
X0625669Y0323880D01*
X0628109Y0322869D01*
X0630750Y0322869D01*
X0633190Y0323880D01*
X0635057Y0325747D01*
X0636068Y0328187D01*
X0636068Y0330828D01*
X0635057Y0333268D01*
X0633190Y0335136D01*
X0630750Y0336146D01*
X0628109Y0336146D01*
X0625669Y0335136D01*
X0624441Y0333908D01*
X0619971Y0333908D01*
X0618354Y0333238D01*
X0604538Y0319422D01*
X0603868Y0317804D01*
X0603868Y0279519D01*
X0603351Y0279002D01*
X0603268Y0278802D01*
X0603185Y0279002D01*
X0601553Y0280634D01*
X0599421Y0281517D01*
X0597114Y0281517D01*
X0594982Y0280634D01*
X0593351Y0279002D01*
X0592468Y0276870D01*
X0592468Y0268563D01*
X0593351Y0266431D01*
X0594982Y0264800D01*
X0597114Y0263917D01*
X0599421Y0263917D01*
X0601553Y0264800D01*
X0603185Y0266431D01*
X0603268Y0266631D01*
X0603351Y0266431D01*
X0604982Y0264800D01*
X0607114Y0263917D01*
X0609421Y0263917D01*
X0611553Y0264800D01*
X0613185Y0266431D01*
X0613268Y0266631D01*
X0613351Y0266431D01*
X0614982Y0264800D01*
X0617114Y0263917D01*
X0619421Y0263917D01*
X0621553Y0264800D01*
X0623185Y0266431D01*
X0623268Y0266631D01*
X0623351Y0266431D01*
X0624982Y0264800D01*
X0627114Y0263917D01*
X0629421Y0263917D01*
X0631553Y0264800D01*
X0632436Y0265682D01*
X0633117Y0263140D01*
X0633759Y0262028D01*
X0633099Y0261368D01*
X0626846Y0261368D01*
X0626369Y0261845D01*
X0624255Y0262721D01*
X0621966Y0262721D01*
X0619852Y0261845D01*
X0619375Y0261368D01*
X0555980Y0261368D01*
X0555503Y0261845D01*
X0553388Y0262721D01*
X0551100Y0262721D01*
X0548985Y0261845D01*
X0548508Y0261368D01*
X0496925Y0261368D01*
X0496448Y0261845D01*
X0494333Y0262721D01*
X0492045Y0262721D01*
X0489930Y0261845D01*
X0489453Y0261368D01*
X0441806Y0261368D01*
X0441330Y0261845D01*
X0439215Y0262721D01*
X0436927Y0262721D01*
X0434812Y0261845D01*
X0434335Y0261368D01*
X0386688Y0261368D01*
X0386211Y0261845D01*
X0384097Y0262721D01*
X0381808Y0262721D01*
X0379694Y0261845D01*
X0379217Y0261368D01*
X0376901Y0261368D01*
X0376241Y0262028D01*
X0376883Y0263140D01*
X0377564Y0265682D01*
X0378447Y0264800D01*
X0380579Y0263917D01*
X0382886Y0263917D01*
X0385018Y0264800D01*
X0386649Y0266431D01*
X0386732Y0266631D01*
X0386815Y0266431D01*
X0388447Y0264800D01*
X0390579Y0263917D01*
X0392886Y0263917D01*
X0395018Y0264800D01*
X0396649Y0266431D01*
X0396732Y0266631D01*
X0396815Y0266431D01*
X0398447Y0264800D01*
X0400579Y0263917D01*
X0402886Y0263917D01*
X0405018Y0264800D01*
X0406649Y0266431D01*
X0406732Y0266631D01*
X0406815Y0266431D01*
X0408447Y0264800D01*
X0410579Y0263917D01*
X0412886Y0263917D01*
X0415018Y0264800D01*
X0416649Y0266431D01*
X0417532Y0268563D01*
X0417532Y0276870D01*
X0416649Y0279002D01*
X0416132Y0279519D01*
X0416132Y0339300D01*
X0415462Y0340918D01*
X0399577Y0356803D01*
X0398339Y0358041D01*
X0396722Y0358711D01*
X0385599Y0358711D01*
X0384371Y0359939D01*
X0381931Y0360950D01*
X0379290Y0360950D01*
X0376850Y0359939D01*
X0374982Y0358071D01*
X0373972Y0355632D01*
X0373972Y0352991D01*
X0374982Y0350551D01*
X0376850Y0348683D01*
X0379290Y0347672D01*
X0381931Y0347672D01*
X0384371Y0348683D01*
X0385599Y0349911D01*
X0394024Y0349911D01*
X0407332Y0336603D01*
X0407332Y0279519D01*
X0406815Y0279002D01*
X0406732Y0278802D01*
X0406649Y0279002D01*
X0406132Y0279519D01*
X0406132Y0309930D01*
X0405462Y0311548D01*
X0404225Y0312785D01*
X0399914Y0317096D01*
X0398296Y0317766D01*
X0385599Y0317766D01*
X0384371Y0318994D01*
X0381931Y0320005D01*
X0379290Y0320005D01*
X0376850Y0318994D01*
X0374982Y0317127D01*
X0373972Y0314687D01*
X0373972Y0312046D01*
X0374982Y0309606D01*
X0376850Y0307738D01*
X0379290Y0306728D01*
X0381931Y0306728D01*
X0384371Y0307738D01*
X0385599Y0308966D01*
X0395599Y0308966D01*
X0397332Y0307233D01*
X0397332Y0279519D01*
X0396815Y0279002D01*
X0396732Y0278802D01*
X0396649Y0279002D01*
X0396132Y0279519D01*
X0396132Y0292371D01*
X0395462Y0293988D01*
X0394225Y0295226D01*
X0390620Y0298831D01*
X0389382Y0300069D01*
X0387765Y0300739D01*
X0372964Y0300739D01*
X0367668Y0306035D01*
X0367668Y0322075D01*
X0370700Y0325108D01*
X0375622Y0325108D01*
X0376850Y0323880D01*
X0379290Y0322869D01*
X0381931Y0322869D01*
X0384371Y0323880D01*
X0386238Y0325747D01*
X0387249Y0328187D01*
X0387249Y0330828D01*
X0386238Y0333268D01*
X0384371Y0335136D01*
X0381931Y0336146D01*
X0379290Y0336146D01*
X0376850Y0335136D01*
X0375622Y0333908D01*
X0368003Y0333908D01*
X0366386Y0333238D01*
X0365148Y0332000D01*
X0359538Y0326390D01*
X0358868Y0324773D01*
X0358868Y0303337D01*
X0359538Y0301720D01*
X0360775Y0300482D01*
X0360775Y0300482D01*
X0367412Y0293846D01*
X0368649Y0292608D01*
X0370267Y0291939D01*
X0385067Y0291939D01*
X0387332Y0289674D01*
X0387332Y0279519D01*
X0386815Y0279002D01*
X0386732Y0278802D01*
X0386649Y0279002D01*
X0385018Y0280634D01*
X0382886Y0281517D01*
X0380579Y0281517D01*
X0378447Y0280634D01*
X0376815Y0279002D01*
X0375932Y0276870D01*
X0375932Y0276066D01*
X0374959Y0277751D01*
X0372239Y0280471D01*
X0368907Y0282395D01*
X0365191Y0283391D01*
X0361344Y0283391D01*
X0357628Y0282395D01*
X0356517Y0281753D01*
X0355857Y0282413D01*
X0355857Y0284729D01*
X0356334Y0285206D01*
X0357209Y0287320D01*
X0357209Y0289609D01*
X0356334Y0291723D01*
X0355857Y0292200D01*
X0355857Y0312288D01*
X0356334Y0312765D01*
X0357209Y0314879D01*
X0357209Y0317168D01*
X0356334Y0319282D01*
X0355857Y0319759D01*
X0355857Y0359532D01*
X0356334Y0360009D01*
X0357209Y0362123D01*
X0357209Y0364412D01*
X0356334Y0366526D01*
X0355857Y0367003D01*
X0355857Y0406776D01*
X0356334Y0407253D01*
X0357209Y0409368D01*
X0357209Y0411656D01*
X0356334Y0413770D01*
X0355857Y0414247D01*
X0355857Y0420500D01*
X0356517Y0421160D01*
X0357628Y0420519D01*
X0361344Y0419523D01*
X0365191Y0419523D01*
X0368907Y0420519D01*
X0372239Y0422442D01*
X0374959Y0425162D01*
X0376883Y0428494D01*
X0377879Y0432210D01*
X0377879Y0436057D01*
X0376883Y0439773D01*
X0376241Y0440885D01*
X0376901Y0441545D01*
X0383154Y0441545D01*
X0383631Y0441068D01*
X0385745Y0440192D01*
X0388034Y0440192D01*
X0390148Y0441068D01*
X0390625Y0441545D01*
X0442209Y0441545D01*
X0442686Y0441068D01*
X0444801Y0440192D01*
X0447089Y0440192D01*
X0449204Y0441068D01*
X0449680Y0441545D01*
X0493390Y0441545D01*
X0493867Y0441068D01*
X0495982Y0440192D01*
X0498270Y0440192D01*
X0500385Y0441068D01*
X0500862Y0441545D01*
X0556382Y0441545D01*
X0556859Y0441068D01*
X0558974Y0440192D01*
X0561262Y0440192D01*
X0563377Y0441068D01*
X0563854Y0441545D01*
X0619375Y0441545D01*
X0619852Y0441068D01*
X0621966Y0440192D01*
X0624255Y0440192D01*
X0626369Y0441068D01*
X0626846Y0441545D01*
X0633099Y0441545D01*
X0633759Y0440885D01*
X0633117Y0439773D01*
X0632121Y0436057D01*
X0632121Y0432210D01*
X0633117Y0428494D01*
X0635041Y0425162D01*
X0637761Y0422442D01*
X0641093Y0420519D01*
X0644809Y0419523D01*
X0648656Y0419523D01*
X0652372Y0420519D01*
X0653483Y0421160D01*
X0654143Y0420500D01*
X0654143Y0414247D01*
X0653666Y0413770D01*
X0652791Y0411656D01*
X0652791Y0409368D01*
X0653666Y0407253D01*
X0654143Y0406776D01*
X0654143Y0390625D01*
X0653666Y0390148D01*
X0652791Y0388034D01*
X0652791Y0385745D01*
X0653666Y0383631D01*
X0654143Y0383154D01*
X0654143Y0343381D01*
X0653666Y0342904D01*
X0652791Y0340790D01*
X0652791Y0338501D01*
X0653666Y0336387D01*
X0654143Y0335910D01*
X0654143Y0296137D01*
X0653666Y0295660D01*
X0652791Y0293546D01*
X0652791Y0291257D01*
X0653666Y0289143D01*
X0654143Y0288666D01*
X0654143Y0282413D01*
X0653483Y0281753D01*
X0652372Y0282395D01*
X0648656Y0283391D01*
X0644809Y0283391D01*
X0641093Y0282395D01*
X0637761Y0280471D01*
X0635041Y0277751D01*
X0634068Y0276066D01*
X0634068Y0276870D01*
X0633185Y0279002D01*
X0632668Y0279519D01*
X0632668Y0291799D01*
X0645288Y0304419D01*
X0646525Y0305657D01*
X0647195Y0307274D01*
X0647195Y0348395D01*
X0646525Y0350012D01*
X0639734Y0356803D01*
X0638496Y0358041D01*
X0636879Y0358711D01*
X0634417Y0358711D01*
X0633190Y0359939D01*
X0630750Y0360950D01*
X0628109Y0360950D01*
X0625669Y0359939D01*
X0623801Y0358071D01*
X0622791Y0355632D01*
X0622791Y0352991D01*
X0623801Y0350551D01*
X0625669Y0348683D01*
X0628109Y0347672D01*
X0630750Y0347672D01*
X0633190Y0348683D01*
X0634299Y0349793D01*
X0633493Y0348987D02*
X0635106Y0348987D01*
X0638304Y0345788D02*
X0596014Y0345788D01*
X0596014Y0348395D02*
X0595344Y0350012D01*
X0588553Y0356803D01*
X0587315Y0358041D01*
X0585698Y0358711D01*
X0582449Y0358711D01*
X0581221Y0359939D01*
X0578781Y0360950D01*
X0576140Y0360950D01*
X0573700Y0359939D01*
X0571833Y0358071D01*
X0570822Y0355632D01*
X0570822Y0352991D01*
X0571833Y0350551D01*
X0573700Y0348683D01*
X0576140Y0347672D01*
X0578781Y0347672D01*
X0581221Y0348683D01*
X0582449Y0349911D01*
X0583000Y0349911D01*
X0587214Y0345697D01*
X0587214Y0309972D01*
X0581230Y0303988D01*
X0580561Y0302371D01*
X0580561Y0279519D01*
X0580044Y0279002D01*
X0579961Y0278802D01*
X0579878Y0279002D01*
X0579361Y0279519D01*
X0579361Y0306968D01*
X0581221Y0307738D01*
X0583089Y0309606D01*
X0584099Y0312046D01*
X0584099Y0314687D01*
X0583089Y0317127D01*
X0581221Y0318994D01*
X0578781Y0320005D01*
X0576140Y0320005D01*
X0573700Y0318994D01*
X0571833Y0317127D01*
X0570822Y0314687D01*
X0570822Y0312372D01*
X0570561Y0311741D01*
X0570561Y0279519D01*
X0570044Y0279002D01*
X0569961Y0278802D01*
X0569878Y0279002D01*
X0569361Y0279519D01*
X0569361Y0292371D01*
X0568691Y0293988D01*
X0567453Y0295226D01*
X0560581Y0302098D01*
X0560581Y0322075D01*
X0563614Y0325108D01*
X0572472Y0325108D01*
X0573700Y0323880D01*
X0576140Y0322869D01*
X0578781Y0322869D01*
X0581221Y0323880D01*
X0583089Y0325747D01*
X0584099Y0328187D01*
X0584099Y0330828D01*
X0583089Y0333268D01*
X0581221Y0335136D01*
X0578781Y0336146D01*
X0576140Y0336146D01*
X0573700Y0335136D01*
X0572472Y0333908D01*
X0560916Y0333908D01*
X0559299Y0333238D01*
X0558061Y0332000D01*
X0552451Y0326390D01*
X0551781Y0324773D01*
X0551781Y0299400D01*
X0552451Y0297783D01*
X0560561Y0289674D01*
X0560561Y0279519D01*
X0560044Y0279002D01*
X0559961Y0278802D01*
X0559878Y0279002D01*
X0558246Y0280634D01*
X0556114Y0281517D01*
X0553807Y0281517D01*
X0551675Y0280634D01*
X0550044Y0279002D01*
X0549161Y0276870D01*
X0549161Y0268563D01*
X0550044Y0266431D01*
X0551675Y0264800D01*
X0553807Y0263917D01*
X0556114Y0263917D01*
X0558246Y0264800D01*
X0559878Y0266431D01*
X0559961Y0266631D01*
X0560044Y0266431D01*
X0561675Y0264800D01*
X0563807Y0263917D01*
X0566114Y0263917D01*
X0568246Y0264800D01*
X0569878Y0266431D01*
X0569961Y0266631D01*
X0570044Y0266431D01*
X0571675Y0264800D01*
X0573807Y0263917D01*
X0576114Y0263917D01*
X0578246Y0264800D01*
X0579878Y0266431D01*
X0579961Y0266631D01*
X0580044Y0266431D01*
X0581675Y0264800D01*
X0583807Y0263917D01*
X0586114Y0263917D01*
X0588246Y0264800D01*
X0589878Y0266431D01*
X0590761Y0268563D01*
X0590761Y0276870D01*
X0589878Y0279002D01*
X0589361Y0279519D01*
X0589361Y0299674D01*
X0594107Y0304419D01*
X0595344Y0305657D01*
X0596014Y0307274D01*
X0596014Y0348395D01*
X0595769Y0348987D02*
X0625365Y0348987D01*
X0623124Y0352185D02*
X0593171Y0352185D01*
X0589973Y0355384D02*
X0622791Y0355384D01*
X0624312Y0358582D02*
X0586009Y0358582D01*
X0584823Y0354311D02*
X0577461Y0354311D01*
X0571156Y0352185D02*
X0540648Y0352185D01*
X0542988Y0348987D02*
X0573396Y0348987D01*
X0570822Y0355384D02*
X0538309Y0355384D01*
X0537505Y0356483D02*
X0537372Y0356803D01*
X0537005Y0357170D01*
X0536632Y0358071D01*
X0534764Y0359939D01*
X0532324Y0360950D01*
X0529683Y0360950D01*
X0527243Y0359939D01*
X0525376Y0358071D01*
X0524365Y0355632D01*
X0524365Y0352991D01*
X0525376Y0350551D01*
X0527243Y0348683D01*
X0529683Y0347672D01*
X0532324Y0347672D01*
X0532879Y0347902D01*
X0539970Y0338208D01*
X0539970Y0294224D01*
X0537923Y0292177D01*
X0537254Y0290560D01*
X0537254Y0279519D01*
X0536737Y0279002D01*
X0536654Y0278802D01*
X0536571Y0279002D01*
X0536054Y0279519D01*
X0536054Y0309027D01*
X0536632Y0309606D01*
X0537643Y0312046D01*
X0537643Y0314687D01*
X0536632Y0317127D01*
X0534764Y0318994D01*
X0532324Y0320005D01*
X0529683Y0320005D01*
X0527243Y0318994D01*
X0525376Y0317127D01*
X0524365Y0314687D01*
X0524365Y0312046D01*
X0525376Y0309606D01*
X0527243Y0307738D01*
X0527254Y0307734D01*
X0527254Y0279519D01*
X0526737Y0279002D01*
X0526654Y0278802D01*
X0526571Y0279002D01*
X0526054Y0279519D01*
X0526054Y0300245D01*
X0525384Y0301862D01*
X0524146Y0303100D01*
X0521211Y0306035D01*
X0521211Y0322075D01*
X0524244Y0325108D01*
X0526016Y0325108D01*
X0527243Y0323880D01*
X0529683Y0322869D01*
X0532324Y0322869D01*
X0534764Y0323880D01*
X0536632Y0325747D01*
X0537643Y0328187D01*
X0537643Y0330828D01*
X0536632Y0333268D01*
X0534764Y0335136D01*
X0532324Y0336146D01*
X0529683Y0336146D01*
X0527243Y0335136D01*
X0526016Y0333908D01*
X0521546Y0333908D01*
X0519929Y0333238D01*
X0518691Y0332000D01*
X0513081Y0326390D01*
X0512411Y0324773D01*
X0512411Y0303337D01*
X0513081Y0301720D01*
X0517254Y0297548D01*
X0517254Y0279519D01*
X0516737Y0279002D01*
X0516654Y0278802D01*
X0516571Y0279002D01*
X0514939Y0280634D01*
X0512807Y0281517D01*
X0510500Y0281517D01*
X0508368Y0280634D01*
X0506737Y0279002D01*
X0505854Y0276870D01*
X0505854Y0268563D01*
X0506737Y0266431D01*
X0508368Y0264800D01*
X0510500Y0263917D01*
X0512807Y0263917D01*
X0514939Y0264800D01*
X0516571Y0266431D01*
X0516654Y0266631D01*
X0516737Y0266431D01*
X0518368Y0264800D01*
X0520500Y0263917D01*
X0522807Y0263917D01*
X0524939Y0264800D01*
X0526571Y0266431D01*
X0526654Y0266631D01*
X0526737Y0266431D01*
X0528368Y0264800D01*
X0530500Y0263917D01*
X0532807Y0263917D01*
X0534939Y0264800D01*
X0536571Y0266431D01*
X0536654Y0266631D01*
X0536737Y0266431D01*
X0538368Y0264800D01*
X0540500Y0263917D01*
X0542807Y0263917D01*
X0544939Y0264800D01*
X0546571Y0266431D01*
X0547454Y0268563D01*
X0547454Y0276870D01*
X0546571Y0279002D01*
X0546054Y0279519D01*
X0546054Y0287862D01*
X0546862Y0288671D01*
X0548100Y0289909D01*
X0548770Y0291526D01*
X0548770Y0339307D01*
X0548852Y0339836D01*
X0548770Y0340174D01*
X0548770Y0340521D01*
X0548565Y0341016D01*
X0548438Y0341537D01*
X0548233Y0341817D01*
X0548100Y0342138D01*
X0547721Y0342517D01*
X0537505Y0356483D01*
X0536121Y0358582D02*
X0572344Y0358582D01*
X0584823Y0354311D02*
X0591614Y0347520D01*
X0591614Y0308150D01*
X0584961Y0301496D01*
X0584961Y0272717D01*
X0590761Y0272223D02*
X0592468Y0272223D01*
X0592468Y0275421D02*
X0590761Y0275421D01*
X0590036Y0278620D02*
X0593192Y0278620D01*
X0589361Y0281818D02*
X0603868Y0281818D01*
X0603868Y0285017D02*
X0589361Y0285017D01*
X0589361Y0288215D02*
X0603868Y0288215D01*
X0603868Y0291414D02*
X0589361Y0291414D01*
X0589361Y0294612D02*
X0603868Y0294612D01*
X0603868Y0297811D02*
X0589361Y0297811D01*
X0590696Y0301009D02*
X0603868Y0301009D01*
X0603868Y0304208D02*
X0593895Y0304208D01*
X0596014Y0307406D02*
X0603868Y0307406D01*
X0603868Y0310605D02*
X0596014Y0310605D01*
X0596014Y0313803D02*
X0603868Y0313803D01*
X0603868Y0317002D02*
X0596014Y0317002D01*
X0596014Y0320200D02*
X0605316Y0320200D01*
X0608268Y0316929D02*
X0620846Y0329508D01*
X0629429Y0329508D01*
X0626830Y0323399D02*
X0620960Y0323399D01*
X0617761Y0320200D02*
X0638395Y0320200D01*
X0638395Y0317002D02*
X0635109Y0317002D01*
X0636068Y0313803D02*
X0638395Y0313803D01*
X0638395Y0310605D02*
X0635471Y0310605D01*
X0635829Y0307406D02*
X0632388Y0307406D01*
X0632631Y0304208D02*
X0626493Y0304208D01*
X0629432Y0301009D02*
X0623295Y0301009D01*
X0622668Y0297811D02*
X0626234Y0297811D01*
X0623915Y0294612D02*
X0622668Y0294612D01*
X0622668Y0291414D02*
X0623868Y0291414D01*
X0623868Y0288215D02*
X0622668Y0288215D01*
X0622668Y0285017D02*
X0623868Y0285017D01*
X0623868Y0281818D02*
X0622668Y0281818D01*
X0613868Y0281818D02*
X0612668Y0281818D01*
X0612668Y0285017D02*
X0613868Y0285017D01*
X0613868Y0288215D02*
X0612668Y0288215D01*
X0612668Y0291414D02*
X0613868Y0291414D01*
X0613868Y0294612D02*
X0612668Y0294612D01*
X0612668Y0297811D02*
X0613868Y0297811D01*
X0613868Y0301009D02*
X0612668Y0301009D01*
X0612668Y0304208D02*
X0614335Y0304208D01*
X0612668Y0307406D02*
X0617247Y0307406D01*
X0620445Y0310605D02*
X0612668Y0310605D01*
X0612668Y0313803D02*
X0622791Y0313803D01*
X0623750Y0317002D02*
X0614563Y0317002D01*
X0608268Y0316929D02*
X0608268Y0272717D01*
X0612579Y0265826D02*
X0613956Y0265826D01*
X0618268Y0272717D02*
X0618268Y0302205D01*
X0629429Y0313366D01*
X0632028Y0323399D02*
X0638395Y0323399D01*
X0638395Y0326597D02*
X0635409Y0326597D01*
X0636068Y0329796D02*
X0638395Y0329796D01*
X0638395Y0332994D02*
X0635171Y0332994D01*
X0638395Y0336193D02*
X0596014Y0336193D01*
X0596014Y0339391D02*
X0638395Y0339391D01*
X0638395Y0342590D02*
X0596014Y0342590D01*
X0587214Y0342590D02*
X0547668Y0342590D01*
X0548783Y0339391D02*
X0587214Y0339391D01*
X0587214Y0336193D02*
X0548770Y0336193D01*
X0548770Y0332994D02*
X0559055Y0332994D01*
X0561791Y0329508D02*
X0556181Y0323898D01*
X0556181Y0300276D01*
X0564961Y0291496D01*
X0564961Y0272717D01*
X0569272Y0265826D02*
X0570649Y0265826D01*
X0574961Y0272717D02*
X0574961Y0310866D01*
X0577461Y0313366D01*
X0583502Y0310605D02*
X0587214Y0310605D01*
X0587214Y0313803D02*
X0584099Y0313803D01*
X0583140Y0317002D02*
X0587214Y0317002D01*
X0587214Y0320200D02*
X0560581Y0320200D01*
X0560581Y0317002D02*
X0571781Y0317002D01*
X0570822Y0313803D02*
X0560581Y0313803D01*
X0560581Y0310605D02*
X0570561Y0310605D01*
X0570561Y0307406D02*
X0560581Y0307406D01*
X0560581Y0304208D02*
X0570561Y0304208D01*
X0570561Y0301009D02*
X0561670Y0301009D01*
X0564869Y0297811D02*
X0570561Y0297811D01*
X0570561Y0294612D02*
X0568067Y0294612D01*
X0569361Y0291414D02*
X0570561Y0291414D01*
X0570561Y0288215D02*
X0569361Y0288215D01*
X0569361Y0285017D02*
X0570561Y0285017D01*
X0570561Y0281818D02*
X0569361Y0281818D01*
X0560561Y0281818D02*
X0546054Y0281818D01*
X0546054Y0285017D02*
X0560561Y0285017D01*
X0560561Y0288215D02*
X0546406Y0288215D01*
X0548723Y0291414D02*
X0558821Y0291414D01*
X0555622Y0294612D02*
X0548770Y0294612D01*
X0548770Y0297811D02*
X0552440Y0297811D01*
X0551781Y0301009D02*
X0548770Y0301009D01*
X0548770Y0304208D02*
X0551781Y0304208D01*
X0551781Y0307406D02*
X0548770Y0307406D01*
X0548770Y0310605D02*
X0551781Y0310605D01*
X0551781Y0313803D02*
X0548770Y0313803D01*
X0548770Y0317002D02*
X0551781Y0317002D01*
X0551781Y0320200D02*
X0548770Y0320200D01*
X0548770Y0323399D02*
X0551781Y0323399D01*
X0552658Y0326597D02*
X0548770Y0326597D01*
X0548770Y0329796D02*
X0555857Y0329796D01*
X0561791Y0329508D02*
X0577461Y0329508D01*
X0580059Y0323399D02*
X0587214Y0323399D01*
X0587214Y0326597D02*
X0583441Y0326597D01*
X0584099Y0329796D02*
X0587214Y0329796D01*
X0587214Y0332994D02*
X0583202Y0332994D01*
X0574862Y0323399D02*
X0561905Y0323399D01*
X0539970Y0323399D02*
X0533603Y0323399D01*
X0536984Y0326597D02*
X0539970Y0326597D01*
X0539970Y0329796D02*
X0537643Y0329796D01*
X0536745Y0332994D02*
X0539970Y0332994D01*
X0539970Y0336193D02*
X0502746Y0336193D01*
X0502746Y0339391D02*
X0539104Y0339391D01*
X0536765Y0342590D02*
X0502746Y0342590D01*
X0502746Y0343237D02*
X0502077Y0344855D01*
X0490128Y0356803D01*
X0488890Y0358041D01*
X0487273Y0358711D01*
X0484024Y0358711D01*
X0482796Y0359939D01*
X0480356Y0360950D01*
X0477715Y0360950D01*
X0475275Y0359939D01*
X0473408Y0358071D01*
X0472397Y0355632D01*
X0472397Y0352991D01*
X0473408Y0350551D01*
X0475275Y0348683D01*
X0477715Y0347672D01*
X0480356Y0347672D01*
X0482796Y0348683D01*
X0484024Y0349911D01*
X0484575Y0349911D01*
X0493946Y0340540D01*
X0493946Y0279519D01*
X0493429Y0279002D01*
X0493346Y0278802D01*
X0493263Y0279002D01*
X0492746Y0279519D01*
X0492746Y0304930D01*
X0492077Y0306548D01*
X0490839Y0307785D01*
X0485674Y0312950D01*
X0485674Y0314687D01*
X0484663Y0317127D01*
X0482796Y0318994D01*
X0480356Y0320005D01*
X0477715Y0320005D01*
X0475275Y0318994D01*
X0473408Y0317127D01*
X0472397Y0314687D01*
X0472397Y0312046D01*
X0473408Y0309606D01*
X0475275Y0307738D01*
X0477715Y0306728D01*
X0479451Y0306728D01*
X0483946Y0302233D01*
X0483946Y0279519D01*
X0483429Y0279002D01*
X0483346Y0278802D01*
X0483263Y0279002D01*
X0482746Y0279519D01*
X0482746Y0288434D01*
X0482077Y0290051D01*
X0480839Y0291289D01*
X0470030Y0302098D01*
X0470030Y0322075D01*
X0473063Y0325108D01*
X0474047Y0325108D01*
X0475275Y0323880D01*
X0477715Y0322869D01*
X0480356Y0322869D01*
X0482796Y0323880D01*
X0484663Y0325747D01*
X0485674Y0328187D01*
X0485674Y0330828D01*
X0484663Y0333268D01*
X0482796Y0335136D01*
X0480356Y0336146D01*
X0477715Y0336146D01*
X0475275Y0335136D01*
X0474047Y0333908D01*
X0470365Y0333908D01*
X0468748Y0333238D01*
X0463138Y0327628D01*
X0461900Y0326390D01*
X0461230Y0324773D01*
X0461230Y0299400D01*
X0461900Y0297783D01*
X0473946Y0285737D01*
X0473946Y0279519D01*
X0473429Y0279002D01*
X0473346Y0278802D01*
X0473263Y0279002D01*
X0471632Y0280634D01*
X0469500Y0281517D01*
X0467193Y0281517D01*
X0465061Y0280634D01*
X0463429Y0279002D01*
X0462546Y0276870D01*
X0462546Y0268563D01*
X0463429Y0266431D01*
X0465061Y0264800D01*
X0467193Y0263917D01*
X0469500Y0263917D01*
X0471632Y0264800D01*
X0473263Y0266431D01*
X0473346Y0266631D01*
X0473429Y0266431D01*
X0475061Y0264800D01*
X0477193Y0263917D01*
X0479500Y0263917D01*
X0481632Y0264800D01*
X0483263Y0266431D01*
X0483346Y0266631D01*
X0483429Y0266431D01*
X0485061Y0264800D01*
X0487193Y0263917D01*
X0489500Y0263917D01*
X0491632Y0264800D01*
X0493263Y0266431D01*
X0493346Y0266631D01*
X0493429Y0266431D01*
X0495061Y0264800D01*
X0497193Y0263917D01*
X0499500Y0263917D01*
X0501632Y0264800D01*
X0503263Y0266431D01*
X0504146Y0268563D01*
X0504146Y0276870D01*
X0503263Y0279002D01*
X0502746Y0279519D01*
X0502746Y0343237D01*
X0501143Y0345788D02*
X0534425Y0345788D01*
X0526940Y0348987D02*
X0497944Y0348987D01*
X0494746Y0352185D02*
X0524699Y0352185D01*
X0524365Y0355384D02*
X0491547Y0355384D01*
X0487583Y0358582D02*
X0525887Y0358582D01*
X0531004Y0354311D02*
X0533642Y0354311D01*
X0544370Y0339646D01*
X0544370Y0292402D01*
X0541654Y0289685D01*
X0541654Y0272717D01*
X0547454Y0272223D02*
X0549161Y0272223D01*
X0549161Y0275421D02*
X0547454Y0275421D01*
X0546729Y0278620D02*
X0549885Y0278620D01*
X0549161Y0269024D02*
X0547454Y0269024D01*
X0545965Y0265826D02*
X0550649Y0265826D01*
X0550872Y0262627D02*
X0494561Y0262627D01*
X0491817Y0262627D02*
X0439443Y0262627D01*
X0438325Y0264800D02*
X0439956Y0266431D01*
X0440039Y0266631D01*
X0440122Y0266431D01*
X0441754Y0264800D01*
X0443886Y0263917D01*
X0446193Y0263917D01*
X0448325Y0264800D01*
X0449956Y0266431D01*
X0450039Y0266631D01*
X0450122Y0266431D01*
X0451754Y0264800D01*
X0453886Y0263917D01*
X0456193Y0263917D01*
X0458325Y0264800D01*
X0459956Y0266431D01*
X0460839Y0268563D01*
X0460839Y0276870D01*
X0459956Y0279002D01*
X0459439Y0279519D01*
X0459439Y0339300D01*
X0458770Y0340918D01*
X0442884Y0356803D01*
X0441646Y0358041D01*
X0440029Y0358711D01*
X0437567Y0358711D01*
X0436339Y0359939D01*
X0433899Y0360950D01*
X0431258Y0360950D01*
X0428818Y0359939D01*
X0426951Y0358071D01*
X0425940Y0355632D01*
X0425940Y0352991D01*
X0426951Y0350551D01*
X0428818Y0348683D01*
X0431258Y0347672D01*
X0433899Y0347672D01*
X0436339Y0348683D01*
X0437449Y0349793D01*
X0450639Y0336603D01*
X0450639Y0279519D01*
X0450122Y0279002D01*
X0450039Y0278802D01*
X0449956Y0279002D01*
X0449439Y0279519D01*
X0449439Y0301781D01*
X0448770Y0303398D01*
X0447532Y0304636D01*
X0439217Y0312950D01*
X0439217Y0314687D01*
X0438207Y0317127D01*
X0436339Y0318994D01*
X0433899Y0320005D01*
X0431258Y0320005D01*
X0428818Y0318994D01*
X0426951Y0317127D01*
X0425940Y0314687D01*
X0425940Y0312046D01*
X0426951Y0309606D01*
X0428818Y0307738D01*
X0431258Y0306728D01*
X0432995Y0306728D01*
X0440639Y0299083D01*
X0440639Y0279519D01*
X0440122Y0279002D01*
X0440039Y0278802D01*
X0439956Y0279002D01*
X0439439Y0279519D01*
X0439439Y0283316D01*
X0438770Y0284933D01*
X0425935Y0297767D01*
X0425935Y0321681D01*
X0428476Y0324222D01*
X0428818Y0323880D01*
X0431258Y0322869D01*
X0433899Y0322869D01*
X0436339Y0323880D01*
X0438207Y0325747D01*
X0439217Y0328187D01*
X0439217Y0330828D01*
X0438207Y0333268D01*
X0436339Y0335136D01*
X0433899Y0336146D01*
X0431258Y0336146D01*
X0428818Y0335136D01*
X0427590Y0333908D01*
X0426664Y0333908D01*
X0425047Y0333238D01*
X0423809Y0332000D01*
X0417805Y0325996D01*
X0417135Y0324379D01*
X0417135Y0295070D01*
X0417805Y0293452D01*
X0430639Y0280618D01*
X0430639Y0279519D01*
X0430122Y0279002D01*
X0430039Y0278802D01*
X0429956Y0279002D01*
X0428325Y0280634D01*
X0426193Y0281517D01*
X0423886Y0281517D01*
X0421754Y0280634D01*
X0420122Y0279002D01*
X0419239Y0276870D01*
X0419239Y0268563D01*
X0420122Y0266431D01*
X0421754Y0264800D01*
X0423886Y0263917D01*
X0426193Y0263917D01*
X0428325Y0264800D01*
X0429956Y0266431D01*
X0430039Y0266631D01*
X0430122Y0266431D01*
X0431754Y0264800D01*
X0433886Y0263917D01*
X0436193Y0263917D01*
X0438325Y0264800D01*
X0439351Y0265826D02*
X0440728Y0265826D01*
X0436699Y0262627D02*
X0384325Y0262627D01*
X0381581Y0262627D02*
X0376587Y0262627D01*
X0375079Y0256969D02*
X0382953Y0256969D01*
X0438071Y0256969D01*
X0493189Y0256969D01*
X0552244Y0256969D01*
X0623110Y0256969D01*
X0634921Y0256969D01*
X0646732Y0268780D01*
X0658543Y0280591D01*
X0658543Y0292402D01*
X0658543Y0339646D01*
X0658543Y0386890D01*
X0658543Y0410512D01*
X0658543Y0422323D01*
X0646732Y0434134D01*
X0634921Y0445945D01*
X0623110Y0445945D01*
X0560118Y0445945D01*
X0497126Y0445945D01*
X0445945Y0445945D01*
X0386890Y0445945D01*
X0375079Y0445945D01*
X0363268Y0434134D01*
X0351457Y0422323D01*
X0351457Y0410512D01*
X0351457Y0363268D01*
X0351457Y0316024D01*
X0351457Y0288465D01*
X0351457Y0280591D01*
X0363268Y0268780D01*
X0375079Y0256969D01*
X0386044Y0265826D02*
X0387421Y0265826D01*
X0391732Y0272717D02*
X0391732Y0291496D01*
X0386890Y0296339D01*
X0371142Y0296339D01*
X0363268Y0304213D01*
X0363268Y0323898D01*
X0368878Y0329508D01*
X0380610Y0329508D01*
X0378012Y0323399D02*
X0368991Y0323399D01*
X0367668Y0320200D02*
X0407332Y0320200D01*
X0407332Y0317002D02*
X0400008Y0317002D01*
X0397421Y0313366D02*
X0401732Y0309055D01*
X0401732Y0272717D01*
X0397421Y0265826D02*
X0396044Y0265826D01*
X0406044Y0265826D02*
X0407421Y0265826D01*
X0411732Y0272717D02*
X0411732Y0338425D01*
X0395846Y0354311D01*
X0380610Y0354311D01*
X0374305Y0352185D02*
X0355857Y0352185D01*
X0355857Y0348987D02*
X0376546Y0348987D01*
X0373972Y0355384D02*
X0355857Y0355384D01*
X0355857Y0358582D02*
X0375493Y0358582D01*
X0384674Y0348987D02*
X0394948Y0348987D01*
X0398147Y0345788D02*
X0355857Y0345788D01*
X0355857Y0342590D02*
X0401345Y0342590D01*
X0404544Y0339391D02*
X0355857Y0339391D01*
X0355857Y0336193D02*
X0407332Y0336193D01*
X0407332Y0332994D02*
X0386352Y0332994D01*
X0387249Y0329796D02*
X0407332Y0329796D01*
X0407332Y0326597D02*
X0386590Y0326597D01*
X0383209Y0323399D02*
X0407332Y0323399D01*
X0416132Y0323399D02*
X0417135Y0323399D01*
X0417135Y0320200D02*
X0416132Y0320200D01*
X0416132Y0317002D02*
X0417135Y0317002D01*
X0417135Y0313803D02*
X0416132Y0313803D01*
X0416132Y0310605D02*
X0417135Y0310605D01*
X0417135Y0307406D02*
X0416132Y0307406D01*
X0416132Y0304208D02*
X0417135Y0304208D01*
X0417135Y0301009D02*
X0416132Y0301009D01*
X0416132Y0297811D02*
X0417135Y0297811D01*
X0417325Y0294612D02*
X0416132Y0294612D01*
X0416132Y0291414D02*
X0419844Y0291414D01*
X0423043Y0288215D02*
X0416132Y0288215D01*
X0416132Y0285017D02*
X0426241Y0285017D01*
X0429440Y0281818D02*
X0416132Y0281818D01*
X0416808Y0278620D02*
X0419964Y0278620D01*
X0419239Y0275421D02*
X0417532Y0275421D01*
X0417532Y0272223D02*
X0419239Y0272223D01*
X0419239Y0269024D02*
X0417532Y0269024D01*
X0416044Y0265826D02*
X0420728Y0265826D01*
X0429351Y0265826D02*
X0430728Y0265826D01*
X0435039Y0272717D02*
X0435039Y0282441D01*
X0421535Y0295945D01*
X0421535Y0323504D01*
X0427539Y0329508D01*
X0432579Y0329508D01*
X0435177Y0323399D02*
X0450639Y0323399D01*
X0450639Y0326597D02*
X0438559Y0326597D01*
X0439217Y0329796D02*
X0450639Y0329796D01*
X0450639Y0332994D02*
X0438320Y0332994D01*
X0447851Y0339391D02*
X0416095Y0339391D01*
X0416132Y0336193D02*
X0450639Y0336193D01*
X0455039Y0338425D02*
X0439154Y0354311D01*
X0432579Y0354311D01*
X0426274Y0352185D02*
X0404195Y0352185D01*
X0407393Y0348987D02*
X0428515Y0348987D01*
X0425940Y0355384D02*
X0400996Y0355384D01*
X0397032Y0358582D02*
X0427462Y0358582D01*
X0440339Y0358582D02*
X0473918Y0358582D01*
X0472397Y0355384D02*
X0444303Y0355384D01*
X0447502Y0352185D02*
X0472730Y0352185D01*
X0474971Y0348987D02*
X0450700Y0348987D01*
X0453899Y0345788D02*
X0488698Y0345788D01*
X0491896Y0342590D02*
X0457097Y0342590D01*
X0459402Y0339391D02*
X0493946Y0339391D01*
X0493946Y0336193D02*
X0459439Y0336193D01*
X0459439Y0332994D02*
X0468504Y0332994D01*
X0471240Y0329508D02*
X0465630Y0323898D01*
X0465630Y0300276D01*
X0478346Y0287559D01*
X0478346Y0272717D01*
X0474035Y0265826D02*
X0472658Y0265826D01*
X0464035Y0265826D02*
X0459351Y0265826D01*
X0460839Y0269024D02*
X0462546Y0269024D01*
X0462546Y0272223D02*
X0460839Y0272223D01*
X0460839Y0275421D02*
X0462546Y0275421D01*
X0463271Y0278620D02*
X0460115Y0278620D01*
X0459439Y0281818D02*
X0473946Y0281818D01*
X0473946Y0285017D02*
X0459439Y0285017D01*
X0459439Y0288215D02*
X0471468Y0288215D01*
X0468269Y0291414D02*
X0459439Y0291414D01*
X0459439Y0294612D02*
X0465071Y0294612D01*
X0461888Y0297811D02*
X0459439Y0297811D01*
X0459439Y0301009D02*
X0461230Y0301009D01*
X0461230Y0304208D02*
X0459439Y0304208D01*
X0459439Y0307406D02*
X0461230Y0307406D01*
X0461230Y0310605D02*
X0459439Y0310605D01*
X0459439Y0313803D02*
X0461230Y0313803D01*
X0461230Y0317002D02*
X0459439Y0317002D01*
X0459439Y0320200D02*
X0461230Y0320200D01*
X0461230Y0323399D02*
X0459439Y0323399D01*
X0459439Y0326597D02*
X0462107Y0326597D01*
X0459439Y0329796D02*
X0465306Y0329796D01*
X0471240Y0329508D02*
X0479035Y0329508D01*
X0476437Y0323399D02*
X0471354Y0323399D01*
X0470030Y0320200D02*
X0493946Y0320200D01*
X0493946Y0317002D02*
X0484715Y0317002D01*
X0485674Y0313803D02*
X0493946Y0313803D01*
X0493946Y0310605D02*
X0488019Y0310605D01*
X0491218Y0307406D02*
X0493946Y0307406D01*
X0493946Y0304208D02*
X0492746Y0304208D01*
X0492746Y0301009D02*
X0493946Y0301009D01*
X0493946Y0297811D02*
X0492746Y0297811D01*
X0492746Y0294612D02*
X0493946Y0294612D01*
X0493946Y0291414D02*
X0492746Y0291414D01*
X0492746Y0288215D02*
X0493946Y0288215D01*
X0493946Y0285017D02*
X0492746Y0285017D01*
X0492746Y0281818D02*
X0493946Y0281818D01*
X0502746Y0281818D02*
X0517254Y0281818D01*
X0517254Y0285017D02*
X0502746Y0285017D01*
X0502746Y0288215D02*
X0517254Y0288215D01*
X0517254Y0291414D02*
X0502746Y0291414D01*
X0502746Y0294612D02*
X0517254Y0294612D01*
X0516990Y0297811D02*
X0502746Y0297811D01*
X0502746Y0301009D02*
X0513792Y0301009D01*
X0512411Y0304208D02*
X0502746Y0304208D01*
X0502746Y0307406D02*
X0512411Y0307406D01*
X0512411Y0310605D02*
X0502746Y0310605D01*
X0502746Y0313803D02*
X0512411Y0313803D01*
X0512411Y0317002D02*
X0502746Y0317002D01*
X0502746Y0320200D02*
X0512411Y0320200D01*
X0512411Y0323399D02*
X0502746Y0323399D01*
X0502746Y0326597D02*
X0513288Y0326597D01*
X0516811Y0323898D02*
X0522421Y0329508D01*
X0531004Y0329508D01*
X0528405Y0323399D02*
X0522535Y0323399D01*
X0521211Y0320200D02*
X0539970Y0320200D01*
X0539970Y0317002D02*
X0536684Y0317002D01*
X0537643Y0313803D02*
X0539970Y0313803D01*
X0539970Y0310605D02*
X0537046Y0310605D01*
X0536054Y0307406D02*
X0539970Y0307406D01*
X0539970Y0304208D02*
X0536054Y0304208D01*
X0536054Y0301009D02*
X0539970Y0301009D01*
X0539970Y0297811D02*
X0536054Y0297811D01*
X0536054Y0294612D02*
X0539970Y0294612D01*
X0537607Y0291414D02*
X0536054Y0291414D01*
X0536054Y0288215D02*
X0537254Y0288215D01*
X0537254Y0285017D02*
X0536054Y0285017D01*
X0536054Y0281818D02*
X0537254Y0281818D01*
X0527254Y0281818D02*
X0526054Y0281818D01*
X0526054Y0285017D02*
X0527254Y0285017D01*
X0527254Y0288215D02*
X0526054Y0288215D01*
X0526054Y0291414D02*
X0527254Y0291414D01*
X0527254Y0294612D02*
X0526054Y0294612D01*
X0526054Y0297811D02*
X0527254Y0297811D01*
X0527254Y0301009D02*
X0525737Y0301009D01*
X0527254Y0304208D02*
X0523038Y0304208D01*
X0521211Y0307406D02*
X0527254Y0307406D01*
X0524962Y0310605D02*
X0521211Y0310605D01*
X0521211Y0313803D02*
X0524365Y0313803D01*
X0525324Y0317002D02*
X0521211Y0317002D01*
X0516811Y0323898D02*
X0516811Y0304213D01*
X0521654Y0299370D01*
X0521654Y0272717D01*
X0525965Y0265826D02*
X0527342Y0265826D01*
X0531654Y0272717D02*
X0531654Y0312717D01*
X0531004Y0313366D01*
X0516487Y0329796D02*
X0502746Y0329796D01*
X0502746Y0332994D02*
X0519685Y0332994D01*
X0518691Y0332000D02*
X0518691Y0332000D01*
X0498346Y0342362D02*
X0486398Y0354311D01*
X0479035Y0354311D01*
X0483100Y0348987D02*
X0485499Y0348987D01*
X0498346Y0342362D02*
X0498346Y0272717D01*
X0504146Y0272223D02*
X0505854Y0272223D01*
X0505854Y0275421D02*
X0504146Y0275421D01*
X0503422Y0278620D02*
X0506578Y0278620D01*
X0488346Y0272717D02*
X0488346Y0304055D01*
X0479035Y0313366D01*
X0472994Y0310605D02*
X0470030Y0310605D01*
X0470030Y0313803D02*
X0472397Y0313803D01*
X0473356Y0317002D02*
X0470030Y0317002D01*
X0470030Y0307406D02*
X0476077Y0307406D01*
X0481971Y0304208D02*
X0470030Y0304208D01*
X0471119Y0301009D02*
X0483946Y0301009D01*
X0483946Y0297811D02*
X0474317Y0297811D01*
X0477516Y0294612D02*
X0483946Y0294612D01*
X0483946Y0291414D02*
X0480714Y0291414D01*
X0482746Y0288215D02*
X0483946Y0288215D01*
X0483946Y0285017D02*
X0482746Y0285017D01*
X0482746Y0281818D02*
X0483946Y0281818D01*
X0484035Y0265826D02*
X0482658Y0265826D01*
X0492658Y0265826D02*
X0494035Y0265826D01*
X0502658Y0265826D02*
X0507342Y0265826D01*
X0505854Y0269024D02*
X0504146Y0269024D01*
X0515965Y0265826D02*
X0517342Y0265826D01*
X0535965Y0265826D02*
X0537342Y0265826D01*
X0553616Y0262627D02*
X0621738Y0262627D01*
X0624482Y0262627D02*
X0633413Y0262627D01*
X0623956Y0265826D02*
X0622579Y0265826D01*
X0633343Y0278620D02*
X0635909Y0278620D01*
X0632668Y0281818D02*
X0640094Y0281818D01*
X0643437Y0285017D02*
X0632668Y0285017D01*
X0632668Y0288215D02*
X0641964Y0288215D01*
X0641964Y0287516D02*
X0642690Y0285763D01*
X0644031Y0284422D01*
X0645784Y0283696D01*
X0647681Y0283696D01*
X0649433Y0284422D01*
X0650775Y0285763D01*
X0651501Y0287516D01*
X0651501Y0289413D01*
X0650775Y0291166D01*
X0649433Y0292507D01*
X0647681Y0293233D01*
X0645784Y0293233D01*
X0644031Y0292507D01*
X0642690Y0291166D01*
X0641964Y0289413D01*
X0641964Y0287516D01*
X0642938Y0291414D02*
X0632668Y0291414D01*
X0635480Y0294612D02*
X0653232Y0294612D01*
X0652791Y0291414D02*
X0650527Y0291414D01*
X0651501Y0288215D02*
X0654143Y0288215D01*
X0654143Y0285017D02*
X0650028Y0285017D01*
X0653371Y0281818D02*
X0653548Y0281818D01*
X0654143Y0297811D02*
X0638679Y0297811D01*
X0641877Y0301009D02*
X0654143Y0301009D01*
X0654143Y0304208D02*
X0645076Y0304208D01*
X0647195Y0307406D02*
X0654143Y0307406D01*
X0654143Y0310605D02*
X0647195Y0310605D01*
X0647195Y0313803D02*
X0654143Y0313803D01*
X0654143Y0317002D02*
X0647195Y0317002D01*
X0647195Y0320200D02*
X0654143Y0320200D01*
X0654143Y0323399D02*
X0647195Y0323399D01*
X0647195Y0326597D02*
X0654143Y0326597D01*
X0654143Y0329796D02*
X0647195Y0329796D01*
X0647195Y0332994D02*
X0654143Y0332994D01*
X0653861Y0336193D02*
X0647195Y0336193D01*
X0647195Y0339391D02*
X0652791Y0339391D01*
X0653536Y0342590D02*
X0647195Y0342590D01*
X0647195Y0345788D02*
X0654143Y0345788D01*
X0654143Y0348987D02*
X0646950Y0348987D01*
X0644352Y0352185D02*
X0654143Y0352185D01*
X0654143Y0355384D02*
X0641154Y0355384D01*
X0637190Y0358582D02*
X0654143Y0358582D01*
X0654143Y0361781D02*
X0357068Y0361781D01*
X0356974Y0364979D02*
X0654143Y0364979D01*
X0654143Y0368178D02*
X0355857Y0368178D01*
X0355857Y0371376D02*
X0654143Y0371376D01*
X0654143Y0374575D02*
X0634081Y0374575D01*
X0633190Y0373683D02*
X0635057Y0375551D01*
X0636068Y0377991D01*
X0636068Y0380632D01*
X0635057Y0383071D01*
X0633190Y0384939D01*
X0630750Y0385950D01*
X0628109Y0385950D01*
X0625669Y0384939D01*
X0624441Y0383711D01*
X0604952Y0383711D01*
X0602313Y0386350D01*
X0602313Y0412489D01*
X0603784Y0413960D01*
X0604838Y0416505D01*
X0604838Y0427510D01*
X0603784Y0430056D01*
X0601836Y0432004D01*
X0599291Y0433058D01*
X0596536Y0433058D01*
X0593991Y0432004D01*
X0592043Y0430056D01*
X0590988Y0427510D01*
X0590988Y0416505D01*
X0592043Y0413960D01*
X0593513Y0412489D01*
X0593513Y0383652D01*
X0594183Y0382035D01*
X0595421Y0380797D01*
X0600638Y0375581D01*
X0602255Y0374911D01*
X0624441Y0374911D01*
X0625669Y0373683D01*
X0628109Y0372672D01*
X0630750Y0372672D01*
X0633190Y0373683D01*
X0635978Y0377773D02*
X0654143Y0377773D01*
X0654143Y0380972D02*
X0635927Y0380972D01*
X0633958Y0384170D02*
X0653443Y0384170D01*
X0652791Y0387369D02*
X0602313Y0387369D01*
X0602313Y0390567D02*
X0654085Y0390567D01*
X0654143Y0393766D02*
X0602313Y0393766D01*
X0602313Y0396965D02*
X0654143Y0396965D01*
X0654143Y0400163D02*
X0602313Y0400163D01*
X0602313Y0403362D02*
X0654143Y0403362D01*
X0654143Y0406560D02*
X0602313Y0406560D01*
X0602313Y0409759D02*
X0645595Y0409759D01*
X0645784Y0409680D02*
X0647681Y0409680D01*
X0649433Y0410406D01*
X0650775Y0411748D01*
X0651501Y0413500D01*
X0651501Y0415397D01*
X0650775Y0417150D01*
X0649433Y0418491D01*
X0647681Y0419217D01*
X0645784Y0419217D01*
X0644031Y0418491D01*
X0642690Y0417150D01*
X0641964Y0415397D01*
X0641964Y0413500D01*
X0642690Y0411748D01*
X0644031Y0410406D01*
X0645784Y0409680D01*
X0647870Y0409759D02*
X0652791Y0409759D01*
X0653329Y0412957D02*
X0651276Y0412957D01*
X0651187Y0416156D02*
X0654143Y0416156D01*
X0654143Y0419354D02*
X0624426Y0419354D01*
X0624426Y0417456D02*
X0624426Y0422008D01*
X0624426Y0426560D01*
X0624314Y0427406D01*
X0624093Y0428231D01*
X0623767Y0429019D01*
X0623340Y0429759D01*
X0622820Y0430436D01*
X0622217Y0431040D01*
X0621539Y0431559D01*
X0620800Y0431986D01*
X0620011Y0432313D01*
X0619187Y0432534D01*
X0618340Y0432645D01*
X0617913Y0432645D01*
X0617487Y0432645D01*
X0616640Y0432534D01*
X0615816Y0432313D01*
X0615027Y0431986D01*
X0614288Y0431559D01*
X0613610Y0431040D01*
X0613007Y0430436D01*
X0612487Y0429759D01*
X0612060Y0429019D01*
X0611733Y0428231D01*
X0611512Y0427406D01*
X0611401Y0426560D01*
X0611401Y0422008D01*
X0617913Y0422008D01*
X0617913Y0422008D01*
X0611401Y0422008D01*
X0611401Y0417456D01*
X0611512Y0416610D01*
X0611733Y0415785D01*
X0612060Y0414996D01*
X0612487Y0414257D01*
X0613007Y0413580D01*
X0613610Y0412976D01*
X0614288Y0412456D01*
X0615027Y0412030D01*
X0615816Y0411703D01*
X0616640Y0411482D01*
X0617487Y0411370D01*
X0617913Y0411370D01*
X0617913Y0422008D01*
X0617913Y0432645D01*
X0617913Y0422008D01*
X0617913Y0422008D01*
X0617913Y0422008D01*
X0617913Y0411370D01*
X0618340Y0411370D01*
X0619187Y0411482D01*
X0620011Y0411703D01*
X0620800Y0412030D01*
X0621539Y0412456D01*
X0622217Y0412976D01*
X0622820Y0413580D01*
X0623340Y0414257D01*
X0623767Y0414996D01*
X0624093Y0415785D01*
X0624314Y0416610D01*
X0624426Y0417456D01*
X0624193Y0416156D02*
X0642278Y0416156D01*
X0642189Y0412957D02*
X0622192Y0412957D01*
X0617913Y0412957D02*
X0617913Y0412957D01*
X0617913Y0416156D02*
X0617913Y0416156D01*
X0617913Y0419354D02*
X0617913Y0419354D01*
X0617914Y0422008D02*
X0617914Y0422008D01*
X0624426Y0422008D01*
X0617914Y0422008D01*
X0617913Y0422553D02*
X0617913Y0422553D01*
X0617913Y0425751D02*
X0617913Y0425751D01*
X0617913Y0428950D02*
X0617913Y0428950D01*
X0617913Y0432148D02*
X0617913Y0432148D01*
X0615418Y0432148D02*
X0601487Y0432148D01*
X0604242Y0428950D02*
X0612031Y0428950D01*
X0611401Y0425751D02*
X0604838Y0425751D01*
X0604838Y0422553D02*
X0611401Y0422553D01*
X0611401Y0419354D02*
X0604838Y0419354D01*
X0604693Y0416156D02*
X0611634Y0416156D01*
X0613635Y0412957D02*
X0602781Y0412957D01*
X0593046Y0412957D02*
X0582781Y0412957D01*
X0581836Y0412012D02*
X0583784Y0413960D01*
X0584838Y0416505D01*
X0584838Y0427510D01*
X0583784Y0430056D01*
X0581836Y0432004D01*
X0579291Y0433058D01*
X0576536Y0433058D01*
X0573991Y0432004D01*
X0572043Y0430056D01*
X0570988Y0427510D01*
X0570988Y0416505D01*
X0572043Y0413960D01*
X0573991Y0412012D01*
X0576536Y0410958D01*
X0579291Y0410958D01*
X0581836Y0412012D01*
X0584693Y0416156D02*
X0591133Y0416156D01*
X0590988Y0419354D02*
X0584838Y0419354D01*
X0584838Y0422553D02*
X0590988Y0422553D01*
X0590988Y0425751D02*
X0584838Y0425751D01*
X0584242Y0428950D02*
X0591585Y0428950D01*
X0594340Y0432148D02*
X0581487Y0432148D01*
X0574340Y0432148D02*
X0551905Y0432148D01*
X0552296Y0431986D02*
X0551507Y0432313D01*
X0550683Y0432534D01*
X0549836Y0432645D01*
X0549409Y0432645D01*
X0548983Y0432645D01*
X0548136Y0432534D01*
X0547312Y0432313D01*
X0546523Y0431986D01*
X0545784Y0431559D01*
X0545106Y0431040D01*
X0544503Y0430436D01*
X0543983Y0429759D01*
X0543556Y0429019D01*
X0543229Y0428231D01*
X0543008Y0427406D01*
X0542897Y0426560D01*
X0542897Y0422008D01*
X0549409Y0422008D01*
X0549409Y0422008D01*
X0542897Y0422008D01*
X0542897Y0417456D01*
X0543008Y0416610D01*
X0543229Y0415785D01*
X0543556Y0414996D01*
X0543983Y0414257D01*
X0544503Y0413580D01*
X0545106Y0412976D01*
X0545784Y0412456D01*
X0546523Y0412030D01*
X0547312Y0411703D01*
X0548136Y0411482D01*
X0548983Y0411370D01*
X0549409Y0411370D01*
X0549409Y0422008D01*
X0549409Y0432645D01*
X0549409Y0422008D01*
X0549409Y0422008D01*
X0549409Y0422008D01*
X0549409Y0411370D01*
X0549836Y0411370D01*
X0550683Y0411482D01*
X0551507Y0411703D01*
X0552296Y0412030D01*
X0553035Y0412456D01*
X0553713Y0412976D01*
X0554316Y0413580D01*
X0554836Y0414257D01*
X0555263Y0414996D01*
X0555589Y0415785D01*
X0555810Y0416610D01*
X0555922Y0417456D01*
X0555922Y0422008D01*
X0555922Y0426560D01*
X0555810Y0427406D01*
X0555589Y0428231D01*
X0555263Y0429019D01*
X0554836Y0429759D01*
X0554316Y0430436D01*
X0553713Y0431040D01*
X0553035Y0431559D01*
X0552296Y0431986D01*
X0549409Y0432148D02*
X0549409Y0432148D01*
X0546914Y0432148D02*
X0532983Y0432148D01*
X0533332Y0432004D02*
X0530787Y0433058D01*
X0528032Y0433058D01*
X0525487Y0432004D01*
X0523539Y0430056D01*
X0522484Y0427510D01*
X0522484Y0416505D01*
X0523539Y0413960D01*
X0525009Y0412489D01*
X0525009Y0382186D01*
X0524365Y0380632D01*
X0524365Y0377991D01*
X0525376Y0375551D01*
X0527243Y0373683D01*
X0529683Y0372672D01*
X0532324Y0372672D01*
X0534764Y0373683D01*
X0536632Y0375551D01*
X0537643Y0377991D01*
X0537643Y0380632D01*
X0536632Y0383071D01*
X0534764Y0384939D01*
X0533809Y0385334D01*
X0533809Y0412489D01*
X0535280Y0413960D01*
X0536334Y0416505D01*
X0536334Y0427510D01*
X0535280Y0430056D01*
X0533332Y0432004D01*
X0535738Y0428950D02*
X0543527Y0428950D01*
X0542897Y0425751D02*
X0536334Y0425751D01*
X0536334Y0422553D02*
X0542897Y0422553D01*
X0542897Y0419354D02*
X0536334Y0419354D01*
X0536190Y0416156D02*
X0543130Y0416156D01*
X0545131Y0412957D02*
X0534277Y0412957D01*
X0533809Y0409759D02*
X0593513Y0409759D01*
X0593513Y0406560D02*
X0533809Y0406560D01*
X0533809Y0403362D02*
X0593513Y0403362D01*
X0593513Y0400163D02*
X0533809Y0400163D01*
X0533809Y0396965D02*
X0593513Y0396965D01*
X0593513Y0393766D02*
X0533809Y0393766D01*
X0533809Y0390567D02*
X0593513Y0390567D01*
X0593513Y0387369D02*
X0533809Y0387369D01*
X0535533Y0384170D02*
X0572932Y0384170D01*
X0573700Y0384939D02*
X0571833Y0383071D01*
X0570822Y0380632D01*
X0570822Y0377991D01*
X0571833Y0375551D01*
X0573700Y0373683D01*
X0576140Y0372672D01*
X0578781Y0372672D01*
X0581221Y0373683D01*
X0583089Y0375551D01*
X0584099Y0377991D01*
X0584099Y0380632D01*
X0583089Y0383071D01*
X0581221Y0384939D01*
X0578781Y0385950D01*
X0576140Y0385950D01*
X0573700Y0384939D01*
X0570963Y0380972D02*
X0537502Y0380972D01*
X0537553Y0377773D02*
X0570912Y0377773D01*
X0572808Y0374575D02*
X0535656Y0374575D01*
X0531004Y0379311D02*
X0529409Y0380906D01*
X0529409Y0422008D01*
X0522484Y0422553D02*
X0516334Y0422553D01*
X0516334Y0425751D02*
X0522484Y0425751D01*
X0523081Y0428950D02*
X0515738Y0428950D01*
X0515280Y0430056D02*
X0513332Y0432004D01*
X0510787Y0433058D01*
X0508032Y0433058D01*
X0505487Y0432004D01*
X0503539Y0430056D01*
X0502484Y0427510D01*
X0502484Y0416505D01*
X0503539Y0413960D01*
X0505487Y0412012D01*
X0508032Y0410958D01*
X0510787Y0410958D01*
X0513332Y0412012D01*
X0515280Y0413960D01*
X0516334Y0416505D01*
X0516334Y0427510D01*
X0515280Y0430056D01*
X0512983Y0432148D02*
X0525836Y0432148D01*
X0522484Y0419354D02*
X0516334Y0419354D01*
X0516190Y0416156D02*
X0522629Y0416156D01*
X0524542Y0412957D02*
X0514277Y0412957D01*
X0504542Y0412957D02*
X0485184Y0412957D01*
X0485209Y0412976D02*
X0485812Y0413580D01*
X0486332Y0414257D01*
X0486759Y0414996D01*
X0487086Y0415785D01*
X0487306Y0416610D01*
X0487418Y0417456D01*
X0487418Y0422008D01*
X0487418Y0426560D01*
X0487306Y0427406D01*
X0487086Y0428231D01*
X0486759Y0429019D01*
X0486332Y0429759D01*
X0485812Y0430436D01*
X0485209Y0431040D01*
X0484531Y0431559D01*
X0483792Y0431986D01*
X0483003Y0432313D01*
X0482179Y0432534D01*
X0481332Y0432645D01*
X0480906Y0432645D01*
X0480906Y0422008D01*
X0487418Y0422008D01*
X0480906Y0422008D01*
X0480906Y0422008D01*
X0480905Y0422008D01*
X0480905Y0422008D01*
X0474393Y0422008D01*
X0474393Y0426560D01*
X0474505Y0427406D01*
X0474725Y0428231D01*
X0475052Y0429019D01*
X0475479Y0429759D01*
X0475999Y0430436D01*
X0476602Y0431040D01*
X0477280Y0431559D01*
X0478019Y0431986D01*
X0478808Y0432313D01*
X0479632Y0432534D01*
X0480479Y0432645D01*
X0480905Y0432645D01*
X0480905Y0422008D01*
X0474393Y0422008D01*
X0474393Y0417456D01*
X0474505Y0416610D01*
X0474725Y0415785D01*
X0475052Y0414996D01*
X0475479Y0414257D01*
X0475999Y0413580D01*
X0476602Y0412976D01*
X0477280Y0412456D01*
X0478019Y0412030D01*
X0478808Y0411703D01*
X0479632Y0411482D01*
X0480479Y0411370D01*
X0480905Y0411370D01*
X0480905Y0422008D01*
X0480906Y0422008D01*
X0480906Y0411370D01*
X0481332Y0411370D01*
X0482179Y0411482D01*
X0483003Y0411703D01*
X0483792Y0412030D01*
X0484531Y0412456D01*
X0485209Y0412976D01*
X0487185Y0416156D02*
X0502629Y0416156D01*
X0502484Y0419354D02*
X0487418Y0419354D01*
X0487418Y0422553D02*
X0502484Y0422553D01*
X0502484Y0425751D02*
X0487418Y0425751D01*
X0486788Y0428950D02*
X0503081Y0428950D01*
X0505836Y0432148D02*
X0483401Y0432148D01*
X0480906Y0432148D02*
X0480905Y0432148D01*
X0478410Y0432148D02*
X0464479Y0432148D01*
X0464828Y0432004D02*
X0462283Y0433058D01*
X0459528Y0433058D01*
X0456983Y0432004D01*
X0455035Y0430056D01*
X0453981Y0427510D01*
X0453981Y0416505D01*
X0455035Y0413960D01*
X0456506Y0412489D01*
X0456506Y0395799D01*
X0444418Y0383711D01*
X0437567Y0383711D01*
X0436339Y0384939D01*
X0433899Y0385950D01*
X0431258Y0385950D01*
X0428818Y0384939D01*
X0426951Y0383071D01*
X0425940Y0380632D01*
X0425940Y0377991D01*
X0426951Y0375551D01*
X0428818Y0373683D01*
X0431258Y0372672D01*
X0433899Y0372672D01*
X0436339Y0373683D01*
X0437567Y0374911D01*
X0447115Y0374911D01*
X0448733Y0375581D01*
X0463398Y0390246D01*
X0464636Y0391484D01*
X0465305Y0393101D01*
X0465305Y0412489D01*
X0466776Y0413960D01*
X0467830Y0416505D01*
X0467830Y0427510D01*
X0466776Y0430056D01*
X0464828Y0432004D01*
X0467234Y0428950D02*
X0475023Y0428950D01*
X0474393Y0425751D02*
X0467830Y0425751D01*
X0467830Y0422553D02*
X0474393Y0422553D01*
X0474393Y0419354D02*
X0467830Y0419354D01*
X0467686Y0416156D02*
X0474626Y0416156D01*
X0476627Y0412957D02*
X0465773Y0412957D01*
X0465305Y0409759D02*
X0525009Y0409759D01*
X0525009Y0406560D02*
X0465305Y0406560D01*
X0465305Y0403362D02*
X0525009Y0403362D01*
X0525009Y0400163D02*
X0465305Y0400163D01*
X0465305Y0396965D02*
X0525009Y0396965D01*
X0525009Y0393766D02*
X0465305Y0393766D01*
X0463719Y0390567D02*
X0525009Y0390567D01*
X0525009Y0387369D02*
X0460521Y0387369D01*
X0457322Y0384170D02*
X0474507Y0384170D01*
X0475275Y0384939D02*
X0473408Y0383071D01*
X0472397Y0380632D01*
X0472397Y0377991D01*
X0473408Y0375551D01*
X0475275Y0373683D01*
X0477715Y0372672D01*
X0480356Y0372672D01*
X0482796Y0373683D01*
X0484663Y0375551D01*
X0485674Y0377991D01*
X0485674Y0380632D01*
X0484663Y0383071D01*
X0482796Y0384939D01*
X0480356Y0385950D01*
X0477715Y0385950D01*
X0475275Y0384939D01*
X0472538Y0380972D02*
X0454124Y0380972D01*
X0450925Y0377773D02*
X0472487Y0377773D01*
X0474383Y0374575D02*
X0437231Y0374575D01*
X0432579Y0379311D02*
X0446240Y0379311D01*
X0460906Y0393976D01*
X0460906Y0422008D01*
X0453981Y0422553D02*
X0447830Y0422553D01*
X0447830Y0425751D02*
X0453981Y0425751D01*
X0454577Y0428950D02*
X0447234Y0428950D01*
X0446776Y0430056D02*
X0444828Y0432004D01*
X0442283Y0433058D01*
X0439528Y0433058D01*
X0436983Y0432004D01*
X0435035Y0430056D01*
X0433981Y0427510D01*
X0433981Y0416505D01*
X0435035Y0413960D01*
X0436983Y0412012D01*
X0439528Y0410958D01*
X0442283Y0410958D01*
X0444828Y0412012D01*
X0446776Y0413960D01*
X0447830Y0416505D01*
X0447830Y0427510D01*
X0446776Y0430056D01*
X0444479Y0432148D02*
X0457332Y0432148D01*
X0453981Y0419354D02*
X0447830Y0419354D01*
X0447686Y0416156D02*
X0454125Y0416156D01*
X0456038Y0412957D02*
X0445773Y0412957D01*
X0436038Y0412957D02*
X0416916Y0412957D01*
X0416941Y0412976D02*
X0417545Y0413580D01*
X0418064Y0414257D01*
X0418491Y0414996D01*
X0418818Y0415785D01*
X0419039Y0416610D01*
X0419150Y0417456D01*
X0419150Y0422008D01*
X0419150Y0426560D01*
X0419039Y0427406D01*
X0418818Y0428231D01*
X0418491Y0429019D01*
X0418064Y0429759D01*
X0417545Y0430436D01*
X0416941Y0431040D01*
X0416264Y0431559D01*
X0415524Y0431986D01*
X0414736Y0432313D01*
X0413911Y0432534D01*
X0413065Y0432645D01*
X0412638Y0432645D01*
X0412638Y0422008D01*
X0419150Y0422008D01*
X0412638Y0422008D01*
X0412638Y0422008D01*
X0412638Y0422008D01*
X0412638Y0432645D01*
X0412211Y0432645D01*
X0411365Y0432534D01*
X0410540Y0432313D01*
X0409751Y0431986D01*
X0409012Y0431559D01*
X0408335Y0431040D01*
X0407731Y0430436D01*
X0407211Y0429759D01*
X0406784Y0429019D01*
X0406458Y0428231D01*
X0406237Y0427406D01*
X0406125Y0426560D01*
X0406125Y0422008D01*
X0412638Y0422008D01*
X0412638Y0411370D01*
X0413065Y0411370D01*
X0413911Y0411482D01*
X0414736Y0411703D01*
X0415524Y0412030D01*
X0416264Y0412456D01*
X0416941Y0412976D01*
X0418917Y0416156D02*
X0434125Y0416156D01*
X0433981Y0419354D02*
X0419150Y0419354D01*
X0419150Y0422553D02*
X0433981Y0422553D01*
X0433981Y0425751D02*
X0419150Y0425751D01*
X0418520Y0428950D02*
X0434577Y0428950D01*
X0437332Y0432148D02*
X0415133Y0432148D01*
X0412638Y0432148D02*
X0412638Y0432148D01*
X0410142Y0432148D02*
X0396212Y0432148D01*
X0396560Y0432004D02*
X0394015Y0433058D01*
X0391260Y0433058D01*
X0388715Y0432004D01*
X0386767Y0430056D01*
X0385713Y0427510D01*
X0385713Y0416505D01*
X0386767Y0413960D01*
X0388715Y0412012D01*
X0391260Y0410958D01*
X0394015Y0410958D01*
X0396560Y0412012D01*
X0398509Y0413960D01*
X0399563Y0416505D01*
X0399563Y0427510D01*
X0398509Y0430056D01*
X0396560Y0432004D01*
X0398967Y0428950D02*
X0406756Y0428950D01*
X0406125Y0425751D02*
X0399563Y0425751D01*
X0399563Y0422553D02*
X0406125Y0422553D01*
X0406125Y0422008D02*
X0406125Y0417456D01*
X0406237Y0416610D01*
X0406458Y0415785D01*
X0406784Y0414996D01*
X0407211Y0414257D01*
X0407731Y0413580D01*
X0408335Y0412976D01*
X0409012Y0412456D01*
X0409751Y0412030D01*
X0410540Y0411703D01*
X0411365Y0411482D01*
X0412211Y0411370D01*
X0412638Y0411370D01*
X0412638Y0422008D01*
X0412638Y0422008D01*
X0412638Y0422008D01*
X0406125Y0422008D01*
X0406125Y0419354D02*
X0399563Y0419354D01*
X0399418Y0416156D02*
X0406358Y0416156D01*
X0408359Y0412957D02*
X0397505Y0412957D01*
X0387770Y0412957D02*
X0367811Y0412957D01*
X0368036Y0413500D02*
X0367310Y0411748D01*
X0365969Y0410406D01*
X0364216Y0409680D01*
X0362319Y0409680D01*
X0360567Y0410406D01*
X0359225Y0411748D01*
X0358499Y0413500D01*
X0358499Y0415397D01*
X0359225Y0417150D01*
X0360567Y0418491D01*
X0362319Y0419217D01*
X0364216Y0419217D01*
X0365969Y0418491D01*
X0367310Y0417150D01*
X0368036Y0415397D01*
X0368036Y0413500D01*
X0367722Y0416156D02*
X0385858Y0416156D01*
X0385713Y0419354D02*
X0355857Y0419354D01*
X0355857Y0416156D02*
X0358813Y0416156D01*
X0358724Y0412957D02*
X0356671Y0412957D01*
X0357209Y0409759D02*
X0362130Y0409759D01*
X0364405Y0409759D02*
X0456506Y0409759D01*
X0456506Y0406560D02*
X0355857Y0406560D01*
X0355857Y0403362D02*
X0456506Y0403362D01*
X0456506Y0400163D02*
X0355857Y0400163D01*
X0355857Y0396965D02*
X0456506Y0396965D01*
X0454473Y0393766D02*
X0355857Y0393766D01*
X0355857Y0390567D02*
X0451274Y0390567D01*
X0448076Y0387369D02*
X0355857Y0387369D01*
X0355857Y0384170D02*
X0376081Y0384170D01*
X0376850Y0384939D02*
X0374982Y0383071D01*
X0373972Y0380632D01*
X0373972Y0377991D01*
X0374982Y0375551D01*
X0376850Y0373683D01*
X0379290Y0372672D01*
X0381931Y0372672D01*
X0384371Y0373683D01*
X0386238Y0375551D01*
X0387249Y0377991D01*
X0387249Y0380632D01*
X0386238Y0383071D01*
X0384371Y0384939D01*
X0381931Y0385950D01*
X0379290Y0385950D01*
X0376850Y0384939D01*
X0374113Y0380972D02*
X0355857Y0380972D01*
X0355857Y0377773D02*
X0374062Y0377773D01*
X0375958Y0374575D02*
X0355857Y0374575D01*
X0385262Y0374575D02*
X0427926Y0374575D01*
X0426030Y0377773D02*
X0387159Y0377773D01*
X0387108Y0380972D02*
X0426081Y0380972D01*
X0428050Y0384170D02*
X0385139Y0384170D01*
X0412638Y0412957D02*
X0412638Y0412957D01*
X0412638Y0416156D02*
X0412638Y0416156D01*
X0412638Y0419354D02*
X0412638Y0419354D01*
X0412638Y0422553D02*
X0412638Y0422553D01*
X0412638Y0425751D02*
X0412638Y0425751D01*
X0412638Y0428950D02*
X0412638Y0428950D01*
X0389064Y0432148D02*
X0377862Y0432148D01*
X0377879Y0435347D02*
X0632121Y0435347D01*
X0632138Y0432148D02*
X0620409Y0432148D01*
X0623796Y0428950D02*
X0632995Y0428950D01*
X0634701Y0425751D02*
X0624426Y0425751D01*
X0624426Y0422553D02*
X0637650Y0422553D01*
X0632788Y0438545D02*
X0377212Y0438545D01*
X0377005Y0428950D02*
X0386309Y0428950D01*
X0385713Y0425751D02*
X0375299Y0425751D01*
X0372350Y0422553D02*
X0385713Y0422553D01*
X0437108Y0384170D02*
X0444877Y0384170D01*
X0438255Y0348987D02*
X0436643Y0348987D01*
X0441454Y0345788D02*
X0410592Y0345788D01*
X0413790Y0342590D02*
X0444652Y0342590D01*
X0455039Y0338425D02*
X0455039Y0272717D01*
X0450728Y0265826D02*
X0449351Y0265826D01*
X0445039Y0272717D02*
X0445039Y0300906D01*
X0432579Y0313366D01*
X0426537Y0310605D02*
X0425935Y0310605D01*
X0425935Y0313803D02*
X0425940Y0313803D01*
X0425935Y0317002D02*
X0426899Y0317002D01*
X0425935Y0320200D02*
X0450639Y0320200D01*
X0450639Y0317002D02*
X0438258Y0317002D01*
X0439217Y0313803D02*
X0450639Y0313803D01*
X0450639Y0310605D02*
X0441563Y0310605D01*
X0444761Y0307406D02*
X0450639Y0307406D01*
X0450639Y0304208D02*
X0447960Y0304208D01*
X0449439Y0301009D02*
X0450639Y0301009D01*
X0450639Y0297811D02*
X0449439Y0297811D01*
X0449439Y0294612D02*
X0450639Y0294612D01*
X0450639Y0291414D02*
X0449439Y0291414D01*
X0449439Y0288215D02*
X0450639Y0288215D01*
X0450639Y0285017D02*
X0449439Y0285017D01*
X0449439Y0281818D02*
X0450639Y0281818D01*
X0440639Y0281818D02*
X0439439Y0281818D01*
X0438686Y0285017D02*
X0440639Y0285017D01*
X0440639Y0288215D02*
X0435488Y0288215D01*
X0432289Y0291414D02*
X0440639Y0291414D01*
X0440639Y0294612D02*
X0429091Y0294612D01*
X0425935Y0297811D02*
X0440639Y0297811D01*
X0438713Y0301009D02*
X0425935Y0301009D01*
X0425935Y0304208D02*
X0435515Y0304208D01*
X0429620Y0307406D02*
X0425935Y0307406D01*
X0427653Y0323399D02*
X0429980Y0323399D01*
X0421605Y0329796D02*
X0416132Y0329796D01*
X0416132Y0332994D02*
X0424803Y0332994D01*
X0418406Y0326597D02*
X0416132Y0326597D01*
X0407332Y0313803D02*
X0403207Y0313803D01*
X0405853Y0310605D02*
X0407332Y0310605D01*
X0407332Y0307406D02*
X0406132Y0307406D01*
X0406132Y0304208D02*
X0407332Y0304208D01*
X0407332Y0301009D02*
X0406132Y0301009D01*
X0406132Y0297811D02*
X0407332Y0297811D01*
X0407332Y0294612D02*
X0406132Y0294612D01*
X0406132Y0291414D02*
X0407332Y0291414D01*
X0407332Y0288215D02*
X0406132Y0288215D01*
X0406132Y0285017D02*
X0407332Y0285017D01*
X0407332Y0281818D02*
X0406132Y0281818D01*
X0397332Y0281818D02*
X0396132Y0281818D01*
X0396132Y0285017D02*
X0397332Y0285017D01*
X0397332Y0288215D02*
X0396132Y0288215D01*
X0396132Y0291414D02*
X0397332Y0291414D01*
X0397332Y0294612D02*
X0394839Y0294612D01*
X0397332Y0297811D02*
X0391640Y0297811D01*
X0390620Y0298831D02*
X0390620Y0298831D01*
X0397332Y0301009D02*
X0372694Y0301009D01*
X0369495Y0304208D02*
X0397332Y0304208D01*
X0397159Y0307406D02*
X0383569Y0307406D01*
X0377651Y0307406D02*
X0367668Y0307406D01*
X0367668Y0310605D02*
X0374569Y0310605D01*
X0373972Y0313803D02*
X0367668Y0313803D01*
X0367668Y0317002D02*
X0374931Y0317002D01*
X0380610Y0313366D02*
X0397421Y0313366D01*
X0367412Y0293846D02*
X0367412Y0293846D01*
X0366646Y0294612D02*
X0355857Y0294612D01*
X0355857Y0297811D02*
X0363447Y0297811D01*
X0360249Y0301009D02*
X0355857Y0301009D01*
X0355857Y0304208D02*
X0358868Y0304208D01*
X0358868Y0307406D02*
X0355857Y0307406D01*
X0355857Y0310605D02*
X0358868Y0310605D01*
X0358868Y0313803D02*
X0356764Y0313803D01*
X0357209Y0317002D02*
X0358868Y0317002D01*
X0358868Y0320200D02*
X0355857Y0320200D01*
X0355857Y0323399D02*
X0358868Y0323399D01*
X0359745Y0326597D02*
X0355857Y0326597D01*
X0355857Y0329796D02*
X0362943Y0329796D01*
X0365148Y0332000D02*
X0365148Y0332000D01*
X0366142Y0332994D02*
X0355857Y0332994D01*
X0362319Y0293233D02*
X0360567Y0292507D01*
X0359225Y0291166D01*
X0358499Y0289413D01*
X0358499Y0287516D01*
X0359225Y0285763D01*
X0360567Y0284422D01*
X0362319Y0283696D01*
X0364216Y0283696D01*
X0365969Y0284422D01*
X0367310Y0285763D01*
X0368036Y0287516D01*
X0368036Y0289413D01*
X0367310Y0291166D01*
X0365969Y0292507D01*
X0364216Y0293233D01*
X0362319Y0293233D01*
X0359473Y0291414D02*
X0356462Y0291414D01*
X0357209Y0288215D02*
X0358499Y0288215D01*
X0359972Y0285017D02*
X0356144Y0285017D01*
X0356452Y0281818D02*
X0356629Y0281818D01*
X0366563Y0285017D02*
X0387332Y0285017D01*
X0387332Y0288215D02*
X0368036Y0288215D01*
X0367062Y0291414D02*
X0385592Y0291414D01*
X0387332Y0281818D02*
X0369906Y0281818D01*
X0374091Y0278620D02*
X0376657Y0278620D01*
X0481634Y0323399D02*
X0493946Y0323399D01*
X0493946Y0326597D02*
X0485015Y0326597D01*
X0485674Y0329796D02*
X0493946Y0329796D01*
X0493946Y0332994D02*
X0484777Y0332994D01*
X0483688Y0374575D02*
X0526352Y0374575D01*
X0524455Y0377773D02*
X0485584Y0377773D01*
X0485533Y0380972D02*
X0524506Y0380972D01*
X0525009Y0384170D02*
X0483564Y0384170D01*
X0480905Y0412957D02*
X0480906Y0412957D01*
X0480905Y0416156D02*
X0480906Y0416156D01*
X0480905Y0419354D02*
X0480906Y0419354D01*
X0480905Y0422553D02*
X0480906Y0422553D01*
X0480905Y0425751D02*
X0480906Y0425751D01*
X0480905Y0428950D02*
X0480906Y0428950D01*
X0549409Y0428950D02*
X0549409Y0428950D01*
X0549409Y0425751D02*
X0549409Y0425751D01*
X0549409Y0422553D02*
X0549409Y0422553D01*
X0549410Y0422008D02*
X0555922Y0422008D01*
X0549410Y0422008D01*
X0549410Y0422008D01*
X0549409Y0419354D02*
X0549409Y0419354D01*
X0549409Y0416156D02*
X0549409Y0416156D01*
X0549409Y0412957D02*
X0549409Y0412957D01*
X0553688Y0412957D02*
X0573046Y0412957D01*
X0571133Y0416156D02*
X0555689Y0416156D01*
X0555922Y0419354D02*
X0570988Y0419354D01*
X0570988Y0422553D02*
X0555922Y0422553D01*
X0555922Y0425751D02*
X0570988Y0425751D01*
X0571585Y0428950D02*
X0555292Y0428950D01*
X0597913Y0422008D02*
X0597913Y0384528D01*
X0603130Y0379311D01*
X0629429Y0379311D01*
X0624777Y0374575D02*
X0582113Y0374575D01*
X0584009Y0377773D02*
X0598445Y0377773D01*
X0595246Y0380972D02*
X0583958Y0380972D01*
X0581990Y0384170D02*
X0593513Y0384170D01*
X0604493Y0384170D02*
X0624900Y0384170D01*
X0583924Y0348987D02*
X0581525Y0348987D01*
X0587123Y0345788D02*
X0545328Y0345788D01*
X0580419Y0307406D02*
X0584648Y0307406D01*
X0581450Y0304208D02*
X0579361Y0304208D01*
X0579361Y0301009D02*
X0580561Y0301009D01*
X0580561Y0297811D02*
X0579361Y0297811D01*
X0579361Y0294612D02*
X0580561Y0294612D01*
X0580561Y0291414D02*
X0579361Y0291414D01*
X0579361Y0288215D02*
X0580561Y0288215D01*
X0580561Y0285017D02*
X0579361Y0285017D01*
X0579361Y0281818D02*
X0580561Y0281818D01*
X0580649Y0265826D02*
X0579272Y0265826D01*
X0589272Y0265826D02*
X0593956Y0265826D01*
X0592468Y0269024D02*
X0590761Y0269024D01*
X0602579Y0265826D02*
X0603956Y0265826D01*
X0560649Y0265826D02*
X0559272Y0265826D01*
X0596014Y0323399D02*
X0608515Y0323399D01*
X0611713Y0326597D02*
X0596014Y0326597D01*
X0596014Y0329796D02*
X0614912Y0329796D01*
X0618110Y0332994D02*
X0596014Y0332994D01*
D17*
X0658543Y0339646D03*
X0658543Y0292402D03*
X0623110Y0256969D03*
X0552244Y0256969D03*
X0493189Y0256969D03*
X0438071Y0256969D03*
X0382953Y0256969D03*
X0351457Y0288465D03*
X0351457Y0316024D03*
X0351457Y0363268D03*
X0351457Y0410512D03*
X0386890Y0445945D03*
X0445945Y0445945D03*
X0497126Y0445945D03*
X0560118Y0445945D03*
X0623110Y0445945D03*
X0658543Y0410512D03*
X0658543Y0386890D03*
M02*
