G04 #@! TF.FileFunction,Copper,L1,Top,Signal*
%FSLAX46Y46*%
G04 Gerber Fmt 4.6, Leading zero omitted, Abs format (unit mm)*
G04 Created by KiCad (PCBNEW 4.0.6) date 06/08/17 14:58:16*
%MOMM*%
%LPD*%
G01*
G04 APERTURE LIST*
%ADD10C,0.100000*%
%ADD11C,2.397760*%
%ADD12C,1.798320*%
%ADD13O,1.524000X3.048000*%
%ADD14O,2.095500X4.191000*%
%ADD15C,1.000000*%
%ADD16R,1.778000X3.149600*%
%ADD17C,0.500000*%
%ADD18C,0.254000*%
G04 APERTURE END LIST*
D10*
D11*
X103810000Y-101000000D03*
X96190000Y-101000000D03*
D12*
X100000000Y-105447540D03*
X108249920Y-111160000D03*
D11*
X130190000Y-101000000D03*
X137810000Y-101000000D03*
X134000000Y-104810000D03*
D12*
X134000000Y-109255000D03*
D13*
X116460000Y-108000000D03*
X119000000Y-108000000D03*
X121540000Y-108000000D03*
D14*
X124080000Y-102920000D03*
X119000000Y-102920000D03*
X113920000Y-102920000D03*
D15*
X141500000Y-91500000D03*
X94000000Y-92000000D03*
X94000000Y-109000000D03*
X141000000Y-109000000D03*
D16*
X115285500Y-94000000D03*
X118714500Y-94000000D03*
D17*
X117750000Y-105750000D02*
X117512000Y-105750000D01*
X119000000Y-102920000D02*
X119000000Y-105515500D01*
X119000000Y-105515500D02*
X118765500Y-105750000D01*
X118765500Y-105750000D02*
X117750000Y-105750000D01*
X117762000Y-106000000D02*
X117512000Y-105750000D01*
X109750000Y-103750000D02*
X102750000Y-103750000D01*
X117512000Y-105750000D02*
X115250000Y-105750000D01*
X115250000Y-105750000D02*
X115000000Y-106000000D01*
X115000000Y-106000000D02*
X112000000Y-106000000D01*
X112000000Y-106000000D02*
X109750000Y-103750000D01*
X100000000Y-101000000D02*
X96190000Y-101000000D01*
X102750000Y-103750000D02*
X100000000Y-101000000D01*
X119000000Y-108000000D02*
X119000000Y-107238000D01*
X119000000Y-107238000D02*
X117762000Y-106000000D01*
X118714500Y-94000000D02*
X122500000Y-94000000D01*
X122500000Y-94000000D02*
X124080000Y-95580000D01*
X124080000Y-95580000D02*
X124080000Y-102920000D01*
X116460000Y-108000000D02*
X116460000Y-109960000D01*
X116460000Y-109960000D02*
X117500000Y-111000000D01*
X117500000Y-111000000D02*
X123000000Y-111000000D01*
X123000000Y-111000000D02*
X124080000Y-109920000D01*
X124080000Y-109920000D02*
X124080000Y-105515500D01*
X124080000Y-105515500D02*
X124080000Y-102920000D01*
D18*
G36*
X125123000Y-100530727D02*
X124965000Y-100425155D01*
X124965000Y-95580000D01*
X124897633Y-95241325D01*
X124705790Y-94954210D01*
X124705787Y-94954208D01*
X123125790Y-93374210D01*
X122838675Y-93182367D01*
X122782484Y-93171190D01*
X122500000Y-93114999D01*
X122499995Y-93115000D01*
X120250940Y-93115000D01*
X120250940Y-92425200D01*
X120206662Y-92189883D01*
X120067590Y-91973759D01*
X119855390Y-91828769D01*
X119603500Y-91777760D01*
X117825500Y-91777760D01*
X117590183Y-91822038D01*
X117374059Y-91961110D01*
X117229069Y-92173310D01*
X117178060Y-92425200D01*
X117178060Y-95574800D01*
X117222338Y-95810117D01*
X117361410Y-96026241D01*
X117573610Y-96171231D01*
X117825500Y-96222240D01*
X119603500Y-96222240D01*
X119838817Y-96177962D01*
X120054941Y-96038890D01*
X120199931Y-95826690D01*
X120250940Y-95574800D01*
X120250940Y-94885000D01*
X122133420Y-94885000D01*
X123195000Y-95946579D01*
X123195000Y-100425155D01*
X122890116Y-100628872D01*
X122525342Y-101174795D01*
X122397250Y-101818756D01*
X122397250Y-104021244D01*
X122525342Y-104665205D01*
X122890116Y-105211128D01*
X123195000Y-105414845D01*
X123195000Y-109553421D01*
X122633420Y-110115000D01*
X121973846Y-110115000D01*
X122074609Y-110094957D01*
X122527828Y-109792125D01*
X122830660Y-109338906D01*
X122937000Y-108804297D01*
X122937000Y-107195703D01*
X122830660Y-106661094D01*
X122527828Y-106207875D01*
X122074609Y-105905043D01*
X121540000Y-105798703D01*
X121005391Y-105905043D01*
X120552172Y-106207875D01*
X120270000Y-106630174D01*
X119987828Y-106207875D01*
X119706778Y-106020083D01*
X119817633Y-105854175D01*
X119837551Y-105754042D01*
X119885001Y-105515500D01*
X119885000Y-105515495D01*
X119885000Y-105414845D01*
X120189884Y-105211128D01*
X120554658Y-104665205D01*
X120682750Y-104021244D01*
X120682750Y-101818756D01*
X120554658Y-101174795D01*
X120189884Y-100628872D01*
X119643961Y-100264098D01*
X119000000Y-100136006D01*
X118356039Y-100264098D01*
X117810116Y-100628872D01*
X117445342Y-101174795D01*
X117317250Y-101818756D01*
X117317250Y-104021244D01*
X117445342Y-104665205D01*
X117578841Y-104865000D01*
X117512005Y-104865000D01*
X117512000Y-104864999D01*
X117511995Y-104865000D01*
X115341159Y-104865000D01*
X115474658Y-104665205D01*
X115602750Y-104021244D01*
X115602750Y-101818756D01*
X115474658Y-101174795D01*
X115109884Y-100628872D01*
X114563961Y-100264098D01*
X113920000Y-100136006D01*
X113276039Y-100264098D01*
X112730116Y-100628872D01*
X112365342Y-101174795D01*
X112237250Y-101818756D01*
X112237250Y-104021244D01*
X112365342Y-104665205D01*
X112665885Y-105115000D01*
X112366579Y-105115000D01*
X110375790Y-103124210D01*
X110088675Y-102932367D01*
X110026502Y-102920000D01*
X109750000Y-102864999D01*
X109749995Y-102865000D01*
X103116579Y-102865000D01*
X102847260Y-102595681D01*
X103498000Y-102843594D01*
X104227263Y-102822656D01*
X104803763Y-102583862D01*
X104926761Y-102296366D01*
X103810000Y-101179605D01*
X103795858Y-101193748D01*
X103616253Y-101014143D01*
X103630395Y-101000000D01*
X103989605Y-101000000D01*
X105106366Y-102116761D01*
X105393862Y-101993763D01*
X105653594Y-101312000D01*
X105632656Y-100582737D01*
X105393862Y-100006237D01*
X105106366Y-99883239D01*
X103989605Y-101000000D01*
X103630395Y-101000000D01*
X102513634Y-99883239D01*
X102226138Y-100006237D01*
X101966406Y-100688000D01*
X101987344Y-101417263D01*
X102212558Y-101960979D01*
X100625790Y-100374210D01*
X100338675Y-100182367D01*
X100282484Y-100171190D01*
X100000000Y-100114999D01*
X99999995Y-100115000D01*
X97808586Y-100115000D01*
X97745594Y-99962547D01*
X97487133Y-99703634D01*
X102693239Y-99703634D01*
X103810000Y-100820395D01*
X104926761Y-99703634D01*
X104803763Y-99416138D01*
X104122000Y-99156406D01*
X103392737Y-99177344D01*
X102816237Y-99416138D01*
X102693239Y-99703634D01*
X97487133Y-99703634D01*
X97230166Y-99446219D01*
X96556382Y-99166439D01*
X95826819Y-99165802D01*
X95152547Y-99444406D01*
X94636219Y-99959834D01*
X94356439Y-100633618D01*
X94355802Y-101363181D01*
X94634406Y-102037453D01*
X95149834Y-102553781D01*
X95823618Y-102833561D01*
X96553181Y-102834198D01*
X97227453Y-102555594D01*
X97743781Y-102040166D01*
X97808212Y-101885000D01*
X99633420Y-101885000D01*
X102124208Y-104375787D01*
X102124210Y-104375790D01*
X102411325Y-104567633D01*
X102750000Y-104635000D01*
X109383420Y-104635000D01*
X111374208Y-106625787D01*
X111374210Y-106625790D01*
X111556182Y-106747379D01*
X111661326Y-106817634D01*
X112000000Y-106885001D01*
X112000005Y-106885000D01*
X114999995Y-106885000D01*
X115000000Y-106885001D01*
X115129944Y-106859153D01*
X115063000Y-107195703D01*
X115063000Y-108804297D01*
X115169340Y-109338906D01*
X115472172Y-109792125D01*
X115575000Y-109860833D01*
X115575000Y-109959995D01*
X115574999Y-109960000D01*
X115622997Y-110201297D01*
X115642367Y-110298675D01*
X115692838Y-110374210D01*
X115834210Y-110585790D01*
X116874208Y-111625787D01*
X116874210Y-111625790D01*
X117161325Y-111817633D01*
X117500000Y-111885001D01*
X117500005Y-111885000D01*
X122999995Y-111885000D01*
X123000000Y-111885001D01*
X123282484Y-111828810D01*
X123338675Y-111817633D01*
X123625790Y-111625790D01*
X123625791Y-111625789D01*
X124705787Y-110545792D01*
X124705790Y-110545790D01*
X124897633Y-110258675D01*
X124930199Y-110094957D01*
X124965001Y-109920000D01*
X124965000Y-109919995D01*
X124965000Y-105414845D01*
X125123000Y-105309273D01*
X125123000Y-112265000D01*
X109314516Y-112265000D01*
X109549759Y-112030167D01*
X109783813Y-111466502D01*
X109784346Y-110856176D01*
X109551276Y-110292103D01*
X109120087Y-109860161D01*
X108556422Y-109626107D01*
X107946096Y-109625574D01*
X107382023Y-109858644D01*
X106950081Y-110289833D01*
X106716027Y-110853498D01*
X106715494Y-111463824D01*
X106948564Y-112027897D01*
X107185254Y-112265000D01*
X94072391Y-112265000D01*
X92756049Y-112003163D01*
X91701478Y-111298522D01*
X90996837Y-110243951D01*
X90804431Y-109276661D01*
X92602758Y-109276661D01*
X92814990Y-109790303D01*
X93207630Y-110183629D01*
X93720900Y-110396757D01*
X94276661Y-110397242D01*
X94790303Y-110185010D01*
X95183629Y-109792370D01*
X95396757Y-109279100D01*
X95397242Y-108723339D01*
X95185010Y-108209697D01*
X94792370Y-107816371D01*
X94279100Y-107603243D01*
X93723339Y-107602758D01*
X93209697Y-107814990D01*
X92816371Y-108207630D01*
X92603243Y-108720900D01*
X92602758Y-109276661D01*
X90804431Y-109276661D01*
X90735000Y-108927610D01*
X90735000Y-105751364D01*
X98465574Y-105751364D01*
X98698644Y-106315437D01*
X99129833Y-106747379D01*
X99693498Y-106981433D01*
X100303824Y-106981966D01*
X100867897Y-106748896D01*
X101299839Y-106317707D01*
X101533893Y-105754042D01*
X101534426Y-105143716D01*
X101301356Y-104579643D01*
X100870167Y-104147701D01*
X100306502Y-103913647D01*
X99696176Y-103913114D01*
X99132103Y-104146184D01*
X98700161Y-104577373D01*
X98466107Y-105141038D01*
X98465574Y-105751364D01*
X90735000Y-105751364D01*
X90735000Y-94285750D01*
X113761500Y-94285750D01*
X113761500Y-95701110D01*
X113858173Y-95934499D01*
X114036802Y-96113127D01*
X114270191Y-96209800D01*
X114999750Y-96209800D01*
X115158500Y-96051050D01*
X115158500Y-94127000D01*
X115412500Y-94127000D01*
X115412500Y-96051050D01*
X115571250Y-96209800D01*
X116300809Y-96209800D01*
X116534198Y-96113127D01*
X116712827Y-95934499D01*
X116809500Y-95701110D01*
X116809500Y-94285750D01*
X116650750Y-94127000D01*
X115412500Y-94127000D01*
X115158500Y-94127000D01*
X113920250Y-94127000D01*
X113761500Y-94285750D01*
X90735000Y-94285750D01*
X90735000Y-92276661D01*
X92602758Y-92276661D01*
X92814990Y-92790303D01*
X93207630Y-93183629D01*
X93720900Y-93396757D01*
X94276661Y-93397242D01*
X94790303Y-93185010D01*
X95183629Y-92792370D01*
X95388539Y-92298890D01*
X113761500Y-92298890D01*
X113761500Y-93714250D01*
X113920250Y-93873000D01*
X115158500Y-93873000D01*
X115158500Y-91948950D01*
X115412500Y-91948950D01*
X115412500Y-93873000D01*
X116650750Y-93873000D01*
X116809500Y-93714250D01*
X116809500Y-92298890D01*
X116712827Y-92065501D01*
X116534198Y-91886873D01*
X116300809Y-91790200D01*
X115571250Y-91790200D01*
X115412500Y-91948950D01*
X115158500Y-91948950D01*
X114999750Y-91790200D01*
X114270191Y-91790200D01*
X114036802Y-91886873D01*
X113858173Y-92065501D01*
X113761500Y-92298890D01*
X95388539Y-92298890D01*
X95396757Y-92279100D01*
X95397242Y-91723339D01*
X95185010Y-91209697D01*
X94792370Y-90816371D01*
X94279100Y-90603243D01*
X93723339Y-90602758D01*
X93209697Y-90814990D01*
X92816371Y-91207630D01*
X92603243Y-91720900D01*
X92602758Y-92276661D01*
X90735000Y-92276661D01*
X90735000Y-92072390D01*
X90996837Y-90756049D01*
X91701478Y-89701478D01*
X92756049Y-88996837D01*
X94072391Y-88735000D01*
X125123000Y-88735000D01*
X125123000Y-100530727D01*
X125123000Y-100530727D01*
G37*
X125123000Y-100530727D02*
X124965000Y-100425155D01*
X124965000Y-95580000D01*
X124897633Y-95241325D01*
X124705790Y-94954210D01*
X124705787Y-94954208D01*
X123125790Y-93374210D01*
X122838675Y-93182367D01*
X122782484Y-93171190D01*
X122500000Y-93114999D01*
X122499995Y-93115000D01*
X120250940Y-93115000D01*
X120250940Y-92425200D01*
X120206662Y-92189883D01*
X120067590Y-91973759D01*
X119855390Y-91828769D01*
X119603500Y-91777760D01*
X117825500Y-91777760D01*
X117590183Y-91822038D01*
X117374059Y-91961110D01*
X117229069Y-92173310D01*
X117178060Y-92425200D01*
X117178060Y-95574800D01*
X117222338Y-95810117D01*
X117361410Y-96026241D01*
X117573610Y-96171231D01*
X117825500Y-96222240D01*
X119603500Y-96222240D01*
X119838817Y-96177962D01*
X120054941Y-96038890D01*
X120199931Y-95826690D01*
X120250940Y-95574800D01*
X120250940Y-94885000D01*
X122133420Y-94885000D01*
X123195000Y-95946579D01*
X123195000Y-100425155D01*
X122890116Y-100628872D01*
X122525342Y-101174795D01*
X122397250Y-101818756D01*
X122397250Y-104021244D01*
X122525342Y-104665205D01*
X122890116Y-105211128D01*
X123195000Y-105414845D01*
X123195000Y-109553421D01*
X122633420Y-110115000D01*
X121973846Y-110115000D01*
X122074609Y-110094957D01*
X122527828Y-109792125D01*
X122830660Y-109338906D01*
X122937000Y-108804297D01*
X122937000Y-107195703D01*
X122830660Y-106661094D01*
X122527828Y-106207875D01*
X122074609Y-105905043D01*
X121540000Y-105798703D01*
X121005391Y-105905043D01*
X120552172Y-106207875D01*
X120270000Y-106630174D01*
X119987828Y-106207875D01*
X119706778Y-106020083D01*
X119817633Y-105854175D01*
X119837551Y-105754042D01*
X119885001Y-105515500D01*
X119885000Y-105515495D01*
X119885000Y-105414845D01*
X120189884Y-105211128D01*
X120554658Y-104665205D01*
X120682750Y-104021244D01*
X120682750Y-101818756D01*
X120554658Y-101174795D01*
X120189884Y-100628872D01*
X119643961Y-100264098D01*
X119000000Y-100136006D01*
X118356039Y-100264098D01*
X117810116Y-100628872D01*
X117445342Y-101174795D01*
X117317250Y-101818756D01*
X117317250Y-104021244D01*
X117445342Y-104665205D01*
X117578841Y-104865000D01*
X117512005Y-104865000D01*
X117512000Y-104864999D01*
X117511995Y-104865000D01*
X115341159Y-104865000D01*
X115474658Y-104665205D01*
X115602750Y-104021244D01*
X115602750Y-101818756D01*
X115474658Y-101174795D01*
X115109884Y-100628872D01*
X114563961Y-100264098D01*
X113920000Y-100136006D01*
X113276039Y-100264098D01*
X112730116Y-100628872D01*
X112365342Y-101174795D01*
X112237250Y-101818756D01*
X112237250Y-104021244D01*
X112365342Y-104665205D01*
X112665885Y-105115000D01*
X112366579Y-105115000D01*
X110375790Y-103124210D01*
X110088675Y-102932367D01*
X110026502Y-102920000D01*
X109750000Y-102864999D01*
X109749995Y-102865000D01*
X103116579Y-102865000D01*
X102847260Y-102595681D01*
X103498000Y-102843594D01*
X104227263Y-102822656D01*
X104803763Y-102583862D01*
X104926761Y-102296366D01*
X103810000Y-101179605D01*
X103795858Y-101193748D01*
X103616253Y-101014143D01*
X103630395Y-101000000D01*
X103989605Y-101000000D01*
X105106366Y-102116761D01*
X105393862Y-101993763D01*
X105653594Y-101312000D01*
X105632656Y-100582737D01*
X105393862Y-100006237D01*
X105106366Y-99883239D01*
X103989605Y-101000000D01*
X103630395Y-101000000D01*
X102513634Y-99883239D01*
X102226138Y-100006237D01*
X101966406Y-100688000D01*
X101987344Y-101417263D01*
X102212558Y-101960979D01*
X100625790Y-100374210D01*
X100338675Y-100182367D01*
X100282484Y-100171190D01*
X100000000Y-100114999D01*
X99999995Y-100115000D01*
X97808586Y-100115000D01*
X97745594Y-99962547D01*
X97487133Y-99703634D01*
X102693239Y-99703634D01*
X103810000Y-100820395D01*
X104926761Y-99703634D01*
X104803763Y-99416138D01*
X104122000Y-99156406D01*
X103392737Y-99177344D01*
X102816237Y-99416138D01*
X102693239Y-99703634D01*
X97487133Y-99703634D01*
X97230166Y-99446219D01*
X96556382Y-99166439D01*
X95826819Y-99165802D01*
X95152547Y-99444406D01*
X94636219Y-99959834D01*
X94356439Y-100633618D01*
X94355802Y-101363181D01*
X94634406Y-102037453D01*
X95149834Y-102553781D01*
X95823618Y-102833561D01*
X96553181Y-102834198D01*
X97227453Y-102555594D01*
X97743781Y-102040166D01*
X97808212Y-101885000D01*
X99633420Y-101885000D01*
X102124208Y-104375787D01*
X102124210Y-104375790D01*
X102411325Y-104567633D01*
X102750000Y-104635000D01*
X109383420Y-104635000D01*
X111374208Y-106625787D01*
X111374210Y-106625790D01*
X111556182Y-106747379D01*
X111661326Y-106817634D01*
X112000000Y-106885001D01*
X112000005Y-106885000D01*
X114999995Y-106885000D01*
X115000000Y-106885001D01*
X115129944Y-106859153D01*
X115063000Y-107195703D01*
X115063000Y-108804297D01*
X115169340Y-109338906D01*
X115472172Y-109792125D01*
X115575000Y-109860833D01*
X115575000Y-109959995D01*
X115574999Y-109960000D01*
X115622997Y-110201297D01*
X115642367Y-110298675D01*
X115692838Y-110374210D01*
X115834210Y-110585790D01*
X116874208Y-111625787D01*
X116874210Y-111625790D01*
X117161325Y-111817633D01*
X117500000Y-111885001D01*
X117500005Y-111885000D01*
X122999995Y-111885000D01*
X123000000Y-111885001D01*
X123282484Y-111828810D01*
X123338675Y-111817633D01*
X123625790Y-111625790D01*
X123625791Y-111625789D01*
X124705787Y-110545792D01*
X124705790Y-110545790D01*
X124897633Y-110258675D01*
X124930199Y-110094957D01*
X124965001Y-109920000D01*
X124965000Y-109919995D01*
X124965000Y-105414845D01*
X125123000Y-105309273D01*
X125123000Y-112265000D01*
X109314516Y-112265000D01*
X109549759Y-112030167D01*
X109783813Y-111466502D01*
X109784346Y-110856176D01*
X109551276Y-110292103D01*
X109120087Y-109860161D01*
X108556422Y-109626107D01*
X107946096Y-109625574D01*
X107382023Y-109858644D01*
X106950081Y-110289833D01*
X106716027Y-110853498D01*
X106715494Y-111463824D01*
X106948564Y-112027897D01*
X107185254Y-112265000D01*
X94072391Y-112265000D01*
X92756049Y-112003163D01*
X91701478Y-111298522D01*
X90996837Y-110243951D01*
X90804431Y-109276661D01*
X92602758Y-109276661D01*
X92814990Y-109790303D01*
X93207630Y-110183629D01*
X93720900Y-110396757D01*
X94276661Y-110397242D01*
X94790303Y-110185010D01*
X95183629Y-109792370D01*
X95396757Y-109279100D01*
X95397242Y-108723339D01*
X95185010Y-108209697D01*
X94792370Y-107816371D01*
X94279100Y-107603243D01*
X93723339Y-107602758D01*
X93209697Y-107814990D01*
X92816371Y-108207630D01*
X92603243Y-108720900D01*
X92602758Y-109276661D01*
X90804431Y-109276661D01*
X90735000Y-108927610D01*
X90735000Y-105751364D01*
X98465574Y-105751364D01*
X98698644Y-106315437D01*
X99129833Y-106747379D01*
X99693498Y-106981433D01*
X100303824Y-106981966D01*
X100867897Y-106748896D01*
X101299839Y-106317707D01*
X101533893Y-105754042D01*
X101534426Y-105143716D01*
X101301356Y-104579643D01*
X100870167Y-104147701D01*
X100306502Y-103913647D01*
X99696176Y-103913114D01*
X99132103Y-104146184D01*
X98700161Y-104577373D01*
X98466107Y-105141038D01*
X98465574Y-105751364D01*
X90735000Y-105751364D01*
X90735000Y-94285750D01*
X113761500Y-94285750D01*
X113761500Y-95701110D01*
X113858173Y-95934499D01*
X114036802Y-96113127D01*
X114270191Y-96209800D01*
X114999750Y-96209800D01*
X115158500Y-96051050D01*
X115158500Y-94127000D01*
X115412500Y-94127000D01*
X115412500Y-96051050D01*
X115571250Y-96209800D01*
X116300809Y-96209800D01*
X116534198Y-96113127D01*
X116712827Y-95934499D01*
X116809500Y-95701110D01*
X116809500Y-94285750D01*
X116650750Y-94127000D01*
X115412500Y-94127000D01*
X115158500Y-94127000D01*
X113920250Y-94127000D01*
X113761500Y-94285750D01*
X90735000Y-94285750D01*
X90735000Y-92276661D01*
X92602758Y-92276661D01*
X92814990Y-92790303D01*
X93207630Y-93183629D01*
X93720900Y-93396757D01*
X94276661Y-93397242D01*
X94790303Y-93185010D01*
X95183629Y-92792370D01*
X95388539Y-92298890D01*
X113761500Y-92298890D01*
X113761500Y-93714250D01*
X113920250Y-93873000D01*
X115158500Y-93873000D01*
X115158500Y-91948950D01*
X115412500Y-91948950D01*
X115412500Y-93873000D01*
X116650750Y-93873000D01*
X116809500Y-93714250D01*
X116809500Y-92298890D01*
X116712827Y-92065501D01*
X116534198Y-91886873D01*
X116300809Y-91790200D01*
X115571250Y-91790200D01*
X115412500Y-91948950D01*
X115158500Y-91948950D01*
X114999750Y-91790200D01*
X114270191Y-91790200D01*
X114036802Y-91886873D01*
X113858173Y-92065501D01*
X113761500Y-92298890D01*
X95388539Y-92298890D01*
X95396757Y-92279100D01*
X95397242Y-91723339D01*
X95185010Y-91209697D01*
X94792370Y-90816371D01*
X94279100Y-90603243D01*
X93723339Y-90602758D01*
X93209697Y-90814990D01*
X92816371Y-91207630D01*
X92603243Y-91720900D01*
X92602758Y-92276661D01*
X90735000Y-92276661D01*
X90735000Y-92072390D01*
X90996837Y-90756049D01*
X91701478Y-89701478D01*
X92756049Y-88996837D01*
X94072391Y-88735000D01*
X125123000Y-88735000D01*
X125123000Y-100530727D01*
G36*
X142552610Y-88958777D02*
X143444969Y-89555031D01*
X144041223Y-90447390D01*
X144265000Y-91572390D01*
X144265000Y-108927609D01*
X144003163Y-110243951D01*
X143298522Y-111298522D01*
X142243951Y-112003163D01*
X140927610Y-112265000D01*
X125885000Y-112265000D01*
X125885000Y-109558824D01*
X132465574Y-109558824D01*
X132698644Y-110122897D01*
X133129833Y-110554839D01*
X133693498Y-110788893D01*
X134303824Y-110789426D01*
X134867897Y-110556356D01*
X135299839Y-110125167D01*
X135533893Y-109561502D01*
X135534141Y-109276661D01*
X139602758Y-109276661D01*
X139814990Y-109790303D01*
X140207630Y-110183629D01*
X140720900Y-110396757D01*
X141276661Y-110397242D01*
X141790303Y-110185010D01*
X142183629Y-109792370D01*
X142396757Y-109279100D01*
X142397242Y-108723339D01*
X142185010Y-108209697D01*
X141792370Y-107816371D01*
X141279100Y-107603243D01*
X140723339Y-107602758D01*
X140209697Y-107814990D01*
X139816371Y-108207630D01*
X139603243Y-108720900D01*
X139602758Y-109276661D01*
X135534141Y-109276661D01*
X135534426Y-108951176D01*
X135301356Y-108387103D01*
X134870167Y-107955161D01*
X134306502Y-107721107D01*
X133696176Y-107720574D01*
X133132103Y-107953644D01*
X132700161Y-108384833D01*
X132466107Y-108948498D01*
X132465574Y-109558824D01*
X125885000Y-109558824D01*
X125885000Y-105173181D01*
X132165802Y-105173181D01*
X132444406Y-105847453D01*
X132959834Y-106363781D01*
X133633618Y-106643561D01*
X134363181Y-106644198D01*
X135037453Y-106365594D01*
X135553781Y-105850166D01*
X135833561Y-105176382D01*
X135834198Y-104446819D01*
X135555594Y-103772547D01*
X135040166Y-103256219D01*
X134366382Y-102976439D01*
X133636819Y-102975802D01*
X132962547Y-103254406D01*
X132446219Y-103769834D01*
X132166439Y-104443618D01*
X132165802Y-105173181D01*
X125885000Y-105173181D01*
X125885000Y-102296366D01*
X129073239Y-102296366D01*
X129196237Y-102583862D01*
X129878000Y-102843594D01*
X130607263Y-102822656D01*
X131183763Y-102583862D01*
X131306761Y-102296366D01*
X130190000Y-101179605D01*
X129073239Y-102296366D01*
X125885000Y-102296366D01*
X125885000Y-100688000D01*
X128346406Y-100688000D01*
X128367344Y-101417263D01*
X128606138Y-101993763D01*
X128893634Y-102116761D01*
X130010395Y-101000000D01*
X130369605Y-101000000D01*
X131486366Y-102116761D01*
X131773862Y-101993763D01*
X132014095Y-101363181D01*
X135975802Y-101363181D01*
X136254406Y-102037453D01*
X136769834Y-102553781D01*
X137443618Y-102833561D01*
X138173181Y-102834198D01*
X138847453Y-102555594D01*
X139363781Y-102040166D01*
X139643561Y-101366382D01*
X139644198Y-100636819D01*
X139365594Y-99962547D01*
X138850166Y-99446219D01*
X138176382Y-99166439D01*
X137446819Y-99165802D01*
X136772547Y-99444406D01*
X136256219Y-99959834D01*
X135976439Y-100633618D01*
X135975802Y-101363181D01*
X132014095Y-101363181D01*
X132033594Y-101312000D01*
X132012656Y-100582737D01*
X131773862Y-100006237D01*
X131486366Y-99883239D01*
X130369605Y-101000000D01*
X130010395Y-101000000D01*
X128893634Y-99883239D01*
X128606138Y-100006237D01*
X128346406Y-100688000D01*
X125885000Y-100688000D01*
X125885000Y-99703634D01*
X129073239Y-99703634D01*
X130190000Y-100820395D01*
X131306761Y-99703634D01*
X131183763Y-99416138D01*
X130502000Y-99156406D01*
X129772737Y-99177344D01*
X129196237Y-99416138D01*
X129073239Y-99703634D01*
X125885000Y-99703634D01*
X125885000Y-91776661D01*
X140102758Y-91776661D01*
X140314990Y-92290303D01*
X140707630Y-92683629D01*
X141220900Y-92896757D01*
X141776661Y-92897242D01*
X142290303Y-92685010D01*
X142683629Y-92292370D01*
X142896757Y-91779100D01*
X142897242Y-91223339D01*
X142685010Y-90709697D01*
X142292370Y-90316371D01*
X141779100Y-90103243D01*
X141223339Y-90102758D01*
X140709697Y-90314990D01*
X140316371Y-90707630D01*
X140103243Y-91220900D01*
X140102758Y-91776661D01*
X125885000Y-91776661D01*
X125885000Y-88735000D01*
X141427609Y-88735000D01*
X142552610Y-88958777D01*
X142552610Y-88958777D01*
G37*
X142552610Y-88958777D02*
X143444969Y-89555031D01*
X144041223Y-90447390D01*
X144265000Y-91572390D01*
X144265000Y-108927609D01*
X144003163Y-110243951D01*
X143298522Y-111298522D01*
X142243951Y-112003163D01*
X140927610Y-112265000D01*
X125885000Y-112265000D01*
X125885000Y-109558824D01*
X132465574Y-109558824D01*
X132698644Y-110122897D01*
X133129833Y-110554839D01*
X133693498Y-110788893D01*
X134303824Y-110789426D01*
X134867897Y-110556356D01*
X135299839Y-110125167D01*
X135533893Y-109561502D01*
X135534141Y-109276661D01*
X139602758Y-109276661D01*
X139814990Y-109790303D01*
X140207630Y-110183629D01*
X140720900Y-110396757D01*
X141276661Y-110397242D01*
X141790303Y-110185010D01*
X142183629Y-109792370D01*
X142396757Y-109279100D01*
X142397242Y-108723339D01*
X142185010Y-108209697D01*
X141792370Y-107816371D01*
X141279100Y-107603243D01*
X140723339Y-107602758D01*
X140209697Y-107814990D01*
X139816371Y-108207630D01*
X139603243Y-108720900D01*
X139602758Y-109276661D01*
X135534141Y-109276661D01*
X135534426Y-108951176D01*
X135301356Y-108387103D01*
X134870167Y-107955161D01*
X134306502Y-107721107D01*
X133696176Y-107720574D01*
X133132103Y-107953644D01*
X132700161Y-108384833D01*
X132466107Y-108948498D01*
X132465574Y-109558824D01*
X125885000Y-109558824D01*
X125885000Y-105173181D01*
X132165802Y-105173181D01*
X132444406Y-105847453D01*
X132959834Y-106363781D01*
X133633618Y-106643561D01*
X134363181Y-106644198D01*
X135037453Y-106365594D01*
X135553781Y-105850166D01*
X135833561Y-105176382D01*
X135834198Y-104446819D01*
X135555594Y-103772547D01*
X135040166Y-103256219D01*
X134366382Y-102976439D01*
X133636819Y-102975802D01*
X132962547Y-103254406D01*
X132446219Y-103769834D01*
X132166439Y-104443618D01*
X132165802Y-105173181D01*
X125885000Y-105173181D01*
X125885000Y-102296366D01*
X129073239Y-102296366D01*
X129196237Y-102583862D01*
X129878000Y-102843594D01*
X130607263Y-102822656D01*
X131183763Y-102583862D01*
X131306761Y-102296366D01*
X130190000Y-101179605D01*
X129073239Y-102296366D01*
X125885000Y-102296366D01*
X125885000Y-100688000D01*
X128346406Y-100688000D01*
X128367344Y-101417263D01*
X128606138Y-101993763D01*
X128893634Y-102116761D01*
X130010395Y-101000000D01*
X130369605Y-101000000D01*
X131486366Y-102116761D01*
X131773862Y-101993763D01*
X132014095Y-101363181D01*
X135975802Y-101363181D01*
X136254406Y-102037453D01*
X136769834Y-102553781D01*
X137443618Y-102833561D01*
X138173181Y-102834198D01*
X138847453Y-102555594D01*
X139363781Y-102040166D01*
X139643561Y-101366382D01*
X139644198Y-100636819D01*
X139365594Y-99962547D01*
X138850166Y-99446219D01*
X138176382Y-99166439D01*
X137446819Y-99165802D01*
X136772547Y-99444406D01*
X136256219Y-99959834D01*
X135976439Y-100633618D01*
X135975802Y-101363181D01*
X132014095Y-101363181D01*
X132033594Y-101312000D01*
X132012656Y-100582737D01*
X131773862Y-100006237D01*
X131486366Y-99883239D01*
X130369605Y-101000000D01*
X130010395Y-101000000D01*
X128893634Y-99883239D01*
X128606138Y-100006237D01*
X128346406Y-100688000D01*
X125885000Y-100688000D01*
X125885000Y-99703634D01*
X129073239Y-99703634D01*
X130190000Y-100820395D01*
X131306761Y-99703634D01*
X131183763Y-99416138D01*
X130502000Y-99156406D01*
X129772737Y-99177344D01*
X129196237Y-99416138D01*
X129073239Y-99703634D01*
X125885000Y-99703634D01*
X125885000Y-91776661D01*
X140102758Y-91776661D01*
X140314990Y-92290303D01*
X140707630Y-92683629D01*
X141220900Y-92896757D01*
X141776661Y-92897242D01*
X142290303Y-92685010D01*
X142683629Y-92292370D01*
X142896757Y-91779100D01*
X142897242Y-91223339D01*
X142685010Y-90709697D01*
X142292370Y-90316371D01*
X141779100Y-90103243D01*
X141223339Y-90102758D01*
X140709697Y-90314990D01*
X140316371Y-90707630D01*
X140103243Y-91220900D01*
X140102758Y-91776661D01*
X125885000Y-91776661D01*
X125885000Y-88735000D01*
X141427609Y-88735000D01*
X142552610Y-88958777D01*
M02*
