G04 #@! TF.FileFunction,Copper,L2,Bot,Signal*
%FSLAX46Y46*%
G04 Gerber Fmt 4.6, Leading zero omitted, Abs format (unit mm)*
G04 Created by KiCad (PCBNEW 4.0.6) date 06/08/17 14:58:16*
%MOMM*%
%LPD*%
G01*
G04 APERTURE LIST*
%ADD10C,0.100000*%
%ADD11C,2.397760*%
%ADD12C,1.798320*%
%ADD13O,1.524000X3.048000*%
%ADD14O,2.095500X4.191000*%
%ADD15R,0.970000X1.270000*%
%ADD16C,0.500000*%
%ADD17C,0.254000*%
G04 APERTURE END LIST*
D10*
D11*
X103810000Y-101000000D03*
X96190000Y-101000000D03*
D12*
X100000000Y-105447540D03*
X108249920Y-111160000D03*
D11*
X130190000Y-101000000D03*
X137810000Y-101000000D03*
X134000000Y-104810000D03*
D12*
X134000000Y-109255000D03*
D13*
X116460000Y-108000000D03*
X119000000Y-108000000D03*
X121540000Y-108000000D03*
D14*
X124080000Y-102920000D03*
X119000000Y-102920000D03*
X113920000Y-102920000D03*
D15*
X117360000Y-92000000D03*
X118640000Y-92000000D03*
X137860000Y-109250000D03*
X139140000Y-109250000D03*
X108140000Y-107000000D03*
X106860000Y-107000000D03*
X117360000Y-94500000D03*
X118640000Y-94500000D03*
X117360000Y-97000000D03*
X118640000Y-97000000D03*
D16*
X103810000Y-101000000D02*
X103810000Y-96190000D01*
X110310000Y-94500000D02*
X117360000Y-94500000D01*
X103810000Y-96190000D02*
X105500000Y-94500000D01*
X105500000Y-94500000D02*
X110310000Y-94500000D01*
X96190000Y-93810000D02*
X98000000Y-92000000D01*
X98000000Y-92000000D02*
X105190000Y-92000000D01*
X96190000Y-101000000D02*
X96190000Y-93810000D01*
X117360000Y-92000000D02*
X105190000Y-92000000D01*
X118640000Y-94500000D02*
X128500000Y-94500000D01*
X128500000Y-94500000D02*
X130190000Y-96190000D01*
X130190000Y-96190000D02*
X130190000Y-101000000D01*
X118640000Y-92000000D02*
X135500000Y-92000000D01*
X135500000Y-92000000D02*
X137810000Y-94310000D01*
X137810000Y-94310000D02*
X137810000Y-101000000D01*
X119625000Y-97000000D02*
X125000000Y-97000000D01*
X118640000Y-97000000D02*
X119625000Y-97000000D01*
X108249920Y-111160000D02*
X108249920Y-107109920D01*
X108249920Y-107109920D02*
X108140000Y-107000000D01*
X108249920Y-111160000D02*
X132095000Y-111160000D01*
X132095000Y-111160000D02*
X134000000Y-109255000D01*
X134000000Y-109255000D02*
X137855000Y-109255000D01*
X137855000Y-109255000D02*
X137860000Y-109250000D01*
X108250000Y-111159920D02*
X108249920Y-111160000D01*
D17*
G36*
X117873000Y-90723230D02*
X117845000Y-90717560D01*
X116875000Y-90717560D01*
X116639683Y-90761838D01*
X116423559Y-90900910D01*
X116278569Y-91113110D01*
X116278186Y-91115000D01*
X98000005Y-91115000D01*
X98000000Y-91114999D01*
X97661326Y-91182366D01*
X97566054Y-91246025D01*
X97374210Y-91374210D01*
X97374208Y-91374213D01*
X95564210Y-93184210D01*
X95372367Y-93471325D01*
X95372367Y-93471326D01*
X95304999Y-93810000D01*
X95305000Y-93810005D01*
X95305000Y-99381414D01*
X95152547Y-99444406D01*
X94636219Y-99959834D01*
X94356439Y-100633618D01*
X94355802Y-101363181D01*
X94634406Y-102037453D01*
X95149834Y-102553781D01*
X95823618Y-102833561D01*
X96553181Y-102834198D01*
X97227453Y-102555594D01*
X97743781Y-102040166D01*
X98023561Y-101366382D01*
X98024198Y-100636819D01*
X97745594Y-99962547D01*
X97230166Y-99446219D01*
X97075000Y-99381788D01*
X97075000Y-94176580D01*
X98366579Y-92885000D01*
X116281286Y-92885000D01*
X116410910Y-93086441D01*
X116623110Y-93231431D01*
X116708926Y-93248809D01*
X116639683Y-93261838D01*
X116423559Y-93400910D01*
X116278569Y-93613110D01*
X116278186Y-93615000D01*
X105500005Y-93615000D01*
X105500000Y-93614999D01*
X105217516Y-93671190D01*
X105161325Y-93682367D01*
X104874210Y-93874210D01*
X104874208Y-93874213D01*
X103184210Y-95564210D01*
X102992367Y-95851325D01*
X102992367Y-95851326D01*
X102924999Y-96190000D01*
X102925000Y-96190005D01*
X102925000Y-99381414D01*
X102772547Y-99444406D01*
X102256219Y-99959834D01*
X101976439Y-100633618D01*
X101975802Y-101363181D01*
X102254406Y-102037453D01*
X102769834Y-102553781D01*
X103443618Y-102833561D01*
X104173181Y-102834198D01*
X104847453Y-102555594D01*
X105363781Y-102040166D01*
X105486241Y-101745250D01*
X112237250Y-101745250D01*
X112237250Y-102793000D01*
X113793000Y-102793000D01*
X113793000Y-100353551D01*
X114047000Y-100353551D01*
X114047000Y-102793000D01*
X115602750Y-102793000D01*
X115602750Y-101818756D01*
X117317250Y-101818756D01*
X117317250Y-104021244D01*
X117445342Y-104665205D01*
X117810116Y-105211128D01*
X118356039Y-105575902D01*
X119000000Y-105703994D01*
X119643961Y-105575902D01*
X120189884Y-105211128D01*
X120554658Y-104665205D01*
X120682750Y-104021244D01*
X120682750Y-101818756D01*
X120554658Y-101174795D01*
X120189884Y-100628872D01*
X119643961Y-100264098D01*
X119000000Y-100136006D01*
X118356039Y-100264098D01*
X117810116Y-100628872D01*
X117445342Y-101174795D01*
X117317250Y-101818756D01*
X115602750Y-101818756D01*
X115602750Y-101745250D01*
X115426057Y-101110957D01*
X115020081Y-100592564D01*
X114446628Y-100268992D01*
X114307926Y-100234825D01*
X114047000Y-100353551D01*
X113793000Y-100353551D01*
X113532074Y-100234825D01*
X113393372Y-100268992D01*
X112819919Y-100592564D01*
X112413943Y-101110957D01*
X112237250Y-101745250D01*
X105486241Y-101745250D01*
X105643561Y-101366382D01*
X105644198Y-100636819D01*
X105365594Y-99962547D01*
X104850166Y-99446219D01*
X104695000Y-99381788D01*
X104695000Y-97285750D01*
X116240000Y-97285750D01*
X116240000Y-97761309D01*
X116336673Y-97994698D01*
X116515301Y-98173327D01*
X116748690Y-98270000D01*
X117074250Y-98270000D01*
X117233000Y-98111250D01*
X117233000Y-97127000D01*
X116398750Y-97127000D01*
X116240000Y-97285750D01*
X104695000Y-97285750D01*
X104695000Y-96556580D01*
X105866579Y-95385000D01*
X116281286Y-95385000D01*
X116410910Y-95586441D01*
X116623110Y-95731431D01*
X116705134Y-95748041D01*
X116515301Y-95826673D01*
X116336673Y-96005302D01*
X116240000Y-96238691D01*
X116240000Y-96714250D01*
X116398750Y-96873000D01*
X117233000Y-96873000D01*
X117233000Y-96853000D01*
X117487000Y-96853000D01*
X117487000Y-96873000D01*
X117507000Y-96873000D01*
X117507000Y-97127000D01*
X117487000Y-97127000D01*
X117487000Y-98111250D01*
X117645750Y-98270000D01*
X117873000Y-98270000D01*
X117873000Y-99000000D01*
X117883006Y-99049410D01*
X117911447Y-99091035D01*
X117953841Y-99118315D01*
X118000000Y-99127000D01*
X123373000Y-99127000D01*
X123373000Y-100306219D01*
X122890116Y-100628872D01*
X122525342Y-101174795D01*
X122397250Y-101818756D01*
X122397250Y-104021244D01*
X122525342Y-104665205D01*
X122890116Y-105211128D01*
X123373000Y-105533781D01*
X123373000Y-110275000D01*
X109534203Y-110275000D01*
X109134920Y-109875020D01*
X109134920Y-108013503D01*
X109221431Y-107886890D01*
X109272440Y-107635000D01*
X109272440Y-107195703D01*
X115063000Y-107195703D01*
X115063000Y-108804297D01*
X115169340Y-109338906D01*
X115472172Y-109792125D01*
X115925391Y-110094957D01*
X116460000Y-110201297D01*
X116994609Y-110094957D01*
X117447828Y-109792125D01*
X117730000Y-109369826D01*
X118012172Y-109792125D01*
X118465391Y-110094957D01*
X119000000Y-110201297D01*
X119534609Y-110094957D01*
X119987828Y-109792125D01*
X120280349Y-109354338D01*
X120297941Y-109413941D01*
X120641974Y-109839630D01*
X121122723Y-110101260D01*
X121196930Y-110116220D01*
X121413000Y-109993720D01*
X121413000Y-108127000D01*
X121667000Y-108127000D01*
X121667000Y-109993720D01*
X121883070Y-110116220D01*
X121957277Y-110101260D01*
X122438026Y-109839630D01*
X122782059Y-109413941D01*
X122937000Y-108889000D01*
X122937000Y-108127000D01*
X121667000Y-108127000D01*
X121413000Y-108127000D01*
X121393000Y-108127000D01*
X121393000Y-107873000D01*
X121413000Y-107873000D01*
X121413000Y-106006280D01*
X121667000Y-106006280D01*
X121667000Y-107873000D01*
X122937000Y-107873000D01*
X122937000Y-107111000D01*
X122782059Y-106586059D01*
X122438026Y-106160370D01*
X121957277Y-105898740D01*
X121883070Y-105883780D01*
X121667000Y-106006280D01*
X121413000Y-106006280D01*
X121196930Y-105883780D01*
X121122723Y-105898740D01*
X120641974Y-106160370D01*
X120297941Y-106586059D01*
X120280349Y-106645662D01*
X119987828Y-106207875D01*
X119534609Y-105905043D01*
X119000000Y-105798703D01*
X118465391Y-105905043D01*
X118012172Y-106207875D01*
X117730000Y-106630174D01*
X117447828Y-106207875D01*
X116994609Y-105905043D01*
X116460000Y-105798703D01*
X115925391Y-105905043D01*
X115472172Y-106207875D01*
X115169340Y-106661094D01*
X115063000Y-107195703D01*
X109272440Y-107195703D01*
X109272440Y-106365000D01*
X109228162Y-106129683D01*
X109089090Y-105913559D01*
X108876890Y-105768569D01*
X108625000Y-105717560D01*
X107655000Y-105717560D01*
X107508037Y-105745213D01*
X107471310Y-105730000D01*
X107145750Y-105730000D01*
X106987000Y-105888750D01*
X106987000Y-106873000D01*
X107007000Y-106873000D01*
X107007000Y-107127000D01*
X106987000Y-107127000D01*
X106987000Y-108111250D01*
X107145750Y-108270000D01*
X107364920Y-108270000D01*
X107364920Y-109875717D01*
X106950081Y-110289833D01*
X106716027Y-110853498D01*
X106715494Y-111463824D01*
X106948564Y-112027897D01*
X107185254Y-112265000D01*
X94072391Y-112265000D01*
X92756049Y-112003163D01*
X91701478Y-111298522D01*
X90996837Y-110243951D01*
X90735000Y-108927610D01*
X90735000Y-107285750D01*
X105740000Y-107285750D01*
X105740000Y-107761309D01*
X105836673Y-107994698D01*
X106015301Y-108173327D01*
X106248690Y-108270000D01*
X106574250Y-108270000D01*
X106733000Y-108111250D01*
X106733000Y-107127000D01*
X105898750Y-107127000D01*
X105740000Y-107285750D01*
X90735000Y-107285750D01*
X90735000Y-106527091D01*
X99100054Y-106527091D01*
X99186358Y-106783488D01*
X99759538Y-106993163D01*
X100369327Y-106967530D01*
X100813642Y-106783488D01*
X100899946Y-106527091D01*
X100000000Y-105627145D01*
X99100054Y-106527091D01*
X90735000Y-106527091D01*
X90735000Y-105207078D01*
X98454377Y-105207078D01*
X98480010Y-105816867D01*
X98664052Y-106261182D01*
X98920449Y-106347486D01*
X99820395Y-105447540D01*
X100179605Y-105447540D01*
X101079551Y-106347486D01*
X101335948Y-106261182D01*
X101344175Y-106238691D01*
X105740000Y-106238691D01*
X105740000Y-106714250D01*
X105898750Y-106873000D01*
X106733000Y-106873000D01*
X106733000Y-105888750D01*
X106574250Y-105730000D01*
X106248690Y-105730000D01*
X106015301Y-105826673D01*
X105836673Y-106005302D01*
X105740000Y-106238691D01*
X101344175Y-106238691D01*
X101545623Y-105688002D01*
X101519990Y-105078213D01*
X101335948Y-104633898D01*
X101079551Y-104547594D01*
X100179605Y-105447540D01*
X99820395Y-105447540D01*
X98920449Y-104547594D01*
X98664052Y-104633898D01*
X98454377Y-105207078D01*
X90735000Y-105207078D01*
X90735000Y-104367989D01*
X99100054Y-104367989D01*
X100000000Y-105267935D01*
X100899946Y-104367989D01*
X100813642Y-104111592D01*
X100240462Y-103901917D01*
X99630673Y-103927550D01*
X99186358Y-104111592D01*
X99100054Y-104367989D01*
X90735000Y-104367989D01*
X90735000Y-103047000D01*
X112237250Y-103047000D01*
X112237250Y-104094750D01*
X112413943Y-104729043D01*
X112819919Y-105247436D01*
X113393372Y-105571008D01*
X113532074Y-105605175D01*
X113793000Y-105486449D01*
X113793000Y-103047000D01*
X114047000Y-103047000D01*
X114047000Y-105486449D01*
X114307926Y-105605175D01*
X114446628Y-105571008D01*
X115020081Y-105247436D01*
X115426057Y-104729043D01*
X115602750Y-104094750D01*
X115602750Y-103047000D01*
X114047000Y-103047000D01*
X113793000Y-103047000D01*
X112237250Y-103047000D01*
X90735000Y-103047000D01*
X90735000Y-92072390D01*
X90996837Y-90756049D01*
X91701478Y-89701478D01*
X92756049Y-88996837D01*
X94072391Y-88735000D01*
X117873000Y-88735000D01*
X117873000Y-90723230D01*
X117873000Y-90723230D01*
G37*
X117873000Y-90723230D02*
X117845000Y-90717560D01*
X116875000Y-90717560D01*
X116639683Y-90761838D01*
X116423559Y-90900910D01*
X116278569Y-91113110D01*
X116278186Y-91115000D01*
X98000005Y-91115000D01*
X98000000Y-91114999D01*
X97661326Y-91182366D01*
X97566054Y-91246025D01*
X97374210Y-91374210D01*
X97374208Y-91374213D01*
X95564210Y-93184210D01*
X95372367Y-93471325D01*
X95372367Y-93471326D01*
X95304999Y-93810000D01*
X95305000Y-93810005D01*
X95305000Y-99381414D01*
X95152547Y-99444406D01*
X94636219Y-99959834D01*
X94356439Y-100633618D01*
X94355802Y-101363181D01*
X94634406Y-102037453D01*
X95149834Y-102553781D01*
X95823618Y-102833561D01*
X96553181Y-102834198D01*
X97227453Y-102555594D01*
X97743781Y-102040166D01*
X98023561Y-101366382D01*
X98024198Y-100636819D01*
X97745594Y-99962547D01*
X97230166Y-99446219D01*
X97075000Y-99381788D01*
X97075000Y-94176580D01*
X98366579Y-92885000D01*
X116281286Y-92885000D01*
X116410910Y-93086441D01*
X116623110Y-93231431D01*
X116708926Y-93248809D01*
X116639683Y-93261838D01*
X116423559Y-93400910D01*
X116278569Y-93613110D01*
X116278186Y-93615000D01*
X105500005Y-93615000D01*
X105500000Y-93614999D01*
X105217516Y-93671190D01*
X105161325Y-93682367D01*
X104874210Y-93874210D01*
X104874208Y-93874213D01*
X103184210Y-95564210D01*
X102992367Y-95851325D01*
X102992367Y-95851326D01*
X102924999Y-96190000D01*
X102925000Y-96190005D01*
X102925000Y-99381414D01*
X102772547Y-99444406D01*
X102256219Y-99959834D01*
X101976439Y-100633618D01*
X101975802Y-101363181D01*
X102254406Y-102037453D01*
X102769834Y-102553781D01*
X103443618Y-102833561D01*
X104173181Y-102834198D01*
X104847453Y-102555594D01*
X105363781Y-102040166D01*
X105486241Y-101745250D01*
X112237250Y-101745250D01*
X112237250Y-102793000D01*
X113793000Y-102793000D01*
X113793000Y-100353551D01*
X114047000Y-100353551D01*
X114047000Y-102793000D01*
X115602750Y-102793000D01*
X115602750Y-101818756D01*
X117317250Y-101818756D01*
X117317250Y-104021244D01*
X117445342Y-104665205D01*
X117810116Y-105211128D01*
X118356039Y-105575902D01*
X119000000Y-105703994D01*
X119643961Y-105575902D01*
X120189884Y-105211128D01*
X120554658Y-104665205D01*
X120682750Y-104021244D01*
X120682750Y-101818756D01*
X120554658Y-101174795D01*
X120189884Y-100628872D01*
X119643961Y-100264098D01*
X119000000Y-100136006D01*
X118356039Y-100264098D01*
X117810116Y-100628872D01*
X117445342Y-101174795D01*
X117317250Y-101818756D01*
X115602750Y-101818756D01*
X115602750Y-101745250D01*
X115426057Y-101110957D01*
X115020081Y-100592564D01*
X114446628Y-100268992D01*
X114307926Y-100234825D01*
X114047000Y-100353551D01*
X113793000Y-100353551D01*
X113532074Y-100234825D01*
X113393372Y-100268992D01*
X112819919Y-100592564D01*
X112413943Y-101110957D01*
X112237250Y-101745250D01*
X105486241Y-101745250D01*
X105643561Y-101366382D01*
X105644198Y-100636819D01*
X105365594Y-99962547D01*
X104850166Y-99446219D01*
X104695000Y-99381788D01*
X104695000Y-97285750D01*
X116240000Y-97285750D01*
X116240000Y-97761309D01*
X116336673Y-97994698D01*
X116515301Y-98173327D01*
X116748690Y-98270000D01*
X117074250Y-98270000D01*
X117233000Y-98111250D01*
X117233000Y-97127000D01*
X116398750Y-97127000D01*
X116240000Y-97285750D01*
X104695000Y-97285750D01*
X104695000Y-96556580D01*
X105866579Y-95385000D01*
X116281286Y-95385000D01*
X116410910Y-95586441D01*
X116623110Y-95731431D01*
X116705134Y-95748041D01*
X116515301Y-95826673D01*
X116336673Y-96005302D01*
X116240000Y-96238691D01*
X116240000Y-96714250D01*
X116398750Y-96873000D01*
X117233000Y-96873000D01*
X117233000Y-96853000D01*
X117487000Y-96853000D01*
X117487000Y-96873000D01*
X117507000Y-96873000D01*
X117507000Y-97127000D01*
X117487000Y-97127000D01*
X117487000Y-98111250D01*
X117645750Y-98270000D01*
X117873000Y-98270000D01*
X117873000Y-99000000D01*
X117883006Y-99049410D01*
X117911447Y-99091035D01*
X117953841Y-99118315D01*
X118000000Y-99127000D01*
X123373000Y-99127000D01*
X123373000Y-100306219D01*
X122890116Y-100628872D01*
X122525342Y-101174795D01*
X122397250Y-101818756D01*
X122397250Y-104021244D01*
X122525342Y-104665205D01*
X122890116Y-105211128D01*
X123373000Y-105533781D01*
X123373000Y-110275000D01*
X109534203Y-110275000D01*
X109134920Y-109875020D01*
X109134920Y-108013503D01*
X109221431Y-107886890D01*
X109272440Y-107635000D01*
X109272440Y-107195703D01*
X115063000Y-107195703D01*
X115063000Y-108804297D01*
X115169340Y-109338906D01*
X115472172Y-109792125D01*
X115925391Y-110094957D01*
X116460000Y-110201297D01*
X116994609Y-110094957D01*
X117447828Y-109792125D01*
X117730000Y-109369826D01*
X118012172Y-109792125D01*
X118465391Y-110094957D01*
X119000000Y-110201297D01*
X119534609Y-110094957D01*
X119987828Y-109792125D01*
X120280349Y-109354338D01*
X120297941Y-109413941D01*
X120641974Y-109839630D01*
X121122723Y-110101260D01*
X121196930Y-110116220D01*
X121413000Y-109993720D01*
X121413000Y-108127000D01*
X121667000Y-108127000D01*
X121667000Y-109993720D01*
X121883070Y-110116220D01*
X121957277Y-110101260D01*
X122438026Y-109839630D01*
X122782059Y-109413941D01*
X122937000Y-108889000D01*
X122937000Y-108127000D01*
X121667000Y-108127000D01*
X121413000Y-108127000D01*
X121393000Y-108127000D01*
X121393000Y-107873000D01*
X121413000Y-107873000D01*
X121413000Y-106006280D01*
X121667000Y-106006280D01*
X121667000Y-107873000D01*
X122937000Y-107873000D01*
X122937000Y-107111000D01*
X122782059Y-106586059D01*
X122438026Y-106160370D01*
X121957277Y-105898740D01*
X121883070Y-105883780D01*
X121667000Y-106006280D01*
X121413000Y-106006280D01*
X121196930Y-105883780D01*
X121122723Y-105898740D01*
X120641974Y-106160370D01*
X120297941Y-106586059D01*
X120280349Y-106645662D01*
X119987828Y-106207875D01*
X119534609Y-105905043D01*
X119000000Y-105798703D01*
X118465391Y-105905043D01*
X118012172Y-106207875D01*
X117730000Y-106630174D01*
X117447828Y-106207875D01*
X116994609Y-105905043D01*
X116460000Y-105798703D01*
X115925391Y-105905043D01*
X115472172Y-106207875D01*
X115169340Y-106661094D01*
X115063000Y-107195703D01*
X109272440Y-107195703D01*
X109272440Y-106365000D01*
X109228162Y-106129683D01*
X109089090Y-105913559D01*
X108876890Y-105768569D01*
X108625000Y-105717560D01*
X107655000Y-105717560D01*
X107508037Y-105745213D01*
X107471310Y-105730000D01*
X107145750Y-105730000D01*
X106987000Y-105888750D01*
X106987000Y-106873000D01*
X107007000Y-106873000D01*
X107007000Y-107127000D01*
X106987000Y-107127000D01*
X106987000Y-108111250D01*
X107145750Y-108270000D01*
X107364920Y-108270000D01*
X107364920Y-109875717D01*
X106950081Y-110289833D01*
X106716027Y-110853498D01*
X106715494Y-111463824D01*
X106948564Y-112027897D01*
X107185254Y-112265000D01*
X94072391Y-112265000D01*
X92756049Y-112003163D01*
X91701478Y-111298522D01*
X90996837Y-110243951D01*
X90735000Y-108927610D01*
X90735000Y-107285750D01*
X105740000Y-107285750D01*
X105740000Y-107761309D01*
X105836673Y-107994698D01*
X106015301Y-108173327D01*
X106248690Y-108270000D01*
X106574250Y-108270000D01*
X106733000Y-108111250D01*
X106733000Y-107127000D01*
X105898750Y-107127000D01*
X105740000Y-107285750D01*
X90735000Y-107285750D01*
X90735000Y-106527091D01*
X99100054Y-106527091D01*
X99186358Y-106783488D01*
X99759538Y-106993163D01*
X100369327Y-106967530D01*
X100813642Y-106783488D01*
X100899946Y-106527091D01*
X100000000Y-105627145D01*
X99100054Y-106527091D01*
X90735000Y-106527091D01*
X90735000Y-105207078D01*
X98454377Y-105207078D01*
X98480010Y-105816867D01*
X98664052Y-106261182D01*
X98920449Y-106347486D01*
X99820395Y-105447540D01*
X100179605Y-105447540D01*
X101079551Y-106347486D01*
X101335948Y-106261182D01*
X101344175Y-106238691D01*
X105740000Y-106238691D01*
X105740000Y-106714250D01*
X105898750Y-106873000D01*
X106733000Y-106873000D01*
X106733000Y-105888750D01*
X106574250Y-105730000D01*
X106248690Y-105730000D01*
X106015301Y-105826673D01*
X105836673Y-106005302D01*
X105740000Y-106238691D01*
X101344175Y-106238691D01*
X101545623Y-105688002D01*
X101519990Y-105078213D01*
X101335948Y-104633898D01*
X101079551Y-104547594D01*
X100179605Y-105447540D01*
X99820395Y-105447540D01*
X98920449Y-104547594D01*
X98664052Y-104633898D01*
X98454377Y-105207078D01*
X90735000Y-105207078D01*
X90735000Y-104367989D01*
X99100054Y-104367989D01*
X100000000Y-105267935D01*
X100899946Y-104367989D01*
X100813642Y-104111592D01*
X100240462Y-103901917D01*
X99630673Y-103927550D01*
X99186358Y-104111592D01*
X99100054Y-104367989D01*
X90735000Y-104367989D01*
X90735000Y-103047000D01*
X112237250Y-103047000D01*
X112237250Y-104094750D01*
X112413943Y-104729043D01*
X112819919Y-105247436D01*
X113393372Y-105571008D01*
X113532074Y-105605175D01*
X113793000Y-105486449D01*
X113793000Y-103047000D01*
X114047000Y-103047000D01*
X114047000Y-105486449D01*
X114307926Y-105605175D01*
X114446628Y-105571008D01*
X115020081Y-105247436D01*
X115426057Y-104729043D01*
X115602750Y-104094750D01*
X115602750Y-103047000D01*
X114047000Y-103047000D01*
X113793000Y-103047000D01*
X112237250Y-103047000D01*
X90735000Y-103047000D01*
X90735000Y-92072390D01*
X90996837Y-90756049D01*
X91701478Y-89701478D01*
X92756049Y-88996837D01*
X94072391Y-88735000D01*
X117873000Y-88735000D01*
X117873000Y-90723230D01*
G36*
X142552610Y-88958777D02*
X143444969Y-89555031D01*
X144041223Y-90447390D01*
X144265000Y-91572390D01*
X144265000Y-108927609D01*
X144003163Y-110243951D01*
X143298522Y-111298522D01*
X142243951Y-112003163D01*
X140927610Y-112265000D01*
X124135000Y-112265000D01*
X124135000Y-112045000D01*
X132094995Y-112045000D01*
X132095000Y-112045001D01*
X132377484Y-111988810D01*
X132433675Y-111977633D01*
X132720790Y-111785790D01*
X133717665Y-110788914D01*
X134303824Y-110789426D01*
X134867897Y-110556356D01*
X135284980Y-110140000D01*
X136784504Y-110140000D01*
X136910910Y-110336441D01*
X137123110Y-110481431D01*
X137375000Y-110532440D01*
X138345000Y-110532440D01*
X138491963Y-110504787D01*
X138528690Y-110520000D01*
X138854250Y-110520000D01*
X139013000Y-110361250D01*
X139013000Y-109377000D01*
X139267000Y-109377000D01*
X139267000Y-110361250D01*
X139425750Y-110520000D01*
X139751310Y-110520000D01*
X139984699Y-110423327D01*
X140163327Y-110244698D01*
X140260000Y-110011309D01*
X140260000Y-109535750D01*
X140101250Y-109377000D01*
X139267000Y-109377000D01*
X139013000Y-109377000D01*
X138993000Y-109377000D01*
X138993000Y-109123000D01*
X139013000Y-109123000D01*
X139013000Y-108138750D01*
X139267000Y-108138750D01*
X139267000Y-109123000D01*
X140101250Y-109123000D01*
X140260000Y-108964250D01*
X140260000Y-108488691D01*
X140163327Y-108255302D01*
X139984699Y-108076673D01*
X139751310Y-107980000D01*
X139425750Y-107980000D01*
X139267000Y-108138750D01*
X139013000Y-108138750D01*
X138854250Y-107980000D01*
X138528690Y-107980000D01*
X138488545Y-107996629D01*
X138345000Y-107967560D01*
X137375000Y-107967560D01*
X137139683Y-108011838D01*
X136923559Y-108150910D01*
X136778569Y-108363110D01*
X136777174Y-108370000D01*
X135284283Y-108370000D01*
X134870167Y-107955161D01*
X134306502Y-107721107D01*
X133696176Y-107720574D01*
X133132103Y-107953644D01*
X132700161Y-108384833D01*
X132466107Y-108948498D01*
X132465592Y-109537828D01*
X131728420Y-110275000D01*
X124135000Y-110275000D01*
X124135000Y-106106366D01*
X132883239Y-106106366D01*
X133006237Y-106393862D01*
X133688000Y-106653594D01*
X134417263Y-106632656D01*
X134993763Y-106393862D01*
X135116761Y-106106366D01*
X134000000Y-104989605D01*
X132883239Y-106106366D01*
X124135000Y-106106366D01*
X124135000Y-105693054D01*
X124723961Y-105575902D01*
X125269884Y-105211128D01*
X125634658Y-104665205D01*
X125667917Y-104498000D01*
X132156406Y-104498000D01*
X132177344Y-105227263D01*
X132416138Y-105803763D01*
X132703634Y-105926761D01*
X133820395Y-104810000D01*
X134179605Y-104810000D01*
X135296366Y-105926761D01*
X135583862Y-105803763D01*
X135843594Y-105122000D01*
X135822656Y-104392737D01*
X135583862Y-103816237D01*
X135296366Y-103693239D01*
X134179605Y-104810000D01*
X133820395Y-104810000D01*
X132703634Y-103693239D01*
X132416138Y-103816237D01*
X132156406Y-104498000D01*
X125667917Y-104498000D01*
X125762750Y-104021244D01*
X125762750Y-103513634D01*
X132883239Y-103513634D01*
X134000000Y-104630395D01*
X135116761Y-103513634D01*
X134993763Y-103226138D01*
X134312000Y-102966406D01*
X133582737Y-102987344D01*
X133006237Y-103226138D01*
X132883239Y-103513634D01*
X125762750Y-103513634D01*
X125762750Y-101818756D01*
X125634658Y-101174795D01*
X125269884Y-100628872D01*
X124723961Y-100264098D01*
X124135000Y-100146946D01*
X124135000Y-99000000D01*
X124091573Y-98769205D01*
X123955173Y-98557233D01*
X123747051Y-98415029D01*
X123500000Y-98365000D01*
X118635000Y-98365000D01*
X118635000Y-97127000D01*
X118767000Y-97127000D01*
X118767000Y-98111250D01*
X118925750Y-98270000D01*
X119251310Y-98270000D01*
X119484699Y-98173327D01*
X119663327Y-97994698D01*
X119760000Y-97761309D01*
X119760000Y-97285750D01*
X119601250Y-97127000D01*
X118767000Y-97127000D01*
X118635000Y-97127000D01*
X118635000Y-96853000D01*
X118767000Y-96853000D01*
X118767000Y-96873000D01*
X119601250Y-96873000D01*
X119760000Y-96714250D01*
X119760000Y-96238691D01*
X119663327Y-96005302D01*
X119484699Y-95826673D01*
X119298910Y-95749717D01*
X119360317Y-95738162D01*
X119576441Y-95599090D01*
X119721431Y-95386890D01*
X119721814Y-95385000D01*
X128133420Y-95385000D01*
X129305000Y-96556579D01*
X129305000Y-99381414D01*
X129152547Y-99444406D01*
X128636219Y-99959834D01*
X128356439Y-100633618D01*
X128355802Y-101363181D01*
X128634406Y-102037453D01*
X129149834Y-102553781D01*
X129823618Y-102833561D01*
X130553181Y-102834198D01*
X131227453Y-102555594D01*
X131743781Y-102040166D01*
X132023561Y-101366382D01*
X132024198Y-100636819D01*
X131745594Y-99962547D01*
X131230166Y-99446219D01*
X131075000Y-99381788D01*
X131075000Y-96190005D01*
X131075001Y-96190000D01*
X131007633Y-95851326D01*
X131007633Y-95851325D01*
X130815790Y-95564210D01*
X130815787Y-95564208D01*
X129125790Y-93874210D01*
X129112006Y-93865000D01*
X128838675Y-93682367D01*
X128782484Y-93671190D01*
X128500000Y-93614999D01*
X128499995Y-93615000D01*
X119718714Y-93615000D01*
X119589090Y-93413559D01*
X119376890Y-93268569D01*
X119291074Y-93251191D01*
X119360317Y-93238162D01*
X119576441Y-93099090D01*
X119721431Y-92886890D01*
X119721814Y-92885000D01*
X135133420Y-92885000D01*
X136925000Y-94676579D01*
X136925000Y-99381414D01*
X136772547Y-99444406D01*
X136256219Y-99959834D01*
X135976439Y-100633618D01*
X135975802Y-101363181D01*
X136254406Y-102037453D01*
X136769834Y-102553781D01*
X137443618Y-102833561D01*
X138173181Y-102834198D01*
X138847453Y-102555594D01*
X139363781Y-102040166D01*
X139643561Y-101366382D01*
X139644198Y-100636819D01*
X139365594Y-99962547D01*
X138850166Y-99446219D01*
X138695000Y-99381788D01*
X138695000Y-94310000D01*
X138627633Y-93971325D01*
X138435790Y-93684210D01*
X138435787Y-93684208D01*
X136125790Y-91374210D01*
X136046079Y-91320949D01*
X135838675Y-91182367D01*
X135782484Y-91171190D01*
X135500000Y-91114999D01*
X135499995Y-91115000D01*
X119718714Y-91115000D01*
X119589090Y-90913559D01*
X119376890Y-90768569D01*
X119125000Y-90717560D01*
X118635000Y-90717560D01*
X118635000Y-88735000D01*
X141427609Y-88735000D01*
X142552610Y-88958777D01*
X142552610Y-88958777D01*
G37*
X142552610Y-88958777D02*
X143444969Y-89555031D01*
X144041223Y-90447390D01*
X144265000Y-91572390D01*
X144265000Y-108927609D01*
X144003163Y-110243951D01*
X143298522Y-111298522D01*
X142243951Y-112003163D01*
X140927610Y-112265000D01*
X124135000Y-112265000D01*
X124135000Y-112045000D01*
X132094995Y-112045000D01*
X132095000Y-112045001D01*
X132377484Y-111988810D01*
X132433675Y-111977633D01*
X132720790Y-111785790D01*
X133717665Y-110788914D01*
X134303824Y-110789426D01*
X134867897Y-110556356D01*
X135284980Y-110140000D01*
X136784504Y-110140000D01*
X136910910Y-110336441D01*
X137123110Y-110481431D01*
X137375000Y-110532440D01*
X138345000Y-110532440D01*
X138491963Y-110504787D01*
X138528690Y-110520000D01*
X138854250Y-110520000D01*
X139013000Y-110361250D01*
X139013000Y-109377000D01*
X139267000Y-109377000D01*
X139267000Y-110361250D01*
X139425750Y-110520000D01*
X139751310Y-110520000D01*
X139984699Y-110423327D01*
X140163327Y-110244698D01*
X140260000Y-110011309D01*
X140260000Y-109535750D01*
X140101250Y-109377000D01*
X139267000Y-109377000D01*
X139013000Y-109377000D01*
X138993000Y-109377000D01*
X138993000Y-109123000D01*
X139013000Y-109123000D01*
X139013000Y-108138750D01*
X139267000Y-108138750D01*
X139267000Y-109123000D01*
X140101250Y-109123000D01*
X140260000Y-108964250D01*
X140260000Y-108488691D01*
X140163327Y-108255302D01*
X139984699Y-108076673D01*
X139751310Y-107980000D01*
X139425750Y-107980000D01*
X139267000Y-108138750D01*
X139013000Y-108138750D01*
X138854250Y-107980000D01*
X138528690Y-107980000D01*
X138488545Y-107996629D01*
X138345000Y-107967560D01*
X137375000Y-107967560D01*
X137139683Y-108011838D01*
X136923559Y-108150910D01*
X136778569Y-108363110D01*
X136777174Y-108370000D01*
X135284283Y-108370000D01*
X134870167Y-107955161D01*
X134306502Y-107721107D01*
X133696176Y-107720574D01*
X133132103Y-107953644D01*
X132700161Y-108384833D01*
X132466107Y-108948498D01*
X132465592Y-109537828D01*
X131728420Y-110275000D01*
X124135000Y-110275000D01*
X124135000Y-106106366D01*
X132883239Y-106106366D01*
X133006237Y-106393862D01*
X133688000Y-106653594D01*
X134417263Y-106632656D01*
X134993763Y-106393862D01*
X135116761Y-106106366D01*
X134000000Y-104989605D01*
X132883239Y-106106366D01*
X124135000Y-106106366D01*
X124135000Y-105693054D01*
X124723961Y-105575902D01*
X125269884Y-105211128D01*
X125634658Y-104665205D01*
X125667917Y-104498000D01*
X132156406Y-104498000D01*
X132177344Y-105227263D01*
X132416138Y-105803763D01*
X132703634Y-105926761D01*
X133820395Y-104810000D01*
X134179605Y-104810000D01*
X135296366Y-105926761D01*
X135583862Y-105803763D01*
X135843594Y-105122000D01*
X135822656Y-104392737D01*
X135583862Y-103816237D01*
X135296366Y-103693239D01*
X134179605Y-104810000D01*
X133820395Y-104810000D01*
X132703634Y-103693239D01*
X132416138Y-103816237D01*
X132156406Y-104498000D01*
X125667917Y-104498000D01*
X125762750Y-104021244D01*
X125762750Y-103513634D01*
X132883239Y-103513634D01*
X134000000Y-104630395D01*
X135116761Y-103513634D01*
X134993763Y-103226138D01*
X134312000Y-102966406D01*
X133582737Y-102987344D01*
X133006237Y-103226138D01*
X132883239Y-103513634D01*
X125762750Y-103513634D01*
X125762750Y-101818756D01*
X125634658Y-101174795D01*
X125269884Y-100628872D01*
X124723961Y-100264098D01*
X124135000Y-100146946D01*
X124135000Y-99000000D01*
X124091573Y-98769205D01*
X123955173Y-98557233D01*
X123747051Y-98415029D01*
X123500000Y-98365000D01*
X118635000Y-98365000D01*
X118635000Y-97127000D01*
X118767000Y-97127000D01*
X118767000Y-98111250D01*
X118925750Y-98270000D01*
X119251310Y-98270000D01*
X119484699Y-98173327D01*
X119663327Y-97994698D01*
X119760000Y-97761309D01*
X119760000Y-97285750D01*
X119601250Y-97127000D01*
X118767000Y-97127000D01*
X118635000Y-97127000D01*
X118635000Y-96853000D01*
X118767000Y-96853000D01*
X118767000Y-96873000D01*
X119601250Y-96873000D01*
X119760000Y-96714250D01*
X119760000Y-96238691D01*
X119663327Y-96005302D01*
X119484699Y-95826673D01*
X119298910Y-95749717D01*
X119360317Y-95738162D01*
X119576441Y-95599090D01*
X119721431Y-95386890D01*
X119721814Y-95385000D01*
X128133420Y-95385000D01*
X129305000Y-96556579D01*
X129305000Y-99381414D01*
X129152547Y-99444406D01*
X128636219Y-99959834D01*
X128356439Y-100633618D01*
X128355802Y-101363181D01*
X128634406Y-102037453D01*
X129149834Y-102553781D01*
X129823618Y-102833561D01*
X130553181Y-102834198D01*
X131227453Y-102555594D01*
X131743781Y-102040166D01*
X132023561Y-101366382D01*
X132024198Y-100636819D01*
X131745594Y-99962547D01*
X131230166Y-99446219D01*
X131075000Y-99381788D01*
X131075000Y-96190005D01*
X131075001Y-96190000D01*
X131007633Y-95851326D01*
X131007633Y-95851325D01*
X130815790Y-95564210D01*
X130815787Y-95564208D01*
X129125790Y-93874210D01*
X129112006Y-93865000D01*
X128838675Y-93682367D01*
X128782484Y-93671190D01*
X128500000Y-93614999D01*
X128499995Y-93615000D01*
X119718714Y-93615000D01*
X119589090Y-93413559D01*
X119376890Y-93268569D01*
X119291074Y-93251191D01*
X119360317Y-93238162D01*
X119576441Y-93099090D01*
X119721431Y-92886890D01*
X119721814Y-92885000D01*
X135133420Y-92885000D01*
X136925000Y-94676579D01*
X136925000Y-99381414D01*
X136772547Y-99444406D01*
X136256219Y-99959834D01*
X135976439Y-100633618D01*
X135975802Y-101363181D01*
X136254406Y-102037453D01*
X136769834Y-102553781D01*
X137443618Y-102833561D01*
X138173181Y-102834198D01*
X138847453Y-102555594D01*
X139363781Y-102040166D01*
X139643561Y-101366382D01*
X139644198Y-100636819D01*
X139365594Y-99962547D01*
X138850166Y-99446219D01*
X138695000Y-99381788D01*
X138695000Y-94310000D01*
X138627633Y-93971325D01*
X138435790Y-93684210D01*
X138435787Y-93684208D01*
X136125790Y-91374210D01*
X136046079Y-91320949D01*
X135838675Y-91182367D01*
X135782484Y-91171190D01*
X135500000Y-91114999D01*
X135499995Y-91115000D01*
X119718714Y-91115000D01*
X119589090Y-90913559D01*
X119376890Y-90768569D01*
X119125000Y-90717560D01*
X118635000Y-90717560D01*
X118635000Y-88735000D01*
X141427609Y-88735000D01*
X142552610Y-88958777D01*
M02*
