G75*
%MOIN*%
%OFA0B0*%
%FSLAX25Y25*%
%IPPOS*%
%LPD*%
%AMOC8*
5,1,8,0,0,1.08239X$1,22.5*
%
%ADD10C,0.00000*%
%ADD11C,0.00300*%
%ADD12C,0.03937*%
%ADD13R,0.03150X0.03150*%
%ADD14C,0.23622*%
%ADD15R,0.04331X0.03937*%
%ADD16C,0.06000*%
%ADD17C,0.01600*%
D10*
X0359331Y0319961D02*
X0630984Y0319961D01*
X0631269Y0319964D01*
X0631555Y0319975D01*
X0631840Y0319992D01*
X0632124Y0320016D01*
X0632408Y0320047D01*
X0632691Y0320085D01*
X0632972Y0320130D01*
X0633253Y0320181D01*
X0633533Y0320239D01*
X0633811Y0320304D01*
X0634087Y0320376D01*
X0634361Y0320454D01*
X0634634Y0320539D01*
X0634904Y0320631D01*
X0635172Y0320729D01*
X0635438Y0320833D01*
X0635701Y0320944D01*
X0635961Y0321061D01*
X0636219Y0321184D01*
X0636473Y0321314D01*
X0636724Y0321450D01*
X0636972Y0321591D01*
X0637216Y0321739D01*
X0637457Y0321892D01*
X0637693Y0322052D01*
X0637926Y0322217D01*
X0638155Y0322387D01*
X0638380Y0322563D01*
X0638600Y0322745D01*
X0638816Y0322931D01*
X0639027Y0323123D01*
X0639234Y0323320D01*
X0639436Y0323522D01*
X0639633Y0323729D01*
X0639825Y0323940D01*
X0640011Y0324156D01*
X0640193Y0324376D01*
X0640369Y0324601D01*
X0640539Y0324830D01*
X0640704Y0325063D01*
X0640864Y0325299D01*
X0641017Y0325540D01*
X0641165Y0325784D01*
X0641306Y0326032D01*
X0641442Y0326283D01*
X0641572Y0326537D01*
X0641695Y0326795D01*
X0641812Y0327055D01*
X0641923Y0327318D01*
X0642027Y0327584D01*
X0642125Y0327852D01*
X0642217Y0328122D01*
X0642302Y0328395D01*
X0642380Y0328669D01*
X0642452Y0328945D01*
X0642517Y0329223D01*
X0642575Y0329503D01*
X0642626Y0329784D01*
X0642671Y0330065D01*
X0642709Y0330348D01*
X0642740Y0330632D01*
X0642764Y0330916D01*
X0642781Y0331201D01*
X0642792Y0331487D01*
X0642795Y0331772D01*
X0642795Y0347520D01*
X0642792Y0347805D01*
X0642781Y0348091D01*
X0642764Y0348376D01*
X0642740Y0348660D01*
X0642709Y0348944D01*
X0642671Y0349227D01*
X0642626Y0349508D01*
X0642575Y0349789D01*
X0642517Y0350069D01*
X0642452Y0350347D01*
X0642380Y0350623D01*
X0642302Y0350897D01*
X0642217Y0351170D01*
X0642125Y0351440D01*
X0642027Y0351708D01*
X0641923Y0351974D01*
X0641812Y0352237D01*
X0641695Y0352497D01*
X0641572Y0352755D01*
X0641442Y0353009D01*
X0641306Y0353260D01*
X0641165Y0353508D01*
X0641017Y0353752D01*
X0640864Y0353993D01*
X0640704Y0354229D01*
X0640539Y0354462D01*
X0640369Y0354691D01*
X0640193Y0354916D01*
X0640011Y0355136D01*
X0639825Y0355352D01*
X0639633Y0355563D01*
X0639436Y0355770D01*
X0639234Y0355972D01*
X0639027Y0356169D01*
X0638816Y0356361D01*
X0638600Y0356547D01*
X0638380Y0356729D01*
X0638155Y0356905D01*
X0637926Y0357075D01*
X0637693Y0357240D01*
X0637457Y0357400D01*
X0637216Y0357553D01*
X0636972Y0357701D01*
X0636724Y0357842D01*
X0636473Y0357978D01*
X0636219Y0358108D01*
X0635961Y0358231D01*
X0635701Y0358348D01*
X0635438Y0358459D01*
X0635172Y0358563D01*
X0634904Y0358661D01*
X0634634Y0358753D01*
X0634361Y0358838D01*
X0634087Y0358916D01*
X0633811Y0358988D01*
X0633533Y0359053D01*
X0633253Y0359111D01*
X0632972Y0359162D01*
X0632691Y0359207D01*
X0632408Y0359245D01*
X0632124Y0359276D01*
X0631840Y0359300D01*
X0631555Y0359317D01*
X0631269Y0359328D01*
X0630984Y0359331D01*
X0359331Y0359331D01*
X0359046Y0359328D01*
X0358760Y0359317D01*
X0358475Y0359300D01*
X0358191Y0359276D01*
X0357907Y0359245D01*
X0357624Y0359207D01*
X0357343Y0359162D01*
X0357062Y0359111D01*
X0356782Y0359053D01*
X0356504Y0358988D01*
X0356228Y0358916D01*
X0355954Y0358838D01*
X0355681Y0358753D01*
X0355411Y0358661D01*
X0355143Y0358563D01*
X0354877Y0358459D01*
X0354614Y0358348D01*
X0354354Y0358231D01*
X0354096Y0358108D01*
X0353842Y0357978D01*
X0353591Y0357842D01*
X0353343Y0357701D01*
X0353099Y0357553D01*
X0352858Y0357400D01*
X0352622Y0357240D01*
X0352389Y0357075D01*
X0352160Y0356905D01*
X0351935Y0356729D01*
X0351715Y0356547D01*
X0351499Y0356361D01*
X0351288Y0356169D01*
X0351081Y0355972D01*
X0350879Y0355770D01*
X0350682Y0355563D01*
X0350490Y0355352D01*
X0350304Y0355136D01*
X0350122Y0354916D01*
X0349946Y0354691D01*
X0349776Y0354462D01*
X0349611Y0354229D01*
X0349451Y0353993D01*
X0349298Y0353752D01*
X0349150Y0353508D01*
X0349009Y0353260D01*
X0348873Y0353009D01*
X0348743Y0352755D01*
X0348620Y0352497D01*
X0348503Y0352237D01*
X0348392Y0351974D01*
X0348288Y0351708D01*
X0348190Y0351440D01*
X0348098Y0351170D01*
X0348013Y0350897D01*
X0347935Y0350623D01*
X0347863Y0350347D01*
X0347798Y0350069D01*
X0347740Y0349789D01*
X0347689Y0349508D01*
X0347644Y0349227D01*
X0347606Y0348944D01*
X0347575Y0348660D01*
X0347551Y0348376D01*
X0347534Y0348091D01*
X0347523Y0347805D01*
X0347520Y0347520D01*
X0347520Y0331772D01*
X0347523Y0331487D01*
X0347534Y0331201D01*
X0347551Y0330916D01*
X0347575Y0330632D01*
X0347606Y0330348D01*
X0347644Y0330065D01*
X0347689Y0329784D01*
X0347740Y0329503D01*
X0347798Y0329223D01*
X0347863Y0328945D01*
X0347935Y0328669D01*
X0348013Y0328395D01*
X0348098Y0328122D01*
X0348190Y0327852D01*
X0348288Y0327584D01*
X0348392Y0327318D01*
X0348503Y0327055D01*
X0348620Y0326795D01*
X0348743Y0326537D01*
X0348873Y0326283D01*
X0349009Y0326032D01*
X0349150Y0325784D01*
X0349298Y0325540D01*
X0349451Y0325299D01*
X0349611Y0325063D01*
X0349776Y0324830D01*
X0349946Y0324601D01*
X0350122Y0324376D01*
X0350304Y0324156D01*
X0350490Y0323940D01*
X0350682Y0323729D01*
X0350879Y0323522D01*
X0351081Y0323320D01*
X0351288Y0323123D01*
X0351499Y0322931D01*
X0351715Y0322745D01*
X0351935Y0322563D01*
X0352160Y0322387D01*
X0352389Y0322217D01*
X0352622Y0322052D01*
X0352858Y0321892D01*
X0353099Y0321739D01*
X0353343Y0321591D01*
X0353591Y0321450D01*
X0353842Y0321314D01*
X0354096Y0321184D01*
X0354354Y0321061D01*
X0354614Y0320944D01*
X0354877Y0320833D01*
X0355143Y0320729D01*
X0355411Y0320631D01*
X0355681Y0320539D01*
X0355954Y0320454D01*
X0356228Y0320376D01*
X0356504Y0320304D01*
X0356782Y0320239D01*
X0357062Y0320181D01*
X0357343Y0320130D01*
X0357624Y0320085D01*
X0357907Y0320047D01*
X0358191Y0320016D01*
X0358475Y0319992D01*
X0358760Y0319975D01*
X0359046Y0319964D01*
X0359331Y0319961D01*
D11*
X0393072Y0351575D02*
X0395541Y0351575D01*
X0394307Y0351575D02*
X0394307Y0355278D01*
X0393072Y0354044D01*
D12*
X0382953Y0347520D03*
X0382953Y0331772D03*
X0607362Y0331772D03*
X0607362Y0347520D03*
D13*
X0583740Y0342598D03*
X0583740Y0336693D03*
X0524685Y0336693D03*
X0524685Y0342598D03*
X0465630Y0342598D03*
X0465630Y0336693D03*
X0406575Y0336693D03*
X0406575Y0342598D03*
D14*
X0363268Y0339646D03*
X0627047Y0339646D03*
D15*
X0591614Y0342992D03*
X0591614Y0336299D03*
X0532559Y0336299D03*
X0532559Y0342992D03*
X0457756Y0342992D03*
X0457756Y0336299D03*
X0414449Y0336299D03*
X0414449Y0342992D03*
D16*
X0475157Y0342646D02*
X0475157Y0336646D01*
X0485157Y0336646D02*
X0485157Y0342646D01*
X0495157Y0342646D02*
X0495157Y0336646D01*
X0505157Y0336646D02*
X0505157Y0342646D01*
X0515157Y0342646D02*
X0515157Y0336646D01*
D17*
X0514957Y0335946D02*
X0515357Y0335946D01*
X0515357Y0337544D02*
X0514957Y0337544D01*
X0514957Y0339143D02*
X0515357Y0339143D01*
X0515357Y0339446D02*
X0515357Y0332058D01*
X0515519Y0332058D01*
X0516232Y0332171D01*
X0516918Y0332394D01*
X0517562Y0332722D01*
X0518146Y0333147D01*
X0518657Y0333657D01*
X0519081Y0334241D01*
X0519409Y0334885D01*
X0519632Y0335571D01*
X0519745Y0336285D01*
X0519745Y0339446D01*
X0515358Y0339446D01*
X0515358Y0339846D01*
X0519745Y0339846D01*
X0519745Y0343007D01*
X0519632Y0343720D01*
X0519409Y0344407D01*
X0519081Y0345050D01*
X0518657Y0345634D01*
X0518146Y0346145D01*
X0517562Y0346569D01*
X0516918Y0346897D01*
X0516232Y0347120D01*
X0515519Y0347233D01*
X0515357Y0347233D01*
X0515357Y0339846D01*
X0514957Y0339846D01*
X0514957Y0339446D01*
X0510570Y0339446D01*
X0510570Y0336285D01*
X0510683Y0335571D01*
X0510906Y0334885D01*
X0511234Y0334241D01*
X0511658Y0333657D01*
X0512169Y0333147D01*
X0512753Y0332722D01*
X0513397Y0332394D01*
X0514083Y0332171D01*
X0514796Y0332058D01*
X0514957Y0332058D01*
X0514957Y0339446D01*
X0515357Y0339446D01*
X0514957Y0339846D02*
X0510570Y0339846D01*
X0510570Y0343007D01*
X0510683Y0343720D01*
X0510906Y0344407D01*
X0511234Y0345050D01*
X0511658Y0345634D01*
X0512169Y0346145D01*
X0512753Y0346569D01*
X0513397Y0346897D01*
X0514083Y0347120D01*
X0514796Y0347233D01*
X0514957Y0347233D01*
X0514957Y0339846D01*
X0514957Y0340741D02*
X0515357Y0340741D01*
X0515357Y0342340D02*
X0514957Y0342340D01*
X0514957Y0343938D02*
X0515357Y0343938D01*
X0515357Y0345537D02*
X0514957Y0345537D01*
X0514957Y0347135D02*
X0515357Y0347135D01*
X0516136Y0347135D02*
X0529846Y0347135D01*
X0529683Y0347298D02*
X0530369Y0346612D01*
X0530369Y0346351D01*
X0529818Y0346351D01*
X0529003Y0345537D01*
X0527073Y0345537D01*
X0527235Y0345443D02*
X0526873Y0345652D01*
X0526469Y0345761D01*
X0524685Y0345761D01*
X0522901Y0345761D01*
X0522498Y0345652D01*
X0522136Y0345443D01*
X0521840Y0345148D01*
X0521631Y0344786D01*
X0521523Y0344382D01*
X0521523Y0342598D01*
X0521523Y0340815D01*
X0521631Y0340411D01*
X0521840Y0340049D01*
X0522136Y0339753D01*
X0522449Y0339573D01*
X0521720Y0338844D01*
X0521720Y0334542D01*
X0522534Y0333728D01*
X0526836Y0333728D01*
X0527611Y0334502D01*
X0529003Y0334502D01*
X0529003Y0333755D01*
X0529818Y0332940D01*
X0535300Y0332940D01*
X0536115Y0333755D01*
X0536115Y0338844D01*
X0535313Y0339646D01*
X0536115Y0340448D01*
X0536115Y0345537D01*
X0581352Y0345537D01*
X0581191Y0345443D02*
X0580895Y0345148D01*
X0580686Y0344786D01*
X0580578Y0344382D01*
X0580578Y0342598D01*
X0580578Y0340815D01*
X0580686Y0340411D01*
X0580895Y0340049D01*
X0581191Y0339753D01*
X0581504Y0339573D01*
X0580775Y0338844D01*
X0580775Y0334542D01*
X0581589Y0333728D01*
X0585891Y0333728D01*
X0586666Y0334502D01*
X0588058Y0334502D01*
X0588058Y0333755D01*
X0588873Y0332940D01*
X0594356Y0332940D01*
X0595170Y0333755D01*
X0595170Y0338844D01*
X0594368Y0339646D01*
X0595170Y0340448D01*
X0595170Y0340802D01*
X0597203Y0340802D01*
X0597298Y0340707D01*
X0597298Y0330710D01*
X0594644Y0328057D01*
X0509844Y0328057D01*
X0507348Y0330553D01*
X0507348Y0332801D01*
X0507645Y0332924D01*
X0508880Y0334159D01*
X0509548Y0335772D01*
X0509548Y0343519D01*
X0508880Y0345133D01*
X0507645Y0346368D01*
X0506031Y0347036D01*
X0504284Y0347036D01*
X0502670Y0346368D01*
X0501435Y0345133D01*
X0500767Y0343519D01*
X0500767Y0335772D01*
X0501435Y0334159D01*
X0502670Y0332924D01*
X0502967Y0332801D01*
X0502967Y0328738D01*
X0506746Y0324959D01*
X0508030Y0323676D01*
X0596459Y0323676D01*
X0600396Y0327613D01*
X0601679Y0328896D01*
X0601679Y0342522D01*
X0600396Y0343805D01*
X0599018Y0345183D01*
X0595170Y0345183D01*
X0595170Y0345537D01*
X0604595Y0345537D01*
X0604515Y0345617D02*
X0605459Y0344672D01*
X0606694Y0344161D01*
X0608030Y0344161D01*
X0609265Y0344672D01*
X0610210Y0345617D01*
X0610721Y0346852D01*
X0610721Y0348188D01*
X0610210Y0349422D01*
X0609265Y0350367D01*
X0608030Y0350879D01*
X0606694Y0350879D01*
X0605459Y0350367D01*
X0604515Y0349422D01*
X0604003Y0348188D01*
X0604003Y0346852D01*
X0604515Y0345617D01*
X0604003Y0347135D02*
X0534750Y0347135D01*
X0534750Y0346351D02*
X0534750Y0348427D01*
X0533466Y0349710D01*
X0531498Y0351679D01*
X0496219Y0351679D01*
X0494935Y0350396D01*
X0492967Y0348427D01*
X0492967Y0346491D01*
X0492670Y0346368D01*
X0491435Y0345133D01*
X0490767Y0343519D01*
X0490767Y0335772D01*
X0491435Y0334159D01*
X0492670Y0332924D01*
X0494284Y0332255D01*
X0496031Y0332255D01*
X0497645Y0332924D01*
X0498880Y0334159D01*
X0499548Y0335772D01*
X0499548Y0343519D01*
X0498880Y0345133D01*
X0497645Y0346368D01*
X0497348Y0346491D01*
X0497348Y0346612D01*
X0498033Y0347298D01*
X0529683Y0347298D01*
X0529003Y0345537D02*
X0529003Y0340448D01*
X0529805Y0339646D01*
X0529043Y0338883D01*
X0527611Y0338883D01*
X0526921Y0339573D01*
X0527235Y0339753D01*
X0527530Y0340049D01*
X0527739Y0340411D01*
X0527847Y0340815D01*
X0527847Y0342598D01*
X0524685Y0342598D01*
X0521523Y0342598D01*
X0524685Y0342598D01*
X0524685Y0342598D01*
X0524685Y0342598D01*
X0527847Y0342598D01*
X0527847Y0344382D01*
X0527739Y0344786D01*
X0527530Y0345148D01*
X0527235Y0345443D01*
X0527847Y0343938D02*
X0529003Y0343938D01*
X0529003Y0342340D02*
X0527847Y0342340D01*
X0527828Y0340741D02*
X0529003Y0340741D01*
X0529302Y0339143D02*
X0527351Y0339143D01*
X0524685Y0336693D02*
X0532559Y0336693D01*
X0532559Y0336299D01*
X0536115Y0335946D02*
X0580775Y0335946D01*
X0580775Y0337544D02*
X0536115Y0337544D01*
X0535816Y0339143D02*
X0581074Y0339143D01*
X0580598Y0340741D02*
X0536115Y0340741D01*
X0536115Y0342340D02*
X0580578Y0342340D01*
X0580578Y0342598D02*
X0583740Y0342598D01*
X0583740Y0342598D01*
X0583740Y0342598D01*
X0586902Y0342598D01*
X0586902Y0340815D01*
X0586794Y0340411D01*
X0586585Y0340049D01*
X0586290Y0339753D01*
X0585977Y0339573D01*
X0586666Y0338883D01*
X0588098Y0338883D01*
X0588860Y0339646D01*
X0588058Y0340448D01*
X0588058Y0345537D01*
X0588873Y0346351D01*
X0594356Y0346351D01*
X0595170Y0345537D01*
X0598110Y0342992D02*
X0599488Y0341614D01*
X0599488Y0329803D01*
X0595551Y0325866D01*
X0508937Y0325866D01*
X0505157Y0329646D01*
X0505157Y0339646D01*
X0500767Y0339143D02*
X0499548Y0339143D01*
X0499548Y0340741D02*
X0500767Y0340741D01*
X0500767Y0342340D02*
X0499548Y0342340D01*
X0499374Y0343938D02*
X0500941Y0343938D01*
X0501839Y0345537D02*
X0498476Y0345537D01*
X0497871Y0347135D02*
X0514179Y0347135D01*
X0511588Y0345537D02*
X0508476Y0345537D01*
X0509374Y0343938D02*
X0510754Y0343938D01*
X0510570Y0342340D02*
X0509548Y0342340D01*
X0509548Y0340741D02*
X0510570Y0340741D01*
X0510570Y0339143D02*
X0509548Y0339143D01*
X0509548Y0337544D02*
X0510570Y0337544D01*
X0510624Y0335946D02*
X0509548Y0335946D01*
X0508958Y0334347D02*
X0511180Y0334347D01*
X0512717Y0332749D02*
X0507348Y0332749D01*
X0507348Y0331150D02*
X0597298Y0331150D01*
X0597298Y0332749D02*
X0517598Y0332749D01*
X0519135Y0334347D02*
X0521915Y0334347D01*
X0521720Y0335946D02*
X0519691Y0335946D01*
X0519745Y0337544D02*
X0521720Y0337544D01*
X0522019Y0339143D02*
X0519745Y0339143D01*
X0519745Y0340741D02*
X0521542Y0340741D01*
X0521523Y0342340D02*
X0519745Y0342340D01*
X0519561Y0343938D02*
X0521523Y0343938D01*
X0522297Y0345537D02*
X0518727Y0345537D01*
X0524685Y0345537D02*
X0524685Y0345537D01*
X0524685Y0345761D02*
X0524685Y0342599D01*
X0524685Y0345761D01*
X0524685Y0343938D02*
X0524685Y0343938D01*
X0524685Y0342599D02*
X0524685Y0342599D01*
X0532559Y0342992D02*
X0532559Y0347520D01*
X0530591Y0349488D01*
X0497126Y0349488D01*
X0495157Y0347520D01*
X0495157Y0339646D01*
X0490767Y0339143D02*
X0489548Y0339143D01*
X0489548Y0340741D02*
X0490767Y0340741D01*
X0490767Y0342340D02*
X0489548Y0342340D01*
X0489548Y0343519D02*
X0488880Y0345133D01*
X0487645Y0346368D01*
X0487505Y0346425D01*
X0487505Y0348427D01*
X0486222Y0349710D01*
X0484254Y0351679D01*
X0458817Y0351679D01*
X0457534Y0350396D01*
X0455565Y0348427D01*
X0455565Y0346351D01*
X0455015Y0346351D01*
X0454200Y0345537D01*
X0418005Y0345537D01*
X0417190Y0346351D01*
X0411707Y0346351D01*
X0410893Y0345537D01*
X0408963Y0345537D01*
X0409124Y0345443D02*
X0408762Y0345652D01*
X0408359Y0345761D01*
X0406575Y0345761D01*
X0406575Y0342599D01*
X0406575Y0342599D01*
X0406575Y0342598D02*
X0409737Y0342598D01*
X0406575Y0342598D01*
X0406575Y0342598D01*
X0403413Y0342598D01*
X0403413Y0340815D01*
X0403521Y0340411D01*
X0403730Y0340049D01*
X0404025Y0339753D01*
X0404338Y0339573D01*
X0403609Y0338844D01*
X0403609Y0334542D01*
X0404424Y0333728D01*
X0408726Y0333728D01*
X0409500Y0334502D01*
X0410893Y0334502D01*
X0410893Y0333755D01*
X0411707Y0332940D01*
X0417190Y0332940D01*
X0418005Y0333755D01*
X0418005Y0338844D01*
X0417203Y0339646D01*
X0418005Y0340448D01*
X0418005Y0340802D01*
X0420038Y0340802D01*
X0420132Y0340707D01*
X0420132Y0330864D01*
X0427321Y0323676D01*
X0472443Y0323676D01*
X0473726Y0324959D01*
X0477348Y0328581D01*
X0477348Y0332801D01*
X0477645Y0332924D01*
X0478880Y0334159D01*
X0479548Y0335772D01*
X0479548Y0343519D01*
X0478880Y0345133D01*
X0477645Y0346368D01*
X0476031Y0347036D01*
X0474284Y0347036D01*
X0472670Y0346368D01*
X0471435Y0345133D01*
X0470767Y0343519D01*
X0470767Y0335772D01*
X0471435Y0334159D01*
X0472670Y0332924D01*
X0472967Y0332801D01*
X0472967Y0330396D01*
X0470628Y0328057D01*
X0429136Y0328057D01*
X0424513Y0332679D01*
X0424513Y0342522D01*
X0423230Y0343805D01*
X0423135Y0343899D01*
X0421852Y0345183D01*
X0418005Y0345183D01*
X0418005Y0345537D01*
X0420945Y0342992D02*
X0422323Y0341614D01*
X0422323Y0331772D01*
X0428228Y0325866D01*
X0471535Y0325866D01*
X0475157Y0329488D01*
X0475157Y0339646D01*
X0470767Y0339143D02*
X0468296Y0339143D01*
X0468595Y0338844D02*
X0467866Y0339573D01*
X0468179Y0339753D01*
X0468475Y0340049D01*
X0468684Y0340411D01*
X0468792Y0340815D01*
X0468792Y0342598D01*
X0465630Y0342598D01*
X0465630Y0342598D01*
X0462468Y0342598D01*
X0462468Y0340815D01*
X0462576Y0340411D01*
X0462785Y0340049D01*
X0463080Y0339753D01*
X0463394Y0339573D01*
X0462665Y0338844D01*
X0462665Y0338490D01*
X0461312Y0338490D01*
X0461312Y0338844D01*
X0460510Y0339646D01*
X0461312Y0340448D01*
X0461312Y0345537D01*
X0460497Y0346351D01*
X0459946Y0346351D01*
X0459946Y0346612D01*
X0460632Y0347298D01*
X0482439Y0347298D01*
X0483124Y0346612D01*
X0483124Y0346556D01*
X0482670Y0346368D01*
X0481435Y0345133D01*
X0480767Y0343519D01*
X0480767Y0335772D01*
X0481435Y0334159D01*
X0482670Y0332924D01*
X0484284Y0332255D01*
X0486031Y0332255D01*
X0487645Y0332924D01*
X0488880Y0334159D01*
X0489548Y0335772D01*
X0489548Y0343519D01*
X0489374Y0343938D02*
X0490941Y0343938D01*
X0491839Y0345537D02*
X0488476Y0345537D01*
X0487505Y0347135D02*
X0492967Y0347135D01*
X0493274Y0348734D02*
X0487199Y0348734D01*
X0485315Y0347520D02*
X0485315Y0335866D01*
X0485157Y0339646D01*
X0480767Y0339143D02*
X0479548Y0339143D01*
X0479548Y0340741D02*
X0480767Y0340741D01*
X0480767Y0342340D02*
X0479548Y0342340D01*
X0479374Y0343938D02*
X0480941Y0343938D01*
X0481839Y0345537D02*
X0478476Y0345537D01*
X0482601Y0347135D02*
X0460469Y0347135D01*
X0461312Y0345537D02*
X0463242Y0345537D01*
X0463080Y0345443D02*
X0462785Y0345148D01*
X0462576Y0344786D01*
X0462468Y0344382D01*
X0462468Y0342598D01*
X0465630Y0342598D01*
X0465630Y0342598D01*
X0468792Y0342598D01*
X0468792Y0344382D01*
X0468684Y0344786D01*
X0468475Y0345148D01*
X0468179Y0345443D01*
X0467817Y0345652D01*
X0467414Y0345761D01*
X0465630Y0345761D01*
X0465630Y0342599D01*
X0465630Y0342599D01*
X0465630Y0345761D01*
X0463846Y0345761D01*
X0463442Y0345652D01*
X0463080Y0345443D01*
X0462468Y0343938D02*
X0461312Y0343938D01*
X0461312Y0342340D02*
X0462468Y0342340D01*
X0462487Y0340741D02*
X0461312Y0340741D01*
X0461013Y0339143D02*
X0462964Y0339143D01*
X0465630Y0336693D02*
X0465630Y0336299D01*
X0457756Y0336299D01*
X0454200Y0335946D02*
X0424513Y0335946D01*
X0424513Y0337544D02*
X0454200Y0337544D01*
X0454200Y0338844D02*
X0454200Y0333755D01*
X0455015Y0332940D01*
X0460497Y0332940D01*
X0461312Y0333755D01*
X0461312Y0334109D01*
X0463098Y0334109D01*
X0463479Y0333728D01*
X0467781Y0333728D01*
X0468595Y0334542D01*
X0468595Y0338844D01*
X0468595Y0337544D02*
X0470767Y0337544D01*
X0470767Y0335946D02*
X0468595Y0335946D01*
X0468400Y0334347D02*
X0471357Y0334347D01*
X0472967Y0332749D02*
X0424513Y0332749D01*
X0424513Y0334347D02*
X0454200Y0334347D01*
X0454200Y0338844D02*
X0455002Y0339646D01*
X0454200Y0340448D01*
X0454200Y0345537D01*
X0454200Y0343938D02*
X0423097Y0343938D01*
X0423135Y0343899D02*
X0423135Y0343899D01*
X0423230Y0343805D02*
X0423230Y0343805D01*
X0424513Y0342340D02*
X0454200Y0342340D01*
X0454200Y0340741D02*
X0424513Y0340741D01*
X0424513Y0339143D02*
X0454499Y0339143D01*
X0457756Y0342992D02*
X0457756Y0347520D01*
X0459724Y0349488D01*
X0483346Y0349488D01*
X0485315Y0347520D01*
X0485600Y0350332D02*
X0494872Y0350332D01*
X0490767Y0337544D02*
X0489548Y0337544D01*
X0489548Y0335946D02*
X0490767Y0335946D01*
X0491357Y0334347D02*
X0488958Y0334347D01*
X0487222Y0332749D02*
X0493092Y0332749D01*
X0497222Y0332749D02*
X0502967Y0332749D01*
X0502967Y0331150D02*
X0477348Y0331150D01*
X0477348Y0329552D02*
X0502967Y0329552D01*
X0503752Y0327953D02*
X0476720Y0327953D01*
X0475122Y0326355D02*
X0505351Y0326355D01*
X0506949Y0324756D02*
X0473523Y0324756D01*
X0472123Y0329552D02*
X0427641Y0329552D01*
X0426042Y0331150D02*
X0472967Y0331150D01*
X0477348Y0332749D02*
X0483092Y0332749D01*
X0481357Y0334347D02*
X0478958Y0334347D01*
X0479548Y0335946D02*
X0480767Y0335946D01*
X0480767Y0337544D02*
X0479548Y0337544D01*
X0470767Y0340741D02*
X0468772Y0340741D01*
X0468792Y0342340D02*
X0470767Y0342340D01*
X0470941Y0343938D02*
X0468792Y0343938D01*
X0468018Y0345537D02*
X0471839Y0345537D01*
X0465630Y0345537D02*
X0465630Y0345537D01*
X0465630Y0343938D02*
X0465630Y0343938D01*
X0457471Y0350332D02*
X0396477Y0350332D01*
X0396179Y0350035D02*
X0397082Y0350937D01*
X0397082Y0352213D01*
X0396179Y0353116D01*
X0395847Y0353116D01*
X0395847Y0355916D01*
X0394945Y0356819D01*
X0393668Y0356819D01*
X0391532Y0354682D01*
X0391532Y0353406D01*
X0392128Y0352810D01*
X0391532Y0352213D01*
X0391532Y0350937D01*
X0392434Y0350035D01*
X0396179Y0350035D01*
X0397082Y0351931D02*
X0621923Y0351931D01*
X0621952Y0351948D02*
X0618941Y0350210D01*
X0616483Y0347752D01*
X0614745Y0344741D01*
X0613846Y0341384D01*
X0613846Y0337908D01*
X0614745Y0334550D01*
X0616483Y0331540D01*
X0618941Y0329082D01*
X0621952Y0327344D01*
X0625309Y0326444D01*
X0628785Y0326444D01*
X0632143Y0327344D01*
X0635153Y0329082D01*
X0637611Y0331540D01*
X0639349Y0334550D01*
X0640249Y0337908D01*
X0640249Y0341384D01*
X0639349Y0344741D01*
X0637611Y0347752D01*
X0635153Y0350210D01*
X0632143Y0351948D01*
X0628785Y0352847D01*
X0625309Y0352847D01*
X0621952Y0351948D01*
X0619154Y0350332D02*
X0609300Y0350332D01*
X0610495Y0348734D02*
X0617466Y0348734D01*
X0616128Y0347135D02*
X0610721Y0347135D01*
X0610130Y0345537D02*
X0615205Y0345537D01*
X0614530Y0343938D02*
X0600262Y0343938D01*
X0601679Y0342340D02*
X0614102Y0342340D01*
X0613846Y0340741D02*
X0601679Y0340741D01*
X0601679Y0339143D02*
X0613846Y0339143D01*
X0613943Y0337544D02*
X0601679Y0337544D01*
X0601679Y0335946D02*
X0614371Y0335946D01*
X0614862Y0334347D02*
X0609537Y0334347D01*
X0609265Y0334619D02*
X0608030Y0335131D01*
X0606694Y0335131D01*
X0605459Y0334619D01*
X0604515Y0333674D01*
X0604003Y0332440D01*
X0604003Y0331103D01*
X0604515Y0329869D01*
X0605459Y0328924D01*
X0606694Y0328413D01*
X0608030Y0328413D01*
X0609265Y0328924D01*
X0610210Y0329869D01*
X0610721Y0331103D01*
X0610721Y0332440D01*
X0610210Y0333674D01*
X0609265Y0334619D01*
X0610593Y0332749D02*
X0615785Y0332749D01*
X0616873Y0331150D02*
X0610721Y0331150D01*
X0609893Y0329552D02*
X0618471Y0329552D01*
X0620896Y0327953D02*
X0600736Y0327953D01*
X0601679Y0329552D02*
X0604832Y0329552D01*
X0604003Y0331150D02*
X0601679Y0331150D01*
X0601679Y0332749D02*
X0604131Y0332749D01*
X0605187Y0334347D02*
X0601679Y0334347D01*
X0597298Y0334347D02*
X0595170Y0334347D01*
X0595170Y0335946D02*
X0597298Y0335946D01*
X0597298Y0337544D02*
X0595170Y0337544D01*
X0594871Y0339143D02*
X0597298Y0339143D01*
X0597263Y0340741D02*
X0595170Y0340741D01*
X0598110Y0342992D02*
X0591614Y0342992D01*
X0588058Y0342340D02*
X0586902Y0342340D01*
X0586902Y0342598D02*
X0586902Y0344382D01*
X0586794Y0344786D01*
X0586585Y0345148D01*
X0586290Y0345443D01*
X0585928Y0345652D01*
X0585524Y0345761D01*
X0583740Y0345761D01*
X0581956Y0345761D01*
X0581553Y0345652D01*
X0581191Y0345443D01*
X0580578Y0343938D02*
X0536115Y0343938D01*
X0536115Y0345537D02*
X0535300Y0346351D01*
X0534750Y0346351D01*
X0534443Y0348734D02*
X0604229Y0348734D01*
X0605424Y0350332D02*
X0532844Y0350332D01*
X0536115Y0334347D02*
X0580970Y0334347D01*
X0583740Y0336693D02*
X0591614Y0336693D01*
X0591614Y0336299D01*
X0588058Y0334347D02*
X0586511Y0334347D01*
X0586406Y0339143D02*
X0588357Y0339143D01*
X0588058Y0340741D02*
X0586883Y0340741D01*
X0586902Y0342598D02*
X0583740Y0342598D01*
X0580578Y0342598D01*
X0583740Y0342599D02*
X0583740Y0345761D01*
X0583740Y0342599D01*
X0583740Y0342599D01*
X0583740Y0343938D02*
X0583740Y0343938D01*
X0583740Y0345537D02*
X0583740Y0345537D01*
X0586128Y0345537D02*
X0588058Y0345537D01*
X0588058Y0343938D02*
X0586902Y0343938D01*
X0596139Y0329552D02*
X0508349Y0329552D01*
X0514957Y0332749D02*
X0515357Y0332749D01*
X0515357Y0334347D02*
X0514957Y0334347D01*
X0501357Y0334347D02*
X0498958Y0334347D01*
X0499548Y0335946D02*
X0500767Y0335946D01*
X0500767Y0337544D02*
X0499548Y0337544D01*
X0527455Y0334347D02*
X0529003Y0334347D01*
X0597539Y0324756D02*
X0638128Y0324756D01*
X0638074Y0324682D02*
X0635536Y0322838D01*
X0632553Y0321868D01*
X0630984Y0321745D01*
X0359331Y0321745D01*
X0357762Y0321868D01*
X0354779Y0322838D01*
X0352241Y0324682D01*
X0350397Y0327220D01*
X0349427Y0330203D01*
X0349304Y0331772D01*
X0349304Y0332511D01*
X0349304Y0347520D01*
X0349427Y0349088D01*
X0350397Y0352072D01*
X0352241Y0354610D01*
X0354779Y0356454D01*
X0357762Y0357423D01*
X0359331Y0357546D01*
X0630984Y0357546D01*
X0632553Y0357423D01*
X0635536Y0356454D01*
X0638074Y0354610D01*
X0639918Y0352072D01*
X0640888Y0349088D01*
X0641011Y0347520D01*
X0641011Y0331772D01*
X0640888Y0330203D01*
X0639918Y0327220D01*
X0638074Y0324682D01*
X0639290Y0326355D02*
X0599138Y0326355D01*
X0633198Y0327953D02*
X0640157Y0327953D01*
X0640676Y0329552D02*
X0635623Y0329552D01*
X0637222Y0331150D02*
X0640962Y0331150D01*
X0641011Y0332749D02*
X0638309Y0332749D01*
X0639232Y0334347D02*
X0641011Y0334347D01*
X0641011Y0335946D02*
X0639723Y0335946D01*
X0640151Y0337544D02*
X0641011Y0337544D01*
X0641011Y0339143D02*
X0640249Y0339143D01*
X0640249Y0340741D02*
X0641011Y0340741D01*
X0641011Y0342340D02*
X0639993Y0342340D01*
X0639564Y0343938D02*
X0641011Y0343938D01*
X0641011Y0345537D02*
X0638890Y0345537D01*
X0637967Y0347135D02*
X0641011Y0347135D01*
X0640915Y0348734D02*
X0636629Y0348734D01*
X0634941Y0350332D02*
X0640483Y0350332D01*
X0639964Y0351931D02*
X0632172Y0351931D01*
X0634697Y0356726D02*
X0395037Y0356726D01*
X0393576Y0356726D02*
X0355618Y0356726D01*
X0352954Y0355128D02*
X0391977Y0355128D01*
X0391532Y0353529D02*
X0351456Y0353529D01*
X0350351Y0351931D02*
X0358143Y0351931D01*
X0358172Y0351948D02*
X0355162Y0350210D01*
X0352704Y0347752D01*
X0350966Y0344741D01*
X0350066Y0341384D01*
X0350066Y0337908D01*
X0350966Y0334550D01*
X0352704Y0331540D01*
X0355162Y0329082D01*
X0358172Y0327344D01*
X0361530Y0326444D01*
X0365006Y0326444D01*
X0368363Y0327344D01*
X0371374Y0329082D01*
X0373832Y0331540D01*
X0375570Y0334550D01*
X0376469Y0337908D01*
X0376469Y0341384D01*
X0375570Y0344741D01*
X0373832Y0347752D01*
X0371374Y0350210D01*
X0368363Y0351948D01*
X0365006Y0352847D01*
X0361530Y0352847D01*
X0358172Y0351948D01*
X0355374Y0350332D02*
X0349832Y0350332D01*
X0349399Y0348734D02*
X0353686Y0348734D01*
X0352348Y0347135D02*
X0349304Y0347135D01*
X0349304Y0345537D02*
X0351425Y0345537D01*
X0350751Y0343938D02*
X0349304Y0343938D01*
X0349304Y0342340D02*
X0350322Y0342340D01*
X0350066Y0340741D02*
X0349304Y0340741D01*
X0349304Y0339143D02*
X0350066Y0339143D01*
X0350164Y0337544D02*
X0349304Y0337544D01*
X0349304Y0335946D02*
X0350592Y0335946D01*
X0351083Y0334347D02*
X0349304Y0334347D01*
X0349304Y0332749D02*
X0352006Y0332749D01*
X0353093Y0331150D02*
X0349353Y0331150D01*
X0349639Y0329552D02*
X0354692Y0329552D01*
X0357117Y0327953D02*
X0350158Y0327953D01*
X0351025Y0326355D02*
X0424642Y0326355D01*
X0423043Y0327953D02*
X0369419Y0327953D01*
X0371844Y0329552D02*
X0380422Y0329552D01*
X0380105Y0329869D02*
X0381050Y0328924D01*
X0382285Y0328413D01*
X0383621Y0328413D01*
X0384855Y0328924D01*
X0385800Y0329869D01*
X0386312Y0331103D01*
X0386312Y0332440D01*
X0385800Y0333674D01*
X0384855Y0334619D01*
X0383621Y0335131D01*
X0382285Y0335131D01*
X0381050Y0334619D01*
X0380105Y0333674D01*
X0379594Y0332440D01*
X0379594Y0331103D01*
X0380105Y0329869D01*
X0379594Y0331150D02*
X0373442Y0331150D01*
X0374530Y0332749D02*
X0379722Y0332749D01*
X0380778Y0334347D02*
X0375453Y0334347D01*
X0375944Y0335946D02*
X0403609Y0335946D01*
X0403609Y0337544D02*
X0376372Y0337544D01*
X0376469Y0339143D02*
X0403909Y0339143D01*
X0403432Y0340741D02*
X0376469Y0340741D01*
X0376213Y0342340D02*
X0403413Y0342340D01*
X0403413Y0342598D02*
X0406575Y0342598D01*
X0406575Y0342598D01*
X0406575Y0342599D02*
X0406575Y0345761D01*
X0404791Y0345761D01*
X0404387Y0345652D01*
X0404025Y0345443D01*
X0403730Y0345148D01*
X0403521Y0344786D01*
X0403413Y0344382D01*
X0403413Y0342598D01*
X0403413Y0343938D02*
X0375785Y0343938D01*
X0375110Y0345537D02*
X0380185Y0345537D01*
X0380105Y0345617D02*
X0381050Y0344672D01*
X0382285Y0344161D01*
X0383621Y0344161D01*
X0384855Y0344672D01*
X0385800Y0345617D01*
X0386312Y0346852D01*
X0386312Y0348188D01*
X0385800Y0349422D01*
X0384855Y0350367D01*
X0383621Y0350879D01*
X0382285Y0350879D01*
X0381050Y0350367D01*
X0380105Y0349422D01*
X0379594Y0348188D01*
X0379594Y0346852D01*
X0380105Y0345617D01*
X0379594Y0347135D02*
X0374187Y0347135D01*
X0372849Y0348734D02*
X0379820Y0348734D01*
X0381015Y0350332D02*
X0371161Y0350332D01*
X0368392Y0351931D02*
X0391532Y0351931D01*
X0392136Y0350332D02*
X0384891Y0350332D01*
X0386086Y0348734D02*
X0455872Y0348734D01*
X0455565Y0347135D02*
X0386312Y0347135D01*
X0385720Y0345537D02*
X0404187Y0345537D01*
X0406575Y0345537D02*
X0406575Y0345537D01*
X0406575Y0343938D02*
X0406575Y0343938D01*
X0409124Y0345443D02*
X0409420Y0345148D01*
X0409629Y0344786D01*
X0409737Y0344382D01*
X0409737Y0342598D01*
X0409737Y0340815D01*
X0409629Y0340411D01*
X0409420Y0340049D01*
X0409124Y0339753D01*
X0408811Y0339573D01*
X0409500Y0338883D01*
X0410933Y0338883D01*
X0411695Y0339646D01*
X0410893Y0340448D01*
X0410893Y0345537D01*
X0410893Y0343938D02*
X0409737Y0343938D01*
X0409737Y0342340D02*
X0410893Y0342340D01*
X0410893Y0340741D02*
X0409717Y0340741D01*
X0409241Y0339143D02*
X0411192Y0339143D01*
X0414449Y0336693D02*
X0406575Y0336693D01*
X0409345Y0334347D02*
X0410893Y0334347D01*
X0414449Y0336299D02*
X0414449Y0336693D01*
X0418005Y0335946D02*
X0420132Y0335946D01*
X0420132Y0337544D02*
X0418005Y0337544D01*
X0417706Y0339143D02*
X0420132Y0339143D01*
X0420098Y0340741D02*
X0418005Y0340741D01*
X0420945Y0342992D02*
X0414449Y0342992D01*
X0418005Y0334347D02*
X0420132Y0334347D01*
X0420132Y0332749D02*
X0386184Y0332749D01*
X0386312Y0331150D02*
X0420132Y0331150D01*
X0421445Y0329552D02*
X0385483Y0329552D01*
X0385128Y0334347D02*
X0403804Y0334347D01*
X0426240Y0324756D02*
X0352187Y0324756D01*
X0354338Y0323158D02*
X0635977Y0323158D01*
X0638859Y0353529D02*
X0395847Y0353529D01*
X0395847Y0355128D02*
X0637361Y0355128D01*
M02*
