G04 #@! TF.FileFunction,Copper,L2,Inr,Plane*
%FSLAX46Y46*%
G04 Gerber Fmt 4.6, Leading zero omitted, Abs format (unit mm)*
G04 Created by KiCad (PCBNEW 4.0.6) date 08/02/17 17:45:46*
%MOMM*%
%LPD*%
G01*
G04 APERTURE LIST*
%ADD10C,0.100000*%
%ADD11C,1.798320*%
%ADD12C,1.800000*%
%ADD13C,2.400000*%
%ADD14O,1.524000X3.048000*%
%ADD15O,1.800860X3.500120*%
%ADD16C,6.400000*%
%ADD17C,0.600000*%
%ADD18C,0.500000*%
%ADD19C,0.254000*%
G04 APERTURE END LIST*
D10*
D11*
X114810000Y-88365000D03*
X114175000Y-91540000D03*
X111000000Y-93445000D03*
X107825000Y-91540000D03*
X107190000Y-87730000D03*
X119255000Y-99160000D03*
X119255000Y-82015000D03*
X117350000Y-82650000D03*
X121160000Y-81380000D03*
D12*
X140555000Y-88365000D03*
D13*
X141825000Y-91540000D03*
D12*
X145000000Y-93445000D03*
D13*
X148175000Y-91540000D03*
D12*
X148810000Y-87730000D03*
X145000000Y-97225000D03*
X136110000Y-89000000D03*
X138015000Y-89635000D03*
X134205000Y-88365000D03*
D14*
X125095000Y-64770000D03*
X127635000Y-64770000D03*
D15*
X140335000Y-64770000D03*
X142875000Y-64770000D03*
X145415000Y-64770000D03*
X147955000Y-64770000D03*
X130175000Y-64770000D03*
X132715000Y-64770000D03*
X135255000Y-64770000D03*
X137795000Y-64770000D03*
D14*
X120015000Y-64770000D03*
X122555000Y-64770000D03*
D16*
X104000000Y-64000000D03*
X104000000Y-97000000D03*
X153000000Y-64000000D03*
X153000000Y-97000000D03*
D17*
X108000000Y-68000000D03*
X132000000Y-98000000D03*
X143600000Y-80600000D03*
X140200000Y-82000000D03*
X128200000Y-84200000D03*
X128200000Y-82000000D03*
X129400000Y-78600000D03*
X146558000Y-68580000D03*
X133858000Y-70612000D03*
X135945331Y-71900010D03*
X147400000Y-71385010D03*
X129600000Y-69000000D03*
X121000000Y-71000000D03*
X121000000Y-73000000D03*
D18*
X130500000Y-94750000D03*
X128750000Y-92400000D03*
X124200000Y-96400000D03*
X124100000Y-93900000D03*
X133600000Y-92000000D03*
X133500000Y-95000000D03*
X143256000Y-71628000D03*
X132080000Y-71120000D03*
D19*
G36*
X153318739Y-60473277D02*
X152301514Y-60472389D01*
X151004725Y-61008211D01*
X150011698Y-61999506D01*
X149473614Y-63295358D01*
X149472389Y-64698486D01*
X150008211Y-65995275D01*
X150999506Y-66988302D01*
X152295358Y-67526386D01*
X153698486Y-67527611D01*
X154995275Y-66991789D01*
X155988302Y-66000494D01*
X156526386Y-64704642D01*
X156527277Y-63684047D01*
X156598000Y-64039595D01*
X156598000Y-75373000D01*
X119127000Y-75373000D01*
X119127000Y-71742269D01*
X142678900Y-71742269D01*
X142766558Y-71954417D01*
X142928729Y-72116871D01*
X143140724Y-72204900D01*
X143370269Y-72205100D01*
X143582417Y-72117442D01*
X143744871Y-71955271D01*
X143832900Y-71743276D01*
X143833100Y-71513731D01*
X143745442Y-71301583D01*
X143583271Y-71139129D01*
X143371276Y-71051100D01*
X143141731Y-71050900D01*
X142929583Y-71138558D01*
X142767129Y-71300729D01*
X142679100Y-71512724D01*
X142678900Y-71742269D01*
X119127000Y-71742269D01*
X119127000Y-71234269D01*
X131502900Y-71234269D01*
X131590558Y-71446417D01*
X131752729Y-71608871D01*
X131964724Y-71696900D01*
X132194269Y-71697100D01*
X132406417Y-71609442D01*
X132568871Y-71447271D01*
X132656900Y-71235276D01*
X132657100Y-71005731D01*
X132569442Y-70793583D01*
X132407271Y-70631129D01*
X132195276Y-70543100D01*
X131965731Y-70542900D01*
X131753583Y-70630558D01*
X131591129Y-70792729D01*
X131503100Y-71004724D01*
X131502900Y-71234269D01*
X119127000Y-71234269D01*
X119127000Y-66161761D01*
X119244961Y-66338302D01*
X119598258Y-66574368D01*
X120015000Y-66657263D01*
X120431742Y-66574368D01*
X120785039Y-66338302D01*
X121021105Y-65985005D01*
X121104000Y-65568263D01*
X121104000Y-63971737D01*
X121102831Y-63965859D01*
X121166000Y-63965859D01*
X121166000Y-65574141D01*
X121271731Y-66105688D01*
X121572829Y-66556312D01*
X122023453Y-66857410D01*
X122555000Y-66963141D01*
X123086547Y-66857410D01*
X123537171Y-66556312D01*
X123832425Y-66114434D01*
X123852941Y-66183941D01*
X124196974Y-66609630D01*
X124677723Y-66871260D01*
X124751930Y-66886220D01*
X124968000Y-66763720D01*
X124968000Y-64897000D01*
X124948000Y-64897000D01*
X124948000Y-64643000D01*
X124968000Y-64643000D01*
X124968000Y-62776280D01*
X125222000Y-62776280D01*
X125222000Y-64643000D01*
X125242000Y-64643000D01*
X125242000Y-64897000D01*
X125222000Y-64897000D01*
X125222000Y-66763720D01*
X125438070Y-66886220D01*
X125512277Y-66871260D01*
X125993026Y-66609630D01*
X126337059Y-66183941D01*
X126357575Y-66114434D01*
X126652829Y-66556312D01*
X127103453Y-66857410D01*
X127635000Y-66963141D01*
X128166547Y-66857410D01*
X128617171Y-66556312D01*
X128918269Y-66105688D01*
X128977214Y-65809351D01*
X129041003Y-66130039D01*
X129307076Y-66528246D01*
X129705283Y-66794319D01*
X130175000Y-66887752D01*
X130644717Y-66794319D01*
X131042924Y-66528246D01*
X131308997Y-66130039D01*
X131402430Y-65660322D01*
X131402430Y-63879678D01*
X131487570Y-63879678D01*
X131487570Y-65660322D01*
X131581003Y-66130039D01*
X131847076Y-66528246D01*
X132245283Y-66794319D01*
X132715000Y-66887752D01*
X133184717Y-66794319D01*
X133582924Y-66528246D01*
X133848997Y-66130039D01*
X133942430Y-65660322D01*
X133942430Y-63879678D01*
X134027570Y-63879678D01*
X134027570Y-65660322D01*
X134121003Y-66130039D01*
X134387076Y-66528246D01*
X134785283Y-66794319D01*
X135255000Y-66887752D01*
X135724717Y-66794319D01*
X136122924Y-66528246D01*
X136388997Y-66130039D01*
X136482430Y-65660322D01*
X136482430Y-63879678D01*
X136567570Y-63879678D01*
X136567570Y-65660322D01*
X136661003Y-66130039D01*
X136927076Y-66528246D01*
X137325283Y-66794319D01*
X137795000Y-66887752D01*
X138264717Y-66794319D01*
X138662924Y-66528246D01*
X138928997Y-66130039D01*
X139022430Y-65660322D01*
X139022430Y-63879678D01*
X139107570Y-63879678D01*
X139107570Y-65660322D01*
X139201003Y-66130039D01*
X139467076Y-66528246D01*
X139865283Y-66794319D01*
X140335000Y-66887752D01*
X140804717Y-66794319D01*
X141202924Y-66528246D01*
X141468997Y-66130039D01*
X141562430Y-65660322D01*
X141562430Y-63879678D01*
X141647570Y-63879678D01*
X141647570Y-65660322D01*
X141741003Y-66130039D01*
X142007076Y-66528246D01*
X142405283Y-66794319D01*
X142875000Y-66887752D01*
X143344717Y-66794319D01*
X143742924Y-66528246D01*
X144008997Y-66130039D01*
X144102430Y-65660322D01*
X144102430Y-63879678D01*
X144187570Y-63879678D01*
X144187570Y-65660322D01*
X144281003Y-66130039D01*
X144547076Y-66528246D01*
X144945283Y-66794319D01*
X145415000Y-66887752D01*
X145884717Y-66794319D01*
X146282924Y-66528246D01*
X146548997Y-66130039D01*
X146642430Y-65660322D01*
X146642430Y-63879678D01*
X146727570Y-63879678D01*
X146727570Y-65660322D01*
X146821003Y-66130039D01*
X147087076Y-66528246D01*
X147485283Y-66794319D01*
X147955000Y-66887752D01*
X148424717Y-66794319D01*
X148822924Y-66528246D01*
X149088997Y-66130039D01*
X149182430Y-65660322D01*
X149182430Y-63879678D01*
X149088997Y-63409961D01*
X148822924Y-63011754D01*
X148424717Y-62745681D01*
X147955000Y-62652248D01*
X147485283Y-62745681D01*
X147087076Y-63011754D01*
X146821003Y-63409961D01*
X146727570Y-63879678D01*
X146642430Y-63879678D01*
X146548997Y-63409961D01*
X146282924Y-63011754D01*
X145884717Y-62745681D01*
X145415000Y-62652248D01*
X144945283Y-62745681D01*
X144547076Y-63011754D01*
X144281003Y-63409961D01*
X144187570Y-63879678D01*
X144102430Y-63879678D01*
X144008997Y-63409961D01*
X143742924Y-63011754D01*
X143344717Y-62745681D01*
X142875000Y-62652248D01*
X142405283Y-62745681D01*
X142007076Y-63011754D01*
X141741003Y-63409961D01*
X141647570Y-63879678D01*
X141562430Y-63879678D01*
X141468997Y-63409961D01*
X141202924Y-63011754D01*
X140804717Y-62745681D01*
X140335000Y-62652248D01*
X139865283Y-62745681D01*
X139467076Y-63011754D01*
X139201003Y-63409961D01*
X139107570Y-63879678D01*
X139022430Y-63879678D01*
X138928997Y-63409961D01*
X138662924Y-63011754D01*
X138264717Y-62745681D01*
X137795000Y-62652248D01*
X137325283Y-62745681D01*
X136927076Y-63011754D01*
X136661003Y-63409961D01*
X136567570Y-63879678D01*
X136482430Y-63879678D01*
X136388997Y-63409961D01*
X136122924Y-63011754D01*
X135724717Y-62745681D01*
X135255000Y-62652248D01*
X134785283Y-62745681D01*
X134387076Y-63011754D01*
X134121003Y-63409961D01*
X134027570Y-63879678D01*
X133942430Y-63879678D01*
X133848997Y-63409961D01*
X133582924Y-63011754D01*
X133184717Y-62745681D01*
X132715000Y-62652248D01*
X132245283Y-62745681D01*
X131847076Y-63011754D01*
X131581003Y-63409961D01*
X131487570Y-63879678D01*
X131402430Y-63879678D01*
X131308997Y-63409961D01*
X131042924Y-63011754D01*
X130644717Y-62745681D01*
X130175000Y-62652248D01*
X129705283Y-62745681D01*
X129307076Y-63011754D01*
X129041003Y-63409961D01*
X128977214Y-63730649D01*
X128918269Y-63434312D01*
X128617171Y-62983688D01*
X128166547Y-62682590D01*
X127635000Y-62576859D01*
X127103453Y-62682590D01*
X126652829Y-62983688D01*
X126357575Y-63425566D01*
X126337059Y-63356059D01*
X125993026Y-62930370D01*
X125512277Y-62668740D01*
X125438070Y-62653780D01*
X125222000Y-62776280D01*
X124968000Y-62776280D01*
X124751930Y-62653780D01*
X124677723Y-62668740D01*
X124196974Y-62930370D01*
X123852941Y-63356059D01*
X123832425Y-63425566D01*
X123537171Y-62983688D01*
X123086547Y-62682590D01*
X122555000Y-62576859D01*
X122023453Y-62682590D01*
X121572829Y-62983688D01*
X121271731Y-63434312D01*
X121166000Y-63965859D01*
X121102831Y-63965859D01*
X121021105Y-63554995D01*
X120785039Y-63201698D01*
X120431742Y-62965632D01*
X120015000Y-62882737D01*
X119598258Y-62965632D01*
X119244961Y-63201698D01*
X119127000Y-63378239D01*
X119127000Y-60402000D01*
X152960405Y-60402000D01*
X153318739Y-60473277D01*
X153318739Y-60473277D01*
G37*
X153318739Y-60473277D02*
X152301514Y-60472389D01*
X151004725Y-61008211D01*
X150011698Y-61999506D01*
X149473614Y-63295358D01*
X149472389Y-64698486D01*
X150008211Y-65995275D01*
X150999506Y-66988302D01*
X152295358Y-67526386D01*
X153698486Y-67527611D01*
X154995275Y-66991789D01*
X155988302Y-66000494D01*
X156526386Y-64704642D01*
X156527277Y-63684047D01*
X156598000Y-64039595D01*
X156598000Y-75373000D01*
X119127000Y-75373000D01*
X119127000Y-71742269D01*
X142678900Y-71742269D01*
X142766558Y-71954417D01*
X142928729Y-72116871D01*
X143140724Y-72204900D01*
X143370269Y-72205100D01*
X143582417Y-72117442D01*
X143744871Y-71955271D01*
X143832900Y-71743276D01*
X143833100Y-71513731D01*
X143745442Y-71301583D01*
X143583271Y-71139129D01*
X143371276Y-71051100D01*
X143141731Y-71050900D01*
X142929583Y-71138558D01*
X142767129Y-71300729D01*
X142679100Y-71512724D01*
X142678900Y-71742269D01*
X119127000Y-71742269D01*
X119127000Y-71234269D01*
X131502900Y-71234269D01*
X131590558Y-71446417D01*
X131752729Y-71608871D01*
X131964724Y-71696900D01*
X132194269Y-71697100D01*
X132406417Y-71609442D01*
X132568871Y-71447271D01*
X132656900Y-71235276D01*
X132657100Y-71005731D01*
X132569442Y-70793583D01*
X132407271Y-70631129D01*
X132195276Y-70543100D01*
X131965731Y-70542900D01*
X131753583Y-70630558D01*
X131591129Y-70792729D01*
X131503100Y-71004724D01*
X131502900Y-71234269D01*
X119127000Y-71234269D01*
X119127000Y-66161761D01*
X119244961Y-66338302D01*
X119598258Y-66574368D01*
X120015000Y-66657263D01*
X120431742Y-66574368D01*
X120785039Y-66338302D01*
X121021105Y-65985005D01*
X121104000Y-65568263D01*
X121104000Y-63971737D01*
X121102831Y-63965859D01*
X121166000Y-63965859D01*
X121166000Y-65574141D01*
X121271731Y-66105688D01*
X121572829Y-66556312D01*
X122023453Y-66857410D01*
X122555000Y-66963141D01*
X123086547Y-66857410D01*
X123537171Y-66556312D01*
X123832425Y-66114434D01*
X123852941Y-66183941D01*
X124196974Y-66609630D01*
X124677723Y-66871260D01*
X124751930Y-66886220D01*
X124968000Y-66763720D01*
X124968000Y-64897000D01*
X124948000Y-64897000D01*
X124948000Y-64643000D01*
X124968000Y-64643000D01*
X124968000Y-62776280D01*
X125222000Y-62776280D01*
X125222000Y-64643000D01*
X125242000Y-64643000D01*
X125242000Y-64897000D01*
X125222000Y-64897000D01*
X125222000Y-66763720D01*
X125438070Y-66886220D01*
X125512277Y-66871260D01*
X125993026Y-66609630D01*
X126337059Y-66183941D01*
X126357575Y-66114434D01*
X126652829Y-66556312D01*
X127103453Y-66857410D01*
X127635000Y-66963141D01*
X128166547Y-66857410D01*
X128617171Y-66556312D01*
X128918269Y-66105688D01*
X128977214Y-65809351D01*
X129041003Y-66130039D01*
X129307076Y-66528246D01*
X129705283Y-66794319D01*
X130175000Y-66887752D01*
X130644717Y-66794319D01*
X131042924Y-66528246D01*
X131308997Y-66130039D01*
X131402430Y-65660322D01*
X131402430Y-63879678D01*
X131487570Y-63879678D01*
X131487570Y-65660322D01*
X131581003Y-66130039D01*
X131847076Y-66528246D01*
X132245283Y-66794319D01*
X132715000Y-66887752D01*
X133184717Y-66794319D01*
X133582924Y-66528246D01*
X133848997Y-66130039D01*
X133942430Y-65660322D01*
X133942430Y-63879678D01*
X134027570Y-63879678D01*
X134027570Y-65660322D01*
X134121003Y-66130039D01*
X134387076Y-66528246D01*
X134785283Y-66794319D01*
X135255000Y-66887752D01*
X135724717Y-66794319D01*
X136122924Y-66528246D01*
X136388997Y-66130039D01*
X136482430Y-65660322D01*
X136482430Y-63879678D01*
X136567570Y-63879678D01*
X136567570Y-65660322D01*
X136661003Y-66130039D01*
X136927076Y-66528246D01*
X137325283Y-66794319D01*
X137795000Y-66887752D01*
X138264717Y-66794319D01*
X138662924Y-66528246D01*
X138928997Y-66130039D01*
X139022430Y-65660322D01*
X139022430Y-63879678D01*
X139107570Y-63879678D01*
X139107570Y-65660322D01*
X139201003Y-66130039D01*
X139467076Y-66528246D01*
X139865283Y-66794319D01*
X140335000Y-66887752D01*
X140804717Y-66794319D01*
X141202924Y-66528246D01*
X141468997Y-66130039D01*
X141562430Y-65660322D01*
X141562430Y-63879678D01*
X141647570Y-63879678D01*
X141647570Y-65660322D01*
X141741003Y-66130039D01*
X142007076Y-66528246D01*
X142405283Y-66794319D01*
X142875000Y-66887752D01*
X143344717Y-66794319D01*
X143742924Y-66528246D01*
X144008997Y-66130039D01*
X144102430Y-65660322D01*
X144102430Y-63879678D01*
X144187570Y-63879678D01*
X144187570Y-65660322D01*
X144281003Y-66130039D01*
X144547076Y-66528246D01*
X144945283Y-66794319D01*
X145415000Y-66887752D01*
X145884717Y-66794319D01*
X146282924Y-66528246D01*
X146548997Y-66130039D01*
X146642430Y-65660322D01*
X146642430Y-63879678D01*
X146727570Y-63879678D01*
X146727570Y-65660322D01*
X146821003Y-66130039D01*
X147087076Y-66528246D01*
X147485283Y-66794319D01*
X147955000Y-66887752D01*
X148424717Y-66794319D01*
X148822924Y-66528246D01*
X149088997Y-66130039D01*
X149182430Y-65660322D01*
X149182430Y-63879678D01*
X149088997Y-63409961D01*
X148822924Y-63011754D01*
X148424717Y-62745681D01*
X147955000Y-62652248D01*
X147485283Y-62745681D01*
X147087076Y-63011754D01*
X146821003Y-63409961D01*
X146727570Y-63879678D01*
X146642430Y-63879678D01*
X146548997Y-63409961D01*
X146282924Y-63011754D01*
X145884717Y-62745681D01*
X145415000Y-62652248D01*
X144945283Y-62745681D01*
X144547076Y-63011754D01*
X144281003Y-63409961D01*
X144187570Y-63879678D01*
X144102430Y-63879678D01*
X144008997Y-63409961D01*
X143742924Y-63011754D01*
X143344717Y-62745681D01*
X142875000Y-62652248D01*
X142405283Y-62745681D01*
X142007076Y-63011754D01*
X141741003Y-63409961D01*
X141647570Y-63879678D01*
X141562430Y-63879678D01*
X141468997Y-63409961D01*
X141202924Y-63011754D01*
X140804717Y-62745681D01*
X140335000Y-62652248D01*
X139865283Y-62745681D01*
X139467076Y-63011754D01*
X139201003Y-63409961D01*
X139107570Y-63879678D01*
X139022430Y-63879678D01*
X138928997Y-63409961D01*
X138662924Y-63011754D01*
X138264717Y-62745681D01*
X137795000Y-62652248D01*
X137325283Y-62745681D01*
X136927076Y-63011754D01*
X136661003Y-63409961D01*
X136567570Y-63879678D01*
X136482430Y-63879678D01*
X136388997Y-63409961D01*
X136122924Y-63011754D01*
X135724717Y-62745681D01*
X135255000Y-62652248D01*
X134785283Y-62745681D01*
X134387076Y-63011754D01*
X134121003Y-63409961D01*
X134027570Y-63879678D01*
X133942430Y-63879678D01*
X133848997Y-63409961D01*
X133582924Y-63011754D01*
X133184717Y-62745681D01*
X132715000Y-62652248D01*
X132245283Y-62745681D01*
X131847076Y-63011754D01*
X131581003Y-63409961D01*
X131487570Y-63879678D01*
X131402430Y-63879678D01*
X131308997Y-63409961D01*
X131042924Y-63011754D01*
X130644717Y-62745681D01*
X130175000Y-62652248D01*
X129705283Y-62745681D01*
X129307076Y-63011754D01*
X129041003Y-63409961D01*
X128977214Y-63730649D01*
X128918269Y-63434312D01*
X128617171Y-62983688D01*
X128166547Y-62682590D01*
X127635000Y-62576859D01*
X127103453Y-62682590D01*
X126652829Y-62983688D01*
X126357575Y-63425566D01*
X126337059Y-63356059D01*
X125993026Y-62930370D01*
X125512277Y-62668740D01*
X125438070Y-62653780D01*
X125222000Y-62776280D01*
X124968000Y-62776280D01*
X124751930Y-62653780D01*
X124677723Y-62668740D01*
X124196974Y-62930370D01*
X123852941Y-63356059D01*
X123832425Y-63425566D01*
X123537171Y-62983688D01*
X123086547Y-62682590D01*
X122555000Y-62576859D01*
X122023453Y-62682590D01*
X121572829Y-62983688D01*
X121271731Y-63434312D01*
X121166000Y-63965859D01*
X121102831Y-63965859D01*
X121021105Y-63554995D01*
X120785039Y-63201698D01*
X120431742Y-62965632D01*
X120015000Y-62882737D01*
X119598258Y-62965632D01*
X119244961Y-63201698D01*
X119127000Y-63378239D01*
X119127000Y-60402000D01*
X152960405Y-60402000D01*
X153318739Y-60473277D01*
G36*
X118673000Y-75500000D02*
X118695363Y-75618851D01*
X118765604Y-75728008D01*
X118872779Y-75801237D01*
X119000000Y-75827000D01*
X156598000Y-75827000D01*
X156598000Y-96960405D01*
X156526723Y-97318739D01*
X156527611Y-96301514D01*
X155991789Y-95004725D01*
X155000494Y-94011698D01*
X153704642Y-93473614D01*
X152301514Y-93472389D01*
X151004725Y-94008211D01*
X150011698Y-94999506D01*
X149473614Y-96295358D01*
X149472389Y-97698486D01*
X150008211Y-98995275D01*
X150999506Y-99988302D01*
X152295358Y-100526386D01*
X153315953Y-100527277D01*
X152960405Y-100598000D01*
X104039595Y-100598000D01*
X103681261Y-100526723D01*
X104698486Y-100527611D01*
X105995275Y-99991789D01*
X106585265Y-99402828D01*
X118028628Y-99402828D01*
X118214906Y-99853657D01*
X118559529Y-100198882D01*
X119010032Y-100385947D01*
X119497828Y-100386372D01*
X119948657Y-100200094D01*
X120293882Y-99855471D01*
X120480947Y-99404968D01*
X120481372Y-98917172D01*
X120295094Y-98466343D01*
X119950471Y-98121118D01*
X119499968Y-97934053D01*
X119012172Y-97933628D01*
X118561343Y-98119906D01*
X118216118Y-98464529D01*
X118029053Y-98915032D01*
X118028628Y-99402828D01*
X106585265Y-99402828D01*
X106988302Y-99000494D01*
X107526386Y-97704642D01*
X107526592Y-97467995D01*
X143772788Y-97467995D01*
X143959194Y-97919131D01*
X144304053Y-98264593D01*
X144754864Y-98451786D01*
X145242995Y-98452212D01*
X145694131Y-98265806D01*
X146039593Y-97920947D01*
X146226786Y-97470136D01*
X146227212Y-96982005D01*
X146040806Y-96530869D01*
X145695947Y-96185407D01*
X145245136Y-95998214D01*
X144757005Y-95997788D01*
X144305869Y-96184194D01*
X143960407Y-96529053D01*
X143773214Y-96979864D01*
X143772788Y-97467995D01*
X107526592Y-97467995D01*
X107527425Y-96514269D01*
X123622900Y-96514269D01*
X123710558Y-96726417D01*
X123872729Y-96888871D01*
X124084724Y-96976900D01*
X124314269Y-96977100D01*
X124526417Y-96889442D01*
X124688871Y-96727271D01*
X124776900Y-96515276D01*
X124777100Y-96285731D01*
X124689442Y-96073583D01*
X124527271Y-95911129D01*
X124315276Y-95823100D01*
X124085731Y-95822900D01*
X123873583Y-95910558D01*
X123711129Y-96072729D01*
X123623100Y-96284724D01*
X123622900Y-96514269D01*
X107527425Y-96514269D01*
X107527611Y-96301514D01*
X106991789Y-95004725D01*
X106851578Y-94864269D01*
X129922900Y-94864269D01*
X130010558Y-95076417D01*
X130172729Y-95238871D01*
X130384724Y-95326900D01*
X130614269Y-95327100D01*
X130826417Y-95239442D01*
X130951808Y-95114269D01*
X132922900Y-95114269D01*
X133010558Y-95326417D01*
X133172729Y-95488871D01*
X133384724Y-95576900D01*
X133614269Y-95577100D01*
X133826417Y-95489442D01*
X133988871Y-95327271D01*
X134076900Y-95115276D01*
X134077100Y-94885731D01*
X133989442Y-94673583D01*
X133827271Y-94511129D01*
X133615276Y-94423100D01*
X133385731Y-94422900D01*
X133173583Y-94510558D01*
X133011129Y-94672729D01*
X132923100Y-94884724D01*
X132922900Y-95114269D01*
X130951808Y-95114269D01*
X130988871Y-95077271D01*
X131076900Y-94865276D01*
X131077100Y-94635731D01*
X130989442Y-94423583D01*
X130827271Y-94261129D01*
X130615276Y-94173100D01*
X130385731Y-94172900D01*
X130173583Y-94260558D01*
X130011129Y-94422729D01*
X129923100Y-94634724D01*
X129922900Y-94864269D01*
X106851578Y-94864269D01*
X106000494Y-94011698D01*
X105220528Y-93687828D01*
X109773628Y-93687828D01*
X109959906Y-94138657D01*
X110304529Y-94483882D01*
X110755032Y-94670947D01*
X111242828Y-94671372D01*
X111693657Y-94485094D01*
X112038882Y-94140471D01*
X112091285Y-94014269D01*
X123522900Y-94014269D01*
X123610558Y-94226417D01*
X123772729Y-94388871D01*
X123984724Y-94476900D01*
X124214269Y-94477100D01*
X124426417Y-94389442D01*
X124588871Y-94227271D01*
X124676900Y-94015276D01*
X124677100Y-93785731D01*
X124636717Y-93687995D01*
X143772788Y-93687995D01*
X143959194Y-94139131D01*
X144304053Y-94484593D01*
X144754864Y-94671786D01*
X145242995Y-94672212D01*
X145694131Y-94485806D01*
X146039593Y-94140947D01*
X146226786Y-93690136D01*
X146227212Y-93202005D01*
X146040806Y-92750869D01*
X145695947Y-92405407D01*
X145245136Y-92218214D01*
X144757005Y-92217788D01*
X144305869Y-92404194D01*
X143960407Y-92749053D01*
X143773214Y-93199864D01*
X143772788Y-93687995D01*
X124636717Y-93687995D01*
X124589442Y-93573583D01*
X124427271Y-93411129D01*
X124215276Y-93323100D01*
X123985731Y-93322900D01*
X123773583Y-93410558D01*
X123611129Y-93572729D01*
X123523100Y-93784724D01*
X123522900Y-94014269D01*
X112091285Y-94014269D01*
X112225947Y-93689968D01*
X112226372Y-93202172D01*
X112040094Y-92751343D01*
X111695471Y-92406118D01*
X111244968Y-92219053D01*
X110757172Y-92218628D01*
X110306343Y-92404906D01*
X109961118Y-92749529D01*
X109774053Y-93200032D01*
X109773628Y-93687828D01*
X105220528Y-93687828D01*
X104704642Y-93473614D01*
X103301514Y-93472389D01*
X102004725Y-94008211D01*
X101011698Y-94999506D01*
X100473614Y-96295358D01*
X100472723Y-97315953D01*
X100402000Y-96960405D01*
X100402000Y-91782828D01*
X106598628Y-91782828D01*
X106784906Y-92233657D01*
X107129529Y-92578882D01*
X107580032Y-92765947D01*
X108067828Y-92766372D01*
X108518657Y-92580094D01*
X108863882Y-92235471D01*
X109050947Y-91784968D01*
X109050948Y-91782828D01*
X112948628Y-91782828D01*
X113134906Y-92233657D01*
X113479529Y-92578882D01*
X113930032Y-92765947D01*
X114417828Y-92766372D01*
X114868657Y-92580094D01*
X114934596Y-92514269D01*
X128172900Y-92514269D01*
X128260558Y-92726417D01*
X128422729Y-92888871D01*
X128634724Y-92976900D01*
X128864269Y-92977100D01*
X129076417Y-92889442D01*
X129238871Y-92727271D01*
X129326900Y-92515276D01*
X129327100Y-92285731D01*
X129256254Y-92114269D01*
X133022900Y-92114269D01*
X133110558Y-92326417D01*
X133272729Y-92488871D01*
X133484724Y-92576900D01*
X133714269Y-92577100D01*
X133926417Y-92489442D01*
X134088871Y-92327271D01*
X134176900Y-92115276D01*
X134177100Y-91885731D01*
X134159199Y-91842407D01*
X140297735Y-91842407D01*
X140529717Y-92403846D01*
X140958894Y-92833773D01*
X141519928Y-93066735D01*
X142127407Y-93067265D01*
X142688846Y-92835283D01*
X143118773Y-92406106D01*
X143351735Y-91845072D01*
X143351737Y-91842407D01*
X146647735Y-91842407D01*
X146879717Y-92403846D01*
X147308894Y-92833773D01*
X147869928Y-93066735D01*
X148477407Y-93067265D01*
X149038846Y-92835283D01*
X149468773Y-92406106D01*
X149701735Y-91845072D01*
X149702265Y-91237593D01*
X149470283Y-90676154D01*
X149041106Y-90246227D01*
X148480072Y-90013265D01*
X147872593Y-90012735D01*
X147311154Y-90244717D01*
X146881227Y-90673894D01*
X146648265Y-91234928D01*
X146647735Y-91842407D01*
X143351737Y-91842407D01*
X143352265Y-91237593D01*
X143120283Y-90676154D01*
X142691106Y-90246227D01*
X142130072Y-90013265D01*
X141522593Y-90012735D01*
X140961154Y-90244717D01*
X140531227Y-90673894D01*
X140298265Y-91234928D01*
X140297735Y-91842407D01*
X134159199Y-91842407D01*
X134089442Y-91673583D01*
X133927271Y-91511129D01*
X133715276Y-91423100D01*
X133485731Y-91422900D01*
X133273583Y-91510558D01*
X133111129Y-91672729D01*
X133023100Y-91884724D01*
X133022900Y-92114269D01*
X129256254Y-92114269D01*
X129239442Y-92073583D01*
X129077271Y-91911129D01*
X128865276Y-91823100D01*
X128635731Y-91822900D01*
X128423583Y-91910558D01*
X128261129Y-92072729D01*
X128173100Y-92284724D01*
X128172900Y-92514269D01*
X114934596Y-92514269D01*
X115213882Y-92235471D01*
X115400947Y-91784968D01*
X115401372Y-91297172D01*
X115215094Y-90846343D01*
X114870471Y-90501118D01*
X114419968Y-90314053D01*
X113932172Y-90313628D01*
X113481343Y-90499906D01*
X113136118Y-90844529D01*
X112949053Y-91295032D01*
X112948628Y-91782828D01*
X109050948Y-91782828D01*
X109051372Y-91297172D01*
X108865094Y-90846343D01*
X108520471Y-90501118D01*
X108069968Y-90314053D01*
X107582172Y-90313628D01*
X107131343Y-90499906D01*
X106786118Y-90844529D01*
X106599053Y-91295032D01*
X106598628Y-91782828D01*
X100402000Y-91782828D01*
X100402000Y-87972828D01*
X105963628Y-87972828D01*
X106149906Y-88423657D01*
X106494529Y-88768882D01*
X106945032Y-88955947D01*
X107432828Y-88956372D01*
X107883657Y-88770094D01*
X107986690Y-88667240D01*
X113283576Y-88667240D01*
X113515430Y-89228371D01*
X113944371Y-89658061D01*
X114505096Y-89890894D01*
X115112240Y-89891424D01*
X115673371Y-89659570D01*
X116103061Y-89230629D01*
X116335894Y-88669904D01*
X116335948Y-88607995D01*
X132977788Y-88607995D01*
X133164194Y-89059131D01*
X133509053Y-89404593D01*
X133959864Y-89591786D01*
X134447995Y-89592212D01*
X134899131Y-89405806D01*
X134935188Y-89369812D01*
X135069194Y-89694131D01*
X135414053Y-90039593D01*
X135864864Y-90226786D01*
X136352995Y-90227212D01*
X136804131Y-90040806D01*
X136840188Y-90004812D01*
X136974194Y-90329131D01*
X137319053Y-90674593D01*
X137769864Y-90861786D01*
X138257995Y-90862212D01*
X138709131Y-90675806D01*
X139054593Y-90330947D01*
X139241786Y-89880136D01*
X139242212Y-89392005D01*
X139055806Y-88940869D01*
X138782822Y-88667407D01*
X139027735Y-88667407D01*
X139259717Y-89228846D01*
X139688894Y-89658773D01*
X140249928Y-89891735D01*
X140857407Y-89892265D01*
X141418846Y-89660283D01*
X141848773Y-89231106D01*
X142081735Y-88670072D01*
X142082265Y-88062593D01*
X142045244Y-87972995D01*
X147582788Y-87972995D01*
X147769194Y-88424131D01*
X148114053Y-88769593D01*
X148564864Y-88956786D01*
X149052995Y-88957212D01*
X149504131Y-88770806D01*
X149849593Y-88425947D01*
X150036786Y-87975136D01*
X150037212Y-87487005D01*
X149850806Y-87035869D01*
X149505947Y-86690407D01*
X149055136Y-86503214D01*
X148567005Y-86502788D01*
X148115869Y-86689194D01*
X147770407Y-87034053D01*
X147583214Y-87484864D01*
X147582788Y-87972995D01*
X142045244Y-87972995D01*
X141850283Y-87501154D01*
X141421106Y-87071227D01*
X140860072Y-86838265D01*
X140252593Y-86837735D01*
X139691154Y-87069717D01*
X139261227Y-87498894D01*
X139028265Y-88059928D01*
X139027735Y-88667407D01*
X138782822Y-88667407D01*
X138710947Y-88595407D01*
X138260136Y-88408214D01*
X137772005Y-88407788D01*
X137320869Y-88594194D01*
X137284812Y-88630188D01*
X137150806Y-88305869D01*
X136805947Y-87960407D01*
X136355136Y-87773214D01*
X135867005Y-87772788D01*
X135415869Y-87959194D01*
X135379812Y-87995188D01*
X135245806Y-87670869D01*
X134900947Y-87325407D01*
X134450136Y-87138214D01*
X133962005Y-87137788D01*
X133510869Y-87324194D01*
X133165407Y-87669053D01*
X132978214Y-88119864D01*
X132977788Y-88607995D01*
X116335948Y-88607995D01*
X116336424Y-88062760D01*
X116104570Y-87501629D01*
X115675629Y-87071939D01*
X115114904Y-86839106D01*
X114507760Y-86838576D01*
X113946629Y-87070430D01*
X113516939Y-87499371D01*
X113284106Y-88060096D01*
X113283576Y-88667240D01*
X107986690Y-88667240D01*
X108228882Y-88425471D01*
X108415947Y-87974968D01*
X108416372Y-87487172D01*
X108230094Y-87036343D01*
X107885471Y-86691118D01*
X107434968Y-86504053D01*
X106947172Y-86503628D01*
X106496343Y-86689906D01*
X106151118Y-87034529D01*
X105964053Y-87485032D01*
X105963628Y-87972828D01*
X100402000Y-87972828D01*
X100402000Y-82892828D01*
X116123628Y-82892828D01*
X116309906Y-83343657D01*
X116654529Y-83688882D01*
X117105032Y-83875947D01*
X117592828Y-83876372D01*
X118043657Y-83690094D01*
X118388882Y-83345471D01*
X118524522Y-83018814D01*
X118559529Y-83053882D01*
X119010032Y-83240947D01*
X119497828Y-83241372D01*
X119948657Y-83055094D01*
X120293882Y-82710471D01*
X120429522Y-82383814D01*
X120464529Y-82418882D01*
X120915032Y-82605947D01*
X121402828Y-82606372D01*
X121853657Y-82420094D01*
X122198882Y-82075471D01*
X122385947Y-81624968D01*
X122386372Y-81137172D01*
X122200094Y-80686343D01*
X121855471Y-80341118D01*
X121404968Y-80154053D01*
X120917172Y-80153628D01*
X120466343Y-80339906D01*
X120121118Y-80684529D01*
X119985478Y-81011186D01*
X119950471Y-80976118D01*
X119499968Y-80789053D01*
X119012172Y-80788628D01*
X118561343Y-80974906D01*
X118216118Y-81319529D01*
X118080478Y-81646186D01*
X118045471Y-81611118D01*
X117594968Y-81424053D01*
X117107172Y-81423628D01*
X116656343Y-81609906D01*
X116311118Y-81954529D01*
X116124053Y-82405032D01*
X116123628Y-82892828D01*
X100402000Y-82892828D01*
X100402000Y-64039595D01*
X100473277Y-63681261D01*
X100472389Y-64698486D01*
X101008211Y-65995275D01*
X101999506Y-66988302D01*
X103295358Y-67526386D01*
X104698486Y-67527611D01*
X105995275Y-66991789D01*
X106988302Y-66000494D01*
X107526386Y-64704642D01*
X107527611Y-63301514D01*
X106991789Y-62004725D01*
X106000494Y-61011698D01*
X104704642Y-60473614D01*
X103684047Y-60472723D01*
X104039595Y-60402000D01*
X118673000Y-60402000D01*
X118673000Y-75500000D01*
X118673000Y-75500000D01*
G37*
X118673000Y-75500000D02*
X118695363Y-75618851D01*
X118765604Y-75728008D01*
X118872779Y-75801237D01*
X119000000Y-75827000D01*
X156598000Y-75827000D01*
X156598000Y-96960405D01*
X156526723Y-97318739D01*
X156527611Y-96301514D01*
X155991789Y-95004725D01*
X155000494Y-94011698D01*
X153704642Y-93473614D01*
X152301514Y-93472389D01*
X151004725Y-94008211D01*
X150011698Y-94999506D01*
X149473614Y-96295358D01*
X149472389Y-97698486D01*
X150008211Y-98995275D01*
X150999506Y-99988302D01*
X152295358Y-100526386D01*
X153315953Y-100527277D01*
X152960405Y-100598000D01*
X104039595Y-100598000D01*
X103681261Y-100526723D01*
X104698486Y-100527611D01*
X105995275Y-99991789D01*
X106585265Y-99402828D01*
X118028628Y-99402828D01*
X118214906Y-99853657D01*
X118559529Y-100198882D01*
X119010032Y-100385947D01*
X119497828Y-100386372D01*
X119948657Y-100200094D01*
X120293882Y-99855471D01*
X120480947Y-99404968D01*
X120481372Y-98917172D01*
X120295094Y-98466343D01*
X119950471Y-98121118D01*
X119499968Y-97934053D01*
X119012172Y-97933628D01*
X118561343Y-98119906D01*
X118216118Y-98464529D01*
X118029053Y-98915032D01*
X118028628Y-99402828D01*
X106585265Y-99402828D01*
X106988302Y-99000494D01*
X107526386Y-97704642D01*
X107526592Y-97467995D01*
X143772788Y-97467995D01*
X143959194Y-97919131D01*
X144304053Y-98264593D01*
X144754864Y-98451786D01*
X145242995Y-98452212D01*
X145694131Y-98265806D01*
X146039593Y-97920947D01*
X146226786Y-97470136D01*
X146227212Y-96982005D01*
X146040806Y-96530869D01*
X145695947Y-96185407D01*
X145245136Y-95998214D01*
X144757005Y-95997788D01*
X144305869Y-96184194D01*
X143960407Y-96529053D01*
X143773214Y-96979864D01*
X143772788Y-97467995D01*
X107526592Y-97467995D01*
X107527425Y-96514269D01*
X123622900Y-96514269D01*
X123710558Y-96726417D01*
X123872729Y-96888871D01*
X124084724Y-96976900D01*
X124314269Y-96977100D01*
X124526417Y-96889442D01*
X124688871Y-96727271D01*
X124776900Y-96515276D01*
X124777100Y-96285731D01*
X124689442Y-96073583D01*
X124527271Y-95911129D01*
X124315276Y-95823100D01*
X124085731Y-95822900D01*
X123873583Y-95910558D01*
X123711129Y-96072729D01*
X123623100Y-96284724D01*
X123622900Y-96514269D01*
X107527425Y-96514269D01*
X107527611Y-96301514D01*
X106991789Y-95004725D01*
X106851578Y-94864269D01*
X129922900Y-94864269D01*
X130010558Y-95076417D01*
X130172729Y-95238871D01*
X130384724Y-95326900D01*
X130614269Y-95327100D01*
X130826417Y-95239442D01*
X130951808Y-95114269D01*
X132922900Y-95114269D01*
X133010558Y-95326417D01*
X133172729Y-95488871D01*
X133384724Y-95576900D01*
X133614269Y-95577100D01*
X133826417Y-95489442D01*
X133988871Y-95327271D01*
X134076900Y-95115276D01*
X134077100Y-94885731D01*
X133989442Y-94673583D01*
X133827271Y-94511129D01*
X133615276Y-94423100D01*
X133385731Y-94422900D01*
X133173583Y-94510558D01*
X133011129Y-94672729D01*
X132923100Y-94884724D01*
X132922900Y-95114269D01*
X130951808Y-95114269D01*
X130988871Y-95077271D01*
X131076900Y-94865276D01*
X131077100Y-94635731D01*
X130989442Y-94423583D01*
X130827271Y-94261129D01*
X130615276Y-94173100D01*
X130385731Y-94172900D01*
X130173583Y-94260558D01*
X130011129Y-94422729D01*
X129923100Y-94634724D01*
X129922900Y-94864269D01*
X106851578Y-94864269D01*
X106000494Y-94011698D01*
X105220528Y-93687828D01*
X109773628Y-93687828D01*
X109959906Y-94138657D01*
X110304529Y-94483882D01*
X110755032Y-94670947D01*
X111242828Y-94671372D01*
X111693657Y-94485094D01*
X112038882Y-94140471D01*
X112091285Y-94014269D01*
X123522900Y-94014269D01*
X123610558Y-94226417D01*
X123772729Y-94388871D01*
X123984724Y-94476900D01*
X124214269Y-94477100D01*
X124426417Y-94389442D01*
X124588871Y-94227271D01*
X124676900Y-94015276D01*
X124677100Y-93785731D01*
X124636717Y-93687995D01*
X143772788Y-93687995D01*
X143959194Y-94139131D01*
X144304053Y-94484593D01*
X144754864Y-94671786D01*
X145242995Y-94672212D01*
X145694131Y-94485806D01*
X146039593Y-94140947D01*
X146226786Y-93690136D01*
X146227212Y-93202005D01*
X146040806Y-92750869D01*
X145695947Y-92405407D01*
X145245136Y-92218214D01*
X144757005Y-92217788D01*
X144305869Y-92404194D01*
X143960407Y-92749053D01*
X143773214Y-93199864D01*
X143772788Y-93687995D01*
X124636717Y-93687995D01*
X124589442Y-93573583D01*
X124427271Y-93411129D01*
X124215276Y-93323100D01*
X123985731Y-93322900D01*
X123773583Y-93410558D01*
X123611129Y-93572729D01*
X123523100Y-93784724D01*
X123522900Y-94014269D01*
X112091285Y-94014269D01*
X112225947Y-93689968D01*
X112226372Y-93202172D01*
X112040094Y-92751343D01*
X111695471Y-92406118D01*
X111244968Y-92219053D01*
X110757172Y-92218628D01*
X110306343Y-92404906D01*
X109961118Y-92749529D01*
X109774053Y-93200032D01*
X109773628Y-93687828D01*
X105220528Y-93687828D01*
X104704642Y-93473614D01*
X103301514Y-93472389D01*
X102004725Y-94008211D01*
X101011698Y-94999506D01*
X100473614Y-96295358D01*
X100472723Y-97315953D01*
X100402000Y-96960405D01*
X100402000Y-91782828D01*
X106598628Y-91782828D01*
X106784906Y-92233657D01*
X107129529Y-92578882D01*
X107580032Y-92765947D01*
X108067828Y-92766372D01*
X108518657Y-92580094D01*
X108863882Y-92235471D01*
X109050947Y-91784968D01*
X109050948Y-91782828D01*
X112948628Y-91782828D01*
X113134906Y-92233657D01*
X113479529Y-92578882D01*
X113930032Y-92765947D01*
X114417828Y-92766372D01*
X114868657Y-92580094D01*
X114934596Y-92514269D01*
X128172900Y-92514269D01*
X128260558Y-92726417D01*
X128422729Y-92888871D01*
X128634724Y-92976900D01*
X128864269Y-92977100D01*
X129076417Y-92889442D01*
X129238871Y-92727271D01*
X129326900Y-92515276D01*
X129327100Y-92285731D01*
X129256254Y-92114269D01*
X133022900Y-92114269D01*
X133110558Y-92326417D01*
X133272729Y-92488871D01*
X133484724Y-92576900D01*
X133714269Y-92577100D01*
X133926417Y-92489442D01*
X134088871Y-92327271D01*
X134176900Y-92115276D01*
X134177100Y-91885731D01*
X134159199Y-91842407D01*
X140297735Y-91842407D01*
X140529717Y-92403846D01*
X140958894Y-92833773D01*
X141519928Y-93066735D01*
X142127407Y-93067265D01*
X142688846Y-92835283D01*
X143118773Y-92406106D01*
X143351735Y-91845072D01*
X143351737Y-91842407D01*
X146647735Y-91842407D01*
X146879717Y-92403846D01*
X147308894Y-92833773D01*
X147869928Y-93066735D01*
X148477407Y-93067265D01*
X149038846Y-92835283D01*
X149468773Y-92406106D01*
X149701735Y-91845072D01*
X149702265Y-91237593D01*
X149470283Y-90676154D01*
X149041106Y-90246227D01*
X148480072Y-90013265D01*
X147872593Y-90012735D01*
X147311154Y-90244717D01*
X146881227Y-90673894D01*
X146648265Y-91234928D01*
X146647735Y-91842407D01*
X143351737Y-91842407D01*
X143352265Y-91237593D01*
X143120283Y-90676154D01*
X142691106Y-90246227D01*
X142130072Y-90013265D01*
X141522593Y-90012735D01*
X140961154Y-90244717D01*
X140531227Y-90673894D01*
X140298265Y-91234928D01*
X140297735Y-91842407D01*
X134159199Y-91842407D01*
X134089442Y-91673583D01*
X133927271Y-91511129D01*
X133715276Y-91423100D01*
X133485731Y-91422900D01*
X133273583Y-91510558D01*
X133111129Y-91672729D01*
X133023100Y-91884724D01*
X133022900Y-92114269D01*
X129256254Y-92114269D01*
X129239442Y-92073583D01*
X129077271Y-91911129D01*
X128865276Y-91823100D01*
X128635731Y-91822900D01*
X128423583Y-91910558D01*
X128261129Y-92072729D01*
X128173100Y-92284724D01*
X128172900Y-92514269D01*
X114934596Y-92514269D01*
X115213882Y-92235471D01*
X115400947Y-91784968D01*
X115401372Y-91297172D01*
X115215094Y-90846343D01*
X114870471Y-90501118D01*
X114419968Y-90314053D01*
X113932172Y-90313628D01*
X113481343Y-90499906D01*
X113136118Y-90844529D01*
X112949053Y-91295032D01*
X112948628Y-91782828D01*
X109050948Y-91782828D01*
X109051372Y-91297172D01*
X108865094Y-90846343D01*
X108520471Y-90501118D01*
X108069968Y-90314053D01*
X107582172Y-90313628D01*
X107131343Y-90499906D01*
X106786118Y-90844529D01*
X106599053Y-91295032D01*
X106598628Y-91782828D01*
X100402000Y-91782828D01*
X100402000Y-87972828D01*
X105963628Y-87972828D01*
X106149906Y-88423657D01*
X106494529Y-88768882D01*
X106945032Y-88955947D01*
X107432828Y-88956372D01*
X107883657Y-88770094D01*
X107986690Y-88667240D01*
X113283576Y-88667240D01*
X113515430Y-89228371D01*
X113944371Y-89658061D01*
X114505096Y-89890894D01*
X115112240Y-89891424D01*
X115673371Y-89659570D01*
X116103061Y-89230629D01*
X116335894Y-88669904D01*
X116335948Y-88607995D01*
X132977788Y-88607995D01*
X133164194Y-89059131D01*
X133509053Y-89404593D01*
X133959864Y-89591786D01*
X134447995Y-89592212D01*
X134899131Y-89405806D01*
X134935188Y-89369812D01*
X135069194Y-89694131D01*
X135414053Y-90039593D01*
X135864864Y-90226786D01*
X136352995Y-90227212D01*
X136804131Y-90040806D01*
X136840188Y-90004812D01*
X136974194Y-90329131D01*
X137319053Y-90674593D01*
X137769864Y-90861786D01*
X138257995Y-90862212D01*
X138709131Y-90675806D01*
X139054593Y-90330947D01*
X139241786Y-89880136D01*
X139242212Y-89392005D01*
X139055806Y-88940869D01*
X138782822Y-88667407D01*
X139027735Y-88667407D01*
X139259717Y-89228846D01*
X139688894Y-89658773D01*
X140249928Y-89891735D01*
X140857407Y-89892265D01*
X141418846Y-89660283D01*
X141848773Y-89231106D01*
X142081735Y-88670072D01*
X142082265Y-88062593D01*
X142045244Y-87972995D01*
X147582788Y-87972995D01*
X147769194Y-88424131D01*
X148114053Y-88769593D01*
X148564864Y-88956786D01*
X149052995Y-88957212D01*
X149504131Y-88770806D01*
X149849593Y-88425947D01*
X150036786Y-87975136D01*
X150037212Y-87487005D01*
X149850806Y-87035869D01*
X149505947Y-86690407D01*
X149055136Y-86503214D01*
X148567005Y-86502788D01*
X148115869Y-86689194D01*
X147770407Y-87034053D01*
X147583214Y-87484864D01*
X147582788Y-87972995D01*
X142045244Y-87972995D01*
X141850283Y-87501154D01*
X141421106Y-87071227D01*
X140860072Y-86838265D01*
X140252593Y-86837735D01*
X139691154Y-87069717D01*
X139261227Y-87498894D01*
X139028265Y-88059928D01*
X139027735Y-88667407D01*
X138782822Y-88667407D01*
X138710947Y-88595407D01*
X138260136Y-88408214D01*
X137772005Y-88407788D01*
X137320869Y-88594194D01*
X137284812Y-88630188D01*
X137150806Y-88305869D01*
X136805947Y-87960407D01*
X136355136Y-87773214D01*
X135867005Y-87772788D01*
X135415869Y-87959194D01*
X135379812Y-87995188D01*
X135245806Y-87670869D01*
X134900947Y-87325407D01*
X134450136Y-87138214D01*
X133962005Y-87137788D01*
X133510869Y-87324194D01*
X133165407Y-87669053D01*
X132978214Y-88119864D01*
X132977788Y-88607995D01*
X116335948Y-88607995D01*
X116336424Y-88062760D01*
X116104570Y-87501629D01*
X115675629Y-87071939D01*
X115114904Y-86839106D01*
X114507760Y-86838576D01*
X113946629Y-87070430D01*
X113516939Y-87499371D01*
X113284106Y-88060096D01*
X113283576Y-88667240D01*
X107986690Y-88667240D01*
X108228882Y-88425471D01*
X108415947Y-87974968D01*
X108416372Y-87487172D01*
X108230094Y-87036343D01*
X107885471Y-86691118D01*
X107434968Y-86504053D01*
X106947172Y-86503628D01*
X106496343Y-86689906D01*
X106151118Y-87034529D01*
X105964053Y-87485032D01*
X105963628Y-87972828D01*
X100402000Y-87972828D01*
X100402000Y-82892828D01*
X116123628Y-82892828D01*
X116309906Y-83343657D01*
X116654529Y-83688882D01*
X117105032Y-83875947D01*
X117592828Y-83876372D01*
X118043657Y-83690094D01*
X118388882Y-83345471D01*
X118524522Y-83018814D01*
X118559529Y-83053882D01*
X119010032Y-83240947D01*
X119497828Y-83241372D01*
X119948657Y-83055094D01*
X120293882Y-82710471D01*
X120429522Y-82383814D01*
X120464529Y-82418882D01*
X120915032Y-82605947D01*
X121402828Y-82606372D01*
X121853657Y-82420094D01*
X122198882Y-82075471D01*
X122385947Y-81624968D01*
X122386372Y-81137172D01*
X122200094Y-80686343D01*
X121855471Y-80341118D01*
X121404968Y-80154053D01*
X120917172Y-80153628D01*
X120466343Y-80339906D01*
X120121118Y-80684529D01*
X119985478Y-81011186D01*
X119950471Y-80976118D01*
X119499968Y-80789053D01*
X119012172Y-80788628D01*
X118561343Y-80974906D01*
X118216118Y-81319529D01*
X118080478Y-81646186D01*
X118045471Y-81611118D01*
X117594968Y-81424053D01*
X117107172Y-81423628D01*
X116656343Y-81609906D01*
X116311118Y-81954529D01*
X116124053Y-82405032D01*
X116123628Y-82892828D01*
X100402000Y-82892828D01*
X100402000Y-64039595D01*
X100473277Y-63681261D01*
X100472389Y-64698486D01*
X101008211Y-65995275D01*
X101999506Y-66988302D01*
X103295358Y-67526386D01*
X104698486Y-67527611D01*
X105995275Y-66991789D01*
X106988302Y-66000494D01*
X107526386Y-64704642D01*
X107527611Y-63301514D01*
X106991789Y-62004725D01*
X106000494Y-61011698D01*
X104704642Y-60473614D01*
X103684047Y-60472723D01*
X104039595Y-60402000D01*
X118673000Y-60402000D01*
X118673000Y-75500000D01*
M02*
