G04 #@! TF.FileFunction,Soldermask,Top*
%FSLAX46Y46*%
G04 Gerber Fmt 4.6, Leading zero omitted, Abs format (unit mm)*
G04 Created by KiCad (PCBNEW 4.0.6) date 08/02/17 17:45:47*
%MOMM*%
%LPD*%
G01*
G04 APERTURE LIST*
%ADD10C,0.100000*%
%ADD11C,2.198320*%
%ADD12C,2.200000*%
%ADD13C,2.800000*%
%ADD14R,1.150000X1.600000*%
%ADD15O,1.924000X3.448000*%
%ADD16O,2.200860X3.900120*%
%ADD17R,1.600000X1.300000*%
%ADD18R,1.300000X1.600000*%
%ADD19C,6.800000*%
G04 APERTURE END LIST*
D10*
D11*
X114810000Y-88365000D03*
X114175000Y-91540000D03*
X111000000Y-93445000D03*
X107825000Y-91540000D03*
X107190000Y-87730000D03*
X119255000Y-99160000D03*
X119255000Y-82015000D03*
X117350000Y-82650000D03*
X121160000Y-81380000D03*
D12*
X140555000Y-88365000D03*
D13*
X141825000Y-91540000D03*
D12*
X145000000Y-93445000D03*
D13*
X148175000Y-91540000D03*
D12*
X148810000Y-87730000D03*
X145000000Y-97225000D03*
X136110000Y-89000000D03*
X138015000Y-89635000D03*
X134205000Y-88365000D03*
D14*
X133858000Y-72296000D03*
X133858000Y-74196000D03*
D15*
X125095000Y-64770000D03*
X127635000Y-64770000D03*
D16*
X140335000Y-64770000D03*
X142875000Y-64770000D03*
X145415000Y-64770000D03*
X147955000Y-64770000D03*
D14*
X146558000Y-71694000D03*
X146558000Y-73594000D03*
D17*
X123700000Y-73800000D03*
X125900000Y-73800000D03*
D16*
X130175000Y-64770000D03*
X132715000Y-64770000D03*
X135255000Y-64770000D03*
X137795000Y-64770000D03*
D15*
X120015000Y-64770000D03*
X122555000Y-64770000D03*
D18*
X128651000Y-96139000D03*
X128651000Y-93939000D03*
X132080000Y-93896000D03*
X132080000Y-96096000D03*
D17*
X125950000Y-71500000D03*
X123750000Y-71500000D03*
D19*
X104000000Y-64000000D03*
X104000000Y-97000000D03*
X153000000Y-64000000D03*
X153000000Y-97000000D03*
M02*
