M48
;DRILL file {KiCad 4.0.6} date 08/02/17 17:22:53
;FORMAT={2:4/ absolute / inch / suppress leading zeros}
FMAT,2
INCH,TZ
T1C0.014
T2C0.016
T3C0.040
T4C0.047
T5C0.047
T6C0.063
T7C0.126
%
G90
G05
M72
T1
X48858Y-36969
X48898Y-37953
X50689Y-36378
X51378Y-37303
X52000Y-28000
X52559Y-37402
X52598Y-36220
X56400Y-28200
T2
X42520Y-26772
X47638Y-27953
X47638Y-28740
X50472Y-32283
X50472Y-33150
X50945Y-30945
X51024Y-27165
X51969Y-38583
X52700Y-27800
X53522Y-28307
X55197Y-32283
X56535Y-31732
X57700Y-27000
X58031Y-28104
T3
X47250Y-25500
X48250Y-25500
X49250Y-25500
X50250Y-25500
T4
X42201Y-34539
X42451Y-36039
X43701Y-36789
X44951Y-36039
X45201Y-34789
X46201Y-32539
X46951Y-32289
X46951Y-39039
X47701Y-32039
X51250Y-25500
X52250Y-25500
X53250Y-25500
X54250Y-25500
X55250Y-25500
X56250Y-25500
X57250Y-25500
X58250Y-25500
T5
X52837Y-34789
X53587Y-35039
X54337Y-35289
X55337Y-34789
X57087Y-36789
X57087Y-38278
X58587Y-34539
T6
X55837Y-36039
X58337Y-36039
T7
X40945Y-25197
X40945Y-38189
X60236Y-25197
X60236Y-38189
T0
M30
