G04 #@! TF.FileFunction,Copper,L4,Bot,Signal*
%FSLAX46Y46*%
G04 Gerber Fmt 4.6, Leading zero omitted, Abs format (unit mm)*
G04 Created by KiCad (PCBNEW 4.0.6) date 08/02/17 17:45:46*
%MOMM*%
%LPD*%
G01*
G04 APERTURE LIST*
%ADD10C,0.100000*%
%ADD11C,1.798320*%
%ADD12C,1.800000*%
%ADD13C,2.400000*%
%ADD14O,1.524000X3.048000*%
%ADD15O,1.800860X3.500120*%
%ADD16R,1.450000X0.450000*%
%ADD17R,0.600000X1.500000*%
%ADD18R,1.200000X0.750000*%
%ADD19R,1.500000X1.250000*%
%ADD20R,1.250000X1.500000*%
%ADD21R,0.900000X1.200000*%
%ADD22R,0.800000X0.900000*%
%ADD23R,0.650000X1.060000*%
%ADD24R,1.700000X1.600000*%
%ADD25C,6.400000*%
%ADD26C,0.600000*%
%ADD27C,0.500000*%
%ADD28C,0.200000*%
%ADD29C,0.250000*%
%ADD30C,0.500000*%
%ADD31C,0.125000*%
%ADD32C,0.254000*%
G04 APERTURE END LIST*
D10*
D11*
X114810000Y-88365000D03*
X114175000Y-91540000D03*
X111000000Y-93445000D03*
X107825000Y-91540000D03*
X107190000Y-87730000D03*
X119255000Y-99160000D03*
X119255000Y-82015000D03*
X117350000Y-82650000D03*
X121160000Y-81380000D03*
D12*
X140555000Y-88365000D03*
D13*
X141825000Y-91540000D03*
D12*
X145000000Y-93445000D03*
D13*
X148175000Y-91540000D03*
D12*
X148810000Y-87730000D03*
X145000000Y-97225000D03*
X136110000Y-89000000D03*
X138015000Y-89635000D03*
X134205000Y-88365000D03*
D14*
X125095000Y-64770000D03*
X127635000Y-64770000D03*
D15*
X140335000Y-64770000D03*
X142875000Y-64770000D03*
X145415000Y-64770000D03*
X147955000Y-64770000D03*
D16*
X125984000Y-96438000D03*
X125984000Y-95788000D03*
X125984000Y-95138000D03*
X125984000Y-94488000D03*
X125984000Y-93838000D03*
X125984000Y-93188000D03*
X125984000Y-92538000D03*
X131884000Y-92538000D03*
X131884000Y-93188000D03*
X131884000Y-93838000D03*
X131884000Y-94488000D03*
X131884000Y-95138000D03*
X131884000Y-95788000D03*
X131884000Y-96438000D03*
D17*
X131699000Y-73246000D03*
X132969000Y-73246000D03*
X134239000Y-73246000D03*
X135509000Y-73246000D03*
X136779000Y-73246000D03*
X138049000Y-73246000D03*
X139319000Y-73246000D03*
X140589000Y-73246000D03*
X140589000Y-78646000D03*
X139319000Y-78646000D03*
X138049000Y-78646000D03*
X136779000Y-78646000D03*
X135509000Y-78646000D03*
X134239000Y-78646000D03*
X132969000Y-78646000D03*
X131699000Y-78646000D03*
D18*
X109550000Y-72500000D03*
X111450000Y-72500000D03*
D19*
X109250000Y-74500000D03*
X111750000Y-74500000D03*
D18*
X142560000Y-82042000D03*
X144460000Y-82042000D03*
X130050000Y-82000000D03*
X131950000Y-82000000D03*
D20*
X127600000Y-69100000D03*
X127600000Y-71600000D03*
D21*
X108850000Y-77000000D03*
X112150000Y-77000000D03*
X108850000Y-70500000D03*
X112150000Y-70500000D03*
D22*
X111633000Y-85090000D03*
X109733000Y-85090000D03*
X110683000Y-83090000D03*
X105090000Y-85058000D03*
X103190000Y-85058000D03*
X104140000Y-83058000D03*
D15*
X130175000Y-64770000D03*
X132715000Y-64770000D03*
X135255000Y-64770000D03*
X137795000Y-64770000D03*
D14*
X120015000Y-64770000D03*
X122555000Y-64770000D03*
D21*
X131064000Y-84287000D03*
X131064000Y-86487000D03*
D23*
X106000000Y-70700000D03*
X105050000Y-70700000D03*
X104100000Y-70700000D03*
X104100000Y-68500000D03*
X106000000Y-68500000D03*
D24*
X124050000Y-69000000D03*
X124000000Y-71000000D03*
X124000000Y-73000000D03*
X124000000Y-75000000D03*
X114950000Y-69000000D03*
X115000000Y-71000000D03*
X115000000Y-73000000D03*
X115000000Y-75000000D03*
D17*
X143637000Y-73246000D03*
X144907000Y-73246000D03*
X146177000Y-73246000D03*
X147447000Y-73246000D03*
X148717000Y-73246000D03*
X149987000Y-73246000D03*
X151257000Y-73246000D03*
X152527000Y-73246000D03*
X152527000Y-78646000D03*
X151257000Y-78646000D03*
X149987000Y-78646000D03*
X148717000Y-78646000D03*
X147447000Y-78646000D03*
X146177000Y-78646000D03*
X144907000Y-78646000D03*
X143637000Y-78646000D03*
D25*
X104000000Y-64000000D03*
X104000000Y-97000000D03*
X153000000Y-64000000D03*
X153000000Y-97000000D03*
D26*
X108000000Y-68000000D03*
X132000000Y-98000000D03*
X143600000Y-80600000D03*
X140200000Y-82000000D03*
X128200000Y-84200000D03*
X128200000Y-82000000D03*
X129400000Y-78600000D03*
X146558000Y-68580000D03*
X133858000Y-70612000D03*
X135945331Y-71900010D03*
X147400000Y-71385010D03*
X129600000Y-69000000D03*
X121000000Y-71000000D03*
X121000000Y-73000000D03*
D27*
X130500000Y-94750000D03*
X128750000Y-92400000D03*
X124200000Y-96400000D03*
X124100000Y-93900000D03*
X133600000Y-92000000D03*
X133500000Y-95000000D03*
X143256000Y-71628000D03*
X132080000Y-71120000D03*
D28*
X132969000Y-78613000D02*
X132969000Y-78646000D01*
X140589000Y-78646000D02*
X140589000Y-78613000D01*
X140589000Y-78646000D02*
X140589000Y-78613000D01*
X140589000Y-78613000D02*
X139319000Y-78613000D01*
X139319000Y-78613000D02*
X139319000Y-78646000D01*
X125984000Y-92583000D02*
X125984000Y-92538000D01*
X125984000Y-92538000D02*
X125984000Y-92583000D01*
X110744000Y-83058000D02*
X110683000Y-83090000D01*
X111450000Y-72500000D02*
X111506000Y-72517000D01*
X110683000Y-83090000D02*
X110744000Y-83058000D01*
X111760000Y-74549000D02*
X111750000Y-74500000D01*
X110683000Y-83090000D02*
X110744000Y-83058000D01*
X144907000Y-78646000D02*
X144907000Y-77978000D01*
X151257000Y-78613000D02*
X151257000Y-78646000D01*
X111450000Y-72500000D02*
X111506000Y-72517000D01*
X144399000Y-82042000D02*
X144460000Y-82042000D01*
X144907000Y-78613000D02*
X144907000Y-78646000D01*
X111750000Y-74500000D02*
X111760000Y-74549000D01*
X111506000Y-72517000D02*
X111450000Y-72500000D01*
X151257000Y-78646000D02*
X151257000Y-78613000D01*
X151257000Y-78613000D02*
X152527000Y-78613000D01*
X152527000Y-78613000D02*
X152527000Y-78646000D01*
D29*
X131884000Y-97884000D02*
X132000000Y-98000000D01*
X131884000Y-96438000D02*
X131884000Y-97884000D01*
D30*
X106000000Y-68500000D02*
X107500000Y-68500000D01*
X107500000Y-68500000D02*
X108000000Y-68000000D01*
X143637000Y-78646000D02*
X143637000Y-80563000D01*
X143637000Y-80563000D02*
X143600000Y-80600000D01*
X142560000Y-82042000D02*
X140242000Y-82042000D01*
X140242000Y-82042000D02*
X140200000Y-82000000D01*
X131064000Y-84287000D02*
X128287000Y-84287000D01*
X128287000Y-84287000D02*
X128200000Y-84200000D01*
X130050000Y-82000000D02*
X128200000Y-82000000D01*
X131699000Y-78646000D02*
X129446000Y-78646000D01*
X129446000Y-78646000D02*
X129400000Y-78600000D01*
D28*
X143637000Y-78613000D02*
X143637000Y-78646000D01*
X135864048Y-69518023D02*
X132504617Y-69518023D01*
X136779000Y-73246000D02*
X136779000Y-72796000D01*
X130175000Y-66720060D02*
X130175000Y-64770000D01*
X130175000Y-67188406D02*
X130175000Y-66720060D01*
X136779000Y-72796000D02*
X137279000Y-72296000D01*
X132504617Y-69518023D02*
X130175000Y-67188406D01*
X137279000Y-72296000D02*
X137279000Y-70932975D01*
X137279000Y-70932975D02*
X135864048Y-69518023D01*
X140589000Y-73246000D02*
X140589000Y-70104000D01*
X140589000Y-70104000D02*
X139700000Y-69215000D01*
X139700000Y-69215000D02*
X138430000Y-69215000D01*
X138430000Y-69215000D02*
X137795000Y-68580000D01*
X137795000Y-68580000D02*
X137795000Y-64770000D01*
X104100000Y-70700000D02*
X104100000Y-71675000D01*
X104100000Y-71675000D02*
X104600000Y-72175000D01*
X106000000Y-71430000D02*
X106000000Y-70700000D01*
X104600000Y-72175000D02*
X105525000Y-72175000D01*
X105525000Y-72175000D02*
X106000000Y-71700000D01*
X106000000Y-71700000D02*
X106000000Y-71430000D01*
X109550000Y-72500000D02*
X109601000Y-72517000D01*
X109601000Y-72517000D02*
X109601000Y-71247000D01*
X109601000Y-71247000D02*
X108839000Y-70485000D01*
X108839000Y-70485000D02*
X108850000Y-70500000D01*
X108850000Y-70500000D02*
X108839000Y-70485000D01*
X108839000Y-70485000D02*
X108585000Y-70739000D01*
X108585000Y-70739000D02*
X106045000Y-70739000D01*
X106045000Y-70739000D02*
X106000000Y-70700000D01*
X109250000Y-74500000D02*
X109220000Y-74549000D01*
X109220000Y-74549000D02*
X109220000Y-76581000D01*
X109220000Y-76581000D02*
X108839000Y-76962000D01*
X108839000Y-76962000D02*
X108850000Y-77000000D01*
X109550000Y-72500000D02*
X109601000Y-72517000D01*
X109601000Y-72517000D02*
X109601000Y-74168000D01*
X109601000Y-74168000D02*
X109220000Y-74549000D01*
X109220000Y-74549000D02*
X109250000Y-74500000D01*
X106000000Y-70700000D02*
X106045000Y-70739000D01*
D30*
X135509000Y-73246000D02*
X135509000Y-71996000D01*
X135509000Y-71996000D02*
X135604990Y-71900010D01*
X135604990Y-71900010D02*
X135945331Y-71900010D01*
X147447000Y-71432010D02*
X147400000Y-71385010D01*
X147447000Y-73246000D02*
X147447000Y-71432010D01*
X127600000Y-69100000D02*
X129500000Y-69100000D01*
X129500000Y-69100000D02*
X129600000Y-69000000D01*
X124000000Y-71000000D02*
X121000000Y-71000000D01*
X124000000Y-73000000D02*
X121000000Y-73000000D01*
D28*
X112150000Y-77000000D02*
X112141000Y-76962000D01*
X112141000Y-76962000D02*
X114046000Y-75057000D01*
X114046000Y-75057000D02*
X115062000Y-75057000D01*
X115062000Y-75057000D02*
X115000000Y-75000000D01*
X112150000Y-70500000D02*
X112150000Y-69250000D01*
X112150000Y-69250000D02*
X112400000Y-69000000D01*
X112400000Y-69000000D02*
X113900000Y-69000000D01*
X113900000Y-69000000D02*
X114950000Y-69000000D01*
X114950000Y-69000000D02*
X114935000Y-68961000D01*
D31*
X118663166Y-93447500D02*
X114393167Y-93447500D01*
X114393167Y-93447500D02*
X114175000Y-93229333D01*
X114175000Y-93229333D02*
X114175000Y-91540000D01*
X122663166Y-97447500D02*
X118663166Y-93447500D01*
X127536834Y-97447500D02*
X122663166Y-97447500D01*
X127847500Y-97136834D02*
X127536834Y-97447500D01*
X127847500Y-95663166D02*
X127847500Y-97136834D01*
X127799834Y-95615500D02*
X127847500Y-95663166D01*
X125984000Y-95788000D02*
X127071500Y-95788000D01*
X127071500Y-95788000D02*
X127244000Y-95615500D01*
X127244000Y-95615500D02*
X127799834Y-95615500D01*
X137805667Y-93140001D02*
X135191166Y-90525500D01*
X124896500Y-95788000D02*
X125984000Y-95788000D01*
X124724000Y-95615500D02*
X124896500Y-95788000D01*
X122021500Y-94805166D02*
X122831834Y-95615500D01*
X122021500Y-91884834D02*
X122021500Y-94805166D01*
X135191166Y-90525500D02*
X123380834Y-90525500D01*
X140224999Y-93140001D02*
X137805667Y-93140001D01*
X122831834Y-95615500D02*
X124724000Y-95615500D01*
X141825000Y-91540000D02*
X140224999Y-93140001D01*
X123380834Y-90525500D02*
X122021500Y-91884834D01*
X111633000Y-85090000D02*
X111633000Y-85765000D01*
X111633000Y-85765000D02*
X110835500Y-86562500D01*
X110835500Y-86562500D02*
X110835500Y-91159833D01*
X111215667Y-91540000D02*
X114175000Y-91540000D01*
X110835500Y-91159833D02*
X111215667Y-91540000D01*
X140906834Y-85496500D02*
X142307501Y-86897167D01*
X136842834Y-85496500D02*
X140906834Y-85496500D01*
X134721500Y-83375166D02*
X136842834Y-85496500D01*
X142307501Y-91057499D02*
X141825000Y-91540000D01*
X134721500Y-80253500D02*
X134721500Y-83375166D01*
X134239000Y-79771000D02*
X134721500Y-80253500D01*
X134239000Y-78646000D02*
X134239000Y-79771000D01*
X142307501Y-86897167D02*
X142307501Y-91057499D01*
X134239000Y-78196000D02*
X134239000Y-78646000D01*
X138049000Y-78646000D02*
X138049000Y-78196000D01*
X137566500Y-77713500D02*
X137566500Y-76962666D01*
X138049000Y-78196000D02*
X137566500Y-77713500D01*
X137566500Y-76962666D02*
X137032334Y-76428500D01*
X137032334Y-76428500D02*
X135064834Y-76428500D01*
X135064834Y-76428500D02*
X134721500Y-76771834D01*
X134721500Y-76771834D02*
X134721500Y-77713500D01*
X134721500Y-77713500D02*
X134239000Y-78196000D01*
D28*
X114300000Y-91440000D02*
X114175000Y-91540000D01*
D31*
X113959333Y-93445000D02*
X111000000Y-93445000D01*
X118536834Y-93752500D02*
X114266833Y-93752500D01*
X114266833Y-93752500D02*
X113959333Y-93445000D01*
X122536834Y-97752500D02*
X118536834Y-93752500D01*
X127663166Y-97752500D02*
X122536834Y-97752500D01*
X128152500Y-97263166D02*
X127663166Y-97752500D01*
X128152500Y-95536834D02*
X128152500Y-97263166D01*
X127926166Y-95310500D02*
X128152500Y-95536834D01*
X125984000Y-95138000D02*
X127071500Y-95138000D01*
X127244000Y-95310500D02*
X127926166Y-95310500D01*
X127071500Y-95138000D02*
X127244000Y-95310500D01*
X122326500Y-94678834D02*
X122958166Y-95310500D01*
X124724000Y-95310500D02*
X124896500Y-95138000D01*
X122326500Y-92011166D02*
X122326500Y-94678834D01*
X124896500Y-95138000D02*
X125984000Y-95138000D01*
X137679334Y-93445000D02*
X135064834Y-90830500D01*
X135064834Y-90830500D02*
X123507166Y-90830500D01*
X145000000Y-93445000D02*
X137679334Y-93445000D01*
X122958166Y-95310500D02*
X124724000Y-95310500D01*
X123507166Y-90830500D02*
X122326500Y-92011166D01*
X111000000Y-91755667D02*
X111000000Y-93445000D01*
X110530500Y-86562500D02*
X110530500Y-91286167D01*
X109733000Y-85090000D02*
X109733000Y-85765000D01*
X109733000Y-85765000D02*
X110530500Y-86562500D01*
X110530500Y-91286167D02*
X111000000Y-91755667D01*
X143212501Y-91657501D02*
X145000000Y-93445000D01*
X143212501Y-90873999D02*
X143212501Y-91657501D01*
X142612499Y-90273997D02*
X143212501Y-90873999D01*
X142612499Y-86770833D02*
X142612499Y-90273997D01*
X141033166Y-85191500D02*
X142612499Y-86770833D01*
X135026500Y-83248834D02*
X136969166Y-85191500D01*
X135026500Y-80253500D02*
X135026500Y-83248834D01*
X135509000Y-79771000D02*
X135026500Y-80253500D01*
X136969166Y-85191500D02*
X141033166Y-85191500D01*
X135509000Y-78646000D02*
X135509000Y-79771000D01*
X135026500Y-76898166D02*
X135026500Y-77713500D01*
X136779000Y-78196000D02*
X137261500Y-77713500D01*
X137261500Y-77089000D02*
X136906000Y-76733500D01*
X136779000Y-78646000D02*
X136779000Y-78196000D01*
X135191166Y-76733500D02*
X135026500Y-76898166D01*
X137261500Y-77713500D02*
X137261500Y-77089000D01*
X136906000Y-76733500D02*
X135191166Y-76733500D01*
X135026500Y-77713500D02*
X135509000Y-78196000D01*
X135509000Y-78196000D02*
X135509000Y-78646000D01*
X131884000Y-93838000D02*
X130796500Y-93838000D01*
X130796500Y-93838000D02*
X130624000Y-93665500D01*
X109574964Y-96352500D02*
X108647500Y-95425036D01*
X130624000Y-93665500D02*
X130150166Y-93665500D01*
X129463166Y-98752500D02*
X120736834Y-98752500D01*
X130150166Y-93665500D02*
X129952500Y-93863166D01*
X129952500Y-93863166D02*
X129952500Y-98263166D01*
X129952500Y-98263166D02*
X129463166Y-98752500D01*
X120736834Y-98752500D02*
X118336834Y-96352500D01*
X118336834Y-96352500D02*
X109574964Y-96352500D01*
X108647500Y-95425036D02*
X108647500Y-92247500D01*
X108647500Y-92247500D02*
X107940000Y-91540000D01*
X107940000Y-91540000D02*
X107825000Y-91540000D01*
X131884000Y-93838000D02*
X132971500Y-93838000D01*
X132971500Y-93838000D02*
X133144000Y-93665500D01*
X133144000Y-93665500D02*
X135699834Y-93665500D01*
X135699834Y-93665500D02*
X137686834Y-95652500D01*
X137686834Y-95652500D02*
X146563166Y-95652500D01*
X146563166Y-95652500D02*
X148175000Y-94040666D01*
X148175000Y-94040666D02*
X148175000Y-91540000D01*
X104230667Y-87945667D02*
X107825000Y-91540000D01*
X103987500Y-86530500D02*
X103987500Y-87702500D01*
X103987500Y-87702500D02*
X104230667Y-87945667D01*
X103987500Y-86530500D02*
X103190000Y-85733000D01*
X103190000Y-85733000D02*
X103190000Y-85058000D01*
X148717000Y-78196000D02*
X149199500Y-77713500D01*
X146964500Y-77713500D02*
X147447000Y-78196000D01*
X147002166Y-76987500D02*
X146964500Y-77025166D01*
X148717000Y-78646000D02*
X148717000Y-78196000D01*
X149199500Y-77713500D02*
X149199500Y-77152166D01*
X149199500Y-77152166D02*
X149034834Y-76987500D01*
X149034834Y-76987500D02*
X147002166Y-76987500D01*
X146964500Y-77025166D02*
X146964500Y-77713500D01*
X147447000Y-78196000D02*
X147447000Y-78646000D01*
X148175000Y-91540000D02*
X150774500Y-88940500D01*
X146964500Y-80253500D02*
X147447000Y-79771000D01*
X150774500Y-88940500D02*
X150774500Y-85026834D01*
X150774500Y-85026834D02*
X146964500Y-81216834D01*
X146964500Y-81216834D02*
X146964500Y-80253500D01*
X147447000Y-79771000D02*
X147447000Y-78646000D01*
X148505001Y-91870001D02*
X148175000Y-91540000D01*
D28*
X107950000Y-91440000D02*
X107825000Y-91540000D01*
D31*
X131884000Y-93188000D02*
X130796500Y-93188000D01*
X130796500Y-93188000D02*
X130624000Y-93360500D01*
X130624000Y-93360500D02*
X130023834Y-93360500D01*
X130023834Y-93360500D02*
X129647500Y-93736834D01*
X129647500Y-93736834D02*
X129647500Y-98136834D01*
X129647500Y-98136834D02*
X129336834Y-98447500D01*
X129336834Y-98447500D02*
X120863166Y-98447500D01*
X120863166Y-98447500D02*
X118463166Y-96047500D01*
X118463166Y-96047500D02*
X109736834Y-96047500D01*
X109736834Y-96047500D02*
X108952500Y-95263166D01*
X108952500Y-92452500D02*
X108911661Y-92411661D01*
X108911661Y-89451661D02*
X108089159Y-88629159D01*
X108952500Y-95263166D02*
X108952500Y-92452500D01*
X108911661Y-92411661D02*
X108911661Y-89451661D01*
X108089159Y-88629159D02*
X107190000Y-87730000D01*
X147142167Y-94642167D02*
X147142167Y-92560669D01*
X147142167Y-92560669D02*
X146787499Y-92206001D01*
X146787499Y-92206001D02*
X146787499Y-89752501D01*
X146436834Y-95347500D02*
X147142167Y-94642167D01*
X137813166Y-95347500D02*
X146436834Y-95347500D01*
X146787499Y-89752501D02*
X147910001Y-88629999D01*
X147910001Y-88629999D02*
X148810000Y-87730000D01*
X135826166Y-93360500D02*
X137813166Y-95347500D01*
X131884000Y-93188000D02*
X132971500Y-93188000D01*
X132971500Y-93188000D02*
X133144000Y-93360500D01*
X133144000Y-93360500D02*
X135826166Y-93360500D01*
X104292500Y-86530500D02*
X104292500Y-87576165D01*
X104292500Y-87576165D02*
X104446335Y-87730000D01*
X107190000Y-87730000D02*
X104446335Y-87730000D01*
X105090000Y-85733000D02*
X105090000Y-85058000D01*
X104292500Y-86530500D02*
X105090000Y-85733000D01*
X146659500Y-77713500D02*
X146177000Y-78196000D01*
X149504500Y-77025834D02*
X149161166Y-76682500D01*
X149987000Y-78646000D02*
X149987000Y-78196000D01*
X149987000Y-78196000D02*
X149504500Y-77713500D01*
X149504500Y-77713500D02*
X149504500Y-77025834D01*
X146659500Y-76898834D02*
X146659500Y-77713500D01*
X149161166Y-76682500D02*
X146875834Y-76682500D01*
X146875834Y-76682500D02*
X146659500Y-76898834D01*
X146177000Y-78196000D02*
X146177000Y-78646000D01*
X148810000Y-87730000D02*
X150082792Y-87730000D01*
X150082792Y-87730000D02*
X150469500Y-87343292D01*
X150469500Y-87343292D02*
X150469500Y-85153166D01*
X150469500Y-85153166D02*
X146659500Y-81343166D01*
X146659500Y-81343166D02*
X146659500Y-80253500D01*
X146659500Y-80253500D02*
X146177000Y-79771000D01*
X146177000Y-79771000D02*
X146177000Y-78646000D01*
X148479999Y-87399999D02*
X148810000Y-87730000D01*
D28*
X131064000Y-86487000D02*
X134869792Y-86487000D01*
X134869792Y-86487000D02*
X136110000Y-87727208D01*
X136110000Y-87727208D02*
X136110000Y-89000000D01*
X131884000Y-95138000D02*
X131884000Y-95712999D01*
X130500000Y-94750000D02*
X130888000Y-95138000D01*
X130888000Y-95138000D02*
X131884000Y-95138000D01*
X128500001Y-92649999D02*
X128750000Y-92400000D01*
X125984000Y-93838000D02*
X127312000Y-93838000D01*
X127312000Y-93838000D02*
X128500001Y-92649999D01*
X125984000Y-93838000D02*
X125984000Y-93413000D01*
X125984000Y-93413000D02*
X125984000Y-93263001D01*
X138049000Y-72296000D02*
X138049000Y-73246000D01*
X138049000Y-71137275D02*
X138049000Y-72296000D01*
X132670306Y-69118012D02*
X136029737Y-69118012D01*
X131614570Y-68062276D02*
X132670306Y-69118012D01*
X131614570Y-66720060D02*
X131614570Y-68062276D01*
X132715000Y-65619630D02*
X131614570Y-66720060D01*
X132715000Y-64770000D02*
X132715000Y-65619630D01*
X136029737Y-69118012D02*
X138049000Y-71137275D01*
X139319000Y-72296000D02*
X139319000Y-73246000D01*
X139319000Y-71692998D02*
X139319000Y-72296000D01*
X135255000Y-67628998D02*
X139319000Y-71692998D01*
X135255000Y-64770000D02*
X135255000Y-67628998D01*
X148717000Y-73246000D02*
X148717000Y-71184998D01*
X140335000Y-67310000D02*
X140335000Y-64770000D01*
X148717000Y-71184998D02*
X148017002Y-70485000D01*
X148017002Y-70485000D02*
X143510000Y-70485000D01*
X143510000Y-70485000D02*
X140335000Y-67310000D01*
X147955000Y-66675000D02*
X147955000Y-64770000D01*
X148590000Y-67310000D02*
X147955000Y-66675000D01*
X149225000Y-67310000D02*
X148590000Y-67310000D01*
X152527000Y-73246000D02*
X152527000Y-70612000D01*
X152527000Y-70612000D02*
X149225000Y-67310000D01*
X142875000Y-67407002D02*
X142875000Y-64770000D01*
X149987000Y-70612000D02*
X148875001Y-69500001D01*
X148875001Y-69500001D02*
X144967999Y-69500001D01*
X144967999Y-69500001D02*
X142875000Y-67407002D01*
X149987000Y-73246000D02*
X149987000Y-70612000D01*
X151257000Y-73246000D02*
X151257000Y-70612000D01*
X151257000Y-70612000D02*
X147955000Y-67310000D01*
X147955000Y-67310000D02*
X146050000Y-67310000D01*
X146050000Y-67310000D02*
X145415000Y-66675000D01*
X145415000Y-66675000D02*
X145415000Y-64770000D01*
X125984000Y-96438000D02*
X124238000Y-96438000D01*
X124238000Y-96438000D02*
X124200000Y-96400000D01*
X124100000Y-93900000D02*
X124688000Y-94488000D01*
X124688000Y-94488000D02*
X125984000Y-94488000D01*
X131884000Y-92538000D02*
X133062000Y-92538000D01*
X133062000Y-92538000D02*
X133600000Y-92000000D01*
X131884000Y-94488000D02*
X132988000Y-94488000D01*
X132988000Y-94488000D02*
X133500000Y-95000000D01*
X143637000Y-73246000D02*
X143637000Y-74196000D01*
X143637000Y-74196000D02*
X142833000Y-75000000D01*
X142833000Y-75000000D02*
X130395000Y-75000000D01*
X124000000Y-75000000D02*
X130395000Y-75000000D01*
X130395000Y-75000000D02*
X131699000Y-73696000D01*
X131699000Y-73696000D02*
X131699000Y-73246000D01*
X144907000Y-73246000D02*
X144907000Y-72263000D01*
X144907000Y-72263000D02*
X144272000Y-71628000D01*
X144272000Y-71628000D02*
X143256000Y-71628000D01*
X132329999Y-71369999D02*
X132080000Y-71120000D01*
X132969000Y-72009000D02*
X132329999Y-71369999D01*
X132969000Y-73246000D02*
X132969000Y-72009000D01*
X131830001Y-71369999D02*
X132080000Y-71120000D01*
X127224998Y-73500000D02*
X129700000Y-73500000D01*
X126000000Y-72275002D02*
X127224998Y-73500000D01*
X124050000Y-69000000D02*
X125100000Y-69000000D01*
X125100000Y-69000000D02*
X126000000Y-69900000D01*
X126000000Y-69900000D02*
X126000000Y-72275002D01*
X129700000Y-73500000D02*
X131830001Y-71369999D01*
D32*
G36*
X118673000Y-75500000D02*
X118695363Y-75618851D01*
X118765604Y-75728008D01*
X118872779Y-75801237D01*
X119000000Y-75827000D01*
X122821674Y-75827000D01*
X122839395Y-75921179D01*
X122911012Y-76032474D01*
X123020286Y-76107138D01*
X123150000Y-76133406D01*
X124850000Y-76133406D01*
X124971179Y-76110605D01*
X125082474Y-76038988D01*
X125157138Y-75929714D01*
X125177938Y-75827000D01*
X156598000Y-75827000D01*
X156598000Y-96960405D01*
X156526723Y-97318739D01*
X156527611Y-96301514D01*
X155991789Y-95004725D01*
X155000494Y-94011698D01*
X153704642Y-93473614D01*
X152301514Y-93472389D01*
X151004725Y-94008211D01*
X150011698Y-94999506D01*
X149473614Y-96295358D01*
X149472389Y-97698486D01*
X150008211Y-98995275D01*
X150999506Y-99988302D01*
X152295358Y-100526386D01*
X153315953Y-100527277D01*
X152960405Y-100598000D01*
X104039595Y-100598000D01*
X103681261Y-100526723D01*
X104698486Y-100527611D01*
X105995275Y-99991789D01*
X106988302Y-99000494D01*
X107526386Y-97704642D01*
X107527611Y-96301514D01*
X106991789Y-95004725D01*
X106000494Y-94011698D01*
X104704642Y-93473614D01*
X103301514Y-93472389D01*
X102004725Y-94008211D01*
X101011698Y-94999506D01*
X100473614Y-96295358D01*
X100472723Y-97315953D01*
X100402000Y-96960405D01*
X100402000Y-84608000D01*
X102456594Y-84608000D01*
X102456594Y-85508000D01*
X102479395Y-85629179D01*
X102551012Y-85740474D01*
X102660286Y-85815138D01*
X102790000Y-85841406D01*
X102822063Y-85841406D01*
X102830149Y-85882055D01*
X102914582Y-86008418D01*
X103598000Y-86691836D01*
X103598000Y-87702500D01*
X103627649Y-87851555D01*
X103712082Y-87977918D01*
X106725259Y-90991095D01*
X106599053Y-91295032D01*
X106598628Y-91782828D01*
X106784906Y-92233657D01*
X107129529Y-92578882D01*
X107580032Y-92765947D01*
X108067828Y-92766372D01*
X108258000Y-92687795D01*
X108258000Y-95425036D01*
X108287649Y-95574091D01*
X108372082Y-95700454D01*
X109299546Y-96627918D01*
X109425909Y-96712351D01*
X109574964Y-96742000D01*
X118175498Y-96742000D01*
X119367436Y-97933938D01*
X119012172Y-97933628D01*
X118561343Y-98119906D01*
X118216118Y-98464529D01*
X118029053Y-98915032D01*
X118028628Y-99402828D01*
X118214906Y-99853657D01*
X118559529Y-100198882D01*
X119010032Y-100385947D01*
X119497828Y-100386372D01*
X119948657Y-100200094D01*
X120293882Y-99855471D01*
X120480947Y-99404968D01*
X120481264Y-99041180D01*
X120587779Y-99112351D01*
X120736834Y-99142000D01*
X129463166Y-99142000D01*
X129612221Y-99112351D01*
X129738584Y-99027918D01*
X130227918Y-98538584D01*
X130312351Y-98412221D01*
X130342000Y-98263166D01*
X130342000Y-95309159D01*
X130384724Y-95326900D01*
X130473108Y-95326977D01*
X130586063Y-95439932D01*
X130586065Y-95439935D01*
X130724594Y-95532497D01*
X130827621Y-95552991D01*
X130825594Y-95563000D01*
X130825594Y-95682464D01*
X130713247Y-95754757D01*
X130570083Y-95964283D01*
X130519717Y-96213000D01*
X130519717Y-96663000D01*
X130563437Y-96895352D01*
X130700757Y-97108753D01*
X130910283Y-97251917D01*
X131132000Y-97296815D01*
X131132000Y-97673099D01*
X131073161Y-97814799D01*
X131072839Y-98183583D01*
X131213669Y-98524417D01*
X131474211Y-98785414D01*
X131814799Y-98926839D01*
X132183583Y-98927161D01*
X132524417Y-98786331D01*
X132785414Y-98525789D01*
X132926839Y-98185201D01*
X132927161Y-97816417D01*
X132786331Y-97475583D01*
X132636000Y-97324989D01*
X132636000Y-97297203D01*
X132841352Y-97258563D01*
X133054753Y-97121243D01*
X133197917Y-96911717D01*
X133248283Y-96663000D01*
X133248283Y-96213000D01*
X133204563Y-95980648D01*
X133067243Y-95767247D01*
X132942406Y-95681949D01*
X132942406Y-95563000D01*
X132922899Y-95459327D01*
X132942406Y-95363000D01*
X132942406Y-95161477D01*
X133010558Y-95326417D01*
X133172729Y-95488871D01*
X133384724Y-95576900D01*
X133614269Y-95577100D01*
X133826417Y-95489442D01*
X133988871Y-95327271D01*
X134076900Y-95115276D01*
X134077100Y-94885731D01*
X133989442Y-94673583D01*
X133827271Y-94511129D01*
X133615276Y-94423100D01*
X133526893Y-94423023D01*
X133289935Y-94186065D01*
X133214064Y-94135370D01*
X133246918Y-94113418D01*
X133305336Y-94055000D01*
X135538498Y-94055000D01*
X137411416Y-95927918D01*
X137537778Y-96012351D01*
X137686834Y-96042000D01*
X144650004Y-96042000D01*
X144305869Y-96184194D01*
X143960407Y-96529053D01*
X143773214Y-96979864D01*
X143772788Y-97467995D01*
X143959194Y-97919131D01*
X144304053Y-98264593D01*
X144754864Y-98451786D01*
X145242995Y-98452212D01*
X145694131Y-98265806D01*
X146039593Y-97920947D01*
X146226786Y-97470136D01*
X146227212Y-96982005D01*
X146040806Y-96530869D01*
X145695947Y-96185407D01*
X145350584Y-96042000D01*
X146563166Y-96042000D01*
X146712221Y-96012351D01*
X146838584Y-95927918D01*
X148450418Y-94316084D01*
X148534851Y-94189721D01*
X148564500Y-94040666D01*
X148564500Y-93031279D01*
X149038846Y-92835283D01*
X149468773Y-92406106D01*
X149701735Y-91845072D01*
X149702265Y-91237593D01*
X149505193Y-90760643D01*
X151049918Y-89215918D01*
X151134351Y-89089555D01*
X151164000Y-88940500D01*
X151164000Y-85026834D01*
X151134351Y-84877779D01*
X151049918Y-84751416D01*
X147354000Y-81055498D01*
X147354000Y-80414836D01*
X147722418Y-80046418D01*
X147806851Y-79920055D01*
X147836500Y-79771000D01*
X147836500Y-79712566D01*
X147868179Y-79706605D01*
X147979474Y-79634988D01*
X148054138Y-79525714D01*
X148080406Y-79396000D01*
X148080406Y-77896000D01*
X148057605Y-77774821D01*
X147985988Y-77663526D01*
X147876714Y-77588862D01*
X147747000Y-77562594D01*
X147364430Y-77562594D01*
X147354000Y-77552164D01*
X147354000Y-77377000D01*
X148810000Y-77377000D01*
X148810000Y-77552164D01*
X148799570Y-77562594D01*
X148417000Y-77562594D01*
X148295821Y-77585395D01*
X148184526Y-77657012D01*
X148109862Y-77766286D01*
X148083594Y-77896000D01*
X148083594Y-79396000D01*
X148106395Y-79517179D01*
X148178012Y-79628474D01*
X148287286Y-79703138D01*
X148417000Y-79729406D01*
X149017000Y-79729406D01*
X149138179Y-79706605D01*
X149249474Y-79634988D01*
X149324138Y-79525714D01*
X149350406Y-79396000D01*
X149350406Y-78113430D01*
X149352000Y-78111836D01*
X149353594Y-78113430D01*
X149353594Y-79396000D01*
X149376395Y-79517179D01*
X149448012Y-79628474D01*
X149557286Y-79703138D01*
X149687000Y-79729406D01*
X150287000Y-79729406D01*
X150399050Y-79708323D01*
X150418673Y-79755698D01*
X150597301Y-79934327D01*
X150830690Y-80031000D01*
X150971250Y-80031000D01*
X151130000Y-79872250D01*
X151130000Y-78773000D01*
X151384000Y-78773000D01*
X151384000Y-79872250D01*
X151542750Y-80031000D01*
X151683310Y-80031000D01*
X151892000Y-79944558D01*
X152100690Y-80031000D01*
X152241250Y-80031000D01*
X152400000Y-79872250D01*
X152400000Y-78773000D01*
X152654000Y-78773000D01*
X152654000Y-79872250D01*
X152812750Y-80031000D01*
X152953310Y-80031000D01*
X153186699Y-79934327D01*
X153365327Y-79755698D01*
X153462000Y-79522309D01*
X153462000Y-78931750D01*
X153303250Y-78773000D01*
X152654000Y-78773000D01*
X152400000Y-78773000D01*
X151384000Y-78773000D01*
X151130000Y-78773000D01*
X151110000Y-78773000D01*
X151110000Y-78519000D01*
X151130000Y-78519000D01*
X151130000Y-77419750D01*
X151384000Y-77419750D01*
X151384000Y-78519000D01*
X152400000Y-78519000D01*
X152400000Y-77419750D01*
X152654000Y-77419750D01*
X152654000Y-78519000D01*
X153303250Y-78519000D01*
X153462000Y-78360250D01*
X153462000Y-77769691D01*
X153365327Y-77536302D01*
X153186699Y-77357673D01*
X152953310Y-77261000D01*
X152812750Y-77261000D01*
X152654000Y-77419750D01*
X152400000Y-77419750D01*
X152241250Y-77261000D01*
X152100690Y-77261000D01*
X151892000Y-77347442D01*
X151683310Y-77261000D01*
X151542750Y-77261000D01*
X151384000Y-77419750D01*
X151130000Y-77419750D01*
X150971250Y-77261000D01*
X150830690Y-77261000D01*
X150597301Y-77357673D01*
X150418673Y-77536302D01*
X150398435Y-77585160D01*
X150287000Y-77562594D01*
X149904430Y-77562594D01*
X149894000Y-77552164D01*
X149894000Y-77025834D01*
X149864351Y-76876779D01*
X149779918Y-76750416D01*
X149436584Y-76407082D01*
X149310221Y-76322649D01*
X149161166Y-76293000D01*
X146875834Y-76293000D01*
X146726778Y-76322649D01*
X146600416Y-76407082D01*
X146384082Y-76623416D01*
X146299649Y-76749779D01*
X146270000Y-76898834D01*
X146270000Y-77552164D01*
X146259570Y-77562594D01*
X145877000Y-77562594D01*
X145764950Y-77583677D01*
X145745327Y-77536302D01*
X145566699Y-77357673D01*
X145333310Y-77261000D01*
X145192750Y-77261000D01*
X145034000Y-77419750D01*
X145034000Y-78519000D01*
X145054000Y-78519000D01*
X145054000Y-78773000D01*
X145034000Y-78773000D01*
X145034000Y-79872250D01*
X145192750Y-80031000D01*
X145333310Y-80031000D01*
X145566699Y-79934327D01*
X145745327Y-79755698D01*
X145765565Y-79706840D01*
X145787500Y-79711282D01*
X145787500Y-79771000D01*
X145817149Y-79920055D01*
X145901582Y-80046418D01*
X146270000Y-80414836D01*
X146270000Y-81343166D01*
X146299649Y-81492221D01*
X146384082Y-81618584D01*
X150080000Y-85314502D01*
X150080000Y-87181956D01*
X149960532Y-87301424D01*
X149850806Y-87035869D01*
X149505947Y-86690407D01*
X149055136Y-86503214D01*
X148567005Y-86502788D01*
X148115869Y-86689194D01*
X147770407Y-87034053D01*
X147583214Y-87484864D01*
X147582788Y-87972995D01*
X147709501Y-88279663D01*
X146512081Y-89477083D01*
X146427648Y-89603446D01*
X146397999Y-89752501D01*
X146397999Y-92206001D01*
X146427648Y-92355056D01*
X146512081Y-92481419D01*
X146752667Y-92722005D01*
X146752667Y-94480831D01*
X146275498Y-94958000D01*
X137974502Y-94958000D01*
X136101584Y-93085082D01*
X135975221Y-93000649D01*
X135826166Y-92971000D01*
X133305336Y-92971000D01*
X133250240Y-92915904D01*
X133363935Y-92839935D01*
X133626846Y-92577024D01*
X133714269Y-92577100D01*
X133926417Y-92489442D01*
X134088871Y-92327271D01*
X134176900Y-92115276D01*
X134177100Y-91885731D01*
X134089442Y-91673583D01*
X133927271Y-91511129D01*
X133715276Y-91423100D01*
X133485731Y-91422900D01*
X133273583Y-91510558D01*
X133111129Y-91672729D01*
X133023100Y-91884724D01*
X133023023Y-91973107D01*
X132885130Y-92111000D01*
X132867598Y-92111000D01*
X132847988Y-92080526D01*
X132738714Y-92005862D01*
X132609000Y-91979594D01*
X131159000Y-91979594D01*
X131037821Y-92002395D01*
X130926526Y-92074012D01*
X130851862Y-92183286D01*
X130825594Y-92313000D01*
X130825594Y-92763000D01*
X130832274Y-92798500D01*
X130796500Y-92798500D01*
X130647445Y-92828149D01*
X130521082Y-92912582D01*
X130462664Y-92971000D01*
X130023834Y-92971000D01*
X129874779Y-93000649D01*
X129748416Y-93085082D01*
X129372082Y-93461416D01*
X129287649Y-93587779D01*
X129258000Y-93736834D01*
X129258000Y-97975498D01*
X129175498Y-98058000D01*
X127893563Y-98058000D01*
X127938584Y-98027918D01*
X128427918Y-97538584D01*
X128512351Y-97412221D01*
X128542000Y-97263166D01*
X128542000Y-95536834D01*
X128512351Y-95387779D01*
X128427918Y-95261416D01*
X128201584Y-95035082D01*
X128075221Y-94950649D01*
X127926166Y-94921000D01*
X127405336Y-94921000D01*
X127346918Y-94862582D01*
X127220555Y-94778149D01*
X127071500Y-94748500D01*
X127035217Y-94748500D01*
X127042406Y-94713000D01*
X127042406Y-94265000D01*
X127311995Y-94265000D01*
X127312000Y-94265001D01*
X127475406Y-94232497D01*
X127613935Y-94139935D01*
X128776846Y-92977024D01*
X128864269Y-92977100D01*
X129076417Y-92889442D01*
X129238871Y-92727271D01*
X129326900Y-92515276D01*
X129327100Y-92285731D01*
X129239442Y-92073583D01*
X129077271Y-91911129D01*
X128865276Y-91823100D01*
X128635731Y-91822900D01*
X128423583Y-91910558D01*
X128261129Y-92072729D01*
X128173100Y-92284724D01*
X128173023Y-92373107D01*
X127135130Y-93411000D01*
X127042406Y-93411000D01*
X127042406Y-93312218D01*
X127068698Y-93301327D01*
X127247327Y-93122699D01*
X127344000Y-92889310D01*
X127344000Y-92809250D01*
X127185250Y-92650500D01*
X126812236Y-92650500D01*
X126709000Y-92629594D01*
X125259000Y-92629594D01*
X125147892Y-92650500D01*
X124782750Y-92650500D01*
X124624000Y-92809250D01*
X124624000Y-92889310D01*
X124720673Y-93122699D01*
X124899302Y-93301327D01*
X124925594Y-93312218D01*
X124925594Y-93413000D01*
X124945101Y-93516673D01*
X124925594Y-93613000D01*
X124925594Y-94061000D01*
X124864869Y-94061000D01*
X124677024Y-93873154D01*
X124677100Y-93785731D01*
X124589442Y-93573583D01*
X124427271Y-93411129D01*
X124215276Y-93323100D01*
X123985731Y-93322900D01*
X123773583Y-93410558D01*
X123611129Y-93572729D01*
X123523100Y-93784724D01*
X123522900Y-94014269D01*
X123610558Y-94226417D01*
X123772729Y-94388871D01*
X123984724Y-94476900D01*
X124073107Y-94476977D01*
X124386063Y-94789932D01*
X124386065Y-94789935D01*
X124524594Y-94882497D01*
X124588463Y-94895201D01*
X124562664Y-94921000D01*
X123119502Y-94921000D01*
X122716000Y-94517498D01*
X122716000Y-92186690D01*
X124624000Y-92186690D01*
X124624000Y-92266750D01*
X124782750Y-92425500D01*
X125857000Y-92425500D01*
X125857000Y-91836750D01*
X126111000Y-91836750D01*
X126111000Y-92425500D01*
X127185250Y-92425500D01*
X127344000Y-92266750D01*
X127344000Y-92186690D01*
X127247327Y-91953301D01*
X127068698Y-91774673D01*
X126835309Y-91678000D01*
X126269750Y-91678000D01*
X126111000Y-91836750D01*
X125857000Y-91836750D01*
X125698250Y-91678000D01*
X125132691Y-91678000D01*
X124899302Y-91774673D01*
X124720673Y-91953301D01*
X124624000Y-92186690D01*
X122716000Y-92186690D01*
X122716000Y-92172502D01*
X123668502Y-91220000D01*
X134903498Y-91220000D01*
X137403916Y-93720418D01*
X137530278Y-93804851D01*
X137679334Y-93834500D01*
X143833323Y-93834500D01*
X143959194Y-94139131D01*
X144304053Y-94484593D01*
X144754864Y-94671786D01*
X145242995Y-94672212D01*
X145694131Y-94485806D01*
X146039593Y-94140947D01*
X146226786Y-93690136D01*
X146227212Y-93202005D01*
X146040806Y-92750869D01*
X145695947Y-92405407D01*
X145245136Y-92218214D01*
X144757005Y-92217788D01*
X144450337Y-92344501D01*
X143602001Y-91496165D01*
X143602001Y-90873999D01*
X143572352Y-90724944D01*
X143487919Y-90598581D01*
X143001999Y-90112661D01*
X143001999Y-86770833D01*
X142972350Y-86621778D01*
X142887917Y-86495415D01*
X141308584Y-84916082D01*
X141182221Y-84831649D01*
X141033166Y-84802000D01*
X137130502Y-84802000D01*
X135416000Y-83087498D01*
X135416000Y-82183583D01*
X139272839Y-82183583D01*
X139413669Y-82524417D01*
X139674211Y-82785414D01*
X140014799Y-82926839D01*
X140383583Y-82927161D01*
X140403334Y-82919000D01*
X141584077Y-82919000D01*
X141711283Y-83005917D01*
X141960000Y-83056283D01*
X143160000Y-83056283D01*
X143392352Y-83012563D01*
X143492862Y-82947887D01*
X143500302Y-82955327D01*
X143733691Y-83052000D01*
X144174250Y-83052000D01*
X144333000Y-82893250D01*
X144333000Y-82169000D01*
X144587000Y-82169000D01*
X144587000Y-82893250D01*
X144745750Y-83052000D01*
X145186309Y-83052000D01*
X145419698Y-82955327D01*
X145598327Y-82776699D01*
X145695000Y-82543310D01*
X145695000Y-82327750D01*
X145536250Y-82169000D01*
X144587000Y-82169000D01*
X144333000Y-82169000D01*
X144313000Y-82169000D01*
X144313000Y-81915000D01*
X144333000Y-81915000D01*
X144333000Y-81190750D01*
X144587000Y-81190750D01*
X144587000Y-81915000D01*
X145536250Y-81915000D01*
X145695000Y-81756250D01*
X145695000Y-81540690D01*
X145598327Y-81307301D01*
X145419698Y-81128673D01*
X145186309Y-81032000D01*
X144745750Y-81032000D01*
X144587000Y-81190750D01*
X144333000Y-81190750D01*
X144326675Y-81184425D01*
X144385414Y-81125789D01*
X144526839Y-80785201D01*
X144527161Y-80416417D01*
X144514000Y-80384565D01*
X144514000Y-80031000D01*
X144621250Y-80031000D01*
X144780000Y-79872250D01*
X144780000Y-78773000D01*
X144760000Y-78773000D01*
X144760000Y-78519000D01*
X144780000Y-78519000D01*
X144780000Y-77419750D01*
X144621250Y-77261000D01*
X144480690Y-77261000D01*
X144255056Y-77354461D01*
X144185717Y-77307083D01*
X143937000Y-77256717D01*
X143337000Y-77256717D01*
X143104648Y-77300437D01*
X142891247Y-77437757D01*
X142748083Y-77647283D01*
X142697717Y-77896000D01*
X142697717Y-79396000D01*
X142741437Y-79628352D01*
X142760000Y-79657200D01*
X142760000Y-80205668D01*
X142673161Y-80414799D01*
X142672839Y-80783583D01*
X142773713Y-81027717D01*
X141960000Y-81027717D01*
X141727648Y-81071437D01*
X141582247Y-81165000D01*
X140606373Y-81165000D01*
X140385201Y-81073161D01*
X140016417Y-81072839D01*
X139675583Y-81213669D01*
X139414586Y-81474211D01*
X139273161Y-81814799D01*
X139272839Y-82183583D01*
X135416000Y-82183583D01*
X135416000Y-80414836D01*
X135784418Y-80046418D01*
X135868851Y-79920055D01*
X135898500Y-79771000D01*
X135898500Y-79712566D01*
X135930179Y-79706605D01*
X136041474Y-79634988D01*
X136116138Y-79525714D01*
X136142406Y-79396000D01*
X136142406Y-77896000D01*
X136119605Y-77774821D01*
X136047988Y-77663526D01*
X135938714Y-77588862D01*
X135809000Y-77562594D01*
X135426430Y-77562594D01*
X135416000Y-77552164D01*
X135416000Y-77123000D01*
X136744664Y-77123000D01*
X136872000Y-77250336D01*
X136872000Y-77552164D01*
X136861570Y-77562594D01*
X136479000Y-77562594D01*
X136357821Y-77585395D01*
X136246526Y-77657012D01*
X136171862Y-77766286D01*
X136145594Y-77896000D01*
X136145594Y-79396000D01*
X136168395Y-79517179D01*
X136240012Y-79628474D01*
X136349286Y-79703138D01*
X136479000Y-79729406D01*
X137079000Y-79729406D01*
X137200179Y-79706605D01*
X137311474Y-79634988D01*
X137386138Y-79525714D01*
X137412406Y-79396000D01*
X137412406Y-78113430D01*
X137414000Y-78111836D01*
X137415594Y-78113430D01*
X137415594Y-79396000D01*
X137438395Y-79517179D01*
X137510012Y-79628474D01*
X137619286Y-79703138D01*
X137749000Y-79729406D01*
X138349000Y-79729406D01*
X138461050Y-79708323D01*
X138480673Y-79755698D01*
X138659301Y-79934327D01*
X138892690Y-80031000D01*
X139033250Y-80031000D01*
X139192000Y-79872250D01*
X139192000Y-78773000D01*
X139446000Y-78773000D01*
X139446000Y-79872250D01*
X139604750Y-80031000D01*
X139745310Y-80031000D01*
X139954000Y-79944558D01*
X140162690Y-80031000D01*
X140303250Y-80031000D01*
X140462000Y-79872250D01*
X140462000Y-78773000D01*
X140716000Y-78773000D01*
X140716000Y-79872250D01*
X140874750Y-80031000D01*
X141015310Y-80031000D01*
X141248699Y-79934327D01*
X141427327Y-79755698D01*
X141524000Y-79522309D01*
X141524000Y-78931750D01*
X141365250Y-78773000D01*
X140716000Y-78773000D01*
X140462000Y-78773000D01*
X139446000Y-78773000D01*
X139192000Y-78773000D01*
X139172000Y-78773000D01*
X139172000Y-78519000D01*
X139192000Y-78519000D01*
X139192000Y-77419750D01*
X139446000Y-77419750D01*
X139446000Y-78519000D01*
X140462000Y-78519000D01*
X140462000Y-77419750D01*
X140716000Y-77419750D01*
X140716000Y-78519000D01*
X141365250Y-78519000D01*
X141524000Y-78360250D01*
X141524000Y-77769691D01*
X141427327Y-77536302D01*
X141248699Y-77357673D01*
X141015310Y-77261000D01*
X140874750Y-77261000D01*
X140716000Y-77419750D01*
X140462000Y-77419750D01*
X140303250Y-77261000D01*
X140162690Y-77261000D01*
X139954000Y-77347442D01*
X139745310Y-77261000D01*
X139604750Y-77261000D01*
X139446000Y-77419750D01*
X139192000Y-77419750D01*
X139033250Y-77261000D01*
X138892690Y-77261000D01*
X138659301Y-77357673D01*
X138480673Y-77536302D01*
X138460435Y-77585160D01*
X138349000Y-77562594D01*
X137966430Y-77562594D01*
X137956000Y-77552164D01*
X137956000Y-76962666D01*
X137926351Y-76813611D01*
X137841918Y-76687248D01*
X137307752Y-76153082D01*
X137181389Y-76068649D01*
X137032334Y-76039000D01*
X135064834Y-76039000D01*
X134915779Y-76068649D01*
X134789416Y-76153082D01*
X134446082Y-76496416D01*
X134361649Y-76622779D01*
X134332000Y-76771834D01*
X134332000Y-77552164D01*
X134321570Y-77562594D01*
X133939000Y-77562594D01*
X133826950Y-77583677D01*
X133807327Y-77536302D01*
X133628699Y-77357673D01*
X133395310Y-77261000D01*
X133254750Y-77261000D01*
X133096000Y-77419750D01*
X133096000Y-78519000D01*
X133116000Y-78519000D01*
X133116000Y-78773000D01*
X133096000Y-78773000D01*
X133096000Y-79872250D01*
X133254750Y-80031000D01*
X133395310Y-80031000D01*
X133628699Y-79934327D01*
X133807327Y-79755698D01*
X133827565Y-79706840D01*
X133849500Y-79711282D01*
X133849500Y-79771000D01*
X133879149Y-79920055D01*
X133963582Y-80046418D01*
X134332000Y-80414836D01*
X134332000Y-83375166D01*
X134361649Y-83524221D01*
X134446082Y-83650584D01*
X136567416Y-85771918D01*
X136693778Y-85856351D01*
X136842834Y-85886000D01*
X140745498Y-85886000D01*
X141918001Y-87058503D01*
X141918001Y-87614486D01*
X141891643Y-87550852D01*
X141635159Y-87464446D01*
X140734605Y-88365000D01*
X141635159Y-89265554D01*
X141891643Y-89179148D01*
X141918001Y-89107104D01*
X141918001Y-90013080D01*
X141522593Y-90012735D01*
X140961154Y-90244717D01*
X140531227Y-90673894D01*
X140298265Y-91234928D01*
X140297735Y-91842407D01*
X140494807Y-92319357D01*
X140063663Y-92750501D01*
X137967003Y-92750501D01*
X135466584Y-90250082D01*
X135340221Y-90165649D01*
X135191166Y-90136000D01*
X123380834Y-90136000D01*
X123231779Y-90165649D01*
X123105416Y-90250082D01*
X121746082Y-91609416D01*
X121661649Y-91735779D01*
X121632000Y-91884834D01*
X121632000Y-94805166D01*
X121661649Y-94954221D01*
X121746082Y-95080584D01*
X122556416Y-95890918D01*
X122682778Y-95975351D01*
X122831834Y-96005000D01*
X123778976Y-96005000D01*
X123711129Y-96072729D01*
X123623100Y-96284724D01*
X123622900Y-96514269D01*
X123710558Y-96726417D01*
X123872729Y-96888871D01*
X124084724Y-96976900D01*
X124314269Y-96977100D01*
X124526417Y-96889442D01*
X124550902Y-96865000D01*
X125000402Y-96865000D01*
X125020012Y-96895474D01*
X125129286Y-96970138D01*
X125259000Y-96996406D01*
X126709000Y-96996406D01*
X126830179Y-96973605D01*
X126941474Y-96901988D01*
X127016138Y-96792714D01*
X127042406Y-96663000D01*
X127042406Y-96213000D01*
X127035726Y-96177500D01*
X127071500Y-96177500D01*
X127220555Y-96147851D01*
X127346918Y-96063418D01*
X127405336Y-96005000D01*
X127458000Y-96005000D01*
X127458000Y-96975498D01*
X127375498Y-97058000D01*
X122824502Y-97058000D01*
X118938584Y-93172082D01*
X118812221Y-93087649D01*
X118663166Y-93058000D01*
X114564500Y-93058000D01*
X114564500Y-92705769D01*
X114868657Y-92580094D01*
X115213882Y-92235471D01*
X115400947Y-91784968D01*
X115401372Y-91297172D01*
X115215094Y-90846343D01*
X114870471Y-90501118D01*
X114419968Y-90314053D01*
X113932172Y-90313628D01*
X113481343Y-90499906D01*
X113136118Y-90844529D01*
X113009068Y-91150500D01*
X111377003Y-91150500D01*
X111225000Y-90998497D01*
X111225000Y-89444551D01*
X113910054Y-89444551D01*
X113996358Y-89700948D01*
X114569538Y-89910623D01*
X115179327Y-89884990D01*
X115623642Y-89700948D01*
X115709946Y-89444551D01*
X114810000Y-88544605D01*
X113910054Y-89444551D01*
X111225000Y-89444551D01*
X111225000Y-88124538D01*
X113264377Y-88124538D01*
X113290010Y-88734327D01*
X113474052Y-89178642D01*
X113730449Y-89264946D01*
X114630395Y-88365000D01*
X114989605Y-88365000D01*
X115889551Y-89264946D01*
X116145948Y-89178642D01*
X116355623Y-88605462D01*
X116329990Y-87995673D01*
X116145948Y-87551358D01*
X115889551Y-87465054D01*
X114989605Y-88365000D01*
X114630395Y-88365000D01*
X113730449Y-87465054D01*
X113474052Y-87551358D01*
X113264377Y-88124538D01*
X111225000Y-88124538D01*
X111225000Y-87285449D01*
X113910054Y-87285449D01*
X114810000Y-88185395D01*
X115709946Y-87285449D01*
X115623642Y-87029052D01*
X115050462Y-86819377D01*
X114440673Y-86845010D01*
X113996358Y-87029052D01*
X113910054Y-87285449D01*
X111225000Y-87285449D01*
X111225000Y-86723836D01*
X111908418Y-86040418D01*
X111992851Y-85914056D01*
X111998232Y-85887000D01*
X130280594Y-85887000D01*
X130280594Y-87087000D01*
X130303395Y-87208179D01*
X130375012Y-87319474D01*
X130484286Y-87394138D01*
X130614000Y-87420406D01*
X131514000Y-87420406D01*
X131635179Y-87397605D01*
X131746474Y-87325988D01*
X131821138Y-87216714D01*
X131847406Y-87087000D01*
X131847406Y-86914000D01*
X134692922Y-86914000D01*
X135643897Y-87864975D01*
X135415869Y-87959194D01*
X135379812Y-87995188D01*
X135245806Y-87670869D01*
X134900947Y-87325407D01*
X134450136Y-87138214D01*
X133962005Y-87137788D01*
X133510869Y-87324194D01*
X133165407Y-87669053D01*
X132978214Y-88119864D01*
X132977788Y-88607995D01*
X133164194Y-89059131D01*
X133509053Y-89404593D01*
X133959864Y-89591786D01*
X134447995Y-89592212D01*
X134899131Y-89405806D01*
X134935188Y-89369812D01*
X135069194Y-89694131D01*
X135414053Y-90039593D01*
X135864864Y-90226786D01*
X136352995Y-90227212D01*
X136804131Y-90040806D01*
X136840188Y-90004812D01*
X136974194Y-90329131D01*
X137319053Y-90674593D01*
X137769864Y-90861786D01*
X138257995Y-90862212D01*
X138709131Y-90675806D01*
X139054593Y-90330947D01*
X139241786Y-89880136D01*
X139242165Y-89445159D01*
X139654446Y-89445159D01*
X139740852Y-89701643D01*
X140314336Y-89911458D01*
X140924460Y-89885839D01*
X141369148Y-89701643D01*
X141455554Y-89445159D01*
X140555000Y-88544605D01*
X139654446Y-89445159D01*
X139242165Y-89445159D01*
X139242212Y-89392005D01*
X139055806Y-88940869D01*
X138710947Y-88595407D01*
X138260136Y-88408214D01*
X137772005Y-88407788D01*
X137320869Y-88594194D01*
X137284812Y-88630188D01*
X137150806Y-88305869D01*
X136969590Y-88124336D01*
X139008542Y-88124336D01*
X139034161Y-88734460D01*
X139218357Y-89179148D01*
X139474841Y-89265554D01*
X140375395Y-88365000D01*
X139474841Y-87464446D01*
X139218357Y-87550852D01*
X139008542Y-88124336D01*
X136969590Y-88124336D01*
X136805947Y-87960407D01*
X136537000Y-87848730D01*
X136537000Y-87727213D01*
X136537001Y-87727208D01*
X136504497Y-87563802D01*
X136411935Y-87425273D01*
X136271503Y-87284841D01*
X139654446Y-87284841D01*
X140555000Y-88185395D01*
X141455554Y-87284841D01*
X141369148Y-87028357D01*
X140795664Y-86818542D01*
X140185540Y-86844161D01*
X139740852Y-87028357D01*
X139654446Y-87284841D01*
X136271503Y-87284841D01*
X135171727Y-86185065D01*
X135033198Y-86092503D01*
X134869792Y-86059999D01*
X134869787Y-86060000D01*
X131847406Y-86060000D01*
X131847406Y-85887000D01*
X131824605Y-85765821D01*
X131752988Y-85654526D01*
X131643714Y-85579862D01*
X131514000Y-85553594D01*
X130614000Y-85553594D01*
X130492821Y-85576395D01*
X130381526Y-85648012D01*
X130306862Y-85757286D01*
X130280594Y-85887000D01*
X111998232Y-85887000D01*
X112000937Y-85873406D01*
X112033000Y-85873406D01*
X112154179Y-85850605D01*
X112265474Y-85778988D01*
X112340138Y-85669714D01*
X112366406Y-85540000D01*
X112366406Y-84640000D01*
X112343605Y-84518821D01*
X112271988Y-84407526D01*
X112236947Y-84383583D01*
X127272839Y-84383583D01*
X127413669Y-84724417D01*
X127674211Y-84985414D01*
X128014799Y-85126839D01*
X128100554Y-85126914D01*
X128287000Y-85164001D01*
X128287005Y-85164000D01*
X130047167Y-85164000D01*
X130155757Y-85332753D01*
X130365283Y-85475917D01*
X130614000Y-85526283D01*
X131514000Y-85526283D01*
X131746352Y-85482563D01*
X131959753Y-85345243D01*
X132102917Y-85135717D01*
X132153283Y-84887000D01*
X132153283Y-83687000D01*
X132109563Y-83454648D01*
X131972243Y-83241247D01*
X131762717Y-83098083D01*
X131514000Y-83047717D01*
X130614000Y-83047717D01*
X130381648Y-83091437D01*
X130168247Y-83228757D01*
X130044408Y-83410000D01*
X128714745Y-83410000D01*
X128385201Y-83273161D01*
X128016417Y-83272839D01*
X127675583Y-83413669D01*
X127414586Y-83674211D01*
X127273161Y-84014799D01*
X127272839Y-84383583D01*
X112236947Y-84383583D01*
X112162714Y-84332862D01*
X112033000Y-84306594D01*
X111233000Y-84306594D01*
X111111821Y-84329395D01*
X111000526Y-84401012D01*
X110925862Y-84510286D01*
X110899594Y-84640000D01*
X110899594Y-85540000D01*
X110922395Y-85661179D01*
X110994012Y-85772474D01*
X111041941Y-85805223D01*
X110683000Y-86164164D01*
X110324312Y-85805476D01*
X110365474Y-85778988D01*
X110440138Y-85669714D01*
X110466406Y-85540000D01*
X110466406Y-84640000D01*
X110443605Y-84518821D01*
X110371988Y-84407526D01*
X110262714Y-84332862D01*
X110133000Y-84306594D01*
X109333000Y-84306594D01*
X109211821Y-84329395D01*
X109100526Y-84401012D01*
X109025862Y-84510286D01*
X108999594Y-84640000D01*
X108999594Y-85540000D01*
X109022395Y-85661179D01*
X109094012Y-85772474D01*
X109203286Y-85847138D01*
X109333000Y-85873406D01*
X109365063Y-85873406D01*
X109373149Y-85914055D01*
X109457582Y-86040418D01*
X110141000Y-86723836D01*
X110141000Y-91286167D01*
X110170649Y-91435222D01*
X110255082Y-91561585D01*
X110610500Y-91917003D01*
X110610500Y-92279231D01*
X110306343Y-92404906D01*
X109961118Y-92749529D01*
X109774053Y-93200032D01*
X109773628Y-93687828D01*
X109959906Y-94138657D01*
X110304529Y-94483882D01*
X110755032Y-94670947D01*
X111242828Y-94671372D01*
X111693657Y-94485094D01*
X112038882Y-94140471D01*
X112165932Y-93834500D01*
X113797997Y-93834500D01*
X113991415Y-94027918D01*
X114117778Y-94112351D01*
X114266833Y-94142000D01*
X118375498Y-94142000D01*
X122261416Y-98027918D01*
X122306437Y-98058000D01*
X121024502Y-98058000D01*
X118738584Y-95772082D01*
X118612221Y-95687649D01*
X118463166Y-95658000D01*
X109898170Y-95658000D01*
X109342000Y-95101830D01*
X109342000Y-92452500D01*
X109312351Y-92303445D01*
X109301161Y-92286698D01*
X109301161Y-89451661D01*
X109271512Y-89302606D01*
X109271512Y-89302605D01*
X109187079Y-89176243D01*
X108289741Y-88278905D01*
X108415947Y-87974968D01*
X108416372Y-87487172D01*
X108230094Y-87036343D01*
X107885471Y-86691118D01*
X107434968Y-86504053D01*
X106947172Y-86503628D01*
X106496343Y-86689906D01*
X106151118Y-87034529D01*
X106024068Y-87340500D01*
X104682000Y-87340500D01*
X104682000Y-86691836D01*
X105365418Y-86008418D01*
X105449851Y-85882056D01*
X105457937Y-85841406D01*
X105490000Y-85841406D01*
X105611179Y-85818605D01*
X105722474Y-85746988D01*
X105797138Y-85637714D01*
X105823406Y-85508000D01*
X105823406Y-84608000D01*
X105800605Y-84486821D01*
X105728988Y-84375526D01*
X105619714Y-84300862D01*
X105490000Y-84274594D01*
X104690000Y-84274594D01*
X104568821Y-84297395D01*
X104457526Y-84369012D01*
X104382862Y-84478286D01*
X104356594Y-84608000D01*
X104356594Y-85508000D01*
X104379395Y-85629179D01*
X104451012Y-85740474D01*
X104498941Y-85773223D01*
X104140000Y-86132164D01*
X103781312Y-85773476D01*
X103822474Y-85746988D01*
X103897138Y-85637714D01*
X103923406Y-85508000D01*
X103923406Y-84608000D01*
X103900605Y-84486821D01*
X103828988Y-84375526D01*
X103719714Y-84300862D01*
X103590000Y-84274594D01*
X102790000Y-84274594D01*
X102668821Y-84297395D01*
X102557526Y-84369012D01*
X102482862Y-84478286D01*
X102456594Y-84608000D01*
X100402000Y-84608000D01*
X100402000Y-83343750D01*
X103105000Y-83343750D01*
X103105000Y-83634309D01*
X103201673Y-83867698D01*
X103380301Y-84046327D01*
X103613690Y-84143000D01*
X103854250Y-84143000D01*
X104013000Y-83984250D01*
X104013000Y-83185000D01*
X104267000Y-83185000D01*
X104267000Y-83984250D01*
X104425750Y-84143000D01*
X104666310Y-84143000D01*
X104899699Y-84046327D01*
X105078327Y-83867698D01*
X105175000Y-83634309D01*
X105175000Y-83375750D01*
X109648000Y-83375750D01*
X109648000Y-83666309D01*
X109744673Y-83899698D01*
X109923301Y-84078327D01*
X110156690Y-84175000D01*
X110397250Y-84175000D01*
X110556000Y-84016250D01*
X110556000Y-83217000D01*
X110810000Y-83217000D01*
X110810000Y-84016250D01*
X110968750Y-84175000D01*
X111209310Y-84175000D01*
X111442699Y-84078327D01*
X111621327Y-83899698D01*
X111718000Y-83666309D01*
X111718000Y-83375750D01*
X111559250Y-83217000D01*
X110810000Y-83217000D01*
X110556000Y-83217000D01*
X109806750Y-83217000D01*
X109648000Y-83375750D01*
X105175000Y-83375750D01*
X105175000Y-83343750D01*
X105016250Y-83185000D01*
X104267000Y-83185000D01*
X104013000Y-83185000D01*
X103263750Y-83185000D01*
X103105000Y-83343750D01*
X100402000Y-83343750D01*
X100402000Y-82481691D01*
X103105000Y-82481691D01*
X103105000Y-82772250D01*
X103263750Y-82931000D01*
X104013000Y-82931000D01*
X104013000Y-82131750D01*
X104267000Y-82131750D01*
X104267000Y-82931000D01*
X105016250Y-82931000D01*
X105175000Y-82772250D01*
X105175000Y-82513691D01*
X109648000Y-82513691D01*
X109648000Y-82804250D01*
X109806750Y-82963000D01*
X110556000Y-82963000D01*
X110556000Y-82163750D01*
X110810000Y-82163750D01*
X110810000Y-82963000D01*
X111559250Y-82963000D01*
X111629422Y-82892828D01*
X116123628Y-82892828D01*
X116309906Y-83343657D01*
X116654529Y-83688882D01*
X117105032Y-83875947D01*
X117592828Y-83876372D01*
X118043657Y-83690094D01*
X118388882Y-83345471D01*
X118524522Y-83018814D01*
X118559529Y-83053882D01*
X119010032Y-83240947D01*
X119497828Y-83241372D01*
X119948657Y-83055094D01*
X120293882Y-82710471D01*
X120429522Y-82383814D01*
X120464529Y-82418882D01*
X120915032Y-82605947D01*
X121402828Y-82606372D01*
X121853657Y-82420094D01*
X122090581Y-82183583D01*
X127272839Y-82183583D01*
X127413669Y-82524417D01*
X127674211Y-82785414D01*
X128014799Y-82926839D01*
X128383583Y-82927161D01*
X128504982Y-82877000D01*
X129074077Y-82877000D01*
X129201283Y-82963917D01*
X129450000Y-83014283D01*
X130650000Y-83014283D01*
X130882352Y-82970563D01*
X130982862Y-82905887D01*
X130990302Y-82913327D01*
X131223691Y-83010000D01*
X131664250Y-83010000D01*
X131823000Y-82851250D01*
X131823000Y-82127000D01*
X132077000Y-82127000D01*
X132077000Y-82851250D01*
X132235750Y-83010000D01*
X132676309Y-83010000D01*
X132909698Y-82913327D01*
X133088327Y-82734699D01*
X133185000Y-82501310D01*
X133185000Y-82285750D01*
X133026250Y-82127000D01*
X132077000Y-82127000D01*
X131823000Y-82127000D01*
X131803000Y-82127000D01*
X131803000Y-81873000D01*
X131823000Y-81873000D01*
X131823000Y-81148750D01*
X132077000Y-81148750D01*
X132077000Y-81873000D01*
X133026250Y-81873000D01*
X133185000Y-81714250D01*
X133185000Y-81498690D01*
X133088327Y-81265301D01*
X132909698Y-81086673D01*
X132676309Y-80990000D01*
X132235750Y-80990000D01*
X132077000Y-81148750D01*
X131823000Y-81148750D01*
X131664250Y-80990000D01*
X131223691Y-80990000D01*
X130990302Y-81086673D01*
X130983180Y-81093795D01*
X130898717Y-81036083D01*
X130650000Y-80985717D01*
X129450000Y-80985717D01*
X129217648Y-81029437D01*
X129072247Y-81123000D01*
X128505226Y-81123000D01*
X128385201Y-81073161D01*
X128016417Y-81072839D01*
X127675583Y-81213669D01*
X127414586Y-81474211D01*
X127273161Y-81814799D01*
X127272839Y-82183583D01*
X122090581Y-82183583D01*
X122198882Y-82075471D01*
X122385947Y-81624968D01*
X122386372Y-81137172D01*
X122200094Y-80686343D01*
X121855471Y-80341118D01*
X121404968Y-80154053D01*
X120917172Y-80153628D01*
X120466343Y-80339906D01*
X120121118Y-80684529D01*
X119985478Y-81011186D01*
X119950471Y-80976118D01*
X119499968Y-80789053D01*
X119012172Y-80788628D01*
X118561343Y-80974906D01*
X118216118Y-81319529D01*
X118080478Y-81646186D01*
X118045471Y-81611118D01*
X117594968Y-81424053D01*
X117107172Y-81423628D01*
X116656343Y-81609906D01*
X116311118Y-81954529D01*
X116124053Y-82405032D01*
X116123628Y-82892828D01*
X111629422Y-82892828D01*
X111718000Y-82804250D01*
X111718000Y-82513691D01*
X111621327Y-82280302D01*
X111442699Y-82101673D01*
X111209310Y-82005000D01*
X110968750Y-82005000D01*
X110810000Y-82163750D01*
X110556000Y-82163750D01*
X110397250Y-82005000D01*
X110156690Y-82005000D01*
X109923301Y-82101673D01*
X109744673Y-82280302D01*
X109648000Y-82513691D01*
X105175000Y-82513691D01*
X105175000Y-82481691D01*
X105078327Y-82248302D01*
X104899699Y-82069673D01*
X104666310Y-81973000D01*
X104425750Y-81973000D01*
X104267000Y-82131750D01*
X104013000Y-82131750D01*
X103854250Y-81973000D01*
X103613690Y-81973000D01*
X103380301Y-82069673D01*
X103201673Y-82248302D01*
X103105000Y-82481691D01*
X100402000Y-82481691D01*
X100402000Y-78783583D01*
X128472839Y-78783583D01*
X128613669Y-79124417D01*
X128874211Y-79385414D01*
X129214799Y-79526839D01*
X129583583Y-79527161D01*
X129593653Y-79523000D01*
X130783614Y-79523000D01*
X130803437Y-79628352D01*
X130940757Y-79841753D01*
X131150283Y-79984917D01*
X131399000Y-80035283D01*
X131999000Y-80035283D01*
X132231352Y-79991563D01*
X132315992Y-79937099D01*
X132542690Y-80031000D01*
X132683250Y-80031000D01*
X132842000Y-79872250D01*
X132842000Y-78773000D01*
X132822000Y-78773000D01*
X132822000Y-78519000D01*
X132842000Y-78519000D01*
X132842000Y-77419750D01*
X132683250Y-77261000D01*
X132542690Y-77261000D01*
X132317056Y-77354461D01*
X132247717Y-77307083D01*
X131999000Y-77256717D01*
X131399000Y-77256717D01*
X131166648Y-77300437D01*
X130953247Y-77437757D01*
X130810083Y-77647283D01*
X130785435Y-77769000D01*
X129816006Y-77769000D01*
X129585201Y-77673161D01*
X129216417Y-77672839D01*
X128875583Y-77813669D01*
X128614586Y-78074211D01*
X128473161Y-78414799D01*
X128472839Y-78783583D01*
X100402000Y-78783583D01*
X100402000Y-70170000D01*
X103441594Y-70170000D01*
X103441594Y-71230000D01*
X103464395Y-71351179D01*
X103536012Y-71462474D01*
X103645286Y-71537138D01*
X103673000Y-71542750D01*
X103673000Y-71674995D01*
X103672999Y-71675000D01*
X103705503Y-71838406D01*
X103798065Y-71976935D01*
X104298063Y-72476932D01*
X104298065Y-72476935D01*
X104436594Y-72569497D01*
X104600000Y-72602001D01*
X104600005Y-72602000D01*
X105524995Y-72602000D01*
X105525000Y-72602001D01*
X105688406Y-72569497D01*
X105826935Y-72476935D01*
X106301932Y-72001937D01*
X106301935Y-72001935D01*
X106394497Y-71863406D01*
X106427000Y-71700000D01*
X106427000Y-71544214D01*
X106446179Y-71540605D01*
X106557474Y-71468988D01*
X106632138Y-71359714D01*
X106658406Y-71230000D01*
X106658406Y-71166000D01*
X108079013Y-71166000D01*
X108089395Y-71221179D01*
X108161012Y-71332474D01*
X108270286Y-71407138D01*
X108400000Y-71433406D01*
X109174000Y-71433406D01*
X109174000Y-71791594D01*
X108950000Y-71791594D01*
X108828821Y-71814395D01*
X108717526Y-71886012D01*
X108642862Y-71995286D01*
X108616594Y-72125000D01*
X108616594Y-72875000D01*
X108639395Y-72996179D01*
X108711012Y-73107474D01*
X108820286Y-73182138D01*
X108950000Y-73208406D01*
X109174000Y-73208406D01*
X109174000Y-73541594D01*
X108500000Y-73541594D01*
X108378821Y-73564395D01*
X108267526Y-73636012D01*
X108192862Y-73745286D01*
X108166594Y-73875000D01*
X108166594Y-75125000D01*
X108189395Y-75246179D01*
X108261012Y-75357474D01*
X108370286Y-75432138D01*
X108500000Y-75458406D01*
X108793000Y-75458406D01*
X108793000Y-76066594D01*
X108400000Y-76066594D01*
X108278821Y-76089395D01*
X108167526Y-76161012D01*
X108092862Y-76270286D01*
X108066594Y-76400000D01*
X108066594Y-77600000D01*
X108089395Y-77721179D01*
X108161012Y-77832474D01*
X108270286Y-77907138D01*
X108400000Y-77933406D01*
X109300000Y-77933406D01*
X109421179Y-77910605D01*
X109532474Y-77838988D01*
X109607138Y-77729714D01*
X109633406Y-77600000D01*
X109633406Y-76649343D01*
X109647000Y-76581000D01*
X109647000Y-76400000D01*
X111366594Y-76400000D01*
X111366594Y-77600000D01*
X111389395Y-77721179D01*
X111461012Y-77832474D01*
X111570286Y-77907138D01*
X111700000Y-77933406D01*
X112600000Y-77933406D01*
X112721179Y-77910605D01*
X112832474Y-77838988D01*
X112907138Y-77729714D01*
X112933406Y-77600000D01*
X112933406Y-76773464D01*
X113830890Y-75875979D01*
X113839395Y-75921179D01*
X113911012Y-76032474D01*
X114020286Y-76107138D01*
X114150000Y-76133406D01*
X115850000Y-76133406D01*
X115971179Y-76110605D01*
X116082474Y-76038988D01*
X116157138Y-75929714D01*
X116183406Y-75800000D01*
X116183406Y-74349218D01*
X116209698Y-74338327D01*
X116388327Y-74159699D01*
X116485000Y-73926310D01*
X116485000Y-73285750D01*
X116326250Y-73127000D01*
X115127000Y-73127000D01*
X115127000Y-73147000D01*
X114873000Y-73147000D01*
X114873000Y-73127000D01*
X113673750Y-73127000D01*
X113515000Y-73285750D01*
X113515000Y-73926310D01*
X113611673Y-74159699D01*
X113790302Y-74338327D01*
X113816594Y-74349218D01*
X113816594Y-74706603D01*
X113744065Y-74755065D01*
X113744063Y-74755068D01*
X113055224Y-75443907D01*
X113135000Y-75251310D01*
X113135000Y-74785750D01*
X112976250Y-74627000D01*
X111877000Y-74627000D01*
X111877000Y-75601250D01*
X112035750Y-75760000D01*
X112626309Y-75760000D01*
X112818908Y-75680223D01*
X112432536Y-76066594D01*
X111700000Y-76066594D01*
X111578821Y-76089395D01*
X111467526Y-76161012D01*
X111392862Y-76270286D01*
X111366594Y-76400000D01*
X109647000Y-76400000D01*
X109647000Y-75458406D01*
X110000000Y-75458406D01*
X110121179Y-75435605D01*
X110232474Y-75363988D01*
X110307138Y-75254714D01*
X110333406Y-75125000D01*
X110333406Y-74785750D01*
X110365000Y-74785750D01*
X110365000Y-75251310D01*
X110461673Y-75484699D01*
X110640302Y-75663327D01*
X110873691Y-75760000D01*
X111464250Y-75760000D01*
X111623000Y-75601250D01*
X111623000Y-74627000D01*
X110523750Y-74627000D01*
X110365000Y-74785750D01*
X110333406Y-74785750D01*
X110333406Y-73875000D01*
X110310605Y-73753821D01*
X110238988Y-73642526D01*
X110129714Y-73567862D01*
X110028000Y-73547264D01*
X110028000Y-73208406D01*
X110150000Y-73208406D01*
X110271179Y-73185605D01*
X110287095Y-73175363D01*
X110311673Y-73234699D01*
X110490302Y-73413327D01*
X110542165Y-73434809D01*
X110461673Y-73515301D01*
X110365000Y-73748690D01*
X110365000Y-74214250D01*
X110523750Y-74373000D01*
X111623000Y-74373000D01*
X111623000Y-74353000D01*
X111877000Y-74353000D01*
X111877000Y-74373000D01*
X112976250Y-74373000D01*
X113135000Y-74214250D01*
X113135000Y-73748690D01*
X113038327Y-73515301D01*
X112859698Y-73336673D01*
X112626309Y-73240000D01*
X112583026Y-73240000D01*
X112588327Y-73234699D01*
X112685000Y-73001310D01*
X112685000Y-72785750D01*
X112526250Y-72627000D01*
X111577000Y-72627000D01*
X111577000Y-72647000D01*
X111323000Y-72647000D01*
X111323000Y-72627000D01*
X111303000Y-72627000D01*
X111303000Y-72373000D01*
X111323000Y-72373000D01*
X111323000Y-71648750D01*
X111577000Y-71648750D01*
X111577000Y-72373000D01*
X112526250Y-72373000D01*
X112685000Y-72214250D01*
X112685000Y-71998690D01*
X112588327Y-71765301D01*
X112409698Y-71586673D01*
X112176309Y-71490000D01*
X111735750Y-71490000D01*
X111577000Y-71648750D01*
X111323000Y-71648750D01*
X111164250Y-71490000D01*
X110723691Y-71490000D01*
X110490302Y-71586673D01*
X110311673Y-71765301D01*
X110287654Y-71823287D01*
X110279714Y-71817862D01*
X110150000Y-71791594D01*
X110028000Y-71791594D01*
X110028000Y-71247005D01*
X110028001Y-71247000D01*
X109995497Y-71083594D01*
X109973785Y-71051100D01*
X109902935Y-70945065D01*
X109902932Y-70945063D01*
X109633406Y-70675537D01*
X109633406Y-69900000D01*
X111366594Y-69900000D01*
X111366594Y-71100000D01*
X111389395Y-71221179D01*
X111461012Y-71332474D01*
X111570286Y-71407138D01*
X111700000Y-71433406D01*
X112600000Y-71433406D01*
X112721179Y-71410605D01*
X112832474Y-71338988D01*
X112868850Y-71285750D01*
X113515000Y-71285750D01*
X113515000Y-71926310D01*
X113545523Y-72000000D01*
X113515000Y-72073690D01*
X113515000Y-72714250D01*
X113673750Y-72873000D01*
X114873000Y-72873000D01*
X114873000Y-71127000D01*
X115127000Y-71127000D01*
X115127000Y-72873000D01*
X116326250Y-72873000D01*
X116485000Y-72714250D01*
X116485000Y-72073690D01*
X116454477Y-72000000D01*
X116485000Y-71926310D01*
X116485000Y-71285750D01*
X116326250Y-71127000D01*
X115127000Y-71127000D01*
X114873000Y-71127000D01*
X113673750Y-71127000D01*
X113515000Y-71285750D01*
X112868850Y-71285750D01*
X112907138Y-71229714D01*
X112933406Y-71100000D01*
X112933406Y-69900000D01*
X112910605Y-69778821D01*
X112838988Y-69667526D01*
X112729714Y-69592862D01*
X112600000Y-69566594D01*
X112577000Y-69566594D01*
X112577000Y-69427000D01*
X113766594Y-69427000D01*
X113766594Y-69685381D01*
X113611673Y-69840301D01*
X113515000Y-70073690D01*
X113515000Y-70714250D01*
X113673750Y-70873000D01*
X114873000Y-70873000D01*
X114873000Y-70853000D01*
X115127000Y-70853000D01*
X115127000Y-70873000D01*
X116326250Y-70873000D01*
X116485000Y-70714250D01*
X116485000Y-70073690D01*
X116388327Y-69840301D01*
X116209698Y-69661673D01*
X116133406Y-69630072D01*
X116133406Y-68200000D01*
X116110605Y-68078821D01*
X116038988Y-67967526D01*
X115929714Y-67892862D01*
X115800000Y-67866594D01*
X114100000Y-67866594D01*
X113978821Y-67889395D01*
X113867526Y-67961012D01*
X113792862Y-68070286D01*
X113766594Y-68200000D01*
X113766594Y-68573000D01*
X112400000Y-68573000D01*
X112236594Y-68605503D01*
X112098065Y-68698065D01*
X112098063Y-68698068D01*
X111848065Y-68948065D01*
X111755503Y-69086594D01*
X111722999Y-69250000D01*
X111723000Y-69250005D01*
X111723000Y-69566594D01*
X111700000Y-69566594D01*
X111578821Y-69589395D01*
X111467526Y-69661012D01*
X111392862Y-69770286D01*
X111366594Y-69900000D01*
X109633406Y-69900000D01*
X109610605Y-69778821D01*
X109538988Y-69667526D01*
X109429714Y-69592862D01*
X109300000Y-69566594D01*
X108400000Y-69566594D01*
X108278821Y-69589395D01*
X108167526Y-69661012D01*
X108092862Y-69770286D01*
X108066594Y-69900000D01*
X108066594Y-70312000D01*
X106658406Y-70312000D01*
X106658406Y-70170000D01*
X106635605Y-70048821D01*
X106563988Y-69937526D01*
X106454714Y-69862862D01*
X106325000Y-69836594D01*
X105924218Y-69836594D01*
X105913327Y-69810302D01*
X105772309Y-69669283D01*
X106325000Y-69669283D01*
X106557352Y-69625563D01*
X106770753Y-69488243D01*
X106846763Y-69377000D01*
X107500000Y-69377000D01*
X107835613Y-69310242D01*
X108120133Y-69120133D01*
X108404305Y-68835960D01*
X108524417Y-68786331D01*
X108785414Y-68525789D01*
X108926839Y-68185201D01*
X108927161Y-67816417D01*
X108786331Y-67475583D01*
X108525789Y-67214586D01*
X108185201Y-67073161D01*
X107816417Y-67072839D01*
X107475583Y-67213669D01*
X107214586Y-67474211D01*
X107164213Y-67595521D01*
X107136735Y-67623000D01*
X106846789Y-67623000D01*
X106783243Y-67524247D01*
X106573717Y-67381083D01*
X106325000Y-67330717D01*
X105675000Y-67330717D01*
X105442648Y-67374437D01*
X105229247Y-67511757D01*
X105086083Y-67721283D01*
X105035717Y-67970000D01*
X105035717Y-69030000D01*
X105079437Y-69262352D01*
X105216757Y-69475753D01*
X105322646Y-69548104D01*
X105177000Y-69693750D01*
X105177000Y-70573000D01*
X105197000Y-70573000D01*
X105197000Y-70827000D01*
X105177000Y-70827000D01*
X105177000Y-70847000D01*
X104923000Y-70847000D01*
X104923000Y-70827000D01*
X104903000Y-70827000D01*
X104903000Y-70573000D01*
X104923000Y-70573000D01*
X104923000Y-69693750D01*
X104764250Y-69535000D01*
X104598690Y-69535000D01*
X104365301Y-69631673D01*
X104186673Y-69810302D01*
X104175782Y-69836594D01*
X103775000Y-69836594D01*
X103653821Y-69859395D01*
X103542526Y-69931012D01*
X103467862Y-70040286D01*
X103441594Y-70170000D01*
X100402000Y-70170000D01*
X100402000Y-67970000D01*
X103441594Y-67970000D01*
X103441594Y-69030000D01*
X103464395Y-69151179D01*
X103536012Y-69262474D01*
X103645286Y-69337138D01*
X103775000Y-69363406D01*
X104425000Y-69363406D01*
X104546179Y-69340605D01*
X104657474Y-69268988D01*
X104732138Y-69159714D01*
X104758406Y-69030000D01*
X104758406Y-67970000D01*
X104735605Y-67848821D01*
X104663988Y-67737526D01*
X104554714Y-67662862D01*
X104425000Y-67636594D01*
X103775000Y-67636594D01*
X103653821Y-67659395D01*
X103542526Y-67731012D01*
X103467862Y-67840286D01*
X103441594Y-67970000D01*
X100402000Y-67970000D01*
X100402000Y-64039595D01*
X100473277Y-63681261D01*
X100472389Y-64698486D01*
X101008211Y-65995275D01*
X101999506Y-66988302D01*
X103295358Y-67526386D01*
X104698486Y-67527611D01*
X105995275Y-66991789D01*
X106988302Y-66000494D01*
X107526386Y-64704642D01*
X107527611Y-63301514D01*
X106991789Y-62004725D01*
X106000494Y-61011698D01*
X104704642Y-60473614D01*
X103684047Y-60472723D01*
X104039595Y-60402000D01*
X118673000Y-60402000D01*
X118673000Y-75500000D01*
X118673000Y-75500000D01*
G37*
X118673000Y-75500000D02*
X118695363Y-75618851D01*
X118765604Y-75728008D01*
X118872779Y-75801237D01*
X119000000Y-75827000D01*
X122821674Y-75827000D01*
X122839395Y-75921179D01*
X122911012Y-76032474D01*
X123020286Y-76107138D01*
X123150000Y-76133406D01*
X124850000Y-76133406D01*
X124971179Y-76110605D01*
X125082474Y-76038988D01*
X125157138Y-75929714D01*
X125177938Y-75827000D01*
X156598000Y-75827000D01*
X156598000Y-96960405D01*
X156526723Y-97318739D01*
X156527611Y-96301514D01*
X155991789Y-95004725D01*
X155000494Y-94011698D01*
X153704642Y-93473614D01*
X152301514Y-93472389D01*
X151004725Y-94008211D01*
X150011698Y-94999506D01*
X149473614Y-96295358D01*
X149472389Y-97698486D01*
X150008211Y-98995275D01*
X150999506Y-99988302D01*
X152295358Y-100526386D01*
X153315953Y-100527277D01*
X152960405Y-100598000D01*
X104039595Y-100598000D01*
X103681261Y-100526723D01*
X104698486Y-100527611D01*
X105995275Y-99991789D01*
X106988302Y-99000494D01*
X107526386Y-97704642D01*
X107527611Y-96301514D01*
X106991789Y-95004725D01*
X106000494Y-94011698D01*
X104704642Y-93473614D01*
X103301514Y-93472389D01*
X102004725Y-94008211D01*
X101011698Y-94999506D01*
X100473614Y-96295358D01*
X100472723Y-97315953D01*
X100402000Y-96960405D01*
X100402000Y-84608000D01*
X102456594Y-84608000D01*
X102456594Y-85508000D01*
X102479395Y-85629179D01*
X102551012Y-85740474D01*
X102660286Y-85815138D01*
X102790000Y-85841406D01*
X102822063Y-85841406D01*
X102830149Y-85882055D01*
X102914582Y-86008418D01*
X103598000Y-86691836D01*
X103598000Y-87702500D01*
X103627649Y-87851555D01*
X103712082Y-87977918D01*
X106725259Y-90991095D01*
X106599053Y-91295032D01*
X106598628Y-91782828D01*
X106784906Y-92233657D01*
X107129529Y-92578882D01*
X107580032Y-92765947D01*
X108067828Y-92766372D01*
X108258000Y-92687795D01*
X108258000Y-95425036D01*
X108287649Y-95574091D01*
X108372082Y-95700454D01*
X109299546Y-96627918D01*
X109425909Y-96712351D01*
X109574964Y-96742000D01*
X118175498Y-96742000D01*
X119367436Y-97933938D01*
X119012172Y-97933628D01*
X118561343Y-98119906D01*
X118216118Y-98464529D01*
X118029053Y-98915032D01*
X118028628Y-99402828D01*
X118214906Y-99853657D01*
X118559529Y-100198882D01*
X119010032Y-100385947D01*
X119497828Y-100386372D01*
X119948657Y-100200094D01*
X120293882Y-99855471D01*
X120480947Y-99404968D01*
X120481264Y-99041180D01*
X120587779Y-99112351D01*
X120736834Y-99142000D01*
X129463166Y-99142000D01*
X129612221Y-99112351D01*
X129738584Y-99027918D01*
X130227918Y-98538584D01*
X130312351Y-98412221D01*
X130342000Y-98263166D01*
X130342000Y-95309159D01*
X130384724Y-95326900D01*
X130473108Y-95326977D01*
X130586063Y-95439932D01*
X130586065Y-95439935D01*
X130724594Y-95532497D01*
X130827621Y-95552991D01*
X130825594Y-95563000D01*
X130825594Y-95682464D01*
X130713247Y-95754757D01*
X130570083Y-95964283D01*
X130519717Y-96213000D01*
X130519717Y-96663000D01*
X130563437Y-96895352D01*
X130700757Y-97108753D01*
X130910283Y-97251917D01*
X131132000Y-97296815D01*
X131132000Y-97673099D01*
X131073161Y-97814799D01*
X131072839Y-98183583D01*
X131213669Y-98524417D01*
X131474211Y-98785414D01*
X131814799Y-98926839D01*
X132183583Y-98927161D01*
X132524417Y-98786331D01*
X132785414Y-98525789D01*
X132926839Y-98185201D01*
X132927161Y-97816417D01*
X132786331Y-97475583D01*
X132636000Y-97324989D01*
X132636000Y-97297203D01*
X132841352Y-97258563D01*
X133054753Y-97121243D01*
X133197917Y-96911717D01*
X133248283Y-96663000D01*
X133248283Y-96213000D01*
X133204563Y-95980648D01*
X133067243Y-95767247D01*
X132942406Y-95681949D01*
X132942406Y-95563000D01*
X132922899Y-95459327D01*
X132942406Y-95363000D01*
X132942406Y-95161477D01*
X133010558Y-95326417D01*
X133172729Y-95488871D01*
X133384724Y-95576900D01*
X133614269Y-95577100D01*
X133826417Y-95489442D01*
X133988871Y-95327271D01*
X134076900Y-95115276D01*
X134077100Y-94885731D01*
X133989442Y-94673583D01*
X133827271Y-94511129D01*
X133615276Y-94423100D01*
X133526893Y-94423023D01*
X133289935Y-94186065D01*
X133214064Y-94135370D01*
X133246918Y-94113418D01*
X133305336Y-94055000D01*
X135538498Y-94055000D01*
X137411416Y-95927918D01*
X137537778Y-96012351D01*
X137686834Y-96042000D01*
X144650004Y-96042000D01*
X144305869Y-96184194D01*
X143960407Y-96529053D01*
X143773214Y-96979864D01*
X143772788Y-97467995D01*
X143959194Y-97919131D01*
X144304053Y-98264593D01*
X144754864Y-98451786D01*
X145242995Y-98452212D01*
X145694131Y-98265806D01*
X146039593Y-97920947D01*
X146226786Y-97470136D01*
X146227212Y-96982005D01*
X146040806Y-96530869D01*
X145695947Y-96185407D01*
X145350584Y-96042000D01*
X146563166Y-96042000D01*
X146712221Y-96012351D01*
X146838584Y-95927918D01*
X148450418Y-94316084D01*
X148534851Y-94189721D01*
X148564500Y-94040666D01*
X148564500Y-93031279D01*
X149038846Y-92835283D01*
X149468773Y-92406106D01*
X149701735Y-91845072D01*
X149702265Y-91237593D01*
X149505193Y-90760643D01*
X151049918Y-89215918D01*
X151134351Y-89089555D01*
X151164000Y-88940500D01*
X151164000Y-85026834D01*
X151134351Y-84877779D01*
X151049918Y-84751416D01*
X147354000Y-81055498D01*
X147354000Y-80414836D01*
X147722418Y-80046418D01*
X147806851Y-79920055D01*
X147836500Y-79771000D01*
X147836500Y-79712566D01*
X147868179Y-79706605D01*
X147979474Y-79634988D01*
X148054138Y-79525714D01*
X148080406Y-79396000D01*
X148080406Y-77896000D01*
X148057605Y-77774821D01*
X147985988Y-77663526D01*
X147876714Y-77588862D01*
X147747000Y-77562594D01*
X147364430Y-77562594D01*
X147354000Y-77552164D01*
X147354000Y-77377000D01*
X148810000Y-77377000D01*
X148810000Y-77552164D01*
X148799570Y-77562594D01*
X148417000Y-77562594D01*
X148295821Y-77585395D01*
X148184526Y-77657012D01*
X148109862Y-77766286D01*
X148083594Y-77896000D01*
X148083594Y-79396000D01*
X148106395Y-79517179D01*
X148178012Y-79628474D01*
X148287286Y-79703138D01*
X148417000Y-79729406D01*
X149017000Y-79729406D01*
X149138179Y-79706605D01*
X149249474Y-79634988D01*
X149324138Y-79525714D01*
X149350406Y-79396000D01*
X149350406Y-78113430D01*
X149352000Y-78111836D01*
X149353594Y-78113430D01*
X149353594Y-79396000D01*
X149376395Y-79517179D01*
X149448012Y-79628474D01*
X149557286Y-79703138D01*
X149687000Y-79729406D01*
X150287000Y-79729406D01*
X150399050Y-79708323D01*
X150418673Y-79755698D01*
X150597301Y-79934327D01*
X150830690Y-80031000D01*
X150971250Y-80031000D01*
X151130000Y-79872250D01*
X151130000Y-78773000D01*
X151384000Y-78773000D01*
X151384000Y-79872250D01*
X151542750Y-80031000D01*
X151683310Y-80031000D01*
X151892000Y-79944558D01*
X152100690Y-80031000D01*
X152241250Y-80031000D01*
X152400000Y-79872250D01*
X152400000Y-78773000D01*
X152654000Y-78773000D01*
X152654000Y-79872250D01*
X152812750Y-80031000D01*
X152953310Y-80031000D01*
X153186699Y-79934327D01*
X153365327Y-79755698D01*
X153462000Y-79522309D01*
X153462000Y-78931750D01*
X153303250Y-78773000D01*
X152654000Y-78773000D01*
X152400000Y-78773000D01*
X151384000Y-78773000D01*
X151130000Y-78773000D01*
X151110000Y-78773000D01*
X151110000Y-78519000D01*
X151130000Y-78519000D01*
X151130000Y-77419750D01*
X151384000Y-77419750D01*
X151384000Y-78519000D01*
X152400000Y-78519000D01*
X152400000Y-77419750D01*
X152654000Y-77419750D01*
X152654000Y-78519000D01*
X153303250Y-78519000D01*
X153462000Y-78360250D01*
X153462000Y-77769691D01*
X153365327Y-77536302D01*
X153186699Y-77357673D01*
X152953310Y-77261000D01*
X152812750Y-77261000D01*
X152654000Y-77419750D01*
X152400000Y-77419750D01*
X152241250Y-77261000D01*
X152100690Y-77261000D01*
X151892000Y-77347442D01*
X151683310Y-77261000D01*
X151542750Y-77261000D01*
X151384000Y-77419750D01*
X151130000Y-77419750D01*
X150971250Y-77261000D01*
X150830690Y-77261000D01*
X150597301Y-77357673D01*
X150418673Y-77536302D01*
X150398435Y-77585160D01*
X150287000Y-77562594D01*
X149904430Y-77562594D01*
X149894000Y-77552164D01*
X149894000Y-77025834D01*
X149864351Y-76876779D01*
X149779918Y-76750416D01*
X149436584Y-76407082D01*
X149310221Y-76322649D01*
X149161166Y-76293000D01*
X146875834Y-76293000D01*
X146726778Y-76322649D01*
X146600416Y-76407082D01*
X146384082Y-76623416D01*
X146299649Y-76749779D01*
X146270000Y-76898834D01*
X146270000Y-77552164D01*
X146259570Y-77562594D01*
X145877000Y-77562594D01*
X145764950Y-77583677D01*
X145745327Y-77536302D01*
X145566699Y-77357673D01*
X145333310Y-77261000D01*
X145192750Y-77261000D01*
X145034000Y-77419750D01*
X145034000Y-78519000D01*
X145054000Y-78519000D01*
X145054000Y-78773000D01*
X145034000Y-78773000D01*
X145034000Y-79872250D01*
X145192750Y-80031000D01*
X145333310Y-80031000D01*
X145566699Y-79934327D01*
X145745327Y-79755698D01*
X145765565Y-79706840D01*
X145787500Y-79711282D01*
X145787500Y-79771000D01*
X145817149Y-79920055D01*
X145901582Y-80046418D01*
X146270000Y-80414836D01*
X146270000Y-81343166D01*
X146299649Y-81492221D01*
X146384082Y-81618584D01*
X150080000Y-85314502D01*
X150080000Y-87181956D01*
X149960532Y-87301424D01*
X149850806Y-87035869D01*
X149505947Y-86690407D01*
X149055136Y-86503214D01*
X148567005Y-86502788D01*
X148115869Y-86689194D01*
X147770407Y-87034053D01*
X147583214Y-87484864D01*
X147582788Y-87972995D01*
X147709501Y-88279663D01*
X146512081Y-89477083D01*
X146427648Y-89603446D01*
X146397999Y-89752501D01*
X146397999Y-92206001D01*
X146427648Y-92355056D01*
X146512081Y-92481419D01*
X146752667Y-92722005D01*
X146752667Y-94480831D01*
X146275498Y-94958000D01*
X137974502Y-94958000D01*
X136101584Y-93085082D01*
X135975221Y-93000649D01*
X135826166Y-92971000D01*
X133305336Y-92971000D01*
X133250240Y-92915904D01*
X133363935Y-92839935D01*
X133626846Y-92577024D01*
X133714269Y-92577100D01*
X133926417Y-92489442D01*
X134088871Y-92327271D01*
X134176900Y-92115276D01*
X134177100Y-91885731D01*
X134089442Y-91673583D01*
X133927271Y-91511129D01*
X133715276Y-91423100D01*
X133485731Y-91422900D01*
X133273583Y-91510558D01*
X133111129Y-91672729D01*
X133023100Y-91884724D01*
X133023023Y-91973107D01*
X132885130Y-92111000D01*
X132867598Y-92111000D01*
X132847988Y-92080526D01*
X132738714Y-92005862D01*
X132609000Y-91979594D01*
X131159000Y-91979594D01*
X131037821Y-92002395D01*
X130926526Y-92074012D01*
X130851862Y-92183286D01*
X130825594Y-92313000D01*
X130825594Y-92763000D01*
X130832274Y-92798500D01*
X130796500Y-92798500D01*
X130647445Y-92828149D01*
X130521082Y-92912582D01*
X130462664Y-92971000D01*
X130023834Y-92971000D01*
X129874779Y-93000649D01*
X129748416Y-93085082D01*
X129372082Y-93461416D01*
X129287649Y-93587779D01*
X129258000Y-93736834D01*
X129258000Y-97975498D01*
X129175498Y-98058000D01*
X127893563Y-98058000D01*
X127938584Y-98027918D01*
X128427918Y-97538584D01*
X128512351Y-97412221D01*
X128542000Y-97263166D01*
X128542000Y-95536834D01*
X128512351Y-95387779D01*
X128427918Y-95261416D01*
X128201584Y-95035082D01*
X128075221Y-94950649D01*
X127926166Y-94921000D01*
X127405336Y-94921000D01*
X127346918Y-94862582D01*
X127220555Y-94778149D01*
X127071500Y-94748500D01*
X127035217Y-94748500D01*
X127042406Y-94713000D01*
X127042406Y-94265000D01*
X127311995Y-94265000D01*
X127312000Y-94265001D01*
X127475406Y-94232497D01*
X127613935Y-94139935D01*
X128776846Y-92977024D01*
X128864269Y-92977100D01*
X129076417Y-92889442D01*
X129238871Y-92727271D01*
X129326900Y-92515276D01*
X129327100Y-92285731D01*
X129239442Y-92073583D01*
X129077271Y-91911129D01*
X128865276Y-91823100D01*
X128635731Y-91822900D01*
X128423583Y-91910558D01*
X128261129Y-92072729D01*
X128173100Y-92284724D01*
X128173023Y-92373107D01*
X127135130Y-93411000D01*
X127042406Y-93411000D01*
X127042406Y-93312218D01*
X127068698Y-93301327D01*
X127247327Y-93122699D01*
X127344000Y-92889310D01*
X127344000Y-92809250D01*
X127185250Y-92650500D01*
X126812236Y-92650500D01*
X126709000Y-92629594D01*
X125259000Y-92629594D01*
X125147892Y-92650500D01*
X124782750Y-92650500D01*
X124624000Y-92809250D01*
X124624000Y-92889310D01*
X124720673Y-93122699D01*
X124899302Y-93301327D01*
X124925594Y-93312218D01*
X124925594Y-93413000D01*
X124945101Y-93516673D01*
X124925594Y-93613000D01*
X124925594Y-94061000D01*
X124864869Y-94061000D01*
X124677024Y-93873154D01*
X124677100Y-93785731D01*
X124589442Y-93573583D01*
X124427271Y-93411129D01*
X124215276Y-93323100D01*
X123985731Y-93322900D01*
X123773583Y-93410558D01*
X123611129Y-93572729D01*
X123523100Y-93784724D01*
X123522900Y-94014269D01*
X123610558Y-94226417D01*
X123772729Y-94388871D01*
X123984724Y-94476900D01*
X124073107Y-94476977D01*
X124386063Y-94789932D01*
X124386065Y-94789935D01*
X124524594Y-94882497D01*
X124588463Y-94895201D01*
X124562664Y-94921000D01*
X123119502Y-94921000D01*
X122716000Y-94517498D01*
X122716000Y-92186690D01*
X124624000Y-92186690D01*
X124624000Y-92266750D01*
X124782750Y-92425500D01*
X125857000Y-92425500D01*
X125857000Y-91836750D01*
X126111000Y-91836750D01*
X126111000Y-92425500D01*
X127185250Y-92425500D01*
X127344000Y-92266750D01*
X127344000Y-92186690D01*
X127247327Y-91953301D01*
X127068698Y-91774673D01*
X126835309Y-91678000D01*
X126269750Y-91678000D01*
X126111000Y-91836750D01*
X125857000Y-91836750D01*
X125698250Y-91678000D01*
X125132691Y-91678000D01*
X124899302Y-91774673D01*
X124720673Y-91953301D01*
X124624000Y-92186690D01*
X122716000Y-92186690D01*
X122716000Y-92172502D01*
X123668502Y-91220000D01*
X134903498Y-91220000D01*
X137403916Y-93720418D01*
X137530278Y-93804851D01*
X137679334Y-93834500D01*
X143833323Y-93834500D01*
X143959194Y-94139131D01*
X144304053Y-94484593D01*
X144754864Y-94671786D01*
X145242995Y-94672212D01*
X145694131Y-94485806D01*
X146039593Y-94140947D01*
X146226786Y-93690136D01*
X146227212Y-93202005D01*
X146040806Y-92750869D01*
X145695947Y-92405407D01*
X145245136Y-92218214D01*
X144757005Y-92217788D01*
X144450337Y-92344501D01*
X143602001Y-91496165D01*
X143602001Y-90873999D01*
X143572352Y-90724944D01*
X143487919Y-90598581D01*
X143001999Y-90112661D01*
X143001999Y-86770833D01*
X142972350Y-86621778D01*
X142887917Y-86495415D01*
X141308584Y-84916082D01*
X141182221Y-84831649D01*
X141033166Y-84802000D01*
X137130502Y-84802000D01*
X135416000Y-83087498D01*
X135416000Y-82183583D01*
X139272839Y-82183583D01*
X139413669Y-82524417D01*
X139674211Y-82785414D01*
X140014799Y-82926839D01*
X140383583Y-82927161D01*
X140403334Y-82919000D01*
X141584077Y-82919000D01*
X141711283Y-83005917D01*
X141960000Y-83056283D01*
X143160000Y-83056283D01*
X143392352Y-83012563D01*
X143492862Y-82947887D01*
X143500302Y-82955327D01*
X143733691Y-83052000D01*
X144174250Y-83052000D01*
X144333000Y-82893250D01*
X144333000Y-82169000D01*
X144587000Y-82169000D01*
X144587000Y-82893250D01*
X144745750Y-83052000D01*
X145186309Y-83052000D01*
X145419698Y-82955327D01*
X145598327Y-82776699D01*
X145695000Y-82543310D01*
X145695000Y-82327750D01*
X145536250Y-82169000D01*
X144587000Y-82169000D01*
X144333000Y-82169000D01*
X144313000Y-82169000D01*
X144313000Y-81915000D01*
X144333000Y-81915000D01*
X144333000Y-81190750D01*
X144587000Y-81190750D01*
X144587000Y-81915000D01*
X145536250Y-81915000D01*
X145695000Y-81756250D01*
X145695000Y-81540690D01*
X145598327Y-81307301D01*
X145419698Y-81128673D01*
X145186309Y-81032000D01*
X144745750Y-81032000D01*
X144587000Y-81190750D01*
X144333000Y-81190750D01*
X144326675Y-81184425D01*
X144385414Y-81125789D01*
X144526839Y-80785201D01*
X144527161Y-80416417D01*
X144514000Y-80384565D01*
X144514000Y-80031000D01*
X144621250Y-80031000D01*
X144780000Y-79872250D01*
X144780000Y-78773000D01*
X144760000Y-78773000D01*
X144760000Y-78519000D01*
X144780000Y-78519000D01*
X144780000Y-77419750D01*
X144621250Y-77261000D01*
X144480690Y-77261000D01*
X144255056Y-77354461D01*
X144185717Y-77307083D01*
X143937000Y-77256717D01*
X143337000Y-77256717D01*
X143104648Y-77300437D01*
X142891247Y-77437757D01*
X142748083Y-77647283D01*
X142697717Y-77896000D01*
X142697717Y-79396000D01*
X142741437Y-79628352D01*
X142760000Y-79657200D01*
X142760000Y-80205668D01*
X142673161Y-80414799D01*
X142672839Y-80783583D01*
X142773713Y-81027717D01*
X141960000Y-81027717D01*
X141727648Y-81071437D01*
X141582247Y-81165000D01*
X140606373Y-81165000D01*
X140385201Y-81073161D01*
X140016417Y-81072839D01*
X139675583Y-81213669D01*
X139414586Y-81474211D01*
X139273161Y-81814799D01*
X139272839Y-82183583D01*
X135416000Y-82183583D01*
X135416000Y-80414836D01*
X135784418Y-80046418D01*
X135868851Y-79920055D01*
X135898500Y-79771000D01*
X135898500Y-79712566D01*
X135930179Y-79706605D01*
X136041474Y-79634988D01*
X136116138Y-79525714D01*
X136142406Y-79396000D01*
X136142406Y-77896000D01*
X136119605Y-77774821D01*
X136047988Y-77663526D01*
X135938714Y-77588862D01*
X135809000Y-77562594D01*
X135426430Y-77562594D01*
X135416000Y-77552164D01*
X135416000Y-77123000D01*
X136744664Y-77123000D01*
X136872000Y-77250336D01*
X136872000Y-77552164D01*
X136861570Y-77562594D01*
X136479000Y-77562594D01*
X136357821Y-77585395D01*
X136246526Y-77657012D01*
X136171862Y-77766286D01*
X136145594Y-77896000D01*
X136145594Y-79396000D01*
X136168395Y-79517179D01*
X136240012Y-79628474D01*
X136349286Y-79703138D01*
X136479000Y-79729406D01*
X137079000Y-79729406D01*
X137200179Y-79706605D01*
X137311474Y-79634988D01*
X137386138Y-79525714D01*
X137412406Y-79396000D01*
X137412406Y-78113430D01*
X137414000Y-78111836D01*
X137415594Y-78113430D01*
X137415594Y-79396000D01*
X137438395Y-79517179D01*
X137510012Y-79628474D01*
X137619286Y-79703138D01*
X137749000Y-79729406D01*
X138349000Y-79729406D01*
X138461050Y-79708323D01*
X138480673Y-79755698D01*
X138659301Y-79934327D01*
X138892690Y-80031000D01*
X139033250Y-80031000D01*
X139192000Y-79872250D01*
X139192000Y-78773000D01*
X139446000Y-78773000D01*
X139446000Y-79872250D01*
X139604750Y-80031000D01*
X139745310Y-80031000D01*
X139954000Y-79944558D01*
X140162690Y-80031000D01*
X140303250Y-80031000D01*
X140462000Y-79872250D01*
X140462000Y-78773000D01*
X140716000Y-78773000D01*
X140716000Y-79872250D01*
X140874750Y-80031000D01*
X141015310Y-80031000D01*
X141248699Y-79934327D01*
X141427327Y-79755698D01*
X141524000Y-79522309D01*
X141524000Y-78931750D01*
X141365250Y-78773000D01*
X140716000Y-78773000D01*
X140462000Y-78773000D01*
X139446000Y-78773000D01*
X139192000Y-78773000D01*
X139172000Y-78773000D01*
X139172000Y-78519000D01*
X139192000Y-78519000D01*
X139192000Y-77419750D01*
X139446000Y-77419750D01*
X139446000Y-78519000D01*
X140462000Y-78519000D01*
X140462000Y-77419750D01*
X140716000Y-77419750D01*
X140716000Y-78519000D01*
X141365250Y-78519000D01*
X141524000Y-78360250D01*
X141524000Y-77769691D01*
X141427327Y-77536302D01*
X141248699Y-77357673D01*
X141015310Y-77261000D01*
X140874750Y-77261000D01*
X140716000Y-77419750D01*
X140462000Y-77419750D01*
X140303250Y-77261000D01*
X140162690Y-77261000D01*
X139954000Y-77347442D01*
X139745310Y-77261000D01*
X139604750Y-77261000D01*
X139446000Y-77419750D01*
X139192000Y-77419750D01*
X139033250Y-77261000D01*
X138892690Y-77261000D01*
X138659301Y-77357673D01*
X138480673Y-77536302D01*
X138460435Y-77585160D01*
X138349000Y-77562594D01*
X137966430Y-77562594D01*
X137956000Y-77552164D01*
X137956000Y-76962666D01*
X137926351Y-76813611D01*
X137841918Y-76687248D01*
X137307752Y-76153082D01*
X137181389Y-76068649D01*
X137032334Y-76039000D01*
X135064834Y-76039000D01*
X134915779Y-76068649D01*
X134789416Y-76153082D01*
X134446082Y-76496416D01*
X134361649Y-76622779D01*
X134332000Y-76771834D01*
X134332000Y-77552164D01*
X134321570Y-77562594D01*
X133939000Y-77562594D01*
X133826950Y-77583677D01*
X133807327Y-77536302D01*
X133628699Y-77357673D01*
X133395310Y-77261000D01*
X133254750Y-77261000D01*
X133096000Y-77419750D01*
X133096000Y-78519000D01*
X133116000Y-78519000D01*
X133116000Y-78773000D01*
X133096000Y-78773000D01*
X133096000Y-79872250D01*
X133254750Y-80031000D01*
X133395310Y-80031000D01*
X133628699Y-79934327D01*
X133807327Y-79755698D01*
X133827565Y-79706840D01*
X133849500Y-79711282D01*
X133849500Y-79771000D01*
X133879149Y-79920055D01*
X133963582Y-80046418D01*
X134332000Y-80414836D01*
X134332000Y-83375166D01*
X134361649Y-83524221D01*
X134446082Y-83650584D01*
X136567416Y-85771918D01*
X136693778Y-85856351D01*
X136842834Y-85886000D01*
X140745498Y-85886000D01*
X141918001Y-87058503D01*
X141918001Y-87614486D01*
X141891643Y-87550852D01*
X141635159Y-87464446D01*
X140734605Y-88365000D01*
X141635159Y-89265554D01*
X141891643Y-89179148D01*
X141918001Y-89107104D01*
X141918001Y-90013080D01*
X141522593Y-90012735D01*
X140961154Y-90244717D01*
X140531227Y-90673894D01*
X140298265Y-91234928D01*
X140297735Y-91842407D01*
X140494807Y-92319357D01*
X140063663Y-92750501D01*
X137967003Y-92750501D01*
X135466584Y-90250082D01*
X135340221Y-90165649D01*
X135191166Y-90136000D01*
X123380834Y-90136000D01*
X123231779Y-90165649D01*
X123105416Y-90250082D01*
X121746082Y-91609416D01*
X121661649Y-91735779D01*
X121632000Y-91884834D01*
X121632000Y-94805166D01*
X121661649Y-94954221D01*
X121746082Y-95080584D01*
X122556416Y-95890918D01*
X122682778Y-95975351D01*
X122831834Y-96005000D01*
X123778976Y-96005000D01*
X123711129Y-96072729D01*
X123623100Y-96284724D01*
X123622900Y-96514269D01*
X123710558Y-96726417D01*
X123872729Y-96888871D01*
X124084724Y-96976900D01*
X124314269Y-96977100D01*
X124526417Y-96889442D01*
X124550902Y-96865000D01*
X125000402Y-96865000D01*
X125020012Y-96895474D01*
X125129286Y-96970138D01*
X125259000Y-96996406D01*
X126709000Y-96996406D01*
X126830179Y-96973605D01*
X126941474Y-96901988D01*
X127016138Y-96792714D01*
X127042406Y-96663000D01*
X127042406Y-96213000D01*
X127035726Y-96177500D01*
X127071500Y-96177500D01*
X127220555Y-96147851D01*
X127346918Y-96063418D01*
X127405336Y-96005000D01*
X127458000Y-96005000D01*
X127458000Y-96975498D01*
X127375498Y-97058000D01*
X122824502Y-97058000D01*
X118938584Y-93172082D01*
X118812221Y-93087649D01*
X118663166Y-93058000D01*
X114564500Y-93058000D01*
X114564500Y-92705769D01*
X114868657Y-92580094D01*
X115213882Y-92235471D01*
X115400947Y-91784968D01*
X115401372Y-91297172D01*
X115215094Y-90846343D01*
X114870471Y-90501118D01*
X114419968Y-90314053D01*
X113932172Y-90313628D01*
X113481343Y-90499906D01*
X113136118Y-90844529D01*
X113009068Y-91150500D01*
X111377003Y-91150500D01*
X111225000Y-90998497D01*
X111225000Y-89444551D01*
X113910054Y-89444551D01*
X113996358Y-89700948D01*
X114569538Y-89910623D01*
X115179327Y-89884990D01*
X115623642Y-89700948D01*
X115709946Y-89444551D01*
X114810000Y-88544605D01*
X113910054Y-89444551D01*
X111225000Y-89444551D01*
X111225000Y-88124538D01*
X113264377Y-88124538D01*
X113290010Y-88734327D01*
X113474052Y-89178642D01*
X113730449Y-89264946D01*
X114630395Y-88365000D01*
X114989605Y-88365000D01*
X115889551Y-89264946D01*
X116145948Y-89178642D01*
X116355623Y-88605462D01*
X116329990Y-87995673D01*
X116145948Y-87551358D01*
X115889551Y-87465054D01*
X114989605Y-88365000D01*
X114630395Y-88365000D01*
X113730449Y-87465054D01*
X113474052Y-87551358D01*
X113264377Y-88124538D01*
X111225000Y-88124538D01*
X111225000Y-87285449D01*
X113910054Y-87285449D01*
X114810000Y-88185395D01*
X115709946Y-87285449D01*
X115623642Y-87029052D01*
X115050462Y-86819377D01*
X114440673Y-86845010D01*
X113996358Y-87029052D01*
X113910054Y-87285449D01*
X111225000Y-87285449D01*
X111225000Y-86723836D01*
X111908418Y-86040418D01*
X111992851Y-85914056D01*
X111998232Y-85887000D01*
X130280594Y-85887000D01*
X130280594Y-87087000D01*
X130303395Y-87208179D01*
X130375012Y-87319474D01*
X130484286Y-87394138D01*
X130614000Y-87420406D01*
X131514000Y-87420406D01*
X131635179Y-87397605D01*
X131746474Y-87325988D01*
X131821138Y-87216714D01*
X131847406Y-87087000D01*
X131847406Y-86914000D01*
X134692922Y-86914000D01*
X135643897Y-87864975D01*
X135415869Y-87959194D01*
X135379812Y-87995188D01*
X135245806Y-87670869D01*
X134900947Y-87325407D01*
X134450136Y-87138214D01*
X133962005Y-87137788D01*
X133510869Y-87324194D01*
X133165407Y-87669053D01*
X132978214Y-88119864D01*
X132977788Y-88607995D01*
X133164194Y-89059131D01*
X133509053Y-89404593D01*
X133959864Y-89591786D01*
X134447995Y-89592212D01*
X134899131Y-89405806D01*
X134935188Y-89369812D01*
X135069194Y-89694131D01*
X135414053Y-90039593D01*
X135864864Y-90226786D01*
X136352995Y-90227212D01*
X136804131Y-90040806D01*
X136840188Y-90004812D01*
X136974194Y-90329131D01*
X137319053Y-90674593D01*
X137769864Y-90861786D01*
X138257995Y-90862212D01*
X138709131Y-90675806D01*
X139054593Y-90330947D01*
X139241786Y-89880136D01*
X139242165Y-89445159D01*
X139654446Y-89445159D01*
X139740852Y-89701643D01*
X140314336Y-89911458D01*
X140924460Y-89885839D01*
X141369148Y-89701643D01*
X141455554Y-89445159D01*
X140555000Y-88544605D01*
X139654446Y-89445159D01*
X139242165Y-89445159D01*
X139242212Y-89392005D01*
X139055806Y-88940869D01*
X138710947Y-88595407D01*
X138260136Y-88408214D01*
X137772005Y-88407788D01*
X137320869Y-88594194D01*
X137284812Y-88630188D01*
X137150806Y-88305869D01*
X136969590Y-88124336D01*
X139008542Y-88124336D01*
X139034161Y-88734460D01*
X139218357Y-89179148D01*
X139474841Y-89265554D01*
X140375395Y-88365000D01*
X139474841Y-87464446D01*
X139218357Y-87550852D01*
X139008542Y-88124336D01*
X136969590Y-88124336D01*
X136805947Y-87960407D01*
X136537000Y-87848730D01*
X136537000Y-87727213D01*
X136537001Y-87727208D01*
X136504497Y-87563802D01*
X136411935Y-87425273D01*
X136271503Y-87284841D01*
X139654446Y-87284841D01*
X140555000Y-88185395D01*
X141455554Y-87284841D01*
X141369148Y-87028357D01*
X140795664Y-86818542D01*
X140185540Y-86844161D01*
X139740852Y-87028357D01*
X139654446Y-87284841D01*
X136271503Y-87284841D01*
X135171727Y-86185065D01*
X135033198Y-86092503D01*
X134869792Y-86059999D01*
X134869787Y-86060000D01*
X131847406Y-86060000D01*
X131847406Y-85887000D01*
X131824605Y-85765821D01*
X131752988Y-85654526D01*
X131643714Y-85579862D01*
X131514000Y-85553594D01*
X130614000Y-85553594D01*
X130492821Y-85576395D01*
X130381526Y-85648012D01*
X130306862Y-85757286D01*
X130280594Y-85887000D01*
X111998232Y-85887000D01*
X112000937Y-85873406D01*
X112033000Y-85873406D01*
X112154179Y-85850605D01*
X112265474Y-85778988D01*
X112340138Y-85669714D01*
X112366406Y-85540000D01*
X112366406Y-84640000D01*
X112343605Y-84518821D01*
X112271988Y-84407526D01*
X112236947Y-84383583D01*
X127272839Y-84383583D01*
X127413669Y-84724417D01*
X127674211Y-84985414D01*
X128014799Y-85126839D01*
X128100554Y-85126914D01*
X128287000Y-85164001D01*
X128287005Y-85164000D01*
X130047167Y-85164000D01*
X130155757Y-85332753D01*
X130365283Y-85475917D01*
X130614000Y-85526283D01*
X131514000Y-85526283D01*
X131746352Y-85482563D01*
X131959753Y-85345243D01*
X132102917Y-85135717D01*
X132153283Y-84887000D01*
X132153283Y-83687000D01*
X132109563Y-83454648D01*
X131972243Y-83241247D01*
X131762717Y-83098083D01*
X131514000Y-83047717D01*
X130614000Y-83047717D01*
X130381648Y-83091437D01*
X130168247Y-83228757D01*
X130044408Y-83410000D01*
X128714745Y-83410000D01*
X128385201Y-83273161D01*
X128016417Y-83272839D01*
X127675583Y-83413669D01*
X127414586Y-83674211D01*
X127273161Y-84014799D01*
X127272839Y-84383583D01*
X112236947Y-84383583D01*
X112162714Y-84332862D01*
X112033000Y-84306594D01*
X111233000Y-84306594D01*
X111111821Y-84329395D01*
X111000526Y-84401012D01*
X110925862Y-84510286D01*
X110899594Y-84640000D01*
X110899594Y-85540000D01*
X110922395Y-85661179D01*
X110994012Y-85772474D01*
X111041941Y-85805223D01*
X110683000Y-86164164D01*
X110324312Y-85805476D01*
X110365474Y-85778988D01*
X110440138Y-85669714D01*
X110466406Y-85540000D01*
X110466406Y-84640000D01*
X110443605Y-84518821D01*
X110371988Y-84407526D01*
X110262714Y-84332862D01*
X110133000Y-84306594D01*
X109333000Y-84306594D01*
X109211821Y-84329395D01*
X109100526Y-84401012D01*
X109025862Y-84510286D01*
X108999594Y-84640000D01*
X108999594Y-85540000D01*
X109022395Y-85661179D01*
X109094012Y-85772474D01*
X109203286Y-85847138D01*
X109333000Y-85873406D01*
X109365063Y-85873406D01*
X109373149Y-85914055D01*
X109457582Y-86040418D01*
X110141000Y-86723836D01*
X110141000Y-91286167D01*
X110170649Y-91435222D01*
X110255082Y-91561585D01*
X110610500Y-91917003D01*
X110610500Y-92279231D01*
X110306343Y-92404906D01*
X109961118Y-92749529D01*
X109774053Y-93200032D01*
X109773628Y-93687828D01*
X109959906Y-94138657D01*
X110304529Y-94483882D01*
X110755032Y-94670947D01*
X111242828Y-94671372D01*
X111693657Y-94485094D01*
X112038882Y-94140471D01*
X112165932Y-93834500D01*
X113797997Y-93834500D01*
X113991415Y-94027918D01*
X114117778Y-94112351D01*
X114266833Y-94142000D01*
X118375498Y-94142000D01*
X122261416Y-98027918D01*
X122306437Y-98058000D01*
X121024502Y-98058000D01*
X118738584Y-95772082D01*
X118612221Y-95687649D01*
X118463166Y-95658000D01*
X109898170Y-95658000D01*
X109342000Y-95101830D01*
X109342000Y-92452500D01*
X109312351Y-92303445D01*
X109301161Y-92286698D01*
X109301161Y-89451661D01*
X109271512Y-89302606D01*
X109271512Y-89302605D01*
X109187079Y-89176243D01*
X108289741Y-88278905D01*
X108415947Y-87974968D01*
X108416372Y-87487172D01*
X108230094Y-87036343D01*
X107885471Y-86691118D01*
X107434968Y-86504053D01*
X106947172Y-86503628D01*
X106496343Y-86689906D01*
X106151118Y-87034529D01*
X106024068Y-87340500D01*
X104682000Y-87340500D01*
X104682000Y-86691836D01*
X105365418Y-86008418D01*
X105449851Y-85882056D01*
X105457937Y-85841406D01*
X105490000Y-85841406D01*
X105611179Y-85818605D01*
X105722474Y-85746988D01*
X105797138Y-85637714D01*
X105823406Y-85508000D01*
X105823406Y-84608000D01*
X105800605Y-84486821D01*
X105728988Y-84375526D01*
X105619714Y-84300862D01*
X105490000Y-84274594D01*
X104690000Y-84274594D01*
X104568821Y-84297395D01*
X104457526Y-84369012D01*
X104382862Y-84478286D01*
X104356594Y-84608000D01*
X104356594Y-85508000D01*
X104379395Y-85629179D01*
X104451012Y-85740474D01*
X104498941Y-85773223D01*
X104140000Y-86132164D01*
X103781312Y-85773476D01*
X103822474Y-85746988D01*
X103897138Y-85637714D01*
X103923406Y-85508000D01*
X103923406Y-84608000D01*
X103900605Y-84486821D01*
X103828988Y-84375526D01*
X103719714Y-84300862D01*
X103590000Y-84274594D01*
X102790000Y-84274594D01*
X102668821Y-84297395D01*
X102557526Y-84369012D01*
X102482862Y-84478286D01*
X102456594Y-84608000D01*
X100402000Y-84608000D01*
X100402000Y-83343750D01*
X103105000Y-83343750D01*
X103105000Y-83634309D01*
X103201673Y-83867698D01*
X103380301Y-84046327D01*
X103613690Y-84143000D01*
X103854250Y-84143000D01*
X104013000Y-83984250D01*
X104013000Y-83185000D01*
X104267000Y-83185000D01*
X104267000Y-83984250D01*
X104425750Y-84143000D01*
X104666310Y-84143000D01*
X104899699Y-84046327D01*
X105078327Y-83867698D01*
X105175000Y-83634309D01*
X105175000Y-83375750D01*
X109648000Y-83375750D01*
X109648000Y-83666309D01*
X109744673Y-83899698D01*
X109923301Y-84078327D01*
X110156690Y-84175000D01*
X110397250Y-84175000D01*
X110556000Y-84016250D01*
X110556000Y-83217000D01*
X110810000Y-83217000D01*
X110810000Y-84016250D01*
X110968750Y-84175000D01*
X111209310Y-84175000D01*
X111442699Y-84078327D01*
X111621327Y-83899698D01*
X111718000Y-83666309D01*
X111718000Y-83375750D01*
X111559250Y-83217000D01*
X110810000Y-83217000D01*
X110556000Y-83217000D01*
X109806750Y-83217000D01*
X109648000Y-83375750D01*
X105175000Y-83375750D01*
X105175000Y-83343750D01*
X105016250Y-83185000D01*
X104267000Y-83185000D01*
X104013000Y-83185000D01*
X103263750Y-83185000D01*
X103105000Y-83343750D01*
X100402000Y-83343750D01*
X100402000Y-82481691D01*
X103105000Y-82481691D01*
X103105000Y-82772250D01*
X103263750Y-82931000D01*
X104013000Y-82931000D01*
X104013000Y-82131750D01*
X104267000Y-82131750D01*
X104267000Y-82931000D01*
X105016250Y-82931000D01*
X105175000Y-82772250D01*
X105175000Y-82513691D01*
X109648000Y-82513691D01*
X109648000Y-82804250D01*
X109806750Y-82963000D01*
X110556000Y-82963000D01*
X110556000Y-82163750D01*
X110810000Y-82163750D01*
X110810000Y-82963000D01*
X111559250Y-82963000D01*
X111629422Y-82892828D01*
X116123628Y-82892828D01*
X116309906Y-83343657D01*
X116654529Y-83688882D01*
X117105032Y-83875947D01*
X117592828Y-83876372D01*
X118043657Y-83690094D01*
X118388882Y-83345471D01*
X118524522Y-83018814D01*
X118559529Y-83053882D01*
X119010032Y-83240947D01*
X119497828Y-83241372D01*
X119948657Y-83055094D01*
X120293882Y-82710471D01*
X120429522Y-82383814D01*
X120464529Y-82418882D01*
X120915032Y-82605947D01*
X121402828Y-82606372D01*
X121853657Y-82420094D01*
X122090581Y-82183583D01*
X127272839Y-82183583D01*
X127413669Y-82524417D01*
X127674211Y-82785414D01*
X128014799Y-82926839D01*
X128383583Y-82927161D01*
X128504982Y-82877000D01*
X129074077Y-82877000D01*
X129201283Y-82963917D01*
X129450000Y-83014283D01*
X130650000Y-83014283D01*
X130882352Y-82970563D01*
X130982862Y-82905887D01*
X130990302Y-82913327D01*
X131223691Y-83010000D01*
X131664250Y-83010000D01*
X131823000Y-82851250D01*
X131823000Y-82127000D01*
X132077000Y-82127000D01*
X132077000Y-82851250D01*
X132235750Y-83010000D01*
X132676309Y-83010000D01*
X132909698Y-82913327D01*
X133088327Y-82734699D01*
X133185000Y-82501310D01*
X133185000Y-82285750D01*
X133026250Y-82127000D01*
X132077000Y-82127000D01*
X131823000Y-82127000D01*
X131803000Y-82127000D01*
X131803000Y-81873000D01*
X131823000Y-81873000D01*
X131823000Y-81148750D01*
X132077000Y-81148750D01*
X132077000Y-81873000D01*
X133026250Y-81873000D01*
X133185000Y-81714250D01*
X133185000Y-81498690D01*
X133088327Y-81265301D01*
X132909698Y-81086673D01*
X132676309Y-80990000D01*
X132235750Y-80990000D01*
X132077000Y-81148750D01*
X131823000Y-81148750D01*
X131664250Y-80990000D01*
X131223691Y-80990000D01*
X130990302Y-81086673D01*
X130983180Y-81093795D01*
X130898717Y-81036083D01*
X130650000Y-80985717D01*
X129450000Y-80985717D01*
X129217648Y-81029437D01*
X129072247Y-81123000D01*
X128505226Y-81123000D01*
X128385201Y-81073161D01*
X128016417Y-81072839D01*
X127675583Y-81213669D01*
X127414586Y-81474211D01*
X127273161Y-81814799D01*
X127272839Y-82183583D01*
X122090581Y-82183583D01*
X122198882Y-82075471D01*
X122385947Y-81624968D01*
X122386372Y-81137172D01*
X122200094Y-80686343D01*
X121855471Y-80341118D01*
X121404968Y-80154053D01*
X120917172Y-80153628D01*
X120466343Y-80339906D01*
X120121118Y-80684529D01*
X119985478Y-81011186D01*
X119950471Y-80976118D01*
X119499968Y-80789053D01*
X119012172Y-80788628D01*
X118561343Y-80974906D01*
X118216118Y-81319529D01*
X118080478Y-81646186D01*
X118045471Y-81611118D01*
X117594968Y-81424053D01*
X117107172Y-81423628D01*
X116656343Y-81609906D01*
X116311118Y-81954529D01*
X116124053Y-82405032D01*
X116123628Y-82892828D01*
X111629422Y-82892828D01*
X111718000Y-82804250D01*
X111718000Y-82513691D01*
X111621327Y-82280302D01*
X111442699Y-82101673D01*
X111209310Y-82005000D01*
X110968750Y-82005000D01*
X110810000Y-82163750D01*
X110556000Y-82163750D01*
X110397250Y-82005000D01*
X110156690Y-82005000D01*
X109923301Y-82101673D01*
X109744673Y-82280302D01*
X109648000Y-82513691D01*
X105175000Y-82513691D01*
X105175000Y-82481691D01*
X105078327Y-82248302D01*
X104899699Y-82069673D01*
X104666310Y-81973000D01*
X104425750Y-81973000D01*
X104267000Y-82131750D01*
X104013000Y-82131750D01*
X103854250Y-81973000D01*
X103613690Y-81973000D01*
X103380301Y-82069673D01*
X103201673Y-82248302D01*
X103105000Y-82481691D01*
X100402000Y-82481691D01*
X100402000Y-78783583D01*
X128472839Y-78783583D01*
X128613669Y-79124417D01*
X128874211Y-79385414D01*
X129214799Y-79526839D01*
X129583583Y-79527161D01*
X129593653Y-79523000D01*
X130783614Y-79523000D01*
X130803437Y-79628352D01*
X130940757Y-79841753D01*
X131150283Y-79984917D01*
X131399000Y-80035283D01*
X131999000Y-80035283D01*
X132231352Y-79991563D01*
X132315992Y-79937099D01*
X132542690Y-80031000D01*
X132683250Y-80031000D01*
X132842000Y-79872250D01*
X132842000Y-78773000D01*
X132822000Y-78773000D01*
X132822000Y-78519000D01*
X132842000Y-78519000D01*
X132842000Y-77419750D01*
X132683250Y-77261000D01*
X132542690Y-77261000D01*
X132317056Y-77354461D01*
X132247717Y-77307083D01*
X131999000Y-77256717D01*
X131399000Y-77256717D01*
X131166648Y-77300437D01*
X130953247Y-77437757D01*
X130810083Y-77647283D01*
X130785435Y-77769000D01*
X129816006Y-77769000D01*
X129585201Y-77673161D01*
X129216417Y-77672839D01*
X128875583Y-77813669D01*
X128614586Y-78074211D01*
X128473161Y-78414799D01*
X128472839Y-78783583D01*
X100402000Y-78783583D01*
X100402000Y-70170000D01*
X103441594Y-70170000D01*
X103441594Y-71230000D01*
X103464395Y-71351179D01*
X103536012Y-71462474D01*
X103645286Y-71537138D01*
X103673000Y-71542750D01*
X103673000Y-71674995D01*
X103672999Y-71675000D01*
X103705503Y-71838406D01*
X103798065Y-71976935D01*
X104298063Y-72476932D01*
X104298065Y-72476935D01*
X104436594Y-72569497D01*
X104600000Y-72602001D01*
X104600005Y-72602000D01*
X105524995Y-72602000D01*
X105525000Y-72602001D01*
X105688406Y-72569497D01*
X105826935Y-72476935D01*
X106301932Y-72001937D01*
X106301935Y-72001935D01*
X106394497Y-71863406D01*
X106427000Y-71700000D01*
X106427000Y-71544214D01*
X106446179Y-71540605D01*
X106557474Y-71468988D01*
X106632138Y-71359714D01*
X106658406Y-71230000D01*
X106658406Y-71166000D01*
X108079013Y-71166000D01*
X108089395Y-71221179D01*
X108161012Y-71332474D01*
X108270286Y-71407138D01*
X108400000Y-71433406D01*
X109174000Y-71433406D01*
X109174000Y-71791594D01*
X108950000Y-71791594D01*
X108828821Y-71814395D01*
X108717526Y-71886012D01*
X108642862Y-71995286D01*
X108616594Y-72125000D01*
X108616594Y-72875000D01*
X108639395Y-72996179D01*
X108711012Y-73107474D01*
X108820286Y-73182138D01*
X108950000Y-73208406D01*
X109174000Y-73208406D01*
X109174000Y-73541594D01*
X108500000Y-73541594D01*
X108378821Y-73564395D01*
X108267526Y-73636012D01*
X108192862Y-73745286D01*
X108166594Y-73875000D01*
X108166594Y-75125000D01*
X108189395Y-75246179D01*
X108261012Y-75357474D01*
X108370286Y-75432138D01*
X108500000Y-75458406D01*
X108793000Y-75458406D01*
X108793000Y-76066594D01*
X108400000Y-76066594D01*
X108278821Y-76089395D01*
X108167526Y-76161012D01*
X108092862Y-76270286D01*
X108066594Y-76400000D01*
X108066594Y-77600000D01*
X108089395Y-77721179D01*
X108161012Y-77832474D01*
X108270286Y-77907138D01*
X108400000Y-77933406D01*
X109300000Y-77933406D01*
X109421179Y-77910605D01*
X109532474Y-77838988D01*
X109607138Y-77729714D01*
X109633406Y-77600000D01*
X109633406Y-76649343D01*
X109647000Y-76581000D01*
X109647000Y-76400000D01*
X111366594Y-76400000D01*
X111366594Y-77600000D01*
X111389395Y-77721179D01*
X111461012Y-77832474D01*
X111570286Y-77907138D01*
X111700000Y-77933406D01*
X112600000Y-77933406D01*
X112721179Y-77910605D01*
X112832474Y-77838988D01*
X112907138Y-77729714D01*
X112933406Y-77600000D01*
X112933406Y-76773464D01*
X113830890Y-75875979D01*
X113839395Y-75921179D01*
X113911012Y-76032474D01*
X114020286Y-76107138D01*
X114150000Y-76133406D01*
X115850000Y-76133406D01*
X115971179Y-76110605D01*
X116082474Y-76038988D01*
X116157138Y-75929714D01*
X116183406Y-75800000D01*
X116183406Y-74349218D01*
X116209698Y-74338327D01*
X116388327Y-74159699D01*
X116485000Y-73926310D01*
X116485000Y-73285750D01*
X116326250Y-73127000D01*
X115127000Y-73127000D01*
X115127000Y-73147000D01*
X114873000Y-73147000D01*
X114873000Y-73127000D01*
X113673750Y-73127000D01*
X113515000Y-73285750D01*
X113515000Y-73926310D01*
X113611673Y-74159699D01*
X113790302Y-74338327D01*
X113816594Y-74349218D01*
X113816594Y-74706603D01*
X113744065Y-74755065D01*
X113744063Y-74755068D01*
X113055224Y-75443907D01*
X113135000Y-75251310D01*
X113135000Y-74785750D01*
X112976250Y-74627000D01*
X111877000Y-74627000D01*
X111877000Y-75601250D01*
X112035750Y-75760000D01*
X112626309Y-75760000D01*
X112818908Y-75680223D01*
X112432536Y-76066594D01*
X111700000Y-76066594D01*
X111578821Y-76089395D01*
X111467526Y-76161012D01*
X111392862Y-76270286D01*
X111366594Y-76400000D01*
X109647000Y-76400000D01*
X109647000Y-75458406D01*
X110000000Y-75458406D01*
X110121179Y-75435605D01*
X110232474Y-75363988D01*
X110307138Y-75254714D01*
X110333406Y-75125000D01*
X110333406Y-74785750D01*
X110365000Y-74785750D01*
X110365000Y-75251310D01*
X110461673Y-75484699D01*
X110640302Y-75663327D01*
X110873691Y-75760000D01*
X111464250Y-75760000D01*
X111623000Y-75601250D01*
X111623000Y-74627000D01*
X110523750Y-74627000D01*
X110365000Y-74785750D01*
X110333406Y-74785750D01*
X110333406Y-73875000D01*
X110310605Y-73753821D01*
X110238988Y-73642526D01*
X110129714Y-73567862D01*
X110028000Y-73547264D01*
X110028000Y-73208406D01*
X110150000Y-73208406D01*
X110271179Y-73185605D01*
X110287095Y-73175363D01*
X110311673Y-73234699D01*
X110490302Y-73413327D01*
X110542165Y-73434809D01*
X110461673Y-73515301D01*
X110365000Y-73748690D01*
X110365000Y-74214250D01*
X110523750Y-74373000D01*
X111623000Y-74373000D01*
X111623000Y-74353000D01*
X111877000Y-74353000D01*
X111877000Y-74373000D01*
X112976250Y-74373000D01*
X113135000Y-74214250D01*
X113135000Y-73748690D01*
X113038327Y-73515301D01*
X112859698Y-73336673D01*
X112626309Y-73240000D01*
X112583026Y-73240000D01*
X112588327Y-73234699D01*
X112685000Y-73001310D01*
X112685000Y-72785750D01*
X112526250Y-72627000D01*
X111577000Y-72627000D01*
X111577000Y-72647000D01*
X111323000Y-72647000D01*
X111323000Y-72627000D01*
X111303000Y-72627000D01*
X111303000Y-72373000D01*
X111323000Y-72373000D01*
X111323000Y-71648750D01*
X111577000Y-71648750D01*
X111577000Y-72373000D01*
X112526250Y-72373000D01*
X112685000Y-72214250D01*
X112685000Y-71998690D01*
X112588327Y-71765301D01*
X112409698Y-71586673D01*
X112176309Y-71490000D01*
X111735750Y-71490000D01*
X111577000Y-71648750D01*
X111323000Y-71648750D01*
X111164250Y-71490000D01*
X110723691Y-71490000D01*
X110490302Y-71586673D01*
X110311673Y-71765301D01*
X110287654Y-71823287D01*
X110279714Y-71817862D01*
X110150000Y-71791594D01*
X110028000Y-71791594D01*
X110028000Y-71247005D01*
X110028001Y-71247000D01*
X109995497Y-71083594D01*
X109973785Y-71051100D01*
X109902935Y-70945065D01*
X109902932Y-70945063D01*
X109633406Y-70675537D01*
X109633406Y-69900000D01*
X111366594Y-69900000D01*
X111366594Y-71100000D01*
X111389395Y-71221179D01*
X111461012Y-71332474D01*
X111570286Y-71407138D01*
X111700000Y-71433406D01*
X112600000Y-71433406D01*
X112721179Y-71410605D01*
X112832474Y-71338988D01*
X112868850Y-71285750D01*
X113515000Y-71285750D01*
X113515000Y-71926310D01*
X113545523Y-72000000D01*
X113515000Y-72073690D01*
X113515000Y-72714250D01*
X113673750Y-72873000D01*
X114873000Y-72873000D01*
X114873000Y-71127000D01*
X115127000Y-71127000D01*
X115127000Y-72873000D01*
X116326250Y-72873000D01*
X116485000Y-72714250D01*
X116485000Y-72073690D01*
X116454477Y-72000000D01*
X116485000Y-71926310D01*
X116485000Y-71285750D01*
X116326250Y-71127000D01*
X115127000Y-71127000D01*
X114873000Y-71127000D01*
X113673750Y-71127000D01*
X113515000Y-71285750D01*
X112868850Y-71285750D01*
X112907138Y-71229714D01*
X112933406Y-71100000D01*
X112933406Y-69900000D01*
X112910605Y-69778821D01*
X112838988Y-69667526D01*
X112729714Y-69592862D01*
X112600000Y-69566594D01*
X112577000Y-69566594D01*
X112577000Y-69427000D01*
X113766594Y-69427000D01*
X113766594Y-69685381D01*
X113611673Y-69840301D01*
X113515000Y-70073690D01*
X113515000Y-70714250D01*
X113673750Y-70873000D01*
X114873000Y-70873000D01*
X114873000Y-70853000D01*
X115127000Y-70853000D01*
X115127000Y-70873000D01*
X116326250Y-70873000D01*
X116485000Y-70714250D01*
X116485000Y-70073690D01*
X116388327Y-69840301D01*
X116209698Y-69661673D01*
X116133406Y-69630072D01*
X116133406Y-68200000D01*
X116110605Y-68078821D01*
X116038988Y-67967526D01*
X115929714Y-67892862D01*
X115800000Y-67866594D01*
X114100000Y-67866594D01*
X113978821Y-67889395D01*
X113867526Y-67961012D01*
X113792862Y-68070286D01*
X113766594Y-68200000D01*
X113766594Y-68573000D01*
X112400000Y-68573000D01*
X112236594Y-68605503D01*
X112098065Y-68698065D01*
X112098063Y-68698068D01*
X111848065Y-68948065D01*
X111755503Y-69086594D01*
X111722999Y-69250000D01*
X111723000Y-69250005D01*
X111723000Y-69566594D01*
X111700000Y-69566594D01*
X111578821Y-69589395D01*
X111467526Y-69661012D01*
X111392862Y-69770286D01*
X111366594Y-69900000D01*
X109633406Y-69900000D01*
X109610605Y-69778821D01*
X109538988Y-69667526D01*
X109429714Y-69592862D01*
X109300000Y-69566594D01*
X108400000Y-69566594D01*
X108278821Y-69589395D01*
X108167526Y-69661012D01*
X108092862Y-69770286D01*
X108066594Y-69900000D01*
X108066594Y-70312000D01*
X106658406Y-70312000D01*
X106658406Y-70170000D01*
X106635605Y-70048821D01*
X106563988Y-69937526D01*
X106454714Y-69862862D01*
X106325000Y-69836594D01*
X105924218Y-69836594D01*
X105913327Y-69810302D01*
X105772309Y-69669283D01*
X106325000Y-69669283D01*
X106557352Y-69625563D01*
X106770753Y-69488243D01*
X106846763Y-69377000D01*
X107500000Y-69377000D01*
X107835613Y-69310242D01*
X108120133Y-69120133D01*
X108404305Y-68835960D01*
X108524417Y-68786331D01*
X108785414Y-68525789D01*
X108926839Y-68185201D01*
X108927161Y-67816417D01*
X108786331Y-67475583D01*
X108525789Y-67214586D01*
X108185201Y-67073161D01*
X107816417Y-67072839D01*
X107475583Y-67213669D01*
X107214586Y-67474211D01*
X107164213Y-67595521D01*
X107136735Y-67623000D01*
X106846789Y-67623000D01*
X106783243Y-67524247D01*
X106573717Y-67381083D01*
X106325000Y-67330717D01*
X105675000Y-67330717D01*
X105442648Y-67374437D01*
X105229247Y-67511757D01*
X105086083Y-67721283D01*
X105035717Y-67970000D01*
X105035717Y-69030000D01*
X105079437Y-69262352D01*
X105216757Y-69475753D01*
X105322646Y-69548104D01*
X105177000Y-69693750D01*
X105177000Y-70573000D01*
X105197000Y-70573000D01*
X105197000Y-70827000D01*
X105177000Y-70827000D01*
X105177000Y-70847000D01*
X104923000Y-70847000D01*
X104923000Y-70827000D01*
X104903000Y-70827000D01*
X104903000Y-70573000D01*
X104923000Y-70573000D01*
X104923000Y-69693750D01*
X104764250Y-69535000D01*
X104598690Y-69535000D01*
X104365301Y-69631673D01*
X104186673Y-69810302D01*
X104175782Y-69836594D01*
X103775000Y-69836594D01*
X103653821Y-69859395D01*
X103542526Y-69931012D01*
X103467862Y-70040286D01*
X103441594Y-70170000D01*
X100402000Y-70170000D01*
X100402000Y-67970000D01*
X103441594Y-67970000D01*
X103441594Y-69030000D01*
X103464395Y-69151179D01*
X103536012Y-69262474D01*
X103645286Y-69337138D01*
X103775000Y-69363406D01*
X104425000Y-69363406D01*
X104546179Y-69340605D01*
X104657474Y-69268988D01*
X104732138Y-69159714D01*
X104758406Y-69030000D01*
X104758406Y-67970000D01*
X104735605Y-67848821D01*
X104663988Y-67737526D01*
X104554714Y-67662862D01*
X104425000Y-67636594D01*
X103775000Y-67636594D01*
X103653821Y-67659395D01*
X103542526Y-67731012D01*
X103467862Y-67840286D01*
X103441594Y-67970000D01*
X100402000Y-67970000D01*
X100402000Y-64039595D01*
X100473277Y-63681261D01*
X100472389Y-64698486D01*
X101008211Y-65995275D01*
X101999506Y-66988302D01*
X103295358Y-67526386D01*
X104698486Y-67527611D01*
X105995275Y-66991789D01*
X106988302Y-66000494D01*
X107526386Y-64704642D01*
X107527611Y-63301514D01*
X106991789Y-62004725D01*
X106000494Y-61011698D01*
X104704642Y-60473614D01*
X103684047Y-60472723D01*
X104039595Y-60402000D01*
X118673000Y-60402000D01*
X118673000Y-75500000D01*
G36*
X153318739Y-60473277D02*
X152301514Y-60472389D01*
X151004725Y-61008211D01*
X150011698Y-61999506D01*
X149473614Y-63295358D01*
X149472389Y-64698486D01*
X150008211Y-65995275D01*
X150999506Y-66988302D01*
X152295358Y-67526386D01*
X153698486Y-67527611D01*
X154995275Y-66991789D01*
X155988302Y-66000494D01*
X156526386Y-64704642D01*
X156527277Y-63684047D01*
X156598000Y-64039595D01*
X156598000Y-75373000D01*
X143028579Y-75373000D01*
X143134935Y-75301935D01*
X143938932Y-74497937D01*
X143938935Y-74497935D01*
X144031497Y-74359406D01*
X144041371Y-74309768D01*
X144058179Y-74306605D01*
X144169474Y-74234988D01*
X144244138Y-74125714D01*
X144270406Y-73996000D01*
X144270406Y-72496000D01*
X144247605Y-72374821D01*
X144175988Y-72263526D01*
X144066714Y-72188862D01*
X143937000Y-72162594D01*
X143473141Y-72162594D01*
X143582417Y-72117442D01*
X143644968Y-72055000D01*
X144095130Y-72055000D01*
X144343115Y-72302984D01*
X144299862Y-72366286D01*
X144273594Y-72496000D01*
X144273594Y-73996000D01*
X144296395Y-74117179D01*
X144368012Y-74228474D01*
X144477286Y-74303138D01*
X144607000Y-74329406D01*
X145207000Y-74329406D01*
X145319050Y-74308323D01*
X145338673Y-74355698D01*
X145517301Y-74534327D01*
X145750690Y-74631000D01*
X145891250Y-74631000D01*
X146050000Y-74472250D01*
X146050000Y-73373000D01*
X146030000Y-73373000D01*
X146030000Y-73119000D01*
X146050000Y-73119000D01*
X146050000Y-72019750D01*
X145891250Y-71861000D01*
X145750690Y-71861000D01*
X145517301Y-71957673D01*
X145338673Y-72136302D01*
X145318491Y-72185026D01*
X145301497Y-72099594D01*
X145240964Y-72009000D01*
X145208935Y-71961065D01*
X145208932Y-71961063D01*
X144573935Y-71326065D01*
X144435406Y-71233503D01*
X144272000Y-71200999D01*
X144271995Y-71201000D01*
X143645034Y-71201000D01*
X143583271Y-71139129D01*
X143371276Y-71051100D01*
X143141731Y-71050900D01*
X142929583Y-71138558D01*
X142767129Y-71300729D01*
X142679100Y-71512724D01*
X142678900Y-71742269D01*
X142766558Y-71954417D01*
X142928729Y-72116871D01*
X143140724Y-72204900D01*
X143185449Y-72204939D01*
X143104526Y-72257012D01*
X143029862Y-72366286D01*
X143003594Y-72496000D01*
X143003594Y-73996000D01*
X143026395Y-74117179D01*
X143059894Y-74169237D01*
X142656130Y-74573000D01*
X136070200Y-74573000D01*
X136254753Y-74454243D01*
X136356940Y-74304688D01*
X136479000Y-74329406D01*
X137079000Y-74329406D01*
X137200179Y-74306605D01*
X137311474Y-74234988D01*
X137386138Y-74125714D01*
X137412406Y-73996000D01*
X137412406Y-72766463D01*
X137415594Y-72763275D01*
X137415594Y-73996000D01*
X137438395Y-74117179D01*
X137510012Y-74228474D01*
X137619286Y-74303138D01*
X137749000Y-74329406D01*
X138349000Y-74329406D01*
X138470179Y-74306605D01*
X138581474Y-74234988D01*
X138656138Y-74125714D01*
X138682406Y-73996000D01*
X138682406Y-72496000D01*
X138659605Y-72374821D01*
X138587988Y-72263526D01*
X138478714Y-72188862D01*
X138476000Y-72188312D01*
X138476000Y-71453868D01*
X138892000Y-71869868D01*
X138892000Y-72189141D01*
X138786526Y-72257012D01*
X138711862Y-72366286D01*
X138685594Y-72496000D01*
X138685594Y-73996000D01*
X138708395Y-74117179D01*
X138780012Y-74228474D01*
X138889286Y-74303138D01*
X139019000Y-74329406D01*
X139619000Y-74329406D01*
X139740179Y-74306605D01*
X139851474Y-74234988D01*
X139926138Y-74125714D01*
X139952406Y-73996000D01*
X139952406Y-72496000D01*
X139929605Y-72374821D01*
X139857988Y-72263526D01*
X139748714Y-72188862D01*
X139746000Y-72188312D01*
X139746000Y-71693003D01*
X139746001Y-71692998D01*
X139713497Y-71529592D01*
X139620935Y-71391063D01*
X135682000Y-67452128D01*
X135682000Y-66802816D01*
X135724717Y-66794319D01*
X136122924Y-66528246D01*
X136388997Y-66130039D01*
X136482430Y-65660322D01*
X136482430Y-63879678D01*
X136567570Y-63879678D01*
X136567570Y-65660322D01*
X136661003Y-66130039D01*
X136927076Y-66528246D01*
X137325283Y-66794319D01*
X137368000Y-66802816D01*
X137368000Y-68579995D01*
X137367999Y-68580000D01*
X137400503Y-68743406D01*
X137493065Y-68881935D01*
X138128063Y-69516932D01*
X138128065Y-69516935D01*
X138249485Y-69598065D01*
X138266594Y-69609497D01*
X138430000Y-69642001D01*
X138430005Y-69642000D01*
X139523130Y-69642000D01*
X140162000Y-70280869D01*
X140162000Y-72189141D01*
X140056526Y-72257012D01*
X139981862Y-72366286D01*
X139955594Y-72496000D01*
X139955594Y-73996000D01*
X139978395Y-74117179D01*
X140050012Y-74228474D01*
X140159286Y-74303138D01*
X140289000Y-74329406D01*
X140889000Y-74329406D01*
X141010179Y-74306605D01*
X141121474Y-74234988D01*
X141196138Y-74125714D01*
X141222406Y-73996000D01*
X141222406Y-72496000D01*
X141199605Y-72374821D01*
X141127988Y-72263526D01*
X141018714Y-72188862D01*
X141016000Y-72188312D01*
X141016000Y-70104005D01*
X141016001Y-70104000D01*
X140983497Y-69940594D01*
X140970524Y-69921179D01*
X140890935Y-69802065D01*
X140890932Y-69802063D01*
X140001935Y-68913065D01*
X139863406Y-68820503D01*
X139700000Y-68787999D01*
X139699995Y-68788000D01*
X138606869Y-68788000D01*
X138222000Y-68403130D01*
X138222000Y-66802816D01*
X138264717Y-66794319D01*
X138662924Y-66528246D01*
X138928997Y-66130039D01*
X139022430Y-65660322D01*
X139022430Y-63879678D01*
X139107570Y-63879678D01*
X139107570Y-65660322D01*
X139201003Y-66130039D01*
X139467076Y-66528246D01*
X139865283Y-66794319D01*
X139908000Y-66802816D01*
X139908000Y-67309995D01*
X139907999Y-67310000D01*
X139940503Y-67473406D01*
X140033065Y-67611935D01*
X143208065Y-70786935D01*
X143346594Y-70879497D01*
X143510000Y-70912001D01*
X143510005Y-70912000D01*
X146592670Y-70912000D01*
X146473161Y-71199809D01*
X146472839Y-71568593D01*
X146570000Y-71803740D01*
X146570000Y-71861000D01*
X146462750Y-71861000D01*
X146304000Y-72019750D01*
X146304000Y-73119000D01*
X146324000Y-73119000D01*
X146324000Y-73373000D01*
X146304000Y-73373000D01*
X146304000Y-74472250D01*
X146462750Y-74631000D01*
X146603310Y-74631000D01*
X146828944Y-74537539D01*
X146898283Y-74584917D01*
X147147000Y-74635283D01*
X147747000Y-74635283D01*
X147979352Y-74591563D01*
X148192753Y-74454243D01*
X148294940Y-74304688D01*
X148417000Y-74329406D01*
X149017000Y-74329406D01*
X149138179Y-74306605D01*
X149249474Y-74234988D01*
X149324138Y-74125714D01*
X149350406Y-73996000D01*
X149350406Y-72496000D01*
X149327605Y-72374821D01*
X149255988Y-72263526D01*
X149146714Y-72188862D01*
X149144000Y-72188312D01*
X149144000Y-71185003D01*
X149144001Y-71184998D01*
X149111497Y-71021592D01*
X149097070Y-71000000D01*
X149018935Y-70883063D01*
X149018932Y-70883061D01*
X148318937Y-70183065D01*
X148180408Y-70090503D01*
X148017002Y-70057999D01*
X148016997Y-70058000D01*
X143686870Y-70058000D01*
X140762000Y-67133130D01*
X140762000Y-66802816D01*
X140804717Y-66794319D01*
X141202924Y-66528246D01*
X141468997Y-66130039D01*
X141562430Y-65660322D01*
X141562430Y-63879678D01*
X141647570Y-63879678D01*
X141647570Y-65660322D01*
X141741003Y-66130039D01*
X142007076Y-66528246D01*
X142405283Y-66794319D01*
X142448000Y-66802816D01*
X142448000Y-67406997D01*
X142447999Y-67407002D01*
X142480503Y-67570408D01*
X142573065Y-67708937D01*
X144666062Y-69801933D01*
X144666064Y-69801936D01*
X144737997Y-69850000D01*
X144804593Y-69894498D01*
X144967999Y-69927002D01*
X144968004Y-69927001D01*
X148698131Y-69927001D01*
X149560000Y-70788870D01*
X149560000Y-72189141D01*
X149454526Y-72257012D01*
X149379862Y-72366286D01*
X149353594Y-72496000D01*
X149353594Y-73996000D01*
X149376395Y-74117179D01*
X149448012Y-74228474D01*
X149557286Y-74303138D01*
X149687000Y-74329406D01*
X150287000Y-74329406D01*
X150408179Y-74306605D01*
X150519474Y-74234988D01*
X150594138Y-74125714D01*
X150620406Y-73996000D01*
X150620406Y-72496000D01*
X150597605Y-72374821D01*
X150525988Y-72263526D01*
X150416714Y-72188862D01*
X150414000Y-72188312D01*
X150414000Y-70612005D01*
X150414001Y-70612000D01*
X150381497Y-70448594D01*
X150288935Y-70310065D01*
X149176936Y-69198066D01*
X149038407Y-69105504D01*
X148875001Y-69073000D01*
X148874996Y-69073001D01*
X147357029Y-69073001D01*
X147484839Y-68765201D01*
X147485161Y-68396417D01*
X147344331Y-68055583D01*
X147083789Y-67794586D01*
X146945107Y-67737000D01*
X147778130Y-67737000D01*
X150830000Y-70788869D01*
X150830000Y-72189141D01*
X150724526Y-72257012D01*
X150649862Y-72366286D01*
X150623594Y-72496000D01*
X150623594Y-73996000D01*
X150646395Y-74117179D01*
X150718012Y-74228474D01*
X150827286Y-74303138D01*
X150957000Y-74329406D01*
X151557000Y-74329406D01*
X151678179Y-74306605D01*
X151789474Y-74234988D01*
X151864138Y-74125714D01*
X151890406Y-73996000D01*
X151890406Y-72496000D01*
X151867605Y-72374821D01*
X151795988Y-72263526D01*
X151686714Y-72188862D01*
X151684000Y-72188312D01*
X151684000Y-70612000D01*
X151651497Y-70448594D01*
X151558935Y-70310065D01*
X151558932Y-70310063D01*
X148985870Y-67737000D01*
X149048130Y-67737000D01*
X152100000Y-70788869D01*
X152100000Y-72189141D01*
X151994526Y-72257012D01*
X151919862Y-72366286D01*
X151893594Y-72496000D01*
X151893594Y-73996000D01*
X151916395Y-74117179D01*
X151988012Y-74228474D01*
X152097286Y-74303138D01*
X152227000Y-74329406D01*
X152827000Y-74329406D01*
X152948179Y-74306605D01*
X153059474Y-74234988D01*
X153134138Y-74125714D01*
X153160406Y-73996000D01*
X153160406Y-72496000D01*
X153137605Y-72374821D01*
X153065988Y-72263526D01*
X152956714Y-72188862D01*
X152954000Y-72188312D01*
X152954000Y-70612000D01*
X152921497Y-70448594D01*
X152828935Y-70310065D01*
X152828932Y-70310063D01*
X149526935Y-67008065D01*
X149388406Y-66915503D01*
X149225000Y-66882999D01*
X149224995Y-66883000D01*
X148766869Y-66883000D01*
X148576662Y-66692793D01*
X148822924Y-66528246D01*
X149088997Y-66130039D01*
X149182430Y-65660322D01*
X149182430Y-63879678D01*
X149088997Y-63409961D01*
X148822924Y-63011754D01*
X148424717Y-62745681D01*
X147955000Y-62652248D01*
X147485283Y-62745681D01*
X147087076Y-63011754D01*
X146821003Y-63409961D01*
X146727570Y-63879678D01*
X146727570Y-65660322D01*
X146821003Y-66130039D01*
X147087076Y-66528246D01*
X147485283Y-66794319D01*
X147554471Y-66808081D01*
X147560503Y-66838406D01*
X147590300Y-66883000D01*
X146226869Y-66883000D01*
X146036662Y-66692793D01*
X146282924Y-66528246D01*
X146548997Y-66130039D01*
X146642430Y-65660322D01*
X146642430Y-63879678D01*
X146548997Y-63409961D01*
X146282924Y-63011754D01*
X145884717Y-62745681D01*
X145415000Y-62652248D01*
X144945283Y-62745681D01*
X144547076Y-63011754D01*
X144281003Y-63409961D01*
X144187570Y-63879678D01*
X144187570Y-65660322D01*
X144281003Y-66130039D01*
X144547076Y-66528246D01*
X144945283Y-66794319D01*
X145014471Y-66808081D01*
X145020503Y-66838406D01*
X145113065Y-66976935D01*
X145748063Y-67611932D01*
X145748065Y-67611935D01*
X145831642Y-67667779D01*
X145886594Y-67704497D01*
X146050000Y-67737001D01*
X146050005Y-67737000D01*
X146170732Y-67737000D01*
X146033583Y-67793669D01*
X145772586Y-68054211D01*
X145631161Y-68394799D01*
X145630839Y-68763583D01*
X145758688Y-69073001D01*
X145144868Y-69073001D01*
X143302000Y-67230132D01*
X143302000Y-66802816D01*
X143344717Y-66794319D01*
X143742924Y-66528246D01*
X144008997Y-66130039D01*
X144102430Y-65660322D01*
X144102430Y-63879678D01*
X144008997Y-63409961D01*
X143742924Y-63011754D01*
X143344717Y-62745681D01*
X142875000Y-62652248D01*
X142405283Y-62745681D01*
X142007076Y-63011754D01*
X141741003Y-63409961D01*
X141647570Y-63879678D01*
X141562430Y-63879678D01*
X141468997Y-63409961D01*
X141202924Y-63011754D01*
X140804717Y-62745681D01*
X140335000Y-62652248D01*
X139865283Y-62745681D01*
X139467076Y-63011754D01*
X139201003Y-63409961D01*
X139107570Y-63879678D01*
X139022430Y-63879678D01*
X138928997Y-63409961D01*
X138662924Y-63011754D01*
X138264717Y-62745681D01*
X137795000Y-62652248D01*
X137325283Y-62745681D01*
X136927076Y-63011754D01*
X136661003Y-63409961D01*
X136567570Y-63879678D01*
X136482430Y-63879678D01*
X136388997Y-63409961D01*
X136122924Y-63011754D01*
X135724717Y-62745681D01*
X135255000Y-62652248D01*
X134785283Y-62745681D01*
X134387076Y-63011754D01*
X134121003Y-63409961D01*
X134027570Y-63879678D01*
X134027570Y-65660322D01*
X134121003Y-66130039D01*
X134387076Y-66528246D01*
X134785283Y-66794319D01*
X134828000Y-66802816D01*
X134828000Y-67628993D01*
X134827999Y-67628998D01*
X134860503Y-67792404D01*
X134953065Y-67930933D01*
X135713144Y-68691012D01*
X132847175Y-68691012D01*
X132041570Y-67885406D01*
X132041570Y-66896930D01*
X132184677Y-66753823D01*
X132245283Y-66794319D01*
X132715000Y-66887752D01*
X133184717Y-66794319D01*
X133582924Y-66528246D01*
X133848997Y-66130039D01*
X133942430Y-65660322D01*
X133942430Y-63879678D01*
X133848997Y-63409961D01*
X133582924Y-63011754D01*
X133184717Y-62745681D01*
X132715000Y-62652248D01*
X132245283Y-62745681D01*
X131847076Y-63011754D01*
X131581003Y-63409961D01*
X131487570Y-63879678D01*
X131487570Y-65660322D01*
X131581003Y-66130039D01*
X131588901Y-66141859D01*
X131312635Y-66418125D01*
X131220073Y-66556654D01*
X131187569Y-66720060D01*
X131187570Y-66720065D01*
X131187570Y-67597106D01*
X130602000Y-67011536D01*
X130602000Y-66802816D01*
X130644717Y-66794319D01*
X131042924Y-66528246D01*
X131308997Y-66130039D01*
X131402430Y-65660322D01*
X131402430Y-63879678D01*
X131308997Y-63409961D01*
X131042924Y-63011754D01*
X130644717Y-62745681D01*
X130175000Y-62652248D01*
X129705283Y-62745681D01*
X129307076Y-63011754D01*
X129041003Y-63409961D01*
X128981404Y-63709582D01*
X128877059Y-63356059D01*
X128533026Y-62930370D01*
X128052277Y-62668740D01*
X127978070Y-62653780D01*
X127762000Y-62776280D01*
X127762000Y-64643000D01*
X127782000Y-64643000D01*
X127782000Y-64897000D01*
X127762000Y-64897000D01*
X127762000Y-66763720D01*
X127978070Y-66886220D01*
X128052277Y-66871260D01*
X128533026Y-66609630D01*
X128877059Y-66183941D01*
X128981404Y-65830418D01*
X129041003Y-66130039D01*
X129307076Y-66528246D01*
X129705283Y-66794319D01*
X129748000Y-66802816D01*
X129748000Y-67188401D01*
X129747999Y-67188406D01*
X129780503Y-67351812D01*
X129873065Y-67490341D01*
X132202682Y-69819958D01*
X132341211Y-69912520D01*
X132504617Y-69945024D01*
X132504622Y-69945023D01*
X133214021Y-69945023D01*
X133072586Y-70086211D01*
X132931161Y-70426799D01*
X132930839Y-70795583D01*
X133071669Y-71136417D01*
X133332211Y-71397414D01*
X133672799Y-71538839D01*
X134041583Y-71539161D01*
X134382417Y-71398331D01*
X134643414Y-71137789D01*
X134784839Y-70797201D01*
X134785161Y-70428417D01*
X134644331Y-70087583D01*
X134502020Y-69945023D01*
X135687178Y-69945023D01*
X136852000Y-71109844D01*
X136852000Y-71666833D01*
X136731662Y-71375593D01*
X136471120Y-71114596D01*
X136130532Y-70973171D01*
X135761748Y-70972849D01*
X135640349Y-71023010D01*
X135604990Y-71023010D01*
X135269376Y-71089768D01*
X135155414Y-71165915D01*
X134984857Y-71279877D01*
X134984855Y-71279880D01*
X134888867Y-71375867D01*
X134698758Y-71660387D01*
X134658853Y-71861000D01*
X134524750Y-71861000D01*
X134366000Y-72019750D01*
X134366000Y-73119000D01*
X134386000Y-73119000D01*
X134386000Y-73373000D01*
X134366000Y-73373000D01*
X134366000Y-73393000D01*
X134112000Y-73393000D01*
X134112000Y-73373000D01*
X134092000Y-73373000D01*
X134092000Y-73119000D01*
X134112000Y-73119000D01*
X134112000Y-72019750D01*
X133953250Y-71861000D01*
X133812690Y-71861000D01*
X133579301Y-71957673D01*
X133400673Y-72136302D01*
X133396000Y-72147584D01*
X133396000Y-72009005D01*
X133396001Y-72009000D01*
X133363497Y-71845594D01*
X133270935Y-71707065D01*
X132657024Y-71093154D01*
X132657100Y-71005731D01*
X132569442Y-70793583D01*
X132407271Y-70631129D01*
X132195276Y-70543100D01*
X131965731Y-70542900D01*
X131753583Y-70630558D01*
X131591129Y-70792729D01*
X131503100Y-71004724D01*
X131503023Y-71093108D01*
X129523130Y-73073000D01*
X127401867Y-73073000D01*
X127313867Y-72985000D01*
X127314250Y-72985000D01*
X127473000Y-72826250D01*
X127473000Y-71727000D01*
X127727000Y-71727000D01*
X127727000Y-72826250D01*
X127885750Y-72985000D01*
X128351310Y-72985000D01*
X128584699Y-72888327D01*
X128763327Y-72709698D01*
X128860000Y-72476309D01*
X128860000Y-71885750D01*
X128701250Y-71727000D01*
X127727000Y-71727000D01*
X127473000Y-71727000D01*
X127453000Y-71727000D01*
X127453000Y-71473000D01*
X127473000Y-71473000D01*
X127473000Y-71453000D01*
X127727000Y-71453000D01*
X127727000Y-71473000D01*
X128701250Y-71473000D01*
X128860000Y-71314250D01*
X128860000Y-70723691D01*
X128763327Y-70490302D01*
X128616305Y-70343279D01*
X128670753Y-70308243D01*
X128813917Y-70098717D01*
X128838565Y-69977000D01*
X129500000Y-69977000D01*
X129750700Y-69927132D01*
X129783583Y-69927161D01*
X129814242Y-69914493D01*
X129835613Y-69910242D01*
X129853573Y-69898242D01*
X130124417Y-69786331D01*
X130385414Y-69525789D01*
X130526839Y-69185201D01*
X130527161Y-68816417D01*
X130386331Y-68475583D01*
X130125789Y-68214586D01*
X129785201Y-68073161D01*
X129416417Y-68072839D01*
X129075583Y-68213669D01*
X129066236Y-68223000D01*
X128840386Y-68223000D01*
X128820563Y-68117648D01*
X128683243Y-67904247D01*
X128473717Y-67761083D01*
X128225000Y-67710717D01*
X126975000Y-67710717D01*
X126742648Y-67754437D01*
X126529247Y-67891757D01*
X126386083Y-68101283D01*
X126335717Y-68350000D01*
X126335717Y-69648623D01*
X126301935Y-69598065D01*
X126301932Y-69598063D01*
X125401935Y-68698065D01*
X125263406Y-68605503D01*
X125233406Y-68599536D01*
X125233406Y-68200000D01*
X125210605Y-68078821D01*
X125138988Y-67967526D01*
X125029714Y-67892862D01*
X124900000Y-67866594D01*
X123200000Y-67866594D01*
X123078821Y-67889395D01*
X122967526Y-67961012D01*
X122892862Y-68070286D01*
X122866594Y-68200000D01*
X122866594Y-69637289D01*
X122704247Y-69741757D01*
X122561083Y-69951283D01*
X122526310Y-70123000D01*
X121305226Y-70123000D01*
X121185201Y-70073161D01*
X120816417Y-70072839D01*
X120475583Y-70213669D01*
X120214586Y-70474211D01*
X120073161Y-70814799D01*
X120072839Y-71183583D01*
X120213669Y-71524417D01*
X120474211Y-71785414D01*
X120814799Y-71926839D01*
X121183583Y-71927161D01*
X121304982Y-71877000D01*
X122525206Y-71877000D01*
X122549731Y-72007342D01*
X122526310Y-72123000D01*
X121305226Y-72123000D01*
X121185201Y-72073161D01*
X120816417Y-72072839D01*
X120475583Y-72213669D01*
X120214586Y-72474211D01*
X120073161Y-72814799D01*
X120072839Y-73183583D01*
X120213669Y-73524417D01*
X120474211Y-73785414D01*
X120814799Y-73926839D01*
X121183583Y-73927161D01*
X121304982Y-73877000D01*
X122525206Y-73877000D01*
X122554437Y-74032352D01*
X122691757Y-74245753D01*
X122816594Y-74331051D01*
X122816594Y-75373000D01*
X119127000Y-75373000D01*
X119127000Y-66161761D01*
X119244961Y-66338302D01*
X119598258Y-66574368D01*
X120015000Y-66657263D01*
X120431742Y-66574368D01*
X120785039Y-66338302D01*
X121021105Y-65985005D01*
X121104000Y-65568263D01*
X121104000Y-64897000D01*
X121158000Y-64897000D01*
X121158000Y-65659000D01*
X121312941Y-66183941D01*
X121656974Y-66609630D01*
X122137723Y-66871260D01*
X122211930Y-66886220D01*
X122428000Y-66763720D01*
X122428000Y-64897000D01*
X121158000Y-64897000D01*
X121104000Y-64897000D01*
X121104000Y-63971737D01*
X121085952Y-63881000D01*
X121158000Y-63881000D01*
X121158000Y-64643000D01*
X122428000Y-64643000D01*
X122428000Y-62776280D01*
X122682000Y-62776280D01*
X122682000Y-64643000D01*
X122702000Y-64643000D01*
X122702000Y-64897000D01*
X122682000Y-64897000D01*
X122682000Y-66763720D01*
X122898070Y-66886220D01*
X122972277Y-66871260D01*
X123453026Y-66609630D01*
X123797059Y-66183941D01*
X123817575Y-66114434D01*
X124112829Y-66556312D01*
X124563453Y-66857410D01*
X125095000Y-66963141D01*
X125626547Y-66857410D01*
X126077171Y-66556312D01*
X126372425Y-66114434D01*
X126392941Y-66183941D01*
X126736974Y-66609630D01*
X127217723Y-66871260D01*
X127291930Y-66886220D01*
X127508000Y-66763720D01*
X127508000Y-64897000D01*
X127488000Y-64897000D01*
X127488000Y-64643000D01*
X127508000Y-64643000D01*
X127508000Y-62776280D01*
X127291930Y-62653780D01*
X127217723Y-62668740D01*
X126736974Y-62930370D01*
X126392941Y-63356059D01*
X126372425Y-63425566D01*
X126077171Y-62983688D01*
X125626547Y-62682590D01*
X125095000Y-62576859D01*
X124563453Y-62682590D01*
X124112829Y-62983688D01*
X123817575Y-63425566D01*
X123797059Y-63356059D01*
X123453026Y-62930370D01*
X122972277Y-62668740D01*
X122898070Y-62653780D01*
X122682000Y-62776280D01*
X122428000Y-62776280D01*
X122211930Y-62653780D01*
X122137723Y-62668740D01*
X121656974Y-62930370D01*
X121312941Y-63356059D01*
X121158000Y-63881000D01*
X121085952Y-63881000D01*
X121021105Y-63554995D01*
X120785039Y-63201698D01*
X120431742Y-62965632D01*
X120015000Y-62882737D01*
X119598258Y-62965632D01*
X119244961Y-63201698D01*
X119127000Y-63378239D01*
X119127000Y-60402000D01*
X152960405Y-60402000D01*
X153318739Y-60473277D01*
X153318739Y-60473277D01*
G37*
X153318739Y-60473277D02*
X152301514Y-60472389D01*
X151004725Y-61008211D01*
X150011698Y-61999506D01*
X149473614Y-63295358D01*
X149472389Y-64698486D01*
X150008211Y-65995275D01*
X150999506Y-66988302D01*
X152295358Y-67526386D01*
X153698486Y-67527611D01*
X154995275Y-66991789D01*
X155988302Y-66000494D01*
X156526386Y-64704642D01*
X156527277Y-63684047D01*
X156598000Y-64039595D01*
X156598000Y-75373000D01*
X143028579Y-75373000D01*
X143134935Y-75301935D01*
X143938932Y-74497937D01*
X143938935Y-74497935D01*
X144031497Y-74359406D01*
X144041371Y-74309768D01*
X144058179Y-74306605D01*
X144169474Y-74234988D01*
X144244138Y-74125714D01*
X144270406Y-73996000D01*
X144270406Y-72496000D01*
X144247605Y-72374821D01*
X144175988Y-72263526D01*
X144066714Y-72188862D01*
X143937000Y-72162594D01*
X143473141Y-72162594D01*
X143582417Y-72117442D01*
X143644968Y-72055000D01*
X144095130Y-72055000D01*
X144343115Y-72302984D01*
X144299862Y-72366286D01*
X144273594Y-72496000D01*
X144273594Y-73996000D01*
X144296395Y-74117179D01*
X144368012Y-74228474D01*
X144477286Y-74303138D01*
X144607000Y-74329406D01*
X145207000Y-74329406D01*
X145319050Y-74308323D01*
X145338673Y-74355698D01*
X145517301Y-74534327D01*
X145750690Y-74631000D01*
X145891250Y-74631000D01*
X146050000Y-74472250D01*
X146050000Y-73373000D01*
X146030000Y-73373000D01*
X146030000Y-73119000D01*
X146050000Y-73119000D01*
X146050000Y-72019750D01*
X145891250Y-71861000D01*
X145750690Y-71861000D01*
X145517301Y-71957673D01*
X145338673Y-72136302D01*
X145318491Y-72185026D01*
X145301497Y-72099594D01*
X145240964Y-72009000D01*
X145208935Y-71961065D01*
X145208932Y-71961063D01*
X144573935Y-71326065D01*
X144435406Y-71233503D01*
X144272000Y-71200999D01*
X144271995Y-71201000D01*
X143645034Y-71201000D01*
X143583271Y-71139129D01*
X143371276Y-71051100D01*
X143141731Y-71050900D01*
X142929583Y-71138558D01*
X142767129Y-71300729D01*
X142679100Y-71512724D01*
X142678900Y-71742269D01*
X142766558Y-71954417D01*
X142928729Y-72116871D01*
X143140724Y-72204900D01*
X143185449Y-72204939D01*
X143104526Y-72257012D01*
X143029862Y-72366286D01*
X143003594Y-72496000D01*
X143003594Y-73996000D01*
X143026395Y-74117179D01*
X143059894Y-74169237D01*
X142656130Y-74573000D01*
X136070200Y-74573000D01*
X136254753Y-74454243D01*
X136356940Y-74304688D01*
X136479000Y-74329406D01*
X137079000Y-74329406D01*
X137200179Y-74306605D01*
X137311474Y-74234988D01*
X137386138Y-74125714D01*
X137412406Y-73996000D01*
X137412406Y-72766463D01*
X137415594Y-72763275D01*
X137415594Y-73996000D01*
X137438395Y-74117179D01*
X137510012Y-74228474D01*
X137619286Y-74303138D01*
X137749000Y-74329406D01*
X138349000Y-74329406D01*
X138470179Y-74306605D01*
X138581474Y-74234988D01*
X138656138Y-74125714D01*
X138682406Y-73996000D01*
X138682406Y-72496000D01*
X138659605Y-72374821D01*
X138587988Y-72263526D01*
X138478714Y-72188862D01*
X138476000Y-72188312D01*
X138476000Y-71453868D01*
X138892000Y-71869868D01*
X138892000Y-72189141D01*
X138786526Y-72257012D01*
X138711862Y-72366286D01*
X138685594Y-72496000D01*
X138685594Y-73996000D01*
X138708395Y-74117179D01*
X138780012Y-74228474D01*
X138889286Y-74303138D01*
X139019000Y-74329406D01*
X139619000Y-74329406D01*
X139740179Y-74306605D01*
X139851474Y-74234988D01*
X139926138Y-74125714D01*
X139952406Y-73996000D01*
X139952406Y-72496000D01*
X139929605Y-72374821D01*
X139857988Y-72263526D01*
X139748714Y-72188862D01*
X139746000Y-72188312D01*
X139746000Y-71693003D01*
X139746001Y-71692998D01*
X139713497Y-71529592D01*
X139620935Y-71391063D01*
X135682000Y-67452128D01*
X135682000Y-66802816D01*
X135724717Y-66794319D01*
X136122924Y-66528246D01*
X136388997Y-66130039D01*
X136482430Y-65660322D01*
X136482430Y-63879678D01*
X136567570Y-63879678D01*
X136567570Y-65660322D01*
X136661003Y-66130039D01*
X136927076Y-66528246D01*
X137325283Y-66794319D01*
X137368000Y-66802816D01*
X137368000Y-68579995D01*
X137367999Y-68580000D01*
X137400503Y-68743406D01*
X137493065Y-68881935D01*
X138128063Y-69516932D01*
X138128065Y-69516935D01*
X138249485Y-69598065D01*
X138266594Y-69609497D01*
X138430000Y-69642001D01*
X138430005Y-69642000D01*
X139523130Y-69642000D01*
X140162000Y-70280869D01*
X140162000Y-72189141D01*
X140056526Y-72257012D01*
X139981862Y-72366286D01*
X139955594Y-72496000D01*
X139955594Y-73996000D01*
X139978395Y-74117179D01*
X140050012Y-74228474D01*
X140159286Y-74303138D01*
X140289000Y-74329406D01*
X140889000Y-74329406D01*
X141010179Y-74306605D01*
X141121474Y-74234988D01*
X141196138Y-74125714D01*
X141222406Y-73996000D01*
X141222406Y-72496000D01*
X141199605Y-72374821D01*
X141127988Y-72263526D01*
X141018714Y-72188862D01*
X141016000Y-72188312D01*
X141016000Y-70104005D01*
X141016001Y-70104000D01*
X140983497Y-69940594D01*
X140970524Y-69921179D01*
X140890935Y-69802065D01*
X140890932Y-69802063D01*
X140001935Y-68913065D01*
X139863406Y-68820503D01*
X139700000Y-68787999D01*
X139699995Y-68788000D01*
X138606869Y-68788000D01*
X138222000Y-68403130D01*
X138222000Y-66802816D01*
X138264717Y-66794319D01*
X138662924Y-66528246D01*
X138928997Y-66130039D01*
X139022430Y-65660322D01*
X139022430Y-63879678D01*
X139107570Y-63879678D01*
X139107570Y-65660322D01*
X139201003Y-66130039D01*
X139467076Y-66528246D01*
X139865283Y-66794319D01*
X139908000Y-66802816D01*
X139908000Y-67309995D01*
X139907999Y-67310000D01*
X139940503Y-67473406D01*
X140033065Y-67611935D01*
X143208065Y-70786935D01*
X143346594Y-70879497D01*
X143510000Y-70912001D01*
X143510005Y-70912000D01*
X146592670Y-70912000D01*
X146473161Y-71199809D01*
X146472839Y-71568593D01*
X146570000Y-71803740D01*
X146570000Y-71861000D01*
X146462750Y-71861000D01*
X146304000Y-72019750D01*
X146304000Y-73119000D01*
X146324000Y-73119000D01*
X146324000Y-73373000D01*
X146304000Y-73373000D01*
X146304000Y-74472250D01*
X146462750Y-74631000D01*
X146603310Y-74631000D01*
X146828944Y-74537539D01*
X146898283Y-74584917D01*
X147147000Y-74635283D01*
X147747000Y-74635283D01*
X147979352Y-74591563D01*
X148192753Y-74454243D01*
X148294940Y-74304688D01*
X148417000Y-74329406D01*
X149017000Y-74329406D01*
X149138179Y-74306605D01*
X149249474Y-74234988D01*
X149324138Y-74125714D01*
X149350406Y-73996000D01*
X149350406Y-72496000D01*
X149327605Y-72374821D01*
X149255988Y-72263526D01*
X149146714Y-72188862D01*
X149144000Y-72188312D01*
X149144000Y-71185003D01*
X149144001Y-71184998D01*
X149111497Y-71021592D01*
X149097070Y-71000000D01*
X149018935Y-70883063D01*
X149018932Y-70883061D01*
X148318937Y-70183065D01*
X148180408Y-70090503D01*
X148017002Y-70057999D01*
X148016997Y-70058000D01*
X143686870Y-70058000D01*
X140762000Y-67133130D01*
X140762000Y-66802816D01*
X140804717Y-66794319D01*
X141202924Y-66528246D01*
X141468997Y-66130039D01*
X141562430Y-65660322D01*
X141562430Y-63879678D01*
X141647570Y-63879678D01*
X141647570Y-65660322D01*
X141741003Y-66130039D01*
X142007076Y-66528246D01*
X142405283Y-66794319D01*
X142448000Y-66802816D01*
X142448000Y-67406997D01*
X142447999Y-67407002D01*
X142480503Y-67570408D01*
X142573065Y-67708937D01*
X144666062Y-69801933D01*
X144666064Y-69801936D01*
X144737997Y-69850000D01*
X144804593Y-69894498D01*
X144967999Y-69927002D01*
X144968004Y-69927001D01*
X148698131Y-69927001D01*
X149560000Y-70788870D01*
X149560000Y-72189141D01*
X149454526Y-72257012D01*
X149379862Y-72366286D01*
X149353594Y-72496000D01*
X149353594Y-73996000D01*
X149376395Y-74117179D01*
X149448012Y-74228474D01*
X149557286Y-74303138D01*
X149687000Y-74329406D01*
X150287000Y-74329406D01*
X150408179Y-74306605D01*
X150519474Y-74234988D01*
X150594138Y-74125714D01*
X150620406Y-73996000D01*
X150620406Y-72496000D01*
X150597605Y-72374821D01*
X150525988Y-72263526D01*
X150416714Y-72188862D01*
X150414000Y-72188312D01*
X150414000Y-70612005D01*
X150414001Y-70612000D01*
X150381497Y-70448594D01*
X150288935Y-70310065D01*
X149176936Y-69198066D01*
X149038407Y-69105504D01*
X148875001Y-69073000D01*
X148874996Y-69073001D01*
X147357029Y-69073001D01*
X147484839Y-68765201D01*
X147485161Y-68396417D01*
X147344331Y-68055583D01*
X147083789Y-67794586D01*
X146945107Y-67737000D01*
X147778130Y-67737000D01*
X150830000Y-70788869D01*
X150830000Y-72189141D01*
X150724526Y-72257012D01*
X150649862Y-72366286D01*
X150623594Y-72496000D01*
X150623594Y-73996000D01*
X150646395Y-74117179D01*
X150718012Y-74228474D01*
X150827286Y-74303138D01*
X150957000Y-74329406D01*
X151557000Y-74329406D01*
X151678179Y-74306605D01*
X151789474Y-74234988D01*
X151864138Y-74125714D01*
X151890406Y-73996000D01*
X151890406Y-72496000D01*
X151867605Y-72374821D01*
X151795988Y-72263526D01*
X151686714Y-72188862D01*
X151684000Y-72188312D01*
X151684000Y-70612000D01*
X151651497Y-70448594D01*
X151558935Y-70310065D01*
X151558932Y-70310063D01*
X148985870Y-67737000D01*
X149048130Y-67737000D01*
X152100000Y-70788869D01*
X152100000Y-72189141D01*
X151994526Y-72257012D01*
X151919862Y-72366286D01*
X151893594Y-72496000D01*
X151893594Y-73996000D01*
X151916395Y-74117179D01*
X151988012Y-74228474D01*
X152097286Y-74303138D01*
X152227000Y-74329406D01*
X152827000Y-74329406D01*
X152948179Y-74306605D01*
X153059474Y-74234988D01*
X153134138Y-74125714D01*
X153160406Y-73996000D01*
X153160406Y-72496000D01*
X153137605Y-72374821D01*
X153065988Y-72263526D01*
X152956714Y-72188862D01*
X152954000Y-72188312D01*
X152954000Y-70612000D01*
X152921497Y-70448594D01*
X152828935Y-70310065D01*
X152828932Y-70310063D01*
X149526935Y-67008065D01*
X149388406Y-66915503D01*
X149225000Y-66882999D01*
X149224995Y-66883000D01*
X148766869Y-66883000D01*
X148576662Y-66692793D01*
X148822924Y-66528246D01*
X149088997Y-66130039D01*
X149182430Y-65660322D01*
X149182430Y-63879678D01*
X149088997Y-63409961D01*
X148822924Y-63011754D01*
X148424717Y-62745681D01*
X147955000Y-62652248D01*
X147485283Y-62745681D01*
X147087076Y-63011754D01*
X146821003Y-63409961D01*
X146727570Y-63879678D01*
X146727570Y-65660322D01*
X146821003Y-66130039D01*
X147087076Y-66528246D01*
X147485283Y-66794319D01*
X147554471Y-66808081D01*
X147560503Y-66838406D01*
X147590300Y-66883000D01*
X146226869Y-66883000D01*
X146036662Y-66692793D01*
X146282924Y-66528246D01*
X146548997Y-66130039D01*
X146642430Y-65660322D01*
X146642430Y-63879678D01*
X146548997Y-63409961D01*
X146282924Y-63011754D01*
X145884717Y-62745681D01*
X145415000Y-62652248D01*
X144945283Y-62745681D01*
X144547076Y-63011754D01*
X144281003Y-63409961D01*
X144187570Y-63879678D01*
X144187570Y-65660322D01*
X144281003Y-66130039D01*
X144547076Y-66528246D01*
X144945283Y-66794319D01*
X145014471Y-66808081D01*
X145020503Y-66838406D01*
X145113065Y-66976935D01*
X145748063Y-67611932D01*
X145748065Y-67611935D01*
X145831642Y-67667779D01*
X145886594Y-67704497D01*
X146050000Y-67737001D01*
X146050005Y-67737000D01*
X146170732Y-67737000D01*
X146033583Y-67793669D01*
X145772586Y-68054211D01*
X145631161Y-68394799D01*
X145630839Y-68763583D01*
X145758688Y-69073001D01*
X145144868Y-69073001D01*
X143302000Y-67230132D01*
X143302000Y-66802816D01*
X143344717Y-66794319D01*
X143742924Y-66528246D01*
X144008997Y-66130039D01*
X144102430Y-65660322D01*
X144102430Y-63879678D01*
X144008997Y-63409961D01*
X143742924Y-63011754D01*
X143344717Y-62745681D01*
X142875000Y-62652248D01*
X142405283Y-62745681D01*
X142007076Y-63011754D01*
X141741003Y-63409961D01*
X141647570Y-63879678D01*
X141562430Y-63879678D01*
X141468997Y-63409961D01*
X141202924Y-63011754D01*
X140804717Y-62745681D01*
X140335000Y-62652248D01*
X139865283Y-62745681D01*
X139467076Y-63011754D01*
X139201003Y-63409961D01*
X139107570Y-63879678D01*
X139022430Y-63879678D01*
X138928997Y-63409961D01*
X138662924Y-63011754D01*
X138264717Y-62745681D01*
X137795000Y-62652248D01*
X137325283Y-62745681D01*
X136927076Y-63011754D01*
X136661003Y-63409961D01*
X136567570Y-63879678D01*
X136482430Y-63879678D01*
X136388997Y-63409961D01*
X136122924Y-63011754D01*
X135724717Y-62745681D01*
X135255000Y-62652248D01*
X134785283Y-62745681D01*
X134387076Y-63011754D01*
X134121003Y-63409961D01*
X134027570Y-63879678D01*
X134027570Y-65660322D01*
X134121003Y-66130039D01*
X134387076Y-66528246D01*
X134785283Y-66794319D01*
X134828000Y-66802816D01*
X134828000Y-67628993D01*
X134827999Y-67628998D01*
X134860503Y-67792404D01*
X134953065Y-67930933D01*
X135713144Y-68691012D01*
X132847175Y-68691012D01*
X132041570Y-67885406D01*
X132041570Y-66896930D01*
X132184677Y-66753823D01*
X132245283Y-66794319D01*
X132715000Y-66887752D01*
X133184717Y-66794319D01*
X133582924Y-66528246D01*
X133848997Y-66130039D01*
X133942430Y-65660322D01*
X133942430Y-63879678D01*
X133848997Y-63409961D01*
X133582924Y-63011754D01*
X133184717Y-62745681D01*
X132715000Y-62652248D01*
X132245283Y-62745681D01*
X131847076Y-63011754D01*
X131581003Y-63409961D01*
X131487570Y-63879678D01*
X131487570Y-65660322D01*
X131581003Y-66130039D01*
X131588901Y-66141859D01*
X131312635Y-66418125D01*
X131220073Y-66556654D01*
X131187569Y-66720060D01*
X131187570Y-66720065D01*
X131187570Y-67597106D01*
X130602000Y-67011536D01*
X130602000Y-66802816D01*
X130644717Y-66794319D01*
X131042924Y-66528246D01*
X131308997Y-66130039D01*
X131402430Y-65660322D01*
X131402430Y-63879678D01*
X131308997Y-63409961D01*
X131042924Y-63011754D01*
X130644717Y-62745681D01*
X130175000Y-62652248D01*
X129705283Y-62745681D01*
X129307076Y-63011754D01*
X129041003Y-63409961D01*
X128981404Y-63709582D01*
X128877059Y-63356059D01*
X128533026Y-62930370D01*
X128052277Y-62668740D01*
X127978070Y-62653780D01*
X127762000Y-62776280D01*
X127762000Y-64643000D01*
X127782000Y-64643000D01*
X127782000Y-64897000D01*
X127762000Y-64897000D01*
X127762000Y-66763720D01*
X127978070Y-66886220D01*
X128052277Y-66871260D01*
X128533026Y-66609630D01*
X128877059Y-66183941D01*
X128981404Y-65830418D01*
X129041003Y-66130039D01*
X129307076Y-66528246D01*
X129705283Y-66794319D01*
X129748000Y-66802816D01*
X129748000Y-67188401D01*
X129747999Y-67188406D01*
X129780503Y-67351812D01*
X129873065Y-67490341D01*
X132202682Y-69819958D01*
X132341211Y-69912520D01*
X132504617Y-69945024D01*
X132504622Y-69945023D01*
X133214021Y-69945023D01*
X133072586Y-70086211D01*
X132931161Y-70426799D01*
X132930839Y-70795583D01*
X133071669Y-71136417D01*
X133332211Y-71397414D01*
X133672799Y-71538839D01*
X134041583Y-71539161D01*
X134382417Y-71398331D01*
X134643414Y-71137789D01*
X134784839Y-70797201D01*
X134785161Y-70428417D01*
X134644331Y-70087583D01*
X134502020Y-69945023D01*
X135687178Y-69945023D01*
X136852000Y-71109844D01*
X136852000Y-71666833D01*
X136731662Y-71375593D01*
X136471120Y-71114596D01*
X136130532Y-70973171D01*
X135761748Y-70972849D01*
X135640349Y-71023010D01*
X135604990Y-71023010D01*
X135269376Y-71089768D01*
X135155414Y-71165915D01*
X134984857Y-71279877D01*
X134984855Y-71279880D01*
X134888867Y-71375867D01*
X134698758Y-71660387D01*
X134658853Y-71861000D01*
X134524750Y-71861000D01*
X134366000Y-72019750D01*
X134366000Y-73119000D01*
X134386000Y-73119000D01*
X134386000Y-73373000D01*
X134366000Y-73373000D01*
X134366000Y-73393000D01*
X134112000Y-73393000D01*
X134112000Y-73373000D01*
X134092000Y-73373000D01*
X134092000Y-73119000D01*
X134112000Y-73119000D01*
X134112000Y-72019750D01*
X133953250Y-71861000D01*
X133812690Y-71861000D01*
X133579301Y-71957673D01*
X133400673Y-72136302D01*
X133396000Y-72147584D01*
X133396000Y-72009005D01*
X133396001Y-72009000D01*
X133363497Y-71845594D01*
X133270935Y-71707065D01*
X132657024Y-71093154D01*
X132657100Y-71005731D01*
X132569442Y-70793583D01*
X132407271Y-70631129D01*
X132195276Y-70543100D01*
X131965731Y-70542900D01*
X131753583Y-70630558D01*
X131591129Y-70792729D01*
X131503100Y-71004724D01*
X131503023Y-71093108D01*
X129523130Y-73073000D01*
X127401867Y-73073000D01*
X127313867Y-72985000D01*
X127314250Y-72985000D01*
X127473000Y-72826250D01*
X127473000Y-71727000D01*
X127727000Y-71727000D01*
X127727000Y-72826250D01*
X127885750Y-72985000D01*
X128351310Y-72985000D01*
X128584699Y-72888327D01*
X128763327Y-72709698D01*
X128860000Y-72476309D01*
X128860000Y-71885750D01*
X128701250Y-71727000D01*
X127727000Y-71727000D01*
X127473000Y-71727000D01*
X127453000Y-71727000D01*
X127453000Y-71473000D01*
X127473000Y-71473000D01*
X127473000Y-71453000D01*
X127727000Y-71453000D01*
X127727000Y-71473000D01*
X128701250Y-71473000D01*
X128860000Y-71314250D01*
X128860000Y-70723691D01*
X128763327Y-70490302D01*
X128616305Y-70343279D01*
X128670753Y-70308243D01*
X128813917Y-70098717D01*
X128838565Y-69977000D01*
X129500000Y-69977000D01*
X129750700Y-69927132D01*
X129783583Y-69927161D01*
X129814242Y-69914493D01*
X129835613Y-69910242D01*
X129853573Y-69898242D01*
X130124417Y-69786331D01*
X130385414Y-69525789D01*
X130526839Y-69185201D01*
X130527161Y-68816417D01*
X130386331Y-68475583D01*
X130125789Y-68214586D01*
X129785201Y-68073161D01*
X129416417Y-68072839D01*
X129075583Y-68213669D01*
X129066236Y-68223000D01*
X128840386Y-68223000D01*
X128820563Y-68117648D01*
X128683243Y-67904247D01*
X128473717Y-67761083D01*
X128225000Y-67710717D01*
X126975000Y-67710717D01*
X126742648Y-67754437D01*
X126529247Y-67891757D01*
X126386083Y-68101283D01*
X126335717Y-68350000D01*
X126335717Y-69648623D01*
X126301935Y-69598065D01*
X126301932Y-69598063D01*
X125401935Y-68698065D01*
X125263406Y-68605503D01*
X125233406Y-68599536D01*
X125233406Y-68200000D01*
X125210605Y-68078821D01*
X125138988Y-67967526D01*
X125029714Y-67892862D01*
X124900000Y-67866594D01*
X123200000Y-67866594D01*
X123078821Y-67889395D01*
X122967526Y-67961012D01*
X122892862Y-68070286D01*
X122866594Y-68200000D01*
X122866594Y-69637289D01*
X122704247Y-69741757D01*
X122561083Y-69951283D01*
X122526310Y-70123000D01*
X121305226Y-70123000D01*
X121185201Y-70073161D01*
X120816417Y-70072839D01*
X120475583Y-70213669D01*
X120214586Y-70474211D01*
X120073161Y-70814799D01*
X120072839Y-71183583D01*
X120213669Y-71524417D01*
X120474211Y-71785414D01*
X120814799Y-71926839D01*
X121183583Y-71927161D01*
X121304982Y-71877000D01*
X122525206Y-71877000D01*
X122549731Y-72007342D01*
X122526310Y-72123000D01*
X121305226Y-72123000D01*
X121185201Y-72073161D01*
X120816417Y-72072839D01*
X120475583Y-72213669D01*
X120214586Y-72474211D01*
X120073161Y-72814799D01*
X120072839Y-73183583D01*
X120213669Y-73524417D01*
X120474211Y-73785414D01*
X120814799Y-73926839D01*
X121183583Y-73927161D01*
X121304982Y-73877000D01*
X122525206Y-73877000D01*
X122554437Y-74032352D01*
X122691757Y-74245753D01*
X122816594Y-74331051D01*
X122816594Y-75373000D01*
X119127000Y-75373000D01*
X119127000Y-66161761D01*
X119244961Y-66338302D01*
X119598258Y-66574368D01*
X120015000Y-66657263D01*
X120431742Y-66574368D01*
X120785039Y-66338302D01*
X121021105Y-65985005D01*
X121104000Y-65568263D01*
X121104000Y-64897000D01*
X121158000Y-64897000D01*
X121158000Y-65659000D01*
X121312941Y-66183941D01*
X121656974Y-66609630D01*
X122137723Y-66871260D01*
X122211930Y-66886220D01*
X122428000Y-66763720D01*
X122428000Y-64897000D01*
X121158000Y-64897000D01*
X121104000Y-64897000D01*
X121104000Y-63971737D01*
X121085952Y-63881000D01*
X121158000Y-63881000D01*
X121158000Y-64643000D01*
X122428000Y-64643000D01*
X122428000Y-62776280D01*
X122682000Y-62776280D01*
X122682000Y-64643000D01*
X122702000Y-64643000D01*
X122702000Y-64897000D01*
X122682000Y-64897000D01*
X122682000Y-66763720D01*
X122898070Y-66886220D01*
X122972277Y-66871260D01*
X123453026Y-66609630D01*
X123797059Y-66183941D01*
X123817575Y-66114434D01*
X124112829Y-66556312D01*
X124563453Y-66857410D01*
X125095000Y-66963141D01*
X125626547Y-66857410D01*
X126077171Y-66556312D01*
X126372425Y-66114434D01*
X126392941Y-66183941D01*
X126736974Y-66609630D01*
X127217723Y-66871260D01*
X127291930Y-66886220D01*
X127508000Y-66763720D01*
X127508000Y-64897000D01*
X127488000Y-64897000D01*
X127488000Y-64643000D01*
X127508000Y-64643000D01*
X127508000Y-62776280D01*
X127291930Y-62653780D01*
X127217723Y-62668740D01*
X126736974Y-62930370D01*
X126392941Y-63356059D01*
X126372425Y-63425566D01*
X126077171Y-62983688D01*
X125626547Y-62682590D01*
X125095000Y-62576859D01*
X124563453Y-62682590D01*
X124112829Y-62983688D01*
X123817575Y-63425566D01*
X123797059Y-63356059D01*
X123453026Y-62930370D01*
X122972277Y-62668740D01*
X122898070Y-62653780D01*
X122682000Y-62776280D01*
X122428000Y-62776280D01*
X122211930Y-62653780D01*
X122137723Y-62668740D01*
X121656974Y-62930370D01*
X121312941Y-63356059D01*
X121158000Y-63881000D01*
X121085952Y-63881000D01*
X121021105Y-63554995D01*
X120785039Y-63201698D01*
X120431742Y-62965632D01*
X120015000Y-62882737D01*
X119598258Y-62965632D01*
X119244961Y-63201698D01*
X119127000Y-63378239D01*
X119127000Y-60402000D01*
X152960405Y-60402000D01*
X153318739Y-60473277D01*
M02*
