G04 #@! TF.FileFunction,Soldermask,Bot*
%FSLAX46Y46*%
G04 Gerber Fmt 4.6, Leading zero omitted, Abs format (unit mm)*
G04 Created by KiCad (PCBNEW 4.0.6) date 08/02/17 17:45:47*
%MOMM*%
%LPD*%
G01*
G04 APERTURE LIST*
%ADD10C,0.100000*%
%ADD11C,2.198320*%
%ADD12C,2.200000*%
%ADD13C,2.800000*%
%ADD14O,1.924000X3.448000*%
%ADD15O,2.200860X3.900120*%
%ADD16R,1.850000X0.850000*%
%ADD17R,1.000000X1.900000*%
%ADD18R,1.600000X1.150000*%
%ADD19R,1.900000X1.650000*%
%ADD20R,1.650000X1.900000*%
%ADD21R,1.300000X1.600000*%
%ADD22R,1.200000X1.300000*%
%ADD23R,1.050000X1.460000*%
%ADD24R,2.100000X2.000000*%
%ADD25C,6.800000*%
G04 APERTURE END LIST*
D10*
D11*
X114810000Y-88365000D03*
X114175000Y-91540000D03*
X111000000Y-93445000D03*
X107825000Y-91540000D03*
X107190000Y-87730000D03*
X119255000Y-99160000D03*
X119255000Y-82015000D03*
X117350000Y-82650000D03*
X121160000Y-81380000D03*
D12*
X140555000Y-88365000D03*
D13*
X141825000Y-91540000D03*
D12*
X145000000Y-93445000D03*
D13*
X148175000Y-91540000D03*
D12*
X148810000Y-87730000D03*
X145000000Y-97225000D03*
X136110000Y-89000000D03*
X138015000Y-89635000D03*
X134205000Y-88365000D03*
D14*
X125095000Y-64770000D03*
X127635000Y-64770000D03*
D15*
X140335000Y-64770000D03*
X142875000Y-64770000D03*
X145415000Y-64770000D03*
X147955000Y-64770000D03*
D16*
X125984000Y-96438000D03*
X125984000Y-95788000D03*
X125984000Y-95138000D03*
X125984000Y-94488000D03*
X125984000Y-93838000D03*
X125984000Y-93188000D03*
X125984000Y-92538000D03*
X131884000Y-92538000D03*
X131884000Y-93188000D03*
X131884000Y-93838000D03*
X131884000Y-94488000D03*
X131884000Y-95138000D03*
X131884000Y-95788000D03*
X131884000Y-96438000D03*
D17*
X131699000Y-73246000D03*
X132969000Y-73246000D03*
X134239000Y-73246000D03*
X135509000Y-73246000D03*
X136779000Y-73246000D03*
X138049000Y-73246000D03*
X139319000Y-73246000D03*
X140589000Y-73246000D03*
X140589000Y-78646000D03*
X139319000Y-78646000D03*
X138049000Y-78646000D03*
X136779000Y-78646000D03*
X135509000Y-78646000D03*
X134239000Y-78646000D03*
X132969000Y-78646000D03*
X131699000Y-78646000D03*
D18*
X109550000Y-72500000D03*
X111450000Y-72500000D03*
D19*
X109250000Y-74500000D03*
X111750000Y-74500000D03*
D18*
X142560000Y-82042000D03*
X144460000Y-82042000D03*
X130050000Y-82000000D03*
X131950000Y-82000000D03*
D20*
X127600000Y-69100000D03*
X127600000Y-71600000D03*
D21*
X108850000Y-77000000D03*
X112150000Y-77000000D03*
X108850000Y-70500000D03*
X112150000Y-70500000D03*
D22*
X111633000Y-85090000D03*
X109733000Y-85090000D03*
X110683000Y-83090000D03*
X105090000Y-85058000D03*
X103190000Y-85058000D03*
X104140000Y-83058000D03*
D15*
X130175000Y-64770000D03*
X132715000Y-64770000D03*
X135255000Y-64770000D03*
X137795000Y-64770000D03*
D14*
X120015000Y-64770000D03*
X122555000Y-64770000D03*
D21*
X131064000Y-84287000D03*
X131064000Y-86487000D03*
D23*
X106000000Y-70700000D03*
X105050000Y-70700000D03*
X104100000Y-70700000D03*
X104100000Y-68500000D03*
X106000000Y-68500000D03*
D24*
X124050000Y-69000000D03*
X124000000Y-71000000D03*
X124000000Y-73000000D03*
X124000000Y-75000000D03*
X114950000Y-69000000D03*
X115000000Y-71000000D03*
X115000000Y-73000000D03*
X115000000Y-75000000D03*
D17*
X143637000Y-73246000D03*
X144907000Y-73246000D03*
X146177000Y-73246000D03*
X147447000Y-73246000D03*
X148717000Y-73246000D03*
X149987000Y-73246000D03*
X151257000Y-73246000D03*
X152527000Y-73246000D03*
X152527000Y-78646000D03*
X151257000Y-78646000D03*
X149987000Y-78646000D03*
X148717000Y-78646000D03*
X147447000Y-78646000D03*
X146177000Y-78646000D03*
X144907000Y-78646000D03*
X143637000Y-78646000D03*
D25*
X104000000Y-64000000D03*
X104000000Y-97000000D03*
X153000000Y-64000000D03*
X153000000Y-97000000D03*
M02*
