G04 #@! TF.FileFunction,Legend,Bot*
%FSLAX46Y46*%
G04 Gerber Fmt 4.6, Leading zero omitted, Abs format (unit mm)*
G04 Created by KiCad (PCBNEW 4.0.6) date 08/02/17 17:45:46*
%MOMM*%
%LPD*%
G01*
G04 APERTURE LIST*
%ADD10C,0.100000*%
%ADD11C,0.150000*%
%ADD12C,0.120000*%
%ADD13C,0.800000*%
G04 APERTURE END LIST*
D10*
D11*
X126609000Y-97113000D02*
X126609000Y-96988000D01*
X131259000Y-97113000D02*
X131259000Y-96888000D01*
X131259000Y-91863000D02*
X131259000Y-92088000D01*
X126609000Y-91863000D02*
X126609000Y-92088000D01*
X126609000Y-97113000D02*
X131259000Y-97113000D01*
X126609000Y-91863000D02*
X131259000Y-91863000D01*
X126609000Y-96988000D02*
X125259000Y-96988000D01*
X131069000Y-73871000D02*
X131094000Y-73871000D01*
X131069000Y-78021000D02*
X131174000Y-78021000D01*
X141219000Y-78021000D02*
X141114000Y-78021000D01*
X141219000Y-73871000D02*
X141114000Y-73871000D01*
X131069000Y-73871000D02*
X131069000Y-78021000D01*
X141219000Y-73871000D02*
X141219000Y-78021000D01*
X131094000Y-73871000D02*
X131094000Y-72496000D01*
D12*
X110150000Y-73100000D02*
X110850000Y-73100000D01*
X110850000Y-71900000D02*
X110150000Y-71900000D01*
X111000000Y-75350000D02*
X110000000Y-75350000D01*
X110000000Y-73650000D02*
X111000000Y-73650000D01*
X143160000Y-82642000D02*
X143860000Y-82642000D01*
X143860000Y-81442000D02*
X143160000Y-81442000D01*
X130650000Y-82600000D02*
X131350000Y-82600000D01*
X131350000Y-81400000D02*
X130650000Y-81400000D01*
X126750000Y-70850000D02*
X126750000Y-69850000D01*
X128450000Y-69850000D02*
X128450000Y-70850000D01*
X108250000Y-78000000D02*
X108250000Y-76000000D01*
X108250000Y-76000000D02*
X112150000Y-76000000D01*
X108250000Y-78000000D02*
X112150000Y-78000000D01*
X108250000Y-71500000D02*
X108250000Y-69500000D01*
X108250000Y-69500000D02*
X112150000Y-69500000D01*
X108250000Y-71500000D02*
X112150000Y-71500000D01*
X109103000Y-83330000D02*
X110033000Y-83330000D01*
X112263000Y-83330000D02*
X111333000Y-83330000D01*
X112263000Y-83330000D02*
X112263000Y-85490000D01*
X109103000Y-83330000D02*
X109103000Y-84790000D01*
X102560000Y-83298000D02*
X103490000Y-83298000D01*
X105720000Y-83298000D02*
X104790000Y-83298000D01*
X105720000Y-83298000D02*
X105720000Y-85458000D01*
X102560000Y-83298000D02*
X102560000Y-84758000D01*
X131744000Y-85887000D02*
X131744000Y-84887000D01*
X130384000Y-84887000D02*
X130384000Y-85887000D01*
X103440000Y-70500000D02*
X103440000Y-68700000D01*
X106660000Y-68700000D02*
X106660000Y-71150000D01*
D13*
X121516228Y-69000000D02*
G75*
G03X121516228Y-69000000I-316228J0D01*
G01*
D11*
X143007000Y-73871000D02*
X143032000Y-73871000D01*
X143007000Y-78021000D02*
X143112000Y-78021000D01*
X153157000Y-78021000D02*
X153052000Y-78021000D01*
X153157000Y-73871000D02*
X153052000Y-73871000D01*
X143007000Y-73871000D02*
X143007000Y-78021000D01*
X153157000Y-73871000D02*
X153157000Y-78021000D01*
X143032000Y-73871000D02*
X143032000Y-72496000D01*
X110952381Y-67261905D02*
X109952381Y-67261905D01*
X109952381Y-67500000D01*
X110000000Y-67642858D01*
X110095238Y-67738096D01*
X110190476Y-67785715D01*
X110380952Y-67833334D01*
X110523810Y-67833334D01*
X110714286Y-67785715D01*
X110809524Y-67738096D01*
X110904762Y-67642858D01*
X110952381Y-67500000D01*
X110952381Y-67261905D01*
X109952381Y-68166667D02*
X109952381Y-68785715D01*
X110333333Y-68452381D01*
X110333333Y-68595239D01*
X110380952Y-68690477D01*
X110428571Y-68738096D01*
X110523810Y-68785715D01*
X110761905Y-68785715D01*
X110857143Y-68738096D01*
X110904762Y-68690477D01*
X110952381Y-68595239D01*
X110952381Y-68309524D01*
X110904762Y-68214286D01*
X110857143Y-68166667D01*
M02*
