G04 #@! TF.FileFunction,Legend,Top*
%FSLAX46Y46*%
G04 Gerber Fmt 4.6, Leading zero omitted, Abs format (unit mm)*
G04 Created by KiCad (PCBNEW 4.0.6) date 05/24/17 17:40:22*
%MOMM*%
%LPD*%
G01*
G04 APERTURE LIST*
%ADD10C,0.100000*%
%ADD11C,0.066040*%
%ADD12C,0.101600*%
%ADD13C,0.129540*%
%ADD14C,0.139700*%
%ADD15C,0.198120*%
%ADD16C,0.150000*%
G04 APERTURE END LIST*
D10*
D11*
X141498080Y-111388600D02*
X142829040Y-111388600D01*
X142829040Y-111388600D02*
X142829040Y-110687560D01*
X141498080Y-110687560D02*
X142829040Y-110687560D01*
X141498080Y-111388600D02*
X141498080Y-110687560D01*
D12*
X123060220Y-106499100D02*
X123060220Y-93971820D01*
X128551700Y-112168380D02*
X128551700Y-113428220D01*
X128551700Y-113428220D02*
X143918700Y-113428220D01*
X144929620Y-106798820D02*
X144929620Y-94761760D01*
X144929620Y-94761760D02*
X144769600Y-94761760D01*
X129501660Y-113489180D02*
X129501660Y-114759180D01*
X129501660Y-114759180D02*
X129671840Y-114929360D01*
X129671840Y-114929360D02*
X130720860Y-114929360D01*
X130720860Y-114929360D02*
X130891040Y-114759180D01*
X130891040Y-114759180D02*
X130891040Y-113468860D01*
X137098800Y-113489180D02*
X137098800Y-114749020D01*
X137098800Y-114749020D02*
X137279140Y-114929360D01*
X137279140Y-114929360D02*
X138328160Y-114929360D01*
X138328160Y-114929360D02*
X138498340Y-114759180D01*
X138498340Y-114759180D02*
X138498340Y-113479020D01*
X139389880Y-91591840D02*
X139417820Y-91490240D01*
X128602500Y-91510560D02*
X128640600Y-91591840D01*
X123060220Y-106908040D02*
X123060220Y-106519420D01*
X126301260Y-99300740D02*
X127510300Y-99300740D01*
X127510300Y-99300740D02*
X127510300Y-99872240D01*
X127510300Y-99872240D02*
X126910860Y-100471680D01*
X126910860Y-100471680D02*
X126910860Y-101518160D01*
X126910860Y-101518160D02*
X127510300Y-102117600D01*
X127510300Y-102117600D02*
X127510300Y-102689100D01*
X127510300Y-102689100D02*
X126301260Y-102689100D01*
X141698740Y-102699260D02*
X140489700Y-102699260D01*
X140489700Y-102699260D02*
X140489700Y-102127760D01*
X140489700Y-102127760D02*
X141089140Y-101528320D01*
X141089140Y-101528320D02*
X141089140Y-100481840D01*
X141089140Y-100481840D02*
X140489700Y-99882400D01*
X140489700Y-99882400D02*
X140489700Y-99310900D01*
X140489700Y-99310900D02*
X141698740Y-99310900D01*
X123011960Y-100550420D02*
X122062000Y-100550420D01*
X122062000Y-100550420D02*
X122062000Y-101449580D01*
X122062000Y-101449580D02*
X123011960Y-101449580D01*
X144967720Y-100550420D02*
X145938000Y-100550420D01*
X145938000Y-100550420D02*
X145938000Y-101449580D01*
X145938000Y-101449580D02*
X144967720Y-101449580D01*
X131231400Y-93440960D02*
X131061220Y-92920260D01*
X131061220Y-92920260D02*
X131841000Y-92701820D01*
X131841000Y-92701820D02*
X131790200Y-92541800D01*
X136199640Y-92551960D02*
X136159000Y-92681500D01*
X136159000Y-92681500D02*
X136959100Y-92940580D01*
X136959100Y-92940580D02*
X136748280Y-93481600D01*
X131150120Y-101000000D02*
G75*
G03X131150120Y-101000000I-1188720J0D01*
G01*
X139237480Y-101000000D02*
G75*
G03X139237480Y-101000000I-1188720J0D01*
G01*
X135198880Y-104949700D02*
G75*
G03X135198880Y-104949700I-1198880J0D01*
G01*
X125229380Y-91111780D02*
G75*
G03X125229380Y-91111780I-1117600J0D01*
G01*
X125661180Y-91111780D02*
G75*
G03X125661180Y-91111780I-1549400J0D01*
G01*
X145308080Y-110888220D02*
G75*
G03X145308080Y-110888220I-1419860J0D01*
G01*
X145005820Y-110888220D02*
G75*
G03X145005820Y-110888220I-1117600J0D01*
G01*
X123061255Y-93971181D02*
G75*
G03X122910360Y-93750840I-237255J-639D01*
G01*
X125129668Y-88412124D02*
G75*
G03X122910360Y-93750840I-1000108J-2714896D01*
G01*
X125796062Y-88711361D02*
G75*
G03X125130320Y-88411760I-17498322J-37993439D01*
G01*
X125848108Y-88734002D02*
G75*
G03X129600720Y-89316000I2807732J5714662D01*
G01*
X144918023Y-95091063D02*
G75*
G03X138320540Y-89382040I-11271083J-6358517D01*
G01*
X123074903Y-106944924D02*
G75*
G03X128551700Y-112168380I11047017J6099864D01*
G01*
X143918932Y-113431328D02*
G75*
G03X146039600Y-109498840I-61192J2571048D01*
G01*
X144930368Y-106805976D02*
G75*
G03X146039600Y-109498840I5493272J687876D01*
G01*
X125404586Y-94400832D02*
G75*
G03X127401080Y-92412260I-1208986J3210312D01*
G01*
X125401685Y-94402325D02*
G75*
G03X140558280Y-109628380I8600855J-6595135D01*
G01*
X142596071Y-107589467D02*
G75*
G03X140558280Y-109628380I1287069J-3324153D01*
G01*
X142604404Y-107584018D02*
G75*
G03X139389880Y-91591840I-8619644J6586558D01*
G01*
X139417145Y-91492862D02*
G75*
G03X128602500Y-91510560I-5391745J-9527458D01*
G01*
X128632187Y-91596893D02*
G75*
G03X127411240Y-92402100I5075713J-9024647D01*
G01*
X138893119Y-94755830D02*
G75*
G03X135747520Y-93250460I-4982019J-6371170D01*
G01*
X140237024Y-96101837D02*
G75*
G03X138899660Y-94761760I-737924J600937D01*
G01*
X138297399Y-89372683D02*
G75*
G03X129603260Y-89316000I-4432019J-13001457D01*
G01*
X127782510Y-111808347D02*
G75*
G03X128490740Y-112927840I726010J-324473D01*
G01*
X136197454Y-92550899D02*
G75*
G03X131790200Y-92541800I-2220314J-8078261D01*
G01*
X135737807Y-93259478D02*
G75*
G03X132181360Y-93270780I-1753047J-7928482D01*
G01*
X132166406Y-93270323D02*
G75*
G03X132572520Y-108909560I1808194J-7777937D01*
G01*
X135369102Y-108904531D02*
G75*
G03X140238240Y-96100340I-1389422J7856271D01*
G01*
D11*
X96781820Y-89300760D02*
X96921520Y-89300760D01*
X96921520Y-89300760D02*
X96921520Y-88200940D01*
X96781820Y-88200940D02*
X96921520Y-88200940D01*
X96781820Y-89300760D02*
X96781820Y-88200940D01*
X97795280Y-88940080D02*
X97937520Y-88940080D01*
X97937520Y-88940080D02*
X97937520Y-88195860D01*
X97795280Y-88195860D02*
X97937520Y-88195860D01*
X97795280Y-88940080D02*
X97795280Y-88195860D01*
X98506480Y-88922300D02*
X98646180Y-88922300D01*
X98646180Y-88922300D02*
X98646180Y-88195860D01*
X98506480Y-88195860D02*
X98646180Y-88195860D01*
X98506480Y-88922300D02*
X98506480Y-88195860D01*
X99911100Y-89295680D02*
X100048260Y-89295680D01*
X100048260Y-89295680D02*
X100048260Y-88200940D01*
X99911100Y-88200940D02*
X100048260Y-88200940D01*
X99911100Y-89295680D02*
X99911100Y-88200940D01*
X100619760Y-89295680D02*
X100759460Y-89295680D01*
X100759460Y-89295680D02*
X100759460Y-88195860D01*
X100619760Y-88195860D02*
X100759460Y-88195860D01*
X100619760Y-89295680D02*
X100619760Y-88195860D01*
X100033020Y-88777520D02*
X100637540Y-88777520D01*
X100637540Y-88777520D02*
X100637540Y-88645440D01*
X100033020Y-88645440D02*
X100637540Y-88645440D01*
X100033020Y-88777520D02*
X100033020Y-88645440D01*
X99530100Y-88515900D02*
X99677420Y-88515900D01*
X99677420Y-88515900D02*
X99677420Y-88457480D01*
X99530100Y-88457480D02*
X99677420Y-88457480D01*
X99530100Y-88515900D02*
X99530100Y-88457480D01*
X98851920Y-88975640D02*
X98991620Y-88975640D01*
X98991620Y-88975640D02*
X98991620Y-88927380D01*
X98851920Y-88927380D02*
X98991620Y-88927380D01*
X98851920Y-88975640D02*
X98851920Y-88927380D01*
D12*
X97650500Y-90751100D02*
X97650500Y-90332000D01*
X97251720Y-89900200D02*
X96941840Y-89890040D01*
X104937760Y-87040160D02*
X104937760Y-88000280D01*
X94810780Y-91520720D02*
X95151140Y-92120160D01*
X104848860Y-92130320D02*
X105189220Y-91510560D01*
D13*
X96870720Y-88266980D02*
X97272040Y-88266980D01*
X97282200Y-88780060D02*
X96891040Y-88780060D01*
D14*
X98920500Y-88990880D02*
X98925580Y-89016280D01*
D15*
X100000000Y-86661700D02*
X100000000Y-85272320D01*
X99685040Y-85770160D02*
X99365000Y-85582200D01*
X100317500Y-86125760D02*
X100624840Y-86311180D01*
D12*
X89301520Y-107388100D02*
X88280440Y-107388100D01*
X88280440Y-107388100D02*
X88062000Y-107169660D01*
X88062000Y-107169660D02*
X88062000Y-106499100D01*
X88062000Y-106499100D02*
X89060220Y-106499100D01*
X89060220Y-106499100D02*
X89060220Y-93971820D01*
X94881900Y-112338560D02*
X94881900Y-113428220D01*
X94881900Y-113428220D02*
X109918700Y-113428220D01*
X110939780Y-108327900D02*
X110939780Y-94611900D01*
X110939780Y-94611900D02*
X110708640Y-94611900D01*
X95501660Y-113489180D02*
X95501660Y-114759180D01*
X95501660Y-114759180D02*
X95671840Y-114929360D01*
X95671840Y-114929360D02*
X96720860Y-114929360D01*
X96720860Y-114929360D02*
X96891040Y-114759180D01*
X96891040Y-114759180D02*
X96891040Y-113468860D01*
X103098800Y-113489180D02*
X103098800Y-114749020D01*
X103098800Y-114749020D02*
X103279140Y-114929360D01*
X103279140Y-114929360D02*
X104328160Y-114929360D01*
X104328160Y-114929360D02*
X104498340Y-114759180D01*
X104498340Y-114759180D02*
X104498340Y-113479020D01*
X105389880Y-91591840D02*
X105417820Y-91490240D01*
X94602500Y-91510560D02*
X94640600Y-91591840D01*
X101587500Y-93331740D02*
X101318260Y-93811800D01*
X101028700Y-93961660D02*
X98991620Y-93961660D01*
X98702060Y-93821960D02*
X98430280Y-93380000D01*
X110988040Y-107388100D02*
X111719560Y-107388100D01*
X111719560Y-107388100D02*
X111938000Y-107169660D01*
X111938000Y-107169660D02*
X111938000Y-106488940D01*
X111938000Y-106488940D02*
X110988040Y-106488940D01*
X89060220Y-107350000D02*
X89060220Y-106519420D01*
X97150120Y-101000000D02*
G75*
G03X97150120Y-101000000I-1188720J0D01*
G01*
X105237480Y-101000000D02*
G75*
G03X105237480Y-101000000I-1188720J0D01*
G01*
X101198880Y-104949700D02*
G75*
G03X101198880Y-104949700I-1198880J0D01*
G01*
D15*
X101143000Y-85945420D02*
G75*
G03X101143000Y-85945420I-1143000J0D01*
G01*
D12*
X91229380Y-91111780D02*
G75*
G03X91229380Y-91111780I-1117600J0D01*
G01*
X91661180Y-91111780D02*
G75*
G03X91661180Y-91111780I-1549400J0D01*
G01*
X97654112Y-90330774D02*
G75*
G03X97251720Y-89900200I-432872J-1226D01*
G01*
X95072493Y-88074947D02*
G75*
G03X96941840Y-89890040I1930307J117847D01*
G01*
X95062350Y-87093244D02*
G75*
G03X95072400Y-88071400I10004950J-386336D01*
G01*
X96411641Y-85271348D02*
G75*
G03X95062240Y-87090960I634339J-1880572D01*
G01*
X99997988Y-84602746D02*
G75*
G03X96410980Y-85272320I57892J-10252994D01*
G01*
X103736957Y-85319923D02*
G75*
G03X100000000Y-84601760I-3759817J-9482477D01*
G01*
X104938542Y-87041722D02*
G75*
G03X103738880Y-85320580I-1974362J-97498D01*
G01*
X103050700Y-89890009D02*
G75*
G03X104937760Y-88000280I-23020J1910049D01*
G01*
X103024493Y-89889815D02*
G75*
G03X102748280Y-89890040I-126353J-14386785D01*
G01*
X102748370Y-89892333D02*
G75*
G03X102339340Y-90321840I58330J-465067D01*
G01*
X102339527Y-90733222D02*
G75*
G03X102339340Y-90321840I-16835307J198022D01*
G01*
X97541467Y-90465527D02*
G75*
G03X94810780Y-91520720I2669353J-10968813D01*
G01*
X104841805Y-92124650D02*
G75*
G03X95151140Y-92120160I-4849425J-8829630D01*
G01*
X105177588Y-91505700D02*
G75*
G03X102448560Y-90471700I-5456988J-10284240D01*
G01*
D13*
X97282335Y-88779853D02*
G75*
G03X97272040Y-88266980I-10295J256333D01*
G01*
D14*
X97864551Y-88870153D02*
G75*
G03X98120400Y-89237260I393009J1193D01*
G01*
X98121210Y-89237374D02*
G75*
G03X98310900Y-89242340I121110J1000874D01*
G01*
X98310353Y-89238907D02*
G75*
G03X98575060Y-88871500I-90893J344547D01*
G01*
X98924969Y-89014756D02*
G75*
G03X99055120Y-89191540I252071J49276D01*
G01*
X99055495Y-89192556D02*
G75*
G03X99215140Y-89247420I251085J470916D01*
G01*
X99215131Y-89246978D02*
G75*
G03X99365000Y-89247420I76209J431358D01*
G01*
X99367349Y-89246959D02*
G75*
G03X99456440Y-89227100I-169989J972359D01*
G01*
X99456054Y-89225734D02*
G75*
G03X99580900Y-89135660I-58034J211994D01*
G01*
X99581530Y-89137257D02*
G75*
G03X99616460Y-89067080I-262250J174317D01*
G01*
X99616452Y-89066634D02*
G75*
G03X99611380Y-88901980I-215892J75754D01*
G01*
X99612686Y-88900332D02*
G75*
G03X99486920Y-88785140I-189266J-80388D01*
G01*
X99486210Y-88786679D02*
G75*
G03X99331980Y-88741960I-751130J-2302241D01*
G01*
X99171304Y-88698357D02*
G75*
G03X99331980Y-88741960I1395116J4823037D01*
G01*
X99022057Y-88626950D02*
G75*
G03X99166880Y-88696240I279443J398070D01*
G01*
X98966387Y-88526751D02*
G75*
G03X99022100Y-88625120I129373J8311D01*
G01*
X98966124Y-88456830D02*
G75*
G03X98966220Y-88526060I683356J-33670D01*
G01*
X99006207Y-88347009D02*
G75*
G03X98966220Y-88457480I160673J-120631D01*
G01*
X99121297Y-88271698D02*
G75*
G03X99006860Y-88345720I45583J-195942D01*
G01*
X99270385Y-88252145D02*
G75*
G03X99121160Y-88272060I26035J-764135D01*
G01*
X99420533Y-88266363D02*
G75*
G03X99271020Y-88251740I-129193J-549257D01*
G01*
X99521106Y-88325989D02*
G75*
G03X99420880Y-88266980I-143406J-128951D01*
G01*
X99582662Y-88405448D02*
G75*
G03X99522480Y-88325400I-527542J-333972D01*
G01*
X99600683Y-88441257D02*
G75*
G03X99580900Y-88406680I-405863J-209263D01*
G01*
D15*
X100366198Y-85304968D02*
G75*
G03X99580900Y-85335820I-366198J-688712D01*
G01*
X99364020Y-85582143D02*
G75*
G03X99400560Y-86361980I641060J-360737D01*
G01*
X100624920Y-86308819D02*
G75*
G03X100599440Y-85531400I-630000J368479D01*
G01*
D12*
X89061255Y-93971181D02*
G75*
G03X88910360Y-93750840I-237255J-639D01*
G01*
X91129668Y-88412124D02*
G75*
G03X88910360Y-93750840I-1000108J-2714896D01*
G01*
X91796062Y-88711361D02*
G75*
G03X91130320Y-88411760I-17498322J-37993439D01*
G01*
X91848108Y-88734002D02*
G75*
G03X95600720Y-89316000I2807732J5714662D01*
G01*
X110918023Y-95091063D02*
G75*
G03X104320540Y-89382040I-11271083J-6358517D01*
G01*
X89308232Y-107398390D02*
G75*
G03X94881900Y-112338560I10994028J6789550D01*
G01*
X109920519Y-113426963D02*
G75*
G03X111137900Y-108688580I-1819J2526043D01*
G01*
X110937585Y-108327809D02*
G75*
G03X111137900Y-108688580I388275J-20411D01*
G01*
X91404586Y-94400832D02*
G75*
G03X93401080Y-92412260I-1208986J3210312D01*
G01*
X91401685Y-94402325D02*
G75*
G03X106558280Y-109628380I8600855J-6595135D01*
G01*
X108596071Y-107589467D02*
G75*
G03X106558280Y-109628380I1287069J-3324153D01*
G01*
X108604404Y-107584018D02*
G75*
G03X105389880Y-91591840I-8619644J6586558D01*
G01*
X105417145Y-91492862D02*
G75*
G03X94602500Y-91510560I-5391745J-9527458D01*
G01*
X94632187Y-91596893D02*
G75*
G03X93411240Y-92402100I5075713J-9024647D01*
G01*
X98245886Y-93254183D02*
G75*
G03X94902220Y-94911620I2081774J-8401137D01*
G01*
X94901362Y-94909490D02*
G75*
G03X93911620Y-95912380I-349662J-644750D01*
G01*
X93909143Y-95912493D02*
G75*
G03X101818640Y-93270780I6093397J-5082427D01*
G01*
X101816544Y-93269845D02*
G75*
G03X101587500Y-93331740I-76644J-171115D01*
G01*
X101028690Y-93961189D02*
G75*
G03X101318260Y-93811800I38110J281469D01*
G01*
X98702183Y-93821650D02*
G75*
G03X98991620Y-93961660I238637J124150D01*
G01*
X98432099Y-93378502D02*
G75*
G03X98260100Y-93250460I-166919J-44678D01*
G01*
D16*
X119286000Y-92349000D02*
X114714000Y-92349000D01*
X119286000Y-95651000D02*
X119286000Y-92349000D01*
X114714000Y-95651000D02*
X119286000Y-95651000D01*
X114714000Y-92349000D02*
X114714000Y-95651000D01*
M02*
