G75*
%MOIN*%
%OFA0B0*%
%FSLAX25Y25*%
%IPPOS*%
%LPD*%
%AMOC8*
5,1,8,0,0,1.08239X$1,22.5*
%
%ADD10C,0.00000*%
%ADD11C,0.00600*%
%ADD12C,0.00400*%
%ADD13R,0.00984X0.00984*%
D10*
X0390827Y0284528D02*
X0569961Y0284528D01*
X0570246Y0284531D01*
X0570532Y0284542D01*
X0570817Y0284559D01*
X0571101Y0284583D01*
X0571385Y0284614D01*
X0571668Y0284652D01*
X0571949Y0284697D01*
X0572230Y0284748D01*
X0572510Y0284806D01*
X0572788Y0284871D01*
X0573064Y0284943D01*
X0573338Y0285021D01*
X0573611Y0285106D01*
X0573881Y0285198D01*
X0574149Y0285296D01*
X0574415Y0285400D01*
X0574678Y0285511D01*
X0574938Y0285628D01*
X0575196Y0285751D01*
X0575450Y0285881D01*
X0575701Y0286017D01*
X0575949Y0286158D01*
X0576193Y0286306D01*
X0576434Y0286459D01*
X0576670Y0286619D01*
X0576903Y0286784D01*
X0577132Y0286954D01*
X0577357Y0287130D01*
X0577577Y0287312D01*
X0577793Y0287498D01*
X0578004Y0287690D01*
X0578211Y0287887D01*
X0578413Y0288089D01*
X0578610Y0288296D01*
X0578802Y0288507D01*
X0578988Y0288723D01*
X0579170Y0288943D01*
X0579346Y0289168D01*
X0579516Y0289397D01*
X0579681Y0289630D01*
X0579841Y0289866D01*
X0579994Y0290107D01*
X0580142Y0290351D01*
X0580283Y0290599D01*
X0580419Y0290850D01*
X0580549Y0291104D01*
X0580672Y0291362D01*
X0580789Y0291622D01*
X0580900Y0291885D01*
X0581004Y0292151D01*
X0581102Y0292419D01*
X0581194Y0292689D01*
X0581279Y0292962D01*
X0581357Y0293236D01*
X0581429Y0293512D01*
X0581494Y0293790D01*
X0581552Y0294070D01*
X0581603Y0294351D01*
X0581648Y0294632D01*
X0581686Y0294915D01*
X0581717Y0295199D01*
X0581741Y0295483D01*
X0581758Y0295768D01*
X0581769Y0296054D01*
X0581772Y0296339D01*
X0581772Y0373110D01*
X0581769Y0373395D01*
X0581758Y0373681D01*
X0581741Y0373966D01*
X0581717Y0374250D01*
X0581686Y0374534D01*
X0581648Y0374817D01*
X0581603Y0375098D01*
X0581552Y0375379D01*
X0581494Y0375659D01*
X0581429Y0375937D01*
X0581357Y0376213D01*
X0581279Y0376487D01*
X0581194Y0376760D01*
X0581102Y0377030D01*
X0581004Y0377298D01*
X0580900Y0377564D01*
X0580789Y0377827D01*
X0580672Y0378087D01*
X0580549Y0378345D01*
X0580419Y0378599D01*
X0580283Y0378850D01*
X0580142Y0379098D01*
X0579994Y0379342D01*
X0579841Y0379583D01*
X0579681Y0379819D01*
X0579516Y0380052D01*
X0579346Y0380281D01*
X0579170Y0380506D01*
X0578988Y0380726D01*
X0578802Y0380942D01*
X0578610Y0381153D01*
X0578413Y0381360D01*
X0578211Y0381562D01*
X0578004Y0381759D01*
X0577793Y0381951D01*
X0577577Y0382137D01*
X0577357Y0382319D01*
X0577132Y0382495D01*
X0576903Y0382665D01*
X0576670Y0382830D01*
X0576434Y0382990D01*
X0576193Y0383143D01*
X0575949Y0383291D01*
X0575701Y0383432D01*
X0575450Y0383568D01*
X0575196Y0383698D01*
X0574938Y0383821D01*
X0574678Y0383938D01*
X0574415Y0384049D01*
X0574149Y0384153D01*
X0573881Y0384251D01*
X0573611Y0384343D01*
X0573338Y0384428D01*
X0573064Y0384506D01*
X0572788Y0384578D01*
X0572510Y0384643D01*
X0572230Y0384701D01*
X0571949Y0384752D01*
X0571668Y0384797D01*
X0571385Y0384835D01*
X0571101Y0384866D01*
X0570817Y0384890D01*
X0570532Y0384907D01*
X0570246Y0384918D01*
X0569961Y0384921D01*
X0390827Y0384921D01*
X0390542Y0384918D01*
X0390256Y0384907D01*
X0389971Y0384890D01*
X0389687Y0384866D01*
X0389403Y0384835D01*
X0389120Y0384797D01*
X0388839Y0384752D01*
X0388558Y0384701D01*
X0388278Y0384643D01*
X0388000Y0384578D01*
X0387724Y0384506D01*
X0387450Y0384428D01*
X0387177Y0384343D01*
X0386907Y0384251D01*
X0386639Y0384153D01*
X0386373Y0384049D01*
X0386110Y0383938D01*
X0385850Y0383821D01*
X0385592Y0383698D01*
X0385338Y0383568D01*
X0385087Y0383432D01*
X0384839Y0383291D01*
X0384595Y0383143D01*
X0384354Y0382990D01*
X0384118Y0382830D01*
X0383885Y0382665D01*
X0383656Y0382495D01*
X0383431Y0382319D01*
X0383211Y0382137D01*
X0382995Y0381951D01*
X0382784Y0381759D01*
X0382577Y0381562D01*
X0382375Y0381360D01*
X0382178Y0381153D01*
X0381986Y0380942D01*
X0381800Y0380726D01*
X0381618Y0380506D01*
X0381442Y0380281D01*
X0381272Y0380052D01*
X0381107Y0379819D01*
X0380947Y0379583D01*
X0380794Y0379342D01*
X0380646Y0379098D01*
X0380505Y0378850D01*
X0380369Y0378599D01*
X0380239Y0378345D01*
X0380116Y0378087D01*
X0379999Y0377827D01*
X0379888Y0377564D01*
X0379784Y0377298D01*
X0379686Y0377030D01*
X0379594Y0376760D01*
X0379509Y0376487D01*
X0379431Y0376213D01*
X0379359Y0375937D01*
X0379294Y0375659D01*
X0379236Y0375379D01*
X0379185Y0375098D01*
X0379140Y0374817D01*
X0379102Y0374534D01*
X0379071Y0374250D01*
X0379047Y0373966D01*
X0379030Y0373681D01*
X0379019Y0373395D01*
X0379016Y0373110D01*
X0379016Y0296339D01*
X0379019Y0296054D01*
X0379030Y0295768D01*
X0379047Y0295483D01*
X0379071Y0295199D01*
X0379102Y0294915D01*
X0379140Y0294632D01*
X0379185Y0294351D01*
X0379236Y0294070D01*
X0379294Y0293790D01*
X0379359Y0293512D01*
X0379431Y0293236D01*
X0379509Y0292962D01*
X0379594Y0292689D01*
X0379686Y0292419D01*
X0379784Y0292151D01*
X0379888Y0291885D01*
X0379999Y0291622D01*
X0380116Y0291362D01*
X0380239Y0291104D01*
X0380369Y0290850D01*
X0380505Y0290599D01*
X0380646Y0290351D01*
X0380794Y0290107D01*
X0380947Y0289866D01*
X0381107Y0289630D01*
X0381272Y0289397D01*
X0381442Y0289168D01*
X0381618Y0288943D01*
X0381800Y0288723D01*
X0381986Y0288507D01*
X0382178Y0288296D01*
X0382375Y0288089D01*
X0382577Y0287887D01*
X0382784Y0287690D01*
X0382995Y0287498D01*
X0383211Y0287312D01*
X0383431Y0287130D01*
X0383656Y0286954D01*
X0383885Y0286784D01*
X0384118Y0286619D01*
X0384354Y0286459D01*
X0384595Y0286306D01*
X0384839Y0286158D01*
X0385087Y0286017D01*
X0385338Y0285881D01*
X0385592Y0285751D01*
X0385850Y0285628D01*
X0386110Y0285511D01*
X0386373Y0285400D01*
X0386639Y0285296D01*
X0386907Y0285198D01*
X0387177Y0285106D01*
X0387450Y0285021D01*
X0387724Y0284943D01*
X0388000Y0284871D01*
X0388278Y0284806D01*
X0388558Y0284748D01*
X0388839Y0284697D01*
X0389120Y0284652D01*
X0389403Y0284614D01*
X0389687Y0284583D01*
X0389971Y0284559D01*
X0390256Y0284542D01*
X0390542Y0284531D01*
X0390827Y0284528D01*
D11*
X0397413Y0337851D02*
X0399682Y0337851D01*
X0401096Y0337851D02*
X0401096Y0341254D01*
X0403365Y0337851D01*
X0403365Y0341254D01*
X0404779Y0341254D02*
X0406481Y0341254D01*
X0407048Y0340687D01*
X0407048Y0338418D01*
X0406481Y0337851D01*
X0404779Y0337851D01*
X0404779Y0341254D01*
X0401096Y0343851D02*
X0403365Y0347254D01*
X0403412Y0349851D02*
X0402277Y0349851D01*
X0401710Y0350418D01*
X0401710Y0353254D01*
X0400296Y0352687D02*
X0400296Y0351553D01*
X0399728Y0350985D01*
X0398027Y0350985D01*
X0398027Y0349851D02*
X0398027Y0353254D01*
X0399728Y0353254D01*
X0400296Y0352687D01*
X0399161Y0350985D02*
X0400296Y0349851D01*
X0403412Y0349851D02*
X0403979Y0350418D01*
X0403979Y0353254D01*
X0409076Y0353254D02*
X0410211Y0353254D01*
X0409644Y0353254D02*
X0409644Y0349851D01*
X0410211Y0349851D02*
X0409076Y0349851D01*
X0411532Y0349851D02*
X0411532Y0353254D01*
X0413800Y0349851D01*
X0413800Y0353254D01*
X0396612Y0353254D02*
X0396612Y0349851D01*
X0396612Y0351553D02*
X0394344Y0351553D01*
X0394344Y0353254D02*
X0394344Y0349851D01*
X0391795Y0349851D02*
X0391795Y0353254D01*
X0390661Y0353254D02*
X0392929Y0353254D01*
X0397413Y0341254D02*
X0397413Y0337851D01*
X0397413Y0339553D02*
X0398547Y0339553D01*
X0399682Y0341254D02*
X0397413Y0341254D01*
X0522063Y0347254D02*
X0524332Y0347254D01*
X0523198Y0347254D02*
X0523198Y0343851D01*
X0525747Y0343851D02*
X0525747Y0347254D01*
X0525747Y0345553D02*
X0528015Y0345553D01*
X0529430Y0344985D02*
X0531131Y0344985D01*
X0531698Y0345553D01*
X0531698Y0346687D01*
X0531131Y0347254D01*
X0529430Y0347254D01*
X0529430Y0343851D01*
X0528015Y0343851D02*
X0528015Y0347254D01*
X0530564Y0344985D02*
X0531698Y0343851D01*
X0533113Y0344418D02*
X0533680Y0343851D01*
X0534814Y0343851D01*
X0535382Y0344418D01*
X0535382Y0347254D01*
X0533113Y0347254D02*
X0533113Y0344418D01*
X0540479Y0344418D02*
X0541046Y0343851D01*
X0542181Y0343851D01*
X0542748Y0344418D01*
X0542748Y0346687D01*
X0542181Y0347254D01*
X0541046Y0347254D01*
X0540479Y0346687D01*
X0540479Y0344418D01*
X0544162Y0344418D02*
X0544729Y0343851D01*
X0545864Y0343851D01*
X0546431Y0344418D01*
X0546431Y0347254D01*
X0547845Y0347254D02*
X0550114Y0347254D01*
X0548980Y0347254D02*
X0548980Y0343851D01*
X0544162Y0344418D02*
X0544162Y0347254D01*
D12*
X0370512Y0378110D02*
X0367717Y0379370D01*
X0367716Y0379369D02*
X0367453Y0379463D01*
X0367188Y0379549D01*
X0366921Y0379630D01*
X0366652Y0379704D01*
X0366381Y0379771D01*
X0366109Y0379831D01*
X0365835Y0379885D01*
X0365560Y0379932D01*
X0365284Y0379972D01*
X0365008Y0380006D01*
X0364730Y0380033D01*
X0364452Y0380053D01*
X0364173Y0380066D01*
X0363894Y0380072D01*
X0363615Y0380072D01*
X0363337Y0380065D01*
X0363058Y0380050D01*
X0362780Y0380030D01*
X0362502Y0380002D01*
X0362226Y0379967D01*
X0361950Y0379926D01*
X0361675Y0379878D01*
X0361402Y0379823D01*
X0361129Y0379762D01*
X0360859Y0379694D01*
X0360590Y0379619D01*
X0360323Y0379538D01*
X0360059Y0379450D01*
X0359796Y0379356D01*
X0359536Y0379255D01*
X0359278Y0379149D01*
X0359023Y0379035D01*
X0358771Y0378916D01*
X0358522Y0378790D01*
X0358276Y0378659D01*
X0358034Y0378521D01*
X0357795Y0378378D01*
X0357559Y0378228D01*
X0357327Y0378073D01*
X0357099Y0377913D01*
X0356875Y0377747D01*
X0356655Y0377575D01*
X0356440Y0377398D01*
X0356228Y0377216D01*
X0356022Y0377029D01*
X0355820Y0376836D01*
X0355622Y0376639D01*
X0355430Y0376437D01*
X0355243Y0376231D01*
X0355060Y0376020D01*
X0354883Y0375804D01*
X0354711Y0375584D01*
X0354545Y0375361D01*
X0354384Y0375133D01*
X0354229Y0374901D01*
X0354080Y0374665D01*
X0353936Y0374426D01*
X0353799Y0374184D01*
X0353667Y0373938D01*
X0353541Y0373689D01*
X0353422Y0373437D01*
X0353308Y0373182D01*
X0353201Y0372924D01*
X0353100Y0372664D01*
X0353006Y0372402D01*
X0352918Y0372137D01*
X0352837Y0371870D01*
X0352762Y0371602D01*
X0352694Y0371331D01*
X0352632Y0371059D01*
X0352577Y0370786D01*
X0352529Y0370511D01*
X0352488Y0370235D01*
X0352453Y0369958D01*
X0352425Y0369681D01*
X0352404Y0369403D01*
X0352390Y0369124D01*
X0352382Y0368845D01*
X0352382Y0368567D01*
X0352388Y0368288D01*
X0352401Y0368009D01*
X0352421Y0367731D01*
X0352447Y0367453D01*
X0352481Y0367176D01*
X0352521Y0366900D01*
X0352568Y0366625D01*
X0352621Y0366352D01*
X0352682Y0366079D01*
X0352749Y0365809D01*
X0352822Y0365540D01*
X0352903Y0365273D01*
X0352989Y0365007D01*
X0353082Y0364744D01*
X0353182Y0364484D01*
X0353288Y0364226D01*
X0353400Y0363971D01*
X0353518Y0363718D01*
X0353643Y0363468D01*
X0353773Y0363222D01*
X0353910Y0362979D01*
X0354053Y0362739D01*
X0354201Y0362503D01*
X0354355Y0362270D01*
X0354515Y0362042D01*
X0354680Y0361817D01*
X0354851Y0361597D01*
X0355027Y0361380D01*
X0355208Y0361168D01*
X0355395Y0360961D01*
X0355586Y0360758D01*
X0355782Y0360560D01*
X0355984Y0360367D01*
X0356189Y0360179D01*
X0356400Y0359995D01*
X0356615Y0359818D01*
X0356834Y0359645D01*
X0357057Y0359478D01*
X0357284Y0359316D01*
X0357515Y0359160D01*
X0357750Y0359010D01*
X0357989Y0358865D01*
X0358231Y0358726D01*
X0358476Y0358594D01*
X0358725Y0358467D01*
X0358976Y0358347D01*
X0358977Y0358346D02*
X0359030Y0358323D01*
X0359083Y0358296D01*
X0359133Y0358267D01*
X0359182Y0358234D01*
X0359228Y0358198D01*
X0359272Y0358159D01*
X0359314Y0358118D01*
X0359353Y0358074D01*
X0359389Y0358028D01*
X0359422Y0357979D01*
X0359451Y0357929D01*
X0359478Y0357877D01*
X0359501Y0357823D01*
X0359521Y0357768D01*
X0359538Y0357712D01*
X0359550Y0357655D01*
X0359560Y0357597D01*
X0359565Y0357538D01*
X0359567Y0357480D01*
X0359567Y0308150D01*
X0359567Y0308071D02*
X0359567Y0306535D01*
X0381181Y0285827D02*
X0381181Y0280866D01*
X0441693Y0280866D01*
X0428465Y0295827D02*
X0428592Y0296146D01*
X0428728Y0296462D01*
X0428872Y0296775D01*
X0429023Y0297084D01*
X0429181Y0297389D01*
X0429347Y0297690D01*
X0429520Y0297987D01*
X0429701Y0298280D01*
X0429888Y0298568D01*
X0430083Y0298852D01*
X0430285Y0299131D01*
X0430493Y0299404D01*
X0430708Y0299673D01*
X0430929Y0299936D01*
X0431157Y0300193D01*
X0431391Y0300445D01*
X0431631Y0300692D01*
X0431878Y0300932D01*
X0432130Y0301166D01*
X0432387Y0301394D01*
X0432650Y0301615D01*
X0432919Y0301830D01*
X0433192Y0302038D01*
X0433471Y0302240D01*
X0433755Y0302435D01*
X0434043Y0302622D01*
X0434336Y0302803D01*
X0434633Y0302976D01*
X0434934Y0303142D01*
X0435239Y0303300D01*
X0435548Y0303451D01*
X0435861Y0303595D01*
X0436177Y0303731D01*
X0436496Y0303858D01*
X0445669Y0306969D02*
X0445669Y0354370D01*
X0445039Y0354370D01*
X0427205Y0349094D02*
X0427279Y0349189D01*
X0427351Y0349287D01*
X0427420Y0349387D01*
X0427485Y0349489D01*
X0427547Y0349592D01*
X0427605Y0349698D01*
X0427661Y0349806D01*
X0427712Y0349915D01*
X0427760Y0350026D01*
X0427805Y0350139D01*
X0427845Y0350253D01*
X0427883Y0350368D01*
X0427916Y0350484D01*
X0427945Y0350602D01*
X0427971Y0350720D01*
X0427993Y0350839D01*
X0428011Y0350959D01*
X0428026Y0351079D01*
X0428036Y0351199D01*
X0428042Y0351320D01*
X0428045Y0351441D01*
X0428044Y0351562D01*
X0428038Y0351683D01*
X0428029Y0351803D01*
X0428016Y0351924D01*
X0427999Y0352044D01*
X0427979Y0352163D01*
X0427954Y0352281D01*
X0427926Y0352399D01*
X0427893Y0352515D01*
X0427857Y0352631D01*
X0427818Y0352745D01*
X0427775Y0352858D01*
X0427728Y0352970D01*
X0427677Y0353080D01*
X0427623Y0353188D01*
X0427566Y0353294D01*
X0427505Y0353399D01*
X0427441Y0353502D01*
X0427373Y0353602D01*
X0427302Y0353700D01*
X0427229Y0353796D01*
X0427152Y0353889D01*
X0427072Y0353980D01*
X0426989Y0354069D01*
X0426904Y0354154D01*
X0426815Y0354237D01*
X0426724Y0354317D01*
X0426631Y0354394D01*
X0426535Y0354467D01*
X0426437Y0354538D01*
X0426337Y0354606D01*
X0426234Y0354670D01*
X0426129Y0354731D01*
X0426023Y0354788D01*
X0425915Y0354842D01*
X0425805Y0354893D01*
X0425693Y0354940D01*
X0425580Y0354983D01*
X0425466Y0355022D01*
X0425350Y0355058D01*
X0425234Y0355091D01*
X0425116Y0355119D01*
X0424998Y0355144D01*
X0424879Y0355164D01*
X0424759Y0355181D01*
X0424638Y0355194D01*
X0424518Y0355203D01*
X0424397Y0355209D01*
X0424276Y0355210D01*
X0424155Y0355207D01*
X0424034Y0355201D01*
X0423914Y0355191D01*
X0423794Y0355176D01*
X0423674Y0355158D01*
X0423555Y0355136D01*
X0423437Y0355110D01*
X0423319Y0355081D01*
X0423203Y0355048D01*
X0423088Y0355010D01*
X0422974Y0354970D01*
X0422861Y0354925D01*
X0422750Y0354877D01*
X0422641Y0354826D01*
X0422533Y0354770D01*
X0422427Y0354712D01*
X0422324Y0354650D01*
X0422222Y0354585D01*
X0422122Y0354516D01*
X0422024Y0354444D01*
X0421929Y0354370D01*
X0423858Y0366850D02*
X0423976Y0367244D01*
X0359607Y0306418D02*
X0360205Y0305364D01*
X0360828Y0304325D01*
X0361477Y0303302D01*
X0362150Y0302295D01*
X0362848Y0301304D01*
X0363570Y0300331D01*
X0364315Y0299376D01*
X0365083Y0298439D01*
X0365874Y0297521D01*
X0366687Y0296623D01*
X0367522Y0295744D01*
X0368377Y0294887D01*
X0369254Y0294050D01*
X0370151Y0293236D01*
X0371067Y0292443D01*
X0372002Y0291673D01*
X0372956Y0290925D01*
X0373927Y0290202D01*
X0374916Y0289502D01*
X0375922Y0288826D01*
X0376944Y0288176D01*
X0377982Y0287550D01*
X0379034Y0286950D01*
X0380101Y0286375D01*
X0381181Y0285827D01*
X0385325Y0375805D02*
X0386559Y0376191D01*
X0387802Y0376548D01*
X0389054Y0376875D01*
X0390313Y0377172D01*
X0391578Y0377439D01*
X0392850Y0377676D01*
X0394127Y0377882D01*
X0395408Y0378057D01*
X0396693Y0378202D01*
X0397982Y0378316D01*
X0399272Y0378399D01*
X0400565Y0378451D01*
X0401858Y0378472D01*
X0403151Y0378463D01*
X0404444Y0378422D01*
X0405735Y0378351D01*
X0407025Y0378249D01*
X0408311Y0378116D01*
X0409594Y0377952D01*
X0410873Y0377757D01*
X0412146Y0377532D01*
X0413414Y0377277D01*
X0414676Y0376991D01*
X0415930Y0376676D01*
X0417176Y0376330D01*
X0418414Y0375955D01*
X0419642Y0375550D01*
X0381535Y0366850D02*
X0381378Y0367165D01*
X0376654Y0363622D02*
X0376533Y0363318D01*
X0376406Y0363016D01*
X0376271Y0362718D01*
X0376129Y0362424D01*
X0375980Y0362133D01*
X0375824Y0361845D01*
X0375662Y0361562D01*
X0375492Y0361282D01*
X0375315Y0361007D01*
X0375132Y0360736D01*
X0374943Y0360469D01*
X0374747Y0360207D01*
X0374544Y0359950D01*
X0374336Y0359698D01*
X0374121Y0359451D01*
X0373901Y0359210D01*
X0373675Y0358973D01*
X0373443Y0358743D01*
X0373206Y0358518D01*
X0372963Y0358299D01*
X0372715Y0358085D01*
X0372462Y0357878D01*
X0372204Y0357677D01*
X0371941Y0357483D01*
X0371674Y0357294D01*
X0371402Y0357113D01*
X0371125Y0356938D01*
X0370845Y0356769D01*
X0370561Y0356608D01*
X0370272Y0356453D01*
X0369981Y0356306D01*
X0369685Y0356165D01*
X0369386Y0356032D01*
X0369085Y0355906D01*
X0368780Y0355787D01*
X0376693Y0363661D02*
X0377467Y0364240D01*
X0378256Y0364800D01*
X0379057Y0365342D01*
X0379871Y0365864D01*
X0380697Y0366367D01*
X0381535Y0366850D01*
X0385317Y0375803D02*
X0384714Y0375720D01*
X0384109Y0375652D01*
X0383503Y0375598D01*
X0382896Y0375560D01*
X0382288Y0375535D01*
X0381679Y0375526D01*
X0381070Y0375532D01*
X0380462Y0375552D01*
X0379855Y0375587D01*
X0379248Y0375636D01*
X0378643Y0375701D01*
X0378039Y0375780D01*
X0377438Y0375874D01*
X0376839Y0375982D01*
X0376243Y0376105D01*
X0375650Y0376242D01*
X0375060Y0376393D01*
X0374475Y0376559D01*
X0373893Y0376739D01*
X0373316Y0376933D01*
X0372744Y0377141D01*
X0372178Y0377363D01*
X0371616Y0377599D01*
X0371061Y0377848D01*
X0370512Y0378110D01*
X0423859Y0366851D02*
X0424753Y0366322D01*
X0425634Y0365772D01*
X0426502Y0365201D01*
X0427355Y0364608D01*
X0428194Y0363996D01*
X0429017Y0363363D01*
X0429825Y0362710D01*
X0430617Y0362037D01*
X0431392Y0361346D01*
X0432151Y0360636D01*
X0432891Y0359908D01*
X0433614Y0359161D01*
X0434319Y0358398D01*
X0435004Y0357618D01*
X0435671Y0356821D01*
X0436318Y0356008D01*
X0436945Y0355180D01*
X0437551Y0354337D01*
X0438137Y0353479D01*
X0438702Y0352607D01*
X0439246Y0351722D01*
X0439767Y0350824D01*
X0440267Y0349913D01*
X0440745Y0348990D01*
X0441200Y0348057D01*
X0441632Y0347112D01*
X0442041Y0346157D01*
X0442427Y0345193D01*
X0442789Y0344219D01*
X0443127Y0343237D01*
X0443441Y0342247D01*
X0443732Y0341249D01*
X0443997Y0340245D01*
X0444239Y0339235D01*
X0444456Y0338219D01*
X0444647Y0337198D01*
X0444814Y0336173D01*
X0444957Y0335144D01*
X0445074Y0334112D01*
X0445165Y0333077D01*
X0445232Y0332040D01*
X0445274Y0331002D01*
X0445290Y0329964D01*
X0445281Y0328925D01*
X0445246Y0327887D01*
X0445187Y0326850D01*
X0445102Y0325814D01*
X0444992Y0324781D01*
X0444857Y0323751D01*
X0444697Y0322725D01*
X0444512Y0321703D01*
X0444302Y0320685D01*
X0444068Y0319673D01*
X0443809Y0318667D01*
X0443526Y0317668D01*
X0443218Y0316676D01*
X0442887Y0315691D01*
X0442531Y0314715D01*
X0442152Y0313748D01*
X0441750Y0312790D01*
X0441324Y0311843D01*
X0440875Y0310906D01*
X0440404Y0309980D01*
X0439911Y0309066D01*
X0439395Y0308164D01*
X0438858Y0307275D01*
X0438299Y0306400D01*
X0437719Y0305538D01*
X0437118Y0304691D01*
X0436497Y0303858D01*
X0450039Y0296338D02*
X0450168Y0296127D01*
X0450291Y0295912D01*
X0450409Y0295694D01*
X0450522Y0295473D01*
X0450629Y0295250D01*
X0450730Y0295024D01*
X0450827Y0294796D01*
X0450917Y0294566D01*
X0451002Y0294333D01*
X0451081Y0294098D01*
X0451155Y0293862D01*
X0451222Y0293623D01*
X0451284Y0293384D01*
X0451340Y0293142D01*
X0451390Y0292900D01*
X0451434Y0292656D01*
X0451472Y0292411D01*
X0451504Y0292166D01*
X0451530Y0291919D01*
X0451549Y0291672D01*
X0451563Y0291425D01*
X0451571Y0291177D01*
X0451573Y0290930D01*
X0451569Y0290682D01*
X0451558Y0290435D01*
X0451542Y0290188D01*
X0451519Y0289941D01*
X0451491Y0289695D01*
X0451456Y0289450D01*
X0451416Y0289205D01*
X0451369Y0288962D01*
X0451317Y0288720D01*
X0451259Y0288479D01*
X0451194Y0288240D01*
X0451124Y0288002D01*
X0451049Y0287767D01*
X0450967Y0287533D01*
X0450880Y0287301D01*
X0450787Y0287071D01*
X0450688Y0286844D01*
X0450584Y0286619D01*
X0450475Y0286397D01*
X0450360Y0286178D01*
X0450240Y0285961D01*
X0450114Y0285748D01*
X0449983Y0285537D01*
X0449848Y0285330D01*
X0449707Y0285127D01*
X0449561Y0284926D01*
X0449410Y0284730D01*
X0449255Y0284537D01*
X0449095Y0284348D01*
X0448930Y0284163D01*
X0448761Y0283982D01*
X0448588Y0283805D01*
X0448410Y0283633D01*
X0448228Y0283465D01*
X0448042Y0283301D01*
X0447852Y0283142D01*
X0447658Y0282988D01*
X0447461Y0282839D01*
X0447259Y0282694D01*
X0447055Y0282554D01*
X0446847Y0282420D01*
X0446636Y0282290D01*
X0446421Y0282166D01*
X0446204Y0282047D01*
X0445984Y0281934D01*
X0445761Y0281825D01*
X0445536Y0281723D01*
X0445308Y0281626D01*
X0445078Y0281534D01*
X0444846Y0281448D01*
X0444611Y0281368D01*
X0444375Y0281294D01*
X0444137Y0281225D01*
X0443897Y0281162D01*
X0443656Y0281106D01*
X0443414Y0281055D01*
X0443170Y0281010D01*
X0442926Y0280971D01*
X0442680Y0280938D01*
X0442434Y0280911D01*
X0442187Y0280890D01*
X0441940Y0280875D01*
X0441693Y0280866D01*
X0450039Y0296339D02*
X0449722Y0296761D01*
X0449414Y0297191D01*
X0449117Y0297629D01*
X0448831Y0298073D01*
X0448556Y0298524D01*
X0448292Y0298982D01*
X0448039Y0299446D01*
X0447797Y0299917D01*
X0447567Y0300392D01*
X0447348Y0300874D01*
X0447141Y0301360D01*
X0446946Y0301852D01*
X0446763Y0302347D01*
X0446592Y0302848D01*
X0446433Y0303352D01*
X0446286Y0303860D01*
X0446152Y0304371D01*
X0446030Y0304886D01*
X0445921Y0305403D01*
X0445825Y0305923D01*
X0445741Y0306445D01*
X0445669Y0306968D01*
X0493425Y0308071D02*
X0493425Y0304803D01*
X0493425Y0308150D02*
X0493425Y0357480D01*
X0493423Y0357538D01*
X0493418Y0357597D01*
X0493408Y0357655D01*
X0493396Y0357712D01*
X0493379Y0357768D01*
X0493359Y0357823D01*
X0493336Y0357877D01*
X0493309Y0357929D01*
X0493280Y0357979D01*
X0493247Y0358028D01*
X0493211Y0358074D01*
X0493172Y0358118D01*
X0493130Y0358159D01*
X0493086Y0358198D01*
X0493040Y0358234D01*
X0492991Y0358267D01*
X0492941Y0358296D01*
X0492888Y0358323D01*
X0492835Y0358346D01*
X0492835Y0358347D02*
X0492584Y0358467D01*
X0492335Y0358594D01*
X0492090Y0358726D01*
X0491848Y0358865D01*
X0491609Y0359010D01*
X0491374Y0359160D01*
X0491143Y0359316D01*
X0490916Y0359478D01*
X0490693Y0359645D01*
X0490474Y0359818D01*
X0490259Y0359995D01*
X0490048Y0360179D01*
X0489843Y0360367D01*
X0489641Y0360560D01*
X0489445Y0360758D01*
X0489254Y0360961D01*
X0489067Y0361168D01*
X0488886Y0361380D01*
X0488710Y0361597D01*
X0488539Y0361817D01*
X0488374Y0362042D01*
X0488214Y0362270D01*
X0488060Y0362503D01*
X0487912Y0362739D01*
X0487769Y0362979D01*
X0487632Y0363222D01*
X0487502Y0363468D01*
X0487377Y0363718D01*
X0487259Y0363971D01*
X0487147Y0364226D01*
X0487041Y0364484D01*
X0486941Y0364744D01*
X0486848Y0365007D01*
X0486762Y0365273D01*
X0486681Y0365540D01*
X0486608Y0365809D01*
X0486541Y0366079D01*
X0486480Y0366352D01*
X0486427Y0366625D01*
X0486380Y0366900D01*
X0486340Y0367176D01*
X0486306Y0367453D01*
X0486280Y0367731D01*
X0486260Y0368009D01*
X0486247Y0368288D01*
X0486241Y0368567D01*
X0486241Y0368845D01*
X0486249Y0369124D01*
X0486263Y0369403D01*
X0486284Y0369681D01*
X0486312Y0369958D01*
X0486347Y0370235D01*
X0486388Y0370511D01*
X0486436Y0370786D01*
X0486491Y0371059D01*
X0486553Y0371331D01*
X0486621Y0371602D01*
X0486696Y0371870D01*
X0486777Y0372137D01*
X0486865Y0372402D01*
X0486959Y0372664D01*
X0487060Y0372924D01*
X0487167Y0373182D01*
X0487281Y0373437D01*
X0487400Y0373689D01*
X0487526Y0373938D01*
X0487658Y0374184D01*
X0487795Y0374426D01*
X0487939Y0374665D01*
X0488088Y0374901D01*
X0488243Y0375133D01*
X0488404Y0375361D01*
X0488570Y0375584D01*
X0488742Y0375804D01*
X0488919Y0376020D01*
X0489102Y0376231D01*
X0489289Y0376437D01*
X0489481Y0376639D01*
X0489679Y0376836D01*
X0489881Y0377029D01*
X0490087Y0377216D01*
X0490299Y0377398D01*
X0490514Y0377575D01*
X0490734Y0377747D01*
X0490958Y0377913D01*
X0491186Y0378073D01*
X0491418Y0378228D01*
X0491654Y0378378D01*
X0491893Y0378521D01*
X0492135Y0378659D01*
X0492381Y0378790D01*
X0492630Y0378916D01*
X0492882Y0379035D01*
X0493137Y0379149D01*
X0493395Y0379255D01*
X0493655Y0379356D01*
X0493918Y0379450D01*
X0494182Y0379538D01*
X0494449Y0379619D01*
X0494718Y0379694D01*
X0494988Y0379762D01*
X0495261Y0379823D01*
X0495534Y0379878D01*
X0495809Y0379926D01*
X0496085Y0379967D01*
X0496361Y0380002D01*
X0496639Y0380030D01*
X0496917Y0380050D01*
X0497196Y0380065D01*
X0497474Y0380072D01*
X0497753Y0380072D01*
X0498032Y0380066D01*
X0498311Y0380053D01*
X0498589Y0380033D01*
X0498867Y0380006D01*
X0499143Y0379972D01*
X0499419Y0379932D01*
X0499694Y0379885D01*
X0499968Y0379831D01*
X0500240Y0379771D01*
X0500511Y0379704D01*
X0500780Y0379630D01*
X0501047Y0379549D01*
X0501312Y0379463D01*
X0501575Y0379369D01*
X0519175Y0375804D02*
X0553510Y0375548D01*
X0542756Y0360000D02*
X0541693Y0358110D01*
X0541661Y0358054D01*
X0541626Y0357999D01*
X0541588Y0357946D01*
X0541547Y0357896D01*
X0541502Y0357848D01*
X0541456Y0357802D01*
X0541406Y0357760D01*
X0541354Y0357720D01*
X0541300Y0357684D01*
X0541244Y0357651D01*
X0541186Y0357621D01*
X0541127Y0357594D01*
X0541066Y0357571D01*
X0541004Y0357552D01*
X0540940Y0357536D01*
X0540876Y0357524D01*
X0540812Y0357515D01*
X0540747Y0357511D01*
X0540682Y0357510D01*
X0540617Y0357513D01*
X0540552Y0357520D01*
X0540551Y0357520D02*
X0532520Y0357520D01*
X0532519Y0357519D02*
X0532458Y0357509D01*
X0532397Y0357503D01*
X0532335Y0357500D01*
X0532273Y0357501D01*
X0532212Y0357505D01*
X0532150Y0357513D01*
X0532090Y0357525D01*
X0532030Y0357540D01*
X0531971Y0357558D01*
X0531913Y0357580D01*
X0531857Y0357606D01*
X0531802Y0357634D01*
X0531749Y0357666D01*
X0531698Y0357700D01*
X0531649Y0357738D01*
X0531602Y0357778D01*
X0531557Y0357821D01*
X0531516Y0357867D01*
X0531477Y0357915D01*
X0531440Y0357965D01*
X0531407Y0358017D01*
X0531377Y0358071D01*
X0531378Y0358071D02*
X0530315Y0359803D01*
X0530314Y0359803D02*
X0530300Y0359852D01*
X0530282Y0359899D01*
X0530261Y0359945D01*
X0530237Y0359989D01*
X0530209Y0360031D01*
X0530178Y0360071D01*
X0530144Y0360109D01*
X0530108Y0360143D01*
X0530069Y0360176D01*
X0530028Y0360205D01*
X0529984Y0360231D01*
X0529939Y0360253D01*
X0529893Y0360273D01*
X0529845Y0360288D01*
X0529796Y0360301D01*
X0529746Y0360309D01*
X0529696Y0360314D01*
X0529645Y0360315D01*
X0542756Y0360000D02*
X0542789Y0360042D01*
X0542825Y0360082D01*
X0542863Y0360119D01*
X0542905Y0360152D01*
X0542948Y0360183D01*
X0542994Y0360211D01*
X0543041Y0360235D01*
X0543090Y0360256D01*
X0543141Y0360273D01*
X0543192Y0360286D01*
X0543245Y0360296D01*
X0543298Y0360302D01*
X0543351Y0360304D01*
X0543404Y0360302D01*
X0543457Y0360297D01*
X0543510Y0360287D01*
X0543562Y0360274D01*
X0543612Y0360257D01*
X0543661Y0360237D01*
X0516418Y0353780D02*
X0516324Y0353829D01*
X0516228Y0353874D01*
X0516130Y0353916D01*
X0516031Y0353955D01*
X0515931Y0353989D01*
X0515829Y0354020D01*
X0515726Y0354048D01*
X0515623Y0354071D01*
X0515518Y0354091D01*
X0515413Y0354106D01*
X0515308Y0354118D01*
X0515202Y0354126D01*
X0515096Y0354130D01*
X0514989Y0354131D01*
X0514883Y0354127D01*
X0514777Y0354119D01*
X0514672Y0354108D01*
X0514567Y0354092D01*
X0514462Y0354073D01*
X0514358Y0354050D01*
X0514256Y0354023D01*
X0514154Y0353992D01*
X0514053Y0353958D01*
X0513954Y0353920D01*
X0513857Y0353878D01*
X0513761Y0353833D01*
X0513666Y0353784D01*
X0513574Y0353732D01*
X0513483Y0353676D01*
X0513395Y0353617D01*
X0513309Y0353555D01*
X0513225Y0353490D01*
X0513143Y0353421D01*
X0513065Y0353350D01*
X0512988Y0353276D01*
X0512915Y0353199D01*
X0512845Y0353120D01*
X0512777Y0353038D01*
X0512713Y0352953D01*
X0512652Y0352866D01*
X0512594Y0352777D01*
X0512539Y0352686D01*
X0512488Y0352593D01*
X0512440Y0352498D01*
X0512395Y0352402D01*
X0512355Y0352304D01*
X0512317Y0352204D01*
X0512284Y0352103D01*
X0512254Y0352001D01*
X0512229Y0351898D01*
X0512206Y0351794D01*
X0512188Y0351690D01*
X0512174Y0351585D01*
X0512163Y0351479D01*
X0512157Y0351373D01*
X0512154Y0351267D01*
X0512155Y0351160D01*
X0512160Y0351054D01*
X0512169Y0350948D01*
X0512182Y0350843D01*
X0512199Y0350738D01*
X0512220Y0350634D01*
X0512244Y0350531D01*
X0512273Y0350428D01*
X0512305Y0350327D01*
X0512340Y0350227D01*
X0512380Y0350128D01*
X0512423Y0350031D01*
X0512469Y0349936D01*
X0512519Y0349842D01*
X0494370Y0304646D02*
X0495034Y0303598D01*
X0495724Y0302566D01*
X0496438Y0301551D01*
X0497178Y0300553D01*
X0497941Y0299575D01*
X0498728Y0298615D01*
X0499538Y0297674D01*
X0500370Y0296754D01*
X0501225Y0295854D01*
X0502102Y0294975D01*
X0503000Y0294118D01*
X0503918Y0293283D01*
X0504856Y0292471D01*
X0505815Y0291681D01*
X0506792Y0290916D01*
X0507787Y0290174D01*
X0508800Y0289457D01*
X0509830Y0288765D01*
X0510877Y0288099D01*
X0511940Y0287457D01*
X0513018Y0286843D01*
X0514111Y0286254D01*
X0515218Y0285693D01*
X0516338Y0285158D01*
X0516339Y0285157D02*
X0516339Y0280866D01*
X0575551Y0280866D01*
X0575794Y0280869D01*
X0576037Y0280878D01*
X0576279Y0280893D01*
X0576521Y0280913D01*
X0576763Y0280940D01*
X0577004Y0280973D01*
X0577244Y0281011D01*
X0577483Y0281055D01*
X0577720Y0281105D01*
X0577957Y0281161D01*
X0578192Y0281223D01*
X0578425Y0281290D01*
X0578657Y0281363D01*
X0578887Y0281442D01*
X0579115Y0281526D01*
X0579341Y0281616D01*
X0579564Y0281711D01*
X0579785Y0281812D01*
X0580004Y0281918D01*
X0580220Y0282030D01*
X0580433Y0282146D01*
X0580643Y0282268D01*
X0580850Y0282395D01*
X0581055Y0282527D01*
X0581255Y0282664D01*
X0581453Y0282805D01*
X0581646Y0282952D01*
X0581837Y0283103D01*
X0582023Y0283259D01*
X0582206Y0283419D01*
X0582384Y0283584D01*
X0582559Y0283753D01*
X0582729Y0283926D01*
X0582895Y0284104D01*
X0583057Y0284285D01*
X0583214Y0284470D01*
X0583367Y0284659D01*
X0583515Y0284852D01*
X0583658Y0285048D01*
X0583797Y0285248D01*
X0583930Y0285451D01*
X0584059Y0285657D01*
X0584182Y0285867D01*
X0584300Y0286079D01*
X0584413Y0286294D01*
X0584521Y0286512D01*
X0584624Y0286732D01*
X0584721Y0286955D01*
X0584812Y0287180D01*
X0584898Y0287407D01*
X0584979Y0287636D01*
X0585053Y0287868D01*
X0585123Y0288101D01*
X0585186Y0288335D01*
X0585244Y0288571D01*
X0585296Y0288809D01*
X0585342Y0289047D01*
X0585382Y0289287D01*
X0585416Y0289527D01*
X0585445Y0289769D01*
X0585467Y0290011D01*
X0585484Y0290253D01*
X0585495Y0290496D01*
X0585500Y0290739D01*
X0585499Y0290982D01*
X0585492Y0291224D01*
X0585479Y0291467D01*
X0585460Y0291709D01*
X0585435Y0291951D01*
X0585404Y0292192D01*
X0585368Y0292432D01*
X0585325Y0292672D01*
X0585277Y0292910D01*
X0585223Y0293147D01*
X0585163Y0293382D01*
X0585098Y0293616D01*
X0585026Y0293848D01*
X0584949Y0294079D01*
X0584867Y0294307D01*
X0584779Y0294534D01*
X0584685Y0294758D01*
X0584586Y0294980D01*
X0584482Y0295199D01*
X0584372Y0295416D01*
X0584257Y0295630D01*
X0584137Y0295841D01*
X0584012Y0296050D01*
X0583881Y0296255D01*
X0583746Y0296457D01*
X0583606Y0296655D01*
X0583461Y0296850D01*
X0583311Y0297041D01*
X0583157Y0297229D01*
X0582998Y0297413D01*
X0582834Y0297593D01*
X0582667Y0297769D01*
X0582495Y0297940D01*
X0582319Y0298108D01*
X0582138Y0298271D01*
X0581954Y0298429D01*
X0581767Y0298584D01*
X0581575Y0298733D01*
X0581380Y0298878D01*
X0581181Y0299018D01*
X0580979Y0299153D01*
X0580774Y0299283D01*
X0580566Y0299408D01*
X0580354Y0299528D01*
X0580354Y0299527D02*
X0580287Y0299566D01*
X0580222Y0299609D01*
X0580159Y0299654D01*
X0580099Y0299703D01*
X0580041Y0299755D01*
X0579986Y0299810D01*
X0579934Y0299868D01*
X0579884Y0299928D01*
X0579838Y0299991D01*
X0579796Y0300055D01*
X0579756Y0300122D01*
X0579720Y0300191D01*
X0579688Y0300262D01*
X0579659Y0300334D01*
X0579634Y0300408D01*
X0579612Y0300482D01*
X0579595Y0300558D01*
X0579581Y0300635D01*
X0579572Y0300712D01*
X0579566Y0300789D01*
X0579564Y0300867D01*
X0579566Y0300945D01*
X0579567Y0300945D02*
X0579567Y0354961D01*
X0529606Y0360315D02*
X0528808Y0360107D01*
X0528016Y0359880D01*
X0527229Y0359634D01*
X0526449Y0359370D01*
X0525675Y0359086D01*
X0524908Y0358784D01*
X0524149Y0358463D01*
X0523398Y0358124D01*
X0522655Y0357767D01*
X0521921Y0357392D01*
X0521196Y0357000D01*
X0520481Y0356590D01*
X0519776Y0356163D01*
X0519081Y0355719D01*
X0518398Y0355258D01*
X0517726Y0354781D01*
X0517065Y0354288D01*
X0516417Y0353779D01*
X0512519Y0349843D02*
X0512035Y0349248D01*
X0511566Y0348642D01*
X0511112Y0348025D01*
X0510673Y0347396D01*
X0510250Y0346757D01*
X0509842Y0346108D01*
X0509451Y0345449D01*
X0509076Y0344781D01*
X0508717Y0344103D01*
X0508375Y0343417D01*
X0508050Y0342723D01*
X0507742Y0342021D01*
X0507452Y0341312D01*
X0507178Y0340595D01*
X0506923Y0339873D01*
X0506685Y0339144D01*
X0506466Y0338410D01*
X0506264Y0337670D01*
X0506081Y0336926D01*
X0505916Y0336177D01*
X0505769Y0335425D01*
X0505641Y0334669D01*
X0505531Y0333911D01*
X0505440Y0333149D01*
X0505368Y0332386D01*
X0505315Y0331622D01*
X0505280Y0330856D01*
X0505264Y0330090D01*
X0505267Y0329323D01*
X0505289Y0328557D01*
X0505329Y0327791D01*
X0505388Y0327027D01*
X0505466Y0326265D01*
X0505563Y0325504D01*
X0505678Y0324746D01*
X0505812Y0323992D01*
X0505965Y0323241D01*
X0506135Y0322493D01*
X0506324Y0321750D01*
X0506531Y0321012D01*
X0506757Y0320280D01*
X0507000Y0319553D01*
X0507260Y0318832D01*
X0507539Y0318118D01*
X0507835Y0317411D01*
X0508148Y0316711D01*
X0508478Y0316019D01*
X0508825Y0315336D01*
X0509189Y0314661D01*
X0509569Y0313996D01*
X0509966Y0313340D01*
X0510378Y0312694D01*
X0510806Y0312058D01*
X0511250Y0311433D01*
X0511708Y0310819D01*
X0512182Y0310216D01*
X0512671Y0309625D01*
X0513173Y0309046D01*
X0513690Y0308480D01*
X0514220Y0307927D01*
X0514764Y0307387D01*
X0515321Y0306860D01*
X0515891Y0306347D01*
X0516473Y0305849D01*
X0517067Y0305365D01*
X0517673Y0304895D01*
X0518290Y0304441D01*
X0518919Y0304001D01*
X0519557Y0303578D01*
X0520206Y0303170D01*
X0520865Y0302778D01*
X0521533Y0302402D01*
X0522211Y0302043D01*
X0522896Y0301701D01*
X0523590Y0301376D01*
X0524292Y0301067D01*
X0525001Y0300776D01*
X0525717Y0300503D01*
X0526440Y0300247D01*
X0527169Y0300009D01*
X0527903Y0299789D01*
X0528642Y0299587D01*
X0529386Y0299403D01*
X0530135Y0299238D01*
X0530887Y0299090D01*
X0531643Y0298962D01*
X0532401Y0298852D01*
X0533162Y0298760D01*
X0533925Y0298688D01*
X0534690Y0298634D01*
X0535456Y0298599D01*
X0536222Y0298582D01*
X0536989Y0298585D01*
X0537755Y0298606D01*
X0538520Y0298646D01*
X0539285Y0298705D01*
X0540047Y0298782D01*
X0540808Y0298879D01*
X0541565Y0298993D01*
X0542320Y0299127D01*
X0543072Y0299279D01*
X0543819Y0299449D01*
X0544562Y0299637D01*
X0545300Y0299844D01*
X0546033Y0300069D01*
X0546760Y0300312D01*
X0547481Y0300572D01*
X0548195Y0300850D01*
X0548902Y0301146D01*
X0549602Y0301458D01*
X0550294Y0301788D01*
X0550978Y0302135D01*
X0551653Y0302498D01*
X0552319Y0302878D01*
X0552975Y0303274D01*
X0553621Y0303686D01*
X0554257Y0304114D01*
X0554883Y0304557D01*
X0555497Y0305015D01*
X0556100Y0305489D01*
X0556691Y0305977D01*
X0557270Y0306479D01*
X0557836Y0306995D01*
X0558390Y0307526D01*
X0558930Y0308069D01*
X0559457Y0308626D01*
X0559970Y0309195D01*
X0560469Y0309777D01*
X0560954Y0310371D01*
X0561424Y0310977D01*
X0561879Y0311594D01*
X0562318Y0312222D01*
X0562742Y0312860D01*
X0563151Y0313509D01*
X0563543Y0314167D01*
X0563919Y0314835D01*
X0564278Y0315512D01*
X0564621Y0316198D01*
X0564947Y0316892D01*
X0565256Y0317593D01*
X0565547Y0318302D01*
X0565821Y0319018D01*
X0566077Y0319741D01*
X0566316Y0320469D01*
X0566536Y0321203D01*
X0566739Y0321943D01*
X0566923Y0322687D01*
X0567089Y0323435D01*
X0567236Y0324187D01*
X0567365Y0324943D01*
X0567476Y0325701D01*
X0567568Y0326462D01*
X0567641Y0327225D01*
X0567695Y0327990D01*
X0567731Y0328755D01*
X0567748Y0329522D01*
X0567746Y0330288D01*
X0567725Y0331055D01*
X0567685Y0331820D01*
X0567627Y0332584D01*
X0567550Y0333347D01*
X0567454Y0334107D01*
X0567340Y0334865D01*
X0567207Y0335620D01*
X0567055Y0336372D01*
X0566885Y0337119D01*
X0566697Y0337862D01*
X0566491Y0338600D01*
X0566267Y0339333D01*
X0566024Y0340061D01*
X0565764Y0340782D01*
X0565487Y0341496D01*
X0565192Y0342204D01*
X0564879Y0342904D01*
X0564550Y0343596D01*
X0564204Y0344280D01*
X0563841Y0344955D01*
X0563461Y0345621D01*
X0563066Y0346277D01*
X0562654Y0346924D01*
X0562227Y0347560D01*
X0561784Y0348186D01*
X0561326Y0348800D01*
X0560853Y0349404D01*
X0560365Y0349995D01*
X0559863Y0350574D01*
X0559347Y0351141D01*
X0558817Y0351695D01*
X0558274Y0352236D01*
X0557718Y0352763D01*
X0557148Y0353276D01*
X0556567Y0353776D01*
X0555973Y0354261D01*
X0555368Y0354731D01*
X0554751Y0355186D01*
X0554124Y0355626D01*
X0553485Y0356050D01*
X0552837Y0356459D01*
X0552178Y0356852D01*
X0551511Y0357228D01*
X0550834Y0357588D01*
X0550148Y0357931D01*
X0549455Y0358257D01*
X0548753Y0358566D01*
X0548045Y0358858D01*
X0547329Y0359133D01*
X0546607Y0359389D01*
X0545878Y0359628D01*
X0545144Y0359849D01*
X0544405Y0360052D01*
X0543661Y0360237D01*
X0553510Y0375547D02*
X0554634Y0375096D01*
X0555747Y0374619D01*
X0556848Y0374115D01*
X0557938Y0373585D01*
X0559014Y0373030D01*
X0560076Y0372448D01*
X0561125Y0371842D01*
X0562159Y0371211D01*
X0563177Y0370556D01*
X0564180Y0369877D01*
X0565167Y0369174D01*
X0566136Y0368448D01*
X0567088Y0367699D01*
X0568021Y0366927D01*
X0568936Y0366134D01*
X0569832Y0365319D01*
X0570709Y0364483D01*
X0571565Y0363627D01*
X0572401Y0362750D01*
X0573215Y0361854D01*
X0574009Y0360938D01*
X0574780Y0360004D01*
X0575528Y0359052D01*
X0576254Y0358083D01*
X0576957Y0357096D01*
X0577636Y0356093D01*
X0578291Y0355074D01*
X0578921Y0354040D01*
X0579527Y0352992D01*
X0519175Y0375803D02*
X0518572Y0375720D01*
X0517967Y0375652D01*
X0517361Y0375598D01*
X0516754Y0375560D01*
X0516146Y0375535D01*
X0515537Y0375526D01*
X0514928Y0375532D01*
X0514320Y0375552D01*
X0513713Y0375587D01*
X0513106Y0375636D01*
X0512501Y0375701D01*
X0511897Y0375780D01*
X0511296Y0375874D01*
X0510697Y0375982D01*
X0510101Y0376105D01*
X0509508Y0376242D01*
X0508918Y0376393D01*
X0508333Y0376559D01*
X0507751Y0376739D01*
X0507174Y0376933D01*
X0506602Y0377141D01*
X0506036Y0377363D01*
X0505474Y0377599D01*
X0504919Y0377848D01*
X0504370Y0378110D01*
X0423976Y0367244D02*
X0423068Y0367743D01*
X0422148Y0368221D01*
X0421218Y0368676D01*
X0420276Y0369108D01*
X0419324Y0369518D01*
X0418363Y0369905D01*
X0417393Y0370269D01*
X0416414Y0370609D01*
X0415428Y0370926D01*
X0414434Y0371219D01*
X0413433Y0371487D01*
X0412427Y0371732D01*
X0411414Y0371953D01*
X0410397Y0372149D01*
X0409375Y0372320D01*
X0408349Y0372467D01*
X0407320Y0372590D01*
X0406289Y0372687D01*
X0405255Y0372760D01*
X0404220Y0372808D01*
X0403184Y0372831D01*
X0402148Y0372829D01*
X0401112Y0372802D01*
X0400078Y0372750D01*
X0399044Y0372674D01*
X0398013Y0372572D01*
X0396985Y0372446D01*
X0395960Y0372296D01*
X0394938Y0372120D01*
X0393922Y0371920D01*
X0392910Y0371696D01*
X0391904Y0371448D01*
X0390905Y0371175D01*
X0389912Y0370879D01*
X0388927Y0370558D01*
X0387949Y0370214D01*
X0386980Y0369847D01*
X0386021Y0369457D01*
X0385070Y0369043D01*
X0384131Y0368607D01*
X0383201Y0368149D01*
X0382284Y0367668D01*
X0381378Y0367165D01*
X0368780Y0355787D02*
X0368157Y0354954D01*
X0367555Y0354107D01*
X0366974Y0353245D01*
X0366414Y0352369D01*
X0365875Y0351479D01*
X0365358Y0350577D01*
X0364864Y0349663D01*
X0364391Y0348736D01*
X0363942Y0347799D01*
X0363515Y0346851D01*
X0363112Y0345892D01*
X0362732Y0344925D01*
X0362376Y0343948D01*
X0362043Y0342963D01*
X0361735Y0341970D01*
X0361451Y0340969D01*
X0361192Y0339963D01*
X0360957Y0338950D01*
X0360747Y0337932D01*
X0360562Y0336908D01*
X0360401Y0335881D01*
X0360266Y0334850D01*
X0360156Y0333816D01*
X0360071Y0332780D01*
X0360012Y0331742D01*
X0359977Y0330703D01*
X0359968Y0329663D01*
X0359985Y0328624D01*
X0360026Y0327585D01*
X0360093Y0326547D01*
X0360185Y0325512D01*
X0360303Y0324479D01*
X0360445Y0323449D01*
X0360613Y0322423D01*
X0360806Y0321401D01*
X0361023Y0320384D01*
X0361265Y0319373D01*
X0361532Y0318368D01*
X0361823Y0317370D01*
X0362138Y0316379D01*
X0362477Y0315396D01*
X0362840Y0314422D01*
X0363227Y0313457D01*
X0363637Y0312502D01*
X0364071Y0311557D01*
X0364527Y0310622D01*
X0365006Y0309699D01*
X0365507Y0308788D01*
X0366030Y0307890D01*
X0366575Y0307004D01*
X0367141Y0306133D01*
X0367729Y0305275D01*
X0368337Y0304431D01*
X0368965Y0303603D01*
X0369614Y0302790D01*
X0370282Y0301994D01*
X0370969Y0301214D01*
X0371675Y0300450D01*
X0372400Y0299705D01*
X0373142Y0298977D01*
X0373902Y0298267D01*
X0374679Y0297576D01*
X0375472Y0296904D01*
X0376282Y0296252D01*
X0377108Y0295620D01*
X0377948Y0295008D01*
X0378803Y0294417D01*
X0379673Y0293846D01*
X0380555Y0293297D01*
X0381452Y0292770D01*
X0382360Y0292265D01*
X0383281Y0291782D01*
X0384213Y0291321D01*
X0385156Y0290883D01*
X0386110Y0290469D01*
X0387073Y0290078D01*
X0388046Y0289710D01*
X0389027Y0289366D01*
X0390016Y0289046D01*
X0391013Y0288751D01*
X0392017Y0288480D01*
X0393027Y0288233D01*
X0394042Y0288011D01*
X0395063Y0287814D01*
X0396088Y0287641D01*
X0397118Y0287494D01*
X0398150Y0287372D01*
X0399185Y0287275D01*
X0400223Y0287203D01*
X0401261Y0287157D01*
X0402301Y0287135D01*
X0403340Y0287140D01*
X0404380Y0287169D01*
X0405418Y0287224D01*
X0406455Y0287304D01*
X0407489Y0287409D01*
X0408521Y0287540D01*
X0409549Y0287695D01*
X0410572Y0287876D01*
X0411592Y0288081D01*
X0412606Y0288312D01*
X0413614Y0288566D01*
X0414615Y0288846D01*
X0415609Y0289149D01*
X0416596Y0289477D01*
X0417575Y0289829D01*
X0418544Y0290204D01*
X0419504Y0290603D01*
X0420454Y0291025D01*
X0421394Y0291471D01*
X0422322Y0291939D01*
X0423239Y0292429D01*
X0424144Y0292942D01*
X0425036Y0293476D01*
X0425914Y0294032D01*
X0426779Y0294610D01*
X0427629Y0295208D01*
X0428465Y0295827D01*
X0409488Y0360275D02*
X0408760Y0360428D01*
X0408029Y0360563D01*
X0407295Y0360682D01*
X0406558Y0360783D01*
X0405819Y0360867D01*
X0405079Y0360934D01*
X0404337Y0360984D01*
X0403594Y0361017D01*
X0402850Y0361032D01*
X0402106Y0361030D01*
X0401363Y0361010D01*
X0400620Y0360974D01*
X0399878Y0360920D01*
X0399138Y0360848D01*
X0398400Y0360760D01*
X0397664Y0360655D01*
X0396930Y0360532D01*
X0396200Y0360392D01*
X0395473Y0360236D01*
X0427205Y0349095D02*
X0427671Y0348490D01*
X0428122Y0347874D01*
X0428558Y0347247D01*
X0428979Y0346610D01*
X0429385Y0345963D01*
X0429774Y0345306D01*
X0430147Y0344640D01*
X0430504Y0343965D01*
X0430845Y0343282D01*
X0431169Y0342590D01*
X0431476Y0341891D01*
X0431766Y0341184D01*
X0432038Y0340471D01*
X0432293Y0339751D01*
X0432531Y0339026D01*
X0432751Y0338294D01*
X0432953Y0337558D01*
X0433137Y0336817D01*
X0433303Y0336072D01*
X0433451Y0335323D01*
X0433581Y0334570D01*
X0433692Y0333815D01*
X0433785Y0333057D01*
X0433860Y0332297D01*
X0433916Y0331535D01*
X0433953Y0330772D01*
X0433972Y0330009D01*
X0433973Y0329245D01*
X0433955Y0328482D01*
X0433918Y0327719D01*
X0433863Y0326958D01*
X0433789Y0326198D01*
X0433697Y0325440D01*
X0433586Y0324684D01*
X0433458Y0323931D01*
X0433311Y0323182D01*
X0433145Y0322436D01*
X0432962Y0321695D01*
X0432761Y0320959D01*
X0432541Y0320227D01*
X0432305Y0319501D01*
X0432050Y0318781D01*
X0431778Y0318068D01*
X0431489Y0317361D01*
X0431183Y0316661D01*
X0430860Y0315969D01*
X0430520Y0315286D01*
X0430164Y0314610D01*
X0429791Y0313944D01*
X0429402Y0313286D01*
X0428998Y0312639D01*
X0428578Y0312001D01*
X0428142Y0311374D01*
X0427691Y0310757D01*
X0427226Y0310152D01*
X0426746Y0309558D01*
X0426251Y0308976D01*
X0425743Y0308407D01*
X0425221Y0307849D01*
X0424685Y0307305D01*
X0424137Y0306774D01*
X0423576Y0306256D01*
X0423002Y0305752D01*
X0422416Y0305262D01*
X0421819Y0304787D01*
X0421210Y0304326D01*
X0420590Y0303880D01*
X0419959Y0303449D01*
X0419318Y0303034D01*
X0418668Y0302634D01*
X0418007Y0302251D01*
X0417338Y0301883D01*
X0416660Y0301532D01*
X0415974Y0301198D01*
X0415279Y0300880D01*
X0414577Y0300579D01*
X0413868Y0300295D01*
X0413153Y0300029D01*
X0412431Y0299780D01*
X0411703Y0299549D01*
X0410970Y0299335D01*
X0410232Y0299140D01*
X0409489Y0298962D01*
X0408742Y0298803D01*
X0407992Y0298661D01*
X0445669Y0352993D02*
X0445064Y0354041D01*
X0444433Y0355075D01*
X0443778Y0356094D01*
X0443099Y0357097D01*
X0442396Y0358084D01*
X0441670Y0359053D01*
X0440922Y0360005D01*
X0440151Y0360939D01*
X0439358Y0361855D01*
X0438543Y0362751D01*
X0437707Y0363628D01*
X0436851Y0364484D01*
X0435975Y0365320D01*
X0435078Y0366135D01*
X0434163Y0366928D01*
X0433230Y0367700D01*
X0432278Y0368449D01*
X0431308Y0369175D01*
X0430322Y0369878D01*
X0429319Y0370557D01*
X0428301Y0371212D01*
X0427267Y0371843D01*
X0426218Y0372450D01*
X0425156Y0373031D01*
X0424079Y0373586D01*
X0422990Y0374116D01*
X0421889Y0374620D01*
X0420776Y0375098D01*
X0419652Y0375549D01*
X0395472Y0360236D02*
X0394725Y0360054D01*
X0393983Y0359854D01*
X0393246Y0359636D01*
X0392515Y0359400D01*
X0391790Y0359146D01*
X0391071Y0358875D01*
X0390359Y0358586D01*
X0389654Y0358280D01*
X0388957Y0357956D01*
X0388268Y0357616D01*
X0387587Y0357259D01*
X0386916Y0356885D01*
X0386254Y0356495D01*
X0385601Y0356089D01*
X0384959Y0355667D01*
X0384327Y0355230D01*
X0383706Y0354777D01*
X0383096Y0354309D01*
X0382498Y0353826D01*
X0381912Y0353329D01*
X0381339Y0352818D01*
X0380777Y0352293D01*
X0380229Y0351754D01*
X0379695Y0351203D01*
X0379173Y0350638D01*
X0378666Y0350060D01*
X0378173Y0349471D01*
X0377695Y0348869D01*
X0377232Y0348256D01*
X0376783Y0347632D01*
X0376350Y0346997D01*
X0375933Y0346352D01*
X0375532Y0345697D01*
X0375146Y0345032D01*
X0374777Y0344358D01*
X0374425Y0343675D01*
X0374089Y0342983D01*
X0373771Y0342284D01*
X0373470Y0341577D01*
X0373186Y0340863D01*
X0372919Y0340142D01*
X0372671Y0339415D01*
X0372440Y0338682D01*
X0372227Y0337943D01*
X0372032Y0337200D01*
X0371856Y0336452D01*
X0371697Y0335700D01*
X0371558Y0334944D01*
X0371436Y0334186D01*
X0371334Y0333424D01*
X0371250Y0332660D01*
X0371184Y0331894D01*
X0371138Y0331127D01*
X0371110Y0330359D01*
X0371101Y0329591D01*
X0371111Y0328822D01*
X0371139Y0328054D01*
X0371187Y0327287D01*
X0371253Y0326522D01*
X0371337Y0325758D01*
X0371441Y0324996D01*
X0371563Y0324238D01*
X0371703Y0323482D01*
X0371862Y0322730D01*
X0372039Y0321983D01*
X0372235Y0321239D01*
X0372448Y0320501D01*
X0372680Y0319768D01*
X0372929Y0319041D01*
X0373197Y0318321D01*
X0373481Y0317607D01*
X0373783Y0316900D01*
X0374102Y0316201D01*
X0374439Y0315510D01*
X0374792Y0314828D01*
X0375161Y0314154D01*
X0375547Y0313489D01*
X0375949Y0312834D01*
X0376367Y0312189D01*
X0376801Y0311555D01*
X0377250Y0310931D01*
X0377714Y0310319D01*
X0378193Y0309718D01*
X0378686Y0309129D01*
X0379194Y0308552D01*
X0379715Y0307987D01*
X0380251Y0307436D01*
X0380799Y0306898D01*
X0381361Y0306373D01*
X0381935Y0305863D01*
X0382522Y0305366D01*
X0383120Y0304884D01*
X0383730Y0304417D01*
X0384352Y0303965D01*
X0384984Y0303528D01*
X0385627Y0303107D01*
X0386280Y0302701D01*
X0386942Y0302312D01*
X0387614Y0301939D01*
X0388295Y0301582D01*
X0388984Y0301243D01*
X0389682Y0300920D01*
X0390387Y0300614D01*
X0391099Y0300326D01*
X0391818Y0300055D01*
X0392544Y0299802D01*
X0393275Y0299567D01*
X0394013Y0299349D01*
X0394755Y0299150D01*
X0395502Y0298969D01*
X0396253Y0298806D01*
X0397007Y0298662D01*
X0421928Y0354370D02*
X0421317Y0354837D01*
X0420694Y0355290D01*
X0420060Y0355727D01*
X0419416Y0356149D01*
X0418761Y0356556D01*
X0418098Y0356946D01*
X0417425Y0357320D01*
X0416743Y0357678D01*
X0416052Y0358019D01*
X0415354Y0358344D01*
X0414648Y0358651D01*
X0413935Y0358942D01*
X0413215Y0359215D01*
X0412488Y0359470D01*
X0411756Y0359708D01*
X0411018Y0359928D01*
X0410275Y0360130D01*
X0409527Y0360314D01*
X0501575Y0379370D02*
X0504370Y0378110D01*
D13*
X0461201Y0379016D03*
M02*
