G75*
%MOIN*%
%OFA0B0*%
%FSLAX25Y25*%
%IPPOS*%
%LPD*%
%AMOC8*
5,1,8,0,0,1.08239X$1,22.5*
%
%ADD10C,0.00000*%
%ADD11C,0.09449*%
%ADD12C,0.07087*%
%ADD13C,0.07050*%
%ADD14R,0.02500X0.05000*%
%ADD15R,0.07008X0.12402*%
%ADD16C,0.03937*%
%ADD17C,0.06000*%
%ADD18C,0.03200*%
D10*
X0390827Y0284528D02*
X0569961Y0284528D01*
X0570246Y0284531D01*
X0570532Y0284542D01*
X0570817Y0284559D01*
X0571101Y0284583D01*
X0571385Y0284614D01*
X0571668Y0284652D01*
X0571949Y0284697D01*
X0572230Y0284748D01*
X0572510Y0284806D01*
X0572788Y0284871D01*
X0573064Y0284943D01*
X0573338Y0285021D01*
X0573611Y0285106D01*
X0573881Y0285198D01*
X0574149Y0285296D01*
X0574415Y0285400D01*
X0574678Y0285511D01*
X0574938Y0285628D01*
X0575196Y0285751D01*
X0575450Y0285881D01*
X0575701Y0286017D01*
X0575949Y0286158D01*
X0576193Y0286306D01*
X0576434Y0286459D01*
X0576670Y0286619D01*
X0576903Y0286784D01*
X0577132Y0286954D01*
X0577357Y0287130D01*
X0577577Y0287312D01*
X0577793Y0287498D01*
X0578004Y0287690D01*
X0578211Y0287887D01*
X0578413Y0288089D01*
X0578610Y0288296D01*
X0578802Y0288507D01*
X0578988Y0288723D01*
X0579170Y0288943D01*
X0579346Y0289168D01*
X0579516Y0289397D01*
X0579681Y0289630D01*
X0579841Y0289866D01*
X0579994Y0290107D01*
X0580142Y0290351D01*
X0580283Y0290599D01*
X0580419Y0290850D01*
X0580549Y0291104D01*
X0580672Y0291362D01*
X0580789Y0291622D01*
X0580900Y0291885D01*
X0581004Y0292151D01*
X0581102Y0292419D01*
X0581194Y0292689D01*
X0581279Y0292962D01*
X0581357Y0293236D01*
X0581429Y0293512D01*
X0581494Y0293790D01*
X0581552Y0294070D01*
X0581603Y0294351D01*
X0581648Y0294632D01*
X0581686Y0294915D01*
X0581717Y0295199D01*
X0581741Y0295483D01*
X0581758Y0295768D01*
X0581769Y0296054D01*
X0581772Y0296339D01*
X0581772Y0373110D01*
X0581769Y0373395D01*
X0581758Y0373681D01*
X0581741Y0373966D01*
X0581717Y0374250D01*
X0581686Y0374534D01*
X0581648Y0374817D01*
X0581603Y0375098D01*
X0581552Y0375379D01*
X0581494Y0375659D01*
X0581429Y0375937D01*
X0581357Y0376213D01*
X0581279Y0376487D01*
X0581194Y0376760D01*
X0581102Y0377030D01*
X0581004Y0377298D01*
X0580900Y0377564D01*
X0580789Y0377827D01*
X0580672Y0378087D01*
X0580549Y0378345D01*
X0580419Y0378599D01*
X0580283Y0378850D01*
X0580142Y0379098D01*
X0579994Y0379342D01*
X0579841Y0379583D01*
X0579681Y0379819D01*
X0579516Y0380052D01*
X0579346Y0380281D01*
X0579170Y0380506D01*
X0578988Y0380726D01*
X0578802Y0380942D01*
X0578610Y0381153D01*
X0578413Y0381360D01*
X0578211Y0381562D01*
X0578004Y0381759D01*
X0577793Y0381951D01*
X0577577Y0382137D01*
X0577357Y0382319D01*
X0577132Y0382495D01*
X0576903Y0382665D01*
X0576670Y0382830D01*
X0576434Y0382990D01*
X0576193Y0383143D01*
X0575949Y0383291D01*
X0575701Y0383432D01*
X0575450Y0383568D01*
X0575196Y0383698D01*
X0574938Y0383821D01*
X0574678Y0383938D01*
X0574415Y0384049D01*
X0574149Y0384153D01*
X0573881Y0384251D01*
X0573611Y0384343D01*
X0573338Y0384428D01*
X0573064Y0384506D01*
X0572788Y0384578D01*
X0572510Y0384643D01*
X0572230Y0384701D01*
X0571949Y0384752D01*
X0571668Y0384797D01*
X0571385Y0384835D01*
X0571101Y0384866D01*
X0570817Y0384890D01*
X0570532Y0384907D01*
X0570246Y0384918D01*
X0569961Y0384921D01*
X0390827Y0384921D01*
X0390542Y0384918D01*
X0390256Y0384907D01*
X0389971Y0384890D01*
X0389687Y0384866D01*
X0389403Y0384835D01*
X0389120Y0384797D01*
X0388839Y0384752D01*
X0388558Y0384701D01*
X0388278Y0384643D01*
X0388000Y0384578D01*
X0387724Y0384506D01*
X0387450Y0384428D01*
X0387177Y0384343D01*
X0386907Y0384251D01*
X0386639Y0384153D01*
X0386373Y0384049D01*
X0386110Y0383938D01*
X0385850Y0383821D01*
X0385592Y0383698D01*
X0385338Y0383568D01*
X0385087Y0383432D01*
X0384839Y0383291D01*
X0384595Y0383143D01*
X0384354Y0382990D01*
X0384118Y0382830D01*
X0383885Y0382665D01*
X0383656Y0382495D01*
X0383431Y0382319D01*
X0383211Y0382137D01*
X0382995Y0381951D01*
X0382784Y0381759D01*
X0382577Y0381562D01*
X0382375Y0381360D01*
X0382178Y0381153D01*
X0381986Y0380942D01*
X0381800Y0380726D01*
X0381618Y0380506D01*
X0381442Y0380281D01*
X0381272Y0380052D01*
X0381107Y0379819D01*
X0380947Y0379583D01*
X0380794Y0379342D01*
X0380646Y0379098D01*
X0380505Y0378850D01*
X0380369Y0378599D01*
X0380239Y0378345D01*
X0380116Y0378087D01*
X0379999Y0377827D01*
X0379888Y0377564D01*
X0379784Y0377298D01*
X0379686Y0377030D01*
X0379594Y0376760D01*
X0379509Y0376487D01*
X0379431Y0376213D01*
X0379359Y0375937D01*
X0379294Y0375659D01*
X0379236Y0375379D01*
X0379185Y0375098D01*
X0379140Y0374817D01*
X0379102Y0374534D01*
X0379071Y0374250D01*
X0379047Y0373966D01*
X0379030Y0373681D01*
X0379019Y0373395D01*
X0379016Y0373110D01*
X0379016Y0296339D01*
X0379019Y0296054D01*
X0379030Y0295768D01*
X0379047Y0295483D01*
X0379071Y0295199D01*
X0379102Y0294915D01*
X0379140Y0294632D01*
X0379185Y0294351D01*
X0379236Y0294070D01*
X0379294Y0293790D01*
X0379359Y0293512D01*
X0379431Y0293236D01*
X0379509Y0292962D01*
X0379594Y0292689D01*
X0379686Y0292419D01*
X0379784Y0292151D01*
X0379888Y0291885D01*
X0379999Y0291622D01*
X0380116Y0291362D01*
X0380239Y0291104D01*
X0380369Y0290850D01*
X0380505Y0290599D01*
X0380646Y0290351D01*
X0380794Y0290107D01*
X0380947Y0289866D01*
X0381107Y0289630D01*
X0381272Y0289397D01*
X0381442Y0289168D01*
X0381618Y0288943D01*
X0381800Y0288723D01*
X0381986Y0288507D01*
X0382178Y0288296D01*
X0382375Y0288089D01*
X0382577Y0287887D01*
X0382784Y0287690D01*
X0382995Y0287498D01*
X0383211Y0287312D01*
X0383431Y0287130D01*
X0383656Y0286954D01*
X0383885Y0286784D01*
X0384118Y0286619D01*
X0384354Y0286459D01*
X0384595Y0286306D01*
X0384839Y0286158D01*
X0385087Y0286017D01*
X0385338Y0285881D01*
X0385592Y0285751D01*
X0385850Y0285628D01*
X0386110Y0285511D01*
X0386373Y0285400D01*
X0386639Y0285296D01*
X0386907Y0285198D01*
X0387177Y0285106D01*
X0387450Y0285021D01*
X0387724Y0284943D01*
X0388000Y0284871D01*
X0388278Y0284806D01*
X0388558Y0284748D01*
X0388839Y0284697D01*
X0389120Y0284652D01*
X0389403Y0284614D01*
X0389687Y0284583D01*
X0389971Y0284559D01*
X0390256Y0284542D01*
X0390542Y0284531D01*
X0390827Y0284528D01*
D11*
X0402638Y0314803D03*
X0417638Y0329803D03*
X0387638Y0329803D03*
X0521496Y0329803D03*
X0551496Y0329803D03*
D12*
X0536496Y0312283D03*
X0568976Y0289803D03*
X0402638Y0297303D03*
D13*
X0561496Y0354803D03*
X0568996Y0357303D03*
X0576496Y0359803D03*
D14*
X0475276Y0329803D03*
X0471732Y0329803D03*
D15*
X0454705Y0342795D03*
X0441122Y0342795D03*
D16*
X0390827Y0373110D03*
X0390827Y0294370D03*
X0571929Y0302244D03*
X0571929Y0373110D03*
D17*
X0521811Y0305244D02*
X0521811Y0299244D01*
X0511811Y0299244D02*
X0511811Y0305244D01*
X0499252Y0305244D02*
X0499252Y0299244D01*
X0489252Y0299244D02*
X0489252Y0305244D01*
X0479252Y0305244D02*
X0479252Y0299244D01*
X0467756Y0299244D02*
X0467756Y0305244D01*
X0457756Y0305244D02*
X0457756Y0299244D01*
X0447756Y0299244D02*
X0447756Y0305244D01*
D18*
X0447756Y0302244D02*
X0447756Y0302244D01*
X0447756Y0293857D01*
X0448180Y0293857D01*
X0449017Y0293989D01*
X0449824Y0294251D01*
X0450580Y0294636D01*
X0451266Y0295135D01*
X0451865Y0295734D01*
X0452364Y0296420D01*
X0452520Y0296728D01*
X0452839Y0295959D01*
X0454470Y0294327D01*
X0456602Y0293444D01*
X0458910Y0293444D01*
X0461041Y0294327D01*
X0462673Y0295959D01*
X0462756Y0296159D01*
X0462839Y0295959D01*
X0464470Y0294327D01*
X0466602Y0293444D01*
X0468910Y0293444D01*
X0471041Y0294327D01*
X0471142Y0294427D01*
X0471142Y0287328D01*
X0390827Y0287328D01*
X0389651Y0287405D01*
X0387378Y0288013D01*
X0385341Y0289190D01*
X0383678Y0290853D01*
X0382502Y0292890D01*
X0381893Y0295162D01*
X0381816Y0296339D01*
X0381816Y0324984D01*
X0383376Y0323424D01*
X0386141Y0322279D01*
X0389134Y0322279D01*
X0391900Y0323424D01*
X0394017Y0325541D01*
X0395162Y0328306D01*
X0395162Y0331300D01*
X0394017Y0334065D01*
X0391900Y0336182D01*
X0389134Y0337328D01*
X0386141Y0337328D01*
X0383376Y0336182D01*
X0381816Y0334622D01*
X0381816Y0373110D01*
X0381893Y0374286D01*
X0382502Y0376559D01*
X0383678Y0378596D01*
X0385341Y0380259D01*
X0387378Y0381435D01*
X0389651Y0382044D01*
X0390827Y0382121D01*
X0471142Y0382121D01*
X0471142Y0334691D01*
X0470247Y0334691D01*
X0469786Y0334599D01*
X0469351Y0334419D01*
X0468960Y0334158D01*
X0468628Y0333825D01*
X0468367Y0333434D01*
X0468187Y0333000D01*
X0468095Y0332538D01*
X0468095Y0329803D01*
X0468095Y0327068D01*
X0468187Y0326607D01*
X0468367Y0326172D01*
X0468628Y0325781D01*
X0468960Y0325449D01*
X0469351Y0325187D01*
X0469786Y0325007D01*
X0470247Y0324916D01*
X0471142Y0324916D01*
X0471142Y0310061D01*
X0471041Y0310161D01*
X0468910Y0311044D01*
X0466602Y0311044D01*
X0464470Y0310161D01*
X0462839Y0308530D01*
X0462756Y0308329D01*
X0462673Y0308530D01*
X0462156Y0309047D01*
X0462156Y0310993D01*
X0461486Y0312611D01*
X0460248Y0313848D01*
X0455563Y0318533D01*
X0453946Y0319203D01*
X0408879Y0319203D01*
X0406900Y0321182D01*
X0404134Y0322328D01*
X0401141Y0322328D01*
X0398376Y0321182D01*
X0396259Y0319065D01*
X0395113Y0316300D01*
X0395113Y0313306D01*
X0396259Y0310541D01*
X0398376Y0308424D01*
X0401141Y0307279D01*
X0404134Y0307279D01*
X0406900Y0308424D01*
X0408879Y0310403D01*
X0446200Y0310403D01*
X0445688Y0310237D01*
X0444932Y0309852D01*
X0444246Y0309353D01*
X0443647Y0308754D01*
X0443148Y0308068D01*
X0442763Y0307312D01*
X0442501Y0306506D01*
X0442369Y0305668D01*
X0442369Y0302244D01*
X0442369Y0298820D01*
X0442501Y0297983D01*
X0442763Y0297176D01*
X0443148Y0296420D01*
X0443647Y0295734D01*
X0444246Y0295135D01*
X0444932Y0294636D01*
X0445688Y0294251D01*
X0446494Y0293989D01*
X0447332Y0293857D01*
X0447756Y0293857D01*
X0447756Y0302244D01*
X0447756Y0302244D01*
X0442369Y0302244D01*
X0447756Y0302244D01*
X0447756Y0300520D02*
X0447756Y0300520D01*
X0447756Y0297322D02*
X0447756Y0297322D01*
X0447756Y0294123D02*
X0447756Y0294123D01*
X0449429Y0294123D02*
X0454963Y0294123D01*
X0460549Y0294123D02*
X0464963Y0294123D01*
X0470549Y0294123D02*
X0471142Y0294123D01*
X0471142Y0290925D02*
X0394125Y0290925D01*
X0393528Y0290328D02*
X0394869Y0291669D01*
X0395595Y0293422D01*
X0395595Y0295319D01*
X0394869Y0297071D01*
X0393528Y0298413D01*
X0391775Y0299139D01*
X0389878Y0299139D01*
X0388126Y0298413D01*
X0386784Y0297071D01*
X0386058Y0295319D01*
X0386058Y0293422D01*
X0386784Y0291669D01*
X0388126Y0290328D01*
X0389878Y0289602D01*
X0391775Y0289602D01*
X0393528Y0290328D01*
X0395595Y0294123D02*
X0397089Y0294123D01*
X0397260Y0293710D02*
X0399045Y0291926D01*
X0401376Y0290960D01*
X0403900Y0290960D01*
X0406231Y0291926D01*
X0408015Y0293710D01*
X0408981Y0296041D01*
X0408981Y0298565D01*
X0408015Y0300896D01*
X0406231Y0302681D01*
X0403900Y0303646D01*
X0401376Y0303646D01*
X0399045Y0302681D01*
X0397260Y0300896D01*
X0396294Y0298565D01*
X0396294Y0296041D01*
X0397260Y0293710D01*
X0396294Y0297322D02*
X0394619Y0297322D01*
X0397104Y0300520D02*
X0381816Y0300520D01*
X0381816Y0297322D02*
X0387035Y0297322D01*
X0386058Y0294123D02*
X0382171Y0294123D01*
X0383637Y0290925D02*
X0387529Y0290925D01*
X0388451Y0287726D02*
X0471142Y0287726D01*
X0475542Y0287726D02*
X0562971Y0287726D01*
X0563136Y0287328D02*
X0475542Y0287328D01*
X0475542Y0295335D01*
X0475742Y0295135D01*
X0476428Y0294636D01*
X0477184Y0294251D01*
X0477990Y0293989D01*
X0478828Y0293857D01*
X0479252Y0293857D01*
X0479676Y0293857D01*
X0480514Y0293989D01*
X0481320Y0294251D01*
X0482076Y0294636D01*
X0482762Y0295135D01*
X0483361Y0295734D01*
X0483860Y0296420D01*
X0484016Y0296728D01*
X0484335Y0295959D01*
X0485967Y0294327D01*
X0488098Y0293444D01*
X0490406Y0293444D01*
X0492537Y0294327D01*
X0494169Y0295959D01*
X0494252Y0296159D01*
X0494335Y0295959D01*
X0495967Y0294327D01*
X0498098Y0293444D01*
X0500406Y0293444D01*
X0502537Y0294327D01*
X0504169Y0295959D01*
X0505052Y0298090D01*
X0505052Y0306398D01*
X0504169Y0308530D01*
X0503043Y0309655D01*
X0507411Y0309655D01*
X0507411Y0309047D01*
X0506894Y0308530D01*
X0506011Y0306398D01*
X0506011Y0298090D01*
X0506894Y0295959D01*
X0508526Y0294327D01*
X0510657Y0293444D01*
X0512965Y0293444D01*
X0515096Y0294327D01*
X0516728Y0295959D01*
X0516811Y0296159D01*
X0516894Y0295959D01*
X0518526Y0294327D01*
X0520657Y0293444D01*
X0522965Y0293444D01*
X0525096Y0294327D01*
X0526728Y0295959D01*
X0527611Y0298090D01*
X0527611Y0306398D01*
X0526728Y0308530D01*
X0525602Y0309655D01*
X0530719Y0309655D01*
X0531118Y0308690D01*
X0532903Y0306906D01*
X0535234Y0305940D01*
X0537758Y0305940D01*
X0540089Y0306906D01*
X0541874Y0308690D01*
X0542273Y0309655D01*
X0553119Y0309655D01*
X0554736Y0310325D01*
X0555974Y0311563D01*
X0565226Y0320815D01*
X0565896Y0322432D01*
X0565896Y0350258D01*
X0566858Y0351220D01*
X0567063Y0351715D01*
X0567612Y0351536D01*
X0568531Y0351391D01*
X0568996Y0351391D01*
X0568996Y0357303D01*
X0568996Y0357303D01*
X0568996Y0351391D01*
X0569461Y0351391D01*
X0570381Y0351536D01*
X0571266Y0351824D01*
X0572095Y0352246D01*
X0572848Y0352793D01*
X0573506Y0353451D01*
X0573921Y0354023D01*
X0575238Y0353478D01*
X0577754Y0353478D01*
X0578972Y0353982D01*
X0578972Y0296339D01*
X0578895Y0295162D01*
X0578286Y0292890D01*
X0577110Y0290853D01*
X0575446Y0289190D01*
X0575320Y0289117D01*
X0575320Y0291065D01*
X0574354Y0293396D01*
X0572570Y0295181D01*
X0570238Y0296146D01*
X0567715Y0296146D01*
X0565383Y0295181D01*
X0563599Y0293396D01*
X0562633Y0291065D01*
X0562633Y0288541D01*
X0563136Y0287328D01*
X0562633Y0290925D02*
X0475542Y0290925D01*
X0475542Y0294123D02*
X0477579Y0294123D01*
X0479252Y0294123D02*
X0479252Y0294123D01*
X0479252Y0293857D02*
X0479252Y0302244D01*
X0479252Y0302244D01*
X0479252Y0293857D01*
X0480925Y0294123D02*
X0486459Y0294123D01*
X0492045Y0294123D02*
X0496459Y0294123D01*
X0502045Y0294123D02*
X0509018Y0294123D01*
X0506329Y0297322D02*
X0504734Y0297322D01*
X0505052Y0300520D02*
X0506011Y0300520D01*
X0506011Y0303719D02*
X0505052Y0303719D01*
X0504837Y0306917D02*
X0506226Y0306917D01*
X0511811Y0309055D02*
X0516811Y0314055D01*
X0534724Y0314055D01*
X0536496Y0312283D01*
X0538268Y0314055D01*
X0552244Y0314055D01*
X0561496Y0323307D01*
X0561496Y0354803D01*
X0555171Y0354895D02*
X0475542Y0354895D01*
X0475542Y0358093D02*
X0556013Y0358093D01*
X0556134Y0358386D02*
X0555171Y0356061D01*
X0555171Y0353545D01*
X0556134Y0351220D01*
X0557096Y0350258D01*
X0557096Y0334844D01*
X0555758Y0336182D01*
X0552993Y0337328D01*
X0549999Y0337328D01*
X0547234Y0336182D01*
X0545117Y0334065D01*
X0543972Y0331300D01*
X0543972Y0328306D01*
X0545117Y0325541D01*
X0547234Y0323424D01*
X0549999Y0322279D01*
X0552993Y0322279D01*
X0555131Y0323164D01*
X0550422Y0318455D01*
X0538172Y0318455D01*
X0537758Y0318627D01*
X0535234Y0318627D01*
X0534820Y0318455D01*
X0492314Y0318455D01*
X0490697Y0317785D01*
X0489459Y0316548D01*
X0485522Y0312611D01*
X0484852Y0310993D01*
X0484852Y0309047D01*
X0484335Y0308530D01*
X0484016Y0307760D01*
X0483860Y0308068D01*
X0483361Y0308754D01*
X0482762Y0309353D01*
X0482076Y0309852D01*
X0481320Y0310237D01*
X0480514Y0310499D01*
X0479676Y0310631D01*
X0479252Y0310631D01*
X0479252Y0302244D01*
X0479252Y0302244D01*
X0479252Y0310631D01*
X0478828Y0310631D01*
X0477990Y0310499D01*
X0477184Y0310237D01*
X0476428Y0309852D01*
X0475742Y0309353D01*
X0475542Y0309153D01*
X0475542Y0324916D01*
X0476761Y0324916D01*
X0477222Y0325007D01*
X0477656Y0325187D01*
X0478047Y0325449D01*
X0478380Y0325781D01*
X0478641Y0326172D01*
X0478821Y0326607D01*
X0478913Y0327068D01*
X0478913Y0329803D01*
X0475782Y0329803D01*
X0475782Y0329803D01*
X0478913Y0329803D01*
X0478913Y0332538D01*
X0478821Y0333000D01*
X0478641Y0333434D01*
X0478380Y0333825D01*
X0478047Y0334158D01*
X0477656Y0334419D01*
X0477222Y0334599D01*
X0476761Y0334691D01*
X0475542Y0334691D01*
X0475542Y0382121D01*
X0569961Y0382121D01*
X0571137Y0382044D01*
X0573409Y0381435D01*
X0575446Y0380259D01*
X0577110Y0378596D01*
X0578286Y0376559D01*
X0578895Y0374286D01*
X0578972Y0373110D01*
X0578972Y0365624D01*
X0577754Y0366128D01*
X0575238Y0366128D01*
X0572913Y0365165D01*
X0571134Y0363386D01*
X0570929Y0362892D01*
X0570381Y0363070D01*
X0569461Y0363216D01*
X0568996Y0363216D01*
X0568531Y0363216D01*
X0567612Y0363070D01*
X0566726Y0362782D01*
X0565897Y0362360D01*
X0565144Y0361813D01*
X0564486Y0361155D01*
X0564071Y0360583D01*
X0562754Y0361128D01*
X0560238Y0361128D01*
X0557913Y0360165D01*
X0556134Y0358386D01*
X0555937Y0351696D02*
X0475542Y0351696D01*
X0475542Y0348498D02*
X0557096Y0348498D01*
X0557096Y0345299D02*
X0475542Y0345299D01*
X0475542Y0342101D02*
X0557096Y0342101D01*
X0557096Y0338902D02*
X0475542Y0338902D01*
X0475542Y0335704D02*
X0517503Y0335704D01*
X0517536Y0335729D02*
X0516797Y0335162D01*
X0516138Y0334502D01*
X0515570Y0333763D01*
X0515104Y0332955D01*
X0514747Y0332094D01*
X0514506Y0331194D01*
X0514384Y0330269D01*
X0514384Y0329803D01*
X0514384Y0329337D01*
X0514506Y0328413D01*
X0514747Y0327512D01*
X0515104Y0326651D01*
X0515570Y0325844D01*
X0516138Y0325104D01*
X0516797Y0324445D01*
X0517536Y0323877D01*
X0518344Y0323411D01*
X0519205Y0323054D01*
X0520106Y0322813D01*
X0521030Y0322691D01*
X0521496Y0322691D01*
X0521496Y0329803D01*
X0521496Y0329803D01*
X0514384Y0329803D01*
X0521496Y0329803D01*
X0521496Y0329803D01*
X0521496Y0322691D01*
X0521962Y0322691D01*
X0522886Y0322813D01*
X0523787Y0323054D01*
X0524648Y0323411D01*
X0525456Y0323877D01*
X0526195Y0324445D01*
X0526854Y0325104D01*
X0527422Y0325844D01*
X0527888Y0326651D01*
X0528245Y0327512D01*
X0528486Y0328413D01*
X0528608Y0329337D01*
X0528608Y0329803D01*
X0521496Y0329803D01*
X0521496Y0329803D01*
X0528608Y0329803D01*
X0528608Y0330269D01*
X0528486Y0331194D01*
X0528245Y0332094D01*
X0527888Y0332955D01*
X0527422Y0333763D01*
X0526854Y0334502D01*
X0526195Y0335162D01*
X0525456Y0335729D01*
X0524648Y0336195D01*
X0523787Y0336552D01*
X0522886Y0336793D01*
X0521962Y0336915D01*
X0521496Y0336915D01*
X0521030Y0336915D01*
X0520106Y0336793D01*
X0519205Y0336552D01*
X0518344Y0336195D01*
X0517536Y0335729D01*
X0521496Y0335704D02*
X0521496Y0335704D01*
X0521496Y0336915D02*
X0521496Y0329803D01*
X0521496Y0336915D01*
X0525489Y0335704D02*
X0546756Y0335704D01*
X0544471Y0332505D02*
X0528075Y0332505D01*
X0528604Y0329307D02*
X0543972Y0329307D01*
X0544882Y0326108D02*
X0527575Y0326108D01*
X0523247Y0322910D02*
X0548476Y0322910D01*
X0551678Y0319711D02*
X0475542Y0319711D01*
X0475542Y0316513D02*
X0489424Y0316513D01*
X0493189Y0314055D02*
X0516811Y0314055D01*
X0511811Y0309055D02*
X0511811Y0302244D01*
X0514604Y0294123D02*
X0519018Y0294123D01*
X0524604Y0294123D02*
X0564326Y0294123D01*
X0569228Y0298202D02*
X0567887Y0299543D01*
X0567161Y0301296D01*
X0567161Y0303193D01*
X0567887Y0304945D01*
X0569228Y0306287D01*
X0570981Y0307013D01*
X0572878Y0307013D01*
X0574630Y0306287D01*
X0575972Y0304945D01*
X0576698Y0303193D01*
X0576698Y0301296D01*
X0575972Y0299543D01*
X0574630Y0298202D01*
X0572878Y0297476D01*
X0570981Y0297476D01*
X0569228Y0298202D01*
X0567482Y0300520D02*
X0527611Y0300520D01*
X0527611Y0303719D02*
X0567379Y0303719D01*
X0570750Y0306917D02*
X0540101Y0306917D01*
X0532892Y0306917D02*
X0527396Y0306917D01*
X0527293Y0297322D02*
X0578972Y0297322D01*
X0578972Y0300520D02*
X0576376Y0300520D01*
X0576480Y0303719D02*
X0578972Y0303719D01*
X0578972Y0306917D02*
X0573108Y0306917D01*
X0578972Y0310116D02*
X0554231Y0310116D01*
X0557726Y0313314D02*
X0578972Y0313314D01*
X0578972Y0316513D02*
X0560924Y0316513D01*
X0564123Y0319711D02*
X0578972Y0319711D01*
X0578972Y0322910D02*
X0565896Y0322910D01*
X0565896Y0326108D02*
X0578972Y0326108D01*
X0578972Y0329307D02*
X0565896Y0329307D01*
X0565896Y0332505D02*
X0578972Y0332505D01*
X0578972Y0335704D02*
X0565896Y0335704D01*
X0565896Y0338902D02*
X0578972Y0338902D01*
X0578972Y0342101D02*
X0565896Y0342101D01*
X0565896Y0345299D02*
X0578972Y0345299D01*
X0578972Y0348498D02*
X0565896Y0348498D01*
X0567055Y0351696D02*
X0567119Y0351696D01*
X0568996Y0351696D02*
X0568996Y0351696D01*
X0570873Y0351696D02*
X0578972Y0351696D01*
X0568996Y0354895D02*
X0568996Y0354895D01*
X0568996Y0357303D02*
X0568996Y0363216D01*
X0568996Y0357303D01*
X0568996Y0357303D01*
X0568996Y0358093D02*
X0568996Y0358093D01*
X0568996Y0361292D02*
X0568996Y0361292D01*
X0564623Y0361292D02*
X0475542Y0361292D01*
X0475542Y0364490D02*
X0572238Y0364490D01*
X0572878Y0368342D02*
X0574630Y0369068D01*
X0575972Y0370409D01*
X0576698Y0372162D01*
X0576698Y0374059D01*
X0575972Y0375811D01*
X0574630Y0377153D01*
X0572878Y0377879D01*
X0570981Y0377879D01*
X0569228Y0377153D01*
X0567887Y0375811D01*
X0567161Y0374059D01*
X0567161Y0372162D01*
X0567887Y0370409D01*
X0569228Y0369068D01*
X0570981Y0368342D01*
X0572878Y0368342D01*
X0576170Y0370887D02*
X0578972Y0370887D01*
X0578972Y0367689D02*
X0475542Y0367689D01*
X0475542Y0370887D02*
X0567688Y0370887D01*
X0567172Y0374086D02*
X0475542Y0374086D01*
X0475542Y0377284D02*
X0569546Y0377284D01*
X0574313Y0377284D02*
X0577867Y0377284D01*
X0578908Y0374086D02*
X0576686Y0374086D01*
X0575059Y0380483D02*
X0475542Y0380483D01*
X0471142Y0380483D02*
X0385729Y0380483D01*
X0388126Y0377153D02*
X0389878Y0377879D01*
X0391775Y0377879D01*
X0393528Y0377153D01*
X0394869Y0375811D01*
X0395595Y0374059D01*
X0395595Y0372162D01*
X0394869Y0370409D01*
X0393528Y0369068D01*
X0391775Y0368342D01*
X0389878Y0368342D01*
X0388126Y0369068D01*
X0386784Y0370409D01*
X0386058Y0372162D01*
X0386058Y0374059D01*
X0386784Y0375811D01*
X0388126Y0377153D01*
X0388443Y0377284D02*
X0382921Y0377284D01*
X0381880Y0374086D02*
X0386070Y0374086D01*
X0386586Y0370887D02*
X0381816Y0370887D01*
X0381816Y0367689D02*
X0471142Y0367689D01*
X0471142Y0370887D02*
X0395067Y0370887D01*
X0395584Y0374086D02*
X0471142Y0374086D01*
X0471142Y0377284D02*
X0393210Y0377284D01*
X0381816Y0364490D02*
X0471142Y0364490D01*
X0471142Y0361292D02*
X0381816Y0361292D01*
X0381816Y0358093D02*
X0471142Y0358093D01*
X0471142Y0354895D02*
X0381816Y0354895D01*
X0381816Y0351696D02*
X0436820Y0351696D01*
X0437061Y0351796D02*
X0436032Y0351370D01*
X0435244Y0350582D01*
X0434818Y0349553D01*
X0434818Y0347195D01*
X0429755Y0347195D01*
X0428138Y0346525D01*
X0426900Y0345288D01*
X0418940Y0337328D01*
X0416141Y0337328D01*
X0413376Y0336182D01*
X0411259Y0334065D01*
X0410113Y0331300D01*
X0410113Y0328306D01*
X0411259Y0325541D01*
X0413376Y0323424D01*
X0416141Y0322279D01*
X0419134Y0322279D01*
X0421900Y0323424D01*
X0424017Y0325541D01*
X0425162Y0328306D01*
X0425162Y0331105D01*
X0432452Y0338395D01*
X0434818Y0338395D01*
X0434818Y0336038D01*
X0435244Y0335008D01*
X0436032Y0334221D01*
X0437061Y0333794D01*
X0445183Y0333794D01*
X0446212Y0334221D01*
X0447000Y0335008D01*
X0447426Y0336038D01*
X0447426Y0349553D01*
X0447000Y0350582D01*
X0446212Y0351370D01*
X0445183Y0351796D01*
X0437061Y0351796D01*
X0434818Y0348498D02*
X0381816Y0348498D01*
X0381816Y0345299D02*
X0426911Y0345299D01*
X0430630Y0342795D02*
X0441122Y0342795D01*
X0447426Y0342101D02*
X0448813Y0342101D01*
X0448813Y0342643D02*
X0448813Y0336359D01*
X0448905Y0335898D01*
X0449085Y0335464D01*
X0449346Y0335073D01*
X0449679Y0334740D01*
X0450070Y0334479D01*
X0450504Y0334299D01*
X0450966Y0334207D01*
X0454553Y0334207D01*
X0454553Y0342643D01*
X0454857Y0342643D01*
X0454857Y0342947D01*
X0460596Y0342947D01*
X0460596Y0349231D01*
X0460504Y0349692D01*
X0460324Y0350127D01*
X0460063Y0350518D01*
X0459731Y0350850D01*
X0459340Y0351112D01*
X0458905Y0351292D01*
X0458444Y0351383D01*
X0454857Y0351383D01*
X0454857Y0342947D01*
X0454553Y0342947D01*
X0454553Y0342643D01*
X0448813Y0342643D01*
X0448813Y0342947D02*
X0454553Y0342947D01*
X0454553Y0351383D01*
X0450966Y0351383D01*
X0450504Y0351292D01*
X0450070Y0351112D01*
X0449679Y0350850D01*
X0449346Y0350518D01*
X0449085Y0350127D01*
X0448905Y0349692D01*
X0448813Y0349231D01*
X0448813Y0342947D01*
X0448813Y0345299D02*
X0447426Y0345299D01*
X0447426Y0348498D02*
X0448813Y0348498D01*
X0445424Y0351696D02*
X0471142Y0351696D01*
X0471142Y0348498D02*
X0460596Y0348498D01*
X0460596Y0345299D02*
X0471142Y0345299D01*
X0471142Y0342101D02*
X0460596Y0342101D01*
X0460596Y0342643D02*
X0454857Y0342643D01*
X0454857Y0334207D01*
X0458444Y0334207D01*
X0458905Y0334299D01*
X0459340Y0334479D01*
X0459731Y0334740D01*
X0460063Y0335073D01*
X0460324Y0335464D01*
X0460504Y0335898D01*
X0460596Y0336359D01*
X0460596Y0342643D01*
X0460596Y0338902D02*
X0471142Y0338902D01*
X0471142Y0335704D02*
X0460424Y0335704D01*
X0454857Y0335704D02*
X0454553Y0335704D01*
X0454553Y0338902D02*
X0454857Y0338902D01*
X0454857Y0342101D02*
X0454553Y0342101D01*
X0454553Y0345299D02*
X0454857Y0345299D01*
X0454857Y0348498D02*
X0454553Y0348498D01*
X0448813Y0338902D02*
X0447426Y0338902D01*
X0447288Y0335704D02*
X0448986Y0335704D01*
X0434956Y0335704D02*
X0429761Y0335704D01*
X0426562Y0332505D02*
X0468095Y0332505D01*
X0468095Y0329803D02*
X0471142Y0329803D01*
X0468095Y0329803D01*
X0468095Y0329307D02*
X0425162Y0329307D01*
X0424252Y0326108D02*
X0468409Y0326108D01*
X0471142Y0322910D02*
X0420658Y0322910D01*
X0414618Y0322910D02*
X0390658Y0322910D01*
X0394252Y0326108D02*
X0411024Y0326108D01*
X0410113Y0329307D02*
X0395162Y0329307D01*
X0394663Y0332505D02*
X0410613Y0332505D01*
X0412897Y0335704D02*
X0392378Y0335704D01*
X0382897Y0335704D02*
X0381816Y0335704D01*
X0381816Y0338902D02*
X0420514Y0338902D01*
X0423713Y0342101D02*
X0381816Y0342101D01*
X0381816Y0322910D02*
X0384618Y0322910D01*
X0381816Y0319711D02*
X0396905Y0319711D01*
X0395202Y0316513D02*
X0381816Y0316513D01*
X0381816Y0313314D02*
X0395113Y0313314D01*
X0396684Y0310116D02*
X0381816Y0310116D01*
X0381816Y0306917D02*
X0442635Y0306917D01*
X0442369Y0303719D02*
X0381816Y0303719D01*
X0402638Y0314803D02*
X0453071Y0314803D01*
X0457756Y0310118D01*
X0457756Y0302244D01*
X0462156Y0310116D02*
X0464425Y0310116D01*
X0460782Y0313314D02*
X0471142Y0313314D01*
X0471087Y0310116D02*
X0471142Y0310116D01*
X0475542Y0310116D02*
X0476946Y0310116D01*
X0479252Y0310116D02*
X0479252Y0310116D01*
X0481558Y0310116D02*
X0484852Y0310116D01*
X0486225Y0313314D02*
X0475542Y0313314D01*
X0471142Y0316513D02*
X0457584Y0316513D01*
X0445450Y0310116D02*
X0408591Y0310116D01*
X0408371Y0319711D02*
X0471142Y0319711D01*
X0475542Y0322910D02*
X0519745Y0322910D01*
X0521496Y0322910D02*
X0521496Y0322910D01*
X0521496Y0326108D02*
X0521496Y0326108D01*
X0521496Y0329307D02*
X0521496Y0329307D01*
X0521496Y0329803D02*
X0521496Y0329803D01*
X0521496Y0332505D02*
X0521496Y0332505D01*
X0514918Y0332505D02*
X0478913Y0332505D01*
X0478913Y0329307D02*
X0514388Y0329307D01*
X0515417Y0326108D02*
X0478598Y0326108D01*
X0471142Y0329803D02*
X0471142Y0329803D01*
X0489252Y0310118D02*
X0493189Y0314055D01*
X0489252Y0310118D02*
X0489252Y0302244D01*
X0479252Y0303719D02*
X0479252Y0303719D01*
X0479252Y0306917D02*
X0479252Y0306917D01*
X0479252Y0300520D02*
X0479252Y0300520D01*
X0479252Y0297322D02*
X0479252Y0297322D01*
X0446083Y0294123D02*
X0408187Y0294123D01*
X0408981Y0297322D02*
X0442716Y0297322D01*
X0442369Y0300520D02*
X0408171Y0300520D01*
X0417638Y0329803D02*
X0430630Y0342795D01*
X0554516Y0322910D02*
X0554876Y0322910D01*
X0556237Y0335704D02*
X0557096Y0335704D01*
X0573627Y0294123D02*
X0578616Y0294123D01*
X0578286Y0292890D02*
X0578286Y0292890D01*
X0577151Y0290925D02*
X0575320Y0290925D01*
M02*
