G75*
%MOIN*%
%OFA0B0*%
%FSLAX25Y25*%
%IPPOS*%
%LPD*%
%AMOC8*
5,1,8,0,0,1.08239X$1,22.5*
%
%ADD10C,0.00000*%
%ADD11C,0.09449*%
%ADD12C,0.07087*%
%ADD13C,0.07050*%
%ADD14C,0.06000*%
%ADD15R,0.03150X0.03150*%
%ADD16R,0.04331X0.03937*%
D10*
X0390827Y0284528D02*
X0569961Y0284528D01*
X0570246Y0284531D01*
X0570532Y0284542D01*
X0570817Y0284559D01*
X0571101Y0284583D01*
X0571385Y0284614D01*
X0571668Y0284652D01*
X0571949Y0284697D01*
X0572230Y0284748D01*
X0572510Y0284806D01*
X0572788Y0284871D01*
X0573064Y0284943D01*
X0573338Y0285021D01*
X0573611Y0285106D01*
X0573881Y0285198D01*
X0574149Y0285296D01*
X0574415Y0285400D01*
X0574678Y0285511D01*
X0574938Y0285628D01*
X0575196Y0285751D01*
X0575450Y0285881D01*
X0575701Y0286017D01*
X0575949Y0286158D01*
X0576193Y0286306D01*
X0576434Y0286459D01*
X0576670Y0286619D01*
X0576903Y0286784D01*
X0577132Y0286954D01*
X0577357Y0287130D01*
X0577577Y0287312D01*
X0577793Y0287498D01*
X0578004Y0287690D01*
X0578211Y0287887D01*
X0578413Y0288089D01*
X0578610Y0288296D01*
X0578802Y0288507D01*
X0578988Y0288723D01*
X0579170Y0288943D01*
X0579346Y0289168D01*
X0579516Y0289397D01*
X0579681Y0289630D01*
X0579841Y0289866D01*
X0579994Y0290107D01*
X0580142Y0290351D01*
X0580283Y0290599D01*
X0580419Y0290850D01*
X0580549Y0291104D01*
X0580672Y0291362D01*
X0580789Y0291622D01*
X0580900Y0291885D01*
X0581004Y0292151D01*
X0581102Y0292419D01*
X0581194Y0292689D01*
X0581279Y0292962D01*
X0581357Y0293236D01*
X0581429Y0293512D01*
X0581494Y0293790D01*
X0581552Y0294070D01*
X0581603Y0294351D01*
X0581648Y0294632D01*
X0581686Y0294915D01*
X0581717Y0295199D01*
X0581741Y0295483D01*
X0581758Y0295768D01*
X0581769Y0296054D01*
X0581772Y0296339D01*
X0581772Y0373110D01*
X0581769Y0373395D01*
X0581758Y0373681D01*
X0581741Y0373966D01*
X0581717Y0374250D01*
X0581686Y0374534D01*
X0581648Y0374817D01*
X0581603Y0375098D01*
X0581552Y0375379D01*
X0581494Y0375659D01*
X0581429Y0375937D01*
X0581357Y0376213D01*
X0581279Y0376487D01*
X0581194Y0376760D01*
X0581102Y0377030D01*
X0581004Y0377298D01*
X0580900Y0377564D01*
X0580789Y0377827D01*
X0580672Y0378087D01*
X0580549Y0378345D01*
X0580419Y0378599D01*
X0580283Y0378850D01*
X0580142Y0379098D01*
X0579994Y0379342D01*
X0579841Y0379583D01*
X0579681Y0379819D01*
X0579516Y0380052D01*
X0579346Y0380281D01*
X0579170Y0380506D01*
X0578988Y0380726D01*
X0578802Y0380942D01*
X0578610Y0381153D01*
X0578413Y0381360D01*
X0578211Y0381562D01*
X0578004Y0381759D01*
X0577793Y0381951D01*
X0577577Y0382137D01*
X0577357Y0382319D01*
X0577132Y0382495D01*
X0576903Y0382665D01*
X0576670Y0382830D01*
X0576434Y0382990D01*
X0576193Y0383143D01*
X0575949Y0383291D01*
X0575701Y0383432D01*
X0575450Y0383568D01*
X0575196Y0383698D01*
X0574938Y0383821D01*
X0574678Y0383938D01*
X0574415Y0384049D01*
X0574149Y0384153D01*
X0573881Y0384251D01*
X0573611Y0384343D01*
X0573338Y0384428D01*
X0573064Y0384506D01*
X0572788Y0384578D01*
X0572510Y0384643D01*
X0572230Y0384701D01*
X0571949Y0384752D01*
X0571668Y0384797D01*
X0571385Y0384835D01*
X0571101Y0384866D01*
X0570817Y0384890D01*
X0570532Y0384907D01*
X0570246Y0384918D01*
X0569961Y0384921D01*
X0390827Y0384921D01*
X0390542Y0384918D01*
X0390256Y0384907D01*
X0389971Y0384890D01*
X0389687Y0384866D01*
X0389403Y0384835D01*
X0389120Y0384797D01*
X0388839Y0384752D01*
X0388558Y0384701D01*
X0388278Y0384643D01*
X0388000Y0384578D01*
X0387724Y0384506D01*
X0387450Y0384428D01*
X0387177Y0384343D01*
X0386907Y0384251D01*
X0386639Y0384153D01*
X0386373Y0384049D01*
X0386110Y0383938D01*
X0385850Y0383821D01*
X0385592Y0383698D01*
X0385338Y0383568D01*
X0385087Y0383432D01*
X0384839Y0383291D01*
X0384595Y0383143D01*
X0384354Y0382990D01*
X0384118Y0382830D01*
X0383885Y0382665D01*
X0383656Y0382495D01*
X0383431Y0382319D01*
X0383211Y0382137D01*
X0382995Y0381951D01*
X0382784Y0381759D01*
X0382577Y0381562D01*
X0382375Y0381360D01*
X0382178Y0381153D01*
X0381986Y0380942D01*
X0381800Y0380726D01*
X0381618Y0380506D01*
X0381442Y0380281D01*
X0381272Y0380052D01*
X0381107Y0379819D01*
X0380947Y0379583D01*
X0380794Y0379342D01*
X0380646Y0379098D01*
X0380505Y0378850D01*
X0380369Y0378599D01*
X0380239Y0378345D01*
X0380116Y0378087D01*
X0379999Y0377827D01*
X0379888Y0377564D01*
X0379784Y0377298D01*
X0379686Y0377030D01*
X0379594Y0376760D01*
X0379509Y0376487D01*
X0379431Y0376213D01*
X0379359Y0375937D01*
X0379294Y0375659D01*
X0379236Y0375379D01*
X0379185Y0375098D01*
X0379140Y0374817D01*
X0379102Y0374534D01*
X0379071Y0374250D01*
X0379047Y0373966D01*
X0379030Y0373681D01*
X0379019Y0373395D01*
X0379016Y0373110D01*
X0379016Y0296339D01*
X0379019Y0296054D01*
X0379030Y0295768D01*
X0379047Y0295483D01*
X0379071Y0295199D01*
X0379102Y0294915D01*
X0379140Y0294632D01*
X0379185Y0294351D01*
X0379236Y0294070D01*
X0379294Y0293790D01*
X0379359Y0293512D01*
X0379431Y0293236D01*
X0379509Y0292962D01*
X0379594Y0292689D01*
X0379686Y0292419D01*
X0379784Y0292151D01*
X0379888Y0291885D01*
X0379999Y0291622D01*
X0380116Y0291362D01*
X0380239Y0291104D01*
X0380369Y0290850D01*
X0380505Y0290599D01*
X0380646Y0290351D01*
X0380794Y0290107D01*
X0380947Y0289866D01*
X0381107Y0289630D01*
X0381272Y0289397D01*
X0381442Y0289168D01*
X0381618Y0288943D01*
X0381800Y0288723D01*
X0381986Y0288507D01*
X0382178Y0288296D01*
X0382375Y0288089D01*
X0382577Y0287887D01*
X0382784Y0287690D01*
X0382995Y0287498D01*
X0383211Y0287312D01*
X0383431Y0287130D01*
X0383656Y0286954D01*
X0383885Y0286784D01*
X0384118Y0286619D01*
X0384354Y0286459D01*
X0384595Y0286306D01*
X0384839Y0286158D01*
X0385087Y0286017D01*
X0385338Y0285881D01*
X0385592Y0285751D01*
X0385850Y0285628D01*
X0386110Y0285511D01*
X0386373Y0285400D01*
X0386639Y0285296D01*
X0386907Y0285198D01*
X0387177Y0285106D01*
X0387450Y0285021D01*
X0387724Y0284943D01*
X0388000Y0284871D01*
X0388278Y0284806D01*
X0388558Y0284748D01*
X0388839Y0284697D01*
X0389120Y0284652D01*
X0389403Y0284614D01*
X0389687Y0284583D01*
X0389971Y0284559D01*
X0390256Y0284542D01*
X0390542Y0284531D01*
X0390827Y0284528D01*
D11*
X0402638Y0314803D03*
X0417638Y0329803D03*
X0387638Y0329803D03*
X0521496Y0329803D03*
X0551496Y0329803D03*
D12*
X0536496Y0312283D03*
X0568976Y0289803D03*
X0402638Y0297303D03*
D13*
X0561496Y0354803D03*
X0568996Y0357303D03*
X0576496Y0359803D03*
D14*
X0521811Y0305244D02*
X0521811Y0299244D01*
X0511811Y0299244D02*
X0511811Y0305244D01*
X0499252Y0305244D02*
X0499252Y0299244D01*
X0489252Y0299244D02*
X0489252Y0305244D01*
X0479252Y0305244D02*
X0479252Y0299244D01*
X0467756Y0299244D02*
X0467756Y0305244D01*
X0457756Y0305244D02*
X0457756Y0299244D01*
X0447756Y0299244D02*
X0447756Y0305244D01*
D15*
X0458740Y0379016D03*
X0464646Y0379016D03*
D16*
X0472323Y0372126D03*
X0472323Y0365433D03*
M02*
