G75*
%MOIN*%
%OFA0B0*%
%FSLAX25Y25*%
%IPPOS*%
%LPD*%
%AMOC8*
5,1,8,0,0,1.08239X$1,22.5*
%
%ADD10C,0.00000*%
%ADD11C,0.09449*%
%ADD12C,0.07087*%
%ADD13C,0.07050*%
%ADD14C,0.06000*%
%ADD15R,0.03150X0.03150*%
%ADD16R,0.04331X0.03937*%
%ADD17C,0.01200*%
%ADD18C,0.03200*%
D10*
X0390827Y0284528D02*
X0569961Y0284528D01*
X0570246Y0284531D01*
X0570532Y0284542D01*
X0570817Y0284559D01*
X0571101Y0284583D01*
X0571385Y0284614D01*
X0571668Y0284652D01*
X0571949Y0284697D01*
X0572230Y0284748D01*
X0572510Y0284806D01*
X0572788Y0284871D01*
X0573064Y0284943D01*
X0573338Y0285021D01*
X0573611Y0285106D01*
X0573881Y0285198D01*
X0574149Y0285296D01*
X0574415Y0285400D01*
X0574678Y0285511D01*
X0574938Y0285628D01*
X0575196Y0285751D01*
X0575450Y0285881D01*
X0575701Y0286017D01*
X0575949Y0286158D01*
X0576193Y0286306D01*
X0576434Y0286459D01*
X0576670Y0286619D01*
X0576903Y0286784D01*
X0577132Y0286954D01*
X0577357Y0287130D01*
X0577577Y0287312D01*
X0577793Y0287498D01*
X0578004Y0287690D01*
X0578211Y0287887D01*
X0578413Y0288089D01*
X0578610Y0288296D01*
X0578802Y0288507D01*
X0578988Y0288723D01*
X0579170Y0288943D01*
X0579346Y0289168D01*
X0579516Y0289397D01*
X0579681Y0289630D01*
X0579841Y0289866D01*
X0579994Y0290107D01*
X0580142Y0290351D01*
X0580283Y0290599D01*
X0580419Y0290850D01*
X0580549Y0291104D01*
X0580672Y0291362D01*
X0580789Y0291622D01*
X0580900Y0291885D01*
X0581004Y0292151D01*
X0581102Y0292419D01*
X0581194Y0292689D01*
X0581279Y0292962D01*
X0581357Y0293236D01*
X0581429Y0293512D01*
X0581494Y0293790D01*
X0581552Y0294070D01*
X0581603Y0294351D01*
X0581648Y0294632D01*
X0581686Y0294915D01*
X0581717Y0295199D01*
X0581741Y0295483D01*
X0581758Y0295768D01*
X0581769Y0296054D01*
X0581772Y0296339D01*
X0581772Y0373110D01*
X0581769Y0373395D01*
X0581758Y0373681D01*
X0581741Y0373966D01*
X0581717Y0374250D01*
X0581686Y0374534D01*
X0581648Y0374817D01*
X0581603Y0375098D01*
X0581552Y0375379D01*
X0581494Y0375659D01*
X0581429Y0375937D01*
X0581357Y0376213D01*
X0581279Y0376487D01*
X0581194Y0376760D01*
X0581102Y0377030D01*
X0581004Y0377298D01*
X0580900Y0377564D01*
X0580789Y0377827D01*
X0580672Y0378087D01*
X0580549Y0378345D01*
X0580419Y0378599D01*
X0580283Y0378850D01*
X0580142Y0379098D01*
X0579994Y0379342D01*
X0579841Y0379583D01*
X0579681Y0379819D01*
X0579516Y0380052D01*
X0579346Y0380281D01*
X0579170Y0380506D01*
X0578988Y0380726D01*
X0578802Y0380942D01*
X0578610Y0381153D01*
X0578413Y0381360D01*
X0578211Y0381562D01*
X0578004Y0381759D01*
X0577793Y0381951D01*
X0577577Y0382137D01*
X0577357Y0382319D01*
X0577132Y0382495D01*
X0576903Y0382665D01*
X0576670Y0382830D01*
X0576434Y0382990D01*
X0576193Y0383143D01*
X0575949Y0383291D01*
X0575701Y0383432D01*
X0575450Y0383568D01*
X0575196Y0383698D01*
X0574938Y0383821D01*
X0574678Y0383938D01*
X0574415Y0384049D01*
X0574149Y0384153D01*
X0573881Y0384251D01*
X0573611Y0384343D01*
X0573338Y0384428D01*
X0573064Y0384506D01*
X0572788Y0384578D01*
X0572510Y0384643D01*
X0572230Y0384701D01*
X0571949Y0384752D01*
X0571668Y0384797D01*
X0571385Y0384835D01*
X0571101Y0384866D01*
X0570817Y0384890D01*
X0570532Y0384907D01*
X0570246Y0384918D01*
X0569961Y0384921D01*
X0390827Y0384921D01*
X0390542Y0384918D01*
X0390256Y0384907D01*
X0389971Y0384890D01*
X0389687Y0384866D01*
X0389403Y0384835D01*
X0389120Y0384797D01*
X0388839Y0384752D01*
X0388558Y0384701D01*
X0388278Y0384643D01*
X0388000Y0384578D01*
X0387724Y0384506D01*
X0387450Y0384428D01*
X0387177Y0384343D01*
X0386907Y0384251D01*
X0386639Y0384153D01*
X0386373Y0384049D01*
X0386110Y0383938D01*
X0385850Y0383821D01*
X0385592Y0383698D01*
X0385338Y0383568D01*
X0385087Y0383432D01*
X0384839Y0383291D01*
X0384595Y0383143D01*
X0384354Y0382990D01*
X0384118Y0382830D01*
X0383885Y0382665D01*
X0383656Y0382495D01*
X0383431Y0382319D01*
X0383211Y0382137D01*
X0382995Y0381951D01*
X0382784Y0381759D01*
X0382577Y0381562D01*
X0382375Y0381360D01*
X0382178Y0381153D01*
X0381986Y0380942D01*
X0381800Y0380726D01*
X0381618Y0380506D01*
X0381442Y0380281D01*
X0381272Y0380052D01*
X0381107Y0379819D01*
X0380947Y0379583D01*
X0380794Y0379342D01*
X0380646Y0379098D01*
X0380505Y0378850D01*
X0380369Y0378599D01*
X0380239Y0378345D01*
X0380116Y0378087D01*
X0379999Y0377827D01*
X0379888Y0377564D01*
X0379784Y0377298D01*
X0379686Y0377030D01*
X0379594Y0376760D01*
X0379509Y0376487D01*
X0379431Y0376213D01*
X0379359Y0375937D01*
X0379294Y0375659D01*
X0379236Y0375379D01*
X0379185Y0375098D01*
X0379140Y0374817D01*
X0379102Y0374534D01*
X0379071Y0374250D01*
X0379047Y0373966D01*
X0379030Y0373681D01*
X0379019Y0373395D01*
X0379016Y0373110D01*
X0379016Y0296339D01*
X0379019Y0296054D01*
X0379030Y0295768D01*
X0379047Y0295483D01*
X0379071Y0295199D01*
X0379102Y0294915D01*
X0379140Y0294632D01*
X0379185Y0294351D01*
X0379236Y0294070D01*
X0379294Y0293790D01*
X0379359Y0293512D01*
X0379431Y0293236D01*
X0379509Y0292962D01*
X0379594Y0292689D01*
X0379686Y0292419D01*
X0379784Y0292151D01*
X0379888Y0291885D01*
X0379999Y0291622D01*
X0380116Y0291362D01*
X0380239Y0291104D01*
X0380369Y0290850D01*
X0380505Y0290599D01*
X0380646Y0290351D01*
X0380794Y0290107D01*
X0380947Y0289866D01*
X0381107Y0289630D01*
X0381272Y0289397D01*
X0381442Y0289168D01*
X0381618Y0288943D01*
X0381800Y0288723D01*
X0381986Y0288507D01*
X0382178Y0288296D01*
X0382375Y0288089D01*
X0382577Y0287887D01*
X0382784Y0287690D01*
X0382995Y0287498D01*
X0383211Y0287312D01*
X0383431Y0287130D01*
X0383656Y0286954D01*
X0383885Y0286784D01*
X0384118Y0286619D01*
X0384354Y0286459D01*
X0384595Y0286306D01*
X0384839Y0286158D01*
X0385087Y0286017D01*
X0385338Y0285881D01*
X0385592Y0285751D01*
X0385850Y0285628D01*
X0386110Y0285511D01*
X0386373Y0285400D01*
X0386639Y0285296D01*
X0386907Y0285198D01*
X0387177Y0285106D01*
X0387450Y0285021D01*
X0387724Y0284943D01*
X0388000Y0284871D01*
X0388278Y0284806D01*
X0388558Y0284748D01*
X0388839Y0284697D01*
X0389120Y0284652D01*
X0389403Y0284614D01*
X0389687Y0284583D01*
X0389971Y0284559D01*
X0390256Y0284542D01*
X0390542Y0284531D01*
X0390827Y0284528D01*
D11*
X0402638Y0314803D03*
X0417638Y0329803D03*
X0387638Y0329803D03*
X0521496Y0329803D03*
X0551496Y0329803D03*
D12*
X0536496Y0312283D03*
X0568976Y0289803D03*
X0402638Y0297303D03*
D13*
X0561496Y0354803D03*
X0568996Y0357303D03*
X0576496Y0359803D03*
D14*
X0521811Y0305244D02*
X0521811Y0299244D01*
X0511811Y0299244D02*
X0511811Y0305244D01*
X0499252Y0305244D02*
X0499252Y0299244D01*
X0489252Y0299244D02*
X0489252Y0305244D01*
X0479252Y0305244D02*
X0479252Y0299244D01*
X0467756Y0299244D02*
X0467756Y0305244D01*
X0457756Y0305244D02*
X0457756Y0299244D01*
X0447756Y0299244D02*
X0447756Y0305244D01*
D15*
X0458740Y0379016D03*
X0464646Y0379016D03*
D16*
X0472323Y0372126D03*
X0472323Y0365433D03*
D17*
X0472323Y0346732D01*
X0489252Y0329803D01*
X0489252Y0302244D01*
X0472323Y0372126D02*
X0472323Y0376260D01*
X0469567Y0379016D01*
X0464646Y0379016D01*
D18*
X0467572Y0382337D02*
X0569961Y0382337D01*
X0571165Y0382258D01*
X0573492Y0381635D01*
X0575578Y0380430D01*
X0577281Y0378727D01*
X0578485Y0376641D01*
X0579108Y0374315D01*
X0579187Y0373110D01*
X0579187Y0364875D01*
X0577633Y0365519D01*
X0575359Y0365519D01*
X0573258Y0364649D01*
X0571651Y0363041D01*
X0571421Y0362485D01*
X0570133Y0363019D01*
X0567859Y0363019D01*
X0565758Y0362149D01*
X0564151Y0360541D01*
X0563921Y0359985D01*
X0562633Y0360519D01*
X0560359Y0360519D01*
X0558258Y0359649D01*
X0556651Y0358041D01*
X0555781Y0355940D01*
X0555781Y0353666D01*
X0556651Y0351566D01*
X0558258Y0349958D01*
X0560359Y0349088D01*
X0562633Y0349088D01*
X0564734Y0349958D01*
X0566341Y0351566D01*
X0566572Y0352121D01*
X0567859Y0351588D01*
X0570133Y0351588D01*
X0572234Y0352458D01*
X0573841Y0354066D01*
X0574072Y0354621D01*
X0575359Y0354088D01*
X0577633Y0354088D01*
X0579187Y0354731D01*
X0579187Y0296339D01*
X0579108Y0295134D01*
X0578485Y0292808D01*
X0577281Y0290722D01*
X0575578Y0289018D01*
X0574631Y0288472D01*
X0574710Y0288663D01*
X0574710Y0290944D01*
X0573837Y0293051D01*
X0572224Y0294664D01*
X0570117Y0295537D01*
X0567836Y0295537D01*
X0565728Y0294664D01*
X0564115Y0293051D01*
X0563786Y0292255D01*
X0413046Y0292255D01*
X0408372Y0296930D01*
X0408372Y0298444D01*
X0407499Y0300551D01*
X0405886Y0302164D01*
X0403778Y0303037D01*
X0401497Y0303037D01*
X0399390Y0302164D01*
X0397777Y0300551D01*
X0396904Y0298444D01*
X0396904Y0296163D01*
X0397777Y0294055D01*
X0399390Y0292442D01*
X0401497Y0291569D01*
X0403011Y0291569D01*
X0407469Y0287112D01*
X0390827Y0287112D01*
X0389622Y0287191D01*
X0387296Y0287814D01*
X0385210Y0289018D01*
X0383507Y0290722D01*
X0382302Y0292808D01*
X0381679Y0295134D01*
X0381600Y0296339D01*
X0381600Y0326037D01*
X0381712Y0325844D01*
X0382279Y0325104D01*
X0382939Y0324445D01*
X0383678Y0323877D01*
X0384486Y0323411D01*
X0385347Y0323054D01*
X0386247Y0322813D01*
X0387172Y0322691D01*
X0387638Y0322691D01*
X0388104Y0322691D01*
X0389028Y0322813D01*
X0389929Y0323054D01*
X0390790Y0323411D01*
X0391597Y0323877D01*
X0392337Y0324445D01*
X0392996Y0325104D01*
X0393564Y0325844D01*
X0394030Y0326651D01*
X0394387Y0327512D01*
X0394628Y0328413D01*
X0394750Y0329337D01*
X0394750Y0329803D01*
X0387638Y0329803D01*
X0387638Y0329803D01*
X0387638Y0322691D01*
X0387638Y0329803D01*
X0387638Y0329803D01*
X0394750Y0329803D01*
X0394750Y0330269D01*
X0394628Y0331194D01*
X0394387Y0332094D01*
X0394030Y0332955D01*
X0393564Y0333763D01*
X0392996Y0334502D01*
X0392337Y0335162D01*
X0391597Y0335729D01*
X0390790Y0336195D01*
X0389929Y0336552D01*
X0389028Y0336793D01*
X0388104Y0336915D01*
X0387638Y0336915D01*
X0387638Y0329803D01*
X0387638Y0329803D01*
X0387638Y0336915D01*
X0387172Y0336915D01*
X0386247Y0336793D01*
X0385347Y0336552D01*
X0384486Y0336195D01*
X0383678Y0335729D01*
X0382939Y0335162D01*
X0382279Y0334502D01*
X0381712Y0333763D01*
X0381600Y0333569D01*
X0381600Y0373110D01*
X0381679Y0374315D01*
X0382302Y0376641D01*
X0383507Y0378727D01*
X0385210Y0380430D01*
X0387296Y0381635D01*
X0389622Y0382258D01*
X0390827Y0382337D01*
X0455536Y0382337D01*
X0455311Y0382112D01*
X0455050Y0381721D01*
X0454870Y0381287D01*
X0454778Y0380826D01*
X0454778Y0379016D01*
X0458740Y0379016D01*
X0458740Y0379016D01*
X0454778Y0379016D01*
X0454778Y0377206D01*
X0454870Y0376745D01*
X0455050Y0376310D01*
X0455311Y0375919D01*
X0455643Y0375587D01*
X0456034Y0375325D01*
X0456469Y0375145D01*
X0456930Y0375054D01*
X0458740Y0375054D01*
X0458740Y0379016D01*
X0458740Y0379016D01*
X0458740Y0375054D01*
X0460550Y0375054D01*
X0461011Y0375145D01*
X0461446Y0375325D01*
X0461831Y0375583D01*
X0462164Y0375250D01*
X0467128Y0375250D01*
X0468103Y0376225D01*
X0468411Y0376225D01*
X0468801Y0375836D01*
X0467967Y0375002D01*
X0467967Y0369250D01*
X0468438Y0368780D01*
X0467967Y0368309D01*
X0467967Y0362557D01*
X0469250Y0361274D01*
X0469532Y0361274D01*
X0469532Y0346177D01*
X0469957Y0345152D01*
X0470742Y0344367D01*
X0486461Y0328647D01*
X0486461Y0309706D01*
X0486312Y0309644D01*
X0484852Y0308184D01*
X0484252Y0306737D01*
X0483652Y0308184D01*
X0482192Y0309644D01*
X0480284Y0310435D01*
X0478219Y0310435D01*
X0476312Y0309644D01*
X0474852Y0308184D01*
X0474061Y0306277D01*
X0474061Y0298212D01*
X0474852Y0296304D01*
X0476312Y0294844D01*
X0478219Y0294054D01*
X0480284Y0294054D01*
X0482192Y0294844D01*
X0483652Y0296304D01*
X0484252Y0297752D01*
X0484852Y0296304D01*
X0486312Y0294844D01*
X0488219Y0294054D01*
X0490284Y0294054D01*
X0492192Y0294844D01*
X0493652Y0296304D01*
X0494151Y0297508D01*
X0494259Y0297176D01*
X0494644Y0296420D01*
X0495143Y0295734D01*
X0495742Y0295135D01*
X0496428Y0294636D01*
X0497184Y0294251D01*
X0497990Y0293989D01*
X0498828Y0293857D01*
X0499252Y0293857D01*
X0499676Y0293857D01*
X0500514Y0293989D01*
X0501320Y0294251D01*
X0502076Y0294636D01*
X0502762Y0295135D01*
X0503361Y0295734D01*
X0503860Y0296420D01*
X0504245Y0297176D01*
X0504507Y0297983D01*
X0504639Y0298820D01*
X0504639Y0302244D01*
X0499252Y0302244D01*
X0499252Y0293857D01*
X0499252Y0302244D01*
X0499252Y0302244D01*
X0499252Y0302244D01*
X0504639Y0302244D01*
X0504639Y0305668D01*
X0504507Y0306506D01*
X0504245Y0307312D01*
X0503860Y0308068D01*
X0503361Y0308754D01*
X0502762Y0309353D01*
X0502076Y0309852D01*
X0501320Y0310237D01*
X0500514Y0310499D01*
X0499676Y0310631D01*
X0499252Y0310631D01*
X0499252Y0302244D01*
X0499252Y0302244D01*
X0499252Y0310631D01*
X0498828Y0310631D01*
X0497990Y0310499D01*
X0497184Y0310237D01*
X0496428Y0309852D01*
X0495742Y0309353D01*
X0495143Y0308754D01*
X0494644Y0308068D01*
X0494259Y0307312D01*
X0494151Y0306980D01*
X0493652Y0308184D01*
X0492192Y0309644D01*
X0492043Y0309706D01*
X0492043Y0330358D01*
X0491618Y0331384D01*
X0475113Y0347888D01*
X0475113Y0361274D01*
X0475396Y0361274D01*
X0476679Y0362557D01*
X0476679Y0368309D01*
X0476208Y0368780D01*
X0476679Y0369250D01*
X0476679Y0375002D01*
X0475396Y0376285D01*
X0475113Y0376285D01*
X0475113Y0376815D01*
X0474689Y0377841D01*
X0471933Y0380596D01*
X0471148Y0381381D01*
X0470122Y0381806D01*
X0468103Y0381806D01*
X0467572Y0382337D01*
X0472046Y0380483D02*
X0575486Y0380483D01*
X0578114Y0377284D02*
X0474919Y0377284D01*
X0476679Y0374086D02*
X0579123Y0374086D01*
X0579187Y0370887D02*
X0476679Y0370887D01*
X0476679Y0367689D02*
X0579187Y0367689D01*
X0573100Y0364490D02*
X0476679Y0364490D01*
X0475413Y0361292D02*
X0564902Y0361292D01*
X0556703Y0358093D02*
X0475113Y0358093D01*
X0475113Y0354895D02*
X0555781Y0354895D01*
X0556596Y0351696D02*
X0475113Y0351696D01*
X0475113Y0348498D02*
X0579187Y0348498D01*
X0579187Y0351696D02*
X0570395Y0351696D01*
X0567597Y0351696D02*
X0566396Y0351696D01*
X0579187Y0345299D02*
X0477702Y0345299D01*
X0480901Y0342101D02*
X0579187Y0342101D01*
X0579187Y0338902D02*
X0484099Y0338902D01*
X0487298Y0335704D02*
X0517672Y0335704D01*
X0517579Y0335665D02*
X0515634Y0333720D01*
X0514581Y0331179D01*
X0514581Y0328428D01*
X0515634Y0325886D01*
X0517579Y0323941D01*
X0520121Y0322888D01*
X0522872Y0322888D01*
X0525413Y0323941D01*
X0527358Y0325886D01*
X0528411Y0328428D01*
X0528411Y0331179D01*
X0527358Y0333720D01*
X0525413Y0335665D01*
X0522872Y0336718D01*
X0520121Y0336718D01*
X0517579Y0335665D01*
X0515131Y0332505D02*
X0490496Y0332505D01*
X0492043Y0329307D02*
X0514581Y0329307D01*
X0515542Y0326108D02*
X0492043Y0326108D01*
X0492043Y0322910D02*
X0520069Y0322910D01*
X0522923Y0322910D02*
X0549745Y0322910D01*
X0550106Y0322813D02*
X0551030Y0322691D01*
X0551496Y0322691D01*
X0551496Y0329803D01*
X0551496Y0329803D01*
X0544384Y0329803D01*
X0544384Y0329337D01*
X0544506Y0328413D01*
X0544747Y0327512D01*
X0545104Y0326651D01*
X0545570Y0325844D01*
X0546138Y0325104D01*
X0546797Y0324445D01*
X0547536Y0323877D01*
X0548344Y0323411D01*
X0549205Y0323054D01*
X0550106Y0322813D01*
X0551496Y0322910D02*
X0551496Y0322910D01*
X0551496Y0322691D02*
X0551962Y0322691D01*
X0552886Y0322813D01*
X0553787Y0323054D01*
X0554648Y0323411D01*
X0555456Y0323877D01*
X0556195Y0324445D01*
X0556854Y0325104D01*
X0557422Y0325844D01*
X0557888Y0326651D01*
X0558245Y0327512D01*
X0558486Y0328413D01*
X0558608Y0329337D01*
X0558608Y0329803D01*
X0551496Y0329803D01*
X0551496Y0329803D01*
X0551496Y0322691D01*
X0553247Y0322910D02*
X0579187Y0322910D01*
X0579187Y0326108D02*
X0557575Y0326108D01*
X0558604Y0329307D02*
X0579187Y0329307D01*
X0579187Y0332505D02*
X0558075Y0332505D01*
X0558245Y0332094D02*
X0557888Y0332955D01*
X0557422Y0333763D01*
X0556854Y0334502D01*
X0556195Y0335162D01*
X0555456Y0335729D01*
X0554648Y0336195D01*
X0553787Y0336552D01*
X0552886Y0336793D01*
X0551962Y0336915D01*
X0551496Y0336915D01*
X0551030Y0336915D01*
X0550106Y0336793D01*
X0549205Y0336552D01*
X0548344Y0336195D01*
X0547536Y0335729D01*
X0546797Y0335162D01*
X0546138Y0334502D01*
X0545570Y0333763D01*
X0545104Y0332955D01*
X0544747Y0332094D01*
X0544506Y0331194D01*
X0544384Y0330269D01*
X0544384Y0329803D01*
X0551496Y0329803D01*
X0551496Y0329803D01*
X0558608Y0329803D01*
X0558608Y0330269D01*
X0558486Y0331194D01*
X0558245Y0332094D01*
X0555489Y0335704D02*
X0579187Y0335704D01*
X0579187Y0319711D02*
X0492043Y0319711D01*
X0492043Y0316513D02*
X0532616Y0316513D01*
X0533248Y0317144D02*
X0531635Y0315531D01*
X0530762Y0313424D01*
X0530762Y0311143D01*
X0531635Y0309035D01*
X0533248Y0307423D01*
X0535356Y0306550D01*
X0537637Y0306550D01*
X0539744Y0307423D01*
X0541357Y0309035D01*
X0542230Y0311143D01*
X0542230Y0313424D01*
X0541357Y0315531D01*
X0539744Y0317144D01*
X0537637Y0318017D01*
X0535356Y0318017D01*
X0533248Y0317144D01*
X0530762Y0313314D02*
X0492043Y0313314D01*
X0492043Y0310116D02*
X0496946Y0310116D01*
X0499252Y0310116D02*
X0499252Y0310116D01*
X0501558Y0310116D02*
X0510008Y0310116D01*
X0510779Y0310435D02*
X0508871Y0309644D01*
X0507411Y0308184D01*
X0506620Y0306277D01*
X0506620Y0298212D01*
X0507411Y0296304D01*
X0508871Y0294844D01*
X0510779Y0294054D01*
X0512843Y0294054D01*
X0514751Y0294844D01*
X0516211Y0296304D01*
X0516710Y0297508D01*
X0516818Y0297176D01*
X0517203Y0296420D01*
X0517702Y0295734D01*
X0518301Y0295135D01*
X0518987Y0294636D01*
X0519743Y0294251D01*
X0520549Y0293989D01*
X0521387Y0293857D01*
X0521811Y0293857D01*
X0522235Y0293857D01*
X0523073Y0293989D01*
X0523879Y0294251D01*
X0524635Y0294636D01*
X0525321Y0295135D01*
X0525920Y0295734D01*
X0526419Y0296420D01*
X0526804Y0297176D01*
X0527066Y0297983D01*
X0527198Y0298820D01*
X0527198Y0302244D01*
X0521811Y0302244D01*
X0521811Y0302244D01*
X0521811Y0293857D01*
X0521811Y0302244D01*
X0521811Y0302244D01*
X0527198Y0302244D01*
X0527198Y0305668D01*
X0527066Y0306506D01*
X0526804Y0307312D01*
X0526419Y0308068D01*
X0525920Y0308754D01*
X0525321Y0309353D01*
X0524635Y0309852D01*
X0523879Y0310237D01*
X0523073Y0310499D01*
X0522235Y0310631D01*
X0521811Y0310631D01*
X0521811Y0302244D01*
X0521811Y0310631D01*
X0521387Y0310631D01*
X0520549Y0310499D01*
X0519743Y0310237D01*
X0518987Y0309852D01*
X0518301Y0309353D01*
X0517702Y0308754D01*
X0517203Y0308068D01*
X0516818Y0307312D01*
X0516710Y0306980D01*
X0516211Y0308184D01*
X0514751Y0309644D01*
X0512843Y0310435D01*
X0510779Y0310435D01*
X0513614Y0310116D02*
X0519505Y0310116D01*
X0521811Y0310116D02*
X0521811Y0310116D01*
X0524117Y0310116D02*
X0531188Y0310116D01*
X0534468Y0306917D02*
X0526932Y0306917D01*
X0527198Y0303719D02*
X0579187Y0303719D01*
X0579187Y0306917D02*
X0538524Y0306917D01*
X0541804Y0310116D02*
X0579187Y0310116D01*
X0579187Y0313314D02*
X0542230Y0313314D01*
X0540376Y0316513D02*
X0579187Y0316513D01*
X0579187Y0300520D02*
X0527198Y0300520D01*
X0526851Y0297322D02*
X0579187Y0297322D01*
X0578838Y0294123D02*
X0572765Y0294123D01*
X0574710Y0290925D02*
X0577398Y0290925D01*
X0578485Y0292808D02*
X0578485Y0292808D01*
X0568976Y0289803D02*
X0567638Y0288465D01*
X0411476Y0288465D01*
X0402638Y0297303D01*
X0408372Y0297322D02*
X0442934Y0297322D01*
X0442565Y0298212D02*
X0443356Y0296304D01*
X0444816Y0294844D01*
X0446723Y0294054D01*
X0448788Y0294054D01*
X0450696Y0294844D01*
X0452156Y0296304D01*
X0452756Y0297752D01*
X0453356Y0296304D01*
X0454816Y0294844D01*
X0456723Y0294054D01*
X0458788Y0294054D01*
X0460696Y0294844D01*
X0462156Y0296304D01*
X0462655Y0297508D01*
X0462763Y0297176D01*
X0463148Y0296420D01*
X0463647Y0295734D01*
X0464246Y0295135D01*
X0464932Y0294636D01*
X0465688Y0294251D01*
X0466494Y0293989D01*
X0467332Y0293857D01*
X0467756Y0293857D01*
X0468180Y0293857D01*
X0469017Y0293989D01*
X0469824Y0294251D01*
X0470580Y0294636D01*
X0471266Y0295135D01*
X0471865Y0295734D01*
X0472364Y0296420D01*
X0472749Y0297176D01*
X0473011Y0297983D01*
X0473143Y0298820D01*
X0473143Y0302244D01*
X0467756Y0302244D01*
X0467756Y0302244D01*
X0467756Y0293857D01*
X0467756Y0302244D01*
X0467756Y0302244D01*
X0473143Y0302244D01*
X0473143Y0305668D01*
X0473011Y0306506D01*
X0472749Y0307312D01*
X0472364Y0308068D01*
X0471865Y0308754D01*
X0471266Y0309353D01*
X0470580Y0309852D01*
X0469824Y0310237D01*
X0469017Y0310499D01*
X0468180Y0310631D01*
X0467756Y0310631D01*
X0467756Y0302244D01*
X0467756Y0302244D01*
X0467756Y0310631D01*
X0467332Y0310631D01*
X0466494Y0310499D01*
X0465688Y0310237D01*
X0464932Y0309852D01*
X0464246Y0309353D01*
X0463647Y0308754D01*
X0463148Y0308068D01*
X0462763Y0307312D01*
X0462655Y0306980D01*
X0462156Y0308184D01*
X0460696Y0309644D01*
X0458788Y0310435D01*
X0456723Y0310435D01*
X0454816Y0309644D01*
X0453356Y0308184D01*
X0452756Y0306737D01*
X0452156Y0308184D01*
X0450696Y0309644D01*
X0448788Y0310435D01*
X0446723Y0310435D01*
X0444816Y0309644D01*
X0443356Y0308184D01*
X0442565Y0306277D01*
X0442565Y0298212D01*
X0442565Y0300520D02*
X0407512Y0300520D01*
X0411178Y0294123D02*
X0446556Y0294123D01*
X0448956Y0294123D02*
X0456556Y0294123D01*
X0458956Y0294123D02*
X0466083Y0294123D01*
X0467756Y0294123D02*
X0467756Y0294123D01*
X0469429Y0294123D02*
X0478052Y0294123D01*
X0480452Y0294123D02*
X0488052Y0294123D01*
X0490452Y0294123D02*
X0497579Y0294123D01*
X0499252Y0294123D02*
X0499252Y0294123D01*
X0500925Y0294123D02*
X0510611Y0294123D01*
X0513011Y0294123D02*
X0520138Y0294123D01*
X0521811Y0294123D02*
X0521811Y0294123D01*
X0523484Y0294123D02*
X0565187Y0294123D01*
X0551496Y0326108D02*
X0551496Y0326108D01*
X0551496Y0329307D02*
X0551496Y0329307D01*
X0551496Y0329803D02*
X0551496Y0336915D01*
X0551496Y0329803D01*
X0551496Y0329803D01*
X0551496Y0332505D02*
X0551496Y0332505D01*
X0551496Y0335704D02*
X0551496Y0335704D01*
X0547503Y0335704D02*
X0525320Y0335704D01*
X0527862Y0332505D02*
X0544918Y0332505D01*
X0544388Y0329307D02*
X0528411Y0329307D01*
X0527450Y0326108D02*
X0545417Y0326108D01*
X0521811Y0306917D02*
X0521811Y0306917D01*
X0521811Y0303719D02*
X0521811Y0303719D01*
X0521811Y0302244D02*
X0521811Y0302244D01*
X0521811Y0300520D02*
X0521811Y0300520D01*
X0521811Y0297322D02*
X0521811Y0297322D01*
X0516771Y0297322D02*
X0516633Y0297322D01*
X0506989Y0297322D02*
X0504292Y0297322D01*
X0504639Y0300520D02*
X0506620Y0300520D01*
X0506620Y0303719D02*
X0504639Y0303719D01*
X0504373Y0306917D02*
X0506886Y0306917D01*
X0499252Y0306917D02*
X0499252Y0306917D01*
X0499252Y0303719D02*
X0499252Y0303719D01*
X0499252Y0300520D02*
X0499252Y0300520D01*
X0499252Y0297322D02*
X0499252Y0297322D01*
X0494212Y0297322D02*
X0494074Y0297322D01*
X0484430Y0297322D02*
X0484074Y0297322D01*
X0474430Y0297322D02*
X0472796Y0297322D01*
X0473143Y0300520D02*
X0474061Y0300520D01*
X0474061Y0303719D02*
X0473143Y0303719D01*
X0472877Y0306917D02*
X0474327Y0306917D01*
X0477449Y0310116D02*
X0470062Y0310116D01*
X0467756Y0310116D02*
X0467756Y0310116D01*
X0465450Y0310116D02*
X0459558Y0310116D01*
X0455953Y0310116D02*
X0449558Y0310116D01*
X0445953Y0310116D02*
X0407730Y0310116D01*
X0408500Y0310886D02*
X0409553Y0313428D01*
X0409553Y0316179D01*
X0408500Y0318720D01*
X0406555Y0320665D01*
X0404013Y0321718D01*
X0401262Y0321718D01*
X0398721Y0320665D01*
X0396776Y0318720D01*
X0395723Y0316179D01*
X0395723Y0313428D01*
X0396776Y0310886D01*
X0398721Y0308941D01*
X0401262Y0307888D01*
X0404013Y0307888D01*
X0406555Y0308941D01*
X0408500Y0310886D01*
X0409506Y0313314D02*
X0486461Y0313314D01*
X0486461Y0310116D02*
X0481055Y0310116D01*
X0484177Y0306917D02*
X0484327Y0306917D01*
X0486461Y0316513D02*
X0409414Y0316513D01*
X0407509Y0319711D02*
X0486461Y0319711D01*
X0486461Y0322910D02*
X0419065Y0322910D01*
X0419013Y0322888D02*
X0421555Y0323941D01*
X0423500Y0325886D01*
X0424553Y0328428D01*
X0424553Y0331179D01*
X0423500Y0333720D01*
X0421555Y0335665D01*
X0419013Y0336718D01*
X0416262Y0336718D01*
X0413721Y0335665D01*
X0411776Y0333720D01*
X0410723Y0331179D01*
X0410723Y0328428D01*
X0411776Y0325886D01*
X0413721Y0323941D01*
X0416262Y0322888D01*
X0419013Y0322888D01*
X0416210Y0322910D02*
X0389389Y0322910D01*
X0387638Y0322910D02*
X0387638Y0322910D01*
X0385887Y0322910D02*
X0381600Y0322910D01*
X0381600Y0319711D02*
X0397767Y0319711D01*
X0395861Y0316513D02*
X0381600Y0316513D01*
X0381600Y0313314D02*
X0395770Y0313314D01*
X0397546Y0310116D02*
X0381600Y0310116D01*
X0381600Y0306917D02*
X0442831Y0306917D01*
X0442565Y0303719D02*
X0381600Y0303719D01*
X0381600Y0300520D02*
X0397764Y0300520D01*
X0396904Y0297322D02*
X0381600Y0297322D01*
X0381950Y0294123D02*
X0397749Y0294123D01*
X0403656Y0290925D02*
X0383390Y0290925D01*
X0387625Y0287726D02*
X0406854Y0287726D01*
X0452578Y0297322D02*
X0452934Y0297322D01*
X0462578Y0297322D02*
X0462716Y0297322D01*
X0467756Y0297322D02*
X0467756Y0297322D01*
X0467756Y0300520D02*
X0467756Y0300520D01*
X0467756Y0303719D02*
X0467756Y0303719D01*
X0467756Y0306917D02*
X0467756Y0306917D01*
X0452831Y0306917D02*
X0452681Y0306917D01*
X0423592Y0326108D02*
X0486461Y0326108D01*
X0485802Y0329307D02*
X0424553Y0329307D01*
X0424003Y0332505D02*
X0482603Y0332505D01*
X0479405Y0335704D02*
X0421462Y0335704D01*
X0413813Y0335704D02*
X0391630Y0335704D01*
X0387638Y0335704D02*
X0387638Y0335704D01*
X0387638Y0332505D02*
X0387638Y0332505D01*
X0387638Y0329307D02*
X0387638Y0329307D01*
X0387638Y0326108D02*
X0387638Y0326108D01*
X0393717Y0326108D02*
X0411684Y0326108D01*
X0410723Y0329307D02*
X0394746Y0329307D01*
X0394216Y0332505D02*
X0411272Y0332505D01*
X0383645Y0335704D02*
X0381600Y0335704D01*
X0381600Y0338902D02*
X0476206Y0338902D01*
X0473008Y0342101D02*
X0381600Y0342101D01*
X0381600Y0345299D02*
X0469896Y0345299D01*
X0469532Y0348498D02*
X0381600Y0348498D01*
X0381600Y0351696D02*
X0469532Y0351696D01*
X0469532Y0354895D02*
X0381600Y0354895D01*
X0381600Y0358093D02*
X0469532Y0358093D01*
X0469232Y0361292D02*
X0381600Y0361292D01*
X0381600Y0364490D02*
X0467967Y0364490D01*
X0467967Y0367689D02*
X0381600Y0367689D01*
X0381600Y0370887D02*
X0467967Y0370887D01*
X0467967Y0374086D02*
X0381664Y0374086D01*
X0382674Y0377284D02*
X0454778Y0377284D01*
X0454778Y0380483D02*
X0385301Y0380483D01*
X0458740Y0377284D02*
X0458740Y0377284D01*
M02*
