G75*
%MOIN*%
%OFA0B0*%
%FSLAX25Y25*%
%IPPOS*%
%LPD*%
%AMOC8*
5,1,8,0,0,1.08239X$1,22.5*
%
%ADD10C,0.00000*%
%ADD11C,0.09449*%
%ADD12C,0.07087*%
%ADD13C,0.07050*%
%ADD14C,0.03937*%
%ADD15C,0.06000*%
%ADD16C,0.04134*%
D10*
X0390827Y0284528D02*
X0583740Y0284528D01*
X0584025Y0284531D01*
X0584311Y0284542D01*
X0584596Y0284559D01*
X0584880Y0284583D01*
X0585164Y0284614D01*
X0585447Y0284652D01*
X0585728Y0284697D01*
X0586009Y0284748D01*
X0586289Y0284806D01*
X0586567Y0284871D01*
X0586843Y0284943D01*
X0587117Y0285021D01*
X0587390Y0285106D01*
X0587660Y0285198D01*
X0587928Y0285296D01*
X0588194Y0285400D01*
X0588457Y0285511D01*
X0588717Y0285628D01*
X0588975Y0285751D01*
X0589229Y0285881D01*
X0589480Y0286017D01*
X0589728Y0286158D01*
X0589972Y0286306D01*
X0590213Y0286459D01*
X0590449Y0286619D01*
X0590682Y0286784D01*
X0590911Y0286954D01*
X0591136Y0287130D01*
X0591356Y0287312D01*
X0591572Y0287498D01*
X0591783Y0287690D01*
X0591990Y0287887D01*
X0592192Y0288089D01*
X0592389Y0288296D01*
X0592581Y0288507D01*
X0592767Y0288723D01*
X0592949Y0288943D01*
X0593125Y0289168D01*
X0593295Y0289397D01*
X0593460Y0289630D01*
X0593620Y0289866D01*
X0593773Y0290107D01*
X0593921Y0290351D01*
X0594062Y0290599D01*
X0594198Y0290850D01*
X0594328Y0291104D01*
X0594451Y0291362D01*
X0594568Y0291622D01*
X0594679Y0291885D01*
X0594783Y0292151D01*
X0594881Y0292419D01*
X0594973Y0292689D01*
X0595058Y0292962D01*
X0595136Y0293236D01*
X0595208Y0293512D01*
X0595273Y0293790D01*
X0595331Y0294070D01*
X0595382Y0294351D01*
X0595427Y0294632D01*
X0595465Y0294915D01*
X0595496Y0295199D01*
X0595520Y0295483D01*
X0595537Y0295768D01*
X0595548Y0296054D01*
X0595551Y0296339D01*
X0595551Y0371142D01*
X0595548Y0371427D01*
X0595537Y0371713D01*
X0595520Y0371998D01*
X0595496Y0372282D01*
X0595465Y0372566D01*
X0595427Y0372849D01*
X0595382Y0373130D01*
X0595331Y0373411D01*
X0595273Y0373691D01*
X0595208Y0373969D01*
X0595136Y0374245D01*
X0595058Y0374519D01*
X0594973Y0374792D01*
X0594881Y0375062D01*
X0594783Y0375330D01*
X0594679Y0375596D01*
X0594568Y0375859D01*
X0594451Y0376119D01*
X0594328Y0376377D01*
X0594198Y0376631D01*
X0594062Y0376882D01*
X0593921Y0377130D01*
X0593773Y0377374D01*
X0593620Y0377615D01*
X0593460Y0377851D01*
X0593295Y0378084D01*
X0593125Y0378313D01*
X0592949Y0378538D01*
X0592767Y0378758D01*
X0592581Y0378974D01*
X0592389Y0379185D01*
X0592192Y0379392D01*
X0591990Y0379594D01*
X0591783Y0379791D01*
X0591572Y0379983D01*
X0591356Y0380169D01*
X0591136Y0380351D01*
X0590911Y0380527D01*
X0590682Y0380697D01*
X0590449Y0380862D01*
X0590213Y0381022D01*
X0589972Y0381175D01*
X0589728Y0381323D01*
X0589480Y0381464D01*
X0589229Y0381600D01*
X0588975Y0381730D01*
X0588717Y0381853D01*
X0588457Y0381970D01*
X0588194Y0382081D01*
X0587928Y0382185D01*
X0587660Y0382283D01*
X0587390Y0382375D01*
X0587117Y0382460D01*
X0586843Y0382538D01*
X0586567Y0382610D01*
X0586289Y0382675D01*
X0586009Y0382733D01*
X0585728Y0382784D01*
X0585447Y0382829D01*
X0585164Y0382867D01*
X0584880Y0382898D01*
X0584596Y0382922D01*
X0584311Y0382939D01*
X0584025Y0382950D01*
X0583740Y0382953D01*
X0390827Y0382953D01*
X0390542Y0382950D01*
X0390256Y0382939D01*
X0389971Y0382922D01*
X0389687Y0382898D01*
X0389403Y0382867D01*
X0389120Y0382829D01*
X0388839Y0382784D01*
X0388558Y0382733D01*
X0388278Y0382675D01*
X0388000Y0382610D01*
X0387724Y0382538D01*
X0387450Y0382460D01*
X0387177Y0382375D01*
X0386907Y0382283D01*
X0386639Y0382185D01*
X0386373Y0382081D01*
X0386110Y0381970D01*
X0385850Y0381853D01*
X0385592Y0381730D01*
X0385338Y0381600D01*
X0385087Y0381464D01*
X0384839Y0381323D01*
X0384595Y0381175D01*
X0384354Y0381022D01*
X0384118Y0380862D01*
X0383885Y0380697D01*
X0383656Y0380527D01*
X0383431Y0380351D01*
X0383211Y0380169D01*
X0382995Y0379983D01*
X0382784Y0379791D01*
X0382577Y0379594D01*
X0382375Y0379392D01*
X0382178Y0379185D01*
X0381986Y0378974D01*
X0381800Y0378758D01*
X0381618Y0378538D01*
X0381442Y0378313D01*
X0381272Y0378084D01*
X0381107Y0377851D01*
X0380947Y0377615D01*
X0380794Y0377374D01*
X0380646Y0377130D01*
X0380505Y0376882D01*
X0380369Y0376631D01*
X0380239Y0376377D01*
X0380116Y0376119D01*
X0379999Y0375859D01*
X0379888Y0375596D01*
X0379784Y0375330D01*
X0379686Y0375062D01*
X0379594Y0374792D01*
X0379509Y0374519D01*
X0379431Y0374245D01*
X0379359Y0373969D01*
X0379294Y0373691D01*
X0379236Y0373411D01*
X0379185Y0373130D01*
X0379140Y0372849D01*
X0379102Y0372566D01*
X0379071Y0372282D01*
X0379047Y0371998D01*
X0379030Y0371713D01*
X0379019Y0371427D01*
X0379016Y0371142D01*
X0379016Y0296339D01*
X0379019Y0296054D01*
X0379030Y0295768D01*
X0379047Y0295483D01*
X0379071Y0295199D01*
X0379102Y0294915D01*
X0379140Y0294632D01*
X0379185Y0294351D01*
X0379236Y0294070D01*
X0379294Y0293790D01*
X0379359Y0293512D01*
X0379431Y0293236D01*
X0379509Y0292962D01*
X0379594Y0292689D01*
X0379686Y0292419D01*
X0379784Y0292151D01*
X0379888Y0291885D01*
X0379999Y0291622D01*
X0380116Y0291362D01*
X0380239Y0291104D01*
X0380369Y0290850D01*
X0380505Y0290599D01*
X0380646Y0290351D01*
X0380794Y0290107D01*
X0380947Y0289866D01*
X0381107Y0289630D01*
X0381272Y0289397D01*
X0381442Y0289168D01*
X0381618Y0288943D01*
X0381800Y0288723D01*
X0381986Y0288507D01*
X0382178Y0288296D01*
X0382375Y0288089D01*
X0382577Y0287887D01*
X0382784Y0287690D01*
X0382995Y0287498D01*
X0383211Y0287312D01*
X0383431Y0287130D01*
X0383656Y0286954D01*
X0383885Y0286784D01*
X0384118Y0286619D01*
X0384354Y0286459D01*
X0384595Y0286306D01*
X0384839Y0286158D01*
X0385087Y0286017D01*
X0385338Y0285881D01*
X0385592Y0285751D01*
X0385850Y0285628D01*
X0386110Y0285511D01*
X0386373Y0285400D01*
X0386639Y0285296D01*
X0386907Y0285198D01*
X0387177Y0285106D01*
X0387450Y0285021D01*
X0387724Y0284943D01*
X0388000Y0284871D01*
X0388278Y0284806D01*
X0388558Y0284748D01*
X0388839Y0284697D01*
X0389120Y0284652D01*
X0389403Y0284614D01*
X0389687Y0284583D01*
X0389971Y0284559D01*
X0390256Y0284542D01*
X0390542Y0284531D01*
X0390827Y0284528D01*
D11*
X0399449Y0333740D03*
X0429449Y0333740D03*
X0533307Y0333740D03*
X0548307Y0318740D03*
X0563307Y0333740D03*
D12*
X0548307Y0301240D03*
X0446929Y0293740D03*
X0414449Y0316220D03*
D13*
X0439449Y0358740D03*
X0446949Y0361240D03*
X0454449Y0363740D03*
D14*
X0390827Y0371142D03*
X0390827Y0296339D03*
X0575866Y0296339D03*
X0583740Y0371142D03*
D15*
X0504882Y0307213D02*
X0504882Y0301213D01*
X0494882Y0301213D02*
X0494882Y0307213D01*
X0483504Y0307213D02*
X0483504Y0301213D01*
X0473504Y0301213D02*
X0473504Y0307213D01*
X0463504Y0307213D02*
X0463504Y0301213D01*
D16*
X0480197Y0360748D03*
M02*
