G75*
%MOIN*%
%OFA0B0*%
%FSLAX25Y25*%
%IPPOS*%
%LPD*%
%AMOC8*
5,1,8,0,0,1.08239X$1,22.5*
%
%ADD10C,0.00000*%
%ADD11C,0.09449*%
%ADD12C,0.07087*%
%ADD13C,0.07050*%
%ADD14R,0.02500X0.05000*%
%ADD15R,0.07008X0.12402*%
%ADD16C,0.06000*%
%ADD17C,0.03200*%
%ADD18C,0.04134*%
D10*
X0390827Y0284528D02*
X0583740Y0284528D01*
X0584025Y0284531D01*
X0584311Y0284542D01*
X0584596Y0284559D01*
X0584880Y0284583D01*
X0585164Y0284614D01*
X0585447Y0284652D01*
X0585728Y0284697D01*
X0586009Y0284748D01*
X0586289Y0284806D01*
X0586567Y0284871D01*
X0586843Y0284943D01*
X0587117Y0285021D01*
X0587390Y0285106D01*
X0587660Y0285198D01*
X0587928Y0285296D01*
X0588194Y0285400D01*
X0588457Y0285511D01*
X0588717Y0285628D01*
X0588975Y0285751D01*
X0589229Y0285881D01*
X0589480Y0286017D01*
X0589728Y0286158D01*
X0589972Y0286306D01*
X0590213Y0286459D01*
X0590449Y0286619D01*
X0590682Y0286784D01*
X0590911Y0286954D01*
X0591136Y0287130D01*
X0591356Y0287312D01*
X0591572Y0287498D01*
X0591783Y0287690D01*
X0591990Y0287887D01*
X0592192Y0288089D01*
X0592389Y0288296D01*
X0592581Y0288507D01*
X0592767Y0288723D01*
X0592949Y0288943D01*
X0593125Y0289168D01*
X0593295Y0289397D01*
X0593460Y0289630D01*
X0593620Y0289866D01*
X0593773Y0290107D01*
X0593921Y0290351D01*
X0594062Y0290599D01*
X0594198Y0290850D01*
X0594328Y0291104D01*
X0594451Y0291362D01*
X0594568Y0291622D01*
X0594679Y0291885D01*
X0594783Y0292151D01*
X0594881Y0292419D01*
X0594973Y0292689D01*
X0595058Y0292962D01*
X0595136Y0293236D01*
X0595208Y0293512D01*
X0595273Y0293790D01*
X0595331Y0294070D01*
X0595382Y0294351D01*
X0595427Y0294632D01*
X0595465Y0294915D01*
X0595496Y0295199D01*
X0595520Y0295483D01*
X0595537Y0295768D01*
X0595548Y0296054D01*
X0595551Y0296339D01*
X0595551Y0371142D01*
X0595548Y0371427D01*
X0595537Y0371713D01*
X0595520Y0371998D01*
X0595496Y0372282D01*
X0595465Y0372566D01*
X0595427Y0372849D01*
X0595382Y0373130D01*
X0595331Y0373411D01*
X0595273Y0373691D01*
X0595208Y0373969D01*
X0595136Y0374245D01*
X0595058Y0374519D01*
X0594973Y0374792D01*
X0594881Y0375062D01*
X0594783Y0375330D01*
X0594679Y0375596D01*
X0594568Y0375859D01*
X0594451Y0376119D01*
X0594328Y0376377D01*
X0594198Y0376631D01*
X0594062Y0376882D01*
X0593921Y0377130D01*
X0593773Y0377374D01*
X0593620Y0377615D01*
X0593460Y0377851D01*
X0593295Y0378084D01*
X0593125Y0378313D01*
X0592949Y0378538D01*
X0592767Y0378758D01*
X0592581Y0378974D01*
X0592389Y0379185D01*
X0592192Y0379392D01*
X0591990Y0379594D01*
X0591783Y0379791D01*
X0591572Y0379983D01*
X0591356Y0380169D01*
X0591136Y0380351D01*
X0590911Y0380527D01*
X0590682Y0380697D01*
X0590449Y0380862D01*
X0590213Y0381022D01*
X0589972Y0381175D01*
X0589728Y0381323D01*
X0589480Y0381464D01*
X0589229Y0381600D01*
X0588975Y0381730D01*
X0588717Y0381853D01*
X0588457Y0381970D01*
X0588194Y0382081D01*
X0587928Y0382185D01*
X0587660Y0382283D01*
X0587390Y0382375D01*
X0587117Y0382460D01*
X0586843Y0382538D01*
X0586567Y0382610D01*
X0586289Y0382675D01*
X0586009Y0382733D01*
X0585728Y0382784D01*
X0585447Y0382829D01*
X0585164Y0382867D01*
X0584880Y0382898D01*
X0584596Y0382922D01*
X0584311Y0382939D01*
X0584025Y0382950D01*
X0583740Y0382953D01*
X0390827Y0382953D01*
X0390542Y0382950D01*
X0390256Y0382939D01*
X0389971Y0382922D01*
X0389687Y0382898D01*
X0389403Y0382867D01*
X0389120Y0382829D01*
X0388839Y0382784D01*
X0388558Y0382733D01*
X0388278Y0382675D01*
X0388000Y0382610D01*
X0387724Y0382538D01*
X0387450Y0382460D01*
X0387177Y0382375D01*
X0386907Y0382283D01*
X0386639Y0382185D01*
X0386373Y0382081D01*
X0386110Y0381970D01*
X0385850Y0381853D01*
X0385592Y0381730D01*
X0385338Y0381600D01*
X0385087Y0381464D01*
X0384839Y0381323D01*
X0384595Y0381175D01*
X0384354Y0381022D01*
X0384118Y0380862D01*
X0383885Y0380697D01*
X0383656Y0380527D01*
X0383431Y0380351D01*
X0383211Y0380169D01*
X0382995Y0379983D01*
X0382784Y0379791D01*
X0382577Y0379594D01*
X0382375Y0379392D01*
X0382178Y0379185D01*
X0381986Y0378974D01*
X0381800Y0378758D01*
X0381618Y0378538D01*
X0381442Y0378313D01*
X0381272Y0378084D01*
X0381107Y0377851D01*
X0380947Y0377615D01*
X0380794Y0377374D01*
X0380646Y0377130D01*
X0380505Y0376882D01*
X0380369Y0376631D01*
X0380239Y0376377D01*
X0380116Y0376119D01*
X0379999Y0375859D01*
X0379888Y0375596D01*
X0379784Y0375330D01*
X0379686Y0375062D01*
X0379594Y0374792D01*
X0379509Y0374519D01*
X0379431Y0374245D01*
X0379359Y0373969D01*
X0379294Y0373691D01*
X0379236Y0373411D01*
X0379185Y0373130D01*
X0379140Y0372849D01*
X0379102Y0372566D01*
X0379071Y0372282D01*
X0379047Y0371998D01*
X0379030Y0371713D01*
X0379019Y0371427D01*
X0379016Y0371142D01*
X0379016Y0296339D01*
X0379019Y0296054D01*
X0379030Y0295768D01*
X0379047Y0295483D01*
X0379071Y0295199D01*
X0379102Y0294915D01*
X0379140Y0294632D01*
X0379185Y0294351D01*
X0379236Y0294070D01*
X0379294Y0293790D01*
X0379359Y0293512D01*
X0379431Y0293236D01*
X0379509Y0292962D01*
X0379594Y0292689D01*
X0379686Y0292419D01*
X0379784Y0292151D01*
X0379888Y0291885D01*
X0379999Y0291622D01*
X0380116Y0291362D01*
X0380239Y0291104D01*
X0380369Y0290850D01*
X0380505Y0290599D01*
X0380646Y0290351D01*
X0380794Y0290107D01*
X0380947Y0289866D01*
X0381107Y0289630D01*
X0381272Y0289397D01*
X0381442Y0289168D01*
X0381618Y0288943D01*
X0381800Y0288723D01*
X0381986Y0288507D01*
X0382178Y0288296D01*
X0382375Y0288089D01*
X0382577Y0287887D01*
X0382784Y0287690D01*
X0382995Y0287498D01*
X0383211Y0287312D01*
X0383431Y0287130D01*
X0383656Y0286954D01*
X0383885Y0286784D01*
X0384118Y0286619D01*
X0384354Y0286459D01*
X0384595Y0286306D01*
X0384839Y0286158D01*
X0385087Y0286017D01*
X0385338Y0285881D01*
X0385592Y0285751D01*
X0385850Y0285628D01*
X0386110Y0285511D01*
X0386373Y0285400D01*
X0386639Y0285296D01*
X0386907Y0285198D01*
X0387177Y0285106D01*
X0387450Y0285021D01*
X0387724Y0284943D01*
X0388000Y0284871D01*
X0388278Y0284806D01*
X0388558Y0284748D01*
X0388839Y0284697D01*
X0389120Y0284652D01*
X0389403Y0284614D01*
X0389687Y0284583D01*
X0389971Y0284559D01*
X0390256Y0284542D01*
X0390542Y0284531D01*
X0390827Y0284528D01*
D11*
X0399449Y0333740D03*
X0429449Y0333740D03*
X0533307Y0333740D03*
X0548307Y0318740D03*
X0563307Y0333740D03*
D12*
X0548307Y0301240D03*
X0446929Y0293740D03*
X0414449Y0316220D03*
D13*
X0439449Y0358740D03*
X0446949Y0361240D03*
X0454449Y0363740D03*
D14*
X0481575Y0333740D03*
X0485118Y0333740D03*
D15*
X0450768Y0306969D03*
X0437185Y0306969D03*
D16*
X0463504Y0307213D02*
X0463504Y0301213D01*
X0473504Y0301213D02*
X0473504Y0307213D01*
X0483504Y0307213D02*
X0483504Y0301213D01*
X0494882Y0301213D02*
X0494882Y0307213D01*
X0504882Y0307213D02*
X0504882Y0301213D01*
D17*
X0504882Y0304213D02*
X0533780Y0304213D01*
X0548307Y0318740D01*
X0548307Y0366811D01*
X0536102Y0379016D01*
X0487677Y0379016D01*
X0480197Y0371535D01*
X0480197Y0360748D01*
X0475797Y0362843D02*
X0475330Y0361716D01*
X0475330Y0359780D01*
X0476071Y0357991D01*
X0477440Y0356622D01*
X0479229Y0355881D01*
X0481165Y0355881D01*
X0481378Y0355969D01*
X0481378Y0338628D01*
X0480090Y0338628D01*
X0479628Y0338536D01*
X0479194Y0338356D01*
X0478803Y0338095D01*
X0478470Y0337762D01*
X0478209Y0337371D01*
X0478029Y0336937D01*
X0477937Y0336475D01*
X0477937Y0333740D01*
X0477937Y0331005D01*
X0478029Y0330544D01*
X0478209Y0330109D01*
X0478470Y0329718D01*
X0478803Y0329386D01*
X0479194Y0329124D01*
X0479628Y0328945D01*
X0480090Y0328853D01*
X0481378Y0328853D01*
X0481378Y0312610D01*
X0480218Y0312130D01*
X0478587Y0310498D01*
X0478504Y0310298D01*
X0478421Y0310498D01*
X0477904Y0311015D01*
X0477904Y0312962D01*
X0477234Y0314579D01*
X0467392Y0324422D01*
X0466154Y0325659D01*
X0464537Y0326329D01*
X0426114Y0326329D01*
X0418849Y0333594D01*
X0418849Y0365382D01*
X0420208Y0366742D01*
X0444748Y0366742D01*
X0444679Y0366719D01*
X0443850Y0366297D01*
X0443097Y0365750D01*
X0442439Y0365092D01*
X0442023Y0364520D01*
X0440707Y0365065D01*
X0438191Y0365065D01*
X0435866Y0364102D01*
X0434087Y0362323D01*
X0433124Y0359998D01*
X0433124Y0357482D01*
X0434087Y0355157D01*
X0435866Y0353378D01*
X0438191Y0352415D01*
X0440707Y0352415D01*
X0443032Y0353378D01*
X0444811Y0355157D01*
X0445016Y0355652D01*
X0445564Y0355473D01*
X0446483Y0355328D01*
X0446949Y0355328D01*
X0447414Y0355328D01*
X0448333Y0355473D01*
X0449218Y0355761D01*
X0450048Y0356183D01*
X0450800Y0356730D01*
X0451459Y0357388D01*
X0451874Y0357960D01*
X0453191Y0357415D01*
X0455707Y0357415D01*
X0458032Y0358378D01*
X0459811Y0360157D01*
X0460774Y0362482D01*
X0460774Y0364998D01*
X0459811Y0367323D01*
X0458258Y0368876D01*
X0458179Y0369067D01*
X0456941Y0370305D01*
X0452374Y0374872D01*
X0450757Y0375542D01*
X0417511Y0375542D01*
X0415893Y0374872D01*
X0414656Y0373634D01*
X0410719Y0369697D01*
X0410049Y0368080D01*
X0410049Y0320791D01*
X0409071Y0319814D01*
X0408106Y0317482D01*
X0408106Y0314959D01*
X0409071Y0312627D01*
X0410856Y0310843D01*
X0413187Y0309877D01*
X0415711Y0309877D01*
X0418042Y0310843D01*
X0419826Y0312627D01*
X0420792Y0314959D01*
X0420792Y0317482D01*
X0419826Y0319814D01*
X0418849Y0320791D01*
X0418849Y0321149D01*
X0421799Y0318199D01*
X0423416Y0317529D01*
X0461839Y0317529D01*
X0468728Y0310640D01*
X0468587Y0310498D01*
X0468504Y0310298D01*
X0468421Y0310498D01*
X0466789Y0312130D01*
X0464658Y0313013D01*
X0462350Y0313013D01*
X0460218Y0312130D01*
X0458587Y0310498D01*
X0457806Y0308613D01*
X0457072Y0308613D01*
X0457072Y0313726D01*
X0456645Y0314755D01*
X0455858Y0315543D01*
X0454829Y0315969D01*
X0446707Y0315969D01*
X0445678Y0315543D01*
X0444890Y0314755D01*
X0444464Y0313726D01*
X0444464Y0300211D01*
X0444685Y0299677D01*
X0443336Y0299118D01*
X0441552Y0297333D01*
X0440586Y0295002D01*
X0440586Y0292478D01*
X0441552Y0290147D01*
X0443336Y0288363D01*
X0445667Y0287397D01*
X0448191Y0287397D01*
X0450522Y0288363D01*
X0452307Y0290147D01*
X0453272Y0292478D01*
X0453272Y0295002D01*
X0452307Y0297333D01*
X0451672Y0297968D01*
X0454829Y0297968D01*
X0455858Y0298394D01*
X0456645Y0299182D01*
X0456907Y0299813D01*
X0457806Y0299813D01*
X0458587Y0297927D01*
X0460218Y0296296D01*
X0462350Y0295413D01*
X0464658Y0295413D01*
X0466789Y0296296D01*
X0468421Y0297927D01*
X0468504Y0298128D01*
X0468587Y0297927D01*
X0470218Y0296296D01*
X0472350Y0295413D01*
X0474658Y0295413D01*
X0476789Y0296296D01*
X0478421Y0297927D01*
X0478504Y0298128D01*
X0478587Y0297927D01*
X0480218Y0296296D01*
X0481378Y0295815D01*
X0481378Y0287328D01*
X0390827Y0287328D01*
X0389651Y0287405D01*
X0387378Y0288013D01*
X0385341Y0289190D01*
X0383678Y0290853D01*
X0382502Y0292890D01*
X0381893Y0295162D01*
X0381816Y0296339D01*
X0381816Y0371142D01*
X0381893Y0372318D01*
X0382502Y0374590D01*
X0383678Y0376627D01*
X0385341Y0378291D01*
X0387378Y0379467D01*
X0389651Y0380076D01*
X0390827Y0380153D01*
X0481378Y0380153D01*
X0481378Y0378939D01*
X0476467Y0374028D01*
X0475797Y0372411D01*
X0475797Y0362843D01*
X0475330Y0361292D02*
X0460281Y0361292D01*
X0460774Y0364490D02*
X0475797Y0364490D01*
X0475797Y0367689D02*
X0459445Y0367689D01*
X0456359Y0370887D02*
X0475797Y0370887D01*
X0476525Y0374086D02*
X0453160Y0374086D01*
X0449882Y0371142D02*
X0454449Y0366575D01*
X0454449Y0363740D01*
X0457344Y0358093D02*
X0476029Y0358093D01*
X0481378Y0354895D02*
X0444548Y0354895D01*
X0446949Y0355328D02*
X0446949Y0361240D01*
X0446949Y0355328D01*
X0446949Y0358093D02*
X0446949Y0358093D01*
X0446949Y0361240D02*
X0446949Y0361240D01*
X0436803Y0364490D02*
X0418849Y0364490D01*
X0418849Y0361292D02*
X0433660Y0361292D01*
X0433124Y0358093D02*
X0418849Y0358093D01*
X0418849Y0354895D02*
X0434349Y0354895D01*
X0430839Y0340730D02*
X0429915Y0340852D01*
X0429449Y0340852D01*
X0429449Y0333740D01*
X0429449Y0333740D01*
X0436561Y0333740D01*
X0436561Y0333274D01*
X0436439Y0332350D01*
X0436198Y0331449D01*
X0435841Y0330588D01*
X0435375Y0329781D01*
X0434807Y0329041D01*
X0434148Y0328382D01*
X0433408Y0327814D01*
X0432601Y0327348D01*
X0431740Y0326991D01*
X0430839Y0326750D01*
X0429915Y0326628D01*
X0429449Y0326628D01*
X0429449Y0333740D01*
X0429449Y0333740D01*
X0436561Y0333740D01*
X0436561Y0334206D01*
X0436439Y0335131D01*
X0436198Y0336031D01*
X0435841Y0336892D01*
X0435375Y0337700D01*
X0434807Y0338439D01*
X0434148Y0339099D01*
X0433408Y0339666D01*
X0432601Y0340132D01*
X0431740Y0340489D01*
X0430839Y0340730D01*
X0429449Y0340852D02*
X0428983Y0340852D01*
X0428058Y0340730D01*
X0427158Y0340489D01*
X0426297Y0340132D01*
X0425489Y0339666D01*
X0424750Y0339099D01*
X0424090Y0338439D01*
X0423523Y0337700D01*
X0423057Y0336892D01*
X0422700Y0336031D01*
X0422459Y0335131D01*
X0422337Y0334206D01*
X0422337Y0333740D01*
X0422337Y0333274D01*
X0422459Y0332350D01*
X0422700Y0331449D01*
X0423057Y0330588D01*
X0423523Y0329781D01*
X0424090Y0329041D01*
X0424750Y0328382D01*
X0425489Y0327814D01*
X0426297Y0327348D01*
X0427158Y0326991D01*
X0428058Y0326750D01*
X0428983Y0326628D01*
X0429449Y0326628D01*
X0429449Y0333740D01*
X0429449Y0333740D01*
X0422337Y0333740D01*
X0429449Y0333740D01*
X0429449Y0333740D01*
X0429449Y0340852D01*
X0429449Y0338902D02*
X0429449Y0338902D01*
X0429449Y0335704D02*
X0429449Y0335704D01*
X0429449Y0332505D02*
X0429449Y0332505D01*
X0429449Y0329307D02*
X0429449Y0329307D01*
X0435011Y0329307D02*
X0478921Y0329307D01*
X0477937Y0332505D02*
X0436459Y0332505D01*
X0436285Y0335704D02*
X0477937Y0335704D01*
X0477937Y0333740D02*
X0481068Y0333740D01*
X0477937Y0333740D01*
X0481068Y0333740D02*
X0481068Y0333740D01*
X0485778Y0333740D02*
X0488755Y0333740D01*
X0485778Y0333740D01*
X0485778Y0333740D01*
X0488755Y0333740D02*
X0488755Y0336475D01*
X0488664Y0336937D01*
X0488484Y0337371D01*
X0488223Y0337762D01*
X0487890Y0338095D01*
X0487499Y0338356D01*
X0487064Y0338536D01*
X0486603Y0338628D01*
X0485778Y0338628D01*
X0485778Y0370894D01*
X0489500Y0374616D01*
X0534280Y0374616D01*
X0543907Y0364988D01*
X0543907Y0324981D01*
X0541928Y0323002D01*
X0540783Y0320237D01*
X0540783Y0317438D01*
X0531957Y0308613D01*
X0510580Y0308613D01*
X0509799Y0310498D01*
X0508167Y0312130D01*
X0506036Y0313013D01*
X0503728Y0313013D01*
X0501596Y0312130D01*
X0499965Y0310498D01*
X0499646Y0309729D01*
X0499490Y0310036D01*
X0498991Y0310722D01*
X0498392Y0311322D01*
X0497705Y0311820D01*
X0496950Y0312205D01*
X0496143Y0312467D01*
X0495306Y0312600D01*
X0494882Y0312600D01*
X0494882Y0304213D01*
X0494882Y0304213D01*
X0494882Y0312600D01*
X0494458Y0312600D01*
X0493620Y0312467D01*
X0492814Y0312205D01*
X0492058Y0311820D01*
X0491372Y0311322D01*
X0490773Y0310722D01*
X0490274Y0310036D01*
X0489889Y0309281D01*
X0489627Y0308474D01*
X0489494Y0307637D01*
X0489494Y0304213D01*
X0494882Y0304213D01*
X0494882Y0304213D01*
X0489494Y0304213D01*
X0489494Y0300789D01*
X0489627Y0299951D01*
X0489889Y0299145D01*
X0490274Y0298389D01*
X0490773Y0297703D01*
X0491372Y0297103D01*
X0492058Y0296605D01*
X0492814Y0296220D01*
X0493620Y0295958D01*
X0494458Y0295825D01*
X0494882Y0295825D01*
X0495306Y0295825D01*
X0496143Y0295958D01*
X0496950Y0296220D01*
X0497705Y0296605D01*
X0498392Y0297103D01*
X0498991Y0297703D01*
X0499490Y0298389D01*
X0499646Y0298696D01*
X0499965Y0297927D01*
X0501596Y0296296D01*
X0503728Y0295413D01*
X0506036Y0295413D01*
X0508167Y0296296D01*
X0509799Y0297927D01*
X0510580Y0299813D01*
X0534655Y0299813D01*
X0536272Y0300482D01*
X0547005Y0311216D01*
X0549804Y0311216D01*
X0552569Y0312361D01*
X0554686Y0314478D01*
X0555831Y0317243D01*
X0555831Y0320237D01*
X0554686Y0323002D01*
X0552707Y0324981D01*
X0552707Y0367686D01*
X0552037Y0369303D01*
X0541188Y0380153D01*
X0583740Y0380153D01*
X0584916Y0380076D01*
X0587189Y0379467D01*
X0589226Y0378291D01*
X0590889Y0376627D01*
X0592065Y0374590D01*
X0592674Y0372318D01*
X0592751Y0371142D01*
X0592751Y0296339D01*
X0592674Y0295162D01*
X0592065Y0292890D01*
X0590889Y0290853D01*
X0589226Y0289190D01*
X0587189Y0288013D01*
X0584916Y0287405D01*
X0583740Y0287328D01*
X0485778Y0287328D01*
X0485778Y0295877D01*
X0486789Y0296296D01*
X0488421Y0297927D01*
X0489304Y0300059D01*
X0489304Y0308366D01*
X0488421Y0310498D01*
X0486789Y0312130D01*
X0485778Y0312549D01*
X0485778Y0328853D01*
X0486603Y0328853D01*
X0487064Y0328945D01*
X0487499Y0329124D01*
X0487890Y0329386D01*
X0488223Y0329718D01*
X0488484Y0330109D01*
X0488664Y0330544D01*
X0488755Y0331005D01*
X0488755Y0333740D01*
X0488755Y0332505D02*
X0526296Y0332505D01*
X0526317Y0332350D02*
X0526558Y0331449D01*
X0526915Y0330588D01*
X0527381Y0329781D01*
X0527949Y0329041D01*
X0528608Y0328382D01*
X0529347Y0327814D01*
X0530155Y0327348D01*
X0531016Y0326991D01*
X0531917Y0326750D01*
X0532841Y0326628D01*
X0533307Y0326628D01*
X0533307Y0333740D01*
X0533307Y0333740D01*
X0526195Y0333740D01*
X0526195Y0333274D01*
X0526317Y0332350D01*
X0526195Y0333740D02*
X0533307Y0333740D01*
X0533307Y0333740D01*
X0533307Y0326628D01*
X0533773Y0326628D01*
X0534698Y0326750D01*
X0535598Y0326991D01*
X0536459Y0327348D01*
X0537267Y0327814D01*
X0538006Y0328382D01*
X0538665Y0329041D01*
X0539233Y0329781D01*
X0539699Y0330588D01*
X0540056Y0331449D01*
X0540297Y0332350D01*
X0540419Y0333274D01*
X0540419Y0333740D01*
X0533307Y0333740D01*
X0533307Y0333740D01*
X0533307Y0340852D01*
X0532841Y0340852D01*
X0531917Y0340730D01*
X0531016Y0340489D01*
X0530155Y0340132D01*
X0529347Y0339666D01*
X0528608Y0339099D01*
X0527949Y0338439D01*
X0527381Y0337700D01*
X0526915Y0336892D01*
X0526558Y0336031D01*
X0526317Y0335131D01*
X0526195Y0334206D01*
X0526195Y0333740D01*
X0526471Y0335704D02*
X0488755Y0335704D01*
X0485778Y0338902D02*
X0528412Y0338902D01*
X0533307Y0338902D02*
X0533307Y0338902D01*
X0533307Y0340852D02*
X0533773Y0340852D01*
X0534698Y0340730D01*
X0535598Y0340489D01*
X0536459Y0340132D01*
X0537267Y0339666D01*
X0538006Y0339099D01*
X0538665Y0338439D01*
X0539233Y0337700D01*
X0539699Y0336892D01*
X0540056Y0336031D01*
X0540297Y0335131D01*
X0540419Y0334206D01*
X0540419Y0333740D01*
X0533307Y0333740D01*
X0533307Y0333740D01*
X0533307Y0340852D01*
X0533307Y0335704D02*
X0533307Y0335704D01*
X0533307Y0332505D02*
X0533307Y0332505D01*
X0533307Y0329307D02*
X0533307Y0329307D01*
X0527745Y0329307D02*
X0487772Y0329307D01*
X0485778Y0326108D02*
X0543907Y0326108D01*
X0543907Y0329307D02*
X0538869Y0329307D01*
X0540318Y0332505D02*
X0543907Y0332505D01*
X0543907Y0335704D02*
X0540144Y0335704D01*
X0538203Y0338902D02*
X0543907Y0338902D01*
X0543907Y0342101D02*
X0485778Y0342101D01*
X0485778Y0345299D02*
X0543907Y0345299D01*
X0543907Y0348498D02*
X0485778Y0348498D01*
X0485778Y0351696D02*
X0543907Y0351696D01*
X0543907Y0354895D02*
X0485778Y0354895D01*
X0485778Y0358093D02*
X0543907Y0358093D01*
X0543907Y0361292D02*
X0485778Y0361292D01*
X0485778Y0364490D02*
X0543907Y0364490D01*
X0541207Y0367689D02*
X0485778Y0367689D01*
X0485778Y0370887D02*
X0538008Y0370887D01*
X0534810Y0374086D02*
X0488970Y0374086D01*
X0479723Y0377284D02*
X0384335Y0377284D01*
X0382502Y0374590D02*
X0382502Y0374590D01*
X0382367Y0374086D02*
X0415107Y0374086D01*
X0418386Y0371142D02*
X0449882Y0371142D01*
X0418386Y0371142D02*
X0414449Y0367205D01*
X0414449Y0331772D01*
X0424291Y0321929D01*
X0463661Y0321929D01*
X0473504Y0312087D01*
X0473504Y0304213D01*
X0477815Y0297322D02*
X0479192Y0297322D01*
X0481378Y0294123D02*
X0453272Y0294123D01*
X0452629Y0290925D02*
X0481378Y0290925D01*
X0481378Y0287726D02*
X0448986Y0287726D01*
X0444873Y0287726D02*
X0388451Y0287726D01*
X0383637Y0290925D02*
X0441229Y0290925D01*
X0440586Y0294123D02*
X0382171Y0294123D01*
X0381816Y0297322D02*
X0441547Y0297322D01*
X0441385Y0298472D02*
X0441820Y0298652D01*
X0442211Y0298913D01*
X0442543Y0299246D01*
X0442805Y0299637D01*
X0442985Y0300071D01*
X0443076Y0300533D01*
X0443076Y0306817D01*
X0437337Y0306817D01*
X0437337Y0307120D01*
X0443076Y0307120D01*
X0443076Y0313404D01*
X0442985Y0313866D01*
X0442805Y0314300D01*
X0442543Y0314691D01*
X0442211Y0315024D01*
X0441820Y0315285D01*
X0441385Y0315465D01*
X0440924Y0315557D01*
X0437337Y0315557D01*
X0437337Y0307121D01*
X0437033Y0307121D01*
X0437033Y0315557D01*
X0433446Y0315557D01*
X0432985Y0315465D01*
X0432550Y0315285D01*
X0432159Y0315024D01*
X0431827Y0314691D01*
X0431565Y0314300D01*
X0431385Y0313866D01*
X0431294Y0313404D01*
X0431294Y0307120D01*
X0437033Y0307120D01*
X0437033Y0306817D01*
X0431294Y0306817D01*
X0431294Y0300533D01*
X0431385Y0300071D01*
X0431565Y0299637D01*
X0431827Y0299246D01*
X0432159Y0298913D01*
X0432550Y0298652D01*
X0432985Y0298472D01*
X0433446Y0298380D01*
X0437033Y0298380D01*
X0437033Y0306816D01*
X0437337Y0306816D01*
X0437337Y0298380D01*
X0440924Y0298380D01*
X0441385Y0298472D01*
X0443074Y0300520D02*
X0444464Y0300520D01*
X0444464Y0303719D02*
X0443076Y0303719D01*
X0444464Y0306917D02*
X0437337Y0306917D01*
X0437033Y0306917D02*
X0381816Y0306917D01*
X0381816Y0303719D02*
X0431294Y0303719D01*
X0431296Y0300520D02*
X0381816Y0300520D01*
X0381816Y0310116D02*
X0412611Y0310116D01*
X0416286Y0310116D02*
X0431294Y0310116D01*
X0431294Y0313314D02*
X0420111Y0313314D01*
X0420792Y0316513D02*
X0462855Y0316513D01*
X0466054Y0313314D02*
X0457072Y0313314D01*
X0457072Y0310116D02*
X0458429Y0310116D01*
X0453524Y0304213D02*
X0450768Y0306969D01*
X0453524Y0304213D02*
X0463504Y0304213D01*
X0467815Y0297322D02*
X0469192Y0297322D01*
X0459192Y0297322D02*
X0452312Y0297322D01*
X0437337Y0300520D02*
X0437033Y0300520D01*
X0437033Y0303719D02*
X0437337Y0303719D01*
X0437337Y0310116D02*
X0437033Y0310116D01*
X0437033Y0313314D02*
X0437337Y0313314D01*
X0443076Y0313314D02*
X0444464Y0313314D01*
X0444464Y0310116D02*
X0443076Y0310116D01*
X0420287Y0319711D02*
X0419869Y0319711D01*
X0414449Y0316220D02*
X0414449Y0331772D01*
X0410049Y0332505D02*
X0406973Y0332505D01*
X0406973Y0332243D02*
X0405828Y0329478D01*
X0403711Y0327361D01*
X0400946Y0326216D01*
X0397952Y0326216D01*
X0395187Y0327361D01*
X0393070Y0329478D01*
X0391924Y0332243D01*
X0391924Y0335237D01*
X0393070Y0338002D01*
X0395187Y0340119D01*
X0397952Y0341265D01*
X0400946Y0341265D01*
X0403711Y0340119D01*
X0405828Y0338002D01*
X0406973Y0335237D01*
X0406973Y0332243D01*
X0405656Y0329307D02*
X0410049Y0329307D01*
X0410049Y0326108D02*
X0381816Y0326108D01*
X0381816Y0322910D02*
X0410049Y0322910D01*
X0409029Y0319711D02*
X0381816Y0319711D01*
X0381816Y0316513D02*
X0408106Y0316513D01*
X0408787Y0313314D02*
X0381816Y0313314D01*
X0381816Y0329307D02*
X0393241Y0329307D01*
X0391924Y0332505D02*
X0381816Y0332505D01*
X0381816Y0335704D02*
X0392118Y0335704D01*
X0393970Y0338902D02*
X0381816Y0338902D01*
X0381816Y0342101D02*
X0410049Y0342101D01*
X0410049Y0345299D02*
X0381816Y0345299D01*
X0381816Y0348498D02*
X0410049Y0348498D01*
X0410049Y0351696D02*
X0381816Y0351696D01*
X0381816Y0354895D02*
X0410049Y0354895D01*
X0410049Y0358093D02*
X0381816Y0358093D01*
X0381816Y0361292D02*
X0410049Y0361292D01*
X0410049Y0364490D02*
X0381816Y0364490D01*
X0381816Y0367689D02*
X0410049Y0367689D01*
X0411909Y0370887D02*
X0381816Y0370887D01*
X0418849Y0351696D02*
X0481378Y0351696D01*
X0481378Y0348498D02*
X0418849Y0348498D01*
X0418849Y0345299D02*
X0481378Y0345299D01*
X0481378Y0342101D02*
X0418849Y0342101D01*
X0418849Y0338902D02*
X0424553Y0338902D01*
X0422612Y0335704D02*
X0418849Y0335704D01*
X0419938Y0332505D02*
X0422438Y0332505D01*
X0423136Y0329307D02*
X0423886Y0329307D01*
X0434344Y0338902D02*
X0481378Y0338902D01*
X0481378Y0326108D02*
X0465070Y0326108D01*
X0468903Y0322910D02*
X0481378Y0322910D01*
X0481378Y0319711D02*
X0472102Y0319711D01*
X0475300Y0316513D02*
X0481378Y0316513D01*
X0481378Y0313314D02*
X0477758Y0313314D01*
X0485778Y0313314D02*
X0536659Y0313314D01*
X0539857Y0316513D02*
X0485778Y0316513D01*
X0485778Y0319711D02*
X0540783Y0319711D01*
X0541890Y0322910D02*
X0485778Y0322910D01*
X0488579Y0310116D02*
X0490332Y0310116D01*
X0489494Y0306917D02*
X0489304Y0306917D01*
X0489304Y0303719D02*
X0489494Y0303719D01*
X0489537Y0300520D02*
X0489304Y0300520D01*
X0487815Y0297322D02*
X0491154Y0297322D01*
X0494882Y0297322D02*
X0494882Y0297322D01*
X0494882Y0295825D02*
X0494882Y0304212D01*
X0494882Y0304212D01*
X0494882Y0295825D01*
X0498610Y0297322D02*
X0500570Y0297322D01*
X0494882Y0300520D02*
X0494882Y0300520D01*
X0494882Y0303719D02*
X0494882Y0303719D01*
X0494882Y0306917D02*
X0494882Y0306917D01*
X0494882Y0310116D02*
X0494882Y0310116D01*
X0499432Y0310116D02*
X0499807Y0310116D01*
X0509957Y0310116D02*
X0533460Y0310116D01*
X0539508Y0303719D02*
X0542468Y0303719D01*
X0542929Y0304833D02*
X0541964Y0302502D01*
X0541964Y0299978D01*
X0542929Y0297647D01*
X0544714Y0295863D01*
X0547045Y0294897D01*
X0549569Y0294897D01*
X0551900Y0295863D01*
X0553685Y0297647D01*
X0554650Y0299978D01*
X0554650Y0302502D01*
X0553685Y0304833D01*
X0551900Y0306618D01*
X0549569Y0307583D01*
X0547045Y0307583D01*
X0544714Y0306618D01*
X0542929Y0304833D01*
X0542707Y0306917D02*
X0545437Y0306917D01*
X0545905Y0310116D02*
X0592751Y0310116D01*
X0592751Y0313314D02*
X0553522Y0313314D01*
X0555529Y0316513D02*
X0592751Y0316513D01*
X0592751Y0319711D02*
X0555831Y0319711D01*
X0554724Y0322910D02*
X0592751Y0322910D01*
X0592751Y0326108D02*
X0552707Y0326108D01*
X0552707Y0329307D02*
X0557099Y0329307D01*
X0556928Y0329478D02*
X0559045Y0327361D01*
X0561810Y0326216D01*
X0564804Y0326216D01*
X0567569Y0327361D01*
X0569686Y0329478D01*
X0570831Y0332243D01*
X0570831Y0335237D01*
X0569686Y0338002D01*
X0567569Y0340119D01*
X0564804Y0341265D01*
X0561810Y0341265D01*
X0559045Y0340119D01*
X0556928Y0338002D01*
X0555783Y0335237D01*
X0555783Y0332243D01*
X0556928Y0329478D01*
X0555783Y0332505D02*
X0552707Y0332505D01*
X0552707Y0335704D02*
X0555976Y0335704D01*
X0557828Y0338902D02*
X0552707Y0338902D01*
X0552707Y0342101D02*
X0592751Y0342101D01*
X0592751Y0345299D02*
X0552707Y0345299D01*
X0552707Y0348498D02*
X0592751Y0348498D01*
X0592751Y0351696D02*
X0552707Y0351696D01*
X0552707Y0354895D02*
X0592751Y0354895D01*
X0592751Y0358093D02*
X0552707Y0358093D01*
X0552707Y0361292D02*
X0592751Y0361292D01*
X0592751Y0364490D02*
X0552707Y0364490D01*
X0552706Y0367689D02*
X0592751Y0367689D01*
X0592751Y0370887D02*
X0550453Y0370887D01*
X0547255Y0374086D02*
X0592200Y0374086D01*
X0590232Y0377284D02*
X0544056Y0377284D01*
X0568786Y0338902D02*
X0592751Y0338902D01*
X0592751Y0335704D02*
X0570638Y0335704D01*
X0570831Y0332505D02*
X0592751Y0332505D01*
X0592751Y0329307D02*
X0569515Y0329307D01*
X0551177Y0306917D02*
X0592751Y0306917D01*
X0592751Y0303719D02*
X0554146Y0303719D01*
X0554650Y0300520D02*
X0592751Y0300520D01*
X0592751Y0297322D02*
X0553359Y0297322D01*
X0543255Y0297322D02*
X0509193Y0297322D01*
X0485778Y0294123D02*
X0592396Y0294123D01*
X0590930Y0290925D02*
X0485778Y0290925D01*
X0485778Y0287726D02*
X0586116Y0287726D01*
X0541964Y0300520D02*
X0536310Y0300520D01*
X0410049Y0335704D02*
X0406780Y0335704D01*
X0404928Y0338902D02*
X0410049Y0338902D01*
D18*
X0480197Y0360748D03*
M02*
