G75*
%MOIN*%
%OFA0B0*%
%FSLAX25Y25*%
%IPPOS*%
%LPD*%
%AMOC8*
5,1,8,0,0,1.08239X$1,22.5*
%
%ADD10C,0.00000*%
%ADD11C,0.09449*%
%ADD12C,0.07087*%
%ADD13C,0.07050*%
%ADD14C,0.03937*%
%ADD15C,0.06000*%
%ADD16C,0.03200*%
%ADD17C,0.04134*%
D10*
X0390827Y0284528D02*
X0583740Y0284528D01*
X0584025Y0284531D01*
X0584311Y0284542D01*
X0584596Y0284559D01*
X0584880Y0284583D01*
X0585164Y0284614D01*
X0585447Y0284652D01*
X0585728Y0284697D01*
X0586009Y0284748D01*
X0586289Y0284806D01*
X0586567Y0284871D01*
X0586843Y0284943D01*
X0587117Y0285021D01*
X0587390Y0285106D01*
X0587660Y0285198D01*
X0587928Y0285296D01*
X0588194Y0285400D01*
X0588457Y0285511D01*
X0588717Y0285628D01*
X0588975Y0285751D01*
X0589229Y0285881D01*
X0589480Y0286017D01*
X0589728Y0286158D01*
X0589972Y0286306D01*
X0590213Y0286459D01*
X0590449Y0286619D01*
X0590682Y0286784D01*
X0590911Y0286954D01*
X0591136Y0287130D01*
X0591356Y0287312D01*
X0591572Y0287498D01*
X0591783Y0287690D01*
X0591990Y0287887D01*
X0592192Y0288089D01*
X0592389Y0288296D01*
X0592581Y0288507D01*
X0592767Y0288723D01*
X0592949Y0288943D01*
X0593125Y0289168D01*
X0593295Y0289397D01*
X0593460Y0289630D01*
X0593620Y0289866D01*
X0593773Y0290107D01*
X0593921Y0290351D01*
X0594062Y0290599D01*
X0594198Y0290850D01*
X0594328Y0291104D01*
X0594451Y0291362D01*
X0594568Y0291622D01*
X0594679Y0291885D01*
X0594783Y0292151D01*
X0594881Y0292419D01*
X0594973Y0292689D01*
X0595058Y0292962D01*
X0595136Y0293236D01*
X0595208Y0293512D01*
X0595273Y0293790D01*
X0595331Y0294070D01*
X0595382Y0294351D01*
X0595427Y0294632D01*
X0595465Y0294915D01*
X0595496Y0295199D01*
X0595520Y0295483D01*
X0595537Y0295768D01*
X0595548Y0296054D01*
X0595551Y0296339D01*
X0595551Y0371142D01*
X0595548Y0371427D01*
X0595537Y0371713D01*
X0595520Y0371998D01*
X0595496Y0372282D01*
X0595465Y0372566D01*
X0595427Y0372849D01*
X0595382Y0373130D01*
X0595331Y0373411D01*
X0595273Y0373691D01*
X0595208Y0373969D01*
X0595136Y0374245D01*
X0595058Y0374519D01*
X0594973Y0374792D01*
X0594881Y0375062D01*
X0594783Y0375330D01*
X0594679Y0375596D01*
X0594568Y0375859D01*
X0594451Y0376119D01*
X0594328Y0376377D01*
X0594198Y0376631D01*
X0594062Y0376882D01*
X0593921Y0377130D01*
X0593773Y0377374D01*
X0593620Y0377615D01*
X0593460Y0377851D01*
X0593295Y0378084D01*
X0593125Y0378313D01*
X0592949Y0378538D01*
X0592767Y0378758D01*
X0592581Y0378974D01*
X0592389Y0379185D01*
X0592192Y0379392D01*
X0591990Y0379594D01*
X0591783Y0379791D01*
X0591572Y0379983D01*
X0591356Y0380169D01*
X0591136Y0380351D01*
X0590911Y0380527D01*
X0590682Y0380697D01*
X0590449Y0380862D01*
X0590213Y0381022D01*
X0589972Y0381175D01*
X0589728Y0381323D01*
X0589480Y0381464D01*
X0589229Y0381600D01*
X0588975Y0381730D01*
X0588717Y0381853D01*
X0588457Y0381970D01*
X0588194Y0382081D01*
X0587928Y0382185D01*
X0587660Y0382283D01*
X0587390Y0382375D01*
X0587117Y0382460D01*
X0586843Y0382538D01*
X0586567Y0382610D01*
X0586289Y0382675D01*
X0586009Y0382733D01*
X0585728Y0382784D01*
X0585447Y0382829D01*
X0585164Y0382867D01*
X0584880Y0382898D01*
X0584596Y0382922D01*
X0584311Y0382939D01*
X0584025Y0382950D01*
X0583740Y0382953D01*
X0390827Y0382953D01*
X0390542Y0382950D01*
X0390256Y0382939D01*
X0389971Y0382922D01*
X0389687Y0382898D01*
X0389403Y0382867D01*
X0389120Y0382829D01*
X0388839Y0382784D01*
X0388558Y0382733D01*
X0388278Y0382675D01*
X0388000Y0382610D01*
X0387724Y0382538D01*
X0387450Y0382460D01*
X0387177Y0382375D01*
X0386907Y0382283D01*
X0386639Y0382185D01*
X0386373Y0382081D01*
X0386110Y0381970D01*
X0385850Y0381853D01*
X0385592Y0381730D01*
X0385338Y0381600D01*
X0385087Y0381464D01*
X0384839Y0381323D01*
X0384595Y0381175D01*
X0384354Y0381022D01*
X0384118Y0380862D01*
X0383885Y0380697D01*
X0383656Y0380527D01*
X0383431Y0380351D01*
X0383211Y0380169D01*
X0382995Y0379983D01*
X0382784Y0379791D01*
X0382577Y0379594D01*
X0382375Y0379392D01*
X0382178Y0379185D01*
X0381986Y0378974D01*
X0381800Y0378758D01*
X0381618Y0378538D01*
X0381442Y0378313D01*
X0381272Y0378084D01*
X0381107Y0377851D01*
X0380947Y0377615D01*
X0380794Y0377374D01*
X0380646Y0377130D01*
X0380505Y0376882D01*
X0380369Y0376631D01*
X0380239Y0376377D01*
X0380116Y0376119D01*
X0379999Y0375859D01*
X0379888Y0375596D01*
X0379784Y0375330D01*
X0379686Y0375062D01*
X0379594Y0374792D01*
X0379509Y0374519D01*
X0379431Y0374245D01*
X0379359Y0373969D01*
X0379294Y0373691D01*
X0379236Y0373411D01*
X0379185Y0373130D01*
X0379140Y0372849D01*
X0379102Y0372566D01*
X0379071Y0372282D01*
X0379047Y0371998D01*
X0379030Y0371713D01*
X0379019Y0371427D01*
X0379016Y0371142D01*
X0379016Y0296339D01*
X0379019Y0296054D01*
X0379030Y0295768D01*
X0379047Y0295483D01*
X0379071Y0295199D01*
X0379102Y0294915D01*
X0379140Y0294632D01*
X0379185Y0294351D01*
X0379236Y0294070D01*
X0379294Y0293790D01*
X0379359Y0293512D01*
X0379431Y0293236D01*
X0379509Y0292962D01*
X0379594Y0292689D01*
X0379686Y0292419D01*
X0379784Y0292151D01*
X0379888Y0291885D01*
X0379999Y0291622D01*
X0380116Y0291362D01*
X0380239Y0291104D01*
X0380369Y0290850D01*
X0380505Y0290599D01*
X0380646Y0290351D01*
X0380794Y0290107D01*
X0380947Y0289866D01*
X0381107Y0289630D01*
X0381272Y0289397D01*
X0381442Y0289168D01*
X0381618Y0288943D01*
X0381800Y0288723D01*
X0381986Y0288507D01*
X0382178Y0288296D01*
X0382375Y0288089D01*
X0382577Y0287887D01*
X0382784Y0287690D01*
X0382995Y0287498D01*
X0383211Y0287312D01*
X0383431Y0287130D01*
X0383656Y0286954D01*
X0383885Y0286784D01*
X0384118Y0286619D01*
X0384354Y0286459D01*
X0384595Y0286306D01*
X0384839Y0286158D01*
X0385087Y0286017D01*
X0385338Y0285881D01*
X0385592Y0285751D01*
X0385850Y0285628D01*
X0386110Y0285511D01*
X0386373Y0285400D01*
X0386639Y0285296D01*
X0386907Y0285198D01*
X0387177Y0285106D01*
X0387450Y0285021D01*
X0387724Y0284943D01*
X0388000Y0284871D01*
X0388278Y0284806D01*
X0388558Y0284748D01*
X0388839Y0284697D01*
X0389120Y0284652D01*
X0389403Y0284614D01*
X0389687Y0284583D01*
X0389971Y0284559D01*
X0390256Y0284542D01*
X0390542Y0284531D01*
X0390827Y0284528D01*
D11*
X0399449Y0333740D03*
X0429449Y0333740D03*
X0533307Y0333740D03*
X0548307Y0318740D03*
X0563307Y0333740D03*
D12*
X0548307Y0301240D03*
X0446929Y0293740D03*
X0414449Y0316220D03*
D13*
X0439449Y0358740D03*
X0446949Y0361240D03*
X0454449Y0363740D03*
D14*
X0390827Y0371142D03*
X0390827Y0296339D03*
X0575866Y0296339D03*
X0583740Y0371142D03*
D15*
X0504882Y0307213D02*
X0504882Y0301213D01*
X0494882Y0301213D02*
X0494882Y0307213D01*
X0483504Y0307213D02*
X0483504Y0301213D01*
X0473504Y0301213D02*
X0473504Y0307213D01*
X0463504Y0307213D02*
X0463504Y0301213D01*
D16*
X0466953Y0297322D02*
X0470054Y0297322D01*
X0470564Y0296812D02*
X0472471Y0296022D01*
X0474536Y0296022D01*
X0476444Y0296812D01*
X0477904Y0298272D01*
X0478403Y0299477D01*
X0478511Y0299145D01*
X0478896Y0298389D01*
X0479395Y0297703D01*
X0479994Y0297103D01*
X0480680Y0296605D01*
X0481436Y0296220D01*
X0482242Y0295958D01*
X0483080Y0295825D01*
X0483504Y0295825D01*
X0483928Y0295825D01*
X0484765Y0295958D01*
X0485572Y0296220D01*
X0486328Y0296605D01*
X0487014Y0297103D01*
X0487613Y0297703D01*
X0488112Y0298389D01*
X0488497Y0299145D01*
X0488759Y0299951D01*
X0488891Y0300789D01*
X0488891Y0304213D01*
X0488891Y0307637D01*
X0488759Y0308474D01*
X0488497Y0309281D01*
X0488112Y0310036D01*
X0487613Y0310722D01*
X0487014Y0311322D01*
X0486328Y0311820D01*
X0485572Y0312205D01*
X0484765Y0312467D01*
X0483928Y0312600D01*
X0483504Y0312600D01*
X0483504Y0304213D01*
X0483504Y0304213D01*
X0483504Y0312600D01*
X0483080Y0312600D01*
X0482242Y0312467D01*
X0481436Y0312205D01*
X0480680Y0311820D01*
X0479994Y0311322D01*
X0479395Y0310722D01*
X0478896Y0310036D01*
X0478511Y0309281D01*
X0478403Y0308948D01*
X0477904Y0310153D01*
X0476444Y0311613D01*
X0474536Y0312403D01*
X0472471Y0312403D01*
X0470564Y0311613D01*
X0469104Y0310153D01*
X0468504Y0308705D01*
X0467904Y0310153D01*
X0466444Y0311613D01*
X0464536Y0312403D01*
X0462471Y0312403D01*
X0460564Y0311613D01*
X0459104Y0310153D01*
X0458313Y0308245D01*
X0458313Y0300180D01*
X0459104Y0298272D01*
X0460564Y0296812D01*
X0462471Y0296022D01*
X0464536Y0296022D01*
X0466444Y0296812D01*
X0467904Y0298272D01*
X0468504Y0299720D01*
X0469104Y0298272D01*
X0470564Y0296812D01*
X0476953Y0297322D02*
X0479776Y0297322D01*
X0483504Y0297322D02*
X0483504Y0297322D01*
X0483504Y0295825D02*
X0483504Y0304212D01*
X0483504Y0304212D01*
X0483504Y0295825D01*
X0487232Y0297322D02*
X0491432Y0297322D01*
X0491942Y0296812D02*
X0493849Y0296022D01*
X0495914Y0296022D01*
X0497822Y0296812D01*
X0499282Y0298272D01*
X0499882Y0299720D01*
X0500482Y0298272D01*
X0501942Y0296812D01*
X0503849Y0296022D01*
X0505914Y0296022D01*
X0507822Y0296812D01*
X0509282Y0298272D01*
X0510072Y0300180D01*
X0510072Y0308245D01*
X0509282Y0310153D01*
X0507822Y0311613D01*
X0505914Y0312403D01*
X0503849Y0312403D01*
X0501942Y0311613D01*
X0500482Y0310153D01*
X0499882Y0308705D01*
X0499282Y0310153D01*
X0497822Y0311613D01*
X0495914Y0312403D01*
X0493849Y0312403D01*
X0491942Y0311613D01*
X0490482Y0310153D01*
X0489691Y0308245D01*
X0489691Y0300180D01*
X0490482Y0298272D01*
X0491942Y0296812D01*
X0489691Y0300520D02*
X0488849Y0300520D01*
X0488891Y0303719D02*
X0489691Y0303719D01*
X0488891Y0304213D02*
X0483504Y0304213D01*
X0488891Y0304213D01*
X0488891Y0306917D02*
X0489691Y0306917D01*
X0490466Y0310116D02*
X0488054Y0310116D01*
X0483504Y0310116D02*
X0483504Y0310116D01*
X0483504Y0306917D02*
X0483504Y0306917D01*
X0483504Y0304213D02*
X0483504Y0304213D01*
X0483504Y0303719D02*
X0483504Y0303719D01*
X0483504Y0300520D02*
X0483504Y0300520D01*
X0478954Y0310116D02*
X0477920Y0310116D01*
X0469088Y0310116D02*
X0467920Y0310116D01*
X0459088Y0310116D02*
X0381600Y0310116D01*
X0381600Y0313314D02*
X0409446Y0313314D01*
X0409588Y0312973D02*
X0411201Y0311360D01*
X0413308Y0310487D01*
X0415589Y0310487D01*
X0417697Y0311360D01*
X0419310Y0312973D01*
X0420183Y0315080D01*
X0420183Y0317361D01*
X0419310Y0319468D01*
X0417697Y0321081D01*
X0415589Y0321954D01*
X0413308Y0321954D01*
X0411201Y0321081D01*
X0409588Y0319468D01*
X0408715Y0317361D01*
X0408715Y0315080D01*
X0409588Y0312973D01*
X0408715Y0316513D02*
X0381600Y0316513D01*
X0381600Y0319711D02*
X0409831Y0319711D01*
X0419067Y0319711D02*
X0541392Y0319711D01*
X0541392Y0320116D02*
X0541392Y0317365D01*
X0542445Y0314823D01*
X0544390Y0312878D01*
X0546932Y0311825D01*
X0549683Y0311825D01*
X0552224Y0312878D01*
X0554169Y0314823D01*
X0555222Y0317365D01*
X0555222Y0320116D01*
X0554169Y0322657D01*
X0552224Y0324602D01*
X0549683Y0325655D01*
X0546932Y0325655D01*
X0544390Y0324602D01*
X0542445Y0322657D01*
X0541392Y0320116D01*
X0542697Y0322910D02*
X0381600Y0322910D01*
X0381600Y0326108D02*
X0592967Y0326108D01*
X0592967Y0322910D02*
X0553917Y0322910D01*
X0555222Y0319711D02*
X0592967Y0319711D01*
X0592967Y0316513D02*
X0554869Y0316513D01*
X0552660Y0313314D02*
X0592967Y0313314D01*
X0592967Y0310116D02*
X0509298Y0310116D01*
X0510072Y0306917D02*
X0547029Y0306917D01*
X0547167Y0306974D02*
X0545059Y0306101D01*
X0543446Y0304488D01*
X0542573Y0302381D01*
X0542573Y0300867D01*
X0533961Y0292255D01*
X0454208Y0292255D01*
X0452663Y0293800D01*
X0452663Y0294881D01*
X0451790Y0296988D01*
X0450177Y0298601D01*
X0448070Y0299474D01*
X0445789Y0299474D01*
X0443681Y0298601D01*
X0442068Y0296988D01*
X0441195Y0294881D01*
X0441195Y0292600D01*
X0442068Y0290492D01*
X0443681Y0288879D01*
X0445789Y0288006D01*
X0447735Y0288006D01*
X0448630Y0287112D01*
X0390827Y0287112D01*
X0389622Y0287191D01*
X0387296Y0287814D01*
X0385210Y0289018D01*
X0383507Y0290722D01*
X0382302Y0292808D01*
X0381679Y0295134D01*
X0381600Y0296339D01*
X0381600Y0371142D01*
X0381679Y0372346D01*
X0382302Y0374673D01*
X0382302Y0374673D01*
X0383507Y0376759D01*
X0385210Y0378462D01*
X0387296Y0379666D01*
X0389622Y0380290D01*
X0390827Y0380369D01*
X0583740Y0380369D01*
X0584944Y0380290D01*
X0587271Y0379666D01*
X0589357Y0378462D01*
X0591060Y0376759D01*
X0592265Y0374673D01*
X0592888Y0372346D01*
X0592967Y0371142D01*
X0592967Y0296339D01*
X0592888Y0295134D01*
X0592265Y0292808D01*
X0591060Y0290722D01*
X0589357Y0289018D01*
X0587271Y0287814D01*
X0584944Y0287191D01*
X0583740Y0287112D01*
X0539539Y0287112D01*
X0547934Y0295506D01*
X0549448Y0295506D01*
X0551555Y0296379D01*
X0553168Y0297992D01*
X0554041Y0300100D01*
X0554041Y0302381D01*
X0553168Y0304488D01*
X0551555Y0306101D01*
X0549448Y0306974D01*
X0547167Y0306974D01*
X0549585Y0306917D02*
X0592967Y0306917D01*
X0592967Y0303719D02*
X0553487Y0303719D01*
X0554041Y0300520D02*
X0592967Y0300520D01*
X0592967Y0297322D02*
X0579961Y0297322D01*
X0580025Y0297166D02*
X0579392Y0298694D01*
X0578222Y0299864D01*
X0576693Y0300498D01*
X0575039Y0300498D01*
X0573510Y0299864D01*
X0572340Y0298694D01*
X0571707Y0297166D01*
X0571707Y0295511D01*
X0572340Y0293983D01*
X0573510Y0292813D01*
X0575039Y0292180D01*
X0576693Y0292180D01*
X0578222Y0292813D01*
X0579392Y0293983D01*
X0580025Y0295511D01*
X0580025Y0297166D01*
X0579450Y0294123D02*
X0592617Y0294123D01*
X0591177Y0290925D02*
X0543352Y0290925D01*
X0546551Y0294123D02*
X0572282Y0294123D01*
X0571772Y0297322D02*
X0552497Y0297322D01*
X0548307Y0301240D02*
X0535531Y0288465D01*
X0452638Y0288465D01*
X0447362Y0293740D01*
X0446929Y0293740D01*
X0441195Y0294123D02*
X0394411Y0294123D01*
X0394353Y0293983D02*
X0394986Y0295511D01*
X0394986Y0297166D01*
X0394353Y0298694D01*
X0393183Y0299864D01*
X0391654Y0300498D01*
X0389999Y0300498D01*
X0388471Y0299864D01*
X0387301Y0298694D01*
X0386668Y0297166D01*
X0386668Y0295511D01*
X0387301Y0293983D01*
X0388471Y0292813D01*
X0389999Y0292180D01*
X0391654Y0292180D01*
X0393183Y0292813D01*
X0394353Y0293983D01*
X0394921Y0297322D02*
X0442402Y0297322D01*
X0441889Y0290925D02*
X0383390Y0290925D01*
X0381950Y0294123D02*
X0387243Y0294123D01*
X0386732Y0297322D02*
X0381600Y0297322D01*
X0381600Y0300520D02*
X0458313Y0300520D01*
X0458313Y0303719D02*
X0381600Y0303719D01*
X0381600Y0306917D02*
X0458313Y0306917D01*
X0460054Y0297322D02*
X0451457Y0297322D01*
X0452663Y0294123D02*
X0535829Y0294123D01*
X0539028Y0297322D02*
X0508331Y0297322D01*
X0510072Y0300520D02*
X0542226Y0300520D01*
X0543127Y0303719D02*
X0510072Y0303719D01*
X0501432Y0297322D02*
X0498331Y0297322D01*
X0499298Y0310116D02*
X0500466Y0310116D01*
X0527445Y0329823D02*
X0526392Y0332365D01*
X0526392Y0335116D01*
X0527445Y0337657D01*
X0529390Y0339602D01*
X0531932Y0340655D01*
X0534683Y0340655D01*
X0537224Y0339602D01*
X0539169Y0337657D01*
X0540222Y0335116D01*
X0540222Y0332365D01*
X0539169Y0329823D01*
X0537224Y0327878D01*
X0534683Y0326825D01*
X0531932Y0326825D01*
X0529390Y0327878D01*
X0527445Y0329823D01*
X0527961Y0329307D02*
X0434795Y0329307D01*
X0435311Y0329823D02*
X0436364Y0332365D01*
X0436364Y0335116D01*
X0435311Y0337657D01*
X0433366Y0339602D01*
X0430824Y0340655D01*
X0428073Y0340655D01*
X0425532Y0339602D01*
X0423587Y0337657D01*
X0422534Y0335116D01*
X0422534Y0332365D01*
X0423587Y0329823D01*
X0425532Y0327878D01*
X0428073Y0326825D01*
X0430824Y0326825D01*
X0433366Y0327878D01*
X0435311Y0329823D01*
X0436364Y0332505D02*
X0526392Y0332505D01*
X0526636Y0335704D02*
X0436120Y0335704D01*
X0434066Y0338902D02*
X0528690Y0338902D01*
X0537924Y0338902D02*
X0558412Y0338902D01*
X0558608Y0339099D02*
X0557949Y0338439D01*
X0557381Y0337700D01*
X0556915Y0336892D01*
X0556558Y0336031D01*
X0556317Y0335131D01*
X0556195Y0334206D01*
X0556195Y0333740D01*
X0556195Y0333274D01*
X0556317Y0332350D01*
X0556558Y0331449D01*
X0556915Y0330588D01*
X0557381Y0329781D01*
X0557949Y0329041D01*
X0558608Y0328382D01*
X0559347Y0327814D01*
X0560155Y0327348D01*
X0561016Y0326991D01*
X0561917Y0326750D01*
X0562841Y0326628D01*
X0563307Y0326628D01*
X0563307Y0333740D01*
X0563307Y0333740D01*
X0556195Y0333740D01*
X0563307Y0333740D01*
X0563307Y0333740D01*
X0563307Y0326628D01*
X0563773Y0326628D01*
X0564698Y0326750D01*
X0565598Y0326991D01*
X0566459Y0327348D01*
X0567267Y0327814D01*
X0568006Y0328382D01*
X0568665Y0329041D01*
X0569233Y0329781D01*
X0569699Y0330588D01*
X0570056Y0331449D01*
X0570297Y0332350D01*
X0570419Y0333274D01*
X0570419Y0333740D01*
X0563307Y0333740D01*
X0563307Y0333740D01*
X0563307Y0340852D01*
X0562841Y0340852D01*
X0561917Y0340730D01*
X0561016Y0340489D01*
X0560155Y0340132D01*
X0559347Y0339666D01*
X0558608Y0339099D01*
X0556471Y0335704D02*
X0539978Y0335704D01*
X0540222Y0332505D02*
X0556296Y0332505D01*
X0557745Y0329307D02*
X0538653Y0329307D01*
X0541745Y0316513D02*
X0420183Y0316513D01*
X0419451Y0313314D02*
X0543954Y0313314D01*
X0563307Y0329307D02*
X0563307Y0329307D01*
X0563307Y0332505D02*
X0563307Y0332505D01*
X0563307Y0333740D02*
X0570419Y0333740D01*
X0570419Y0334206D01*
X0570297Y0335131D01*
X0570056Y0336031D01*
X0569699Y0336892D01*
X0569233Y0337700D01*
X0568665Y0338439D01*
X0568006Y0339099D01*
X0567267Y0339666D01*
X0566459Y0340132D01*
X0565598Y0340489D01*
X0564698Y0340730D01*
X0563773Y0340852D01*
X0563307Y0340852D01*
X0563307Y0333740D01*
X0563307Y0333740D01*
X0563307Y0335704D02*
X0563307Y0335704D01*
X0563307Y0338902D02*
X0563307Y0338902D01*
X0568203Y0338902D02*
X0592967Y0338902D01*
X0592967Y0335704D02*
X0570144Y0335704D01*
X0570318Y0332505D02*
X0592967Y0332505D01*
X0592967Y0329307D02*
X0568869Y0329307D01*
X0592967Y0342101D02*
X0381600Y0342101D01*
X0381600Y0345299D02*
X0592967Y0345299D01*
X0592967Y0348498D02*
X0381600Y0348498D01*
X0381600Y0351696D02*
X0592967Y0351696D01*
X0592967Y0354895D02*
X0443686Y0354895D01*
X0444294Y0355503D02*
X0442686Y0353895D01*
X0440586Y0353025D01*
X0438312Y0353025D01*
X0436211Y0353895D01*
X0434603Y0355503D01*
X0433733Y0357603D01*
X0433733Y0359877D01*
X0434603Y0361978D01*
X0436211Y0363586D01*
X0438312Y0364456D01*
X0440586Y0364456D01*
X0441873Y0363922D01*
X0442103Y0364478D01*
X0443711Y0366086D01*
X0445812Y0366956D01*
X0448086Y0366956D01*
X0449373Y0366422D01*
X0449603Y0366978D01*
X0451211Y0368586D01*
X0453312Y0369456D01*
X0455586Y0369456D01*
X0457686Y0368586D01*
X0459294Y0366978D01*
X0460164Y0364877D01*
X0460164Y0362603D01*
X0459294Y0360503D01*
X0457686Y0358895D01*
X0455586Y0358025D01*
X0453312Y0358025D01*
X0452024Y0358558D01*
X0451794Y0358003D01*
X0450186Y0356395D01*
X0448086Y0355525D01*
X0445812Y0355525D01*
X0444524Y0356058D01*
X0444294Y0355503D01*
X0451832Y0358093D02*
X0453146Y0358093D01*
X0455752Y0358093D02*
X0476831Y0358093D01*
X0476588Y0358336D02*
X0477785Y0357139D01*
X0479350Y0356491D01*
X0481044Y0356491D01*
X0482609Y0357139D01*
X0483806Y0358336D01*
X0484454Y0359901D01*
X0484454Y0361595D01*
X0483806Y0363160D01*
X0482609Y0364357D01*
X0481044Y0365005D01*
X0479350Y0365005D01*
X0477785Y0364357D01*
X0476588Y0363160D01*
X0475939Y0361595D01*
X0475939Y0359901D01*
X0476588Y0358336D01*
X0475939Y0361292D02*
X0459621Y0361292D01*
X0460164Y0364490D02*
X0478106Y0364490D01*
X0482287Y0364490D02*
X0592967Y0364490D01*
X0592967Y0361292D02*
X0484454Y0361292D01*
X0483563Y0358093D02*
X0592967Y0358093D01*
X0592967Y0367689D02*
X0586169Y0367689D01*
X0586096Y0367616D02*
X0587266Y0368786D01*
X0587899Y0370314D01*
X0587899Y0371969D01*
X0587266Y0373498D01*
X0586096Y0374668D01*
X0584567Y0375301D01*
X0582913Y0375301D01*
X0581384Y0374668D01*
X0580214Y0373498D01*
X0579581Y0371969D01*
X0579581Y0370314D01*
X0580214Y0368786D01*
X0581384Y0367616D01*
X0582913Y0366983D01*
X0584567Y0366983D01*
X0586096Y0367616D01*
X0587899Y0370887D02*
X0592967Y0370887D01*
X0592422Y0374086D02*
X0586678Y0374086D01*
X0590534Y0377284D02*
X0384032Y0377284D01*
X0382145Y0374086D02*
X0387889Y0374086D01*
X0388471Y0374668D02*
X0387301Y0373498D01*
X0386668Y0371969D01*
X0386668Y0370314D01*
X0387301Y0368786D01*
X0388471Y0367616D01*
X0389999Y0366983D01*
X0391654Y0366983D01*
X0393183Y0367616D01*
X0394353Y0368786D01*
X0394986Y0370314D01*
X0394986Y0371969D01*
X0394353Y0373498D01*
X0393183Y0374668D01*
X0391654Y0375301D01*
X0389999Y0375301D01*
X0388471Y0374668D01*
X0386668Y0370887D02*
X0381600Y0370887D01*
X0381600Y0367689D02*
X0388398Y0367689D01*
X0393256Y0367689D02*
X0450315Y0367689D01*
X0458583Y0367689D02*
X0581311Y0367689D01*
X0579581Y0370887D02*
X0394986Y0370887D01*
X0393764Y0374086D02*
X0580803Y0374086D01*
X0586942Y0287726D02*
X0540154Y0287726D01*
X0448016Y0287726D02*
X0387625Y0287726D01*
X0398058Y0326750D02*
X0398983Y0326628D01*
X0399449Y0326628D01*
X0399915Y0326628D01*
X0400839Y0326750D01*
X0401740Y0326991D01*
X0402601Y0327348D01*
X0403408Y0327814D01*
X0404148Y0328382D01*
X0404807Y0329041D01*
X0405375Y0329781D01*
X0405841Y0330588D01*
X0406198Y0331449D01*
X0406439Y0332350D01*
X0406561Y0333274D01*
X0406561Y0333740D01*
X0399449Y0333740D01*
X0399449Y0333740D01*
X0399449Y0326628D01*
X0399449Y0333740D01*
X0399449Y0333740D01*
X0406561Y0333740D01*
X0406561Y0334206D01*
X0406439Y0335131D01*
X0406198Y0336031D01*
X0405841Y0336892D01*
X0405375Y0337700D01*
X0404807Y0338439D01*
X0404148Y0339099D01*
X0403408Y0339666D01*
X0402601Y0340132D01*
X0401740Y0340489D01*
X0400839Y0340730D01*
X0399915Y0340852D01*
X0399449Y0340852D01*
X0399449Y0333740D01*
X0399449Y0333740D01*
X0392337Y0333740D01*
X0392337Y0333274D01*
X0392459Y0332350D01*
X0392700Y0331449D01*
X0393057Y0330588D01*
X0393523Y0329781D01*
X0394090Y0329041D01*
X0394750Y0328382D01*
X0395489Y0327814D01*
X0396297Y0327348D01*
X0397158Y0326991D01*
X0398058Y0326750D01*
X0399449Y0329307D02*
X0399449Y0329307D01*
X0399449Y0332505D02*
X0399449Y0332505D01*
X0399449Y0333740D02*
X0399449Y0333740D01*
X0392337Y0333740D01*
X0392337Y0334206D01*
X0392459Y0335131D01*
X0392700Y0336031D01*
X0393057Y0336892D01*
X0393523Y0337700D01*
X0394090Y0338439D01*
X0394750Y0339099D01*
X0395489Y0339666D01*
X0396297Y0340132D01*
X0397158Y0340489D01*
X0398058Y0340730D01*
X0398983Y0340852D01*
X0399449Y0340852D01*
X0399449Y0333740D01*
X0399449Y0335704D02*
X0399449Y0335704D01*
X0399449Y0338902D02*
X0399449Y0338902D01*
X0404344Y0338902D02*
X0424832Y0338902D01*
X0422777Y0335704D02*
X0406285Y0335704D01*
X0406459Y0332505D02*
X0422534Y0332505D01*
X0424103Y0329307D02*
X0405011Y0329307D01*
X0393886Y0329307D02*
X0381600Y0329307D01*
X0381600Y0332505D02*
X0392438Y0332505D01*
X0392612Y0335704D02*
X0381600Y0335704D01*
X0381600Y0338902D02*
X0394553Y0338902D01*
X0381600Y0354895D02*
X0435211Y0354895D01*
X0433733Y0358093D02*
X0381600Y0358093D01*
X0381600Y0361292D02*
X0434319Y0361292D01*
X0442116Y0364490D02*
X0381600Y0364490D01*
D17*
X0480197Y0360748D03*
M02*
