G75*
%MOIN*%
%OFA0B0*%
%FSLAX25Y25*%
%IPPOS*%
%LPD*%
%AMOC8*
5,1,8,0,0,1.08239X$1,22.5*
%
%ADD10C,0.00000*%
%ADD11R,0.06000X0.06000*%
%ADD12OC8,0.06000*%
%ADD13C,0.06000*%
%ADD14C,0.23622*%
%ADD15C,0.01600*%
%ADD16C,0.02362*%
%ADD17C,0.02953*%
%ADD18C,0.00800*%
D10*
X0033296Y0017548D02*
X0238020Y0017548D01*
X0238401Y0017553D01*
X0238781Y0017566D01*
X0239161Y0017589D01*
X0239540Y0017622D01*
X0239918Y0017663D01*
X0240295Y0017713D01*
X0240671Y0017773D01*
X0241046Y0017841D01*
X0241418Y0017919D01*
X0241789Y0018006D01*
X0242157Y0018101D01*
X0242523Y0018206D01*
X0242886Y0018319D01*
X0243247Y0018441D01*
X0243604Y0018571D01*
X0243958Y0018711D01*
X0244309Y0018858D01*
X0244656Y0019015D01*
X0244999Y0019179D01*
X0245338Y0019352D01*
X0245673Y0019533D01*
X0246004Y0019722D01*
X0246329Y0019919D01*
X0246650Y0020123D01*
X0246966Y0020336D01*
X0247276Y0020556D01*
X0247582Y0020783D01*
X0247881Y0021018D01*
X0248175Y0021260D01*
X0248463Y0021508D01*
X0248745Y0021764D01*
X0249020Y0022027D01*
X0249289Y0022296D01*
X0249552Y0022571D01*
X0249808Y0022853D01*
X0250056Y0023141D01*
X0250298Y0023435D01*
X0250533Y0023734D01*
X0250760Y0024040D01*
X0250980Y0024350D01*
X0251193Y0024666D01*
X0251397Y0024987D01*
X0251594Y0025312D01*
X0251783Y0025643D01*
X0251964Y0025978D01*
X0252137Y0026317D01*
X0252301Y0026660D01*
X0252458Y0027007D01*
X0252605Y0027358D01*
X0252745Y0027712D01*
X0252875Y0028069D01*
X0252997Y0028430D01*
X0253110Y0028793D01*
X0253215Y0029159D01*
X0253310Y0029527D01*
X0253397Y0029898D01*
X0253475Y0030270D01*
X0253543Y0030645D01*
X0253603Y0031021D01*
X0253653Y0031398D01*
X0253694Y0031776D01*
X0253727Y0032155D01*
X0253750Y0032535D01*
X0253763Y0032915D01*
X0253768Y0033296D01*
X0253769Y0033296D02*
X0253769Y0147469D01*
X0238020Y0163217D02*
X0237639Y0163212D01*
X0237259Y0163199D01*
X0236879Y0163176D01*
X0236500Y0163143D01*
X0236122Y0163102D01*
X0235745Y0163052D01*
X0235369Y0162992D01*
X0234994Y0162924D01*
X0234622Y0162846D01*
X0234251Y0162759D01*
X0233883Y0162664D01*
X0233517Y0162559D01*
X0233154Y0162446D01*
X0232793Y0162324D01*
X0232436Y0162194D01*
X0232082Y0162054D01*
X0231731Y0161907D01*
X0231384Y0161750D01*
X0231041Y0161586D01*
X0230702Y0161413D01*
X0230367Y0161232D01*
X0230036Y0161043D01*
X0229711Y0160846D01*
X0229390Y0160642D01*
X0229074Y0160429D01*
X0228764Y0160209D01*
X0228458Y0159982D01*
X0228159Y0159747D01*
X0227865Y0159505D01*
X0227577Y0159257D01*
X0227295Y0159001D01*
X0227020Y0158738D01*
X0226751Y0158469D01*
X0226488Y0158194D01*
X0226232Y0157912D01*
X0225984Y0157624D01*
X0225742Y0157330D01*
X0225507Y0157031D01*
X0225280Y0156725D01*
X0225060Y0156415D01*
X0224847Y0156099D01*
X0224643Y0155778D01*
X0224446Y0155453D01*
X0224257Y0155122D01*
X0224076Y0154787D01*
X0223903Y0154448D01*
X0223739Y0154105D01*
X0223582Y0153758D01*
X0223435Y0153407D01*
X0223295Y0153053D01*
X0223165Y0152696D01*
X0223043Y0152335D01*
X0222930Y0151972D01*
X0222825Y0151606D01*
X0222730Y0151238D01*
X0222643Y0150867D01*
X0222565Y0150495D01*
X0222497Y0150120D01*
X0222437Y0149744D01*
X0222387Y0149367D01*
X0222346Y0148989D01*
X0222313Y0148610D01*
X0222290Y0148230D01*
X0222277Y0147850D01*
X0222272Y0147469D01*
X0222270Y0147345D01*
X0222264Y0147222D01*
X0222255Y0147098D01*
X0222241Y0146976D01*
X0222224Y0146853D01*
X0222202Y0146731D01*
X0222177Y0146610D01*
X0222148Y0146490D01*
X0222116Y0146371D01*
X0222079Y0146252D01*
X0222039Y0146135D01*
X0221996Y0146020D01*
X0221948Y0145905D01*
X0221897Y0145793D01*
X0221843Y0145682D01*
X0221785Y0145572D01*
X0221724Y0145465D01*
X0221659Y0145359D01*
X0221591Y0145256D01*
X0221520Y0145155D01*
X0221446Y0145056D01*
X0221369Y0144959D01*
X0221288Y0144865D01*
X0221205Y0144774D01*
X0221119Y0144685D01*
X0221030Y0144599D01*
X0220939Y0144516D01*
X0220845Y0144435D01*
X0220748Y0144358D01*
X0220649Y0144284D01*
X0220548Y0144213D01*
X0220445Y0144145D01*
X0220339Y0144080D01*
X0220232Y0144019D01*
X0220122Y0143961D01*
X0220011Y0143907D01*
X0219899Y0143856D01*
X0219784Y0143808D01*
X0219669Y0143765D01*
X0219552Y0143725D01*
X0219433Y0143688D01*
X0219314Y0143656D01*
X0219194Y0143627D01*
X0219073Y0143602D01*
X0218951Y0143580D01*
X0218828Y0143563D01*
X0218706Y0143549D01*
X0218582Y0143540D01*
X0218459Y0143534D01*
X0218335Y0143532D01*
X0052981Y0143532D01*
X0052857Y0143534D01*
X0052734Y0143540D01*
X0052610Y0143549D01*
X0052488Y0143563D01*
X0052365Y0143580D01*
X0052243Y0143602D01*
X0052122Y0143627D01*
X0052002Y0143656D01*
X0051883Y0143688D01*
X0051764Y0143725D01*
X0051647Y0143765D01*
X0051532Y0143808D01*
X0051417Y0143856D01*
X0051305Y0143907D01*
X0051194Y0143961D01*
X0051084Y0144019D01*
X0050977Y0144080D01*
X0050871Y0144145D01*
X0050768Y0144213D01*
X0050667Y0144284D01*
X0050568Y0144358D01*
X0050471Y0144435D01*
X0050377Y0144516D01*
X0050286Y0144599D01*
X0050197Y0144685D01*
X0050111Y0144774D01*
X0050028Y0144865D01*
X0049947Y0144959D01*
X0049870Y0145056D01*
X0049796Y0145155D01*
X0049725Y0145256D01*
X0049657Y0145359D01*
X0049592Y0145465D01*
X0049531Y0145572D01*
X0049473Y0145682D01*
X0049419Y0145793D01*
X0049368Y0145905D01*
X0049320Y0146020D01*
X0049277Y0146135D01*
X0049237Y0146252D01*
X0049200Y0146371D01*
X0049168Y0146490D01*
X0049139Y0146610D01*
X0049114Y0146731D01*
X0049092Y0146853D01*
X0049075Y0146976D01*
X0049061Y0147098D01*
X0049052Y0147222D01*
X0049046Y0147345D01*
X0049044Y0147469D01*
X0033296Y0163217D02*
X0032915Y0163212D01*
X0032535Y0163199D01*
X0032155Y0163176D01*
X0031776Y0163143D01*
X0031398Y0163102D01*
X0031021Y0163052D01*
X0030645Y0162992D01*
X0030270Y0162924D01*
X0029898Y0162846D01*
X0029527Y0162759D01*
X0029159Y0162664D01*
X0028793Y0162559D01*
X0028430Y0162446D01*
X0028069Y0162324D01*
X0027712Y0162194D01*
X0027358Y0162054D01*
X0027007Y0161907D01*
X0026660Y0161750D01*
X0026317Y0161586D01*
X0025978Y0161413D01*
X0025643Y0161232D01*
X0025312Y0161043D01*
X0024987Y0160846D01*
X0024666Y0160642D01*
X0024350Y0160429D01*
X0024040Y0160209D01*
X0023734Y0159982D01*
X0023435Y0159747D01*
X0023141Y0159505D01*
X0022853Y0159257D01*
X0022571Y0159001D01*
X0022296Y0158738D01*
X0022027Y0158469D01*
X0021764Y0158194D01*
X0021508Y0157912D01*
X0021260Y0157624D01*
X0021018Y0157330D01*
X0020783Y0157031D01*
X0020556Y0156725D01*
X0020336Y0156415D01*
X0020123Y0156099D01*
X0019919Y0155778D01*
X0019722Y0155453D01*
X0019533Y0155122D01*
X0019352Y0154787D01*
X0019179Y0154448D01*
X0019015Y0154105D01*
X0018858Y0153758D01*
X0018711Y0153407D01*
X0018571Y0153053D01*
X0018441Y0152696D01*
X0018319Y0152335D01*
X0018206Y0151972D01*
X0018101Y0151606D01*
X0018006Y0151238D01*
X0017919Y0150867D01*
X0017841Y0150495D01*
X0017773Y0150120D01*
X0017713Y0149744D01*
X0017663Y0149367D01*
X0017622Y0148989D01*
X0017589Y0148610D01*
X0017566Y0148230D01*
X0017553Y0147850D01*
X0017548Y0147469D01*
X0017548Y0033296D01*
X0017553Y0032915D01*
X0017566Y0032535D01*
X0017589Y0032155D01*
X0017622Y0031776D01*
X0017663Y0031398D01*
X0017713Y0031021D01*
X0017773Y0030645D01*
X0017841Y0030270D01*
X0017919Y0029898D01*
X0018006Y0029527D01*
X0018101Y0029159D01*
X0018206Y0028793D01*
X0018319Y0028430D01*
X0018441Y0028069D01*
X0018571Y0027712D01*
X0018711Y0027358D01*
X0018858Y0027007D01*
X0019015Y0026660D01*
X0019179Y0026317D01*
X0019352Y0025978D01*
X0019533Y0025643D01*
X0019722Y0025312D01*
X0019919Y0024987D01*
X0020123Y0024666D01*
X0020336Y0024350D01*
X0020556Y0024040D01*
X0020783Y0023734D01*
X0021018Y0023435D01*
X0021260Y0023141D01*
X0021508Y0022853D01*
X0021764Y0022571D01*
X0022027Y0022296D01*
X0022296Y0022027D01*
X0022571Y0021764D01*
X0022853Y0021508D01*
X0023141Y0021260D01*
X0023435Y0021018D01*
X0023734Y0020783D01*
X0024040Y0020556D01*
X0024350Y0020336D01*
X0024666Y0020123D01*
X0024987Y0019919D01*
X0025312Y0019722D01*
X0025643Y0019533D01*
X0025978Y0019352D01*
X0026317Y0019179D01*
X0026660Y0019015D01*
X0027007Y0018858D01*
X0027358Y0018711D01*
X0027712Y0018571D01*
X0028069Y0018441D01*
X0028430Y0018319D01*
X0028793Y0018206D01*
X0029159Y0018101D01*
X0029527Y0018006D01*
X0029898Y0017919D01*
X0030270Y0017841D01*
X0030645Y0017773D01*
X0031021Y0017713D01*
X0031398Y0017663D01*
X0031776Y0017622D01*
X0032155Y0017589D01*
X0032535Y0017566D01*
X0032915Y0017553D01*
X0033296Y0017548D01*
X0049044Y0147469D02*
X0049039Y0147850D01*
X0049026Y0148230D01*
X0049003Y0148610D01*
X0048970Y0148989D01*
X0048929Y0149367D01*
X0048879Y0149744D01*
X0048819Y0150120D01*
X0048751Y0150495D01*
X0048673Y0150867D01*
X0048586Y0151238D01*
X0048491Y0151606D01*
X0048386Y0151972D01*
X0048273Y0152335D01*
X0048151Y0152696D01*
X0048021Y0153053D01*
X0047881Y0153407D01*
X0047734Y0153758D01*
X0047577Y0154105D01*
X0047413Y0154448D01*
X0047240Y0154787D01*
X0047059Y0155122D01*
X0046870Y0155453D01*
X0046673Y0155778D01*
X0046469Y0156099D01*
X0046256Y0156415D01*
X0046036Y0156725D01*
X0045809Y0157031D01*
X0045574Y0157330D01*
X0045332Y0157624D01*
X0045084Y0157912D01*
X0044828Y0158194D01*
X0044565Y0158469D01*
X0044296Y0158738D01*
X0044021Y0159001D01*
X0043739Y0159257D01*
X0043451Y0159505D01*
X0043157Y0159747D01*
X0042858Y0159982D01*
X0042552Y0160209D01*
X0042242Y0160429D01*
X0041926Y0160642D01*
X0041605Y0160846D01*
X0041280Y0161043D01*
X0040949Y0161232D01*
X0040614Y0161413D01*
X0040275Y0161586D01*
X0039932Y0161750D01*
X0039585Y0161907D01*
X0039234Y0162054D01*
X0038880Y0162194D01*
X0038523Y0162324D01*
X0038162Y0162446D01*
X0037799Y0162559D01*
X0037433Y0162664D01*
X0037065Y0162759D01*
X0036694Y0162846D01*
X0036322Y0162924D01*
X0035947Y0162992D01*
X0035571Y0163052D01*
X0035194Y0163102D01*
X0034816Y0163143D01*
X0034437Y0163176D01*
X0034057Y0163199D01*
X0033677Y0163212D01*
X0033296Y0163217D01*
X0238020Y0163217D02*
X0238401Y0163212D01*
X0238781Y0163199D01*
X0239161Y0163176D01*
X0239540Y0163143D01*
X0239918Y0163102D01*
X0240295Y0163052D01*
X0240671Y0162992D01*
X0241046Y0162924D01*
X0241418Y0162846D01*
X0241789Y0162759D01*
X0242157Y0162664D01*
X0242523Y0162559D01*
X0242886Y0162446D01*
X0243247Y0162324D01*
X0243604Y0162194D01*
X0243958Y0162054D01*
X0244309Y0161907D01*
X0244656Y0161750D01*
X0244999Y0161586D01*
X0245338Y0161413D01*
X0245673Y0161232D01*
X0246004Y0161043D01*
X0246329Y0160846D01*
X0246650Y0160642D01*
X0246966Y0160429D01*
X0247276Y0160209D01*
X0247582Y0159982D01*
X0247881Y0159747D01*
X0248175Y0159505D01*
X0248463Y0159257D01*
X0248745Y0159001D01*
X0249020Y0158738D01*
X0249289Y0158469D01*
X0249552Y0158194D01*
X0249808Y0157912D01*
X0250056Y0157624D01*
X0250298Y0157330D01*
X0250533Y0157031D01*
X0250760Y0156725D01*
X0250980Y0156415D01*
X0251193Y0156099D01*
X0251397Y0155778D01*
X0251594Y0155453D01*
X0251783Y0155122D01*
X0251964Y0154787D01*
X0252137Y0154448D01*
X0252301Y0154105D01*
X0252458Y0153758D01*
X0252605Y0153407D01*
X0252745Y0153053D01*
X0252875Y0152696D01*
X0252997Y0152335D01*
X0253110Y0151972D01*
X0253215Y0151606D01*
X0253310Y0151238D01*
X0253397Y0150867D01*
X0253475Y0150495D01*
X0253543Y0150120D01*
X0253603Y0149744D01*
X0253653Y0149367D01*
X0253694Y0148989D01*
X0253727Y0148610D01*
X0253750Y0148230D01*
X0253763Y0147850D01*
X0253768Y0147469D01*
D11*
X0197587Y0129910D03*
X0197587Y0088729D03*
X0122784Y0133847D03*
X0063729Y0112351D03*
X0040107Y0117351D03*
D12*
X0050107Y0117351D03*
X0050107Y0107351D03*
X0040107Y0107351D03*
X0040107Y0097351D03*
X0050107Y0097351D03*
X0050107Y0087351D03*
X0040107Y0087351D03*
X0040107Y0077351D03*
X0050107Y0077351D03*
X0050107Y0067351D03*
X0040107Y0067351D03*
X0063729Y0072351D03*
X0073729Y0072351D03*
X0073729Y0082351D03*
X0063729Y0082351D03*
X0063729Y0092351D03*
X0073729Y0092351D03*
X0073729Y0102351D03*
X0063729Y0102351D03*
X0073729Y0112351D03*
X0122784Y0113847D03*
X0132784Y0113847D03*
X0132784Y0123847D03*
X0122784Y0123847D03*
X0132784Y0133847D03*
X0197587Y0119910D03*
X0207587Y0119910D03*
X0207587Y0129910D03*
X0207587Y0109910D03*
X0197587Y0109910D03*
X0207587Y0088729D03*
X0207587Y0078729D03*
X0197587Y0078729D03*
X0197587Y0068729D03*
X0207587Y0068729D03*
X0207587Y0058729D03*
X0197587Y0058729D03*
X0197587Y0048729D03*
X0207587Y0048729D03*
D13*
X0152784Y0036296D02*
X0152784Y0030296D01*
X0142784Y0030296D02*
X0142784Y0036296D01*
X0132784Y0036296D02*
X0132784Y0030296D01*
X0122784Y0030296D02*
X0122784Y0036296D01*
X0112784Y0036296D02*
X0112784Y0030296D01*
X0102784Y0030296D02*
X0102784Y0036296D01*
D14*
X0033296Y0033296D03*
X0033296Y0147469D03*
X0238020Y0147469D03*
X0238020Y0033296D03*
D15*
X0027958Y0020410D02*
X0024805Y0022230D01*
X0022230Y0024805D01*
X0020410Y0027958D01*
X0019467Y0031475D01*
X0019348Y0033296D01*
X0019348Y0147469D01*
X0019467Y0149290D01*
X0020410Y0152807D01*
X0022230Y0155960D01*
X0024805Y0158535D01*
X0027958Y0160356D01*
X0031475Y0161298D01*
X0033296Y0161417D01*
X0035117Y0161298D01*
X0038634Y0160356D01*
X0041787Y0158535D01*
X0044362Y0155960D01*
X0046182Y0152807D01*
X0047125Y0149290D01*
X0047244Y0147469D01*
X0047244Y0146328D01*
X0048117Y0144220D01*
X0048117Y0144220D01*
X0049731Y0142606D01*
X0051840Y0141732D01*
X0219477Y0141732D01*
X0221585Y0142606D01*
X0223199Y0144220D01*
X0224072Y0146328D01*
X0224072Y0147469D01*
X0224192Y0149290D01*
X0225134Y0152807D01*
X0226955Y0155960D01*
X0229529Y0158535D01*
X0232683Y0160356D01*
X0236200Y0161298D01*
X0238020Y0161417D01*
X0238020Y0161417D01*
X0239841Y0161298D01*
X0243358Y0160356D01*
X0246511Y0158535D01*
X0249086Y0155960D01*
X0250907Y0152807D01*
X0251849Y0149290D01*
X0251969Y0147469D01*
X0251969Y0146724D01*
X0251969Y0033296D01*
X0251849Y0031475D01*
X0250907Y0027958D01*
X0249086Y0024805D01*
X0246511Y0022230D01*
X0243358Y0020410D01*
X0239841Y0019467D01*
X0238020Y0019348D01*
X0033296Y0019348D01*
X0031475Y0019467D01*
X0027958Y0020410D01*
X0028042Y0020613D02*
X0031504Y0019685D01*
X0035088Y0019685D01*
X0038550Y0020613D01*
X0041653Y0022405D01*
X0044188Y0024939D01*
X0045980Y0028042D01*
X0046907Y0031504D01*
X0046907Y0035088D01*
X0045980Y0038550D01*
X0044188Y0041653D01*
X0041653Y0044188D01*
X0038550Y0045980D01*
X0035088Y0046907D01*
X0031504Y0046907D01*
X0028042Y0045980D01*
X0024939Y0044188D01*
X0022405Y0041653D01*
X0020613Y0038550D01*
X0019685Y0035088D01*
X0019685Y0031504D01*
X0020613Y0028042D01*
X0022405Y0024939D01*
X0024939Y0022405D01*
X0028042Y0020613D01*
X0027813Y0020745D02*
X0027378Y0020745D01*
X0025044Y0022344D02*
X0024692Y0022344D01*
X0023401Y0023942D02*
X0023093Y0023942D01*
X0022057Y0025541D02*
X0021806Y0025541D01*
X0021134Y0027139D02*
X0020883Y0027139D01*
X0020426Y0028738D02*
X0020201Y0028738D01*
X0019998Y0030336D02*
X0019773Y0030336D01*
X0019685Y0031935D02*
X0019437Y0031935D01*
X0019348Y0033533D02*
X0019685Y0033533D01*
X0019697Y0035132D02*
X0019348Y0035132D01*
X0019348Y0036730D02*
X0020125Y0036730D01*
X0020553Y0038329D02*
X0019348Y0038329D01*
X0019348Y0039927D02*
X0021408Y0039927D01*
X0022331Y0041526D02*
X0019348Y0041526D01*
X0019348Y0043124D02*
X0023875Y0043124D01*
X0025866Y0044723D02*
X0019348Y0044723D01*
X0019348Y0046321D02*
X0029318Y0046321D01*
X0037274Y0046321D02*
X0061529Y0046321D01*
X0061529Y0045456D02*
X0065348Y0041637D01*
X0066637Y0040348D01*
X0100632Y0040348D01*
X0100380Y0040220D01*
X0099796Y0039795D01*
X0099285Y0039285D01*
X0098861Y0038700D01*
X0098533Y0038057D01*
X0098310Y0037370D01*
X0098197Y0036657D01*
X0098197Y0033496D01*
X0102584Y0033496D01*
X0102584Y0033096D01*
X0098197Y0033096D01*
X0098197Y0029935D01*
X0098310Y0029222D01*
X0098533Y0028535D01*
X0098861Y0027892D01*
X0099285Y0027308D01*
X0099796Y0026797D01*
X0100380Y0026373D01*
X0101023Y0026045D01*
X0101710Y0025822D01*
X0102423Y0025709D01*
X0102584Y0025709D01*
X0102584Y0033096D01*
X0102984Y0033096D01*
X0102984Y0025709D01*
X0103145Y0025709D01*
X0103858Y0025822D01*
X0104545Y0026045D01*
X0105189Y0026373D01*
X0105773Y0026797D01*
X0106283Y0027308D01*
X0106708Y0027892D01*
X0107036Y0028535D01*
X0107259Y0029222D01*
X0107372Y0029935D01*
X0107372Y0033096D01*
X0102984Y0033096D01*
X0102984Y0033496D01*
X0107372Y0033496D01*
X0107372Y0036657D01*
X0107259Y0037370D01*
X0107036Y0038057D01*
X0106708Y0038700D01*
X0106283Y0039285D01*
X0105773Y0039795D01*
X0105189Y0040220D01*
X0104936Y0040348D01*
X0110048Y0040348D01*
X0108715Y0039015D01*
X0107984Y0037251D01*
X0107984Y0029341D01*
X0108715Y0027577D01*
X0110065Y0026227D01*
X0111829Y0025496D01*
X0113739Y0025496D01*
X0115503Y0026227D01*
X0116853Y0027577D01*
X0117584Y0029341D01*
X0117584Y0037251D01*
X0116853Y0039015D01*
X0115520Y0040348D01*
X0120048Y0040348D01*
X0118715Y0039015D01*
X0117984Y0037251D01*
X0117984Y0029341D01*
X0118715Y0027577D01*
X0120065Y0026227D01*
X0121829Y0025496D01*
X0123739Y0025496D01*
X0125503Y0026227D01*
X0126853Y0027577D01*
X0127584Y0029341D01*
X0127584Y0037251D01*
X0126853Y0039015D01*
X0125520Y0040348D01*
X0130048Y0040348D01*
X0128715Y0039015D01*
X0127984Y0037251D01*
X0127984Y0029341D01*
X0128715Y0027577D01*
X0130065Y0026227D01*
X0131829Y0025496D01*
X0133739Y0025496D01*
X0135503Y0026227D01*
X0136853Y0027577D01*
X0137584Y0029341D01*
X0137584Y0037251D01*
X0136853Y0039015D01*
X0135520Y0040348D01*
X0137887Y0040348D01*
X0138967Y0039267D01*
X0138715Y0039015D01*
X0137984Y0037251D01*
X0137984Y0029341D01*
X0138715Y0027577D01*
X0140065Y0026227D01*
X0141829Y0025496D01*
X0143739Y0025496D01*
X0145503Y0026227D01*
X0146853Y0027577D01*
X0147584Y0029341D01*
X0147584Y0037251D01*
X0146853Y0039015D01*
X0146770Y0039098D01*
X0148798Y0039098D01*
X0148715Y0039015D01*
X0147984Y0037251D01*
X0147984Y0029341D01*
X0148715Y0027577D01*
X0150065Y0026227D01*
X0151829Y0025496D01*
X0153739Y0025496D01*
X0155503Y0026227D01*
X0156853Y0027577D01*
X0157584Y0029341D01*
X0157584Y0037251D01*
X0156853Y0039015D01*
X0156770Y0039098D01*
X0159709Y0039098D01*
X0160959Y0040348D01*
X0176637Y0040348D01*
X0190348Y0026637D01*
X0191637Y0025348D01*
X0205959Y0025348D01*
X0215959Y0035348D01*
X0217248Y0036637D01*
X0217248Y0082180D01*
X0212387Y0087040D01*
X0212387Y0090717D01*
X0209576Y0093529D01*
X0205599Y0093529D01*
X0202787Y0090717D01*
X0202787Y0086741D01*
X0205599Y0083929D01*
X0209276Y0083929D01*
X0212848Y0080357D01*
X0212848Y0066580D01*
X0212387Y0067040D01*
X0212387Y0070717D01*
X0209576Y0073529D01*
X0205599Y0073529D01*
X0204748Y0072678D01*
X0204748Y0072778D01*
X0205899Y0073929D01*
X0209576Y0073929D01*
X0212387Y0076741D01*
X0212387Y0080717D01*
X0209576Y0083529D01*
X0205599Y0083529D01*
X0202787Y0080717D01*
X0202787Y0077040D01*
X0200348Y0074601D01*
X0200348Y0072456D01*
X0199488Y0073317D01*
X0197787Y0073317D01*
X0197787Y0068929D01*
X0197387Y0068929D01*
X0197387Y0068529D01*
X0193000Y0068529D01*
X0193000Y0066829D01*
X0193831Y0065998D01*
X0178459Y0065998D01*
X0177209Y0067248D01*
X0177064Y0067248D01*
X0176737Y0067575D01*
X0175641Y0068029D01*
X0174455Y0068029D01*
X0173359Y0067575D01*
X0173032Y0067248D01*
X0172887Y0067248D01*
X0171637Y0065998D01*
X0155387Y0065998D01*
X0154764Y0065375D01*
X0154391Y0065529D01*
X0153205Y0065529D01*
X0152109Y0065075D01*
X0151996Y0064962D01*
X0148459Y0068498D01*
X0095381Y0068498D01*
X0095075Y0069237D01*
X0094237Y0070075D01*
X0093141Y0070529D01*
X0091955Y0070529D01*
X0090859Y0070075D01*
X0090021Y0069237D01*
X0089567Y0068141D01*
X0089567Y0066955D01*
X0090021Y0065859D01*
X0090859Y0065021D01*
X0091955Y0064567D01*
X0092418Y0064567D01*
X0092887Y0064098D01*
X0146637Y0064098D01*
X0149098Y0061637D01*
X0150387Y0060348D01*
X0151782Y0060348D01*
X0152109Y0060021D01*
X0153205Y0059567D01*
X0154391Y0059567D01*
X0155487Y0060021D01*
X0155814Y0060348D01*
X0155959Y0060348D01*
X0157209Y0061598D01*
X0173459Y0061598D01*
X0174083Y0062221D01*
X0174455Y0062067D01*
X0175641Y0062067D01*
X0176014Y0062221D01*
X0176637Y0061598D01*
X0193969Y0061598D01*
X0193000Y0060629D01*
X0193000Y0058929D01*
X0197387Y0058929D01*
X0197387Y0058529D01*
X0193000Y0058529D01*
X0193000Y0056829D01*
X0193831Y0055998D01*
X0189709Y0055998D01*
X0188029Y0057678D01*
X0188029Y0058141D01*
X0187575Y0059237D01*
X0186737Y0060075D01*
X0185641Y0060529D01*
X0185178Y0060529D01*
X0184709Y0060998D01*
X0156637Y0060998D01*
X0154137Y0058498D01*
X0152209Y0058498D01*
X0149748Y0060959D01*
X0148459Y0062248D01*
X0135814Y0062248D01*
X0135487Y0062575D01*
X0134391Y0063029D01*
X0133205Y0063029D01*
X0132109Y0062575D01*
X0131782Y0062248D01*
X0112887Y0062248D01*
X0111637Y0060998D01*
X0092209Y0060998D01*
X0090529Y0062678D01*
X0090529Y0063141D01*
X0090075Y0064237D01*
X0089237Y0065075D01*
X0088141Y0065529D01*
X0086955Y0065529D01*
X0085859Y0065075D01*
X0085021Y0064237D01*
X0084567Y0063141D01*
X0084567Y0061955D01*
X0085021Y0060859D01*
X0085859Y0060021D01*
X0086955Y0059567D01*
X0087418Y0059567D01*
X0090387Y0056598D01*
X0113459Y0056598D01*
X0114709Y0057848D01*
X0131782Y0057848D01*
X0132109Y0057521D01*
X0133205Y0057067D01*
X0134391Y0057067D01*
X0135487Y0057521D01*
X0135814Y0057848D01*
X0146637Y0057848D01*
X0150387Y0054098D01*
X0155959Y0054098D01*
X0157248Y0055387D01*
X0158459Y0056598D01*
X0182215Y0056598D01*
X0182521Y0055859D01*
X0183359Y0055021D01*
X0184455Y0054567D01*
X0184918Y0054567D01*
X0187887Y0051598D01*
X0193969Y0051598D01*
X0193000Y0050629D01*
X0193000Y0048929D01*
X0197387Y0048929D01*
X0197387Y0048529D01*
X0193000Y0048529D01*
X0193000Y0046829D01*
X0195081Y0044748D01*
X0193459Y0044748D01*
X0193029Y0045178D01*
X0193029Y0045641D01*
X0192575Y0046737D01*
X0191737Y0047575D01*
X0190641Y0048029D01*
X0190178Y0048029D01*
X0182209Y0055998D01*
X0157887Y0055998D01*
X0156598Y0054709D01*
X0155387Y0053498D01*
X0150959Y0053498D01*
X0148459Y0055998D01*
X0117064Y0055998D01*
X0116737Y0056325D01*
X0115641Y0056779D01*
X0114455Y0056779D01*
X0113359Y0056325D01*
X0113032Y0055998D01*
X0083459Y0055998D01*
X0082248Y0057209D01*
X0082248Y0086944D01*
X0080959Y0088232D01*
X0078529Y0090662D01*
X0078529Y0094339D01*
X0075717Y0097151D01*
X0071741Y0097151D01*
X0068929Y0094339D01*
X0068929Y0090662D01*
X0067818Y0089551D01*
X0067717Y0089551D01*
X0068529Y0090363D01*
X0068529Y0094339D01*
X0065717Y0097151D01*
X0062606Y0097151D01*
X0062206Y0097551D01*
X0065717Y0097551D01*
X0068529Y0100363D01*
X0068529Y0103474D01*
X0068929Y0103874D01*
X0068929Y0100363D01*
X0071741Y0097551D01*
X0075717Y0097551D01*
X0078529Y0100363D01*
X0078529Y0104339D01*
X0077920Y0104948D01*
X0104452Y0104948D01*
X0104629Y0104770D01*
X0105833Y0104272D01*
X0107137Y0104272D01*
X0108341Y0104770D01*
X0109263Y0105692D01*
X0109761Y0106896D01*
X0109761Y0107147D01*
X0117984Y0115370D01*
X0117984Y0111859D01*
X0120796Y0109047D01*
X0124772Y0109047D01*
X0126072Y0110347D01*
X0126075Y0110344D01*
X0131075Y0105344D01*
X0132031Y0104948D01*
X0133015Y0104948D01*
X0133192Y0104770D01*
X0134396Y0104272D01*
X0135700Y0104272D01*
X0136904Y0104770D01*
X0137826Y0105692D01*
X0138324Y0106896D01*
X0138324Y0108200D01*
X0137826Y0109404D01*
X0136904Y0110326D01*
X0136301Y0110575D01*
X0137584Y0111859D01*
X0137584Y0115835D01*
X0134772Y0118647D01*
X0130796Y0118647D01*
X0130148Y0117999D01*
X0130148Y0119601D01*
X0130081Y0119762D01*
X0130796Y0119047D01*
X0134772Y0119047D01*
X0137584Y0121859D01*
X0137584Y0125835D01*
X0134772Y0128647D01*
X0130796Y0128647D01*
X0127984Y0125835D01*
X0127984Y0122324D01*
X0127584Y0122724D01*
X0127584Y0125835D01*
X0124772Y0128647D01*
X0120796Y0128647D01*
X0117984Y0125835D01*
X0117984Y0122724D01*
X0106084Y0110824D01*
X0105833Y0110824D01*
X0104629Y0110326D01*
X0104452Y0110148D01*
X0078314Y0110148D01*
X0078529Y0110363D01*
X0078529Y0114339D01*
X0076329Y0116539D01*
X0076329Y0127652D01*
X0083625Y0134948D01*
X0117984Y0134948D01*
X0117984Y0130102D01*
X0119039Y0129047D01*
X0126530Y0129047D01*
X0127584Y0130102D01*
X0127584Y0137593D01*
X0126530Y0138647D01*
X0121661Y0138647D01*
X0120556Y0139752D01*
X0119601Y0140148D01*
X0082031Y0140148D01*
X0081075Y0139752D01*
X0080344Y0139021D01*
X0071525Y0130202D01*
X0071129Y0129246D01*
X0071129Y0116539D01*
X0068929Y0114339D01*
X0068929Y0110363D01*
X0069144Y0110148D01*
X0068409Y0110148D01*
X0068317Y0110110D01*
X0068317Y0112151D01*
X0063929Y0112151D01*
X0063929Y0107764D01*
X0065465Y0107764D01*
X0064852Y0107151D01*
X0062606Y0107151D01*
X0061993Y0107764D01*
X0063529Y0107764D01*
X0063529Y0112151D01*
X0063929Y0112151D01*
X0063929Y0112551D01*
X0068317Y0112551D01*
X0068317Y0115560D01*
X0068208Y0115964D01*
X0067999Y0116326D01*
X0067704Y0116621D01*
X0067342Y0116830D01*
X0066938Y0116939D01*
X0063929Y0116939D01*
X0063929Y0112551D01*
X0063529Y0112551D01*
X0063529Y0112151D01*
X0059142Y0112151D01*
X0059142Y0110616D01*
X0054651Y0115107D01*
X0054907Y0115363D01*
X0054907Y0119339D01*
X0052095Y0122151D01*
X0048119Y0122151D01*
X0045307Y0119339D01*
X0045307Y0115363D01*
X0048119Y0112551D01*
X0049852Y0112551D01*
X0050252Y0112151D01*
X0048119Y0112151D01*
X0045307Y0109339D01*
X0045307Y0105363D01*
X0048119Y0102551D01*
X0049852Y0102551D01*
X0050252Y0102151D01*
X0048119Y0102151D01*
X0045307Y0099339D01*
X0045307Y0095363D01*
X0048119Y0092551D01*
X0052095Y0092551D01*
X0054907Y0095363D01*
X0054907Y0097496D01*
X0058929Y0093474D01*
X0058929Y0090363D01*
X0059741Y0089551D01*
X0054695Y0089551D01*
X0052095Y0092151D01*
X0048119Y0092151D01*
X0045307Y0089339D01*
X0045307Y0085363D01*
X0048119Y0082551D01*
X0052095Y0082551D01*
X0054695Y0085151D01*
X0059741Y0085151D01*
X0058929Y0084339D01*
X0058929Y0080544D01*
X0054907Y0076522D01*
X0054907Y0079339D01*
X0052095Y0082151D01*
X0048119Y0082151D01*
X0045307Y0079339D01*
X0045307Y0075363D01*
X0046198Y0074472D01*
X0044117Y0074472D01*
X0042828Y0073184D01*
X0041796Y0072151D01*
X0038119Y0072151D01*
X0035307Y0069339D01*
X0035307Y0065363D01*
X0038119Y0062551D01*
X0042095Y0062551D01*
X0044907Y0065363D01*
X0044907Y0069040D01*
X0045940Y0070072D01*
X0046040Y0070072D01*
X0045307Y0069339D01*
X0045307Y0065363D01*
X0048119Y0062551D01*
X0052095Y0062551D01*
X0054907Y0065363D01*
X0054907Y0066756D01*
X0058929Y0070779D01*
X0058929Y0070363D01*
X0061529Y0067763D01*
X0061529Y0045456D01*
X0062262Y0044723D02*
X0040727Y0044723D01*
X0042717Y0043124D02*
X0063861Y0043124D01*
X0065459Y0041526D02*
X0044261Y0041526D01*
X0045184Y0039927D02*
X0099978Y0039927D01*
X0098671Y0038329D02*
X0046039Y0038329D01*
X0046467Y0036730D02*
X0098208Y0036730D01*
X0098197Y0035132D02*
X0046895Y0035132D01*
X0046907Y0033533D02*
X0098197Y0033533D01*
X0098197Y0031935D02*
X0046907Y0031935D01*
X0046594Y0030336D02*
X0098197Y0030336D01*
X0098467Y0028738D02*
X0046166Y0028738D01*
X0045458Y0027139D02*
X0099454Y0027139D01*
X0102584Y0027139D02*
X0102984Y0027139D01*
X0102984Y0028738D02*
X0102584Y0028738D01*
X0102584Y0030336D02*
X0102984Y0030336D01*
X0102984Y0031935D02*
X0102584Y0031935D01*
X0107372Y0031935D02*
X0107984Y0031935D01*
X0107984Y0033533D02*
X0107372Y0033533D01*
X0107372Y0035132D02*
X0107984Y0035132D01*
X0107984Y0036730D02*
X0107360Y0036730D01*
X0106897Y0038329D02*
X0108431Y0038329D01*
X0109627Y0039927D02*
X0105591Y0039927D01*
X0115941Y0039927D02*
X0119627Y0039927D01*
X0118431Y0038329D02*
X0117138Y0038329D01*
X0117584Y0036730D02*
X0117984Y0036730D01*
X0117984Y0035132D02*
X0117584Y0035132D01*
X0117584Y0033533D02*
X0117984Y0033533D01*
X0117984Y0031935D02*
X0117584Y0031935D01*
X0117584Y0030336D02*
X0117984Y0030336D01*
X0118234Y0028738D02*
X0117334Y0028738D01*
X0116416Y0027139D02*
X0119153Y0027139D01*
X0121722Y0025541D02*
X0113847Y0025541D01*
X0111722Y0025541D02*
X0044535Y0025541D01*
X0043191Y0023942D02*
X0228126Y0023942D01*
X0227129Y0024939D02*
X0229663Y0022405D01*
X0232767Y0020613D01*
X0236229Y0019685D01*
X0239812Y0019685D01*
X0243274Y0020613D01*
X0246378Y0022405D01*
X0248912Y0024939D01*
X0250704Y0028042D01*
X0251631Y0031504D01*
X0251631Y0035088D01*
X0250704Y0038550D01*
X0248912Y0041653D01*
X0246378Y0044188D01*
X0243274Y0045980D01*
X0239812Y0046907D01*
X0236229Y0046907D01*
X0232767Y0045980D01*
X0229663Y0044188D01*
X0227129Y0041653D01*
X0225337Y0038550D01*
X0224409Y0035088D01*
X0224409Y0031504D01*
X0225337Y0028042D01*
X0227129Y0024939D01*
X0226781Y0025541D02*
X0206152Y0025541D01*
X0207750Y0027139D02*
X0225859Y0027139D01*
X0225151Y0028738D02*
X0209349Y0028738D01*
X0210947Y0030336D02*
X0224722Y0030336D01*
X0224409Y0031935D02*
X0212546Y0031935D01*
X0214144Y0033533D02*
X0224409Y0033533D01*
X0224421Y0035132D02*
X0215743Y0035132D01*
X0217248Y0036730D02*
X0224849Y0036730D01*
X0225278Y0038329D02*
X0217248Y0038329D01*
X0217248Y0039927D02*
X0226132Y0039927D01*
X0227055Y0041526D02*
X0217248Y0041526D01*
X0217248Y0043124D02*
X0228600Y0043124D01*
X0230590Y0044723D02*
X0217248Y0044723D01*
X0217248Y0046321D02*
X0234042Y0046321D01*
X0241999Y0046321D02*
X0251969Y0046321D01*
X0251969Y0044723D02*
X0245451Y0044723D01*
X0247441Y0043124D02*
X0251969Y0043124D01*
X0251969Y0041526D02*
X0248986Y0041526D01*
X0249909Y0039927D02*
X0251969Y0039927D01*
X0251969Y0038329D02*
X0250763Y0038329D01*
X0251191Y0036730D02*
X0251969Y0036730D01*
X0251969Y0035132D02*
X0251620Y0035132D01*
X0251631Y0033533D02*
X0251969Y0033533D01*
X0251879Y0031935D02*
X0251631Y0031935D01*
X0251544Y0030336D02*
X0251319Y0030336D01*
X0251116Y0028738D02*
X0250890Y0028738D01*
X0250434Y0027139D02*
X0250182Y0027139D01*
X0249511Y0025541D02*
X0249259Y0025541D01*
X0248223Y0023942D02*
X0247915Y0023942D01*
X0246625Y0022344D02*
X0246272Y0022344D01*
X0243939Y0020745D02*
X0243504Y0020745D01*
X0232537Y0020745D02*
X0038779Y0020745D01*
X0041548Y0022344D02*
X0229769Y0022344D01*
X0209520Y0035132D02*
X0208243Y0035132D01*
X0207922Y0033533D02*
X0206644Y0033533D01*
X0205959Y0032848D02*
X0212848Y0039737D01*
X0212848Y0038459D01*
X0204137Y0029748D01*
X0200197Y0029748D01*
X0200263Y0029847D01*
X0200494Y0030404D01*
X0200612Y0030996D01*
X0200612Y0031298D01*
X0197548Y0031298D01*
X0194484Y0031298D01*
X0194484Y0030996D01*
X0194602Y0030404D01*
X0194833Y0029847D01*
X0194899Y0029748D01*
X0193459Y0029748D01*
X0178459Y0044748D01*
X0159137Y0044748D01*
X0157887Y0043498D01*
X0140959Y0043498D01*
X0139709Y0044748D01*
X0068459Y0044748D01*
X0065929Y0047278D01*
X0065929Y0052718D01*
X0066083Y0052347D01*
X0066418Y0051845D01*
X0066845Y0051418D01*
X0067347Y0051083D01*
X0067904Y0050852D01*
X0068496Y0050734D01*
X0068798Y0050734D01*
X0068798Y0053798D01*
X0068798Y0053798D01*
X0068798Y0050734D01*
X0069100Y0050734D01*
X0069692Y0050852D01*
X0070249Y0051083D01*
X0070751Y0051418D01*
X0071178Y0051845D01*
X0071513Y0052347D01*
X0071529Y0052386D01*
X0071529Y0050456D01*
X0075348Y0046637D01*
X0076637Y0045348D01*
X0143032Y0045348D01*
X0143359Y0045021D01*
X0144455Y0044567D01*
X0145641Y0044567D01*
X0146737Y0045021D01*
X0146850Y0045134D01*
X0147887Y0044098D01*
X0158459Y0044098D01*
X0159709Y0045348D01*
X0178032Y0045348D01*
X0178359Y0045021D01*
X0179455Y0044567D01*
X0179918Y0044567D01*
X0190348Y0034137D01*
X0191637Y0032848D01*
X0194899Y0032848D01*
X0194833Y0032749D01*
X0194602Y0032192D01*
X0194484Y0031600D01*
X0194484Y0031298D01*
X0197548Y0031298D01*
X0197548Y0031298D01*
X0197548Y0031298D01*
X0200612Y0031298D01*
X0200612Y0031600D01*
X0200494Y0032192D01*
X0200263Y0032749D01*
X0200197Y0032848D01*
X0205959Y0032848D01*
X0206323Y0031935D02*
X0200545Y0031935D01*
X0200466Y0030336D02*
X0204725Y0030336D01*
X0204137Y0037248D02*
X0200197Y0037248D01*
X0200263Y0037347D01*
X0200494Y0037904D01*
X0200612Y0038496D01*
X0200612Y0038798D01*
X0197548Y0038798D01*
X0194484Y0038798D01*
X0194484Y0038496D01*
X0194602Y0037904D01*
X0194833Y0037347D01*
X0194899Y0037248D01*
X0193459Y0037248D01*
X0183029Y0047678D01*
X0183029Y0048141D01*
X0182575Y0049237D01*
X0181737Y0050075D01*
X0180641Y0050529D01*
X0179455Y0050529D01*
X0178359Y0050075D01*
X0178032Y0049748D01*
X0157887Y0049748D01*
X0156637Y0048498D01*
X0149709Y0048498D01*
X0148459Y0049748D01*
X0147064Y0049748D01*
X0146737Y0050075D01*
X0145641Y0050529D01*
X0144455Y0050529D01*
X0143359Y0050075D01*
X0143032Y0049748D01*
X0078459Y0049748D01*
X0077473Y0050734D01*
X0077548Y0050734D01*
X0077548Y0053798D01*
X0077548Y0053798D01*
X0077548Y0050734D01*
X0077850Y0050734D01*
X0078442Y0050852D01*
X0078999Y0051083D01*
X0079501Y0051418D01*
X0079928Y0051845D01*
X0080263Y0052347D01*
X0080446Y0052789D01*
X0081637Y0051598D01*
X0113032Y0051598D01*
X0113359Y0051271D01*
X0114455Y0050817D01*
X0115641Y0050817D01*
X0116737Y0051271D01*
X0117064Y0051598D01*
X0146637Y0051598D01*
X0147848Y0050387D01*
X0149137Y0049098D01*
X0157209Y0049098D01*
X0159709Y0051598D01*
X0180387Y0051598D01*
X0187067Y0044918D01*
X0187067Y0044455D01*
X0187521Y0043359D01*
X0188359Y0042521D01*
X0189455Y0042067D01*
X0189918Y0042067D01*
X0190348Y0041637D01*
X0191637Y0040348D01*
X0194899Y0040348D01*
X0194833Y0040249D01*
X0194602Y0039692D01*
X0194484Y0039100D01*
X0194484Y0038798D01*
X0197548Y0038798D01*
X0197548Y0038798D01*
X0197548Y0038798D01*
X0200612Y0038798D01*
X0200612Y0039100D01*
X0200494Y0039692D01*
X0200263Y0040249D01*
X0200197Y0040348D01*
X0202318Y0040348D01*
X0205899Y0043929D01*
X0209576Y0043929D01*
X0210348Y0044702D01*
X0210348Y0043459D01*
X0204137Y0037248D01*
X0205217Y0038329D02*
X0200578Y0038329D01*
X0200397Y0039927D02*
X0206816Y0039927D01*
X0208414Y0041526D02*
X0203495Y0041526D01*
X0205094Y0043124D02*
X0210013Y0043124D01*
X0211440Y0038329D02*
X0212717Y0038329D01*
X0211119Y0036730D02*
X0209841Y0036730D01*
X0200495Y0044748D02*
X0200094Y0044748D01*
X0202175Y0046829D01*
X0202175Y0048529D01*
X0197787Y0048529D01*
X0197787Y0048929D01*
X0202175Y0048929D01*
X0202175Y0050629D01*
X0201206Y0051598D01*
X0202209Y0051598D01*
X0203498Y0052887D01*
X0205070Y0054459D01*
X0205599Y0053929D01*
X0209576Y0053929D01*
X0210348Y0054702D01*
X0210348Y0052757D01*
X0209576Y0053529D01*
X0205599Y0053529D01*
X0202787Y0050717D01*
X0202787Y0047040D01*
X0200495Y0044748D01*
X0201667Y0046321D02*
X0202068Y0046321D01*
X0202175Y0047920D02*
X0202787Y0047920D01*
X0202787Y0049518D02*
X0202175Y0049518D01*
X0201687Y0051117D02*
X0203187Y0051117D01*
X0203327Y0052715D02*
X0204785Y0052715D01*
X0204925Y0054314D02*
X0205215Y0054314D01*
X0202175Y0057786D02*
X0202175Y0058529D01*
X0197787Y0058529D01*
X0197787Y0058929D01*
X0202175Y0058929D01*
X0202175Y0060629D01*
X0201083Y0061721D01*
X0203459Y0064098D01*
X0203459Y0064098D01*
X0204445Y0065084D01*
X0205599Y0063929D01*
X0209276Y0063929D01*
X0210348Y0062857D01*
X0210348Y0062757D01*
X0209576Y0063529D01*
X0205599Y0063529D01*
X0202787Y0060717D01*
X0202787Y0058399D01*
X0202175Y0057786D01*
X0202175Y0059109D02*
X0202787Y0059109D01*
X0202787Y0060708D02*
X0202096Y0060708D01*
X0201668Y0062306D02*
X0204376Y0062306D01*
X0203266Y0063905D02*
X0209300Y0063905D01*
X0212387Y0067102D02*
X0212848Y0067102D01*
X0212848Y0068700D02*
X0212387Y0068700D01*
X0212387Y0070299D02*
X0212848Y0070299D01*
X0212848Y0071897D02*
X0211207Y0071897D01*
X0209609Y0073496D02*
X0212848Y0073496D01*
X0212848Y0075094D02*
X0210741Y0075094D01*
X0212339Y0076693D02*
X0212848Y0076693D01*
X0212848Y0078291D02*
X0212387Y0078291D01*
X0212387Y0079890D02*
X0212848Y0079890D01*
X0211717Y0081488D02*
X0211616Y0081488D01*
X0210118Y0083087D02*
X0210018Y0083087D01*
X0214742Y0084686D02*
X0251969Y0084686D01*
X0251969Y0086284D02*
X0213144Y0086284D01*
X0212387Y0087883D02*
X0251969Y0087883D01*
X0251969Y0089481D02*
X0212387Y0089481D01*
X0212025Y0091080D02*
X0251969Y0091080D01*
X0251969Y0092678D02*
X0210427Y0092678D01*
X0204748Y0092678D02*
X0202184Y0092678D01*
X0202387Y0092475D02*
X0201333Y0093529D01*
X0193842Y0093529D01*
X0192787Y0092475D01*
X0192787Y0091329D01*
X0172444Y0091329D01*
X0170148Y0093625D01*
X0170148Y0127238D01*
X0169752Y0128194D01*
X0165824Y0132122D01*
X0165824Y0132373D01*
X0165326Y0133577D01*
X0164404Y0134499D01*
X0163200Y0134998D01*
X0161896Y0134998D01*
X0160692Y0134499D01*
X0159770Y0133577D01*
X0159272Y0132373D01*
X0159272Y0131070D01*
X0159770Y0129865D01*
X0160692Y0128944D01*
X0161896Y0128445D01*
X0162147Y0128445D01*
X0164948Y0125644D01*
X0164948Y0092031D01*
X0165344Y0091075D01*
X0166075Y0090344D01*
X0169894Y0086525D01*
X0170850Y0086129D01*
X0192787Y0086129D01*
X0192787Y0084984D01*
X0193842Y0083929D01*
X0201333Y0083929D01*
X0202387Y0084984D01*
X0202387Y0092475D01*
X0202387Y0091080D02*
X0203150Y0091080D01*
X0202787Y0089481D02*
X0202387Y0089481D01*
X0202387Y0087883D02*
X0202787Y0087883D01*
X0202387Y0086284D02*
X0203244Y0086284D01*
X0202089Y0084686D02*
X0204843Y0084686D01*
X0205157Y0083087D02*
X0199717Y0083087D01*
X0199488Y0083317D02*
X0197787Y0083317D01*
X0197787Y0078929D01*
X0197387Y0078929D01*
X0197387Y0078529D01*
X0193000Y0078529D01*
X0193000Y0076829D01*
X0195687Y0074142D01*
X0197387Y0074142D01*
X0197387Y0078529D01*
X0197787Y0078529D01*
X0197787Y0074142D01*
X0199488Y0074142D01*
X0202175Y0076829D01*
X0202175Y0078529D01*
X0197787Y0078529D01*
X0197787Y0078929D01*
X0202175Y0078929D01*
X0202175Y0080629D01*
X0199488Y0083317D01*
X0197787Y0083087D02*
X0197387Y0083087D01*
X0197387Y0083317D02*
X0195687Y0083317D01*
X0193000Y0080629D01*
X0193000Y0078929D01*
X0197387Y0078929D01*
X0197387Y0083317D01*
X0197387Y0081488D02*
X0197787Y0081488D01*
X0197787Y0079890D02*
X0197387Y0079890D01*
X0197387Y0078291D02*
X0197787Y0078291D01*
X0197787Y0076693D02*
X0197387Y0076693D01*
X0197387Y0075094D02*
X0197787Y0075094D01*
X0197387Y0073317D02*
X0195687Y0073317D01*
X0193000Y0070629D01*
X0193000Y0068929D01*
X0197387Y0068929D01*
X0197387Y0073317D01*
X0197387Y0071897D02*
X0197787Y0071897D01*
X0197787Y0070299D02*
X0197387Y0070299D01*
X0197387Y0068700D02*
X0095297Y0068700D01*
X0093697Y0070299D02*
X0193000Y0070299D01*
X0194268Y0071897D02*
X0082248Y0071897D01*
X0082248Y0070299D02*
X0091399Y0070299D01*
X0089799Y0068700D02*
X0082248Y0068700D01*
X0082248Y0067102D02*
X0089567Y0067102D01*
X0090377Y0065503D02*
X0088203Y0065503D01*
X0086893Y0065503D02*
X0082248Y0065503D01*
X0082248Y0063905D02*
X0084883Y0063905D01*
X0084567Y0062306D02*
X0082248Y0062306D01*
X0082248Y0060708D02*
X0085172Y0060708D01*
X0087875Y0059109D02*
X0082248Y0059109D01*
X0082248Y0057511D02*
X0089474Y0057511D01*
X0090901Y0062306D02*
X0131840Y0062306D01*
X0135756Y0062306D02*
X0148428Y0062306D01*
X0149999Y0060708D02*
X0150027Y0060708D01*
X0151598Y0059109D02*
X0154748Y0059109D01*
X0156319Y0060708D02*
X0156347Y0060708D01*
X0157774Y0055912D02*
X0157801Y0055912D01*
X0156203Y0054314D02*
X0156175Y0054314D01*
X0159228Y0051117D02*
X0180868Y0051117D01*
X0182294Y0049518D02*
X0182467Y0049518D01*
X0183029Y0047920D02*
X0184065Y0047920D01*
X0184386Y0046321D02*
X0185664Y0046321D01*
X0185985Y0044723D02*
X0187067Y0044723D01*
X0187583Y0043124D02*
X0187756Y0043124D01*
X0189182Y0041526D02*
X0190459Y0041526D01*
X0190780Y0039927D02*
X0194700Y0039927D01*
X0194518Y0038329D02*
X0192379Y0038329D01*
X0187755Y0036730D02*
X0186477Y0036730D01*
X0186156Y0038329D02*
X0184879Y0038329D01*
X0184558Y0039927D02*
X0183280Y0039927D01*
X0182959Y0041526D02*
X0181682Y0041526D01*
X0181361Y0043124D02*
X0180083Y0043124D01*
X0179079Y0044723D02*
X0178485Y0044723D01*
X0177058Y0039927D02*
X0160538Y0039927D01*
X0157138Y0038329D02*
X0178656Y0038329D01*
X0180255Y0036730D02*
X0157584Y0036730D01*
X0157584Y0035132D02*
X0181853Y0035132D01*
X0183452Y0033533D02*
X0157584Y0033533D01*
X0157584Y0031935D02*
X0185050Y0031935D01*
X0186649Y0030336D02*
X0157584Y0030336D01*
X0157334Y0028738D02*
X0188247Y0028738D01*
X0189846Y0027139D02*
X0156416Y0027139D01*
X0153847Y0025541D02*
X0191444Y0025541D01*
X0192871Y0030336D02*
X0194630Y0030336D01*
X0194551Y0031935D02*
X0191273Y0031935D01*
X0190952Y0033533D02*
X0189674Y0033533D01*
X0189353Y0035132D02*
X0188076Y0035132D01*
X0192747Y0046321D02*
X0193508Y0046321D01*
X0193000Y0047920D02*
X0190905Y0047920D01*
X0193000Y0049518D02*
X0188689Y0049518D01*
X0187091Y0051117D02*
X0193487Y0051117D01*
X0193000Y0057511D02*
X0188197Y0057511D01*
X0187628Y0059109D02*
X0193000Y0059109D01*
X0193079Y0060708D02*
X0184999Y0060708D01*
X0182499Y0055912D02*
X0182295Y0055912D01*
X0183894Y0054314D02*
X0185171Y0054314D01*
X0185492Y0052715D02*
X0186770Y0052715D01*
X0193000Y0067102D02*
X0177355Y0067102D01*
X0172741Y0067102D02*
X0149855Y0067102D01*
X0151454Y0065503D02*
X0153143Y0065503D01*
X0154453Y0065503D02*
X0154892Y0065503D01*
X0146830Y0063905D02*
X0090213Y0063905D01*
X0077848Y0063905D02*
X0075929Y0063905D01*
X0075929Y0065503D02*
X0077848Y0065503D01*
X0077848Y0067102D02*
X0075929Y0067102D01*
X0075929Y0067763D02*
X0077848Y0069682D01*
X0077848Y0056862D01*
X0077548Y0056862D01*
X0077246Y0056862D01*
X0076654Y0056744D01*
X0076097Y0056513D01*
X0075929Y0056401D01*
X0075929Y0067763D01*
X0076867Y0068700D02*
X0077848Y0068700D01*
X0071529Y0067763D02*
X0071529Y0055211D01*
X0071513Y0055249D01*
X0071178Y0055751D01*
X0070751Y0056178D01*
X0070249Y0056513D01*
X0069692Y0056744D01*
X0069100Y0056862D01*
X0068798Y0056862D01*
X0068496Y0056862D01*
X0067904Y0056744D01*
X0067347Y0056513D01*
X0066845Y0056178D01*
X0066418Y0055751D01*
X0066083Y0055249D01*
X0065929Y0054878D01*
X0065929Y0067763D01*
X0068529Y0070363D01*
X0068529Y0074339D01*
X0067678Y0075191D01*
X0069680Y0075191D01*
X0072040Y0077551D01*
X0075717Y0077551D01*
X0077848Y0079682D01*
X0077848Y0075020D01*
X0075717Y0077151D01*
X0071741Y0077151D01*
X0068929Y0074339D01*
X0068929Y0070363D01*
X0071529Y0067763D01*
X0071529Y0067102D02*
X0065929Y0067102D01*
X0065929Y0065503D02*
X0071529Y0065503D01*
X0071529Y0063905D02*
X0065929Y0063905D01*
X0065929Y0062306D02*
X0071529Y0062306D01*
X0071529Y0060708D02*
X0065929Y0060708D01*
X0065929Y0059109D02*
X0071529Y0059109D01*
X0071529Y0057511D02*
X0065929Y0057511D01*
X0065929Y0055912D02*
X0066579Y0055912D01*
X0068798Y0055912D02*
X0068798Y0055912D01*
X0068798Y0056862D02*
X0068798Y0053798D01*
X0068798Y0053798D01*
X0068798Y0056862D01*
X0071017Y0055912D02*
X0071529Y0055912D01*
X0068798Y0054314D02*
X0068798Y0054314D01*
X0068798Y0052715D02*
X0068798Y0052715D01*
X0068798Y0051117D02*
X0068798Y0051117D01*
X0067296Y0051117D02*
X0065929Y0051117D01*
X0065929Y0052715D02*
X0065930Y0052715D01*
X0070300Y0051117D02*
X0071529Y0051117D01*
X0072467Y0049518D02*
X0065929Y0049518D01*
X0065929Y0047920D02*
X0074065Y0047920D01*
X0075664Y0046321D02*
X0066886Y0046321D01*
X0061529Y0047920D02*
X0019348Y0047920D01*
X0019348Y0049518D02*
X0061529Y0049518D01*
X0061529Y0051117D02*
X0019348Y0051117D01*
X0019348Y0052715D02*
X0061529Y0052715D01*
X0061529Y0054314D02*
X0019348Y0054314D01*
X0019348Y0055912D02*
X0061529Y0055912D01*
X0061529Y0057511D02*
X0019348Y0057511D01*
X0019348Y0059109D02*
X0061529Y0059109D01*
X0061529Y0060708D02*
X0019348Y0060708D01*
X0019348Y0062306D02*
X0061529Y0062306D01*
X0061529Y0063905D02*
X0053449Y0063905D01*
X0054907Y0065503D02*
X0061529Y0065503D01*
X0061529Y0067102D02*
X0055253Y0067102D01*
X0056851Y0068700D02*
X0060592Y0068700D01*
X0058993Y0070299D02*
X0058450Y0070299D01*
X0066867Y0068700D02*
X0070592Y0068700D01*
X0068993Y0070299D02*
X0068465Y0070299D01*
X0068529Y0071897D02*
X0068929Y0071897D01*
X0068929Y0073496D02*
X0068529Y0073496D01*
X0067774Y0075094D02*
X0069684Y0075094D01*
X0071182Y0076693D02*
X0071283Y0076693D01*
X0076176Y0076693D02*
X0077848Y0076693D01*
X0077848Y0078291D02*
X0076458Y0078291D01*
X0077774Y0075094D02*
X0077848Y0075094D01*
X0082248Y0075094D02*
X0112230Y0075094D01*
X0112333Y0074847D02*
X0112668Y0074345D01*
X0113095Y0073918D01*
X0113597Y0073583D01*
X0114154Y0073352D01*
X0114746Y0073234D01*
X0115048Y0073234D01*
X0115048Y0076298D01*
X0115048Y0076298D01*
X0111984Y0076298D01*
X0111984Y0075996D01*
X0112102Y0075404D01*
X0112333Y0074847D01*
X0111984Y0076298D02*
X0115048Y0076298D01*
X0115048Y0076298D01*
X0115048Y0073234D01*
X0115350Y0073234D01*
X0115942Y0073352D01*
X0116499Y0073583D01*
X0117001Y0073918D01*
X0117428Y0074345D01*
X0117763Y0074847D01*
X0117994Y0075404D01*
X0118112Y0075996D01*
X0118112Y0076298D01*
X0115048Y0076298D01*
X0115048Y0076298D01*
X0115048Y0079362D01*
X0114746Y0079362D01*
X0114154Y0079244D01*
X0113597Y0079013D01*
X0113095Y0078678D01*
X0112668Y0078251D01*
X0112333Y0077749D01*
X0112102Y0077192D01*
X0111984Y0076600D01*
X0111984Y0076298D01*
X0112003Y0076693D02*
X0082248Y0076693D01*
X0082248Y0078291D02*
X0112709Y0078291D01*
X0115048Y0078291D02*
X0115048Y0078291D01*
X0115048Y0079362D02*
X0115350Y0079362D01*
X0115942Y0079244D01*
X0116499Y0079013D01*
X0117001Y0078678D01*
X0117428Y0078251D01*
X0117763Y0077749D01*
X0117994Y0077192D01*
X0118112Y0076600D01*
X0118112Y0076298D01*
X0115048Y0076298D01*
X0115048Y0076298D01*
X0115048Y0079362D01*
X0117387Y0078291D02*
X0137709Y0078291D01*
X0137668Y0078251D02*
X0137333Y0077749D01*
X0137102Y0077192D01*
X0136984Y0076600D01*
X0136984Y0076298D01*
X0136984Y0075996D01*
X0137102Y0075404D01*
X0137333Y0074847D01*
X0137668Y0074345D01*
X0138095Y0073918D01*
X0138597Y0073583D01*
X0139154Y0073352D01*
X0139746Y0073234D01*
X0140048Y0073234D01*
X0140048Y0076298D01*
X0140048Y0076298D01*
X0136984Y0076298D01*
X0140048Y0076298D01*
X0140048Y0076298D01*
X0140048Y0073234D01*
X0140350Y0073234D01*
X0140942Y0073352D01*
X0141499Y0073583D01*
X0142001Y0073918D01*
X0142428Y0074345D01*
X0142763Y0074847D01*
X0142994Y0075404D01*
X0143112Y0075996D01*
X0143112Y0076298D01*
X0140048Y0076298D01*
X0140048Y0076298D01*
X0140048Y0079362D01*
X0139746Y0079362D01*
X0139154Y0079244D01*
X0138597Y0079013D01*
X0138095Y0078678D01*
X0137668Y0078251D01*
X0137003Y0076693D02*
X0118093Y0076693D01*
X0117866Y0075094D02*
X0137230Y0075094D01*
X0138807Y0073496D02*
X0116289Y0073496D01*
X0115048Y0073496D02*
X0115048Y0073496D01*
X0113807Y0073496D02*
X0082248Y0073496D01*
X0082248Y0079890D02*
X0193000Y0079890D01*
X0193000Y0078291D02*
X0142387Y0078291D01*
X0142428Y0078251D02*
X0142001Y0078678D01*
X0141499Y0079013D01*
X0140942Y0079244D01*
X0140350Y0079362D01*
X0140048Y0079362D01*
X0140048Y0076298D01*
X0140048Y0076298D01*
X0143112Y0076298D01*
X0143112Y0076600D01*
X0142994Y0077192D01*
X0142763Y0077749D01*
X0142428Y0078251D01*
X0143093Y0076693D02*
X0193136Y0076693D01*
X0194735Y0075094D02*
X0142866Y0075094D01*
X0141289Y0073496D02*
X0200348Y0073496D01*
X0200440Y0075094D02*
X0200841Y0075094D01*
X0202039Y0076693D02*
X0202440Y0076693D01*
X0202175Y0078291D02*
X0202787Y0078291D01*
X0202787Y0079890D02*
X0202175Y0079890D01*
X0201316Y0081488D02*
X0203559Y0081488D01*
X0195458Y0083087D02*
X0129920Y0083087D01*
X0129928Y0083095D02*
X0130263Y0083597D01*
X0130494Y0084154D01*
X0130612Y0084746D01*
X0130612Y0085048D01*
X0127548Y0085048D01*
X0127548Y0085048D01*
X0127548Y0081984D01*
X0127246Y0081984D01*
X0126654Y0082102D01*
X0126097Y0082333D01*
X0125595Y0082668D01*
X0125168Y0083095D01*
X0124833Y0083597D01*
X0124602Y0084154D01*
X0124484Y0084746D01*
X0124484Y0085048D01*
X0127548Y0085048D01*
X0127548Y0085048D01*
X0127548Y0081984D01*
X0127850Y0081984D01*
X0128442Y0082102D01*
X0128999Y0082333D01*
X0129501Y0082668D01*
X0129928Y0083095D01*
X0130600Y0084686D02*
X0193085Y0084686D01*
X0193859Y0081488D02*
X0082248Y0081488D01*
X0082248Y0083087D02*
X0125176Y0083087D01*
X0124496Y0084686D02*
X0082248Y0084686D01*
X0082248Y0086284D02*
X0124744Y0086284D01*
X0124833Y0086499D02*
X0124602Y0085942D01*
X0124484Y0085350D01*
X0124484Y0085048D01*
X0127548Y0085048D01*
X0127548Y0085048D01*
X0127548Y0088112D01*
X0127246Y0088112D01*
X0126654Y0087994D01*
X0126097Y0087763D01*
X0125595Y0087428D01*
X0125168Y0087001D01*
X0124833Y0086499D01*
X0126385Y0087883D02*
X0081309Y0087883D01*
X0079711Y0089481D02*
X0166938Y0089481D01*
X0165342Y0091080D02*
X0078529Y0091080D01*
X0078529Y0092678D02*
X0164948Y0092678D01*
X0164948Y0094277D02*
X0078529Y0094277D01*
X0076993Y0095875D02*
X0164948Y0095875D01*
X0164948Y0097474D02*
X0062284Y0097474D01*
X0058127Y0094277D02*
X0053821Y0094277D01*
X0054907Y0095875D02*
X0056528Y0095875D01*
X0054930Y0097474D02*
X0054907Y0097474D01*
X0052222Y0092678D02*
X0058929Y0092678D01*
X0058929Y0091080D02*
X0053167Y0091080D01*
X0047992Y0092678D02*
X0042222Y0092678D01*
X0042095Y0092551D02*
X0044907Y0095363D01*
X0044907Y0099339D01*
X0042095Y0102151D01*
X0038119Y0102151D01*
X0035307Y0099339D01*
X0035307Y0095363D01*
X0038119Y0092551D01*
X0042095Y0092551D01*
X0042095Y0092151D02*
X0038119Y0092151D01*
X0035307Y0089339D01*
X0035307Y0085363D01*
X0038119Y0082551D01*
X0042095Y0082551D01*
X0044907Y0085363D01*
X0044907Y0089339D01*
X0042095Y0092151D01*
X0043167Y0091080D02*
X0047047Y0091080D01*
X0045449Y0089481D02*
X0044765Y0089481D01*
X0044907Y0087883D02*
X0045307Y0087883D01*
X0045307Y0086284D02*
X0044907Y0086284D01*
X0044230Y0084686D02*
X0045985Y0084686D01*
X0047583Y0083087D02*
X0042631Y0083087D01*
X0042095Y0082151D02*
X0038119Y0082151D01*
X0035307Y0079339D01*
X0035307Y0075363D01*
X0038119Y0072551D01*
X0042095Y0072551D01*
X0044907Y0075363D01*
X0044907Y0079339D01*
X0042095Y0082151D01*
X0042758Y0081488D02*
X0047456Y0081488D01*
X0045858Y0079890D02*
X0044356Y0079890D01*
X0044907Y0078291D02*
X0045307Y0078291D01*
X0045307Y0076693D02*
X0044907Y0076693D01*
X0044639Y0075094D02*
X0045576Y0075094D01*
X0043141Y0073496D02*
X0043040Y0073496D01*
X0044907Y0068700D02*
X0045307Y0068700D01*
X0045307Y0067102D02*
X0044907Y0067102D01*
X0044907Y0065503D02*
X0045307Y0065503D01*
X0046765Y0063905D02*
X0043449Y0063905D01*
X0036765Y0063905D02*
X0019348Y0063905D01*
X0019348Y0065503D02*
X0035307Y0065503D01*
X0035307Y0067102D02*
X0019348Y0067102D01*
X0019348Y0068700D02*
X0035307Y0068700D01*
X0036267Y0070299D02*
X0019348Y0070299D01*
X0019348Y0071897D02*
X0037865Y0071897D01*
X0037174Y0073496D02*
X0019348Y0073496D01*
X0019348Y0075094D02*
X0035576Y0075094D01*
X0035307Y0076693D02*
X0019348Y0076693D01*
X0019348Y0078291D02*
X0035307Y0078291D01*
X0035858Y0079890D02*
X0019348Y0079890D01*
X0019348Y0081488D02*
X0037456Y0081488D01*
X0037583Y0083087D02*
X0019348Y0083087D01*
X0019348Y0084686D02*
X0035985Y0084686D01*
X0035307Y0086284D02*
X0019348Y0086284D01*
X0019348Y0087883D02*
X0035307Y0087883D01*
X0035449Y0089481D02*
X0019348Y0089481D01*
X0019348Y0091080D02*
X0037047Y0091080D01*
X0037992Y0092678D02*
X0019348Y0092678D01*
X0019348Y0094277D02*
X0036393Y0094277D01*
X0035307Y0095875D02*
X0019348Y0095875D01*
X0019348Y0097474D02*
X0035307Y0097474D01*
X0035307Y0099072D02*
X0019348Y0099072D01*
X0019348Y0100671D02*
X0036638Y0100671D01*
X0038119Y0102551D02*
X0042095Y0102551D01*
X0044907Y0105363D01*
X0044907Y0109339D01*
X0042095Y0112151D01*
X0038119Y0112151D01*
X0035307Y0109339D01*
X0035307Y0105363D01*
X0038119Y0102551D01*
X0036802Y0103868D02*
X0019348Y0103868D01*
X0019348Y0105466D02*
X0035307Y0105466D01*
X0035307Y0107065D02*
X0019348Y0107065D01*
X0019348Y0108663D02*
X0035307Y0108663D01*
X0036229Y0110262D02*
X0019348Y0110262D01*
X0019348Y0111860D02*
X0037828Y0111860D01*
X0036898Y0112764D02*
X0039907Y0112764D01*
X0039907Y0117151D01*
X0040307Y0117151D01*
X0040307Y0112764D01*
X0043316Y0112764D01*
X0043720Y0112872D01*
X0044082Y0113081D01*
X0044377Y0113376D01*
X0044586Y0113738D01*
X0044694Y0114142D01*
X0044694Y0117151D01*
X0040307Y0117151D01*
X0040307Y0117551D01*
X0044694Y0117551D01*
X0044694Y0120560D01*
X0044586Y0120964D01*
X0044377Y0121326D01*
X0044082Y0121621D01*
X0043720Y0121830D01*
X0043316Y0121939D01*
X0040307Y0121939D01*
X0040307Y0117551D01*
X0039907Y0117551D01*
X0039907Y0117151D01*
X0035520Y0117151D01*
X0035520Y0114142D01*
X0035628Y0113738D01*
X0035837Y0113376D01*
X0036132Y0113081D01*
X0036494Y0112872D01*
X0036898Y0112764D01*
X0035789Y0113459D02*
X0019348Y0113459D01*
X0019348Y0115057D02*
X0035520Y0115057D01*
X0035520Y0116656D02*
X0019348Y0116656D01*
X0019348Y0118254D02*
X0035520Y0118254D01*
X0035520Y0117551D02*
X0039907Y0117551D01*
X0039907Y0121939D01*
X0036898Y0121939D01*
X0036494Y0121830D01*
X0036132Y0121621D01*
X0035837Y0121326D01*
X0035628Y0120964D01*
X0035520Y0120560D01*
X0035520Y0117551D01*
X0035520Y0119853D02*
X0019348Y0119853D01*
X0019348Y0121451D02*
X0035962Y0121451D01*
X0039907Y0121451D02*
X0040307Y0121451D01*
X0040307Y0119853D02*
X0039907Y0119853D01*
X0039907Y0118254D02*
X0040307Y0118254D01*
X0040307Y0116656D02*
X0039907Y0116656D01*
X0039907Y0115057D02*
X0040307Y0115057D01*
X0040307Y0113459D02*
X0039907Y0113459D01*
X0042386Y0111860D02*
X0047828Y0111860D01*
X0047211Y0113459D02*
X0044425Y0113459D01*
X0044694Y0115057D02*
X0045613Y0115057D01*
X0045307Y0116656D02*
X0044694Y0116656D01*
X0044694Y0118254D02*
X0045307Y0118254D01*
X0045820Y0119853D02*
X0044694Y0119853D01*
X0044252Y0121451D02*
X0047419Y0121451D01*
X0052795Y0121451D02*
X0071129Y0121451D01*
X0071129Y0119853D02*
X0054394Y0119853D01*
X0054907Y0118254D02*
X0071129Y0118254D01*
X0071129Y0116656D02*
X0067644Y0116656D01*
X0068317Y0115057D02*
X0069647Y0115057D01*
X0068929Y0113459D02*
X0068317Y0113459D01*
X0068317Y0111860D02*
X0068929Y0111860D01*
X0069030Y0110262D02*
X0068317Y0110262D01*
X0068926Y0107548D02*
X0106485Y0107548D01*
X0122784Y0123847D01*
X0127548Y0119083D01*
X0127548Y0112548D01*
X0132548Y0107548D01*
X0135048Y0107548D01*
X0138132Y0108663D02*
X0164948Y0108663D01*
X0164948Y0107065D02*
X0138324Y0107065D01*
X0137600Y0105466D02*
X0164948Y0105466D01*
X0164948Y0103868D02*
X0078529Y0103868D01*
X0078529Y0102269D02*
X0164948Y0102269D01*
X0164948Y0100671D02*
X0078529Y0100671D01*
X0077238Y0099072D02*
X0164948Y0099072D01*
X0170148Y0099072D02*
X0189308Y0099072D01*
X0189609Y0098771D02*
X0190705Y0098317D01*
X0191891Y0098317D01*
X0192987Y0098771D01*
X0193825Y0099609D01*
X0194131Y0100348D01*
X0203459Y0100348D01*
X0208221Y0105110D01*
X0209576Y0105110D01*
X0212387Y0107922D01*
X0212387Y0111898D01*
X0209576Y0114710D01*
X0205599Y0114710D01*
X0202787Y0111898D01*
X0202787Y0107922D01*
X0203799Y0106910D01*
X0201637Y0104748D01*
X0191637Y0104748D01*
X0191168Y0104279D01*
X0190705Y0104279D01*
X0189609Y0103825D01*
X0188771Y0102987D01*
X0188317Y0101891D01*
X0188317Y0100705D01*
X0188771Y0099609D01*
X0189609Y0098771D01*
X0188331Y0100671D02*
X0170148Y0100671D01*
X0170148Y0102269D02*
X0188474Y0102269D01*
X0189712Y0103868D02*
X0170148Y0103868D01*
X0170148Y0105466D02*
X0195544Y0105466D01*
X0195687Y0105323D02*
X0193000Y0108010D01*
X0193000Y0109710D01*
X0197387Y0109710D01*
X0197387Y0110110D01*
X0193000Y0110110D01*
X0193000Y0111810D01*
X0194038Y0112848D01*
X0189131Y0112848D01*
X0188825Y0112109D01*
X0187987Y0111271D01*
X0186891Y0110817D01*
X0185705Y0110817D01*
X0184609Y0111271D01*
X0183771Y0112109D01*
X0183317Y0113205D01*
X0183317Y0114391D01*
X0183771Y0115487D01*
X0184609Y0116325D01*
X0185705Y0116779D01*
X0186168Y0116779D01*
X0186637Y0117248D01*
X0193461Y0117248D01*
X0192787Y0117922D01*
X0192787Y0121898D01*
X0193737Y0122848D01*
X0179131Y0122848D01*
X0178825Y0122109D01*
X0177987Y0121271D01*
X0176891Y0120817D01*
X0175705Y0120817D01*
X0174609Y0121271D01*
X0173771Y0122109D01*
X0173317Y0123205D01*
X0173317Y0124391D01*
X0173771Y0125487D01*
X0174609Y0126325D01*
X0175705Y0126779D01*
X0176168Y0126779D01*
X0176637Y0127248D01*
X0192787Y0127248D01*
X0192787Y0133656D01*
X0193842Y0134710D01*
X0201333Y0134710D01*
X0202387Y0133656D01*
X0202387Y0127821D01*
X0202787Y0128221D01*
X0202787Y0131898D01*
X0205599Y0134710D01*
X0209576Y0134710D01*
X0212387Y0131898D01*
X0212387Y0127922D01*
X0209576Y0125110D01*
X0205899Y0125110D01*
X0203636Y0122848D01*
X0201438Y0122848D01*
X0202387Y0121898D01*
X0202387Y0117922D01*
X0201713Y0117248D01*
X0201814Y0117248D01*
X0202787Y0118221D01*
X0202787Y0121898D01*
X0205599Y0124710D01*
X0209576Y0124710D01*
X0212387Y0121898D01*
X0212387Y0117922D01*
X0209576Y0115110D01*
X0205899Y0115110D01*
X0203636Y0112848D01*
X0201137Y0112848D01*
X0202175Y0111810D01*
X0202175Y0110110D01*
X0197787Y0110110D01*
X0197787Y0109710D01*
X0197787Y0105323D01*
X0199488Y0105323D01*
X0202175Y0108010D01*
X0202175Y0109710D01*
X0197787Y0109710D01*
X0197387Y0109710D01*
X0197387Y0105323D01*
X0195687Y0105323D01*
X0197387Y0105466D02*
X0197787Y0105466D01*
X0197787Y0107065D02*
X0197387Y0107065D01*
X0197387Y0108663D02*
X0197787Y0108663D01*
X0193945Y0107065D02*
X0170148Y0107065D01*
X0170148Y0108663D02*
X0193000Y0108663D01*
X0193000Y0110262D02*
X0170148Y0110262D01*
X0170148Y0111860D02*
X0184020Y0111860D01*
X0183317Y0113459D02*
X0170148Y0113459D01*
X0170148Y0115057D02*
X0183593Y0115057D01*
X0185407Y0116656D02*
X0170148Y0116656D01*
X0170148Y0118254D02*
X0192787Y0118254D01*
X0192787Y0119853D02*
X0170148Y0119853D01*
X0170148Y0121451D02*
X0174429Y0121451D01*
X0173381Y0123050D02*
X0170148Y0123050D01*
X0170148Y0124648D02*
X0173423Y0124648D01*
X0174531Y0126247D02*
X0170148Y0126247D01*
X0169897Y0127845D02*
X0192787Y0127845D01*
X0192787Y0129444D02*
X0168502Y0129444D01*
X0166904Y0131042D02*
X0192787Y0131042D01*
X0192787Y0132641D02*
X0165713Y0132641D01*
X0164663Y0134239D02*
X0193371Y0134239D01*
X0201804Y0134239D02*
X0205128Y0134239D01*
X0203530Y0132641D02*
X0202387Y0132641D01*
X0202387Y0131042D02*
X0202787Y0131042D01*
X0202787Y0129444D02*
X0202387Y0129444D01*
X0202387Y0127845D02*
X0202411Y0127845D01*
X0205437Y0124648D02*
X0205537Y0124648D01*
X0203939Y0123050D02*
X0203838Y0123050D01*
X0202787Y0121451D02*
X0202387Y0121451D01*
X0202387Y0119853D02*
X0202787Y0119853D01*
X0202787Y0118254D02*
X0202387Y0118254D01*
X0205846Y0115057D02*
X0251969Y0115057D01*
X0251969Y0113459D02*
X0210827Y0113459D01*
X0212387Y0111860D02*
X0251969Y0111860D01*
X0251969Y0110262D02*
X0212387Y0110262D01*
X0212387Y0108663D02*
X0251969Y0108663D01*
X0251969Y0107065D02*
X0211530Y0107065D01*
X0209932Y0105466D02*
X0251969Y0105466D01*
X0251969Y0103868D02*
X0206979Y0103868D01*
X0205380Y0102269D02*
X0251969Y0102269D01*
X0251969Y0100671D02*
X0203782Y0100671D01*
X0202355Y0105466D02*
X0199631Y0105466D01*
X0201229Y0107065D02*
X0203645Y0107065D01*
X0202787Y0108663D02*
X0202175Y0108663D01*
X0202175Y0110262D02*
X0202787Y0110262D01*
X0202787Y0111860D02*
X0202125Y0111860D01*
X0204247Y0113459D02*
X0204348Y0113459D01*
X0211121Y0116656D02*
X0251969Y0116656D01*
X0251969Y0118254D02*
X0212387Y0118254D01*
X0212387Y0119853D02*
X0251969Y0119853D01*
X0251969Y0121451D02*
X0212387Y0121451D01*
X0211236Y0123050D02*
X0251969Y0123050D01*
X0251969Y0124648D02*
X0209638Y0124648D01*
X0210712Y0126247D02*
X0251969Y0126247D01*
X0251969Y0127845D02*
X0212311Y0127845D01*
X0212387Y0129444D02*
X0251969Y0129444D01*
X0251969Y0131042D02*
X0212387Y0131042D01*
X0211645Y0132641D02*
X0251969Y0132641D01*
X0251969Y0134239D02*
X0241235Y0134239D01*
X0239812Y0133858D02*
X0243274Y0134786D01*
X0246378Y0136578D01*
X0248912Y0139112D01*
X0250704Y0142216D01*
X0251631Y0145677D01*
X0251631Y0149261D01*
X0250704Y0152723D01*
X0248912Y0155827D01*
X0246378Y0158361D01*
X0243274Y0160153D01*
X0239812Y0161080D01*
X0236229Y0161080D01*
X0232767Y0160153D01*
X0229663Y0158361D01*
X0227129Y0155827D01*
X0225337Y0152723D01*
X0224409Y0149261D01*
X0224409Y0145677D01*
X0225337Y0142216D01*
X0227129Y0139112D01*
X0229663Y0136578D01*
X0232767Y0134786D01*
X0236229Y0133858D01*
X0239812Y0133858D01*
X0234806Y0134239D02*
X0210046Y0134239D01*
X0220683Y0142232D02*
X0225333Y0142232D01*
X0224904Y0143830D02*
X0222810Y0143830D01*
X0223199Y0144220D02*
X0223199Y0144220D01*
X0223700Y0145429D02*
X0224476Y0145429D01*
X0224409Y0147027D02*
X0224072Y0147027D01*
X0224148Y0148626D02*
X0224409Y0148626D01*
X0224442Y0150224D02*
X0224668Y0150224D01*
X0224870Y0151823D02*
X0225096Y0151823D01*
X0225489Y0153421D02*
X0225740Y0153421D01*
X0226412Y0155020D02*
X0226663Y0155020D01*
X0227613Y0156619D02*
X0227921Y0156619D01*
X0229211Y0158217D02*
X0229519Y0158217D01*
X0231747Y0159816D02*
X0232183Y0159816D01*
X0237971Y0161414D02*
X0238070Y0161414D01*
X0243858Y0159816D02*
X0244294Y0159816D01*
X0246522Y0158217D02*
X0246829Y0158217D01*
X0248120Y0156619D02*
X0248428Y0156619D01*
X0249378Y0155020D02*
X0249629Y0155020D01*
X0250301Y0153421D02*
X0250552Y0153421D01*
X0250945Y0151823D02*
X0251170Y0151823D01*
X0251373Y0150224D02*
X0251599Y0150224D01*
X0251631Y0148626D02*
X0251893Y0148626D01*
X0251969Y0147027D02*
X0251631Y0147027D01*
X0251565Y0145429D02*
X0251969Y0145429D01*
X0251969Y0143830D02*
X0251137Y0143830D01*
X0250708Y0142232D02*
X0251969Y0142232D01*
X0251969Y0140633D02*
X0249790Y0140633D01*
X0248835Y0139035D02*
X0251969Y0139035D01*
X0251969Y0137436D02*
X0247236Y0137436D01*
X0245096Y0135838D02*
X0251969Y0135838D01*
X0230945Y0135838D02*
X0137582Y0135838D01*
X0137584Y0135835D02*
X0134772Y0138647D01*
X0130796Y0138647D01*
X0127984Y0135835D01*
X0127984Y0131859D01*
X0130796Y0129047D01*
X0134772Y0129047D01*
X0137584Y0131859D01*
X0137584Y0135835D01*
X0137584Y0134239D02*
X0160433Y0134239D01*
X0159383Y0132641D02*
X0137584Y0132641D01*
X0136768Y0131042D02*
X0159283Y0131042D01*
X0160192Y0129444D02*
X0135169Y0129444D01*
X0135574Y0127845D02*
X0162747Y0127845D01*
X0164346Y0126247D02*
X0137173Y0126247D01*
X0137584Y0124648D02*
X0164948Y0124648D01*
X0164948Y0123050D02*
X0137584Y0123050D01*
X0137176Y0121451D02*
X0164948Y0121451D01*
X0164948Y0119853D02*
X0135578Y0119853D01*
X0135165Y0118254D02*
X0164948Y0118254D01*
X0164948Y0116656D02*
X0136764Y0116656D01*
X0137584Y0115057D02*
X0164948Y0115057D01*
X0164948Y0113459D02*
X0137584Y0113459D01*
X0137584Y0111860D02*
X0164948Y0111860D01*
X0164948Y0110262D02*
X0136968Y0110262D01*
X0130953Y0105466D02*
X0109037Y0105466D01*
X0109761Y0107065D02*
X0129354Y0107065D01*
X0127756Y0108663D02*
X0111277Y0108663D01*
X0112876Y0110262D02*
X0119582Y0110262D01*
X0117984Y0111860D02*
X0114474Y0111860D01*
X0116073Y0113459D02*
X0117984Y0113459D01*
X0117984Y0115057D02*
X0117671Y0115057D01*
X0113514Y0118254D02*
X0076329Y0118254D01*
X0076329Y0116656D02*
X0111916Y0116656D01*
X0110317Y0115057D02*
X0077811Y0115057D01*
X0078529Y0113459D02*
X0108719Y0113459D01*
X0107120Y0111860D02*
X0078529Y0111860D01*
X0078428Y0110262D02*
X0104565Y0110262D01*
X0115113Y0119853D02*
X0076329Y0119853D01*
X0076329Y0121451D02*
X0116711Y0121451D01*
X0117984Y0123050D02*
X0076329Y0123050D01*
X0076329Y0124648D02*
X0117984Y0124648D01*
X0118396Y0126247D02*
X0076329Y0126247D01*
X0076522Y0127845D02*
X0119994Y0127845D01*
X0118642Y0129444D02*
X0078121Y0129444D01*
X0079719Y0131042D02*
X0117984Y0131042D01*
X0117984Y0132641D02*
X0081318Y0132641D01*
X0082916Y0134239D02*
X0117984Y0134239D01*
X0119083Y0137548D02*
X0122784Y0133847D01*
X0127584Y0134239D02*
X0127984Y0134239D01*
X0127984Y0132641D02*
X0127584Y0132641D01*
X0127584Y0131042D02*
X0128801Y0131042D01*
X0130399Y0129444D02*
X0126926Y0129444D01*
X0125574Y0127845D02*
X0129994Y0127845D01*
X0128396Y0126247D02*
X0127173Y0126247D01*
X0127584Y0124648D02*
X0127984Y0124648D01*
X0127984Y0123050D02*
X0127584Y0123050D01*
X0130148Y0118254D02*
X0130403Y0118254D01*
X0126157Y0110262D02*
X0125987Y0110262D01*
X0127548Y0088112D02*
X0127850Y0088112D01*
X0128442Y0087994D01*
X0128999Y0087763D01*
X0129501Y0087428D01*
X0129928Y0087001D01*
X0130263Y0086499D01*
X0130494Y0085942D01*
X0130612Y0085350D01*
X0130612Y0085048D01*
X0127548Y0085048D01*
X0127548Y0085048D01*
X0127548Y0088112D01*
X0127548Y0087883D02*
X0127548Y0087883D01*
X0128711Y0087883D02*
X0168537Y0087883D01*
X0170476Y0086284D02*
X0130352Y0086284D01*
X0127548Y0086284D02*
X0127548Y0086284D01*
X0127548Y0084686D02*
X0127548Y0084686D01*
X0127548Y0083087D02*
X0127548Y0083087D01*
X0115048Y0076693D02*
X0115048Y0076693D01*
X0115048Y0075094D02*
X0115048Y0075094D01*
X0140048Y0075094D02*
X0140048Y0075094D01*
X0140048Y0073496D02*
X0140048Y0073496D01*
X0140048Y0076693D02*
X0140048Y0076693D01*
X0140048Y0078291D02*
X0140048Y0078291D01*
X0167548Y0092548D02*
X0167548Y0126721D01*
X0162548Y0131721D01*
X0178167Y0121451D02*
X0192787Y0121451D01*
X0193050Y0111860D02*
X0188576Y0111860D01*
X0193288Y0099072D02*
X0251969Y0099072D01*
X0251969Y0097474D02*
X0170148Y0097474D01*
X0170148Y0095875D02*
X0251969Y0095875D01*
X0251969Y0094277D02*
X0170148Y0094277D01*
X0171095Y0092678D02*
X0192991Y0092678D01*
X0197587Y0088729D02*
X0171367Y0088729D01*
X0167548Y0092548D01*
X0205465Y0073496D02*
X0205566Y0073496D01*
X0217248Y0073496D02*
X0227285Y0073496D01*
X0227280Y0073525D02*
X0227386Y0072990D01*
X0227595Y0072487D01*
X0227898Y0072033D01*
X0228283Y0071648D01*
X0228737Y0071345D01*
X0228849Y0071298D01*
X0228737Y0071251D01*
X0228283Y0070948D01*
X0227898Y0070563D01*
X0227595Y0070109D01*
X0227386Y0069606D01*
X0227280Y0069071D01*
X0227280Y0068798D01*
X0227280Y0068525D01*
X0227386Y0067990D01*
X0227595Y0067487D01*
X0227898Y0067033D01*
X0228283Y0066648D01*
X0228737Y0066345D01*
X0228849Y0066298D01*
X0228737Y0066251D01*
X0228283Y0065948D01*
X0227898Y0065563D01*
X0227595Y0065109D01*
X0227386Y0064606D01*
X0227280Y0064071D01*
X0227280Y0063798D01*
X0227280Y0063525D01*
X0227386Y0062990D01*
X0227595Y0062487D01*
X0227898Y0062033D01*
X0228283Y0061648D01*
X0228737Y0061345D01*
X0228849Y0061298D01*
X0228737Y0061251D01*
X0228283Y0060948D01*
X0227898Y0060563D01*
X0227595Y0060109D01*
X0227386Y0059606D01*
X0227280Y0059071D01*
X0227280Y0058798D01*
X0227280Y0058525D01*
X0227386Y0057990D01*
X0227595Y0057487D01*
X0227898Y0057033D01*
X0228283Y0056648D01*
X0228737Y0056345D01*
X0229240Y0056136D01*
X0229775Y0056030D01*
X0230048Y0056030D01*
X0230321Y0056030D01*
X0230856Y0056136D01*
X0231359Y0056345D01*
X0231813Y0056648D01*
X0232198Y0057033D01*
X0232501Y0057487D01*
X0232710Y0057990D01*
X0232817Y0058525D01*
X0232817Y0058798D01*
X0232817Y0059071D01*
X0232710Y0059606D01*
X0232501Y0060109D01*
X0232198Y0060563D01*
X0231813Y0060948D01*
X0231359Y0061251D01*
X0231247Y0061298D01*
X0231359Y0061345D01*
X0231813Y0061648D01*
X0232198Y0062033D01*
X0232501Y0062487D01*
X0232710Y0062990D01*
X0232817Y0063525D01*
X0232817Y0063798D01*
X0232817Y0064071D01*
X0232710Y0064606D01*
X0232501Y0065109D01*
X0232198Y0065563D01*
X0231813Y0065948D01*
X0231359Y0066251D01*
X0231247Y0066298D01*
X0231359Y0066345D01*
X0231813Y0066648D01*
X0232198Y0067033D01*
X0232501Y0067487D01*
X0232710Y0067990D01*
X0232817Y0068525D01*
X0232817Y0068798D01*
X0232817Y0069071D01*
X0232710Y0069606D01*
X0232501Y0070109D01*
X0232198Y0070563D01*
X0231813Y0070948D01*
X0231359Y0071251D01*
X0231247Y0071298D01*
X0231359Y0071345D01*
X0231813Y0071648D01*
X0232198Y0072033D01*
X0232501Y0072487D01*
X0232710Y0072990D01*
X0232817Y0073525D01*
X0232817Y0073798D01*
X0232817Y0074071D01*
X0232710Y0074606D01*
X0232501Y0075109D01*
X0232198Y0075563D01*
X0231813Y0075948D01*
X0231359Y0076251D01*
X0230856Y0076460D01*
X0230321Y0076567D01*
X0230048Y0076567D01*
X0229775Y0076567D01*
X0229240Y0076460D01*
X0228737Y0076251D01*
X0228283Y0075948D01*
X0227898Y0075563D01*
X0227595Y0075109D01*
X0227386Y0074606D01*
X0227280Y0074071D01*
X0227280Y0073798D01*
X0227280Y0073525D01*
X0227280Y0073798D02*
X0230048Y0073798D01*
X0230048Y0073798D01*
X0230048Y0073798D01*
X0230048Y0071567D01*
X0230048Y0068798D01*
X0227280Y0068798D01*
X0230048Y0068798D01*
X0230048Y0068798D01*
X0230048Y0068798D01*
X0230048Y0066567D01*
X0230048Y0063798D01*
X0227280Y0063798D01*
X0230048Y0063798D01*
X0230048Y0063798D01*
X0230048Y0063798D01*
X0230048Y0061567D01*
X0230048Y0058798D01*
X0227280Y0058798D01*
X0230048Y0058798D01*
X0230048Y0058798D01*
X0230048Y0058798D01*
X0230048Y0056030D01*
X0230048Y0058798D01*
X0230048Y0058798D01*
X0232817Y0058798D01*
X0230048Y0058798D01*
X0230048Y0058798D01*
X0230048Y0063798D01*
X0230048Y0063798D01*
X0232817Y0063798D01*
X0230048Y0063798D01*
X0230048Y0063798D01*
X0230048Y0068798D01*
X0230048Y0068798D01*
X0232817Y0068798D01*
X0230048Y0068798D01*
X0230048Y0068798D01*
X0230048Y0073798D01*
X0227280Y0073798D01*
X0227588Y0075094D02*
X0217248Y0075094D01*
X0217248Y0076693D02*
X0251969Y0076693D01*
X0251969Y0078291D02*
X0217248Y0078291D01*
X0217248Y0079890D02*
X0251969Y0079890D01*
X0251969Y0081488D02*
X0217248Y0081488D01*
X0216341Y0083087D02*
X0251969Y0083087D01*
X0251969Y0075094D02*
X0232508Y0075094D01*
X0232817Y0073798D02*
X0230048Y0073798D01*
X0230048Y0076567D01*
X0230048Y0073798D01*
X0230048Y0073798D01*
X0230048Y0073798D01*
X0232817Y0073798D01*
X0232811Y0073496D02*
X0251969Y0073496D01*
X0251969Y0071897D02*
X0232063Y0071897D01*
X0232375Y0070299D02*
X0251969Y0070299D01*
X0251969Y0068700D02*
X0232817Y0068700D01*
X0232244Y0067102D02*
X0251969Y0067102D01*
X0251969Y0065503D02*
X0232238Y0065503D01*
X0232817Y0063905D02*
X0251969Y0063905D01*
X0251969Y0062306D02*
X0232381Y0062306D01*
X0232053Y0060708D02*
X0251969Y0060708D01*
X0251969Y0059109D02*
X0232809Y0059109D01*
X0232511Y0057511D02*
X0251969Y0057511D01*
X0251969Y0055912D02*
X0217248Y0055912D01*
X0217248Y0054314D02*
X0251969Y0054314D01*
X0251969Y0052715D02*
X0217248Y0052715D01*
X0217248Y0051117D02*
X0251969Y0051117D01*
X0251969Y0049518D02*
X0217248Y0049518D01*
X0217248Y0047920D02*
X0251969Y0047920D01*
X0230048Y0057511D02*
X0230048Y0057511D01*
X0230048Y0059109D02*
X0230048Y0059109D01*
X0230048Y0060708D02*
X0230048Y0060708D01*
X0230048Y0062306D02*
X0230048Y0062306D01*
X0230048Y0063905D02*
X0230048Y0063905D01*
X0230048Y0065503D02*
X0230048Y0065503D01*
X0230048Y0067102D02*
X0230048Y0067102D01*
X0230048Y0068700D02*
X0230048Y0068700D01*
X0230048Y0070299D02*
X0230048Y0070299D01*
X0230048Y0071897D02*
X0230048Y0071897D01*
X0230048Y0073496D02*
X0230048Y0073496D01*
X0230048Y0075094D02*
X0230048Y0075094D01*
X0228033Y0071897D02*
X0217248Y0071897D01*
X0217248Y0070299D02*
X0227721Y0070299D01*
X0227280Y0068700D02*
X0217248Y0068700D01*
X0217248Y0067102D02*
X0227852Y0067102D01*
X0227858Y0065503D02*
X0217248Y0065503D01*
X0217248Y0063905D02*
X0227280Y0063905D01*
X0227715Y0062306D02*
X0217248Y0062306D01*
X0217248Y0060708D02*
X0228043Y0060708D01*
X0227287Y0059109D02*
X0217248Y0059109D01*
X0217248Y0057511D02*
X0227585Y0057511D01*
X0210348Y0054314D02*
X0209960Y0054314D01*
X0159111Y0044723D02*
X0159084Y0044723D01*
X0157657Y0049518D02*
X0157630Y0049518D01*
X0150171Y0054314D02*
X0150144Y0054314D01*
X0148572Y0055912D02*
X0148545Y0055912D01*
X0146974Y0057511D02*
X0135463Y0057511D01*
X0132133Y0057511D02*
X0114372Y0057511D01*
X0113731Y0051117D02*
X0079050Y0051117D01*
X0077548Y0051117D02*
X0077548Y0051117D01*
X0077548Y0052715D02*
X0077548Y0052715D01*
X0077548Y0053798D02*
X0077548Y0056862D01*
X0077548Y0053798D01*
X0077548Y0053798D01*
X0077548Y0054314D02*
X0077548Y0054314D01*
X0077548Y0055912D02*
X0077548Y0055912D01*
X0077848Y0057511D02*
X0075929Y0057511D01*
X0075929Y0059109D02*
X0077848Y0059109D01*
X0077848Y0060708D02*
X0075929Y0060708D01*
X0075929Y0062306D02*
X0077848Y0062306D01*
X0080416Y0052715D02*
X0080520Y0052715D01*
X0107372Y0030336D02*
X0107984Y0030336D01*
X0108234Y0028738D02*
X0107101Y0028738D01*
X0106115Y0027139D02*
X0109153Y0027139D01*
X0123847Y0025541D02*
X0131722Y0025541D01*
X0133847Y0025541D02*
X0141722Y0025541D01*
X0143847Y0025541D02*
X0151722Y0025541D01*
X0149153Y0027139D02*
X0146416Y0027139D01*
X0147334Y0028738D02*
X0148234Y0028738D01*
X0147984Y0030336D02*
X0147584Y0030336D01*
X0147584Y0031935D02*
X0147984Y0031935D01*
X0147984Y0033533D02*
X0147584Y0033533D01*
X0147584Y0035132D02*
X0147984Y0035132D01*
X0147984Y0036730D02*
X0147584Y0036730D01*
X0147138Y0038329D02*
X0148431Y0038329D01*
X0147262Y0044723D02*
X0146017Y0044723D01*
X0144079Y0044723D02*
X0139735Y0044723D01*
X0138308Y0039927D02*
X0135941Y0039927D01*
X0137138Y0038329D02*
X0138431Y0038329D01*
X0137984Y0036730D02*
X0137584Y0036730D01*
X0137584Y0035132D02*
X0137984Y0035132D01*
X0137984Y0033533D02*
X0137584Y0033533D01*
X0137584Y0031935D02*
X0137984Y0031935D01*
X0137984Y0030336D02*
X0137584Y0030336D01*
X0137334Y0028738D02*
X0138234Y0028738D01*
X0139153Y0027139D02*
X0136416Y0027139D01*
X0129153Y0027139D02*
X0126416Y0027139D01*
X0127334Y0028738D02*
X0128234Y0028738D01*
X0127984Y0030336D02*
X0127584Y0030336D01*
X0127584Y0031935D02*
X0127984Y0031935D01*
X0127984Y0033533D02*
X0127584Y0033533D01*
X0127584Y0035132D02*
X0127984Y0035132D01*
X0127984Y0036730D02*
X0127584Y0036730D01*
X0127138Y0038329D02*
X0128431Y0038329D01*
X0129627Y0039927D02*
X0125941Y0039927D01*
X0116365Y0051117D02*
X0147118Y0051117D01*
X0148689Y0049518D02*
X0148717Y0049518D01*
X0068929Y0091080D02*
X0068529Y0091080D01*
X0068529Y0092678D02*
X0068929Y0092678D01*
X0068929Y0094277D02*
X0068529Y0094277D01*
X0066993Y0095875D02*
X0070465Y0095875D01*
X0070220Y0099072D02*
X0067238Y0099072D01*
X0068529Y0100671D02*
X0068929Y0100671D01*
X0068929Y0102269D02*
X0068529Y0102269D01*
X0068923Y0103868D02*
X0068929Y0103868D01*
X0068926Y0107548D02*
X0063729Y0102351D01*
X0050107Y0115973D01*
X0050107Y0117351D01*
X0054907Y0116656D02*
X0059814Y0116656D01*
X0059754Y0116621D02*
X0060116Y0116830D01*
X0060520Y0116939D01*
X0063529Y0116939D01*
X0063529Y0112551D01*
X0059142Y0112551D01*
X0059142Y0115560D01*
X0059250Y0115964D01*
X0059459Y0116326D01*
X0059754Y0116621D01*
X0059142Y0115057D02*
X0054700Y0115057D01*
X0056299Y0113459D02*
X0059142Y0113459D01*
X0059142Y0111860D02*
X0057897Y0111860D01*
X0063529Y0111860D02*
X0063929Y0111860D01*
X0063929Y0110262D02*
X0063529Y0110262D01*
X0063529Y0108663D02*
X0063929Y0108663D01*
X0063929Y0113459D02*
X0063529Y0113459D01*
X0063529Y0115057D02*
X0063929Y0115057D01*
X0063929Y0116656D02*
X0063529Y0116656D01*
X0071129Y0123050D02*
X0019348Y0123050D01*
X0019348Y0124648D02*
X0071129Y0124648D01*
X0071129Y0126247D02*
X0019348Y0126247D01*
X0019348Y0127845D02*
X0071129Y0127845D01*
X0071211Y0129444D02*
X0019348Y0129444D01*
X0019348Y0131042D02*
X0072365Y0131042D01*
X0073964Y0132641D02*
X0019348Y0132641D01*
X0019348Y0134239D02*
X0030082Y0134239D01*
X0031504Y0133858D02*
X0035088Y0133858D01*
X0038550Y0134786D01*
X0041653Y0136578D01*
X0044188Y0139112D01*
X0045980Y0142216D01*
X0046907Y0145677D01*
X0046907Y0149261D01*
X0045980Y0152723D01*
X0044188Y0155827D01*
X0041653Y0158361D01*
X0038550Y0160153D01*
X0035088Y0161080D01*
X0031504Y0161080D01*
X0028042Y0160153D01*
X0024939Y0158361D01*
X0022405Y0155827D01*
X0020613Y0152723D01*
X0019685Y0149261D01*
X0019685Y0145677D01*
X0020613Y0142216D01*
X0022405Y0139112D01*
X0024939Y0136578D01*
X0028042Y0134786D01*
X0031504Y0133858D01*
X0036510Y0134239D02*
X0075562Y0134239D01*
X0077161Y0135838D02*
X0040372Y0135838D01*
X0042512Y0137436D02*
X0078759Y0137436D01*
X0080358Y0139035D02*
X0044111Y0139035D01*
X0045066Y0140633D02*
X0226251Y0140633D01*
X0227206Y0139035D02*
X0121274Y0139035D01*
X0119083Y0137548D02*
X0082548Y0137548D01*
X0073729Y0128729D01*
X0073729Y0112351D01*
X0063729Y0092351D02*
X0050107Y0105973D01*
X0050107Y0107351D01*
X0046229Y0110262D02*
X0043985Y0110262D01*
X0044907Y0108663D02*
X0045307Y0108663D01*
X0045307Y0107065D02*
X0044907Y0107065D01*
X0044907Y0105466D02*
X0045307Y0105466D01*
X0046802Y0103868D02*
X0043412Y0103868D01*
X0043576Y0100671D02*
X0046638Y0100671D01*
X0045307Y0099072D02*
X0044907Y0099072D01*
X0044907Y0097474D02*
X0045307Y0097474D01*
X0045307Y0095875D02*
X0044907Y0095875D01*
X0043821Y0094277D02*
X0046393Y0094277D01*
X0050134Y0102269D02*
X0019348Y0102269D01*
X0052631Y0083087D02*
X0058929Y0083087D01*
X0058929Y0081488D02*
X0052758Y0081488D01*
X0054356Y0079890D02*
X0058275Y0079890D01*
X0056676Y0078291D02*
X0054907Y0078291D01*
X0054907Y0076693D02*
X0055078Y0076693D01*
X0054230Y0084686D02*
X0059275Y0084686D01*
X0026220Y0135838D02*
X0019348Y0135838D01*
X0019348Y0137436D02*
X0024080Y0137436D01*
X0022482Y0139035D02*
X0019348Y0139035D01*
X0019348Y0140633D02*
X0021526Y0140633D01*
X0020608Y0142232D02*
X0019348Y0142232D01*
X0019348Y0143830D02*
X0020180Y0143830D01*
X0019752Y0145429D02*
X0019348Y0145429D01*
X0019348Y0147027D02*
X0019685Y0147027D01*
X0019685Y0148626D02*
X0019424Y0148626D01*
X0019718Y0150224D02*
X0019943Y0150224D01*
X0020146Y0151823D02*
X0020371Y0151823D01*
X0020765Y0153421D02*
X0021016Y0153421D01*
X0021687Y0155020D02*
X0021939Y0155020D01*
X0022889Y0156619D02*
X0023196Y0156619D01*
X0024487Y0158217D02*
X0024795Y0158217D01*
X0027023Y0159816D02*
X0027458Y0159816D01*
X0033246Y0161414D02*
X0033346Y0161414D01*
X0039134Y0159816D02*
X0039569Y0159816D01*
X0041797Y0158217D02*
X0042105Y0158217D01*
X0043396Y0156619D02*
X0043704Y0156619D01*
X0044362Y0155960D02*
X0044362Y0155960D01*
X0044653Y0155020D02*
X0044905Y0155020D01*
X0045576Y0153421D02*
X0045828Y0153421D01*
X0046221Y0151823D02*
X0046446Y0151823D01*
X0046649Y0150224D02*
X0046874Y0150224D01*
X0046907Y0148626D02*
X0047168Y0148626D01*
X0047244Y0147027D02*
X0046907Y0147027D01*
X0046841Y0145429D02*
X0047617Y0145429D01*
X0048507Y0143830D02*
X0046412Y0143830D01*
X0045984Y0142232D02*
X0050634Y0142232D01*
X0049731Y0142606D02*
X0049731Y0142606D01*
X0127584Y0137436D02*
X0129585Y0137436D01*
X0127987Y0135838D02*
X0127584Y0135838D01*
X0135983Y0137436D02*
X0228804Y0137436D01*
X0221585Y0142606D02*
X0221585Y0142606D01*
D16*
X0186298Y0113798D03*
X0191298Y0101298D03*
X0176298Y0123798D03*
X0230048Y0073798D03*
X0230048Y0068798D03*
X0230048Y0063798D03*
X0230048Y0058798D03*
X0190048Y0045048D03*
X0180048Y0047548D03*
X0185048Y0057548D03*
X0175048Y0065048D03*
X0153798Y0062548D03*
X0133798Y0060048D03*
X0145048Y0047548D03*
X0115048Y0053798D03*
X0092548Y0067548D03*
X0087548Y0062548D03*
D17*
X0077548Y0053798D03*
X0068798Y0053798D03*
X0115048Y0076298D03*
X0127548Y0085048D03*
X0140048Y0076298D03*
X0135048Y0107548D03*
X0106485Y0107548D03*
X0162548Y0131721D03*
X0197548Y0038798D03*
X0197548Y0031298D03*
D18*
X0192548Y0027548D02*
X0205048Y0027548D01*
X0215048Y0037548D01*
X0215048Y0081269D01*
X0207587Y0088729D01*
X0207587Y0078729D02*
X0202548Y0073690D01*
X0202548Y0066298D01*
X0200048Y0063798D01*
X0177548Y0063798D01*
X0176298Y0065048D01*
X0175048Y0065048D01*
X0173798Y0065048D01*
X0172548Y0063798D01*
X0156298Y0063798D01*
X0155048Y0062548D01*
X0153798Y0062548D01*
X0151298Y0062548D01*
X0147548Y0066298D01*
X0093798Y0066298D01*
X0092548Y0067548D01*
X0087548Y0062548D02*
X0091298Y0058798D01*
X0112548Y0058798D01*
X0113798Y0060048D01*
X0133798Y0060048D01*
X0147548Y0060048D01*
X0151298Y0056298D01*
X0155048Y0056298D01*
X0157548Y0058798D01*
X0183798Y0058798D01*
X0185048Y0057548D01*
X0188798Y0053798D01*
X0201298Y0053798D01*
X0206229Y0058729D01*
X0207587Y0058729D01*
X0212548Y0063769D02*
X0207587Y0068729D01*
X0212548Y0063769D02*
X0212548Y0042548D01*
X0205048Y0035048D01*
X0192548Y0035048D01*
X0180048Y0047548D01*
X0158798Y0047548D01*
X0157548Y0046298D01*
X0148798Y0046298D01*
X0147548Y0047548D01*
X0145048Y0047548D01*
X0077548Y0047548D01*
X0073729Y0051367D01*
X0073729Y0072351D01*
X0068769Y0077391D02*
X0073729Y0082351D01*
X0080048Y0086032D02*
X0080048Y0056298D01*
X0082548Y0053798D01*
X0115048Y0053798D01*
X0147548Y0053798D01*
X0150048Y0051298D01*
X0156298Y0051298D01*
X0158798Y0053798D01*
X0181298Y0053798D01*
X0190048Y0045048D01*
X0192548Y0042548D01*
X0201406Y0042548D01*
X0207587Y0048729D01*
X0192548Y0027548D02*
X0177548Y0042548D01*
X0160048Y0042548D01*
X0158798Y0041298D01*
X0140048Y0041298D01*
X0138798Y0042548D01*
X0067548Y0042548D01*
X0063729Y0046367D01*
X0063729Y0072351D01*
X0062430Y0077391D02*
X0068769Y0077391D01*
X0062430Y0077391D02*
X0052391Y0067351D01*
X0050107Y0067351D01*
X0053769Y0072272D02*
X0045028Y0072272D01*
X0040107Y0067351D01*
X0053769Y0072272D02*
X0063729Y0082233D01*
X0063729Y0082351D01*
X0068729Y0087351D02*
X0073729Y0092351D01*
X0080048Y0086032D01*
X0068729Y0087351D02*
X0050107Y0087351D01*
X0176298Y0123798D02*
X0177548Y0125048D01*
X0202725Y0125048D01*
X0207587Y0129910D01*
X0207587Y0119910D02*
X0202725Y0115048D01*
X0187548Y0115048D01*
X0186298Y0113798D01*
X0192548Y0102548D02*
X0202548Y0102548D01*
X0207587Y0107587D01*
X0207587Y0109910D01*
X0192548Y0102548D02*
X0191298Y0101298D01*
M02*
