G75*
%MOIN*%
%OFA0B0*%
%FSLAX25Y25*%
%IPPOS*%
%LPD*%
%AMOC8*
5,1,8,0,0,1.08239X$1,22.5*
%
%ADD10C,0.00000*%
%ADD11C,0.23622*%
%ADD12C,0.08250*%
%ADD13C,0.07677*%
%ADD14C,0.06000*%
%ADD15C,0.03200*%
D10*
X0359331Y0253031D02*
X0611299Y0253031D01*
X0611299Y0253032D02*
X0611584Y0253035D01*
X0611870Y0253046D01*
X0612155Y0253063D01*
X0612439Y0253087D01*
X0612723Y0253118D01*
X0613006Y0253156D01*
X0613287Y0253201D01*
X0613568Y0253252D01*
X0613848Y0253310D01*
X0614126Y0253375D01*
X0614402Y0253447D01*
X0614676Y0253525D01*
X0614949Y0253610D01*
X0615219Y0253702D01*
X0615487Y0253800D01*
X0615753Y0253904D01*
X0616016Y0254015D01*
X0616276Y0254132D01*
X0616534Y0254255D01*
X0616788Y0254385D01*
X0617039Y0254521D01*
X0617287Y0254662D01*
X0617531Y0254810D01*
X0617772Y0254963D01*
X0618008Y0255123D01*
X0618241Y0255288D01*
X0618470Y0255458D01*
X0618695Y0255634D01*
X0618915Y0255816D01*
X0619131Y0256002D01*
X0619342Y0256194D01*
X0619549Y0256391D01*
X0619751Y0256593D01*
X0619948Y0256800D01*
X0620140Y0257011D01*
X0620326Y0257227D01*
X0620508Y0257447D01*
X0620684Y0257672D01*
X0620854Y0257901D01*
X0621019Y0258134D01*
X0621179Y0258370D01*
X0621332Y0258611D01*
X0621480Y0258855D01*
X0621621Y0259103D01*
X0621757Y0259354D01*
X0621887Y0259608D01*
X0622010Y0259866D01*
X0622127Y0260126D01*
X0622238Y0260389D01*
X0622342Y0260655D01*
X0622440Y0260923D01*
X0622532Y0261193D01*
X0622617Y0261466D01*
X0622695Y0261740D01*
X0622767Y0262016D01*
X0622832Y0262294D01*
X0622890Y0262574D01*
X0622941Y0262855D01*
X0622986Y0263136D01*
X0623024Y0263419D01*
X0623055Y0263703D01*
X0623079Y0263987D01*
X0623096Y0264272D01*
X0623107Y0264558D01*
X0623110Y0264843D01*
X0623110Y0359331D01*
X0623107Y0359616D01*
X0623096Y0359902D01*
X0623079Y0360187D01*
X0623055Y0360471D01*
X0623024Y0360755D01*
X0622986Y0361038D01*
X0622941Y0361319D01*
X0622890Y0361600D01*
X0622832Y0361880D01*
X0622767Y0362158D01*
X0622695Y0362434D01*
X0622617Y0362708D01*
X0622532Y0362981D01*
X0622440Y0363251D01*
X0622342Y0363519D01*
X0622238Y0363785D01*
X0622127Y0364048D01*
X0622010Y0364308D01*
X0621887Y0364566D01*
X0621757Y0364820D01*
X0621621Y0365071D01*
X0621480Y0365319D01*
X0621332Y0365563D01*
X0621179Y0365804D01*
X0621019Y0366040D01*
X0620854Y0366273D01*
X0620684Y0366502D01*
X0620508Y0366727D01*
X0620326Y0366947D01*
X0620140Y0367163D01*
X0619948Y0367374D01*
X0619751Y0367581D01*
X0619549Y0367783D01*
X0619342Y0367980D01*
X0619131Y0368172D01*
X0618915Y0368358D01*
X0618695Y0368540D01*
X0618470Y0368716D01*
X0618241Y0368886D01*
X0618008Y0369051D01*
X0617772Y0369211D01*
X0617531Y0369364D01*
X0617287Y0369512D01*
X0617039Y0369653D01*
X0616788Y0369789D01*
X0616534Y0369919D01*
X0616276Y0370042D01*
X0616016Y0370159D01*
X0615753Y0370270D01*
X0615487Y0370374D01*
X0615219Y0370472D01*
X0614949Y0370564D01*
X0614676Y0370649D01*
X0614402Y0370727D01*
X0614126Y0370799D01*
X0613848Y0370864D01*
X0613568Y0370922D01*
X0613287Y0370973D01*
X0613006Y0371018D01*
X0612723Y0371056D01*
X0612439Y0371087D01*
X0612155Y0371111D01*
X0611870Y0371128D01*
X0611584Y0371139D01*
X0611299Y0371142D01*
X0359331Y0371142D01*
X0359046Y0371139D01*
X0358760Y0371128D01*
X0358475Y0371111D01*
X0358191Y0371087D01*
X0357907Y0371056D01*
X0357624Y0371018D01*
X0357343Y0370973D01*
X0357062Y0370922D01*
X0356782Y0370864D01*
X0356504Y0370799D01*
X0356228Y0370727D01*
X0355954Y0370649D01*
X0355681Y0370564D01*
X0355411Y0370472D01*
X0355143Y0370374D01*
X0354877Y0370270D01*
X0354614Y0370159D01*
X0354354Y0370042D01*
X0354096Y0369919D01*
X0353842Y0369789D01*
X0353591Y0369653D01*
X0353343Y0369512D01*
X0353099Y0369364D01*
X0352858Y0369211D01*
X0352622Y0369051D01*
X0352389Y0368886D01*
X0352160Y0368716D01*
X0351935Y0368540D01*
X0351715Y0368358D01*
X0351499Y0368172D01*
X0351288Y0367980D01*
X0351081Y0367783D01*
X0350879Y0367581D01*
X0350682Y0367374D01*
X0350490Y0367163D01*
X0350304Y0366947D01*
X0350122Y0366727D01*
X0349946Y0366502D01*
X0349776Y0366273D01*
X0349611Y0366040D01*
X0349451Y0365804D01*
X0349298Y0365563D01*
X0349150Y0365319D01*
X0349009Y0365071D01*
X0348873Y0364820D01*
X0348743Y0364566D01*
X0348620Y0364308D01*
X0348503Y0364048D01*
X0348392Y0363785D01*
X0348288Y0363519D01*
X0348190Y0363251D01*
X0348098Y0362981D01*
X0348013Y0362708D01*
X0347935Y0362434D01*
X0347863Y0362158D01*
X0347798Y0361880D01*
X0347740Y0361600D01*
X0347689Y0361319D01*
X0347644Y0361038D01*
X0347606Y0360755D01*
X0347575Y0360471D01*
X0347551Y0360187D01*
X0347534Y0359902D01*
X0347523Y0359616D01*
X0347520Y0359331D01*
X0347520Y0264843D01*
X0347523Y0264558D01*
X0347534Y0264272D01*
X0347551Y0263987D01*
X0347575Y0263703D01*
X0347606Y0263419D01*
X0347644Y0263136D01*
X0347689Y0262855D01*
X0347740Y0262574D01*
X0347798Y0262294D01*
X0347863Y0262016D01*
X0347935Y0261740D01*
X0348013Y0261466D01*
X0348098Y0261193D01*
X0348190Y0260923D01*
X0348288Y0260655D01*
X0348392Y0260389D01*
X0348503Y0260126D01*
X0348620Y0259866D01*
X0348743Y0259608D01*
X0348873Y0259354D01*
X0349009Y0259103D01*
X0349150Y0258855D01*
X0349298Y0258611D01*
X0349451Y0258370D01*
X0349611Y0258134D01*
X0349776Y0257901D01*
X0349946Y0257672D01*
X0350122Y0257447D01*
X0350304Y0257227D01*
X0350490Y0257011D01*
X0350682Y0256800D01*
X0350879Y0256593D01*
X0351081Y0256391D01*
X0351288Y0256194D01*
X0351499Y0256002D01*
X0351715Y0255816D01*
X0351935Y0255634D01*
X0352160Y0255458D01*
X0352389Y0255288D01*
X0352622Y0255123D01*
X0352858Y0254963D01*
X0353099Y0254810D01*
X0353343Y0254662D01*
X0353591Y0254521D01*
X0353842Y0254385D01*
X0354096Y0254255D01*
X0354354Y0254132D01*
X0354614Y0254015D01*
X0354877Y0253904D01*
X0355143Y0253800D01*
X0355411Y0253702D01*
X0355681Y0253610D01*
X0355954Y0253525D01*
X0356228Y0253447D01*
X0356504Y0253375D01*
X0356782Y0253310D01*
X0357062Y0253252D01*
X0357343Y0253201D01*
X0357624Y0253156D01*
X0357907Y0253118D01*
X0358191Y0253087D01*
X0358475Y0253063D01*
X0358760Y0253046D01*
X0359046Y0253035D01*
X0359331Y0253032D01*
D11*
X0406575Y0312087D03*
X0564055Y0312087D03*
D12*
X0379519Y0308465D02*
X0371269Y0308465D01*
X0371269Y0288465D02*
X0379519Y0288465D01*
X0379519Y0268465D02*
X0371269Y0268465D01*
X0371269Y0336339D02*
X0379519Y0336339D01*
X0379519Y0356339D02*
X0371269Y0356339D01*
D13*
X0453524Y0338091D03*
X0478524Y0338091D03*
X0503327Y0338091D03*
X0519469Y0338091D03*
X0519469Y0286122D03*
X0503327Y0286122D03*
X0478524Y0286122D03*
X0453524Y0286122D03*
D14*
X0600425Y0286339D02*
X0606425Y0286339D01*
X0606425Y0296339D02*
X0600425Y0296339D01*
X0600425Y0306339D02*
X0606425Y0306339D01*
X0606425Y0317835D02*
X0600425Y0317835D01*
X0600425Y0327835D02*
X0606425Y0327835D01*
X0606425Y0337835D02*
X0600425Y0337835D01*
D15*
X0594827Y0336193D02*
X0525868Y0336193D01*
X0526107Y0336770D02*
X0525096Y0334330D01*
X0523229Y0332463D01*
X0520789Y0331452D01*
X0518148Y0331452D01*
X0515708Y0332463D01*
X0513841Y0334330D01*
X0512830Y0336770D01*
X0512830Y0339411D01*
X0513841Y0341851D01*
X0515708Y0343718D01*
X0518148Y0344729D01*
X0520789Y0344729D01*
X0523229Y0343718D01*
X0525096Y0341851D01*
X0526107Y0339411D01*
X0526107Y0336770D01*
X0526107Y0339391D02*
X0594792Y0339391D01*
X0594625Y0338988D02*
X0594625Y0336681D01*
X0595508Y0334549D01*
X0597140Y0332918D01*
X0597340Y0332835D01*
X0597140Y0332752D01*
X0595508Y0331120D01*
X0594625Y0328988D01*
X0594625Y0326681D01*
X0595508Y0324549D01*
X0597140Y0322918D01*
X0597340Y0322835D01*
X0597140Y0322752D01*
X0595508Y0321120D01*
X0594625Y0318988D01*
X0594625Y0316681D01*
X0595508Y0314549D01*
X0597140Y0312918D01*
X0599146Y0312087D01*
X0597140Y0311256D01*
X0595508Y0309624D01*
X0594625Y0307492D01*
X0594625Y0305185D01*
X0595508Y0303053D01*
X0597140Y0301422D01*
X0597340Y0301339D01*
X0597140Y0301256D01*
X0595508Y0299624D01*
X0594625Y0297492D01*
X0594625Y0295185D01*
X0595508Y0293053D01*
X0597140Y0291422D01*
X0597340Y0291339D01*
X0597140Y0291256D01*
X0595508Y0289624D01*
X0594625Y0287492D01*
X0594625Y0285185D01*
X0595508Y0283053D01*
X0597140Y0281422D01*
X0599271Y0280539D01*
X0607579Y0280539D01*
X0609711Y0281422D01*
X0611342Y0283053D01*
X0612225Y0285185D01*
X0612225Y0287492D01*
X0611342Y0289624D01*
X0609711Y0291256D01*
X0609510Y0291339D01*
X0609711Y0291422D01*
X0611342Y0293053D01*
X0612225Y0295185D01*
X0612225Y0297492D01*
X0611342Y0299624D01*
X0609711Y0301256D01*
X0609510Y0301339D01*
X0609711Y0301422D01*
X0611342Y0303053D01*
X0612225Y0305185D01*
X0612225Y0307492D01*
X0611342Y0309624D01*
X0609711Y0311256D01*
X0607704Y0312087D01*
X0609711Y0312918D01*
X0611342Y0314549D01*
X0612225Y0316681D01*
X0612225Y0318988D01*
X0611342Y0321120D01*
X0609711Y0322752D01*
X0609510Y0322835D01*
X0609711Y0322918D01*
X0611342Y0324549D01*
X0612225Y0326681D01*
X0612225Y0328988D01*
X0611342Y0331120D01*
X0609711Y0332752D01*
X0609510Y0332835D01*
X0609711Y0332918D01*
X0611342Y0334549D01*
X0612225Y0336681D01*
X0612225Y0338988D01*
X0611342Y0341120D01*
X0609711Y0342752D01*
X0607579Y0343635D01*
X0599271Y0343635D01*
X0597140Y0342752D01*
X0595508Y0341120D01*
X0594625Y0338988D01*
X0596978Y0342590D02*
X0524358Y0342590D01*
X0514579Y0342590D02*
X0508216Y0342590D01*
X0508955Y0341851D02*
X0507087Y0343718D01*
X0504647Y0344729D01*
X0502006Y0344729D01*
X0499566Y0343718D01*
X0497699Y0341851D01*
X0496688Y0339411D01*
X0496688Y0336770D01*
X0497699Y0334330D01*
X0499566Y0332463D01*
X0502006Y0331452D01*
X0504647Y0331452D01*
X0507087Y0332463D01*
X0508955Y0334330D01*
X0509965Y0336770D01*
X0509965Y0339411D01*
X0508955Y0341851D01*
X0509965Y0339391D02*
X0512830Y0339391D01*
X0513069Y0336193D02*
X0509726Y0336193D01*
X0507619Y0332994D02*
X0515176Y0332994D01*
X0523761Y0332994D02*
X0597063Y0332994D01*
X0594960Y0329796D02*
X0381084Y0329796D01*
X0380834Y0329729D02*
X0381685Y0329957D01*
X0382499Y0330294D01*
X0383263Y0330735D01*
X0383962Y0331272D01*
X0384586Y0331895D01*
X0385122Y0332594D01*
X0385563Y0333358D01*
X0385900Y0334172D01*
X0386129Y0335024D01*
X0386244Y0335898D01*
X0386244Y0336339D01*
X0386244Y0336779D01*
X0386129Y0337653D01*
X0385900Y0338505D01*
X0385563Y0339319D01*
X0385122Y0340083D01*
X0384586Y0340782D01*
X0383962Y0341406D01*
X0383263Y0341942D01*
X0382499Y0342383D01*
X0381685Y0342720D01*
X0380834Y0342948D01*
X0379959Y0343064D01*
X0375394Y0343064D01*
X0375394Y0336339D01*
X0375394Y0336339D01*
X0386244Y0336339D01*
X0375394Y0336339D01*
X0375394Y0336339D01*
X0375394Y0343064D01*
X0370828Y0343064D01*
X0369954Y0342948D01*
X0369102Y0342720D01*
X0368288Y0342383D01*
X0367524Y0341942D01*
X0366825Y0341406D01*
X0366202Y0340782D01*
X0365665Y0340083D01*
X0365224Y0339319D01*
X0364887Y0338505D01*
X0364659Y0337653D01*
X0364544Y0336779D01*
X0364544Y0336339D01*
X0375394Y0336339D01*
X0375394Y0336339D01*
X0375394Y0336338D02*
X0375394Y0329614D01*
X0379959Y0329614D01*
X0380834Y0329729D01*
X0375394Y0329796D02*
X0375394Y0329796D01*
X0375394Y0329614D02*
X0375394Y0336338D01*
X0375394Y0336338D01*
X0375394Y0336339D02*
X0364544Y0336339D01*
X0364544Y0335898D01*
X0364659Y0335024D01*
X0364887Y0334172D01*
X0365224Y0333358D01*
X0365665Y0332594D01*
X0366202Y0331895D01*
X0366825Y0331272D01*
X0367524Y0330735D01*
X0368288Y0330294D01*
X0369102Y0329957D01*
X0369954Y0329729D01*
X0370828Y0329614D01*
X0375394Y0329614D01*
X0375394Y0332994D02*
X0375394Y0332994D01*
X0375394Y0336193D02*
X0375394Y0336193D01*
X0375394Y0339391D02*
X0375394Y0339391D01*
X0375394Y0342590D02*
X0375394Y0342590D01*
X0382000Y0342590D02*
X0448635Y0342590D01*
X0447896Y0341851D02*
X0446885Y0339411D01*
X0446885Y0336770D01*
X0447896Y0334330D01*
X0449763Y0332463D01*
X0452203Y0331452D01*
X0454844Y0331452D01*
X0457284Y0332463D01*
X0459152Y0334330D01*
X0460162Y0336770D01*
X0460162Y0339411D01*
X0459152Y0341851D01*
X0457284Y0343718D01*
X0454844Y0344729D01*
X0452203Y0344729D01*
X0449763Y0343718D01*
X0447896Y0341851D01*
X0446885Y0339391D02*
X0385522Y0339391D01*
X0386244Y0336193D02*
X0447124Y0336193D01*
X0449232Y0332994D02*
X0385353Y0332994D01*
X0397224Y0323399D02*
X0353120Y0323399D01*
X0353120Y0326597D02*
X0404277Y0326597D01*
X0404651Y0326698D02*
X0400935Y0325702D01*
X0397603Y0323778D01*
X0394883Y0321058D01*
X0392959Y0317726D01*
X0391964Y0314010D01*
X0391964Y0310163D01*
X0392959Y0306447D01*
X0394883Y0303115D01*
X0397603Y0300395D01*
X0400935Y0298471D01*
X0404651Y0297476D01*
X0408498Y0297476D01*
X0412214Y0298471D01*
X0415546Y0300395D01*
X0418267Y0303115D01*
X0420190Y0306447D01*
X0421186Y0310163D01*
X0421186Y0314010D01*
X0420190Y0317726D01*
X0418267Y0321058D01*
X0415546Y0323778D01*
X0412214Y0325702D01*
X0408498Y0326698D01*
X0404651Y0326698D01*
X0408873Y0326597D02*
X0561757Y0326597D01*
X0562132Y0326698D02*
X0558415Y0325702D01*
X0555084Y0323778D01*
X0552363Y0321058D01*
X0550440Y0317726D01*
X0549444Y0314010D01*
X0549444Y0310163D01*
X0550440Y0306447D01*
X0552363Y0303115D01*
X0555084Y0300395D01*
X0558415Y0298471D01*
X0562132Y0297476D01*
X0565979Y0297476D01*
X0569695Y0298471D01*
X0573026Y0300395D01*
X0575747Y0303115D01*
X0577670Y0306447D01*
X0578666Y0310163D01*
X0578666Y0314010D01*
X0577670Y0317726D01*
X0575747Y0321058D01*
X0573026Y0323778D01*
X0569695Y0325702D01*
X0565979Y0326698D01*
X0562132Y0326698D01*
X0566353Y0326597D02*
X0594660Y0326597D01*
X0596659Y0323399D02*
X0573406Y0323399D01*
X0576242Y0320200D02*
X0595127Y0320200D01*
X0594625Y0317002D02*
X0577865Y0317002D01*
X0578666Y0313803D02*
X0596254Y0313803D01*
X0596489Y0310605D02*
X0578666Y0310605D01*
X0577927Y0307406D02*
X0594625Y0307406D01*
X0595030Y0304208D02*
X0576378Y0304208D01*
X0573641Y0301009D02*
X0596893Y0301009D01*
X0594757Y0297811D02*
X0567229Y0297811D01*
X0560881Y0297811D02*
X0409749Y0297811D01*
X0403401Y0297811D02*
X0353120Y0297811D01*
X0353120Y0301009D02*
X0396989Y0301009D01*
X0394252Y0304208D02*
X0385055Y0304208D01*
X0385389Y0304542D02*
X0386444Y0307087D01*
X0386444Y0309842D01*
X0385389Y0312387D01*
X0383441Y0314335D01*
X0380896Y0315390D01*
X0369891Y0315390D01*
X0367346Y0314335D01*
X0365398Y0312387D01*
X0364344Y0309842D01*
X0364344Y0307087D01*
X0365398Y0304542D01*
X0367346Y0302594D01*
X0369891Y0301540D01*
X0380896Y0301540D01*
X0383441Y0302594D01*
X0385389Y0304542D01*
X0386444Y0307406D02*
X0392702Y0307406D01*
X0391964Y0310605D02*
X0386128Y0310605D01*
X0383973Y0313803D02*
X0391964Y0313803D01*
X0392765Y0317002D02*
X0353120Y0317002D01*
X0353120Y0320200D02*
X0394388Y0320200D01*
X0415926Y0323399D02*
X0554704Y0323399D01*
X0551868Y0320200D02*
X0418762Y0320200D01*
X0420384Y0317002D02*
X0550246Y0317002D01*
X0549444Y0313803D02*
X0421186Y0313803D01*
X0421186Y0310605D02*
X0549444Y0310605D01*
X0550183Y0307406D02*
X0420447Y0307406D01*
X0418897Y0304208D02*
X0551733Y0304208D01*
X0554469Y0301009D02*
X0416160Y0301009D01*
X0386444Y0289842D02*
X0385389Y0292387D01*
X0383441Y0294335D01*
X0380896Y0295390D01*
X0369891Y0295390D01*
X0367346Y0294335D01*
X0365398Y0292387D01*
X0364344Y0289842D01*
X0364344Y0287087D01*
X0365398Y0284542D01*
X0367346Y0282594D01*
X0369891Y0281540D01*
X0380896Y0281540D01*
X0383441Y0282594D01*
X0385389Y0284542D01*
X0386444Y0287087D01*
X0386444Y0289842D01*
X0386444Y0288215D02*
X0447422Y0288215D01*
X0447414Y0288196D02*
X0447195Y0287381D01*
X0447085Y0286544D01*
X0447085Y0286122D01*
X0447085Y0285700D01*
X0447195Y0284863D01*
X0447414Y0284048D01*
X0447737Y0283268D01*
X0448159Y0282537D01*
X0448672Y0281868D01*
X0449269Y0281271D01*
X0449939Y0280757D01*
X0450670Y0280335D01*
X0451450Y0280012D01*
X0452265Y0279794D01*
X0453102Y0279683D01*
X0453524Y0279683D01*
X0453946Y0279683D01*
X0454782Y0279794D01*
X0455598Y0280012D01*
X0456377Y0280335D01*
X0457108Y0280757D01*
X0457778Y0281271D01*
X0458375Y0281868D01*
X0458889Y0282537D01*
X0459311Y0283268D01*
X0459634Y0284048D01*
X0459852Y0284863D01*
X0459962Y0285700D01*
X0459962Y0286122D01*
X0453524Y0286122D01*
X0453524Y0286122D01*
X0459962Y0286122D01*
X0459962Y0286544D01*
X0459852Y0287381D01*
X0459634Y0288196D01*
X0459311Y0288976D01*
X0458889Y0289707D01*
X0458375Y0290376D01*
X0457778Y0290973D01*
X0457108Y0291487D01*
X0456377Y0291909D01*
X0455598Y0292232D01*
X0454782Y0292450D01*
X0453946Y0292561D01*
X0453524Y0292561D01*
X0453524Y0286122D01*
X0453524Y0279683D01*
X0453524Y0286122D01*
X0453524Y0286122D01*
X0453524Y0286122D01*
X0453524Y0292561D01*
X0453102Y0292561D01*
X0452265Y0292450D01*
X0451450Y0292232D01*
X0450670Y0291909D01*
X0449939Y0291487D01*
X0449269Y0290973D01*
X0448672Y0290376D01*
X0448159Y0289707D01*
X0447737Y0288976D01*
X0447414Y0288196D01*
X0447085Y0286122D02*
X0453523Y0286122D01*
X0447085Y0286122D01*
X0447175Y0285017D02*
X0385586Y0285017D01*
X0381569Y0281818D02*
X0448722Y0281818D01*
X0453524Y0281818D02*
X0453524Y0281818D01*
X0453524Y0285017D02*
X0453524Y0285017D01*
X0453523Y0286122D02*
X0453523Y0286122D01*
X0453524Y0288215D02*
X0453524Y0288215D01*
X0453524Y0291414D02*
X0453524Y0291414D01*
X0457204Y0291414D02*
X0474427Y0291414D01*
X0474763Y0291750D02*
X0472896Y0289882D01*
X0471885Y0287443D01*
X0471885Y0284802D01*
X0472896Y0282362D01*
X0474763Y0280494D01*
X0477203Y0279483D01*
X0479844Y0279483D01*
X0482284Y0280494D01*
X0484152Y0282362D01*
X0485162Y0284802D01*
X0485162Y0287443D01*
X0484152Y0289882D01*
X0482284Y0291750D01*
X0479844Y0292761D01*
X0477203Y0292761D01*
X0474763Y0291750D01*
X0472205Y0288215D02*
X0459626Y0288215D01*
X0459872Y0285017D02*
X0471885Y0285017D01*
X0473439Y0281818D02*
X0458325Y0281818D01*
X0449843Y0291414D02*
X0385793Y0291414D01*
X0382773Y0294612D02*
X0594862Y0294612D01*
X0597159Y0291414D02*
X0523565Y0291414D01*
X0523229Y0291750D02*
X0520789Y0292761D01*
X0518148Y0292761D01*
X0515708Y0291750D01*
X0513841Y0289882D01*
X0512830Y0287443D01*
X0512830Y0284802D01*
X0513841Y0282362D01*
X0515708Y0280494D01*
X0518148Y0279483D01*
X0520789Y0279483D01*
X0523229Y0280494D01*
X0525096Y0282362D01*
X0526107Y0284802D01*
X0526107Y0287443D01*
X0525096Y0289882D01*
X0523229Y0291750D01*
X0525787Y0288215D02*
X0594925Y0288215D01*
X0594695Y0285017D02*
X0526107Y0285017D01*
X0524553Y0281818D02*
X0596743Y0281818D01*
X0610107Y0281818D02*
X0617510Y0281818D01*
X0617510Y0278620D02*
X0353120Y0278620D01*
X0353120Y0281818D02*
X0369219Y0281818D01*
X0365201Y0285017D02*
X0353120Y0285017D01*
X0353120Y0288215D02*
X0364344Y0288215D01*
X0364995Y0291414D02*
X0353120Y0291414D01*
X0353120Y0294612D02*
X0368014Y0294612D01*
X0365732Y0304208D02*
X0353120Y0304208D01*
X0353120Y0307406D02*
X0364344Y0307406D01*
X0364660Y0310605D02*
X0353120Y0310605D01*
X0353120Y0313803D02*
X0366814Y0313803D01*
X0369703Y0329796D02*
X0353120Y0329796D01*
X0353120Y0332994D02*
X0365434Y0332994D01*
X0364544Y0336193D02*
X0353120Y0336193D01*
X0353120Y0339391D02*
X0365266Y0339391D01*
X0368787Y0342590D02*
X0353120Y0342590D01*
X0353120Y0345788D02*
X0617510Y0345788D01*
X0617510Y0342590D02*
X0609872Y0342590D01*
X0612058Y0339391D02*
X0617510Y0339391D01*
X0617510Y0336193D02*
X0612023Y0336193D01*
X0609787Y0332994D02*
X0617510Y0332994D01*
X0617510Y0329796D02*
X0611891Y0329796D01*
X0612191Y0326597D02*
X0617510Y0326597D01*
X0617510Y0323399D02*
X0610192Y0323399D01*
X0611723Y0320200D02*
X0617510Y0320200D01*
X0617510Y0317002D02*
X0612225Y0317002D01*
X0610596Y0313803D02*
X0617510Y0313803D01*
X0617510Y0310605D02*
X0610362Y0310605D01*
X0612225Y0307406D02*
X0617510Y0307406D01*
X0617510Y0304208D02*
X0611820Y0304208D01*
X0609957Y0301009D02*
X0617510Y0301009D01*
X0617510Y0297811D02*
X0612093Y0297811D01*
X0611988Y0294612D02*
X0617510Y0294612D01*
X0617510Y0291414D02*
X0609691Y0291414D01*
X0611926Y0288215D02*
X0617510Y0288215D01*
X0617510Y0285017D02*
X0612155Y0285017D01*
X0617510Y0275421D02*
X0353120Y0275421D01*
X0353120Y0272223D02*
X0365676Y0272223D01*
X0365665Y0272209D02*
X0365224Y0271445D01*
X0364887Y0270631D01*
X0364659Y0269779D01*
X0364544Y0268905D01*
X0364544Y0268465D01*
X0375394Y0268465D01*
X0375394Y0268465D01*
X0375394Y0275190D01*
X0379959Y0275190D01*
X0380834Y0275074D01*
X0381685Y0274846D01*
X0382499Y0274509D01*
X0383263Y0274068D01*
X0383962Y0273532D01*
X0384586Y0272908D01*
X0385122Y0272209D01*
X0385563Y0271445D01*
X0385900Y0270631D01*
X0386129Y0269779D01*
X0386244Y0268905D01*
X0386244Y0268465D01*
X0375394Y0268465D01*
X0375394Y0268464D01*
X0375394Y0261740D01*
X0379959Y0261740D01*
X0380834Y0261855D01*
X0381685Y0262083D01*
X0382499Y0262420D01*
X0383263Y0262861D01*
X0383962Y0263398D01*
X0384586Y0264021D01*
X0385122Y0264720D01*
X0385563Y0265484D01*
X0385900Y0266298D01*
X0386129Y0267150D01*
X0386244Y0268024D01*
X0386244Y0268464D01*
X0375394Y0268464D01*
X0375394Y0268464D01*
X0375394Y0261740D01*
X0370828Y0261740D01*
X0369954Y0261855D01*
X0369102Y0262083D01*
X0368288Y0262420D01*
X0367524Y0262861D01*
X0366825Y0263398D01*
X0366202Y0264021D01*
X0365665Y0264720D01*
X0365224Y0265484D01*
X0364887Y0266298D01*
X0364659Y0267150D01*
X0364544Y0268024D01*
X0364544Y0268464D01*
X0375394Y0268464D01*
X0375394Y0268465D01*
X0375394Y0275190D01*
X0370828Y0275190D01*
X0369954Y0275074D01*
X0369102Y0274846D01*
X0368288Y0274509D01*
X0367524Y0274068D01*
X0366825Y0273532D01*
X0366202Y0272908D01*
X0365665Y0272209D01*
X0364559Y0269024D02*
X0353120Y0269024D01*
X0353120Y0265826D02*
X0365083Y0265826D01*
X0367930Y0262627D02*
X0353549Y0262627D01*
X0353592Y0262466D02*
X0353173Y0264032D01*
X0353120Y0264843D01*
X0353120Y0359331D01*
X0353173Y0360141D01*
X0353592Y0361708D01*
X0353592Y0361708D01*
X0354403Y0363112D01*
X0355550Y0364258D01*
X0356954Y0365069D01*
X0358520Y0365489D01*
X0359331Y0365542D01*
X0611299Y0365542D01*
X0612110Y0365489D01*
X0613676Y0365069D01*
X0615080Y0364258D01*
X0616227Y0363112D01*
X0617037Y0361708D01*
X0617457Y0360141D01*
X0617510Y0359331D01*
X0617510Y0264842D01*
X0617457Y0264032D01*
X0617037Y0262466D01*
X0616227Y0261061D01*
X0615080Y0259915D01*
X0613676Y0259104D01*
X0612110Y0258685D01*
X0611299Y0258631D01*
X0359331Y0258631D01*
X0358520Y0258685D01*
X0356954Y0259104D01*
X0355550Y0259915D01*
X0354403Y0261061D01*
X0353592Y0262466D01*
X0356392Y0259429D02*
X0614238Y0259429D01*
X0617081Y0262627D02*
X0382858Y0262627D01*
X0385705Y0265826D02*
X0617510Y0265826D01*
X0617510Y0269024D02*
X0386228Y0269024D01*
X0385112Y0272223D02*
X0617510Y0272223D01*
X0514384Y0281818D02*
X0508411Y0281818D01*
X0508955Y0282362D02*
X0509965Y0284802D01*
X0509965Y0287443D01*
X0508955Y0289882D01*
X0507087Y0291750D01*
X0504647Y0292761D01*
X0502006Y0292761D01*
X0499566Y0291750D01*
X0497699Y0289882D01*
X0496688Y0287443D01*
X0496688Y0284802D01*
X0497699Y0282362D01*
X0499566Y0280494D01*
X0502006Y0279483D01*
X0504647Y0279483D01*
X0507087Y0280494D01*
X0508955Y0282362D01*
X0509965Y0285017D02*
X0512830Y0285017D01*
X0513150Y0288215D02*
X0509645Y0288215D01*
X0507424Y0291414D02*
X0515372Y0291414D01*
X0499230Y0291414D02*
X0482620Y0291414D01*
X0484842Y0288215D02*
X0497008Y0288215D01*
X0496688Y0285017D02*
X0485162Y0285017D01*
X0483608Y0281818D02*
X0498242Y0281818D01*
X0499035Y0332994D02*
X0482816Y0332994D01*
X0482284Y0332463D02*
X0484152Y0334330D01*
X0485162Y0336770D01*
X0485162Y0339411D01*
X0484152Y0341851D01*
X0482284Y0343718D01*
X0479844Y0344729D01*
X0477203Y0344729D01*
X0474763Y0343718D01*
X0472896Y0341851D01*
X0471885Y0339411D01*
X0471885Y0336770D01*
X0472896Y0334330D01*
X0474763Y0332463D01*
X0477203Y0331452D01*
X0479844Y0331452D01*
X0482284Y0332463D01*
X0484923Y0336193D02*
X0496927Y0336193D01*
X0496688Y0339391D02*
X0485162Y0339391D01*
X0483413Y0342590D02*
X0498438Y0342590D01*
X0473635Y0342590D02*
X0458413Y0342590D01*
X0460162Y0339391D02*
X0471885Y0339391D01*
X0472124Y0336193D02*
X0459923Y0336193D01*
X0457816Y0332994D02*
X0474232Y0332994D01*
X0386444Y0354961D02*
X0386444Y0357716D01*
X0385389Y0360261D01*
X0383441Y0362209D01*
X0380896Y0363264D01*
X0369891Y0363264D01*
X0367346Y0362209D01*
X0365398Y0360261D01*
X0364344Y0357716D01*
X0364344Y0354961D01*
X0365398Y0352416D01*
X0367346Y0350468D01*
X0369891Y0349414D01*
X0380896Y0349414D01*
X0383441Y0350468D01*
X0385389Y0352416D01*
X0386444Y0354961D01*
X0386444Y0355384D02*
X0617510Y0355384D01*
X0617510Y0358582D02*
X0386085Y0358582D01*
X0383870Y0361781D02*
X0616995Y0361781D01*
X0613831Y0364979D02*
X0356799Y0364979D01*
X0353635Y0361781D02*
X0366918Y0361781D01*
X0364703Y0358582D02*
X0353120Y0358582D01*
X0353120Y0355384D02*
X0364344Y0355384D01*
X0365629Y0352185D02*
X0353120Y0352185D01*
X0353120Y0348987D02*
X0617510Y0348987D01*
X0617510Y0352185D02*
X0385159Y0352185D01*
X0375394Y0272223D02*
X0375394Y0272223D01*
X0375394Y0269024D02*
X0375394Y0269024D01*
X0375394Y0265826D02*
X0375394Y0265826D01*
X0375394Y0262627D02*
X0375394Y0262627D01*
M02*
