G75*
%MOIN*%
%OFA0B0*%
%FSLAX25Y25*%
%IPPOS*%
%LPD*%
%AMOC8*
5,1,8,0,0,1.08239X$1,22.5*
%
%ADD10C,0.01969*%
%ADD11C,0.06000*%
%ADD12C,0.04800*%
%ADD13C,0.07050*%
%ADD14C,0.06693*%
%ADD15C,0.05315*%
%ADD16C,0.09449*%
%ADD17C,0.12992*%
%ADD18R,0.04331X0.03937*%
%ADD19R,0.07087X0.06299*%
%ADD20R,0.03937X0.04331*%
%ADD21R,0.04724X0.07874*%
%ADD22R,0.08600X0.02200*%
%ADD23R,0.05906X0.04724*%
%ADD24R,0.03937X0.00984*%
%ADD25C,0.02362*%
%ADD26R,0.08268X0.05512*%
%ADD27R,0.04528X0.00984*%
%ADD28C,0.23622*%
%ADD29R,0.07008X0.12402*%
%ADD30C,0.02953*%
D10*
X0171060Y0112280D03*
X0174012Y0112280D03*
X0176965Y0112280D03*
X0176965Y0118185D03*
X0174012Y0118185D03*
X0171060Y0118185D03*
X0106099Y0171335D03*
X0106099Y0174287D03*
X0106099Y0177240D03*
X0100194Y0177240D03*
X0100194Y0174287D03*
X0100194Y0171335D03*
X0161217Y0254012D03*
X0164170Y0254012D03*
X0167123Y0254012D03*
X0167123Y0259917D03*
X0164170Y0259917D03*
X0161217Y0259917D03*
X0106099Y0356374D03*
X0106099Y0359327D03*
X0106099Y0362280D03*
X0100194Y0362280D03*
X0100194Y0359327D03*
X0100194Y0356374D03*
X0171060Y0419366D03*
X0174012Y0419366D03*
X0176965Y0419366D03*
X0176965Y0425272D03*
X0174012Y0425272D03*
X0171060Y0425272D03*
X0336414Y0425272D03*
X0339367Y0425272D03*
X0342320Y0425272D03*
X0342320Y0419366D03*
X0339367Y0419366D03*
X0336414Y0419366D03*
X0391532Y0362280D03*
X0391532Y0359327D03*
X0391532Y0356374D03*
X0397438Y0356374D03*
X0397438Y0359327D03*
X0397438Y0362280D03*
X0330509Y0259917D03*
X0327556Y0259917D03*
X0324603Y0259917D03*
X0324603Y0254012D03*
X0327556Y0254012D03*
X0330509Y0254012D03*
X0391532Y0177240D03*
X0391532Y0174287D03*
X0391532Y0171335D03*
X0397438Y0171335D03*
X0397438Y0174287D03*
X0397438Y0177240D03*
X0342320Y0118185D03*
X0339367Y0118185D03*
X0336414Y0118185D03*
X0336414Y0112280D03*
X0339367Y0112280D03*
X0342320Y0112280D03*
D11*
X0130024Y0298579D02*
X0124024Y0298579D01*
X0124024Y0308579D02*
X0130024Y0308579D01*
D12*
X0165449Y0200461D03*
X0175449Y0200461D03*
X0185449Y0200461D03*
X0195449Y0200461D03*
X0190449Y0190461D03*
X0180449Y0190461D03*
X0170449Y0190461D03*
X0160449Y0190461D03*
X0294308Y0190461D03*
X0304308Y0190461D03*
X0314308Y0190461D03*
X0324308Y0190461D03*
X0329308Y0200461D03*
X0319308Y0200461D03*
X0309308Y0200461D03*
X0299308Y0200461D03*
D13*
X0285808Y0140661D03*
X0151949Y0140661D03*
D14*
X0144780Y0182161D03*
X0155115Y0227437D03*
X0200784Y0227437D03*
X0211119Y0182161D03*
X0278638Y0182161D03*
X0288973Y0227437D03*
X0334642Y0227437D03*
X0344977Y0182161D03*
D15*
X0169520Y0364113D03*
X0169520Y0374113D03*
X0169520Y0384113D03*
X0169520Y0394113D03*
X0159520Y0389113D03*
X0159520Y0379113D03*
X0159520Y0369113D03*
X0159520Y0399113D03*
X0121221Y0396517D03*
X0115234Y0406510D03*
X0115236Y0366714D03*
X0121219Y0356707D03*
D16*
X0146528Y0350609D03*
X0146528Y0412617D03*
D17*
X0134520Y0404113D03*
X0134520Y0359113D03*
D18*
X0269928Y0339110D03*
X0276621Y0339110D03*
X0280774Y0327457D03*
X0280774Y0320764D03*
X0283658Y0296610D03*
X0276965Y0296610D03*
X0276965Y0289110D03*
X0283658Y0289110D03*
X0283658Y0279110D03*
X0276965Y0279110D03*
X0308678Y0317860D03*
X0315371Y0317860D03*
X0315371Y0329110D03*
X0308678Y0329110D03*
X0300371Y0348126D03*
X0293678Y0348126D03*
X0295371Y0380360D03*
X0288678Y0380360D03*
X0369524Y0368707D03*
X0369524Y0362014D03*
X0329977Y0164957D03*
X0323993Y0164957D03*
X0323993Y0158264D03*
X0329977Y0158264D03*
X0318009Y0158264D03*
X0312024Y0158264D03*
X0306040Y0158264D03*
X0300056Y0158264D03*
X0294072Y0158264D03*
X0294072Y0164957D03*
X0300056Y0164957D03*
X0306040Y0164957D03*
X0312024Y0164957D03*
X0318009Y0164957D03*
X0195961Y0164957D03*
X0189977Y0164957D03*
X0183993Y0164957D03*
X0178009Y0164957D03*
X0172024Y0164957D03*
X0172024Y0158264D03*
X0178009Y0158264D03*
X0183993Y0158264D03*
X0189977Y0158264D03*
X0195961Y0158264D03*
X0166040Y0158264D03*
X0160056Y0158264D03*
X0160056Y0164957D03*
X0166040Y0164957D03*
D19*
X0141532Y0150272D03*
X0141532Y0139248D03*
X0194682Y0139248D03*
X0194682Y0150272D03*
X0275390Y0150272D03*
X0275390Y0139248D03*
X0295075Y0139248D03*
X0295075Y0150272D03*
D20*
X0294524Y0283264D03*
X0294524Y0289957D03*
X0309524Y0289957D03*
X0309524Y0283264D03*
X0312024Y0303264D03*
X0312024Y0309957D03*
X0319524Y0309957D03*
X0319524Y0303264D03*
X0337024Y0302014D03*
X0337024Y0308707D03*
X0353678Y0304268D03*
X0360371Y0304268D03*
X0360371Y0314268D03*
X0353678Y0314268D03*
X0353678Y0294268D03*
X0360371Y0294268D03*
X0360371Y0284268D03*
X0353678Y0284268D03*
X0337024Y0283264D03*
X0337024Y0289957D03*
X0330774Y0330764D03*
X0330774Y0337457D03*
X0315774Y0337014D03*
X0315774Y0343707D03*
X0321178Y0364110D03*
X0321178Y0370360D03*
X0327871Y0370360D03*
X0327871Y0364110D03*
X0345774Y0364514D03*
X0345774Y0371207D03*
X0362024Y0368707D03*
X0362024Y0362014D03*
X0292024Y0334957D03*
X0292024Y0328264D03*
X0262211Y0388264D03*
X0262211Y0394957D03*
X0146572Y0319927D03*
X0139042Y0319927D03*
X0139042Y0313234D03*
X0146572Y0313234D03*
X0136621Y0379110D03*
X0129928Y0379110D03*
X0129928Y0387860D03*
X0136621Y0387860D03*
D21*
X0150774Y0389622D03*
X0150774Y0378598D03*
D22*
X0290224Y0370360D03*
X0290224Y0365360D03*
X0290224Y0360360D03*
X0290224Y0355360D03*
X0308824Y0355360D03*
X0308824Y0360360D03*
X0308824Y0365360D03*
X0308824Y0370360D03*
D23*
X0361847Y0376610D03*
X0373264Y0376610D03*
D24*
X0247438Y0191020D03*
X0247438Y0189051D03*
X0247438Y0187083D03*
X0247438Y0185114D03*
X0247438Y0183146D03*
X0247438Y0181177D03*
X0247438Y0179209D03*
X0247438Y0177240D03*
X0247438Y0175272D03*
X0247438Y0173303D03*
X0226572Y0173303D03*
X0226572Y0175272D03*
X0226572Y0177240D03*
X0226572Y0179209D03*
X0226572Y0181177D03*
X0226572Y0183146D03*
X0226572Y0185114D03*
X0226572Y0187083D03*
X0226572Y0189051D03*
X0226572Y0191020D03*
D25*
X0229524Y0195941D03*
X0229524Y0168382D03*
X0229524Y0321925D03*
X0229524Y0349484D03*
D26*
X0237005Y0353421D03*
X0237005Y0317988D03*
X0237005Y0199878D03*
X0237005Y0164445D03*
D27*
X0247438Y0326846D03*
X0247438Y0328815D03*
X0247438Y0330783D03*
X0247438Y0332752D03*
X0247438Y0334720D03*
X0247438Y0336689D03*
X0247438Y0338657D03*
X0247438Y0340626D03*
X0247438Y0342594D03*
X0247438Y0344563D03*
X0226572Y0344563D03*
X0226572Y0342594D03*
X0226572Y0340626D03*
X0226572Y0338657D03*
X0226572Y0336689D03*
X0226572Y0334720D03*
X0226572Y0332752D03*
X0226572Y0330783D03*
X0226572Y0328815D03*
X0226572Y0326846D03*
D28*
X0120863Y0335705D03*
X0120863Y0182161D03*
X0376768Y0182161D03*
X0376768Y0335705D03*
D29*
X0155213Y0300272D03*
X0141631Y0300272D03*
D30*
X0122831Y0125075D03*
X0111020Y0136886D03*
X0111020Y0160508D03*
X0158264Y0125075D03*
X0197635Y0125075D03*
X0237005Y0125075D03*
X0254721Y0142791D03*
X0276375Y0125075D03*
X0317713Y0125075D03*
X0355115Y0125075D03*
X0384642Y0154602D03*
X0384642Y0164445D03*
X0384642Y0213657D03*
X0384642Y0237280D03*
X0374800Y0247122D03*
X0359052Y0247122D03*
X0374800Y0266807D03*
X0384642Y0276650D03*
X0384642Y0314051D03*
X0384642Y0353421D03*
X0369524Y0357860D03*
X0345774Y0359110D03*
X0337024Y0337860D03*
X0337024Y0314110D03*
X0337024Y0295360D03*
X0319524Y0294110D03*
X0309524Y0296610D03*
X0302024Y0291610D03*
X0302024Y0304110D03*
X0302024Y0317860D03*
X0302024Y0329110D03*
X0302024Y0335360D03*
X0300774Y0342860D03*
X0305774Y0348126D03*
X0313274Y0350360D03*
X0315774Y0360360D03*
X0299524Y0359110D03*
X0303274Y0380360D03*
X0318274Y0392860D03*
X0334259Y0392860D03*
X0309839Y0412476D03*
X0270469Y0412476D03*
X0243274Y0395016D03*
X0231099Y0412476D03*
X0218274Y0398313D03*
X0191729Y0412476D03*
X0143274Y0387860D03*
X0143274Y0379110D03*
X0143274Y0367860D03*
X0111020Y0353421D03*
X0111020Y0314051D03*
X0130705Y0314051D03*
X0111020Y0276650D03*
X0120863Y0266807D03*
X0122831Y0247122D03*
X0111020Y0237280D03*
X0111020Y0213657D03*
X0162201Y0247122D03*
X0162201Y0266807D03*
X0188274Y0271610D03*
X0188274Y0277860D03*
X0199524Y0289110D03*
X0219524Y0291610D03*
X0244524Y0291610D03*
X0240942Y0266807D03*
X0240942Y0247122D03*
X0227418Y0225705D03*
X0227762Y0217594D03*
X0224524Y0200419D03*
X0201572Y0247122D03*
X0201572Y0266807D03*
X0188274Y0309110D03*
X0188274Y0315360D03*
X0220272Y0325862D03*
X0192713Y0349484D03*
X0112989Y0412476D03*
X0111020Y0392791D03*
X0280312Y0266807D03*
X0284524Y0284110D03*
X0280312Y0247122D03*
X0319682Y0247122D03*
X0319682Y0266807D03*
X0360745Y0224671D03*
X0361119Y0216856D03*
X0372103Y0385360D03*
X0384642Y0392791D03*
X0364957Y0412476D03*
M02*
