G75*
%MOIN*%
%OFA0B0*%
%FSLAX25Y25*%
%IPPOS*%
%LPD*%
%AMOC8*
5,1,8,0,0,1.08239X$1,22.5*
%
%ADD10C,0.01969*%
%ADD11C,0.06000*%
%ADD12C,0.04800*%
%ADD13C,0.07050*%
%ADD14C,0.06693*%
%ADD15C,0.05315*%
%ADD16C,0.09449*%
%ADD17C,0.12992*%
%ADD18R,0.03000X0.06500*%
%ADD19R,0.03937X0.04331*%
%ADD20R,0.04724X0.07874*%
%ADD21R,0.09449X0.07874*%
%ADD22R,0.04331X0.03937*%
%ADD23R,0.06500X0.08600*%
%ADD24R,0.03150X0.03150*%
%ADD25R,0.06900X0.01100*%
%ADD26R,0.01100X0.06900*%
%ADD27R,0.03937X0.03543*%
%ADD28C,0.03937*%
%ADD29R,0.03500X0.06400*%
%ADD30R,0.12500X0.06400*%
%ADD31C,0.02362*%
%ADD32C,0.23622*%
%ADD33C,0.05000*%
%ADD34C,0.02953*%
D10*
X0171060Y0112280D03*
X0174012Y0112280D03*
X0176965Y0112280D03*
X0176965Y0118185D03*
X0174012Y0118185D03*
X0171060Y0118185D03*
X0106099Y0171335D03*
X0106099Y0174287D03*
X0106099Y0177240D03*
X0100194Y0177240D03*
X0100194Y0174287D03*
X0100194Y0171335D03*
X0161217Y0254012D03*
X0164170Y0254012D03*
X0167123Y0254012D03*
X0167123Y0259917D03*
X0164170Y0259917D03*
X0161217Y0259917D03*
X0106099Y0356374D03*
X0106099Y0359327D03*
X0106099Y0362280D03*
X0100194Y0362280D03*
X0100194Y0359327D03*
X0100194Y0356374D03*
X0171060Y0419366D03*
X0174012Y0419366D03*
X0176965Y0419366D03*
X0176965Y0425272D03*
X0174012Y0425272D03*
X0171060Y0425272D03*
X0336414Y0425272D03*
X0339367Y0425272D03*
X0342320Y0425272D03*
X0342320Y0419366D03*
X0339367Y0419366D03*
X0336414Y0419366D03*
X0391532Y0362280D03*
X0391532Y0359327D03*
X0391532Y0356374D03*
X0397438Y0356374D03*
X0397438Y0359327D03*
X0397438Y0362280D03*
X0330509Y0259917D03*
X0327556Y0259917D03*
X0324603Y0259917D03*
X0324603Y0254012D03*
X0327556Y0254012D03*
X0330509Y0254012D03*
X0391532Y0177240D03*
X0391532Y0174287D03*
X0391532Y0171335D03*
X0397438Y0171335D03*
X0397438Y0174287D03*
X0397438Y0177240D03*
X0342320Y0118185D03*
X0339367Y0118185D03*
X0336414Y0118185D03*
X0336414Y0112280D03*
X0339367Y0112280D03*
X0342320Y0112280D03*
D11*
X0130024Y0298579D02*
X0124024Y0298579D01*
X0124024Y0308579D02*
X0130024Y0308579D01*
D12*
X0165449Y0200461D03*
X0175449Y0200461D03*
X0185449Y0200461D03*
X0195449Y0200461D03*
X0190449Y0190461D03*
X0180449Y0190461D03*
X0170449Y0190461D03*
X0160449Y0190461D03*
X0294308Y0190461D03*
X0304308Y0190461D03*
X0314308Y0190461D03*
X0324308Y0190461D03*
X0329308Y0200461D03*
X0319308Y0200461D03*
X0309308Y0200461D03*
X0299308Y0200461D03*
D13*
X0285808Y0140661D03*
X0151949Y0140661D03*
D14*
X0144780Y0182161D03*
X0155115Y0227437D03*
X0200784Y0227437D03*
X0211119Y0182161D03*
X0278638Y0182161D03*
X0288973Y0227437D03*
X0334642Y0227437D03*
X0344977Y0182161D03*
D15*
X0169520Y0364113D03*
X0169520Y0374113D03*
X0169520Y0384113D03*
X0169520Y0394113D03*
X0159520Y0389113D03*
X0159520Y0379113D03*
X0159520Y0369113D03*
X0159520Y0399113D03*
X0121221Y0396517D03*
X0115234Y0406510D03*
X0115236Y0366714D03*
X0121219Y0356707D03*
D16*
X0146528Y0350609D03*
X0146528Y0412617D03*
D17*
X0134520Y0404113D03*
X0134520Y0359113D03*
D18*
X0212792Y0355667D03*
X0217792Y0355667D03*
X0222792Y0355667D03*
X0227792Y0355667D03*
X0232792Y0355667D03*
X0237792Y0355667D03*
X0242792Y0355667D03*
X0247792Y0355667D03*
X0247792Y0389167D03*
X0242792Y0389167D03*
X0237792Y0389167D03*
X0232792Y0389167D03*
X0227792Y0389167D03*
X0222792Y0389167D03*
X0217792Y0389167D03*
X0212792Y0389167D03*
X0213717Y0316028D03*
X0218717Y0316028D03*
X0223717Y0316028D03*
X0228717Y0316028D03*
X0233717Y0316028D03*
X0238717Y0316028D03*
X0243717Y0316028D03*
X0248717Y0316028D03*
X0248717Y0282528D03*
X0243717Y0282528D03*
X0238717Y0282528D03*
X0233717Y0282528D03*
X0228717Y0282528D03*
X0223717Y0282528D03*
X0218717Y0282528D03*
X0213717Y0282528D03*
D19*
X0188274Y0284514D03*
X0188274Y0291207D03*
X0193727Y0320764D03*
X0193727Y0327457D03*
X0157024Y0327014D03*
X0157024Y0333707D03*
X0183678Y0366423D03*
X0190371Y0366423D03*
X0190371Y0378923D03*
X0183678Y0378923D03*
X0183678Y0386423D03*
X0190371Y0386423D03*
X0190371Y0398923D03*
X0183678Y0398923D03*
X0258717Y0397441D03*
X0265410Y0397441D03*
X0265410Y0387063D03*
X0258717Y0387063D03*
X0264928Y0344110D03*
X0271621Y0344110D03*
X0271621Y0332860D03*
X0264928Y0332860D03*
X0266621Y0300360D03*
X0259928Y0300360D03*
X0259928Y0291610D03*
X0266621Y0291610D03*
X0266621Y0282860D03*
X0259928Y0282860D03*
X0259928Y0272860D03*
X0266621Y0272860D03*
X0240351Y0225469D03*
X0233658Y0225469D03*
X0233658Y0217594D03*
X0240351Y0217594D03*
X0151306Y0270764D03*
X0151306Y0277457D03*
X0137949Y0274110D03*
X0131257Y0274110D03*
X0367123Y0224287D03*
X0373816Y0224287D03*
X0373816Y0216807D03*
X0367123Y0216807D03*
D20*
X0199524Y0296098D03*
X0199524Y0307122D03*
X0199524Y0351443D03*
X0199524Y0362467D03*
D21*
X0144524Y0311591D03*
X0144524Y0296630D03*
D22*
X0137871Y0286876D03*
X0137871Y0280360D03*
X0131178Y0280360D03*
X0131178Y0286876D03*
X0183678Y0360173D03*
X0190371Y0360173D03*
X0190371Y0407673D03*
X0183678Y0407673D03*
X0296178Y0387860D03*
X0302871Y0387860D03*
X0308678Y0387860D03*
X0315371Y0387860D03*
X0323274Y0387014D03*
X0329259Y0387014D03*
X0329259Y0393707D03*
X0323274Y0393707D03*
D23*
X0144524Y0339560D03*
X0144524Y0326160D03*
D24*
X0125774Y0274110D03*
X0119869Y0274110D03*
X0234052Y0231374D03*
X0239957Y0231374D03*
X0239957Y0209720D03*
X0234052Y0209720D03*
X0367910Y0209720D03*
X0373816Y0209720D03*
X0373816Y0231374D03*
X0367910Y0231374D03*
D25*
X0353824Y0290193D03*
X0353824Y0292161D03*
X0353824Y0294130D03*
X0353824Y0296098D03*
X0353824Y0298067D03*
X0353824Y0300035D03*
X0353824Y0302004D03*
X0353824Y0303972D03*
X0353824Y0305941D03*
X0353824Y0307909D03*
X0353824Y0309878D03*
X0353824Y0311846D03*
X0353824Y0313815D03*
X0353824Y0315783D03*
X0353824Y0317752D03*
X0353824Y0319720D03*
X0353824Y0321689D03*
X0353824Y0323657D03*
X0353824Y0325626D03*
X0353824Y0327594D03*
X0353824Y0329563D03*
X0353824Y0331531D03*
X0353824Y0333500D03*
X0353824Y0335469D03*
X0353824Y0337437D03*
X0353824Y0339406D03*
X0353824Y0341374D03*
X0353824Y0343343D03*
X0353824Y0345311D03*
X0353824Y0347280D03*
X0353824Y0349248D03*
X0353824Y0351217D03*
X0353824Y0353185D03*
X0353824Y0355154D03*
X0353824Y0357122D03*
X0353824Y0359091D03*
X0353824Y0361059D03*
X0353824Y0363028D03*
X0290224Y0363028D03*
X0290224Y0361059D03*
X0290224Y0359091D03*
X0290224Y0357122D03*
X0290224Y0355154D03*
X0290224Y0353185D03*
X0290224Y0351217D03*
X0290224Y0349248D03*
X0290224Y0347280D03*
X0290224Y0345311D03*
X0290224Y0343343D03*
X0290224Y0341374D03*
X0290224Y0339406D03*
X0290224Y0337437D03*
X0290224Y0335469D03*
X0290224Y0333500D03*
X0290224Y0331531D03*
X0290224Y0329563D03*
X0290224Y0327594D03*
X0290224Y0325626D03*
X0290224Y0323657D03*
X0290224Y0321689D03*
X0290224Y0319720D03*
X0290224Y0317752D03*
X0290224Y0315783D03*
X0290224Y0313815D03*
X0290224Y0311846D03*
X0290224Y0309878D03*
X0290224Y0307909D03*
X0290224Y0305941D03*
X0290224Y0303972D03*
X0290224Y0302004D03*
X0290224Y0300035D03*
X0290224Y0298067D03*
X0290224Y0296098D03*
X0290224Y0294130D03*
X0290224Y0292161D03*
X0290224Y0290193D03*
D26*
X0297418Y0283010D03*
X0299386Y0283010D03*
X0301355Y0283010D03*
X0303323Y0283010D03*
X0305292Y0283010D03*
X0307260Y0283010D03*
X0309229Y0283010D03*
X0311198Y0283010D03*
X0313166Y0283010D03*
X0315135Y0283010D03*
X0317103Y0283010D03*
X0319072Y0283010D03*
X0321040Y0283010D03*
X0323009Y0283010D03*
X0324977Y0283010D03*
X0326946Y0283010D03*
X0328914Y0283010D03*
X0330883Y0283010D03*
X0332851Y0283010D03*
X0334820Y0283010D03*
X0336788Y0283010D03*
X0338757Y0283010D03*
X0340725Y0283010D03*
X0342694Y0283010D03*
X0344662Y0283010D03*
X0346631Y0283010D03*
X0346631Y0370210D03*
X0344662Y0370210D03*
X0342694Y0370210D03*
X0340725Y0370210D03*
X0338757Y0370210D03*
X0336788Y0370210D03*
X0334820Y0370210D03*
X0332851Y0370210D03*
X0330883Y0370210D03*
X0328914Y0370210D03*
X0326946Y0370210D03*
X0324977Y0370210D03*
X0323009Y0370210D03*
X0321040Y0370210D03*
X0319072Y0370210D03*
X0317103Y0370210D03*
X0315135Y0370210D03*
X0313166Y0370210D03*
X0311198Y0370210D03*
X0309229Y0370210D03*
X0307260Y0370210D03*
X0305292Y0370210D03*
X0303323Y0370210D03*
X0301355Y0370210D03*
X0299386Y0370210D03*
X0297418Y0370210D03*
D27*
X0302133Y0393559D03*
X0302133Y0399661D03*
X0309416Y0399661D03*
X0309416Y0393559D03*
D28*
X0095272Y0107358D03*
X0402359Y0107358D03*
X0402359Y0430193D03*
X0095272Y0430193D03*
D29*
X0166674Y0311510D03*
X0175774Y0311510D03*
X0184874Y0311510D03*
X0179874Y0276510D03*
X0170774Y0276510D03*
X0161674Y0276510D03*
D30*
X0170774Y0301710D03*
X0175774Y0336710D03*
D31*
X0229524Y0349484D03*
X0229524Y0321925D03*
X0229524Y0195941D03*
X0229524Y0168382D03*
D32*
X0120863Y0182161D03*
X0120863Y0335705D03*
X0376768Y0335705D03*
X0376768Y0182161D03*
D33*
X0372831Y0275665D03*
X0372831Y0284268D03*
X0372831Y0294268D03*
X0372831Y0304268D03*
X0372831Y0314268D03*
D34*
X0384642Y0314051D03*
X0384642Y0276650D03*
X0374800Y0266807D03*
X0374800Y0247122D03*
X0384642Y0237280D03*
X0384642Y0213657D03*
X0361119Y0216856D03*
X0360745Y0224671D03*
X0359052Y0247122D03*
X0319682Y0247122D03*
X0319682Y0266807D03*
X0302024Y0291610D03*
X0309524Y0296610D03*
X0319524Y0294110D03*
X0337024Y0295360D03*
X0337024Y0314110D03*
X0337024Y0337860D03*
X0345774Y0359110D03*
X0369524Y0357860D03*
X0384642Y0353421D03*
X0372103Y0385360D03*
X0384642Y0392791D03*
X0364957Y0412476D03*
X0334259Y0392860D03*
X0318274Y0392860D03*
X0303274Y0380360D03*
X0299524Y0359110D03*
X0305774Y0348126D03*
X0313274Y0350360D03*
X0315774Y0360360D03*
X0300774Y0342860D03*
X0302024Y0335360D03*
X0302024Y0329110D03*
X0302024Y0317860D03*
X0302024Y0304110D03*
X0284524Y0284110D03*
X0280312Y0266807D03*
X0280312Y0247122D03*
X0240942Y0247122D03*
X0240942Y0266807D03*
X0244524Y0291610D03*
X0219524Y0291610D03*
X0199524Y0289110D03*
X0188274Y0277860D03*
X0188274Y0271610D03*
X0201572Y0266807D03*
X0201572Y0247122D03*
X0227418Y0225705D03*
X0227762Y0217594D03*
X0224524Y0200419D03*
X0254721Y0142791D03*
X0237005Y0125075D03*
X0197635Y0125075D03*
X0158264Y0125075D03*
X0122831Y0125075D03*
X0111020Y0136886D03*
X0111020Y0160508D03*
X0111020Y0213657D03*
X0111020Y0237280D03*
X0122831Y0247122D03*
X0120863Y0266807D03*
X0111020Y0276650D03*
X0111020Y0314051D03*
X0130705Y0314051D03*
X0111020Y0353421D03*
X0143274Y0367860D03*
X0143274Y0379110D03*
X0143274Y0387860D03*
X0112989Y0412476D03*
X0111020Y0392791D03*
X0191729Y0412476D03*
X0218274Y0398313D03*
X0231099Y0412476D03*
X0243274Y0395016D03*
X0270469Y0412476D03*
X0309839Y0412476D03*
X0220272Y0325862D03*
X0192713Y0349484D03*
X0188274Y0315360D03*
X0188274Y0309110D03*
X0162201Y0266807D03*
X0162201Y0247122D03*
X0276375Y0125075D03*
X0317713Y0125075D03*
X0355115Y0125075D03*
X0384642Y0154602D03*
X0384642Y0164445D03*
M02*
