%
M48
M72
T01C0.01378
T02C0.01969
T03C0.02362
T04C0.03200
T05C0.03543
T06C0.04000
T07C0.04700
T08C0.06299
T09C0.06693
T10C0.11811
T11C0.12992
%
T01
X162024Y172860
X179465Y175301
X183993Y179110
X189524Y175360
X217320Y182161
X220272Y175272
X251768Y192004
X262595Y182161
X258658Y176256
X254721Y167398
X262398Y166610
X263461Y219110
X278461Y236610
X270774Y272860
X270774Y282860
X272024Y291610
X267024Y305360
X254721Y326846
X258658Y330783
X256690Y335705
X251768Y333736
X259642Y345547
X264564Y350469
X261906Y353421
X275774Y344110
X275774Y332860
X280774Y331610
X242024Y307142
X214367Y327831
X211808Y333492
X217320Y333736
X221257Y337673
X219524Y361610
X213274Y395547
X227024Y396207
X258274Y382860
X259642Y378028
X264564Y375892
X269711Y397594
X322024Y379110
X320774Y357860
X327024Y357860
X333274Y357860
X339524Y357860
X355774Y385360
X348274Y390360
X362024Y392860
X364524Y399110
X332024Y409110
X328087Y404110
X366926Y314268
X366926Y304268
X366926Y294268
X366926Y284268
X317024Y175360
X230184Y276482
X213717Y277949
X179524Y366423
X179524Y378923
X179524Y386423
X179524Y398923
X145774Y395360
T02
X122831Y125075
X111020Y136886
X111020Y160508
X106099Y171335
X106099Y174287
X106099Y177240
X100194Y177240
X100194Y174287
X100194Y171335
X111020Y213657
X111020Y237280
X122831Y247122
X120863Y266807
X111020Y276650
X111020Y314051
X130705Y314051
X111020Y353421
X106099Y356374
X106099Y359327
X106099Y362280
X100194Y362280
X100194Y359327
X100194Y356374
X111020Y392791
X112989Y412476
X143274Y387860
X143274Y379110
X143274Y367860
X191729Y412476
X176965Y419366
X174012Y419366
X171060Y419366
X171060Y425272
X174012Y425272
X176965Y425272
X218274Y398313
X231099Y412476
X243274Y395016
X270469Y412476
X303274Y380360
X318274Y392860
X334259Y392860
X336414Y419366
X339367Y419366
X342320Y419366
X342320Y425272
X339367Y425272
X336414Y425272
X309839Y412476
X315774Y360360
X313274Y350360
X305774Y348126
X300774Y342860
X302024Y335360
X302024Y329110
X302024Y317860
X302024Y304110
X309524Y296610
X302024Y291610
X284524Y284110
X280312Y266807
X280312Y247122
X319682Y247122
X324603Y254012
X327556Y254012
X330509Y254012
X330509Y259917
X327556Y259917
X324603Y259917
X319682Y266807
X319524Y294110
X337024Y295360
X337024Y314110
X337024Y337860
X345774Y359110
X369524Y357860
X384642Y353421
X391532Y356374
X391532Y359327
X391532Y362280
X397438Y362280
X397438Y359327
X397438Y356374
X372103Y385360
X384642Y392791
X364957Y412476
X299524Y359110
X244524Y291610
X219524Y291610
X199524Y289110
X188274Y277860
X188274Y271610
X201572Y266807
X201572Y247122
X227418Y225705
X227762Y217594
X224524Y200419
X240942Y247122
X240942Y266807
X188274Y309110
X188274Y315360
X220272Y325862
X192713Y349484
X162201Y266807
X161217Y259917
X164170Y259917
X167123Y259917
X167123Y254012
X164170Y254012
X161217Y254012
X162201Y247122
X254721Y142791
X237005Y125075
X197635Y125075
X176965Y118185
X174012Y118185
X171060Y118185
X171060Y112280
X174012Y112280
X176965Y112280
X158264Y125075
X276375Y125075
X317713Y125075
X336414Y118185
X339367Y118185
X342320Y118185
X342320Y112280
X339367Y112280
X336414Y112280
X355115Y125075
X384642Y154602
X384642Y164445
X391532Y171335
X391532Y174287
X391532Y177240
X397438Y177240
X397438Y174287
X397438Y171335
X384642Y213657
X384642Y237280
X374800Y247122
X359052Y247122
X374800Y266807
X384642Y276650
X384642Y314051
X360745Y224671
X361119Y216856
T03
X229524Y195941
X229524Y168382
X229524Y321925
X229524Y349484
T04
X195449Y200461
X185449Y200461
X175449Y200461
X165449Y200461
X160449Y190461
X170449Y190461
X180449Y190461
X190449Y190461
X294308Y190461
X304308Y190461
X314308Y190461
X324308Y190461
X329308Y200461
X319308Y200461
X309308Y200461
X299308Y200461
T05
X169520Y364113
X169520Y374113
X169520Y384113
X169520Y394113
X159520Y389113
X159520Y379113
X159520Y369113
X159520Y399113
X121221Y396517
X115234Y406510
X115236Y366714
X121219Y356707
T06
X127024Y308579
X127024Y298579
T07
X151949Y140661
X285808Y140661
T08
X146528Y350609
X146528Y412617
T09
X155115Y227437
X200784Y227437
X211119Y182161
X144780Y182161
X278638Y182161
X288973Y227437
X334642Y227437
X344977Y182161
T10
X376768Y182161
X376768Y335705
X120863Y335705
X120863Y182161
T11
X134520Y359113
X134520Y404113
M30
