G75*
%MOIN*%
%OFA0B0*%
%FSLAX25Y25*%
%IPPOS*%
%LPD*%
%AMOC8*
5,1,8,0,0,1.08239X$1,22.5*
%
%ADD10C,0.00400*%
%ADD11C,0.06000*%
%ADD12C,0.04800*%
%ADD13C,0.07050*%
%ADD14C,0.05315*%
%ADD15C,0.09449*%
%ADD16C,0.17717*%
%ADD17C,0.01600*%
%ADD18C,0.02953*%
%ADD19C,0.02362*%
%ADD20C,0.01000*%
D10*
X0135276Y0427893D02*
X0134509Y0428660D01*
X0135276Y0427893D02*
X0136811Y0427893D01*
X0137578Y0428660D01*
X0137578Y0429428D01*
X0136811Y0430195D01*
X0136044Y0430195D01*
X0136811Y0430195D02*
X0137578Y0430962D01*
X0137578Y0431730D01*
X0136811Y0432497D01*
X0135276Y0432497D01*
X0134509Y0431730D01*
D11*
X0127024Y0308579D03*
X0127024Y0298579D03*
D12*
X0165449Y0200461D03*
X0175449Y0200461D03*
X0185449Y0200461D03*
X0195449Y0200461D03*
X0190449Y0190461D03*
X0180449Y0190461D03*
X0170449Y0190461D03*
X0160449Y0190461D03*
X0294308Y0190461D03*
X0304308Y0190461D03*
X0314308Y0190461D03*
X0324308Y0190461D03*
X0329308Y0200461D03*
X0319308Y0200461D03*
X0309308Y0200461D03*
X0299308Y0200461D03*
D13*
X0285808Y0140661D03*
X0151949Y0140661D03*
D14*
X0121219Y0356707D03*
X0115236Y0366714D03*
X0121221Y0396517D03*
X0115234Y0406510D03*
X0159520Y0399113D03*
X0159520Y0389113D03*
X0159520Y0379113D03*
X0159520Y0369113D03*
X0169520Y0364113D03*
X0169520Y0374113D03*
X0169520Y0384113D03*
X0169520Y0394113D03*
D15*
X0146528Y0412617D03*
X0146528Y0350609D03*
D16*
X0120863Y0335705D03*
X0120863Y0182161D03*
X0376768Y0182161D03*
X0376768Y0335705D03*
D17*
X0366887Y0332985D02*
X0346073Y0332985D01*
X0346415Y0333327D02*
X0345307Y0332220D01*
X0298915Y0332220D01*
X0298915Y0314893D01*
X0307807Y0306001D01*
X0325307Y0306001D01*
X0326415Y0304893D01*
X0326415Y0288327D01*
X0325307Y0287220D01*
X0322807Y0284720D01*
X0291241Y0284720D01*
X0290134Y0285827D01*
X0290134Y0299720D01*
X0178741Y0299720D01*
X0177634Y0300827D01*
X0177634Y0322393D01*
X0178741Y0323501D01*
X0218301Y0323501D01*
X0217893Y0323909D01*
X0217557Y0324411D01*
X0217326Y0324969D01*
X0217209Y0325560D01*
X0217209Y0325862D01*
X0220272Y0325862D01*
X0220272Y0325862D01*
X0217209Y0325862D01*
X0217209Y0326164D01*
X0217326Y0326756D01*
X0217557Y0327313D01*
X0217893Y0327815D01*
X0218319Y0328242D01*
X0218821Y0328577D01*
X0219379Y0328808D01*
X0219971Y0328926D01*
X0220272Y0328926D01*
X0220272Y0325862D01*
X0220272Y0325862D01*
X0220272Y0325862D01*
X0223336Y0325862D01*
X0223336Y0325560D01*
X0223218Y0324969D01*
X0222987Y0324411D01*
X0222652Y0323909D01*
X0222244Y0323501D01*
X0226967Y0323501D01*
X0227010Y0323605D01*
X0227845Y0324439D01*
X0228934Y0324891D01*
X0230114Y0324891D01*
X0231204Y0324439D01*
X0232038Y0323605D01*
X0232081Y0323501D01*
X0283741Y0323501D01*
X0285134Y0324893D01*
X0285134Y0382393D01*
X0286241Y0383501D01*
X0288741Y0386001D01*
X0307807Y0386001D01*
X0308915Y0384893D01*
X0308915Y0368501D01*
X0320307Y0368501D01*
X0321415Y0367393D01*
X0321415Y0360378D01*
X0322231Y0360040D01*
X0322954Y0359317D01*
X0323346Y0358372D01*
X0323346Y0357349D01*
X0322954Y0356404D01*
X0322231Y0355680D01*
X0321415Y0355342D01*
X0321415Y0353327D01*
X0320307Y0352220D01*
X0315717Y0352220D01*
X0315989Y0351811D01*
X0316220Y0351254D01*
X0316338Y0350662D01*
X0316338Y0350360D01*
X0313274Y0350360D01*
X0313274Y0350360D01*
X0313274Y0347296D01*
X0312973Y0347296D01*
X0312381Y0347414D01*
X0311823Y0347645D01*
X0311321Y0347980D01*
X0310894Y0348407D01*
X0310559Y0348909D01*
X0310328Y0349467D01*
X0310210Y0350058D01*
X0310210Y0350360D01*
X0313274Y0350360D01*
X0313274Y0350360D01*
X0310210Y0350360D01*
X0310210Y0350662D01*
X0310328Y0351254D01*
X0310559Y0351811D01*
X0310832Y0352220D01*
X0298915Y0352220D01*
X0298915Y0345303D01*
X0299323Y0345575D01*
X0299881Y0345806D01*
X0300473Y0345924D01*
X0300774Y0345924D01*
X0300774Y0342860D01*
X0300774Y0342860D01*
X0300774Y0342860D01*
X0303838Y0342860D01*
X0303838Y0342558D01*
X0303777Y0342251D01*
X0345307Y0342251D01*
X0346415Y0341143D01*
X0346415Y0333327D01*
X0346415Y0334584D02*
X0366520Y0334584D01*
X0366520Y0334355D02*
X0367218Y0331749D01*
X0368567Y0329412D01*
X0370475Y0327504D01*
X0372812Y0326154D01*
X0375419Y0325456D01*
X0378118Y0325456D01*
X0380724Y0326154D01*
X0382452Y0327152D01*
X0382452Y0315915D01*
X0382212Y0315675D01*
X0381775Y0314621D01*
X0381775Y0313481D01*
X0382212Y0312427D01*
X0382452Y0312187D01*
X0382452Y0278513D01*
X0382212Y0278274D01*
X0381775Y0277220D01*
X0381775Y0276881D01*
X0374569Y0269674D01*
X0374230Y0269674D01*
X0373176Y0269238D01*
X0372936Y0268998D01*
X0321546Y0268998D01*
X0321306Y0269238D01*
X0320252Y0269674D01*
X0319111Y0269674D01*
X0318058Y0269238D01*
X0317818Y0268998D01*
X0282176Y0268998D01*
X0281936Y0269238D01*
X0280882Y0269674D01*
X0279741Y0269674D01*
X0278688Y0269238D01*
X0278448Y0268998D01*
X0242805Y0268998D01*
X0242566Y0269238D01*
X0241512Y0269674D01*
X0240371Y0269674D01*
X0239318Y0269238D01*
X0239078Y0268998D01*
X0203435Y0268998D01*
X0203195Y0269238D01*
X0202142Y0269674D01*
X0201001Y0269674D01*
X0199948Y0269238D01*
X0199708Y0268998D01*
X0189879Y0268998D01*
X0190227Y0269230D01*
X0190654Y0269657D01*
X0190989Y0270159D01*
X0191220Y0270717D01*
X0191338Y0271308D01*
X0191338Y0271610D01*
X0188274Y0271610D01*
X0185210Y0271610D01*
X0185210Y0271308D01*
X0185328Y0270717D01*
X0185559Y0270159D01*
X0185894Y0269657D01*
X0186321Y0269230D01*
X0186670Y0268998D01*
X0164065Y0268998D01*
X0163825Y0269238D01*
X0162772Y0269674D01*
X0161631Y0269674D01*
X0160577Y0269238D01*
X0160338Y0268998D01*
X0122727Y0268998D01*
X0122487Y0269238D01*
X0121433Y0269674D01*
X0121094Y0269674D01*
X0113887Y0276881D01*
X0113887Y0277220D01*
X0113451Y0278274D01*
X0113211Y0278513D01*
X0113211Y0312187D01*
X0113451Y0312427D01*
X0113887Y0313481D01*
X0113887Y0314621D01*
X0113451Y0315675D01*
X0113211Y0315915D01*
X0113211Y0328863D01*
X0114570Y0327504D01*
X0116907Y0326154D01*
X0119514Y0325456D01*
X0122212Y0325456D01*
X0124819Y0326154D01*
X0127156Y0327504D01*
X0129064Y0329412D01*
X0130413Y0331749D01*
X0131112Y0334355D01*
X0131112Y0337054D01*
X0130413Y0339661D01*
X0129064Y0341998D01*
X0127156Y0343906D01*
X0124819Y0345255D01*
X0122212Y0345954D01*
X0119514Y0345954D01*
X0116907Y0345255D01*
X0114570Y0343906D01*
X0113211Y0342547D01*
X0113211Y0351557D01*
X0113451Y0351797D01*
X0113887Y0352851D01*
X0113887Y0353992D01*
X0113451Y0355045D01*
X0113211Y0355285D01*
X0113211Y0363172D01*
X0114431Y0362666D01*
X0116042Y0362666D01*
X0117529Y0363282D01*
X0118668Y0364421D01*
X0119284Y0365909D01*
X0119284Y0367519D01*
X0118668Y0369007D01*
X0117529Y0370146D01*
X0116042Y0370762D01*
X0114431Y0370762D01*
X0113211Y0370257D01*
X0113211Y0390927D01*
X0113451Y0391167D01*
X0113887Y0392221D01*
X0113887Y0393362D01*
X0113451Y0394415D01*
X0113211Y0394655D01*
X0113211Y0402967D01*
X0114429Y0402462D01*
X0116040Y0402462D01*
X0117527Y0403078D01*
X0118666Y0404217D01*
X0119282Y0405705D01*
X0119282Y0407315D01*
X0118666Y0408803D01*
X0117527Y0409942D01*
X0116697Y0410286D01*
X0128983Y0410286D01*
X0127500Y0408804D01*
X0126240Y0405760D01*
X0126240Y0402466D01*
X0127500Y0399423D01*
X0129830Y0397094D01*
X0132873Y0395833D01*
X0136167Y0395833D01*
X0139211Y0397094D01*
X0141540Y0399423D01*
X0142800Y0402466D01*
X0142800Y0405760D01*
X0141540Y0408804D01*
X0140058Y0410286D01*
X0140875Y0410286D01*
X0141344Y0409153D01*
X0143064Y0407433D01*
X0145312Y0406502D01*
X0147744Y0406502D01*
X0149992Y0407433D01*
X0151712Y0409153D01*
X0152239Y0410427D01*
X0189724Y0410427D01*
X0190105Y0410046D01*
X0191159Y0409609D01*
X0192299Y0409609D01*
X0193353Y0410046D01*
X0193593Y0410286D01*
X0229235Y0410286D01*
X0229475Y0410046D01*
X0230529Y0409609D01*
X0231669Y0409609D01*
X0232723Y0410046D01*
X0232963Y0410286D01*
X0268605Y0410286D01*
X0268845Y0410046D01*
X0269899Y0409609D01*
X0271039Y0409609D01*
X0272093Y0410046D01*
X0272333Y0410286D01*
X0307975Y0410286D01*
X0308215Y0410046D01*
X0309269Y0409609D01*
X0310409Y0409609D01*
X0311463Y0410046D01*
X0311703Y0410286D01*
X0329728Y0410286D01*
X0329453Y0409622D01*
X0329453Y0408599D01*
X0329844Y0407654D01*
X0330568Y0406930D01*
X0331513Y0406539D01*
X0332536Y0406539D01*
X0333481Y0406930D01*
X0334204Y0407654D01*
X0334596Y0408599D01*
X0334596Y0409622D01*
X0334321Y0410286D01*
X0363093Y0410286D01*
X0363333Y0410046D01*
X0364387Y0409609D01*
X0364726Y0409609D01*
X0381775Y0392560D01*
X0381775Y0392221D01*
X0382212Y0391167D01*
X0382452Y0390927D01*
X0382452Y0355285D01*
X0382212Y0355045D01*
X0381775Y0353992D01*
X0381775Y0352851D01*
X0382212Y0351797D01*
X0382452Y0351557D01*
X0382452Y0344258D01*
X0380724Y0345255D01*
X0378118Y0345954D01*
X0375419Y0345954D01*
X0372812Y0345255D01*
X0370475Y0343906D01*
X0368567Y0341998D01*
X0367218Y0339661D01*
X0366520Y0337054D01*
X0366520Y0334355D01*
X0366520Y0336182D02*
X0346415Y0336182D01*
X0346415Y0337781D02*
X0366714Y0337781D01*
X0367143Y0339379D02*
X0346415Y0339379D01*
X0346415Y0340978D02*
X0367979Y0340978D01*
X0369146Y0342577D02*
X0303838Y0342577D01*
X0303838Y0342860D02*
X0303838Y0343162D01*
X0303720Y0343754D01*
X0303489Y0344311D01*
X0303154Y0344813D01*
X0302727Y0345240D01*
X0302226Y0345575D01*
X0301668Y0345806D01*
X0301076Y0345924D01*
X0300774Y0345924D01*
X0300774Y0342860D01*
X0303838Y0342860D01*
X0303546Y0344175D02*
X0370942Y0344175D01*
X0374747Y0345774D02*
X0307755Y0345774D01*
X0307727Y0345746D02*
X0308154Y0346173D01*
X0308489Y0346675D01*
X0308720Y0347232D01*
X0308838Y0347824D01*
X0308838Y0348126D01*
X0308838Y0348428D01*
X0308720Y0349020D01*
X0308489Y0349577D01*
X0308154Y0350079D01*
X0307727Y0350506D01*
X0307226Y0350841D01*
X0306668Y0351072D01*
X0306076Y0351190D01*
X0305774Y0351190D01*
X0305473Y0351190D01*
X0304881Y0351072D01*
X0304323Y0350841D01*
X0303821Y0350506D01*
X0303394Y0350079D01*
X0303059Y0349577D01*
X0302828Y0349020D01*
X0302710Y0348428D01*
X0302710Y0348126D01*
X0302710Y0347824D01*
X0302828Y0347232D01*
X0303059Y0346675D01*
X0303394Y0346173D01*
X0303821Y0345746D01*
X0304323Y0345411D01*
X0304881Y0345180D01*
X0305473Y0345062D01*
X0305774Y0345062D01*
X0305774Y0348126D01*
X0305774Y0348126D01*
X0302710Y0348126D01*
X0305774Y0348126D01*
X0305774Y0351190D01*
X0305774Y0348126D01*
X0305774Y0348126D01*
X0305774Y0348126D01*
X0305774Y0345062D01*
X0306076Y0345062D01*
X0306668Y0345180D01*
X0307226Y0345411D01*
X0307727Y0345746D01*
X0308748Y0347372D02*
X0312592Y0347372D01*
X0313274Y0347372D02*
X0313274Y0347372D01*
X0313274Y0347296D02*
X0313576Y0347296D01*
X0314168Y0347414D01*
X0314726Y0347645D01*
X0315227Y0347980D01*
X0315654Y0348407D01*
X0315989Y0348909D01*
X0316220Y0349467D01*
X0316338Y0350058D01*
X0316338Y0350360D01*
X0313274Y0350360D01*
X0313274Y0347296D01*
X0313956Y0347372D02*
X0382452Y0347372D01*
X0382452Y0345774D02*
X0378789Y0345774D01*
X0382452Y0348971D02*
X0316015Y0348971D01*
X0316338Y0350569D02*
X0382452Y0350569D01*
X0382059Y0352168D02*
X0315751Y0352168D01*
X0313274Y0350360D02*
X0313274Y0350360D01*
X0313274Y0348971D02*
X0313274Y0348971D01*
X0310534Y0348971D02*
X0308730Y0348971D01*
X0308838Y0348126D02*
X0305774Y0348126D01*
X0305774Y0348126D01*
X0308838Y0348126D01*
X0307633Y0350569D02*
X0310210Y0350569D01*
X0310797Y0352168D02*
X0298915Y0352168D01*
X0298915Y0350569D02*
X0303916Y0350569D01*
X0305774Y0350569D02*
X0305774Y0350569D01*
X0305774Y0348971D02*
X0305774Y0348971D01*
X0305774Y0347372D02*
X0305774Y0347372D01*
X0305774Y0345774D02*
X0305774Y0345774D01*
X0303794Y0345774D02*
X0301747Y0345774D01*
X0300774Y0345774D02*
X0300774Y0345774D01*
X0299802Y0345774D02*
X0298915Y0345774D01*
X0298915Y0347372D02*
X0302800Y0347372D01*
X0302818Y0348971D02*
X0298915Y0348971D01*
X0300774Y0344175D02*
X0300774Y0344175D01*
X0301723Y0332174D02*
X0301131Y0332056D01*
X0300573Y0331825D01*
X0300071Y0331490D01*
X0299644Y0331063D01*
X0299309Y0330561D01*
X0299078Y0330004D01*
X0298960Y0329412D01*
X0298960Y0329110D01*
X0298960Y0328808D01*
X0299078Y0328217D01*
X0299309Y0327659D01*
X0299644Y0327157D01*
X0300071Y0326730D01*
X0300573Y0326395D01*
X0301131Y0326164D01*
X0301723Y0326046D01*
X0302024Y0326046D01*
X0302024Y0329110D01*
X0302024Y0329110D01*
X0298960Y0329110D01*
X0302024Y0329110D01*
X0302024Y0329110D01*
X0302024Y0326046D01*
X0302326Y0326046D01*
X0302918Y0326164D01*
X0303476Y0326395D01*
X0303977Y0326730D01*
X0304404Y0327157D01*
X0304739Y0327659D01*
X0304970Y0328217D01*
X0305088Y0328808D01*
X0305088Y0329110D01*
X0302024Y0329110D01*
X0302024Y0332174D01*
X0301723Y0332174D01*
X0302024Y0332174D02*
X0302326Y0332174D01*
X0302918Y0332056D01*
X0303476Y0331825D01*
X0303977Y0331490D01*
X0304404Y0331063D01*
X0304739Y0330561D01*
X0304970Y0330004D01*
X0305088Y0329412D01*
X0305088Y0329110D01*
X0302024Y0329110D01*
X0302024Y0329110D01*
X0302024Y0329110D01*
X0302024Y0332174D01*
X0302024Y0331387D02*
X0302024Y0331387D01*
X0302024Y0329788D02*
X0302024Y0329788D01*
X0302024Y0328190D02*
X0302024Y0328190D01*
X0302024Y0326591D02*
X0302024Y0326591D01*
X0300279Y0326591D02*
X0298915Y0326591D01*
X0298915Y0324993D02*
X0382452Y0324993D01*
X0382452Y0326591D02*
X0381481Y0326591D01*
X0382452Y0323394D02*
X0298915Y0323394D01*
X0298915Y0321796D02*
X0382452Y0321796D01*
X0382452Y0320197D02*
X0304020Y0320197D01*
X0303977Y0320240D02*
X0303476Y0320575D01*
X0302918Y0320806D01*
X0302326Y0320924D01*
X0302024Y0320924D01*
X0301723Y0320924D01*
X0301131Y0320806D01*
X0300573Y0320575D01*
X0300071Y0320240D01*
X0299644Y0319813D01*
X0299309Y0319311D01*
X0299078Y0318754D01*
X0298960Y0318162D01*
X0298960Y0317860D01*
X0298960Y0317558D01*
X0299078Y0316967D01*
X0299309Y0316409D01*
X0299644Y0315907D01*
X0300071Y0315480D01*
X0300573Y0315145D01*
X0301131Y0314914D01*
X0301723Y0314796D01*
X0302024Y0314796D01*
X0302024Y0317860D01*
X0302024Y0317860D01*
X0298960Y0317860D01*
X0302024Y0317860D01*
X0302024Y0317860D01*
X0302024Y0314796D01*
X0302326Y0314796D01*
X0302918Y0314914D01*
X0303476Y0315145D01*
X0303977Y0315480D01*
X0304404Y0315907D01*
X0304739Y0316409D01*
X0304970Y0316967D01*
X0305088Y0317558D01*
X0305088Y0317860D01*
X0302024Y0317860D01*
X0302024Y0320924D01*
X0302024Y0317860D01*
X0302024Y0317860D01*
X0302024Y0317860D01*
X0305088Y0317860D01*
X0305088Y0318162D01*
X0304970Y0318754D01*
X0304739Y0319311D01*
X0304404Y0319813D01*
X0303977Y0320240D01*
X0305001Y0318599D02*
X0382452Y0318599D01*
X0382452Y0317000D02*
X0338053Y0317000D01*
X0337918Y0317056D02*
X0337326Y0317174D01*
X0337024Y0317174D01*
X0336723Y0317174D01*
X0336131Y0317056D01*
X0335573Y0316825D01*
X0335071Y0316490D01*
X0334644Y0316063D01*
X0334309Y0315561D01*
X0334078Y0315004D01*
X0333960Y0314412D01*
X0333960Y0314110D01*
X0333960Y0313808D01*
X0334078Y0313217D01*
X0334309Y0312659D01*
X0334644Y0312157D01*
X0335071Y0311730D01*
X0335573Y0311395D01*
X0336131Y0311164D01*
X0336723Y0311046D01*
X0337024Y0311046D01*
X0337024Y0314110D01*
X0337024Y0314110D01*
X0333960Y0314110D01*
X0337024Y0314110D01*
X0337024Y0314110D01*
X0337024Y0311046D01*
X0337326Y0311046D01*
X0337918Y0311164D01*
X0338476Y0311395D01*
X0338977Y0311730D01*
X0339404Y0312157D01*
X0339739Y0312659D01*
X0339970Y0313217D01*
X0340088Y0313808D01*
X0340088Y0314110D01*
X0337024Y0314110D01*
X0337024Y0317174D01*
X0337024Y0314110D01*
X0337024Y0314110D01*
X0337024Y0314110D01*
X0340088Y0314110D01*
X0340088Y0314412D01*
X0339970Y0315004D01*
X0339739Y0315561D01*
X0339404Y0316063D01*
X0338977Y0316490D01*
X0338476Y0316825D01*
X0337918Y0317056D01*
X0337024Y0317000D02*
X0337024Y0317000D01*
X0335996Y0317000D02*
X0304977Y0317000D01*
X0303860Y0315402D02*
X0334243Y0315402D01*
X0333962Y0313803D02*
X0300005Y0313803D01*
X0300189Y0315402D02*
X0298915Y0315402D01*
X0298915Y0317000D02*
X0299072Y0317000D01*
X0299047Y0318599D02*
X0298915Y0318599D01*
X0298915Y0320197D02*
X0300029Y0320197D01*
X0302024Y0320197D02*
X0302024Y0320197D01*
X0302024Y0318599D02*
X0302024Y0318599D01*
X0302024Y0317000D02*
X0302024Y0317000D01*
X0302024Y0315402D02*
X0302024Y0315402D01*
X0301603Y0312205D02*
X0334613Y0312205D01*
X0337024Y0312205D02*
X0337024Y0312205D01*
X0337024Y0313803D02*
X0337024Y0313803D01*
X0337024Y0315402D02*
X0337024Y0315402D01*
X0339805Y0315402D02*
X0364612Y0315402D01*
X0364746Y0315724D02*
X0364354Y0314779D01*
X0364354Y0313756D01*
X0364746Y0312811D01*
X0365469Y0312088D01*
X0366414Y0311696D01*
X0367437Y0311696D01*
X0368383Y0312088D01*
X0369106Y0312811D01*
X0369497Y0313756D01*
X0369497Y0314779D01*
X0369106Y0315724D01*
X0368383Y0316448D01*
X0367437Y0316839D01*
X0366414Y0316839D01*
X0365469Y0316448D01*
X0364746Y0315724D01*
X0364354Y0313803D02*
X0340087Y0313803D01*
X0339436Y0312205D02*
X0365352Y0312205D01*
X0368500Y0312205D02*
X0382434Y0312205D01*
X0382452Y0310606D02*
X0303202Y0310606D01*
X0304800Y0309008D02*
X0382452Y0309008D01*
X0382452Y0307409D02*
X0306399Y0307409D01*
X0290134Y0299417D02*
X0131415Y0299417D01*
X0131415Y0299452D02*
X0130746Y0301066D01*
X0129511Y0302301D01*
X0127898Y0302969D01*
X0126151Y0302969D01*
X0124537Y0302301D01*
X0123302Y0301066D01*
X0122634Y0299452D01*
X0122634Y0297705D01*
X0123302Y0296092D01*
X0124537Y0294857D01*
X0126151Y0294188D01*
X0127898Y0294188D01*
X0129511Y0294857D01*
X0130746Y0296092D01*
X0131415Y0297705D01*
X0131415Y0299452D01*
X0131415Y0297818D02*
X0290134Y0297818D01*
X0290134Y0296220D02*
X0130799Y0296220D01*
X0128943Y0294621D02*
X0218957Y0294621D01*
X0219223Y0294674D02*
X0218631Y0294556D01*
X0218073Y0294325D01*
X0217571Y0293990D01*
X0217144Y0293563D01*
X0216809Y0293061D01*
X0216578Y0292504D01*
X0216460Y0291912D01*
X0216460Y0291610D01*
X0216460Y0291308D01*
X0216578Y0290717D01*
X0216809Y0290159D01*
X0217144Y0289657D01*
X0217571Y0289230D01*
X0218073Y0288895D01*
X0218631Y0288664D01*
X0219223Y0288546D01*
X0219524Y0288546D01*
X0219524Y0291610D01*
X0219524Y0291610D01*
X0216460Y0291610D01*
X0219524Y0291610D01*
X0219524Y0291610D01*
X0219524Y0288546D01*
X0219826Y0288546D01*
X0220418Y0288664D01*
X0220976Y0288895D01*
X0221477Y0289230D01*
X0221904Y0289657D01*
X0222239Y0290159D01*
X0222470Y0290717D01*
X0222588Y0291308D01*
X0222588Y0291610D01*
X0219524Y0291610D01*
X0219524Y0294674D01*
X0219223Y0294674D01*
X0219524Y0294674D02*
X0219826Y0294674D01*
X0220418Y0294556D01*
X0220976Y0294325D01*
X0221477Y0293990D01*
X0221904Y0293563D01*
X0222239Y0293061D01*
X0222470Y0292504D01*
X0222588Y0291912D01*
X0222588Y0291610D01*
X0219524Y0291610D01*
X0219524Y0291610D01*
X0219524Y0291610D01*
X0219524Y0294674D01*
X0219524Y0294621D02*
X0219524Y0294621D01*
X0220092Y0294621D02*
X0243957Y0294621D01*
X0244223Y0294674D02*
X0243631Y0294556D01*
X0243073Y0294325D01*
X0242571Y0293990D01*
X0242144Y0293563D01*
X0241809Y0293061D01*
X0241578Y0292504D01*
X0241460Y0291912D01*
X0241460Y0291610D01*
X0241460Y0291308D01*
X0241578Y0290717D01*
X0241809Y0290159D01*
X0242144Y0289657D01*
X0242571Y0289230D01*
X0243073Y0288895D01*
X0243631Y0288664D01*
X0244223Y0288546D01*
X0244524Y0288546D01*
X0244524Y0291610D01*
X0244524Y0291610D01*
X0241460Y0291610D01*
X0244524Y0291610D01*
X0244524Y0291610D01*
X0244524Y0288546D01*
X0244826Y0288546D01*
X0245418Y0288664D01*
X0245976Y0288895D01*
X0246477Y0289230D01*
X0246904Y0289657D01*
X0247239Y0290159D01*
X0247470Y0290717D01*
X0247588Y0291308D01*
X0247588Y0291610D01*
X0244524Y0291610D01*
X0244524Y0294674D01*
X0244223Y0294674D01*
X0244524Y0294674D02*
X0244826Y0294674D01*
X0245418Y0294556D01*
X0245976Y0294325D01*
X0246477Y0293990D01*
X0246904Y0293563D01*
X0247239Y0293061D01*
X0247470Y0292504D01*
X0247588Y0291912D01*
X0247588Y0291610D01*
X0244524Y0291610D01*
X0244524Y0291610D01*
X0244524Y0291610D01*
X0244524Y0294674D01*
X0244524Y0294621D02*
X0244524Y0294621D01*
X0245092Y0294621D02*
X0290134Y0294621D01*
X0290134Y0293023D02*
X0274223Y0293023D01*
X0274204Y0293067D02*
X0273481Y0293790D01*
X0272536Y0294182D01*
X0271513Y0294182D01*
X0270568Y0293790D01*
X0269844Y0293067D01*
X0269453Y0292122D01*
X0269453Y0291099D01*
X0269844Y0290154D01*
X0270568Y0289430D01*
X0271513Y0289039D01*
X0272536Y0289039D01*
X0273481Y0289430D01*
X0274204Y0290154D01*
X0274596Y0291099D01*
X0274596Y0292122D01*
X0274204Y0293067D01*
X0274596Y0291424D02*
X0290134Y0291424D01*
X0290134Y0289826D02*
X0273877Y0289826D01*
X0270172Y0289826D02*
X0247017Y0289826D01*
X0247588Y0291424D02*
X0269453Y0291424D01*
X0269826Y0293023D02*
X0247255Y0293023D01*
X0244524Y0293023D02*
X0244524Y0293023D01*
X0244524Y0291424D02*
X0244524Y0291424D01*
X0244524Y0289826D02*
X0244524Y0289826D01*
X0242032Y0289826D02*
X0222017Y0289826D01*
X0222588Y0291424D02*
X0241460Y0291424D01*
X0241793Y0293023D02*
X0222255Y0293023D01*
X0219524Y0293023D02*
X0219524Y0293023D01*
X0219524Y0291424D02*
X0219524Y0291424D01*
X0219524Y0289826D02*
X0219524Y0289826D01*
X0217032Y0289826D02*
X0202506Y0289826D01*
X0202470Y0290004D02*
X0202239Y0290561D01*
X0201904Y0291063D01*
X0201477Y0291490D01*
X0200976Y0291825D01*
X0200418Y0292056D01*
X0199826Y0292174D01*
X0199524Y0292174D01*
X0199223Y0292174D01*
X0198631Y0292056D01*
X0198073Y0291825D01*
X0197571Y0291490D01*
X0197144Y0291063D01*
X0196809Y0290561D01*
X0196578Y0290004D01*
X0196460Y0289412D01*
X0196460Y0289110D01*
X0196460Y0288808D01*
X0196578Y0288217D01*
X0196809Y0287659D01*
X0197144Y0287157D01*
X0197571Y0286730D01*
X0198073Y0286395D01*
X0198631Y0286164D01*
X0199223Y0286046D01*
X0199524Y0286046D01*
X0199524Y0289110D01*
X0199524Y0289110D01*
X0196460Y0289110D01*
X0199524Y0289110D01*
X0199524Y0289110D01*
X0199524Y0286046D01*
X0199826Y0286046D01*
X0200418Y0286164D01*
X0200976Y0286395D01*
X0201477Y0286730D01*
X0201904Y0287157D01*
X0202239Y0287659D01*
X0202470Y0288217D01*
X0202588Y0288808D01*
X0202588Y0289110D01*
X0199524Y0289110D01*
X0199524Y0292174D01*
X0199524Y0289110D01*
X0199524Y0289110D01*
X0199524Y0289110D01*
X0202588Y0289110D01*
X0202588Y0289412D01*
X0202470Y0290004D01*
X0201543Y0291424D02*
X0216460Y0291424D01*
X0216793Y0293023D02*
X0113211Y0293023D01*
X0113211Y0294621D02*
X0125106Y0294621D01*
X0123249Y0296220D02*
X0113211Y0296220D01*
X0113211Y0297818D02*
X0122634Y0297818D01*
X0122634Y0299417D02*
X0113211Y0299417D01*
X0113211Y0301015D02*
X0123281Y0301015D01*
X0125293Y0302614D02*
X0113211Y0302614D01*
X0113211Y0304212D02*
X0126093Y0304212D01*
X0126151Y0304188D02*
X0127898Y0304188D01*
X0129511Y0304857D01*
X0130746Y0306092D01*
X0131415Y0307705D01*
X0131415Y0309452D01*
X0130746Y0311066D01*
X0130628Y0311184D01*
X0131276Y0311184D01*
X0132329Y0311621D01*
X0133136Y0312427D01*
X0133572Y0313481D01*
X0133572Y0314621D01*
X0133136Y0315675D01*
X0132329Y0316482D01*
X0131276Y0316918D01*
X0130135Y0316918D01*
X0129081Y0316482D01*
X0128275Y0315675D01*
X0127838Y0314621D01*
X0127838Y0313481D01*
X0128082Y0312893D01*
X0127898Y0312969D01*
X0126151Y0312969D01*
X0124537Y0312301D01*
X0123302Y0311066D01*
X0122634Y0309452D01*
X0122634Y0307705D01*
X0123302Y0306092D01*
X0124537Y0304857D01*
X0126151Y0304188D01*
X0127956Y0304212D02*
X0177634Y0304212D01*
X0177634Y0302614D02*
X0128756Y0302614D01*
X0130767Y0301015D02*
X0177634Y0301015D01*
X0177634Y0305811D02*
X0130465Y0305811D01*
X0131292Y0307409D02*
X0177634Y0307409D01*
X0177634Y0309008D02*
X0131415Y0309008D01*
X0130937Y0310606D02*
X0177634Y0310606D01*
X0177634Y0312205D02*
X0132913Y0312205D01*
X0133572Y0313803D02*
X0177634Y0313803D01*
X0177634Y0315402D02*
X0133249Y0315402D01*
X0128162Y0315402D02*
X0113564Y0315402D01*
X0113887Y0313803D02*
X0127838Y0313803D01*
X0124441Y0312205D02*
X0113228Y0312205D01*
X0113211Y0310606D02*
X0123112Y0310606D01*
X0122634Y0309008D02*
X0113211Y0309008D01*
X0113211Y0307409D02*
X0122756Y0307409D01*
X0123583Y0305811D02*
X0113211Y0305811D01*
X0113211Y0317000D02*
X0177634Y0317000D01*
X0177634Y0318599D02*
X0113211Y0318599D01*
X0113211Y0320197D02*
X0177634Y0320197D01*
X0177634Y0321796D02*
X0113211Y0321796D01*
X0113211Y0323394D02*
X0178635Y0323394D01*
X0191262Y0346769D02*
X0191820Y0346538D01*
X0192411Y0346420D01*
X0192713Y0346420D01*
X0192713Y0349484D01*
X0192713Y0349484D01*
X0189649Y0349484D01*
X0189649Y0349182D01*
X0189767Y0348591D01*
X0189998Y0348033D01*
X0190333Y0347531D01*
X0190760Y0347104D01*
X0191262Y0346769D01*
X0190493Y0347372D02*
X0151806Y0347372D01*
X0151712Y0347146D02*
X0152643Y0349393D01*
X0152643Y0351826D01*
X0151712Y0354073D01*
X0149992Y0355793D01*
X0147744Y0356724D01*
X0145312Y0356724D01*
X0143064Y0355793D01*
X0141344Y0354073D01*
X0140413Y0351826D01*
X0140413Y0349393D01*
X0141344Y0347146D01*
X0143064Y0345425D01*
X0145312Y0344494D01*
X0147744Y0344494D01*
X0149992Y0345425D01*
X0151712Y0347146D01*
X0150340Y0345774D02*
X0257071Y0345774D01*
X0257071Y0346059D02*
X0257071Y0345036D01*
X0257462Y0344091D01*
X0258186Y0343367D01*
X0259131Y0342976D01*
X0260154Y0342976D01*
X0261099Y0343367D01*
X0261823Y0344091D01*
X0262214Y0345036D01*
X0262214Y0346059D01*
X0261823Y0347004D01*
X0261099Y0347727D01*
X0260154Y0348119D01*
X0259131Y0348119D01*
X0258186Y0347727D01*
X0257462Y0347004D01*
X0257071Y0346059D01*
X0257830Y0347372D02*
X0231606Y0347372D01*
X0231204Y0346970D02*
X0232038Y0347805D01*
X0232490Y0348894D01*
X0232490Y0350074D01*
X0232038Y0351164D01*
X0231204Y0351998D01*
X0230114Y0352450D01*
X0228934Y0352450D01*
X0227845Y0351998D01*
X0227010Y0351164D01*
X0226559Y0350074D01*
X0226559Y0348894D01*
X0227010Y0347805D01*
X0227845Y0346970D01*
X0228934Y0346519D01*
X0230114Y0346519D01*
X0231204Y0346970D01*
X0232490Y0348971D02*
X0262425Y0348971D01*
X0262384Y0349012D02*
X0263107Y0348288D01*
X0264052Y0347897D01*
X0265075Y0347897D01*
X0266020Y0348288D01*
X0266744Y0349012D01*
X0267135Y0349957D01*
X0267135Y0350980D01*
X0266744Y0351925D01*
X0266020Y0352649D01*
X0265075Y0353040D01*
X0264478Y0353040D01*
X0264478Y0353933D01*
X0264086Y0354878D01*
X0263363Y0355601D01*
X0262418Y0355993D01*
X0261395Y0355993D01*
X0260449Y0355601D01*
X0259726Y0354878D01*
X0259335Y0353933D01*
X0259335Y0352910D01*
X0259726Y0351965D01*
X0260449Y0351241D01*
X0261395Y0350850D01*
X0261992Y0350850D01*
X0261992Y0349957D01*
X0262384Y0349012D01*
X0261992Y0350569D02*
X0232285Y0350569D01*
X0230795Y0352168D02*
X0259642Y0352168D01*
X0259335Y0353766D02*
X0151839Y0353766D01*
X0152501Y0352168D02*
X0191214Y0352168D01*
X0191262Y0352199D02*
X0190760Y0351864D01*
X0190333Y0351437D01*
X0189998Y0350935D01*
X0189767Y0350378D01*
X0189649Y0349786D01*
X0189649Y0349484D01*
X0192713Y0349484D01*
X0192713Y0349484D01*
X0192713Y0346420D01*
X0193015Y0346420D01*
X0193607Y0346538D01*
X0194164Y0346769D01*
X0194666Y0347104D01*
X0195093Y0347531D01*
X0195428Y0348033D01*
X0195659Y0348591D01*
X0195777Y0349182D01*
X0195777Y0349484D01*
X0192713Y0349484D01*
X0192713Y0349484D01*
X0192713Y0352548D01*
X0192411Y0352548D01*
X0191820Y0352430D01*
X0191262Y0352199D01*
X0192713Y0352168D02*
X0192713Y0352168D01*
X0192713Y0352548D02*
X0193015Y0352548D01*
X0193607Y0352430D01*
X0194164Y0352199D01*
X0194666Y0351864D01*
X0195093Y0351437D01*
X0195428Y0350935D01*
X0195659Y0350378D01*
X0195777Y0349786D01*
X0195777Y0349484D01*
X0192713Y0349484D01*
X0192713Y0349484D01*
X0192713Y0352548D01*
X0194212Y0352168D02*
X0228254Y0352168D01*
X0226764Y0350569D02*
X0195580Y0350569D01*
X0195735Y0348971D02*
X0226559Y0348971D01*
X0227443Y0347372D02*
X0194934Y0347372D01*
X0192713Y0347372D02*
X0192713Y0347372D01*
X0192713Y0348971D02*
X0192713Y0348971D01*
X0192713Y0350569D02*
X0192713Y0350569D01*
X0189846Y0350569D02*
X0152643Y0350569D01*
X0152468Y0348971D02*
X0189692Y0348971D01*
X0180981Y0364243D02*
X0181704Y0364966D01*
X0182096Y0365912D01*
X0182096Y0366935D01*
X0181704Y0367880D01*
X0180981Y0368603D01*
X0180036Y0368995D01*
X0179013Y0368995D01*
X0178068Y0368603D01*
X0177344Y0367880D01*
X0176953Y0366935D01*
X0176953Y0365912D01*
X0177344Y0364966D01*
X0178068Y0364243D01*
X0179013Y0363852D01*
X0180036Y0363852D01*
X0180981Y0364243D01*
X0181694Y0364956D02*
X0285134Y0364956D01*
X0285134Y0366554D02*
X0182096Y0366554D01*
X0181432Y0368153D02*
X0285134Y0368153D01*
X0285134Y0369751D02*
X0163568Y0369751D01*
X0163568Y0369919D02*
X0162952Y0371406D01*
X0161813Y0372545D01*
X0160325Y0373161D01*
X0158715Y0373161D01*
X0157227Y0372545D01*
X0156088Y0371406D01*
X0155472Y0369919D01*
X0155472Y0368308D01*
X0156088Y0366820D01*
X0157227Y0365682D01*
X0158715Y0365065D01*
X0160325Y0365065D01*
X0161813Y0365682D01*
X0162952Y0366820D01*
X0163568Y0368308D01*
X0163568Y0369919D01*
X0162975Y0371350D02*
X0166559Y0371350D01*
X0166088Y0371820D02*
X0167227Y0370682D01*
X0168715Y0370065D01*
X0170325Y0370065D01*
X0171813Y0370682D01*
X0172952Y0371820D01*
X0173568Y0373308D01*
X0173568Y0374919D01*
X0172952Y0376406D01*
X0171813Y0377545D01*
X0170325Y0378161D01*
X0168715Y0378161D01*
X0167227Y0377545D01*
X0166088Y0376406D01*
X0165472Y0374919D01*
X0165472Y0373308D01*
X0166088Y0371820D01*
X0165621Y0372948D02*
X0160840Y0372948D01*
X0160325Y0375065D02*
X0161813Y0375682D01*
X0162952Y0376820D01*
X0163568Y0378308D01*
X0163568Y0379919D01*
X0162952Y0381406D01*
X0161813Y0382545D01*
X0160325Y0383161D01*
X0158715Y0383161D01*
X0157227Y0382545D01*
X0156088Y0381406D01*
X0155472Y0379919D01*
X0155472Y0378308D01*
X0156088Y0376820D01*
X0157227Y0375682D01*
X0158715Y0375065D01*
X0160325Y0375065D01*
X0162277Y0376145D02*
X0165980Y0376145D01*
X0165472Y0374547D02*
X0113211Y0374547D01*
X0113211Y0376145D02*
X0142476Y0376145D01*
X0142381Y0376164D02*
X0142973Y0376046D01*
X0143274Y0376046D01*
X0143274Y0379110D01*
X0143274Y0379110D01*
X0140210Y0379110D01*
X0140210Y0378808D01*
X0140328Y0378217D01*
X0140559Y0377659D01*
X0140894Y0377157D01*
X0141321Y0376730D01*
X0141823Y0376395D01*
X0142381Y0376164D01*
X0143274Y0376145D02*
X0143274Y0376145D01*
X0143274Y0376046D02*
X0143576Y0376046D01*
X0144168Y0376164D01*
X0144726Y0376395D01*
X0145227Y0376730D01*
X0145654Y0377157D01*
X0145989Y0377659D01*
X0146220Y0378217D01*
X0146338Y0378808D01*
X0146338Y0379110D01*
X0143274Y0379110D01*
X0143274Y0379110D01*
X0140210Y0379110D01*
X0140210Y0379412D01*
X0140328Y0380004D01*
X0140559Y0380561D01*
X0140894Y0381063D01*
X0141321Y0381490D01*
X0141823Y0381825D01*
X0142381Y0382056D01*
X0142973Y0382174D01*
X0143274Y0382174D01*
X0143274Y0379110D01*
X0143274Y0376046D01*
X0144073Y0376145D02*
X0156763Y0376145D01*
X0155706Y0377744D02*
X0146024Y0377744D01*
X0146338Y0379110D02*
X0146338Y0379412D01*
X0146220Y0380004D01*
X0145989Y0380561D01*
X0145654Y0381063D01*
X0145227Y0381490D01*
X0144726Y0381825D01*
X0144168Y0382056D01*
X0143576Y0382174D01*
X0143274Y0382174D01*
X0143274Y0379110D01*
X0143274Y0379110D01*
X0143274Y0379110D01*
X0146338Y0379110D01*
X0146338Y0379342D02*
X0155472Y0379342D01*
X0155896Y0380941D02*
X0145736Y0380941D01*
X0143274Y0380941D02*
X0143274Y0380941D01*
X0143274Y0379342D02*
X0143274Y0379342D01*
X0143274Y0377744D02*
X0143274Y0377744D01*
X0140524Y0377744D02*
X0113211Y0377744D01*
X0113211Y0379342D02*
X0140210Y0379342D01*
X0140813Y0380941D02*
X0113211Y0380941D01*
X0113211Y0382539D02*
X0157221Y0382539D01*
X0157891Y0385179D02*
X0158526Y0384973D01*
X0159186Y0384868D01*
X0159434Y0384868D01*
X0159434Y0389027D01*
X0159606Y0389027D01*
X0159606Y0384868D01*
X0159854Y0384868D01*
X0160514Y0384973D01*
X0161150Y0385179D01*
X0161745Y0385483D01*
X0162286Y0385876D01*
X0162758Y0386348D01*
X0163151Y0386889D01*
X0163454Y0387484D01*
X0163661Y0388119D01*
X0163765Y0388779D01*
X0163765Y0389027D01*
X0159606Y0389027D01*
X0159606Y0389199D01*
X0163765Y0389199D01*
X0163765Y0389447D01*
X0163661Y0390107D01*
X0163454Y0390743D01*
X0163151Y0391338D01*
X0162758Y0391879D01*
X0162286Y0392351D01*
X0161745Y0392744D01*
X0161150Y0393047D01*
X0160514Y0393254D01*
X0159854Y0393358D01*
X0159606Y0393358D01*
X0159606Y0389199D01*
X0159434Y0389199D01*
X0159434Y0389027D01*
X0155275Y0389027D01*
X0155275Y0388779D01*
X0155380Y0388119D01*
X0155586Y0387484D01*
X0155890Y0386889D01*
X0156282Y0386348D01*
X0156755Y0385876D01*
X0157295Y0385483D01*
X0157891Y0385179D01*
X0156946Y0385736D02*
X0145483Y0385736D01*
X0145654Y0385907D02*
X0145989Y0386409D01*
X0146220Y0386967D01*
X0146338Y0387558D01*
X0146338Y0387860D01*
X0143274Y0387860D01*
X0143274Y0387860D01*
X0143274Y0384796D01*
X0142973Y0384796D01*
X0142381Y0384914D01*
X0141823Y0385145D01*
X0141321Y0385480D01*
X0140894Y0385907D01*
X0140559Y0386409D01*
X0140328Y0386967D01*
X0140210Y0387558D01*
X0140210Y0387860D01*
X0143274Y0387860D01*
X0143274Y0387860D01*
X0140210Y0387860D01*
X0140210Y0388162D01*
X0140328Y0388754D01*
X0140559Y0389311D01*
X0140894Y0389813D01*
X0141321Y0390240D01*
X0141823Y0390575D01*
X0142381Y0390806D01*
X0142973Y0390924D01*
X0143274Y0390924D01*
X0143274Y0387860D01*
X0143274Y0384796D01*
X0143576Y0384796D01*
X0144168Y0384914D01*
X0144726Y0385145D01*
X0145227Y0385480D01*
X0145654Y0385907D01*
X0146294Y0387335D02*
X0155662Y0387335D01*
X0155275Y0388933D02*
X0146146Y0388933D01*
X0146220Y0388754D02*
X0145989Y0389311D01*
X0145654Y0389813D01*
X0145227Y0390240D01*
X0144726Y0390575D01*
X0144168Y0390806D01*
X0143576Y0390924D01*
X0143274Y0390924D01*
X0143274Y0387860D01*
X0143274Y0387860D01*
X0143274Y0387860D01*
X0146338Y0387860D01*
X0146338Y0388162D01*
X0146220Y0388754D01*
X0144791Y0390532D02*
X0155518Y0390532D01*
X0155586Y0390743D02*
X0155380Y0390107D01*
X0155275Y0389447D01*
X0155275Y0389199D01*
X0159434Y0389199D01*
X0159434Y0393358D01*
X0159186Y0393358D01*
X0158526Y0393254D01*
X0157891Y0393047D01*
X0157295Y0392744D01*
X0156755Y0392351D01*
X0156282Y0391879D01*
X0155890Y0391338D01*
X0155586Y0390743D01*
X0156534Y0392130D02*
X0113850Y0392130D01*
X0113735Y0393729D02*
X0118284Y0393729D01*
X0117789Y0394224D02*
X0118928Y0393085D01*
X0120415Y0392469D01*
X0122026Y0392469D01*
X0123514Y0393085D01*
X0124652Y0394224D01*
X0125269Y0395712D01*
X0125269Y0397322D01*
X0124652Y0398810D01*
X0123514Y0399949D01*
X0122026Y0400565D01*
X0120415Y0400565D01*
X0118928Y0399949D01*
X0117789Y0398810D01*
X0117173Y0397322D01*
X0117173Y0395712D01*
X0117789Y0394224D01*
X0117332Y0395327D02*
X0113211Y0395327D01*
X0113211Y0396926D02*
X0117173Y0396926D01*
X0117670Y0398524D02*
X0113211Y0398524D01*
X0113211Y0400123D02*
X0119347Y0400123D01*
X0117769Y0403320D02*
X0126240Y0403320D01*
X0126240Y0404918D02*
X0118957Y0404918D01*
X0119282Y0406517D02*
X0126553Y0406517D01*
X0127215Y0408115D02*
X0118951Y0408115D01*
X0117755Y0409714D02*
X0128411Y0409714D01*
X0126548Y0401721D02*
X0113211Y0401721D01*
X0111020Y0410508D02*
X0111020Y0276650D01*
X0120863Y0266807D01*
X0374800Y0266807D01*
X0384642Y0276650D01*
X0384642Y0392791D01*
X0364957Y0412476D01*
X0191729Y0412476D01*
X0191588Y0412617D01*
X0146528Y0412617D01*
X0146453Y0412476D02*
X0112989Y0412476D01*
X0111020Y0410508D01*
X0123094Y0400123D02*
X0127211Y0400123D01*
X0128399Y0398524D02*
X0124771Y0398524D01*
X0125269Y0396926D02*
X0130235Y0396926D01*
X0125109Y0395327D02*
X0143203Y0395327D01*
X0143203Y0394849D02*
X0143594Y0393904D01*
X0144318Y0393180D01*
X0145263Y0392789D01*
X0146286Y0392789D01*
X0147231Y0393180D01*
X0147954Y0393904D01*
X0148346Y0394849D01*
X0148346Y0395872D01*
X0147954Y0396817D01*
X0147231Y0397540D01*
X0146286Y0397932D01*
X0145263Y0397932D01*
X0144318Y0397540D01*
X0143594Y0396817D01*
X0143203Y0395872D01*
X0143203Y0394849D01*
X0143769Y0393729D02*
X0124157Y0393729D01*
X0113211Y0390532D02*
X0141758Y0390532D01*
X0143274Y0390532D02*
X0143274Y0390532D01*
X0143274Y0388933D02*
X0143274Y0388933D01*
X0143274Y0387335D02*
X0143274Y0387335D01*
X0143274Y0385736D02*
X0143274Y0385736D01*
X0141065Y0385736D02*
X0113211Y0385736D01*
X0113211Y0384138D02*
X0165472Y0384138D01*
X0165472Y0384919D02*
X0165472Y0383308D01*
X0166088Y0381820D01*
X0167227Y0380682D01*
X0168715Y0380065D01*
X0170325Y0380065D01*
X0171813Y0380682D01*
X0172952Y0381820D01*
X0173568Y0383308D01*
X0173568Y0384919D01*
X0172952Y0386406D01*
X0171813Y0387545D01*
X0170325Y0388161D01*
X0168715Y0388161D01*
X0167227Y0387545D01*
X0166088Y0386406D01*
X0165472Y0384919D01*
X0165811Y0385736D02*
X0162094Y0385736D01*
X0163378Y0387335D02*
X0167017Y0387335D01*
X0168715Y0390065D02*
X0170325Y0390065D01*
X0171813Y0390682D01*
X0172952Y0391820D01*
X0173568Y0393308D01*
X0173568Y0394919D01*
X0172952Y0396406D01*
X0171813Y0397545D01*
X0170325Y0398161D01*
X0168715Y0398161D01*
X0167227Y0397545D01*
X0166088Y0396406D01*
X0165472Y0394919D01*
X0165472Y0393308D01*
X0166088Y0391820D01*
X0167227Y0390682D01*
X0168715Y0390065D01*
X0167589Y0390532D02*
X0163523Y0390532D01*
X0163765Y0388933D02*
X0178864Y0388933D01*
X0179013Y0388995D02*
X0178068Y0388603D01*
X0177344Y0387880D01*
X0176953Y0386935D01*
X0176953Y0385912D01*
X0177344Y0384966D01*
X0178068Y0384243D01*
X0179013Y0383852D01*
X0180036Y0383852D01*
X0180981Y0384243D01*
X0181704Y0384966D01*
X0182096Y0385912D01*
X0182096Y0386935D01*
X0181704Y0387880D01*
X0180981Y0388603D01*
X0180036Y0388995D01*
X0179013Y0388995D01*
X0180184Y0388933D02*
X0346082Y0388933D01*
X0346094Y0388904D02*
X0346818Y0388180D01*
X0347763Y0387789D01*
X0348786Y0387789D01*
X0349731Y0388180D01*
X0350454Y0388904D01*
X0350846Y0389849D01*
X0350846Y0390872D01*
X0350454Y0391817D01*
X0349731Y0392540D01*
X0348786Y0392932D01*
X0347763Y0392932D01*
X0346818Y0392540D01*
X0346094Y0391817D01*
X0345703Y0390872D01*
X0345703Y0389849D01*
X0346094Y0388904D01*
X0345703Y0390532D02*
X0336263Y0390532D01*
X0336212Y0390480D02*
X0336638Y0390907D01*
X0336974Y0391409D01*
X0337205Y0391967D01*
X0337322Y0392558D01*
X0337322Y0392860D01*
X0334259Y0392860D01*
X0334259Y0392860D01*
X0334259Y0389796D01*
X0334560Y0389796D01*
X0335152Y0389914D01*
X0335710Y0390145D01*
X0336212Y0390480D01*
X0337237Y0392130D02*
X0346408Y0392130D01*
X0350141Y0392130D02*
X0359543Y0392130D01*
X0359453Y0392349D02*
X0359844Y0391404D01*
X0360568Y0390680D01*
X0361513Y0390289D01*
X0362536Y0390289D01*
X0363481Y0390680D01*
X0364204Y0391404D01*
X0364596Y0392349D01*
X0364596Y0393372D01*
X0364204Y0394317D01*
X0363481Y0395040D01*
X0362536Y0395432D01*
X0361513Y0395432D01*
X0360568Y0395040D01*
X0359844Y0394317D01*
X0359453Y0393372D01*
X0359453Y0392349D01*
X0359601Y0393729D02*
X0337210Y0393729D01*
X0337205Y0393754D02*
X0336974Y0394311D01*
X0336638Y0394813D01*
X0336212Y0395240D01*
X0335710Y0395575D01*
X0335152Y0395806D01*
X0334560Y0395924D01*
X0334259Y0395924D01*
X0334259Y0392860D01*
X0334258Y0392860D01*
X0331195Y0392860D01*
X0331195Y0392558D01*
X0331312Y0391967D01*
X0331543Y0391409D01*
X0331879Y0390907D01*
X0332305Y0390480D01*
X0332807Y0390145D01*
X0333365Y0389914D01*
X0333957Y0389796D01*
X0334258Y0389796D01*
X0334258Y0392860D01*
X0334258Y0392860D01*
X0331195Y0392860D01*
X0331195Y0393162D01*
X0331312Y0393754D01*
X0331543Y0394311D01*
X0331879Y0394813D01*
X0332305Y0395240D01*
X0332807Y0395575D01*
X0333365Y0395806D01*
X0333957Y0395924D01*
X0334258Y0395924D01*
X0334258Y0392860D01*
X0334259Y0392860D01*
X0337322Y0392860D01*
X0337322Y0393162D01*
X0337205Y0393754D01*
X0336081Y0395327D02*
X0361260Y0395327D01*
X0362788Y0395327D02*
X0379008Y0395327D01*
X0377410Y0396926D02*
X0365971Y0396926D01*
X0365981Y0396930D02*
X0366704Y0397654D01*
X0367096Y0398599D01*
X0367096Y0399622D01*
X0366704Y0400567D01*
X0365981Y0401290D01*
X0365036Y0401682D01*
X0364013Y0401682D01*
X0363068Y0401290D01*
X0362344Y0400567D01*
X0361953Y0399622D01*
X0361953Y0398599D01*
X0362344Y0397654D01*
X0363068Y0396930D01*
X0364013Y0396539D01*
X0365036Y0396539D01*
X0365981Y0396930D01*
X0367065Y0398524D02*
X0375811Y0398524D01*
X0374213Y0400123D02*
X0366888Y0400123D01*
X0362160Y0400123D02*
X0270327Y0400123D01*
X0270223Y0400166D02*
X0269200Y0400166D01*
X0268255Y0399775D01*
X0267531Y0399051D01*
X0267140Y0398106D01*
X0267140Y0397083D01*
X0267531Y0396138D01*
X0268255Y0395414D01*
X0269200Y0395023D01*
X0270223Y0395023D01*
X0271168Y0395414D01*
X0271891Y0396138D01*
X0272283Y0397083D01*
X0272283Y0398106D01*
X0271891Y0399051D01*
X0271168Y0399775D01*
X0270223Y0400166D01*
X0269095Y0400123D02*
X0220750Y0400123D01*
X0220654Y0400266D02*
X0220227Y0400693D01*
X0219726Y0401028D01*
X0219168Y0401259D01*
X0218576Y0401377D01*
X0218274Y0401377D01*
X0217973Y0401377D01*
X0217381Y0401259D01*
X0216823Y0401028D01*
X0216321Y0400693D01*
X0215894Y0400266D01*
X0215559Y0399764D01*
X0215328Y0399207D01*
X0215210Y0398615D01*
X0215210Y0398313D01*
X0215210Y0398011D01*
X0215328Y0397419D01*
X0215559Y0396862D01*
X0215894Y0396360D01*
X0216321Y0395933D01*
X0216823Y0395598D01*
X0217381Y0395367D01*
X0217973Y0395249D01*
X0218274Y0395249D01*
X0218274Y0398313D01*
X0218274Y0398313D01*
X0215210Y0398313D01*
X0218274Y0398313D01*
X0218274Y0401377D01*
X0218274Y0398313D01*
X0218274Y0398313D01*
X0218274Y0398313D01*
X0218274Y0395249D01*
X0218576Y0395249D01*
X0219168Y0395367D01*
X0219726Y0395598D01*
X0220227Y0395933D01*
X0220654Y0396360D01*
X0220989Y0396862D01*
X0221220Y0397419D01*
X0221338Y0398011D01*
X0221338Y0398313D01*
X0221338Y0398615D01*
X0221220Y0399207D01*
X0220989Y0399764D01*
X0220654Y0400266D01*
X0221338Y0398524D02*
X0225900Y0398524D01*
X0225568Y0398387D02*
X0224844Y0397663D01*
X0224453Y0396718D01*
X0224453Y0395695D01*
X0224844Y0394750D01*
X0225568Y0394027D01*
X0226513Y0393635D01*
X0227536Y0393635D01*
X0228481Y0394027D01*
X0229204Y0394750D01*
X0229596Y0395695D01*
X0229596Y0396718D01*
X0229204Y0397663D01*
X0228481Y0398387D01*
X0227536Y0398778D01*
X0226513Y0398778D01*
X0225568Y0398387D01*
X0224539Y0396926D02*
X0221016Y0396926D01*
X0221338Y0398313D02*
X0218274Y0398313D01*
X0221338Y0398313D01*
X0218274Y0398313D02*
X0218274Y0398313D01*
X0218274Y0398524D02*
X0218274Y0398524D01*
X0218274Y0396926D02*
X0218274Y0396926D01*
X0218274Y0395327D02*
X0218274Y0395327D01*
X0217580Y0395327D02*
X0215846Y0395327D01*
X0215846Y0395036D02*
X0215454Y0394091D01*
X0214731Y0393367D01*
X0213786Y0392976D01*
X0212763Y0392976D01*
X0211818Y0393367D01*
X0211094Y0394091D01*
X0210703Y0395036D01*
X0210703Y0396059D01*
X0211094Y0397004D01*
X0211818Y0397727D01*
X0212763Y0398119D01*
X0213786Y0398119D01*
X0214731Y0397727D01*
X0215454Y0397004D01*
X0215846Y0396059D01*
X0215846Y0395036D01*
X0215093Y0393729D02*
X0226286Y0393729D01*
X0227762Y0393729D02*
X0240491Y0393729D01*
X0240559Y0393564D02*
X0240894Y0393063D01*
X0241321Y0392636D01*
X0241823Y0392301D01*
X0242381Y0392070D01*
X0242973Y0391952D01*
X0243274Y0391952D01*
X0243274Y0395016D01*
X0243274Y0398080D01*
X0242973Y0398080D01*
X0242381Y0397962D01*
X0241823Y0397731D01*
X0241321Y0397396D01*
X0240894Y0396969D01*
X0240559Y0396467D01*
X0240328Y0395909D01*
X0240210Y0395318D01*
X0240210Y0395016D01*
X0243274Y0395016D01*
X0243274Y0395016D01*
X0243274Y0395016D01*
X0243274Y0398080D01*
X0243576Y0398080D01*
X0244168Y0397962D01*
X0244726Y0397731D01*
X0245227Y0397396D01*
X0245654Y0396969D01*
X0245989Y0396467D01*
X0246220Y0395909D01*
X0246338Y0395318D01*
X0246338Y0395016D01*
X0243274Y0395016D01*
X0240210Y0395016D01*
X0240210Y0394714D01*
X0240328Y0394122D01*
X0240559Y0393564D01*
X0240212Y0395327D02*
X0229444Y0395327D01*
X0229510Y0396926D02*
X0240866Y0396926D01*
X0243274Y0396926D02*
X0243274Y0396926D01*
X0243274Y0395327D02*
X0243274Y0395327D01*
X0243274Y0395016D02*
X0243274Y0395016D01*
X0243274Y0395016D01*
X0243274Y0391952D01*
X0243576Y0391952D01*
X0244168Y0392070D01*
X0244726Y0392301D01*
X0245227Y0392636D01*
X0245654Y0393063D01*
X0245989Y0393564D01*
X0246220Y0394122D01*
X0246338Y0394714D01*
X0246338Y0395016D01*
X0243274Y0395016D01*
X0243274Y0393729D02*
X0243274Y0393729D01*
X0243274Y0392130D02*
X0243274Y0392130D01*
X0242234Y0392130D02*
X0173080Y0392130D01*
X0173568Y0393729D02*
X0211456Y0393729D01*
X0210703Y0395327D02*
X0173399Y0395327D01*
X0172432Y0396926D02*
X0177885Y0396926D01*
X0178068Y0396743D02*
X0177344Y0397466D01*
X0176953Y0398412D01*
X0176953Y0399435D01*
X0177344Y0400380D01*
X0178068Y0401103D01*
X0179013Y0401495D01*
X0180036Y0401495D01*
X0180981Y0401103D01*
X0181704Y0400380D01*
X0182096Y0399435D01*
X0182096Y0398412D01*
X0181704Y0397466D01*
X0180981Y0396743D01*
X0180036Y0396352D01*
X0179013Y0396352D01*
X0178068Y0396743D01*
X0176953Y0398524D02*
X0163568Y0398524D01*
X0163568Y0398308D02*
X0162952Y0396820D01*
X0161813Y0395682D01*
X0160325Y0395065D01*
X0158715Y0395065D01*
X0157227Y0395682D01*
X0156088Y0396820D01*
X0155472Y0398308D01*
X0155472Y0399919D01*
X0156088Y0401406D01*
X0157227Y0402545D01*
X0158715Y0403161D01*
X0160325Y0403161D01*
X0161813Y0402545D01*
X0162952Y0401406D01*
X0163568Y0399919D01*
X0163568Y0398308D01*
X0162996Y0396926D02*
X0166608Y0396926D01*
X0165641Y0395327D02*
X0160958Y0395327D01*
X0158082Y0395327D02*
X0148346Y0395327D01*
X0147845Y0396926D02*
X0156045Y0396926D01*
X0155472Y0398524D02*
X0140641Y0398524D01*
X0141830Y0400123D02*
X0155557Y0400123D01*
X0156403Y0401721D02*
X0142492Y0401721D01*
X0142800Y0403320D02*
X0325631Y0403320D01*
X0325516Y0403599D02*
X0325907Y0402654D01*
X0326631Y0401930D01*
X0327576Y0401539D01*
X0328599Y0401539D01*
X0329544Y0401930D01*
X0330267Y0402654D01*
X0330659Y0403599D01*
X0330659Y0404622D01*
X0330267Y0405567D01*
X0329544Y0406290D01*
X0328599Y0406682D01*
X0327576Y0406682D01*
X0326631Y0406290D01*
X0325907Y0405567D01*
X0325516Y0404622D01*
X0325516Y0403599D01*
X0325639Y0404918D02*
X0142800Y0404918D01*
X0142487Y0406517D02*
X0145276Y0406517D01*
X0147780Y0406517D02*
X0327178Y0406517D01*
X0328997Y0406517D02*
X0367819Y0406517D01*
X0369417Y0404918D02*
X0330536Y0404918D01*
X0330543Y0403320D02*
X0371016Y0403320D01*
X0372614Y0401721D02*
X0329040Y0401721D01*
X0327134Y0401721D02*
X0162637Y0401721D01*
X0163484Y0400123D02*
X0177238Y0400123D01*
X0181811Y0400123D02*
X0215799Y0400123D01*
X0215210Y0398524D02*
X0182096Y0398524D01*
X0181164Y0396926D02*
X0211062Y0396926D01*
X0215487Y0396926D02*
X0215533Y0396926D01*
X0218969Y0395327D02*
X0224605Y0395327D01*
X0228149Y0398524D02*
X0267313Y0398524D01*
X0267205Y0396926D02*
X0245683Y0396926D01*
X0246336Y0395327D02*
X0268464Y0395327D01*
X0270958Y0395327D02*
X0316452Y0395327D01*
X0316321Y0395240D02*
X0315894Y0394813D01*
X0315559Y0394311D01*
X0315328Y0393754D01*
X0315210Y0393162D01*
X0315210Y0392860D01*
X0315210Y0392558D01*
X0315328Y0391967D01*
X0315559Y0391409D01*
X0315894Y0390907D01*
X0316321Y0390480D01*
X0316823Y0390145D01*
X0317381Y0389914D01*
X0317973Y0389796D01*
X0318274Y0389796D01*
X0318274Y0392860D01*
X0318274Y0392860D01*
X0315210Y0392860D01*
X0318274Y0392860D01*
X0318274Y0392860D01*
X0318274Y0389796D01*
X0318576Y0389796D01*
X0319168Y0389914D01*
X0319726Y0390145D01*
X0320227Y0390480D01*
X0320654Y0390907D01*
X0320989Y0391409D01*
X0321220Y0391967D01*
X0321338Y0392558D01*
X0321338Y0392860D01*
X0318274Y0392860D01*
X0318274Y0395924D01*
X0317973Y0395924D01*
X0317381Y0395806D01*
X0316823Y0395575D01*
X0316321Y0395240D01*
X0315323Y0393729D02*
X0246057Y0393729D01*
X0244314Y0392130D02*
X0315296Y0392130D01*
X0316270Y0390532D02*
X0171452Y0390532D01*
X0172023Y0387335D02*
X0177118Y0387335D01*
X0177025Y0385736D02*
X0173229Y0385736D01*
X0173568Y0384138D02*
X0178322Y0384138D01*
X0180727Y0384138D02*
X0256020Y0384138D01*
X0256094Y0384317D02*
X0255703Y0383372D01*
X0255703Y0382349D01*
X0256094Y0381404D01*
X0256818Y0380680D01*
X0257763Y0380289D01*
X0258381Y0380289D01*
X0258186Y0380208D01*
X0257462Y0379484D01*
X0257071Y0378539D01*
X0257071Y0377516D01*
X0257462Y0376571D01*
X0258186Y0375847D01*
X0259131Y0375456D01*
X0260154Y0375456D01*
X0261099Y0375847D01*
X0261823Y0376571D01*
X0262214Y0377516D01*
X0262214Y0378539D01*
X0261823Y0379484D01*
X0261099Y0380208D01*
X0260154Y0380599D01*
X0259536Y0380599D01*
X0259731Y0380680D01*
X0260454Y0381404D01*
X0260846Y0382349D01*
X0260846Y0383372D01*
X0260454Y0384317D01*
X0259731Y0385040D01*
X0258786Y0385432D01*
X0257763Y0385432D01*
X0256818Y0385040D01*
X0256094Y0384317D01*
X0255703Y0382539D02*
X0173250Y0382539D01*
X0172072Y0380941D02*
X0177905Y0380941D01*
X0178068Y0381103D02*
X0177344Y0380380D01*
X0176953Y0379435D01*
X0176953Y0378412D01*
X0177344Y0377466D01*
X0178068Y0376743D01*
X0179013Y0376352D01*
X0180036Y0376352D01*
X0180981Y0376743D01*
X0181704Y0377466D01*
X0182096Y0378412D01*
X0182096Y0379435D01*
X0181704Y0380380D01*
X0180981Y0381103D01*
X0180036Y0381495D01*
X0179013Y0381495D01*
X0178068Y0381103D01*
X0176953Y0379342D02*
X0163568Y0379342D01*
X0163334Y0377744D02*
X0167707Y0377744D01*
X0166968Y0380941D02*
X0163145Y0380941D01*
X0161819Y0382539D02*
X0165791Y0382539D01*
X0159606Y0385736D02*
X0159434Y0385736D01*
X0159434Y0387335D02*
X0159606Y0387335D01*
X0159606Y0388933D02*
X0159434Y0388933D01*
X0159434Y0390532D02*
X0159606Y0390532D01*
X0159606Y0392130D02*
X0159434Y0392130D01*
X0162506Y0392130D02*
X0165960Y0392130D01*
X0165472Y0393729D02*
X0147780Y0393729D01*
X0143703Y0396926D02*
X0138806Y0396926D01*
X0140403Y0388933D02*
X0113211Y0388933D01*
X0113211Y0387335D02*
X0140255Y0387335D01*
X0142704Y0370727D02*
X0141650Y0370291D01*
X0140844Y0369484D01*
X0140407Y0368430D01*
X0140407Y0367290D01*
X0140844Y0366236D01*
X0141650Y0365430D01*
X0142704Y0364993D01*
X0143845Y0364993D01*
X0144898Y0365430D01*
X0145705Y0366236D01*
X0146141Y0367290D01*
X0146141Y0368430D01*
X0145705Y0369484D01*
X0144898Y0370291D01*
X0143845Y0370727D01*
X0142704Y0370727D01*
X0141111Y0369751D02*
X0117924Y0369751D01*
X0119022Y0368153D02*
X0140407Y0368153D01*
X0140712Y0366554D02*
X0138194Y0366554D01*
X0139211Y0366133D02*
X0136167Y0367394D01*
X0132873Y0367394D01*
X0129830Y0366133D01*
X0127500Y0363804D01*
X0126240Y0360760D01*
X0126240Y0357466D01*
X0127500Y0354423D01*
X0129830Y0352094D01*
X0132873Y0350833D01*
X0136167Y0350833D01*
X0139211Y0352094D01*
X0141540Y0354423D01*
X0142800Y0357466D01*
X0142800Y0360760D01*
X0141540Y0363804D01*
X0139211Y0366133D01*
X0140388Y0364956D02*
X0165488Y0364956D01*
X0165472Y0364919D02*
X0165472Y0363308D01*
X0166088Y0361820D01*
X0167227Y0360682D01*
X0168715Y0360065D01*
X0170325Y0360065D01*
X0171813Y0360682D01*
X0172952Y0361820D01*
X0173568Y0363308D01*
X0173568Y0364919D01*
X0172952Y0366406D01*
X0171813Y0367545D01*
X0170325Y0368161D01*
X0168715Y0368161D01*
X0167227Y0367545D01*
X0166088Y0366406D01*
X0165472Y0364919D01*
X0165472Y0363357D02*
X0141725Y0363357D01*
X0142387Y0361759D02*
X0166150Y0361759D01*
X0168486Y0360160D02*
X0142800Y0360160D01*
X0142800Y0358562D02*
X0285134Y0358562D01*
X0285134Y0360160D02*
X0221707Y0360160D01*
X0221704Y0360154D02*
X0222096Y0361099D01*
X0222096Y0362122D01*
X0221704Y0363067D01*
X0220981Y0363790D01*
X0220036Y0364182D01*
X0219013Y0364182D01*
X0218068Y0363790D01*
X0217344Y0363067D01*
X0216953Y0362122D01*
X0216953Y0361099D01*
X0217344Y0360154D01*
X0218068Y0359430D01*
X0219013Y0359039D01*
X0220036Y0359039D01*
X0220981Y0359430D01*
X0221704Y0360154D01*
X0222096Y0361759D02*
X0285134Y0361759D01*
X0285134Y0363357D02*
X0221414Y0363357D01*
X0217634Y0363357D02*
X0173568Y0363357D01*
X0173553Y0364956D02*
X0177355Y0364956D01*
X0176953Y0366554D02*
X0172804Y0366554D01*
X0170346Y0368153D02*
X0177617Y0368153D01*
X0172481Y0371350D02*
X0285134Y0371350D01*
X0285134Y0372948D02*
X0173419Y0372948D01*
X0173568Y0374547D02*
X0262337Y0374547D01*
X0262384Y0374435D02*
X0263107Y0373712D01*
X0264052Y0373320D01*
X0265075Y0373320D01*
X0266020Y0373712D01*
X0266744Y0374435D01*
X0267135Y0375380D01*
X0267135Y0376403D01*
X0266744Y0377348D01*
X0266020Y0378072D01*
X0265075Y0378463D01*
X0264052Y0378463D01*
X0263107Y0378072D01*
X0262384Y0377348D01*
X0261992Y0376403D01*
X0261992Y0375380D01*
X0262384Y0374435D01*
X0261992Y0376145D02*
X0261397Y0376145D01*
X0262214Y0377744D02*
X0262779Y0377744D01*
X0261881Y0379342D02*
X0285134Y0379342D01*
X0285134Y0377744D02*
X0266348Y0377744D01*
X0267135Y0376145D02*
X0285134Y0376145D01*
X0285134Y0374547D02*
X0266790Y0374547D01*
X0259992Y0380941D02*
X0285134Y0380941D01*
X0285280Y0382539D02*
X0260846Y0382539D01*
X0260529Y0384138D02*
X0286878Y0384138D01*
X0288477Y0385736D02*
X0182023Y0385736D01*
X0181930Y0387335D02*
X0354112Y0387335D01*
X0354318Y0387540D02*
X0353594Y0386817D01*
X0353203Y0385872D01*
X0353203Y0384849D01*
X0353594Y0383904D01*
X0354318Y0383180D01*
X0355263Y0382789D01*
X0356286Y0382789D01*
X0357231Y0383180D01*
X0357954Y0383904D01*
X0358346Y0384849D01*
X0358346Y0385872D01*
X0357954Y0386817D01*
X0357231Y0387540D01*
X0356286Y0387932D01*
X0355263Y0387932D01*
X0354318Y0387540D01*
X0353203Y0385736D02*
X0308072Y0385736D01*
X0308915Y0384138D02*
X0353497Y0384138D01*
X0358051Y0384138D02*
X0369293Y0384138D01*
X0369388Y0383909D02*
X0369723Y0383407D01*
X0370150Y0382980D01*
X0370652Y0382645D01*
X0371209Y0382414D01*
X0371801Y0382296D01*
X0372103Y0382296D01*
X0372405Y0382296D01*
X0372997Y0382414D01*
X0373554Y0382645D01*
X0374056Y0382980D01*
X0374483Y0383407D01*
X0374818Y0383909D01*
X0375049Y0384467D01*
X0375167Y0385058D01*
X0375167Y0385360D01*
X0372103Y0385360D01*
X0372103Y0382296D01*
X0372103Y0385360D01*
X0372103Y0385360D01*
X0369039Y0385360D01*
X0369039Y0385058D01*
X0369157Y0384467D01*
X0369388Y0383909D01*
X0369039Y0385360D02*
X0372103Y0385360D01*
X0372103Y0385360D01*
X0372103Y0385360D01*
X0375167Y0385360D01*
X0375167Y0385662D01*
X0375049Y0386254D01*
X0374818Y0386811D01*
X0374483Y0387313D01*
X0374056Y0387740D01*
X0373554Y0388075D01*
X0372997Y0388306D01*
X0372405Y0388424D01*
X0372103Y0388424D01*
X0371801Y0388424D01*
X0371209Y0388306D01*
X0370652Y0388075D01*
X0370150Y0387740D01*
X0369723Y0387313D01*
X0369388Y0386811D01*
X0369157Y0386254D01*
X0369039Y0385662D01*
X0369039Y0385360D01*
X0369054Y0385736D02*
X0358346Y0385736D01*
X0357437Y0387335D02*
X0369745Y0387335D01*
X0372103Y0387335D02*
X0372103Y0387335D01*
X0372103Y0388424D02*
X0372103Y0385360D01*
X0372103Y0385360D01*
X0372103Y0388424D01*
X0374461Y0387335D02*
X0382452Y0387335D01*
X0382452Y0388933D02*
X0350467Y0388933D01*
X0350846Y0390532D02*
X0360925Y0390532D01*
X0363123Y0390532D02*
X0382452Y0390532D01*
X0381813Y0392130D02*
X0364505Y0392130D01*
X0364448Y0393729D02*
X0380607Y0393729D01*
X0382452Y0385736D02*
X0375152Y0385736D01*
X0374913Y0384138D02*
X0382452Y0384138D01*
X0382452Y0382539D02*
X0373299Y0382539D01*
X0372103Y0382539D02*
X0372103Y0382539D01*
X0370907Y0382539D02*
X0308915Y0382539D01*
X0308915Y0380941D02*
X0320218Y0380941D01*
X0320568Y0381290D02*
X0319844Y0380567D01*
X0319453Y0379622D01*
X0319453Y0378599D01*
X0319844Y0377654D01*
X0320568Y0376930D01*
X0321513Y0376539D01*
X0322536Y0376539D01*
X0323481Y0376930D01*
X0324204Y0377654D01*
X0324596Y0378599D01*
X0324596Y0379622D01*
X0324204Y0380567D01*
X0323481Y0381290D01*
X0322536Y0381682D01*
X0321513Y0381682D01*
X0320568Y0381290D01*
X0319453Y0379342D02*
X0308915Y0379342D01*
X0308915Y0377744D02*
X0319807Y0377744D01*
X0324242Y0377744D02*
X0382452Y0377744D01*
X0382452Y0379342D02*
X0324596Y0379342D01*
X0323831Y0380941D02*
X0382452Y0380941D01*
X0382452Y0376145D02*
X0308915Y0376145D01*
X0308915Y0374547D02*
X0382452Y0374547D01*
X0382452Y0372948D02*
X0308915Y0372948D01*
X0308915Y0371350D02*
X0382452Y0371350D01*
X0382452Y0369751D02*
X0308915Y0369751D01*
X0320655Y0368153D02*
X0382452Y0368153D01*
X0382452Y0366554D02*
X0321415Y0366554D01*
X0321415Y0364956D02*
X0382452Y0364956D01*
X0382452Y0363357D02*
X0321415Y0363357D01*
X0321415Y0361759D02*
X0344223Y0361759D01*
X0344323Y0361825D02*
X0343821Y0361490D01*
X0343394Y0361063D01*
X0343059Y0360561D01*
X0342828Y0360004D01*
X0342710Y0359412D01*
X0342710Y0359110D01*
X0342710Y0358808D01*
X0342828Y0358217D01*
X0343059Y0357659D01*
X0343394Y0357157D01*
X0343821Y0356730D01*
X0344323Y0356395D01*
X0344881Y0356164D01*
X0345473Y0356046D01*
X0345774Y0356046D01*
X0345774Y0359110D01*
X0345774Y0359110D01*
X0342710Y0359110D01*
X0345774Y0359110D01*
X0345774Y0359110D01*
X0345774Y0356046D01*
X0346076Y0356046D01*
X0346668Y0356164D01*
X0347226Y0356395D01*
X0347727Y0356730D01*
X0348154Y0357157D01*
X0348489Y0357659D01*
X0348720Y0358217D01*
X0348838Y0358808D01*
X0348838Y0359110D01*
X0345774Y0359110D01*
X0345774Y0362174D01*
X0345473Y0362174D01*
X0344881Y0362056D01*
X0344323Y0361825D01*
X0345774Y0361759D02*
X0345774Y0361759D01*
X0345774Y0362174D02*
X0346076Y0362174D01*
X0346668Y0362056D01*
X0347226Y0361825D01*
X0347727Y0361490D01*
X0348154Y0361063D01*
X0348489Y0360561D01*
X0348720Y0360004D01*
X0348838Y0359412D01*
X0348838Y0359110D01*
X0345774Y0359110D01*
X0345774Y0359110D01*
X0345774Y0359110D01*
X0345774Y0362174D01*
X0347325Y0361759D02*
X0382452Y0361759D01*
X0382452Y0360160D02*
X0371557Y0360160D01*
X0371477Y0360240D02*
X0370976Y0360575D01*
X0370418Y0360806D01*
X0369826Y0360924D01*
X0369524Y0360924D01*
X0369223Y0360924D01*
X0368631Y0360806D01*
X0368073Y0360575D01*
X0367571Y0360240D01*
X0367144Y0359813D01*
X0366809Y0359311D01*
X0366578Y0358754D01*
X0366460Y0358162D01*
X0366460Y0357860D01*
X0366460Y0357558D01*
X0366578Y0356967D01*
X0366809Y0356409D01*
X0367144Y0355907D01*
X0367571Y0355480D01*
X0368073Y0355145D01*
X0368631Y0354914D01*
X0369223Y0354796D01*
X0369524Y0354796D01*
X0369524Y0357860D01*
X0369524Y0357860D01*
X0366460Y0357860D01*
X0369524Y0357860D01*
X0369524Y0357860D01*
X0369524Y0354796D01*
X0369826Y0354796D01*
X0370418Y0354914D01*
X0370976Y0355145D01*
X0371477Y0355480D01*
X0371904Y0355907D01*
X0372239Y0356409D01*
X0372470Y0356967D01*
X0372588Y0357558D01*
X0372588Y0357860D01*
X0369524Y0357860D01*
X0369524Y0360924D01*
X0369524Y0357860D01*
X0369524Y0357860D01*
X0369524Y0357860D01*
X0372588Y0357860D01*
X0372588Y0358162D01*
X0372470Y0358754D01*
X0372239Y0359311D01*
X0371904Y0359813D01*
X0371477Y0360240D01*
X0369524Y0360160D02*
X0369524Y0360160D01*
X0369524Y0358562D02*
X0369524Y0358562D01*
X0369524Y0356963D02*
X0369524Y0356963D01*
X0369524Y0355365D02*
X0369524Y0355365D01*
X0367745Y0355365D02*
X0340219Y0355365D01*
X0340036Y0355289D02*
X0340981Y0355680D01*
X0341704Y0356404D01*
X0342096Y0357349D01*
X0342096Y0358372D01*
X0341704Y0359317D01*
X0340981Y0360040D01*
X0340036Y0360432D01*
X0339013Y0360432D01*
X0338068Y0360040D01*
X0337344Y0359317D01*
X0336953Y0358372D01*
X0336953Y0357349D01*
X0337344Y0356404D01*
X0338068Y0355680D01*
X0339013Y0355289D01*
X0340036Y0355289D01*
X0338829Y0355365D02*
X0333969Y0355365D01*
X0333786Y0355289D02*
X0334731Y0355680D01*
X0335454Y0356404D01*
X0335846Y0357349D01*
X0335846Y0358372D01*
X0335454Y0359317D01*
X0334731Y0360040D01*
X0333786Y0360432D01*
X0332763Y0360432D01*
X0331818Y0360040D01*
X0331094Y0359317D01*
X0330703Y0358372D01*
X0330703Y0357349D01*
X0331094Y0356404D01*
X0331818Y0355680D01*
X0332763Y0355289D01*
X0333786Y0355289D01*
X0332579Y0355365D02*
X0327719Y0355365D01*
X0327536Y0355289D02*
X0328481Y0355680D01*
X0329204Y0356404D01*
X0329596Y0357349D01*
X0329596Y0358372D01*
X0329204Y0359317D01*
X0328481Y0360040D01*
X0327536Y0360432D01*
X0326513Y0360432D01*
X0325568Y0360040D01*
X0324844Y0359317D01*
X0324453Y0358372D01*
X0324453Y0357349D01*
X0324844Y0356404D01*
X0325568Y0355680D01*
X0326513Y0355289D01*
X0327536Y0355289D01*
X0326329Y0355365D02*
X0321469Y0355365D01*
X0321415Y0353766D02*
X0381775Y0353766D01*
X0382452Y0355365D02*
X0371304Y0355365D01*
X0372469Y0356963D02*
X0382452Y0356963D01*
X0382452Y0358562D02*
X0372509Y0358562D01*
X0367491Y0360160D02*
X0348656Y0360160D01*
X0348789Y0358562D02*
X0366540Y0358562D01*
X0366580Y0356963D02*
X0347960Y0356963D01*
X0345774Y0356963D02*
X0345774Y0356963D01*
X0345774Y0358562D02*
X0345774Y0358562D01*
X0345774Y0360160D02*
X0345774Y0360160D01*
X0342893Y0360160D02*
X0340692Y0360160D01*
X0342017Y0358562D02*
X0342760Y0358562D01*
X0341936Y0356963D02*
X0343589Y0356963D01*
X0338357Y0360160D02*
X0334442Y0360160D01*
X0335767Y0358562D02*
X0337031Y0358562D01*
X0337112Y0356963D02*
X0335686Y0356963D01*
X0332107Y0360160D02*
X0328192Y0360160D01*
X0329517Y0358562D02*
X0330781Y0358562D01*
X0330862Y0356963D02*
X0329436Y0356963D01*
X0325857Y0360160D02*
X0321942Y0360160D01*
X0323267Y0358562D02*
X0324531Y0358562D01*
X0324612Y0356963D02*
X0323186Y0356963D01*
X0304080Y0331387D02*
X0367427Y0331387D01*
X0368350Y0329788D02*
X0305013Y0329788D01*
X0304959Y0328190D02*
X0369789Y0328190D01*
X0372055Y0326591D02*
X0303769Y0326591D01*
X0299089Y0328190D02*
X0298915Y0328190D01*
X0298915Y0329788D02*
X0299035Y0329788D01*
X0298915Y0331387D02*
X0299968Y0331387D01*
X0285134Y0331387D02*
X0283346Y0331387D01*
X0283346Y0331099D02*
X0283346Y0332122D01*
X0282954Y0333067D01*
X0282231Y0333790D01*
X0281286Y0334182D01*
X0280263Y0334182D01*
X0279318Y0333790D01*
X0278594Y0333067D01*
X0278346Y0332468D01*
X0278346Y0333372D01*
X0277954Y0334317D01*
X0277231Y0335040D01*
X0276286Y0335432D01*
X0275263Y0335432D01*
X0274318Y0335040D01*
X0273594Y0334317D01*
X0273203Y0333372D01*
X0273203Y0332349D01*
X0273594Y0331404D01*
X0274318Y0330680D01*
X0275263Y0330289D01*
X0276286Y0330289D01*
X0277231Y0330680D01*
X0277954Y0331404D01*
X0278203Y0332003D01*
X0278203Y0331099D01*
X0278594Y0330154D01*
X0279318Y0329430D01*
X0280263Y0329039D01*
X0281286Y0329039D01*
X0282231Y0329430D01*
X0282954Y0330154D01*
X0283346Y0331099D01*
X0282589Y0329788D02*
X0285134Y0329788D01*
X0285134Y0328190D02*
X0256948Y0328190D01*
X0256901Y0328303D02*
X0256178Y0329027D01*
X0255233Y0329418D01*
X0254210Y0329418D01*
X0253264Y0329027D01*
X0252541Y0328303D01*
X0252149Y0327358D01*
X0252149Y0326335D01*
X0252541Y0325390D01*
X0253264Y0324666D01*
X0254210Y0324275D01*
X0255233Y0324275D01*
X0256178Y0324666D01*
X0256901Y0325390D01*
X0257293Y0326335D01*
X0257293Y0327358D01*
X0256901Y0328303D01*
X0257201Y0328603D02*
X0258147Y0328212D01*
X0259170Y0328212D01*
X0260115Y0328603D01*
X0260838Y0329327D01*
X0261230Y0330272D01*
X0261230Y0331295D01*
X0260838Y0332240D01*
X0260115Y0332964D01*
X0259170Y0333355D01*
X0258147Y0333355D01*
X0257201Y0332964D01*
X0256478Y0332240D01*
X0256086Y0331295D01*
X0256086Y0330272D01*
X0256478Y0329327D01*
X0257201Y0328603D01*
X0256287Y0329788D02*
X0216046Y0329788D01*
X0215824Y0330011D02*
X0214878Y0330402D01*
X0213855Y0330402D01*
X0212910Y0330011D01*
X0212187Y0329287D01*
X0211795Y0328342D01*
X0211795Y0327319D01*
X0212187Y0326374D01*
X0212910Y0325651D01*
X0213855Y0325259D01*
X0214878Y0325259D01*
X0215824Y0325651D01*
X0216547Y0326374D01*
X0216938Y0327319D01*
X0216938Y0328342D01*
X0216547Y0329287D01*
X0215824Y0330011D01*
X0216271Y0331387D02*
X0213340Y0331387D01*
X0213264Y0331311D02*
X0213988Y0332035D01*
X0214379Y0332980D01*
X0214379Y0334003D01*
X0213988Y0334948D01*
X0213264Y0335672D01*
X0212319Y0336063D01*
X0211296Y0336063D01*
X0210351Y0335672D01*
X0209628Y0334948D01*
X0209236Y0334003D01*
X0209236Y0332980D01*
X0209628Y0332035D01*
X0210351Y0331311D01*
X0211296Y0330920D01*
X0212319Y0330920D01*
X0213264Y0331311D01*
X0212688Y0329788D02*
X0129281Y0329788D01*
X0130204Y0331387D02*
X0210276Y0331387D01*
X0209236Y0332985D02*
X0130745Y0332985D01*
X0131112Y0334584D02*
X0209477Y0334584D01*
X0214139Y0334584D02*
X0214887Y0334584D01*
X0214748Y0334248D02*
X0214748Y0333225D01*
X0215139Y0332279D01*
X0215863Y0331556D01*
X0216808Y0331165D01*
X0217831Y0331165D01*
X0218776Y0331556D01*
X0219500Y0332279D01*
X0219891Y0333225D01*
X0219891Y0334248D01*
X0219500Y0335193D01*
X0218776Y0335916D01*
X0217831Y0336308D01*
X0216808Y0336308D01*
X0215863Y0335916D01*
X0215139Y0335193D01*
X0214748Y0334248D01*
X0214847Y0332985D02*
X0214379Y0332985D01*
X0216505Y0336182D02*
X0131112Y0336182D01*
X0130917Y0337781D02*
X0218685Y0337781D01*
X0218685Y0338185D02*
X0218685Y0337162D01*
X0219076Y0336216D01*
X0219800Y0335493D01*
X0220745Y0335102D01*
X0221768Y0335102D01*
X0222713Y0335493D01*
X0223437Y0336216D01*
X0223828Y0337162D01*
X0223828Y0338185D01*
X0223437Y0339130D01*
X0222713Y0339853D01*
X0221768Y0340245D01*
X0220745Y0340245D01*
X0219800Y0339853D01*
X0219076Y0339130D01*
X0218685Y0338185D01*
X0219326Y0339379D02*
X0130489Y0339379D01*
X0129653Y0340978D02*
X0285134Y0340978D01*
X0285134Y0342577D02*
X0277877Y0342577D01*
X0277954Y0342654D02*
X0278346Y0343599D01*
X0278346Y0344622D01*
X0277954Y0345567D01*
X0277231Y0346290D01*
X0276286Y0346682D01*
X0275263Y0346682D01*
X0274318Y0346290D01*
X0273594Y0345567D01*
X0273203Y0344622D01*
X0273203Y0343599D01*
X0273594Y0342654D01*
X0274318Y0341930D01*
X0275263Y0341539D01*
X0276286Y0341539D01*
X0277231Y0341930D01*
X0277954Y0342654D01*
X0278346Y0344175D02*
X0285134Y0344175D01*
X0285134Y0345774D02*
X0277748Y0345774D01*
X0273801Y0345774D02*
X0262214Y0345774D01*
X0261858Y0344175D02*
X0273203Y0344175D01*
X0273671Y0342577D02*
X0128485Y0342577D01*
X0126689Y0344175D02*
X0257427Y0344175D01*
X0261454Y0347372D02*
X0285134Y0347372D01*
X0285134Y0348971D02*
X0266703Y0348971D01*
X0267135Y0350569D02*
X0285134Y0350569D01*
X0285134Y0352168D02*
X0266501Y0352168D01*
X0264478Y0353766D02*
X0285134Y0353766D01*
X0285134Y0355365D02*
X0263600Y0355365D01*
X0260213Y0355365D02*
X0150421Y0355365D01*
X0142635Y0355365D02*
X0141930Y0355365D01*
X0142592Y0356963D02*
X0285134Y0356963D01*
X0285134Y0339379D02*
X0223187Y0339379D01*
X0223828Y0337781D02*
X0255129Y0337781D01*
X0255233Y0337885D02*
X0254509Y0337161D01*
X0254118Y0336216D01*
X0254118Y0335193D01*
X0254509Y0334248D01*
X0255233Y0333525D01*
X0256178Y0333133D01*
X0257201Y0333133D01*
X0258146Y0333525D01*
X0258870Y0334248D01*
X0259261Y0335193D01*
X0259261Y0336216D01*
X0258870Y0337161D01*
X0258146Y0337885D01*
X0257201Y0338276D01*
X0256178Y0338276D01*
X0255233Y0337885D01*
X0254118Y0336182D02*
X0252583Y0336182D01*
X0252280Y0336308D02*
X0251257Y0336308D01*
X0250312Y0335916D01*
X0249588Y0335193D01*
X0249197Y0334248D01*
X0249197Y0333225D01*
X0249588Y0332279D01*
X0250312Y0331556D01*
X0251257Y0331165D01*
X0252280Y0331165D01*
X0253225Y0331556D01*
X0253948Y0332279D01*
X0254340Y0333225D01*
X0254340Y0334248D01*
X0253948Y0335193D01*
X0253225Y0335916D01*
X0252280Y0336308D01*
X0250954Y0336182D02*
X0223403Y0336182D01*
X0219752Y0334584D02*
X0249336Y0334584D01*
X0249296Y0332985D02*
X0219792Y0332985D01*
X0218368Y0331387D02*
X0250720Y0331387D01*
X0252817Y0331387D02*
X0256125Y0331387D01*
X0257254Y0332985D02*
X0254241Y0332985D01*
X0254201Y0334584D02*
X0254370Y0334584D01*
X0259009Y0334584D02*
X0273861Y0334584D01*
X0273203Y0332985D02*
X0260062Y0332985D01*
X0261192Y0331387D02*
X0273611Y0331387D01*
X0277938Y0331387D02*
X0278203Y0331387D01*
X0278346Y0332985D02*
X0278560Y0332985D01*
X0277687Y0334584D02*
X0285134Y0334584D01*
X0285134Y0336182D02*
X0259261Y0336182D01*
X0258250Y0337781D02*
X0285134Y0337781D01*
X0285134Y0332985D02*
X0282988Y0332985D01*
X0278959Y0329788D02*
X0261029Y0329788D01*
X0257293Y0326591D02*
X0285134Y0326591D01*
X0285134Y0324993D02*
X0256504Y0324993D01*
X0252938Y0324993D02*
X0223223Y0324993D01*
X0223336Y0325862D02*
X0223336Y0326164D01*
X0223218Y0326756D01*
X0222987Y0327313D01*
X0222652Y0327815D01*
X0222225Y0328242D01*
X0221724Y0328577D01*
X0221166Y0328808D01*
X0220574Y0328926D01*
X0220272Y0328926D01*
X0220272Y0325862D01*
X0223336Y0325862D01*
X0223251Y0326591D02*
X0252149Y0326591D01*
X0252494Y0328190D02*
X0222277Y0328190D01*
X0220272Y0328190D02*
X0220272Y0328190D01*
X0220272Y0326591D02*
X0220272Y0326591D01*
X0218267Y0328190D02*
X0216938Y0328190D01*
X0216637Y0326591D02*
X0217294Y0326591D01*
X0217321Y0324993D02*
X0113211Y0324993D01*
X0113211Y0326591D02*
X0116150Y0326591D01*
X0113884Y0328190D02*
X0113211Y0328190D01*
X0125576Y0326591D02*
X0212097Y0326591D01*
X0211795Y0328190D02*
X0127842Y0328190D01*
X0113241Y0342577D02*
X0113211Y0342577D01*
X0113211Y0344175D02*
X0115036Y0344175D01*
X0113211Y0345774D02*
X0118842Y0345774D01*
X0122884Y0345774D02*
X0142716Y0345774D01*
X0141250Y0347372D02*
X0113211Y0347372D01*
X0113211Y0348971D02*
X0140588Y0348971D01*
X0140413Y0350569D02*
X0113211Y0350569D01*
X0113604Y0352168D02*
X0129756Y0352168D01*
X0128157Y0353766D02*
X0124003Y0353766D01*
X0123512Y0353275D02*
X0124650Y0354414D01*
X0125267Y0355902D01*
X0125267Y0357512D01*
X0124650Y0359000D01*
X0123512Y0360139D01*
X0122024Y0360755D01*
X0120413Y0360755D01*
X0118926Y0360139D01*
X0117787Y0359000D01*
X0117171Y0357512D01*
X0117171Y0355902D01*
X0117787Y0354414D01*
X0118926Y0353275D01*
X0120413Y0352659D01*
X0122024Y0352659D01*
X0123512Y0353275D01*
X0125044Y0355365D02*
X0127110Y0355365D01*
X0126448Y0356963D02*
X0125267Y0356963D01*
X0124832Y0358562D02*
X0126240Y0358562D01*
X0126240Y0360160D02*
X0123460Y0360160D01*
X0126653Y0361759D02*
X0113211Y0361759D01*
X0113211Y0360160D02*
X0118978Y0360160D01*
X0117605Y0358562D02*
X0113211Y0358562D01*
X0113211Y0356963D02*
X0117171Y0356963D01*
X0117393Y0355365D02*
X0113211Y0355365D01*
X0113887Y0353766D02*
X0118435Y0353766D01*
X0117604Y0363357D02*
X0127315Y0363357D01*
X0128652Y0364956D02*
X0118890Y0364956D01*
X0119284Y0366554D02*
X0130846Y0366554D01*
X0140883Y0353766D02*
X0141217Y0353766D01*
X0140555Y0352168D02*
X0139285Y0352168D01*
X0145836Y0366554D02*
X0156355Y0366554D01*
X0155537Y0368153D02*
X0146141Y0368153D01*
X0145438Y0369751D02*
X0155472Y0369751D01*
X0156065Y0371350D02*
X0113211Y0371350D01*
X0113211Y0372948D02*
X0158200Y0372948D01*
X0163504Y0368153D02*
X0168694Y0368153D01*
X0166236Y0366554D02*
X0162686Y0366554D01*
X0170554Y0360160D02*
X0217341Y0360160D01*
X0216953Y0361759D02*
X0172890Y0361759D01*
X0173060Y0376145D02*
X0257888Y0376145D01*
X0257071Y0377744D02*
X0181819Y0377744D01*
X0182096Y0379342D02*
X0257403Y0379342D01*
X0256557Y0380941D02*
X0181144Y0380941D01*
X0177229Y0377744D02*
X0171334Y0377744D01*
X0150674Y0408115D02*
X0329653Y0408115D01*
X0329491Y0409714D02*
X0310662Y0409714D01*
X0309017Y0409714D02*
X0271292Y0409714D01*
X0269646Y0409714D02*
X0231922Y0409714D01*
X0230276Y0409714D02*
X0192552Y0409714D01*
X0190906Y0409714D02*
X0151944Y0409714D01*
X0142382Y0408115D02*
X0141825Y0408115D01*
X0141112Y0409714D02*
X0140630Y0409714D01*
X0218274Y0400123D02*
X0218274Y0400123D01*
X0272110Y0398524D02*
X0361983Y0398524D01*
X0363078Y0396926D02*
X0272218Y0396926D01*
X0318274Y0395924D02*
X0318576Y0395924D01*
X0319168Y0395806D01*
X0319726Y0395575D01*
X0320227Y0395240D01*
X0320654Y0394813D01*
X0320989Y0394311D01*
X0321220Y0393754D01*
X0321338Y0393162D01*
X0321338Y0392860D01*
X0318274Y0392860D01*
X0318274Y0392860D01*
X0318274Y0392860D01*
X0318274Y0395924D01*
X0318274Y0395327D02*
X0318274Y0395327D01*
X0318274Y0393729D02*
X0318274Y0393729D01*
X0318274Y0392130D02*
X0318274Y0392130D01*
X0318274Y0390532D02*
X0318274Y0390532D01*
X0320279Y0390532D02*
X0332254Y0390532D01*
X0331280Y0392130D02*
X0321253Y0392130D01*
X0321225Y0393729D02*
X0331308Y0393729D01*
X0332436Y0395327D02*
X0320097Y0395327D01*
X0334258Y0395327D02*
X0334259Y0395327D01*
X0334258Y0393729D02*
X0334259Y0393729D01*
X0334258Y0392130D02*
X0334259Y0392130D01*
X0334258Y0390532D02*
X0334259Y0390532D01*
X0334396Y0408115D02*
X0366220Y0408115D01*
X0364135Y0409714D02*
X0334558Y0409714D01*
X0372103Y0385736D02*
X0372103Y0385736D01*
X0372103Y0384138D02*
X0372103Y0384138D01*
X0369240Y0315402D02*
X0382099Y0315402D01*
X0381775Y0313803D02*
X0369497Y0313803D01*
X0367437Y0306839D02*
X0366414Y0306839D01*
X0365469Y0306448D01*
X0364746Y0305724D01*
X0364354Y0304779D01*
X0364354Y0303756D01*
X0364746Y0302811D01*
X0365469Y0302088D01*
X0366414Y0301696D01*
X0367437Y0301696D01*
X0368383Y0302088D01*
X0369106Y0302811D01*
X0369497Y0303756D01*
X0369497Y0304779D01*
X0369106Y0305724D01*
X0368383Y0306448D01*
X0367437Y0306839D01*
X0369020Y0305811D02*
X0382452Y0305811D01*
X0382452Y0304212D02*
X0369497Y0304212D01*
X0368909Y0302614D02*
X0382452Y0302614D01*
X0382452Y0301015D02*
X0326415Y0301015D01*
X0326415Y0299417D02*
X0382452Y0299417D01*
X0382452Y0297818D02*
X0338860Y0297818D01*
X0338977Y0297740D02*
X0338476Y0298075D01*
X0337918Y0298306D01*
X0337326Y0298424D01*
X0337024Y0298424D01*
X0336723Y0298424D01*
X0336131Y0298306D01*
X0335573Y0298075D01*
X0335071Y0297740D01*
X0334644Y0297313D01*
X0334309Y0296811D01*
X0334078Y0296254D01*
X0333960Y0295662D01*
X0333960Y0295360D01*
X0333960Y0295058D01*
X0334078Y0294467D01*
X0334309Y0293909D01*
X0334644Y0293407D01*
X0335071Y0292980D01*
X0335573Y0292645D01*
X0336131Y0292414D01*
X0336723Y0292296D01*
X0337024Y0292296D01*
X0337024Y0295360D01*
X0337024Y0295360D01*
X0333960Y0295360D01*
X0337024Y0295360D01*
X0337024Y0295360D01*
X0337024Y0292296D01*
X0337326Y0292296D01*
X0337918Y0292414D01*
X0338476Y0292645D01*
X0338977Y0292980D01*
X0339404Y0293407D01*
X0339739Y0293909D01*
X0339970Y0294467D01*
X0340088Y0295058D01*
X0340088Y0295360D01*
X0337024Y0295360D01*
X0337024Y0298424D01*
X0337024Y0295360D01*
X0337024Y0295360D01*
X0337024Y0295360D01*
X0340088Y0295360D01*
X0340088Y0295662D01*
X0339970Y0296254D01*
X0339739Y0296811D01*
X0339404Y0297313D01*
X0338977Y0297740D01*
X0339977Y0296220D02*
X0365241Y0296220D01*
X0365469Y0296448D02*
X0364746Y0295724D01*
X0364354Y0294779D01*
X0364354Y0293756D01*
X0364746Y0292811D01*
X0365469Y0292088D01*
X0366414Y0291696D01*
X0367437Y0291696D01*
X0368383Y0292088D01*
X0369106Y0292811D01*
X0369497Y0293756D01*
X0369497Y0294779D01*
X0369106Y0295724D01*
X0368383Y0296448D01*
X0367437Y0296839D01*
X0366414Y0296839D01*
X0365469Y0296448D01*
X0364354Y0294621D02*
X0340001Y0294621D01*
X0339020Y0293023D02*
X0364658Y0293023D01*
X0369194Y0293023D02*
X0382452Y0293023D01*
X0382452Y0294621D02*
X0369497Y0294621D01*
X0368611Y0296220D02*
X0382452Y0296220D01*
X0382452Y0291424D02*
X0326415Y0291424D01*
X0326415Y0289826D02*
X0382452Y0289826D01*
X0382452Y0288227D02*
X0326315Y0288227D01*
X0324716Y0286629D02*
X0365906Y0286629D01*
X0365469Y0286448D02*
X0364746Y0285724D01*
X0364354Y0284779D01*
X0364354Y0283756D01*
X0364746Y0282811D01*
X0365469Y0282088D01*
X0366414Y0281696D01*
X0367437Y0281696D01*
X0368383Y0282088D01*
X0369106Y0282811D01*
X0369497Y0283756D01*
X0369497Y0284779D01*
X0369106Y0285724D01*
X0368383Y0286448D01*
X0367437Y0286839D01*
X0366414Y0286839D01*
X0365469Y0286448D01*
X0364458Y0285030D02*
X0323118Y0285030D01*
X0326415Y0293023D02*
X0335029Y0293023D01*
X0334047Y0294621D02*
X0326415Y0294621D01*
X0326415Y0296220D02*
X0334071Y0296220D01*
X0335188Y0297818D02*
X0326415Y0297818D01*
X0326415Y0302614D02*
X0364943Y0302614D01*
X0364354Y0304212D02*
X0326415Y0304212D01*
X0325497Y0305811D02*
X0364832Y0305811D01*
X0367946Y0286629D02*
X0382452Y0286629D01*
X0382452Y0285030D02*
X0369394Y0285030D01*
X0369363Y0283432D02*
X0382452Y0283432D01*
X0382452Y0281833D02*
X0367768Y0281833D01*
X0366084Y0281833D02*
X0286580Y0281833D01*
X0286477Y0281730D02*
X0286904Y0282157D01*
X0287239Y0282659D01*
X0287470Y0283217D01*
X0287588Y0283808D01*
X0287588Y0284110D01*
X0284524Y0284110D01*
X0284524Y0284110D01*
X0284524Y0281046D01*
X0284223Y0281046D01*
X0283631Y0281164D01*
X0283073Y0281395D01*
X0282571Y0281730D01*
X0282144Y0282157D01*
X0281809Y0282659D01*
X0281578Y0283217D01*
X0281460Y0283808D01*
X0281460Y0284110D01*
X0284524Y0284110D01*
X0284524Y0284110D01*
X0281460Y0284110D01*
X0281460Y0284412D01*
X0281578Y0285004D01*
X0281809Y0285561D01*
X0282144Y0286063D01*
X0282571Y0286490D01*
X0283073Y0286825D01*
X0283631Y0287056D01*
X0284223Y0287174D01*
X0284524Y0287174D01*
X0284524Y0284110D01*
X0284524Y0281046D01*
X0284826Y0281046D01*
X0285418Y0281164D01*
X0285976Y0281395D01*
X0286477Y0281730D01*
X0284524Y0281833D02*
X0284524Y0281833D01*
X0284524Y0283432D02*
X0284524Y0283432D01*
X0284524Y0284110D02*
X0284524Y0284110D01*
X0284524Y0284110D01*
X0284524Y0287174D01*
X0284826Y0287174D01*
X0285418Y0287056D01*
X0285976Y0286825D01*
X0286477Y0286490D01*
X0286904Y0286063D01*
X0287239Y0285561D01*
X0287470Y0285004D01*
X0287588Y0284412D01*
X0287588Y0284110D01*
X0284524Y0284110D01*
X0284524Y0285030D02*
X0284524Y0285030D01*
X0284524Y0286629D02*
X0284524Y0286629D01*
X0282779Y0286629D02*
X0201325Y0286629D01*
X0199524Y0286629D02*
X0199524Y0286629D01*
X0199524Y0288227D02*
X0199524Y0288227D01*
X0199524Y0289826D02*
X0199524Y0289826D01*
X0199524Y0291424D02*
X0199524Y0291424D01*
X0197505Y0291424D02*
X0113211Y0291424D01*
X0113211Y0289826D02*
X0196543Y0289826D01*
X0196576Y0288227D02*
X0113211Y0288227D01*
X0113211Y0286629D02*
X0197724Y0286629D01*
X0202472Y0288227D02*
X0290134Y0288227D01*
X0290134Y0286629D02*
X0286270Y0286629D01*
X0287459Y0285030D02*
X0290931Y0285030D01*
X0287513Y0283432D02*
X0364489Y0283432D01*
X0377137Y0272242D02*
X0273302Y0272242D01*
X0273346Y0272349D02*
X0272954Y0271404D01*
X0272231Y0270680D01*
X0271286Y0270289D01*
X0270263Y0270289D01*
X0269318Y0270680D01*
X0268594Y0271404D01*
X0268203Y0272349D01*
X0268203Y0273372D01*
X0268594Y0274317D01*
X0269318Y0275040D01*
X0270263Y0275432D01*
X0271286Y0275432D01*
X0272231Y0275040D01*
X0272954Y0274317D01*
X0273346Y0273372D01*
X0273346Y0272349D01*
X0273152Y0273841D02*
X0378735Y0273841D01*
X0380334Y0275439D02*
X0232535Y0275439D01*
X0232364Y0275026D02*
X0232755Y0275971D01*
X0232755Y0276994D01*
X0232364Y0277939D01*
X0231640Y0278662D01*
X0230695Y0279054D01*
X0229672Y0279054D01*
X0228727Y0278662D01*
X0228004Y0277939D01*
X0227612Y0276994D01*
X0227612Y0275971D01*
X0228004Y0275026D01*
X0228727Y0274302D01*
X0229672Y0273911D01*
X0230695Y0273911D01*
X0231640Y0274302D01*
X0232364Y0275026D01*
X0232737Y0277038D02*
X0381775Y0277038D01*
X0382452Y0278636D02*
X0231667Y0278636D01*
X0228701Y0278636D02*
X0216216Y0278636D01*
X0216289Y0278460D02*
X0215897Y0279406D01*
X0215174Y0280129D01*
X0214229Y0280520D01*
X0213206Y0280520D01*
X0212260Y0280129D01*
X0211537Y0279406D01*
X0211146Y0278460D01*
X0211146Y0277437D01*
X0211537Y0276492D01*
X0212260Y0275769D01*
X0213206Y0275377D01*
X0214229Y0275377D01*
X0215174Y0275769D01*
X0215897Y0276492D01*
X0216289Y0277437D01*
X0216289Y0278460D01*
X0216123Y0277038D02*
X0227630Y0277038D01*
X0227832Y0275439D02*
X0214378Y0275439D01*
X0213056Y0275439D02*
X0190165Y0275439D01*
X0190227Y0275480D02*
X0190654Y0275907D01*
X0190989Y0276409D01*
X0191220Y0276967D01*
X0191338Y0277558D01*
X0191338Y0277860D01*
X0188274Y0277860D01*
X0188274Y0277860D01*
X0188274Y0274796D01*
X0187973Y0274796D01*
X0187381Y0274914D01*
X0186823Y0275145D01*
X0186321Y0275480D01*
X0185894Y0275907D01*
X0185559Y0276409D01*
X0185328Y0276967D01*
X0185210Y0277558D01*
X0185210Y0277860D01*
X0188274Y0277860D01*
X0188274Y0277860D01*
X0185210Y0277860D01*
X0185210Y0278162D01*
X0185328Y0278754D01*
X0185559Y0279311D01*
X0185894Y0279813D01*
X0186321Y0280240D01*
X0186823Y0280575D01*
X0187381Y0280806D01*
X0187973Y0280924D01*
X0188274Y0280924D01*
X0188274Y0277860D01*
X0188274Y0274796D01*
X0188576Y0274796D01*
X0189168Y0274914D01*
X0189726Y0275145D01*
X0190227Y0275480D01*
X0189726Y0274325D02*
X0189168Y0274556D01*
X0188576Y0274674D01*
X0188274Y0274674D01*
X0187973Y0274674D01*
X0187381Y0274556D01*
X0186823Y0274325D01*
X0186321Y0273990D01*
X0185894Y0273563D01*
X0185559Y0273061D01*
X0185328Y0272504D01*
X0185210Y0271912D01*
X0185210Y0271610D01*
X0188274Y0271610D01*
X0188274Y0271610D01*
X0188274Y0274674D01*
X0188274Y0271610D01*
X0188274Y0271610D01*
X0188274Y0271610D01*
X0191338Y0271610D01*
X0191338Y0271912D01*
X0191220Y0272504D01*
X0190989Y0273061D01*
X0190654Y0273563D01*
X0190227Y0273990D01*
X0189726Y0274325D01*
X0190377Y0273841D02*
X0268397Y0273841D01*
X0268247Y0272242D02*
X0191272Y0272242D01*
X0191190Y0270644D02*
X0269406Y0270644D01*
X0272143Y0270644D02*
X0375538Y0270644D01*
X0372983Y0269045D02*
X0321498Y0269045D01*
X0317865Y0269045D02*
X0282128Y0269045D01*
X0278495Y0269045D02*
X0242758Y0269045D01*
X0239125Y0269045D02*
X0203388Y0269045D01*
X0199755Y0269045D02*
X0189950Y0269045D01*
X0186599Y0269045D02*
X0164018Y0269045D01*
X0160385Y0269045D02*
X0122679Y0269045D01*
X0120124Y0270644D02*
X0185358Y0270644D01*
X0185276Y0272242D02*
X0118526Y0272242D01*
X0116927Y0273841D02*
X0186172Y0273841D01*
X0186383Y0275439D02*
X0115329Y0275439D01*
X0113887Y0277038D02*
X0185314Y0277038D01*
X0185305Y0278636D02*
X0113211Y0278636D01*
X0113211Y0280235D02*
X0186316Y0280235D01*
X0188274Y0280235D02*
X0188274Y0280235D01*
X0188274Y0280924D02*
X0188576Y0280924D01*
X0189168Y0280806D01*
X0189726Y0280575D01*
X0190227Y0280240D01*
X0190654Y0279813D01*
X0190989Y0279311D01*
X0191220Y0278754D01*
X0191338Y0278162D01*
X0191338Y0277860D01*
X0188274Y0277860D01*
X0188274Y0277860D01*
X0188274Y0277860D01*
X0188274Y0280924D01*
X0190233Y0280235D02*
X0212515Y0280235D01*
X0211218Y0278636D02*
X0191244Y0278636D01*
X0191234Y0277038D02*
X0211311Y0277038D01*
X0214919Y0280235D02*
X0382452Y0280235D01*
X0374800Y0247122D02*
X0120863Y0247122D01*
X0111020Y0237280D01*
X0111020Y0136886D01*
X0122831Y0125075D01*
X0276375Y0125075D01*
X0355115Y0125075D01*
X0384642Y0154602D01*
X0384642Y0237280D01*
X0374800Y0247122D01*
X0360745Y0237555D02*
X0357083Y0241217D01*
X0231099Y0241217D01*
X0224524Y0234642D01*
X0224524Y0222811D01*
X0227418Y0225705D01*
X0224524Y0222811D02*
X0224524Y0219563D01*
X0226493Y0217594D01*
X0227762Y0217594D01*
X0224524Y0219563D02*
X0224524Y0200419D01*
X0188274Y0272242D02*
X0188274Y0272242D01*
X0188274Y0273841D02*
X0188274Y0273841D01*
X0188274Y0275439D02*
X0188274Y0275439D01*
X0188274Y0277038D02*
X0188274Y0277038D01*
X0188274Y0278636D02*
X0188274Y0278636D01*
X0218134Y0336182D02*
X0219110Y0336182D01*
X0269318Y0285040D02*
X0268594Y0284317D01*
X0268203Y0283372D01*
X0268203Y0282349D01*
X0268594Y0281404D01*
X0269318Y0280680D01*
X0270263Y0280289D01*
X0271286Y0280289D01*
X0272231Y0280680D01*
X0272954Y0281404D01*
X0273346Y0282349D01*
X0273346Y0283372D01*
X0272954Y0284317D01*
X0272231Y0285040D01*
X0271286Y0285432D01*
X0270263Y0285432D01*
X0269318Y0285040D01*
X0269307Y0285030D02*
X0113211Y0285030D01*
X0113211Y0283432D02*
X0268227Y0283432D01*
X0268416Y0281833D02*
X0113211Y0281833D01*
X0272241Y0285030D02*
X0281589Y0285030D01*
X0281535Y0283432D02*
X0273321Y0283432D01*
X0273132Y0281833D02*
X0282469Y0281833D01*
X0337024Y0293023D02*
X0337024Y0293023D01*
X0337024Y0294621D02*
X0337024Y0294621D01*
X0337024Y0296220D02*
X0337024Y0296220D01*
X0337024Y0297818D02*
X0337024Y0297818D01*
X0360745Y0237555D02*
X0360745Y0224671D01*
X0360745Y0217230D01*
X0361119Y0216856D01*
X0276798Y0125498D02*
X0276375Y0125075D01*
D18*
X0122831Y0125075D03*
X0111020Y0136886D03*
X0111020Y0160508D03*
X0158264Y0125075D03*
X0197635Y0125075D03*
X0237005Y0125075D03*
X0254721Y0142791D03*
X0276375Y0125075D03*
X0317713Y0125075D03*
X0355115Y0125075D03*
X0384642Y0154602D03*
X0384642Y0164445D03*
X0384642Y0213657D03*
X0384642Y0237280D03*
X0374800Y0247122D03*
X0359052Y0247122D03*
X0374800Y0266807D03*
X0384642Y0276650D03*
X0384642Y0314051D03*
X0384642Y0353421D03*
X0369524Y0357860D03*
X0345774Y0359110D03*
X0337024Y0337860D03*
X0337024Y0314110D03*
X0337024Y0295360D03*
X0319524Y0294110D03*
X0309524Y0296610D03*
X0302024Y0291610D03*
X0302024Y0304110D03*
X0302024Y0317860D03*
X0302024Y0329110D03*
X0302024Y0335360D03*
X0300774Y0342860D03*
X0305774Y0348126D03*
X0313274Y0350360D03*
X0315774Y0360360D03*
X0299524Y0359110D03*
X0303274Y0380360D03*
X0318274Y0392860D03*
X0334259Y0392860D03*
X0309839Y0412476D03*
X0270469Y0412476D03*
X0243274Y0395016D03*
X0231099Y0412476D03*
X0218274Y0398313D03*
X0191729Y0412476D03*
X0143274Y0387860D03*
X0143274Y0379110D03*
X0143274Y0367860D03*
X0111020Y0353421D03*
X0111020Y0314051D03*
X0130705Y0314051D03*
X0111020Y0276650D03*
X0120863Y0266807D03*
X0122831Y0247122D03*
X0111020Y0237280D03*
X0111020Y0213657D03*
X0162201Y0247122D03*
X0162201Y0266807D03*
X0188274Y0271610D03*
X0188274Y0277860D03*
X0199524Y0289110D03*
X0219524Y0291610D03*
X0244524Y0291610D03*
X0240942Y0266807D03*
X0240942Y0247122D03*
X0227418Y0225705D03*
X0227762Y0217594D03*
X0224524Y0200419D03*
X0201572Y0247122D03*
X0201572Y0266807D03*
X0188274Y0309110D03*
X0188274Y0315360D03*
X0220272Y0325862D03*
X0192713Y0349484D03*
X0112989Y0412476D03*
X0111020Y0392791D03*
X0280312Y0266807D03*
X0284524Y0284110D03*
X0280312Y0247122D03*
X0319682Y0247122D03*
X0319682Y0266807D03*
X0360745Y0224671D03*
X0361119Y0216856D03*
X0372103Y0385360D03*
X0384642Y0392791D03*
X0364957Y0412476D03*
D19*
X0364524Y0399110D03*
X0362024Y0392860D03*
X0355774Y0385360D03*
X0348274Y0390360D03*
X0328087Y0404110D03*
X0332024Y0409110D03*
X0322024Y0379110D03*
X0320774Y0357860D03*
X0327024Y0357860D03*
X0333274Y0357860D03*
X0339524Y0357860D03*
X0366926Y0314268D03*
X0366926Y0304268D03*
X0366926Y0294268D03*
X0366926Y0284268D03*
X0280774Y0331610D03*
X0275774Y0332860D03*
X0275774Y0344110D03*
X0264564Y0350469D03*
X0261906Y0353421D03*
X0259642Y0345547D03*
X0256690Y0335705D03*
X0258658Y0330783D03*
X0254721Y0326846D03*
X0251768Y0333736D03*
X0242024Y0307142D03*
X0267024Y0305360D03*
X0272024Y0291610D03*
X0270774Y0282860D03*
X0270774Y0272860D03*
X0278461Y0236610D03*
X0263461Y0219110D03*
X0251768Y0192004D03*
X0262595Y0182161D03*
X0258658Y0176256D03*
X0254721Y0167398D03*
X0262398Y0166610D03*
X0220272Y0175272D03*
X0217320Y0182161D03*
X0189524Y0175360D03*
X0183993Y0179110D03*
X0179465Y0175301D03*
X0162024Y0172860D03*
X0213717Y0277949D03*
X0230184Y0276482D03*
X0214367Y0327831D03*
X0211808Y0333492D03*
X0217320Y0333736D03*
X0221257Y0337673D03*
X0219524Y0361610D03*
X0213274Y0395547D03*
X0227024Y0396207D03*
X0258274Y0382860D03*
X0259642Y0378028D03*
X0264564Y0375892D03*
X0269711Y0397594D03*
X0179524Y0398923D03*
X0179524Y0386423D03*
X0179524Y0378923D03*
X0179524Y0366423D03*
X0145774Y0395360D03*
X0317024Y0175360D03*
D20*
X0322024Y0286610D02*
X0292024Y0286610D01*
X0292024Y0301610D01*
X0179524Y0301610D01*
X0179524Y0321610D01*
X0226859Y0321610D01*
X0226859Y0321395D01*
X0227265Y0320415D01*
X0228014Y0319666D01*
X0228994Y0319260D01*
X0230054Y0319260D01*
X0231034Y0319666D01*
X0231784Y0320415D01*
X0232190Y0321395D01*
X0232190Y0321610D01*
X0284524Y0321610D01*
X0287024Y0324110D01*
X0287024Y0381610D01*
X0289524Y0384110D01*
X0307024Y0384110D01*
X0307024Y0366610D01*
X0319524Y0366610D01*
X0319524Y0359823D01*
X0318503Y0358801D01*
X0318503Y0356919D01*
X0319524Y0355898D01*
X0319524Y0354110D01*
X0297024Y0354110D01*
X0297024Y0340360D01*
X0300102Y0340360D01*
X0300264Y0340293D01*
X0301285Y0340293D01*
X0301446Y0340360D01*
X0335838Y0340360D01*
X0335715Y0340309D01*
X0335262Y0340007D01*
X0334877Y0339622D01*
X0334575Y0339169D01*
X0334367Y0338666D01*
X0334260Y0338132D01*
X0334260Y0337860D01*
X0334260Y0337588D01*
X0334367Y0337054D01*
X0334575Y0336551D01*
X0334877Y0336098D01*
X0335262Y0335713D01*
X0335715Y0335411D01*
X0336218Y0335203D01*
X0336752Y0335096D01*
X0337024Y0335096D01*
X0337024Y0337860D01*
X0337024Y0337860D01*
X0334260Y0337860D01*
X0337024Y0337860D01*
X0337024Y0337860D01*
X0337024Y0335096D01*
X0337296Y0335096D01*
X0337830Y0335203D01*
X0338333Y0335411D01*
X0338786Y0335713D01*
X0339171Y0336098D01*
X0339473Y0336551D01*
X0339682Y0337054D01*
X0339788Y0337588D01*
X0339788Y0337860D01*
X0337024Y0337860D01*
X0337024Y0337860D01*
X0339788Y0337860D01*
X0339788Y0338132D01*
X0339682Y0338666D01*
X0339473Y0339169D01*
X0339171Y0339622D01*
X0338786Y0340007D01*
X0338333Y0340309D01*
X0338211Y0340360D01*
X0344524Y0340360D01*
X0344524Y0334110D01*
X0304498Y0334110D01*
X0304682Y0334554D01*
X0304788Y0335088D01*
X0304788Y0335360D01*
X0302024Y0335360D01*
X0299260Y0335360D01*
X0299260Y0335088D01*
X0299367Y0334554D01*
X0299551Y0334110D01*
X0297024Y0334110D01*
X0297024Y0314110D01*
X0307024Y0304110D01*
X0324524Y0304110D01*
X0324524Y0289110D01*
X0322024Y0286610D01*
X0322732Y0287318D02*
X0292024Y0287318D01*
X0292024Y0288317D02*
X0323731Y0288317D01*
X0324524Y0289315D02*
X0303565Y0289315D01*
X0303786Y0289463D02*
X0304171Y0289848D01*
X0304473Y0290301D01*
X0304682Y0290804D01*
X0304788Y0291338D01*
X0304788Y0291610D01*
X0302024Y0291610D01*
X0302024Y0291610D01*
X0302024Y0288846D01*
X0301752Y0288846D01*
X0301218Y0288953D01*
X0300715Y0289161D01*
X0300262Y0289463D01*
X0299877Y0289848D01*
X0299575Y0290301D01*
X0299367Y0290804D01*
X0299260Y0291338D01*
X0299260Y0291610D01*
X0302024Y0291610D01*
X0302024Y0291610D01*
X0299260Y0291610D01*
X0299260Y0291882D01*
X0299367Y0292416D01*
X0299575Y0292919D01*
X0299877Y0293372D01*
X0300262Y0293757D01*
X0300715Y0294059D01*
X0301218Y0294268D01*
X0301752Y0294374D01*
X0302024Y0294374D01*
X0302024Y0291610D01*
X0302024Y0288846D01*
X0302296Y0288846D01*
X0302830Y0288953D01*
X0303333Y0289161D01*
X0303786Y0289463D01*
X0304479Y0290314D02*
X0324524Y0290314D01*
X0324524Y0291313D02*
X0304783Y0291313D01*
X0304788Y0291610D02*
X0304788Y0291882D01*
X0304682Y0292416D01*
X0304473Y0292919D01*
X0304171Y0293372D01*
X0303786Y0293757D01*
X0303333Y0294059D01*
X0302830Y0294268D01*
X0302296Y0294374D01*
X0302024Y0294374D01*
X0302024Y0291610D01*
X0302024Y0291610D01*
X0302024Y0291610D01*
X0304788Y0291610D01*
X0304703Y0292311D02*
X0317415Y0292311D01*
X0317377Y0292348D02*
X0317762Y0291963D01*
X0318215Y0291661D01*
X0318718Y0291453D01*
X0319252Y0291346D01*
X0319524Y0291346D01*
X0319524Y0294110D01*
X0319524Y0294110D01*
X0316760Y0294110D01*
X0316760Y0293838D01*
X0316867Y0293304D01*
X0317075Y0292801D01*
X0317377Y0292348D01*
X0316866Y0293310D02*
X0304213Y0293310D01*
X0302628Y0294308D02*
X0307995Y0294308D01*
X0308215Y0294161D02*
X0308718Y0293953D01*
X0309252Y0293846D01*
X0309524Y0293846D01*
X0309524Y0296610D01*
X0309524Y0296610D01*
X0306760Y0296610D01*
X0306760Y0296338D01*
X0306867Y0295804D01*
X0307075Y0295301D01*
X0307377Y0294848D01*
X0307762Y0294463D01*
X0308215Y0294161D01*
X0309524Y0294308D02*
X0309524Y0294308D01*
X0309524Y0293846D02*
X0309524Y0296610D01*
X0309524Y0296610D01*
X0306760Y0296610D01*
X0306760Y0296882D01*
X0306867Y0297416D01*
X0307075Y0297919D01*
X0307377Y0298372D01*
X0307762Y0298757D01*
X0308215Y0299059D01*
X0308718Y0299268D01*
X0309252Y0299374D01*
X0309524Y0299374D01*
X0309524Y0296610D01*
X0309524Y0296610D01*
X0309524Y0296610D01*
X0312288Y0296610D01*
X0312288Y0296338D01*
X0312182Y0295804D01*
X0311973Y0295301D01*
X0311671Y0294848D01*
X0311286Y0294463D01*
X0310833Y0294161D01*
X0310330Y0293953D01*
X0309796Y0293846D01*
X0309524Y0293846D01*
X0309524Y0295307D02*
X0309524Y0295307D01*
X0309524Y0296305D02*
X0309524Y0296305D01*
X0309524Y0296610D02*
X0312288Y0296610D01*
X0312288Y0296882D01*
X0312182Y0297416D01*
X0311973Y0297919D01*
X0311671Y0298372D01*
X0311286Y0298757D01*
X0310833Y0299059D01*
X0310330Y0299268D01*
X0309796Y0299374D01*
X0309524Y0299374D01*
X0309524Y0296610D01*
X0309524Y0297304D02*
X0309524Y0297304D01*
X0309524Y0298302D02*
X0309524Y0298302D01*
X0309524Y0299301D02*
X0309524Y0299301D01*
X0308883Y0299301D02*
X0292024Y0299301D01*
X0292024Y0300299D02*
X0324524Y0300299D01*
X0324524Y0299301D02*
X0310166Y0299301D01*
X0311718Y0298302D02*
X0324524Y0298302D01*
X0324524Y0297304D02*
X0312204Y0297304D01*
X0312281Y0296305D02*
X0317834Y0296305D01*
X0317762Y0296257D02*
X0317377Y0295872D01*
X0317075Y0295419D01*
X0316867Y0294916D01*
X0316760Y0294382D01*
X0316760Y0294110D01*
X0319524Y0294110D01*
X0319524Y0294110D01*
X0319524Y0291346D01*
X0319796Y0291346D01*
X0320330Y0291453D01*
X0320833Y0291661D01*
X0321286Y0291963D01*
X0321671Y0292348D01*
X0321973Y0292801D01*
X0322182Y0293304D01*
X0322288Y0293838D01*
X0322288Y0294110D01*
X0319524Y0294110D01*
X0319524Y0296874D01*
X0319252Y0296874D01*
X0318718Y0296768D01*
X0318215Y0296559D01*
X0317762Y0296257D01*
X0317028Y0295307D02*
X0311976Y0295307D01*
X0311053Y0294308D02*
X0316760Y0294308D01*
X0319524Y0294308D02*
X0319524Y0294308D01*
X0319524Y0294110D02*
X0319524Y0294110D01*
X0319524Y0294110D01*
X0319524Y0296874D01*
X0319796Y0296874D01*
X0320330Y0296768D01*
X0320833Y0296559D01*
X0321286Y0296257D01*
X0321671Y0295872D01*
X0321973Y0295419D01*
X0322182Y0294916D01*
X0322288Y0294382D01*
X0322288Y0294110D01*
X0319524Y0294110D01*
X0319524Y0293310D02*
X0319524Y0293310D01*
X0319524Y0292311D02*
X0319524Y0292311D01*
X0321634Y0292311D02*
X0324524Y0292311D01*
X0324524Y0293310D02*
X0322183Y0293310D01*
X0322288Y0294308D02*
X0324524Y0294308D01*
X0324524Y0295307D02*
X0322020Y0295307D01*
X0321214Y0296305D02*
X0324524Y0296305D01*
X0324524Y0301298D02*
X0292024Y0301298D01*
X0292024Y0298302D02*
X0307331Y0298302D01*
X0306844Y0297304D02*
X0292024Y0297304D01*
X0292024Y0296305D02*
X0306767Y0296305D01*
X0307073Y0295307D02*
X0292024Y0295307D01*
X0292024Y0294308D02*
X0301420Y0294308D01*
X0302024Y0294308D02*
X0302024Y0294308D01*
X0302024Y0293310D02*
X0302024Y0293310D01*
X0302024Y0292311D02*
X0302024Y0292311D01*
X0302024Y0291313D02*
X0302024Y0291313D01*
X0302024Y0290314D02*
X0302024Y0290314D01*
X0302024Y0289315D02*
X0302024Y0289315D01*
X0300484Y0289315D02*
X0292024Y0289315D01*
X0292024Y0290314D02*
X0299570Y0290314D01*
X0299266Y0291313D02*
X0292024Y0291313D01*
X0292024Y0292311D02*
X0299346Y0292311D01*
X0299836Y0293310D02*
X0292024Y0293310D01*
X0300262Y0301963D02*
X0300715Y0301661D01*
X0301218Y0301453D01*
X0301752Y0301346D01*
X0302024Y0301346D01*
X0302024Y0304110D01*
X0302024Y0304110D01*
X0299260Y0304110D01*
X0299260Y0303838D01*
X0299367Y0303304D01*
X0299575Y0302801D01*
X0299877Y0302348D01*
X0300262Y0301963D01*
X0299930Y0302296D02*
X0179524Y0302296D01*
X0179524Y0303295D02*
X0265877Y0303295D01*
X0266083Y0303089D02*
X0267965Y0303089D01*
X0269296Y0304419D01*
X0269296Y0306301D01*
X0267965Y0307632D01*
X0266083Y0307632D01*
X0264753Y0306301D01*
X0264753Y0304419D01*
X0266083Y0303089D01*
X0264879Y0304293D02*
X0179524Y0304293D01*
X0179524Y0305292D02*
X0240662Y0305292D01*
X0241083Y0304870D02*
X0242965Y0304870D01*
X0244296Y0306201D01*
X0244296Y0308083D01*
X0242965Y0309413D01*
X0241083Y0309413D01*
X0239753Y0308083D01*
X0239753Y0306201D01*
X0241083Y0304870D01*
X0239753Y0306290D02*
X0179524Y0306290D01*
X0179524Y0307289D02*
X0186187Y0307289D01*
X0186127Y0307348D02*
X0186512Y0306963D01*
X0186965Y0306661D01*
X0187468Y0306453D01*
X0188002Y0306346D01*
X0188274Y0306346D01*
X0188274Y0309110D01*
X0188274Y0309110D01*
X0185510Y0309110D01*
X0185510Y0308838D01*
X0185617Y0308304D01*
X0185825Y0307801D01*
X0186127Y0307348D01*
X0185624Y0308287D02*
X0179524Y0308287D01*
X0179524Y0309286D02*
X0185510Y0309286D01*
X0185510Y0309382D02*
X0185510Y0309110D01*
X0188274Y0309110D01*
X0188274Y0309110D01*
X0188274Y0306346D01*
X0188546Y0306346D01*
X0189080Y0306453D01*
X0189583Y0306661D01*
X0190036Y0306963D01*
X0190421Y0307348D01*
X0190723Y0307801D01*
X0190932Y0308304D01*
X0191038Y0308838D01*
X0191038Y0309110D01*
X0188274Y0309110D01*
X0188274Y0311874D01*
X0188002Y0311874D01*
X0187468Y0311768D01*
X0186965Y0311559D01*
X0186512Y0311257D01*
X0186127Y0310872D01*
X0185825Y0310419D01*
X0185617Y0309916D01*
X0185510Y0309382D01*
X0185769Y0310284D02*
X0179524Y0310284D01*
X0179524Y0311283D02*
X0186551Y0311283D01*
X0186965Y0312911D02*
X0187468Y0312703D01*
X0188002Y0312596D01*
X0188274Y0312596D01*
X0188274Y0315360D01*
X0188274Y0315360D01*
X0185510Y0315360D01*
X0185510Y0315088D01*
X0185617Y0314554D01*
X0185825Y0314051D01*
X0186127Y0313598D01*
X0186512Y0313213D01*
X0186965Y0312911D01*
X0186446Y0313280D02*
X0179524Y0313280D01*
X0179524Y0314278D02*
X0185731Y0314278D01*
X0185510Y0315277D02*
X0179524Y0315277D01*
X0179524Y0316275D02*
X0185662Y0316275D01*
X0185617Y0316166D02*
X0185510Y0315632D01*
X0185510Y0315360D01*
X0188274Y0315360D01*
X0188274Y0315360D01*
X0188274Y0312596D01*
X0188546Y0312596D01*
X0189080Y0312703D01*
X0189583Y0312911D01*
X0190036Y0313213D01*
X0190421Y0313598D01*
X0190723Y0314051D01*
X0190932Y0314554D01*
X0191038Y0315088D01*
X0191038Y0315360D01*
X0188274Y0315360D01*
X0188274Y0318124D01*
X0188002Y0318124D01*
X0187468Y0318018D01*
X0186965Y0317809D01*
X0186512Y0317507D01*
X0186127Y0317122D01*
X0185825Y0316669D01*
X0185617Y0316166D01*
X0186279Y0317274D02*
X0179524Y0317274D01*
X0179524Y0318272D02*
X0297024Y0318272D01*
X0297024Y0317274D02*
X0190269Y0317274D01*
X0190421Y0317122D02*
X0190036Y0317507D01*
X0189583Y0317809D01*
X0189080Y0318018D01*
X0188546Y0318124D01*
X0188274Y0318124D01*
X0188274Y0315360D01*
X0188274Y0315360D01*
X0188274Y0315360D01*
X0191038Y0315360D01*
X0191038Y0315632D01*
X0190932Y0316166D01*
X0190723Y0316669D01*
X0190421Y0317122D01*
X0190887Y0316275D02*
X0297024Y0316275D01*
X0297024Y0315277D02*
X0191038Y0315277D01*
X0190818Y0314278D02*
X0297024Y0314278D01*
X0297855Y0313280D02*
X0190102Y0313280D01*
X0189583Y0311559D02*
X0189080Y0311768D01*
X0188546Y0311874D01*
X0188274Y0311874D01*
X0188274Y0309110D01*
X0188274Y0309110D01*
X0188274Y0309110D01*
X0191038Y0309110D01*
X0191038Y0309382D01*
X0190932Y0309916D01*
X0190723Y0310419D01*
X0190421Y0310872D01*
X0190036Y0311257D01*
X0189583Y0311559D01*
X0189998Y0311283D02*
X0299852Y0311283D01*
X0298853Y0312281D02*
X0179524Y0312281D01*
X0179524Y0319271D02*
X0228968Y0319271D01*
X0230081Y0319271D02*
X0297024Y0319271D01*
X0297024Y0320269D02*
X0231638Y0320269D01*
X0232137Y0321268D02*
X0297024Y0321268D01*
X0297024Y0322266D02*
X0285180Y0322266D01*
X0286179Y0323265D02*
X0297024Y0323265D01*
X0297024Y0324263D02*
X0287024Y0324263D01*
X0287024Y0325262D02*
X0297024Y0325262D01*
X0297024Y0326260D02*
X0287024Y0326260D01*
X0287024Y0327259D02*
X0297024Y0327259D01*
X0297024Y0328257D02*
X0287024Y0328257D01*
X0287024Y0329256D02*
X0297024Y0329256D01*
X0297024Y0330254D02*
X0287024Y0330254D01*
X0287024Y0331253D02*
X0297024Y0331253D01*
X0297024Y0332251D02*
X0287024Y0332251D01*
X0287024Y0333250D02*
X0297024Y0333250D01*
X0299493Y0334248D02*
X0287024Y0334248D01*
X0287024Y0335247D02*
X0299260Y0335247D01*
X0299260Y0335360D02*
X0302024Y0335360D01*
X0302024Y0335360D01*
X0302024Y0338124D01*
X0301752Y0338124D01*
X0301218Y0338018D01*
X0300715Y0337809D01*
X0300262Y0337507D01*
X0299877Y0337122D01*
X0299575Y0336669D01*
X0299367Y0336166D01*
X0299260Y0335632D01*
X0299260Y0335360D01*
X0299399Y0336246D02*
X0287024Y0336246D01*
X0287024Y0337244D02*
X0299999Y0337244D01*
X0302024Y0337244D02*
X0302024Y0337244D01*
X0302024Y0338124D02*
X0302024Y0335360D01*
X0302024Y0335360D01*
X0302024Y0335360D01*
X0304788Y0335360D01*
X0304788Y0335632D01*
X0304682Y0336166D01*
X0304473Y0336669D01*
X0304171Y0337122D01*
X0303786Y0337507D01*
X0303333Y0337809D01*
X0302830Y0338018D01*
X0302296Y0338124D01*
X0302024Y0338124D01*
X0302024Y0336246D02*
X0302024Y0336246D01*
X0304049Y0337244D02*
X0334329Y0337244D01*
X0334282Y0338243D02*
X0287024Y0338243D01*
X0287024Y0339241D02*
X0334623Y0339241D01*
X0335611Y0340240D02*
X0287024Y0340240D01*
X0287024Y0341238D02*
X0297024Y0341238D01*
X0297024Y0342237D02*
X0287024Y0342237D01*
X0287024Y0343235D02*
X0297024Y0343235D01*
X0297024Y0344234D02*
X0287024Y0344234D01*
X0287024Y0345232D02*
X0297024Y0345232D01*
X0297024Y0346231D02*
X0287024Y0346231D01*
X0287024Y0347229D02*
X0297024Y0347229D01*
X0297024Y0348228D02*
X0287024Y0348228D01*
X0287024Y0349226D02*
X0297024Y0349226D01*
X0297024Y0350225D02*
X0287024Y0350225D01*
X0287024Y0351223D02*
X0297024Y0351223D01*
X0297024Y0352222D02*
X0287024Y0352222D01*
X0287024Y0353220D02*
X0297024Y0353220D01*
X0298215Y0356661D02*
X0298718Y0356453D01*
X0299252Y0356346D01*
X0299524Y0356346D01*
X0299524Y0359110D01*
X0299524Y0359110D01*
X0296760Y0359110D01*
X0296760Y0358838D01*
X0296867Y0358304D01*
X0297075Y0357801D01*
X0297377Y0357348D01*
X0297762Y0356963D01*
X0298215Y0356661D01*
X0297512Y0357214D02*
X0287024Y0357214D01*
X0287024Y0356216D02*
X0319206Y0356216D01*
X0319524Y0355217D02*
X0287024Y0355217D01*
X0287024Y0354219D02*
X0319524Y0354219D01*
X0318503Y0357214D02*
X0301537Y0357214D01*
X0301671Y0357348D02*
X0301973Y0357801D01*
X0302182Y0358304D01*
X0302288Y0358838D01*
X0302288Y0359110D01*
X0299524Y0359110D01*
X0299524Y0359110D01*
X0296760Y0359110D01*
X0296760Y0359382D01*
X0296867Y0359916D01*
X0297075Y0360419D01*
X0297377Y0360872D01*
X0297762Y0361257D01*
X0298215Y0361559D01*
X0298718Y0361768D01*
X0299252Y0361874D01*
X0299524Y0361874D01*
X0299524Y0359110D01*
X0299524Y0356346D01*
X0299796Y0356346D01*
X0300330Y0356453D01*
X0300833Y0356661D01*
X0301286Y0356963D01*
X0301671Y0357348D01*
X0302144Y0358213D02*
X0314014Y0358213D01*
X0314012Y0358213D02*
X0314465Y0357911D01*
X0314968Y0357703D01*
X0315502Y0357596D01*
X0315774Y0357596D01*
X0315774Y0360360D01*
X0315774Y0360360D01*
X0313010Y0360360D01*
X0313010Y0360088D01*
X0313117Y0359554D01*
X0313325Y0359051D01*
X0313627Y0358598D01*
X0314012Y0358213D01*
X0313259Y0359211D02*
X0302288Y0359211D01*
X0302288Y0359110D02*
X0302288Y0359382D01*
X0302182Y0359916D01*
X0301973Y0360419D01*
X0301671Y0360872D01*
X0301286Y0361257D01*
X0300833Y0361559D01*
X0300330Y0361768D01*
X0299796Y0361874D01*
X0299524Y0361874D01*
X0299524Y0359110D01*
X0299524Y0359110D01*
X0299524Y0359110D01*
X0302288Y0359110D01*
X0302060Y0360210D02*
X0313010Y0360210D01*
X0313010Y0360360D02*
X0315774Y0360360D01*
X0315774Y0360360D01*
X0315774Y0357596D01*
X0316046Y0357596D01*
X0316580Y0357703D01*
X0317083Y0357911D01*
X0317536Y0358213D01*
X0317921Y0358598D01*
X0318223Y0359051D01*
X0318432Y0359554D01*
X0318538Y0360088D01*
X0318538Y0360360D01*
X0315774Y0360360D01*
X0315774Y0363124D01*
X0315502Y0363124D01*
X0314968Y0363018D01*
X0314465Y0362809D01*
X0314012Y0362507D01*
X0313627Y0362122D01*
X0313325Y0361669D01*
X0313117Y0361166D01*
X0313010Y0360632D01*
X0313010Y0360360D01*
X0313134Y0361208D02*
X0301335Y0361208D01*
X0299524Y0361208D02*
X0299524Y0361208D01*
X0299524Y0360210D02*
X0299524Y0360210D01*
X0299524Y0359211D02*
X0299524Y0359211D01*
X0299524Y0358213D02*
X0299524Y0358213D01*
X0299524Y0357214D02*
X0299524Y0357214D01*
X0296905Y0358213D02*
X0287024Y0358213D01*
X0287024Y0359211D02*
X0296760Y0359211D01*
X0296988Y0360210D02*
X0287024Y0360210D01*
X0287024Y0361208D02*
X0297714Y0361208D01*
X0287024Y0362207D02*
X0313712Y0362207D01*
X0315774Y0362207D02*
X0315774Y0362207D01*
X0315774Y0363124D02*
X0315774Y0360360D01*
X0315774Y0360360D01*
X0315774Y0360360D01*
X0318538Y0360360D01*
X0318538Y0360632D01*
X0318432Y0361166D01*
X0318223Y0361669D01*
X0317921Y0362122D01*
X0317536Y0362507D01*
X0317083Y0362809D01*
X0316580Y0363018D01*
X0316046Y0363124D01*
X0315774Y0363124D01*
X0315774Y0361208D02*
X0315774Y0361208D01*
X0315774Y0360210D02*
X0315774Y0360210D01*
X0315774Y0359211D02*
X0315774Y0359211D01*
X0315774Y0358213D02*
X0315774Y0358213D01*
X0317535Y0358213D02*
X0318503Y0358213D01*
X0318290Y0359211D02*
X0318913Y0359211D01*
X0318538Y0360210D02*
X0319524Y0360210D01*
X0319524Y0361208D02*
X0318414Y0361208D01*
X0317836Y0362207D02*
X0319524Y0362207D01*
X0319524Y0363205D02*
X0287024Y0363205D01*
X0287024Y0364204D02*
X0319524Y0364204D01*
X0319524Y0365202D02*
X0287024Y0365202D01*
X0287024Y0366201D02*
X0319524Y0366201D01*
X0307024Y0367199D02*
X0287024Y0367199D01*
X0287024Y0368198D02*
X0307024Y0368198D01*
X0307024Y0369196D02*
X0287024Y0369196D01*
X0287024Y0370195D02*
X0307024Y0370195D01*
X0307024Y0371193D02*
X0287024Y0371193D01*
X0287024Y0372192D02*
X0307024Y0372192D01*
X0307024Y0373190D02*
X0287024Y0373190D01*
X0287024Y0374189D02*
X0307024Y0374189D01*
X0307024Y0375187D02*
X0287024Y0375187D01*
X0287024Y0376186D02*
X0307024Y0376186D01*
X0307024Y0377184D02*
X0287024Y0377184D01*
X0287024Y0378183D02*
X0301558Y0378183D01*
X0301512Y0378213D02*
X0301965Y0377911D01*
X0302468Y0377703D01*
X0303002Y0377596D01*
X0303274Y0377596D01*
X0303274Y0380360D01*
X0303274Y0380360D01*
X0300510Y0380360D01*
X0300510Y0380088D01*
X0300617Y0379554D01*
X0300825Y0379051D01*
X0301127Y0378598D01*
X0301512Y0378213D01*
X0300771Y0379181D02*
X0287024Y0379181D01*
X0287024Y0380180D02*
X0300510Y0380180D01*
X0300510Y0380360D02*
X0303274Y0380360D01*
X0303274Y0380360D01*
X0303274Y0377596D01*
X0303546Y0377596D01*
X0304080Y0377703D01*
X0304583Y0377911D01*
X0305036Y0378213D01*
X0305421Y0378598D01*
X0305723Y0379051D01*
X0305932Y0379554D01*
X0306038Y0380088D01*
X0306038Y0380360D01*
X0303274Y0380360D01*
X0303274Y0383124D01*
X0303002Y0383124D01*
X0302468Y0383018D01*
X0301965Y0382809D01*
X0301512Y0382507D01*
X0301127Y0382122D01*
X0300825Y0381669D01*
X0300617Y0381166D01*
X0300510Y0380632D01*
X0300510Y0380360D01*
X0300622Y0381179D02*
X0287024Y0381179D01*
X0287591Y0382177D02*
X0301182Y0382177D01*
X0303274Y0382177D02*
X0303274Y0382177D01*
X0303274Y0383124D02*
X0303274Y0380360D01*
X0303274Y0380360D01*
X0303274Y0380360D01*
X0306038Y0380360D01*
X0306038Y0380632D01*
X0305932Y0381166D01*
X0305723Y0381669D01*
X0305421Y0382122D01*
X0305036Y0382507D01*
X0304583Y0382809D01*
X0304080Y0383018D01*
X0303546Y0383124D01*
X0303274Y0383124D01*
X0303274Y0381179D02*
X0303274Y0381179D01*
X0303274Y0380180D02*
X0303274Y0380180D01*
X0303274Y0379181D02*
X0303274Y0379181D01*
X0303274Y0378183D02*
X0303274Y0378183D01*
X0304990Y0378183D02*
X0307024Y0378183D01*
X0307024Y0379181D02*
X0305777Y0379181D01*
X0306038Y0380180D02*
X0307024Y0380180D01*
X0307024Y0381179D02*
X0305927Y0381179D01*
X0305366Y0382177D02*
X0307024Y0382177D01*
X0307024Y0383176D02*
X0288590Y0383176D01*
X0338438Y0340240D02*
X0344524Y0340240D01*
X0344524Y0339241D02*
X0339426Y0339241D01*
X0339766Y0338243D02*
X0344524Y0338243D01*
X0344524Y0337244D02*
X0339720Y0337244D01*
X0339269Y0336246D02*
X0344524Y0336246D01*
X0344524Y0335247D02*
X0337937Y0335247D01*
X0337024Y0335247D02*
X0337024Y0335247D01*
X0336111Y0335247D02*
X0304788Y0335247D01*
X0304649Y0336246D02*
X0334779Y0336246D01*
X0337024Y0336246D02*
X0337024Y0336246D01*
X0337024Y0337244D02*
X0337024Y0337244D01*
X0344524Y0334248D02*
X0304555Y0334248D01*
X0300850Y0310284D02*
X0190779Y0310284D01*
X0191038Y0309286D02*
X0240956Y0309286D01*
X0239957Y0308287D02*
X0190925Y0308287D01*
X0190361Y0307289D02*
X0239753Y0307289D01*
X0243093Y0309286D02*
X0301849Y0309286D01*
X0302847Y0308287D02*
X0244091Y0308287D01*
X0244296Y0307289D02*
X0265740Y0307289D01*
X0264753Y0306290D02*
X0244296Y0306290D01*
X0243387Y0305292D02*
X0264753Y0305292D01*
X0268171Y0303295D02*
X0299371Y0303295D01*
X0299260Y0304110D02*
X0302024Y0304110D01*
X0302024Y0304110D01*
X0302024Y0301346D01*
X0302296Y0301346D01*
X0302830Y0301453D01*
X0303333Y0301661D01*
X0303786Y0301963D01*
X0304171Y0302348D01*
X0304473Y0302801D01*
X0304682Y0303304D01*
X0304788Y0303838D01*
X0304788Y0304110D01*
X0302024Y0304110D01*
X0302024Y0306874D01*
X0301752Y0306874D01*
X0301218Y0306768D01*
X0300715Y0306559D01*
X0300262Y0306257D01*
X0299877Y0305872D01*
X0299575Y0305419D01*
X0299367Y0304916D01*
X0299260Y0304382D01*
X0299260Y0304110D01*
X0299260Y0304293D02*
X0269170Y0304293D01*
X0269296Y0305292D02*
X0299522Y0305292D01*
X0300312Y0306290D02*
X0269296Y0306290D01*
X0268308Y0307289D02*
X0303846Y0307289D01*
X0303333Y0306559D02*
X0303786Y0306257D01*
X0304171Y0305872D01*
X0304473Y0305419D01*
X0304682Y0304916D01*
X0304788Y0304382D01*
X0304788Y0304110D01*
X0302024Y0304110D01*
X0302024Y0304110D01*
X0302024Y0304110D01*
X0302024Y0306874D01*
X0302296Y0306874D01*
X0302830Y0306768D01*
X0303333Y0306559D01*
X0303736Y0306290D02*
X0304844Y0306290D01*
X0304526Y0305292D02*
X0305843Y0305292D01*
X0306841Y0304293D02*
X0304788Y0304293D01*
X0304678Y0303295D02*
X0324524Y0303295D01*
X0324524Y0302296D02*
X0304119Y0302296D01*
X0302024Y0302296D02*
X0302024Y0302296D01*
X0302024Y0303295D02*
X0302024Y0303295D01*
X0302024Y0304293D02*
X0302024Y0304293D01*
X0302024Y0305292D02*
X0302024Y0305292D01*
X0302024Y0306290D02*
X0302024Y0306290D01*
X0319524Y0296305D02*
X0319524Y0296305D01*
X0319524Y0295307D02*
X0319524Y0295307D01*
X0227411Y0320269D02*
X0179524Y0320269D01*
X0179524Y0321268D02*
X0226912Y0321268D01*
X0188274Y0317274D02*
X0188274Y0317274D01*
X0188274Y0316275D02*
X0188274Y0316275D01*
X0188274Y0315277D02*
X0188274Y0315277D01*
X0188274Y0314278D02*
X0188274Y0314278D01*
X0188274Y0313280D02*
X0188274Y0313280D01*
X0188274Y0311283D02*
X0188274Y0311283D01*
X0188274Y0310284D02*
X0188274Y0310284D01*
X0188274Y0309286D02*
X0188274Y0309286D01*
X0188274Y0308287D02*
X0188274Y0308287D01*
X0188274Y0307289D02*
X0188274Y0307289D01*
M02*
