G75*
%MOIN*%
%OFA0B0*%
%FSLAX25Y25*%
%IPPOS*%
%LPD*%
%AMOC8*
5,1,8,0,0,1.08239X$1,22.5*
%
%ADD10R,0.03000X0.06500*%
%ADD11R,0.03937X0.04331*%
%ADD12R,0.04724X0.07874*%
%ADD13R,0.09449X0.07874*%
%ADD14R,0.04331X0.03937*%
%ADD15R,0.06500X0.08600*%
%ADD16R,0.03150X0.03150*%
%ADD17R,0.06900X0.01100*%
%ADD18R,0.01100X0.06900*%
%ADD19R,0.03937X0.03543*%
%ADD20R,0.03500X0.06400*%
%ADD21R,0.12500X0.06400*%
D10*
X0213717Y0282528D03*
X0218717Y0282528D03*
X0223717Y0282528D03*
X0228717Y0282528D03*
X0233717Y0282528D03*
X0238717Y0282528D03*
X0243717Y0282528D03*
X0248717Y0282528D03*
X0248717Y0316028D03*
X0243717Y0316028D03*
X0238717Y0316028D03*
X0233717Y0316028D03*
X0228717Y0316028D03*
X0223717Y0316028D03*
X0218717Y0316028D03*
X0213717Y0316028D03*
X0212792Y0355667D03*
X0217792Y0355667D03*
X0222792Y0355667D03*
X0227792Y0355667D03*
X0232792Y0355667D03*
X0237792Y0355667D03*
X0242792Y0355667D03*
X0247792Y0355667D03*
X0247792Y0389167D03*
X0242792Y0389167D03*
X0237792Y0389167D03*
X0232792Y0389167D03*
X0227792Y0389167D03*
X0222792Y0389167D03*
X0217792Y0389167D03*
X0212792Y0389167D03*
D11*
X0190371Y0386423D03*
X0183678Y0386423D03*
X0183678Y0378923D03*
X0190371Y0378923D03*
X0190371Y0366423D03*
X0183678Y0366423D03*
X0157024Y0333707D03*
X0157024Y0327014D03*
X0193727Y0327457D03*
X0193727Y0320764D03*
X0188274Y0291207D03*
X0188274Y0284514D03*
X0151306Y0277457D03*
X0151306Y0270764D03*
X0137949Y0274110D03*
X0131257Y0274110D03*
X0233658Y0225469D03*
X0240351Y0225469D03*
X0240351Y0217594D03*
X0233658Y0217594D03*
X0259928Y0272860D03*
X0266621Y0272860D03*
X0266621Y0282860D03*
X0259928Y0282860D03*
X0259928Y0291610D03*
X0266621Y0291610D03*
X0266621Y0300360D03*
X0259928Y0300360D03*
X0264928Y0332860D03*
X0271621Y0332860D03*
X0271621Y0344110D03*
X0264928Y0344110D03*
X0265410Y0387063D03*
X0258717Y0387063D03*
X0258717Y0397441D03*
X0265410Y0397441D03*
X0190371Y0398923D03*
X0183678Y0398923D03*
X0367123Y0224287D03*
X0373816Y0224287D03*
X0373816Y0216807D03*
X0367123Y0216807D03*
D12*
X0199524Y0296098D03*
X0199524Y0307122D03*
X0199524Y0351443D03*
X0199524Y0362467D03*
D13*
X0144524Y0311591D03*
X0144524Y0296630D03*
D14*
X0137871Y0286876D03*
X0137871Y0280360D03*
X0131178Y0280360D03*
X0131178Y0286876D03*
X0183678Y0360173D03*
X0190371Y0360173D03*
X0190371Y0407673D03*
X0183678Y0407673D03*
X0296178Y0387860D03*
X0302871Y0387860D03*
X0308678Y0387860D03*
X0315371Y0387860D03*
X0323274Y0387014D03*
X0329259Y0387014D03*
X0329259Y0393707D03*
X0323274Y0393707D03*
D15*
X0144524Y0339560D03*
X0144524Y0326160D03*
D16*
X0234052Y0209720D03*
X0239957Y0209720D03*
X0239957Y0231374D03*
X0234052Y0231374D03*
X0125774Y0274110D03*
X0119869Y0274110D03*
X0367910Y0231374D03*
X0373816Y0231374D03*
X0373816Y0209720D03*
X0367910Y0209720D03*
D17*
X0353824Y0290193D03*
X0353824Y0292161D03*
X0353824Y0294130D03*
X0353824Y0296098D03*
X0353824Y0298067D03*
X0353824Y0300035D03*
X0353824Y0302004D03*
X0353824Y0303972D03*
X0353824Y0305941D03*
X0353824Y0307909D03*
X0353824Y0309878D03*
X0353824Y0311846D03*
X0353824Y0313815D03*
X0353824Y0315783D03*
X0353824Y0317752D03*
X0353824Y0319720D03*
X0353824Y0321689D03*
X0353824Y0323657D03*
X0353824Y0325626D03*
X0353824Y0327594D03*
X0353824Y0329563D03*
X0353824Y0331531D03*
X0353824Y0333500D03*
X0353824Y0335469D03*
X0353824Y0337437D03*
X0353824Y0339406D03*
X0353824Y0341374D03*
X0353824Y0343343D03*
X0353824Y0345311D03*
X0353824Y0347280D03*
X0353824Y0349248D03*
X0353824Y0351217D03*
X0353824Y0353185D03*
X0353824Y0355154D03*
X0353824Y0357122D03*
X0353824Y0359091D03*
X0353824Y0361059D03*
X0353824Y0363028D03*
X0290224Y0363028D03*
X0290224Y0361059D03*
X0290224Y0359091D03*
X0290224Y0357122D03*
X0290224Y0355154D03*
X0290224Y0353185D03*
X0290224Y0351217D03*
X0290224Y0349248D03*
X0290224Y0347280D03*
X0290224Y0345311D03*
X0290224Y0343343D03*
X0290224Y0341374D03*
X0290224Y0339406D03*
X0290224Y0337437D03*
X0290224Y0335469D03*
X0290224Y0333500D03*
X0290224Y0331531D03*
X0290224Y0329563D03*
X0290224Y0327594D03*
X0290224Y0325626D03*
X0290224Y0323657D03*
X0290224Y0321689D03*
X0290224Y0319720D03*
X0290224Y0317752D03*
X0290224Y0315783D03*
X0290224Y0313815D03*
X0290224Y0311846D03*
X0290224Y0309878D03*
X0290224Y0307909D03*
X0290224Y0305941D03*
X0290224Y0303972D03*
X0290224Y0302004D03*
X0290224Y0300035D03*
X0290224Y0298067D03*
X0290224Y0296098D03*
X0290224Y0294130D03*
X0290224Y0292161D03*
X0290224Y0290193D03*
D18*
X0297418Y0283010D03*
X0299386Y0283010D03*
X0301355Y0283010D03*
X0303323Y0283010D03*
X0305292Y0283010D03*
X0307260Y0283010D03*
X0309229Y0283010D03*
X0311198Y0283010D03*
X0313166Y0283010D03*
X0315135Y0283010D03*
X0317103Y0283010D03*
X0319072Y0283010D03*
X0321040Y0283010D03*
X0323009Y0283010D03*
X0324977Y0283010D03*
X0326946Y0283010D03*
X0328914Y0283010D03*
X0330883Y0283010D03*
X0332851Y0283010D03*
X0334820Y0283010D03*
X0336788Y0283010D03*
X0338757Y0283010D03*
X0340725Y0283010D03*
X0342694Y0283010D03*
X0344662Y0283010D03*
X0346631Y0283010D03*
X0346631Y0370210D03*
X0344662Y0370210D03*
X0342694Y0370210D03*
X0340725Y0370210D03*
X0338757Y0370210D03*
X0336788Y0370210D03*
X0334820Y0370210D03*
X0332851Y0370210D03*
X0330883Y0370210D03*
X0328914Y0370210D03*
X0326946Y0370210D03*
X0324977Y0370210D03*
X0323009Y0370210D03*
X0321040Y0370210D03*
X0319072Y0370210D03*
X0317103Y0370210D03*
X0315135Y0370210D03*
X0313166Y0370210D03*
X0311198Y0370210D03*
X0309229Y0370210D03*
X0307260Y0370210D03*
X0305292Y0370210D03*
X0303323Y0370210D03*
X0301355Y0370210D03*
X0299386Y0370210D03*
X0297418Y0370210D03*
D19*
X0302133Y0393559D03*
X0302133Y0399661D03*
X0309416Y0399661D03*
X0309416Y0393559D03*
D20*
X0184874Y0311510D03*
X0175774Y0311510D03*
X0166674Y0311510D03*
X0170774Y0276510D03*
X0161674Y0276510D03*
X0179874Y0276510D03*
D21*
X0170774Y0301710D03*
X0175774Y0336710D03*
M02*
