G75*
%MOIN*%
%OFA0B0*%
%FSLAX25Y25*%
%IPPOS*%
%LPD*%
%AMOC8*
5,1,8,0,0,1.08239X$1,22.5*
%
%ADD10C,0.00400*%
%ADD11C,0.06000*%
%ADD12C,0.04800*%
%ADD13C,0.07050*%
%ADD14C,0.05315*%
%ADD15C,0.09449*%
%ADD16C,0.17717*%
%ADD17C,0.02953*%
%ADD18C,0.01600*%
%ADD19C,0.02362*%
D10*
X0128603Y0427893D02*
X0131673Y0430962D01*
X0131673Y0431730D01*
X0130905Y0432497D01*
X0129371Y0432497D01*
X0128603Y0431730D01*
X0128603Y0427893D02*
X0131673Y0427893D01*
D11*
X0127024Y0308579D03*
X0127024Y0298579D03*
D12*
X0165449Y0200461D03*
X0175449Y0200461D03*
X0185449Y0200461D03*
X0195449Y0200461D03*
X0190449Y0190461D03*
X0180449Y0190461D03*
X0170449Y0190461D03*
X0160449Y0190461D03*
X0294308Y0190461D03*
X0304308Y0190461D03*
X0314308Y0190461D03*
X0324308Y0190461D03*
X0329308Y0200461D03*
X0319308Y0200461D03*
X0309308Y0200461D03*
X0299308Y0200461D03*
D13*
X0285808Y0140661D03*
X0151949Y0140661D03*
D14*
X0121219Y0356707D03*
X0115236Y0366714D03*
X0121221Y0396517D03*
X0115234Y0406510D03*
X0159520Y0399113D03*
X0159520Y0389113D03*
X0159520Y0379113D03*
X0159520Y0369113D03*
X0169520Y0364113D03*
X0169520Y0374113D03*
X0169520Y0384113D03*
X0169520Y0394113D03*
D15*
X0146528Y0412617D03*
X0146528Y0350609D03*
D16*
X0120863Y0335705D03*
X0120863Y0182161D03*
X0376768Y0182161D03*
X0376768Y0335705D03*
D17*
X0122831Y0125075D03*
X0111020Y0136886D03*
X0111020Y0160508D03*
X0158264Y0125075D03*
X0197635Y0125075D03*
X0237005Y0125075D03*
X0254721Y0142791D03*
X0276375Y0125075D03*
X0317713Y0125075D03*
X0355115Y0125075D03*
X0384642Y0154602D03*
X0384642Y0164445D03*
X0384642Y0213657D03*
X0384642Y0237280D03*
X0374800Y0247122D03*
X0359052Y0247122D03*
X0374800Y0266807D03*
X0384642Y0276650D03*
X0384642Y0314051D03*
X0384642Y0353421D03*
X0369524Y0357860D03*
X0345774Y0359110D03*
X0337024Y0337860D03*
X0337024Y0314110D03*
X0337024Y0295360D03*
X0319524Y0294110D03*
X0309524Y0296610D03*
X0302024Y0291610D03*
X0302024Y0304110D03*
X0302024Y0317860D03*
X0302024Y0329110D03*
X0302024Y0335360D03*
X0300774Y0342860D03*
X0305774Y0348126D03*
X0313274Y0350360D03*
X0315774Y0360360D03*
X0299524Y0359110D03*
X0303274Y0380360D03*
X0318274Y0392860D03*
X0334259Y0392860D03*
X0309839Y0412476D03*
X0270469Y0412476D03*
X0243274Y0395016D03*
X0231099Y0412476D03*
X0218274Y0398313D03*
X0191729Y0412476D03*
X0143274Y0387860D03*
X0143274Y0379110D03*
X0143274Y0367860D03*
X0111020Y0353421D03*
X0111020Y0314051D03*
X0130705Y0314051D03*
X0111020Y0276650D03*
X0120863Y0266807D03*
X0122831Y0247122D03*
X0111020Y0237280D03*
X0111020Y0213657D03*
X0162201Y0247122D03*
X0162201Y0266807D03*
X0188274Y0271610D03*
X0188274Y0277860D03*
X0199524Y0289110D03*
X0219524Y0291610D03*
X0244524Y0291610D03*
X0240942Y0266807D03*
X0240942Y0247122D03*
X0227418Y0225705D03*
X0227762Y0217594D03*
X0224524Y0200419D03*
X0201572Y0247122D03*
X0201572Y0266807D03*
X0188274Y0309110D03*
X0188274Y0315360D03*
X0220272Y0325862D03*
X0192713Y0349484D03*
X0112989Y0412476D03*
X0111020Y0392791D03*
X0280312Y0266807D03*
X0284524Y0284110D03*
X0280312Y0247122D03*
X0319682Y0247122D03*
X0319682Y0266807D03*
X0360745Y0224671D03*
X0361119Y0216856D03*
X0372103Y0385360D03*
X0384642Y0392791D03*
X0364957Y0412476D03*
D18*
X0191729Y0412476D01*
X0191588Y0412617D01*
X0146528Y0412617D01*
X0146453Y0412476D02*
X0112989Y0412476D01*
X0111020Y0410508D01*
X0111020Y0276650D01*
X0120863Y0266807D01*
X0374800Y0266807D01*
X0384642Y0276650D01*
X0384642Y0392791D01*
X0364957Y0412476D01*
X0363093Y0410286D02*
X0363333Y0410046D01*
X0364387Y0409609D01*
X0364726Y0409609D01*
X0381775Y0392560D01*
X0381775Y0392221D01*
X0382212Y0391167D01*
X0382452Y0390927D01*
X0382452Y0355285D01*
X0382212Y0355045D01*
X0381775Y0353992D01*
X0381775Y0352851D01*
X0382212Y0351797D01*
X0382452Y0351557D01*
X0382452Y0344258D01*
X0380724Y0345255D01*
X0378118Y0345954D01*
X0375419Y0345954D01*
X0372812Y0345255D01*
X0370475Y0343906D01*
X0368567Y0341998D01*
X0367218Y0339661D01*
X0366520Y0337054D01*
X0366520Y0334355D01*
X0367218Y0331749D01*
X0368567Y0329412D01*
X0370475Y0327504D01*
X0372812Y0326154D01*
X0375419Y0325456D01*
X0378118Y0325456D01*
X0380724Y0326154D01*
X0382452Y0327152D01*
X0382452Y0315915D01*
X0382212Y0315675D01*
X0381775Y0314621D01*
X0381775Y0313481D01*
X0382212Y0312427D01*
X0382452Y0312187D01*
X0382452Y0278513D01*
X0382212Y0278274D01*
X0381775Y0277220D01*
X0381775Y0276881D01*
X0374569Y0269674D01*
X0374230Y0269674D01*
X0373176Y0269238D01*
X0372936Y0268998D01*
X0321546Y0268998D01*
X0321306Y0269238D01*
X0320252Y0269674D01*
X0319111Y0269674D01*
X0318058Y0269238D01*
X0317818Y0268998D01*
X0282176Y0268998D01*
X0281936Y0269238D01*
X0280882Y0269674D01*
X0279741Y0269674D01*
X0278688Y0269238D01*
X0278448Y0268998D01*
X0242805Y0268998D01*
X0242566Y0269238D01*
X0241512Y0269674D01*
X0240371Y0269674D01*
X0239318Y0269238D01*
X0239078Y0268998D01*
X0203435Y0268998D01*
X0203195Y0269238D01*
X0202142Y0269674D01*
X0201001Y0269674D01*
X0199948Y0269238D01*
X0199708Y0268998D01*
X0189458Y0268998D01*
X0189898Y0269180D01*
X0190705Y0269986D01*
X0191141Y0271040D01*
X0191141Y0272180D01*
X0190705Y0273234D01*
X0189898Y0274041D01*
X0188845Y0274477D01*
X0187704Y0274477D01*
X0186650Y0274041D01*
X0185844Y0273234D01*
X0185407Y0272180D01*
X0185407Y0271040D01*
X0185844Y0269986D01*
X0186650Y0269180D01*
X0187090Y0268998D01*
X0164065Y0268998D01*
X0163825Y0269238D01*
X0162772Y0269674D01*
X0161631Y0269674D01*
X0160577Y0269238D01*
X0160338Y0268998D01*
X0122727Y0268998D01*
X0122487Y0269238D01*
X0121433Y0269674D01*
X0121094Y0269674D01*
X0113887Y0276881D01*
X0113887Y0277220D01*
X0113451Y0278274D01*
X0113211Y0278513D01*
X0113211Y0312187D01*
X0113451Y0312427D01*
X0113887Y0313481D01*
X0113887Y0314621D01*
X0113451Y0315675D01*
X0113211Y0315915D01*
X0113211Y0328863D01*
X0114570Y0327504D01*
X0116907Y0326154D01*
X0119514Y0325456D01*
X0122212Y0325456D01*
X0124819Y0326154D01*
X0127156Y0327504D01*
X0129064Y0329412D01*
X0130413Y0331749D01*
X0131112Y0334355D01*
X0131112Y0337054D01*
X0130413Y0339661D01*
X0129064Y0341998D01*
X0127156Y0343906D01*
X0124819Y0345255D01*
X0122212Y0345954D01*
X0119514Y0345954D01*
X0116907Y0345255D01*
X0114570Y0343906D01*
X0113211Y0342547D01*
X0113211Y0351557D01*
X0113451Y0351797D01*
X0113887Y0352851D01*
X0113887Y0353992D01*
X0113451Y0355045D01*
X0113211Y0355285D01*
X0113211Y0363172D01*
X0114431Y0362666D01*
X0116042Y0362666D01*
X0117529Y0363282D01*
X0118668Y0364421D01*
X0119284Y0365909D01*
X0119284Y0367519D01*
X0118668Y0369007D01*
X0117529Y0370146D01*
X0116042Y0370762D01*
X0114431Y0370762D01*
X0113211Y0370257D01*
X0113211Y0390927D01*
X0113451Y0391167D01*
X0113887Y0392221D01*
X0113887Y0393362D01*
X0113451Y0394415D01*
X0113211Y0394655D01*
X0113211Y0402967D01*
X0114429Y0402462D01*
X0116040Y0402462D01*
X0117527Y0403078D01*
X0118666Y0404217D01*
X0119282Y0405705D01*
X0119282Y0407315D01*
X0118666Y0408803D01*
X0117527Y0409942D01*
X0116697Y0410286D01*
X0128983Y0410286D01*
X0127500Y0408804D01*
X0126240Y0405760D01*
X0126240Y0402466D01*
X0127500Y0399423D01*
X0129830Y0397094D01*
X0132873Y0395833D01*
X0136167Y0395833D01*
X0139211Y0397094D01*
X0141540Y0399423D01*
X0142800Y0402466D01*
X0142800Y0405760D01*
X0141540Y0408804D01*
X0140058Y0410286D01*
X0140875Y0410286D01*
X0141344Y0409153D01*
X0143064Y0407433D01*
X0145312Y0406502D01*
X0147744Y0406502D01*
X0149992Y0407433D01*
X0151712Y0409153D01*
X0152239Y0410427D01*
X0189724Y0410427D01*
X0190105Y0410046D01*
X0191159Y0409609D01*
X0192299Y0409609D01*
X0193353Y0410046D01*
X0193593Y0410286D01*
X0229235Y0410286D01*
X0229475Y0410046D01*
X0230529Y0409609D01*
X0231669Y0409609D01*
X0232723Y0410046D01*
X0232963Y0410286D01*
X0268605Y0410286D01*
X0268845Y0410046D01*
X0269899Y0409609D01*
X0271039Y0409609D01*
X0272093Y0410046D01*
X0272333Y0410286D01*
X0307975Y0410286D01*
X0308215Y0410046D01*
X0309269Y0409609D01*
X0310409Y0409609D01*
X0311463Y0410046D01*
X0311703Y0410286D01*
X0329728Y0410286D01*
X0329453Y0409622D01*
X0329453Y0408599D01*
X0329844Y0407654D01*
X0330568Y0406930D01*
X0331513Y0406539D01*
X0332536Y0406539D01*
X0333481Y0406930D01*
X0334204Y0407654D01*
X0334596Y0408599D01*
X0334596Y0409622D01*
X0334321Y0410286D01*
X0363093Y0410286D01*
X0364135Y0409714D02*
X0334558Y0409714D01*
X0334396Y0408115D02*
X0366220Y0408115D01*
X0367819Y0406517D02*
X0328997Y0406517D01*
X0328599Y0406682D02*
X0329544Y0406290D01*
X0330267Y0405567D01*
X0330659Y0404622D01*
X0330659Y0403599D01*
X0330267Y0402654D01*
X0329544Y0401930D01*
X0328599Y0401539D01*
X0327576Y0401539D01*
X0326631Y0401930D01*
X0325907Y0402654D01*
X0325516Y0403599D01*
X0325516Y0404622D01*
X0325907Y0405567D01*
X0326631Y0406290D01*
X0327576Y0406682D01*
X0328599Y0406682D01*
X0327178Y0406517D02*
X0147780Y0406517D01*
X0145276Y0406517D02*
X0142487Y0406517D01*
X0142382Y0408115D02*
X0141825Y0408115D01*
X0141112Y0409714D02*
X0140630Y0409714D01*
X0142800Y0404918D02*
X0325639Y0404918D01*
X0325631Y0403320D02*
X0142800Y0403320D01*
X0142492Y0401721D02*
X0156403Y0401721D01*
X0156088Y0401406D02*
X0155472Y0399919D01*
X0155472Y0398308D01*
X0156088Y0396820D01*
X0157227Y0395682D01*
X0158715Y0395065D01*
X0160325Y0395065D01*
X0161813Y0395682D01*
X0162952Y0396820D01*
X0163568Y0398308D01*
X0163568Y0399919D01*
X0162952Y0401406D01*
X0161813Y0402545D01*
X0160325Y0403161D01*
X0158715Y0403161D01*
X0157227Y0402545D01*
X0156088Y0401406D01*
X0155557Y0400123D02*
X0141830Y0400123D01*
X0140641Y0398524D02*
X0155472Y0398524D01*
X0156045Y0396926D02*
X0147845Y0396926D01*
X0147954Y0396817D02*
X0147231Y0397540D01*
X0146286Y0397932D01*
X0145263Y0397932D01*
X0144318Y0397540D01*
X0143594Y0396817D01*
X0143203Y0395872D01*
X0143203Y0394849D01*
X0143594Y0393904D01*
X0144318Y0393180D01*
X0145263Y0392789D01*
X0146286Y0392789D01*
X0147231Y0393180D01*
X0147954Y0393904D01*
X0148346Y0394849D01*
X0148346Y0395872D01*
X0147954Y0396817D01*
X0148346Y0395327D02*
X0158082Y0395327D01*
X0158715Y0393161D02*
X0157227Y0392545D01*
X0156088Y0391406D01*
X0155472Y0389919D01*
X0155472Y0388308D01*
X0156088Y0386820D01*
X0157227Y0385682D01*
X0158715Y0385065D01*
X0160325Y0385065D01*
X0161813Y0385682D01*
X0162952Y0386820D01*
X0163568Y0388308D01*
X0163568Y0389919D01*
X0162952Y0391406D01*
X0161813Y0392545D01*
X0160325Y0393161D01*
X0158715Y0393161D01*
X0156812Y0392130D02*
X0113850Y0392130D01*
X0113735Y0393729D02*
X0118284Y0393729D01*
X0117789Y0394224D02*
X0118928Y0393085D01*
X0120415Y0392469D01*
X0122026Y0392469D01*
X0123514Y0393085D01*
X0124652Y0394224D01*
X0125269Y0395712D01*
X0125269Y0397322D01*
X0124652Y0398810D01*
X0123514Y0399949D01*
X0122026Y0400565D01*
X0120415Y0400565D01*
X0118928Y0399949D01*
X0117789Y0398810D01*
X0117173Y0397322D01*
X0117173Y0395712D01*
X0117789Y0394224D01*
X0117332Y0395327D02*
X0113211Y0395327D01*
X0113211Y0396926D02*
X0117173Y0396926D01*
X0117670Y0398524D02*
X0113211Y0398524D01*
X0113211Y0400123D02*
X0119347Y0400123D01*
X0117769Y0403320D02*
X0126240Y0403320D01*
X0126240Y0404918D02*
X0118957Y0404918D01*
X0119282Y0406517D02*
X0126553Y0406517D01*
X0127215Y0408115D02*
X0118951Y0408115D01*
X0117755Y0409714D02*
X0128411Y0409714D01*
X0126548Y0401721D02*
X0113211Y0401721D01*
X0123094Y0400123D02*
X0127211Y0400123D01*
X0128399Y0398524D02*
X0124771Y0398524D01*
X0125269Y0396926D02*
X0130235Y0396926D01*
X0125109Y0395327D02*
X0143203Y0395327D01*
X0143703Y0396926D02*
X0138806Y0396926D01*
X0143769Y0393729D02*
X0124157Y0393729D01*
X0113211Y0390532D02*
X0142233Y0390532D01*
X0142704Y0390727D02*
X0141650Y0390291D01*
X0140844Y0389484D01*
X0140407Y0388430D01*
X0140407Y0387290D01*
X0140844Y0386236D01*
X0141650Y0385430D01*
X0142704Y0384993D01*
X0143845Y0384993D01*
X0144898Y0385430D01*
X0145705Y0386236D01*
X0146141Y0387290D01*
X0146141Y0388430D01*
X0145705Y0389484D01*
X0144898Y0390291D01*
X0143845Y0390727D01*
X0142704Y0390727D01*
X0144316Y0390532D02*
X0155726Y0390532D01*
X0155472Y0388933D02*
X0145933Y0388933D01*
X0146141Y0387335D02*
X0155875Y0387335D01*
X0157172Y0385736D02*
X0145205Y0385736D01*
X0141344Y0385736D02*
X0113211Y0385736D01*
X0113211Y0384138D02*
X0169434Y0384138D01*
X0169434Y0384199D02*
X0169434Y0384027D01*
X0169606Y0384027D01*
X0169606Y0379868D01*
X0169854Y0379868D01*
X0170514Y0379973D01*
X0171150Y0380179D01*
X0171745Y0380483D01*
X0172286Y0380876D01*
X0172758Y0381348D01*
X0173151Y0381889D01*
X0173454Y0382484D01*
X0173661Y0383119D01*
X0173765Y0383779D01*
X0173765Y0384027D01*
X0169606Y0384027D01*
X0169606Y0384199D01*
X0173765Y0384199D01*
X0173765Y0384447D01*
X0173661Y0385107D01*
X0173454Y0385743D01*
X0173151Y0386338D01*
X0172758Y0386879D01*
X0172286Y0387351D01*
X0171745Y0387744D01*
X0171150Y0388047D01*
X0170514Y0388254D01*
X0169854Y0388358D01*
X0169606Y0388358D01*
X0169606Y0384199D01*
X0169434Y0384199D01*
X0165275Y0384199D01*
X0165275Y0384447D01*
X0165380Y0385107D01*
X0165586Y0385743D01*
X0165890Y0386338D01*
X0166282Y0386879D01*
X0166755Y0387351D01*
X0167295Y0387744D01*
X0167891Y0388047D01*
X0168526Y0388254D01*
X0169186Y0388358D01*
X0169434Y0388358D01*
X0169434Y0384199D01*
X0169434Y0384027D02*
X0165275Y0384027D01*
X0165275Y0383779D01*
X0165380Y0383119D01*
X0165586Y0382484D01*
X0165890Y0381889D01*
X0166282Y0381348D01*
X0166755Y0380876D01*
X0167295Y0380483D01*
X0167891Y0380179D01*
X0168526Y0379973D01*
X0169186Y0379868D01*
X0169434Y0379868D01*
X0169434Y0384027D01*
X0169606Y0384138D02*
X0178322Y0384138D01*
X0178068Y0384243D02*
X0179013Y0383852D01*
X0180036Y0383852D01*
X0180981Y0384243D01*
X0181704Y0384966D01*
X0182096Y0385912D01*
X0182096Y0386935D01*
X0181704Y0387880D01*
X0180981Y0388603D01*
X0180036Y0388995D01*
X0179013Y0388995D01*
X0178068Y0388603D01*
X0177344Y0387880D01*
X0176953Y0386935D01*
X0176953Y0385912D01*
X0177344Y0384966D01*
X0178068Y0384243D01*
X0177025Y0385736D02*
X0173456Y0385736D01*
X0172302Y0387335D02*
X0177118Y0387335D01*
X0178864Y0388933D02*
X0163568Y0388933D01*
X0163314Y0390532D02*
X0167589Y0390532D01*
X0167227Y0390682D02*
X0168715Y0390065D01*
X0170325Y0390065D01*
X0171813Y0390682D01*
X0172952Y0391820D01*
X0173568Y0393308D01*
X0173568Y0394919D01*
X0172952Y0396406D01*
X0171813Y0397545D01*
X0170325Y0398161D01*
X0168715Y0398161D01*
X0167227Y0397545D01*
X0166088Y0396406D01*
X0165472Y0394919D01*
X0165472Y0393308D01*
X0166088Y0391820D01*
X0167227Y0390682D01*
X0165960Y0392130D02*
X0162228Y0392130D01*
X0160958Y0395327D02*
X0165641Y0395327D01*
X0165472Y0393729D02*
X0147780Y0393729D01*
X0140616Y0388933D02*
X0113211Y0388933D01*
X0113211Y0387335D02*
X0140407Y0387335D01*
X0142704Y0381977D02*
X0141650Y0381541D01*
X0140844Y0380734D01*
X0140407Y0379680D01*
X0140407Y0378540D01*
X0140844Y0377486D01*
X0141650Y0376680D01*
X0142704Y0376243D01*
X0143845Y0376243D01*
X0144898Y0376680D01*
X0145705Y0377486D01*
X0146141Y0378540D01*
X0146141Y0379680D01*
X0145705Y0380734D01*
X0144898Y0381541D01*
X0143845Y0381977D01*
X0142704Y0381977D01*
X0141050Y0380941D02*
X0113211Y0380941D01*
X0113211Y0382539D02*
X0157014Y0382539D01*
X0156755Y0382351D02*
X0157295Y0382744D01*
X0157891Y0383047D01*
X0158526Y0383254D01*
X0159186Y0383358D01*
X0159434Y0383358D01*
X0159434Y0379199D01*
X0159434Y0379027D01*
X0159606Y0379027D01*
X0159606Y0374868D01*
X0159854Y0374868D01*
X0160514Y0374973D01*
X0161150Y0375179D01*
X0161745Y0375483D01*
X0162286Y0375876D01*
X0162758Y0376348D01*
X0163151Y0376889D01*
X0163454Y0377484D01*
X0163661Y0378119D01*
X0163765Y0378779D01*
X0163765Y0379027D01*
X0159606Y0379027D01*
X0159606Y0379199D01*
X0163765Y0379199D01*
X0163765Y0379447D01*
X0163661Y0380107D01*
X0163454Y0380743D01*
X0163151Y0381338D01*
X0162758Y0381879D01*
X0162286Y0382351D01*
X0161745Y0382744D01*
X0161150Y0383047D01*
X0160514Y0383254D01*
X0159854Y0383358D01*
X0159606Y0383358D01*
X0159606Y0379199D01*
X0159434Y0379199D01*
X0155275Y0379199D01*
X0155275Y0379447D01*
X0155380Y0380107D01*
X0155586Y0380743D01*
X0155890Y0381338D01*
X0156282Y0381879D01*
X0156755Y0382351D01*
X0155687Y0380941D02*
X0145498Y0380941D01*
X0146141Y0379342D02*
X0155275Y0379342D01*
X0155275Y0379027D02*
X0155275Y0378779D01*
X0155380Y0378119D01*
X0155586Y0377484D01*
X0155890Y0376889D01*
X0156282Y0376348D01*
X0156755Y0375876D01*
X0157295Y0375483D01*
X0157891Y0375179D01*
X0158526Y0374973D01*
X0159186Y0374868D01*
X0159434Y0374868D01*
X0159434Y0379027D01*
X0155275Y0379027D01*
X0155502Y0377744D02*
X0145811Y0377744D01*
X0140737Y0377744D02*
X0113211Y0377744D01*
X0113211Y0379342D02*
X0140407Y0379342D01*
X0142704Y0370727D02*
X0141650Y0370291D01*
X0140844Y0369484D01*
X0140407Y0368430D01*
X0140407Y0367290D01*
X0140844Y0366236D01*
X0141650Y0365430D01*
X0142704Y0364993D01*
X0143845Y0364993D01*
X0144898Y0365430D01*
X0145705Y0366236D01*
X0146141Y0367290D01*
X0146141Y0368430D01*
X0145705Y0369484D01*
X0144898Y0370291D01*
X0143845Y0370727D01*
X0142704Y0370727D01*
X0141111Y0369751D02*
X0117924Y0369751D01*
X0119022Y0368153D02*
X0140407Y0368153D01*
X0140712Y0366554D02*
X0138194Y0366554D01*
X0139211Y0366133D02*
X0136167Y0367394D01*
X0132873Y0367394D01*
X0129830Y0366133D01*
X0127500Y0363804D01*
X0126240Y0360760D01*
X0126240Y0357466D01*
X0127500Y0354423D01*
X0129830Y0352094D01*
X0132873Y0350833D01*
X0136167Y0350833D01*
X0139211Y0352094D01*
X0141540Y0354423D01*
X0142800Y0357466D01*
X0142800Y0360760D01*
X0141540Y0363804D01*
X0139211Y0366133D01*
X0140388Y0364956D02*
X0165488Y0364956D01*
X0165472Y0364919D02*
X0165472Y0363308D01*
X0166088Y0361820D01*
X0167227Y0360682D01*
X0168715Y0360065D01*
X0170325Y0360065D01*
X0171813Y0360682D01*
X0172952Y0361820D01*
X0173568Y0363308D01*
X0173568Y0364919D01*
X0172952Y0366406D01*
X0171813Y0367545D01*
X0170325Y0368161D01*
X0168715Y0368161D01*
X0167227Y0367545D01*
X0166088Y0366406D01*
X0165472Y0364919D01*
X0165472Y0363357D02*
X0141725Y0363357D01*
X0142387Y0361759D02*
X0166150Y0361759D01*
X0168486Y0360160D02*
X0142800Y0360160D01*
X0142800Y0358562D02*
X0296657Y0358562D01*
X0296657Y0358540D02*
X0297094Y0357486D01*
X0297900Y0356680D01*
X0298954Y0356243D01*
X0300095Y0356243D01*
X0301148Y0356680D01*
X0301955Y0357486D01*
X0302391Y0358540D01*
X0302391Y0359680D01*
X0301955Y0360734D01*
X0301148Y0361541D01*
X0300095Y0361977D01*
X0298954Y0361977D01*
X0297900Y0361541D01*
X0297094Y0360734D01*
X0296657Y0359680D01*
X0296657Y0358540D01*
X0296856Y0360160D02*
X0221707Y0360160D01*
X0221704Y0360154D02*
X0222096Y0361099D01*
X0222096Y0362122D01*
X0221704Y0363067D01*
X0220981Y0363790D01*
X0220036Y0364182D01*
X0219013Y0364182D01*
X0218068Y0363790D01*
X0217344Y0363067D01*
X0216953Y0362122D01*
X0216953Y0361099D01*
X0217344Y0360154D01*
X0218068Y0359430D01*
X0219013Y0359039D01*
X0220036Y0359039D01*
X0220981Y0359430D01*
X0221704Y0360154D01*
X0222096Y0361759D02*
X0298426Y0361759D01*
X0300622Y0361759D02*
X0313250Y0361759D01*
X0313344Y0361984D02*
X0312907Y0360930D01*
X0312907Y0359790D01*
X0313344Y0358736D01*
X0314150Y0357930D01*
X0315204Y0357493D01*
X0316345Y0357493D01*
X0317398Y0357930D01*
X0318205Y0358736D01*
X0318641Y0359790D01*
X0318641Y0360930D01*
X0318205Y0361984D01*
X0317398Y0362791D01*
X0316345Y0363227D01*
X0315204Y0363227D01*
X0314150Y0362791D01*
X0313344Y0361984D01*
X0312907Y0360160D02*
X0302193Y0360160D01*
X0302391Y0358562D02*
X0313518Y0358562D01*
X0318030Y0358562D02*
X0318281Y0358562D01*
X0318203Y0358372D02*
X0318203Y0357349D01*
X0318594Y0356404D01*
X0319318Y0355680D01*
X0320263Y0355289D01*
X0321286Y0355289D01*
X0322231Y0355680D01*
X0322954Y0356404D01*
X0323346Y0357349D01*
X0323346Y0358372D01*
X0322954Y0359317D01*
X0322231Y0360040D01*
X0321286Y0360432D01*
X0320263Y0360432D01*
X0319318Y0360040D01*
X0318594Y0359317D01*
X0318203Y0358372D01*
X0318362Y0356963D02*
X0301432Y0356963D01*
X0297617Y0356963D02*
X0142592Y0356963D01*
X0143064Y0355793D02*
X0141344Y0354073D01*
X0140413Y0351826D01*
X0140413Y0349393D01*
X0141344Y0347146D01*
X0143064Y0345425D01*
X0145312Y0344494D01*
X0147744Y0344494D01*
X0149992Y0345425D01*
X0151712Y0347146D01*
X0152643Y0349393D01*
X0152643Y0351826D01*
X0151712Y0354073D01*
X0149992Y0355793D01*
X0147744Y0356724D01*
X0145312Y0356724D01*
X0143064Y0355793D01*
X0142635Y0355365D02*
X0141930Y0355365D01*
X0141217Y0353766D02*
X0140883Y0353766D01*
X0140555Y0352168D02*
X0139285Y0352168D01*
X0140413Y0350569D02*
X0113211Y0350569D01*
X0113211Y0348971D02*
X0140588Y0348971D01*
X0141250Y0347372D02*
X0113211Y0347372D01*
X0113211Y0345774D02*
X0118842Y0345774D01*
X0122884Y0345774D02*
X0142716Y0345774D01*
X0150340Y0345774D02*
X0257071Y0345774D01*
X0257071Y0346059D02*
X0257071Y0345036D01*
X0257462Y0344091D01*
X0258186Y0343367D01*
X0259131Y0342976D01*
X0260154Y0342976D01*
X0261099Y0343367D01*
X0261823Y0344091D01*
X0262214Y0345036D01*
X0262214Y0346059D01*
X0261823Y0347004D01*
X0261099Y0347727D01*
X0260154Y0348119D01*
X0259131Y0348119D01*
X0258186Y0347727D01*
X0257462Y0347004D01*
X0257071Y0346059D01*
X0257830Y0347372D02*
X0231606Y0347372D01*
X0231204Y0346970D02*
X0232038Y0347805D01*
X0232490Y0348894D01*
X0232490Y0350074D01*
X0232038Y0351164D01*
X0231204Y0351998D01*
X0230114Y0352450D01*
X0228934Y0352450D01*
X0227845Y0351998D01*
X0227010Y0351164D01*
X0226559Y0350074D01*
X0226559Y0348894D01*
X0227010Y0347805D01*
X0227845Y0346970D01*
X0228934Y0346519D01*
X0230114Y0346519D01*
X0231204Y0346970D01*
X0232490Y0348971D02*
X0262425Y0348971D01*
X0262384Y0349012D02*
X0263107Y0348288D01*
X0264052Y0347897D01*
X0265075Y0347897D01*
X0266020Y0348288D01*
X0266744Y0349012D01*
X0267135Y0349957D01*
X0267135Y0350980D01*
X0266744Y0351925D01*
X0266020Y0352649D01*
X0265075Y0353040D01*
X0264653Y0353040D01*
X0264675Y0353149D01*
X0264675Y0353421D01*
X0261906Y0353421D01*
X0261906Y0353421D01*
X0261906Y0350653D01*
X0261633Y0350653D01*
X0261099Y0350759D01*
X0260595Y0350968D01*
X0260141Y0351271D01*
X0259756Y0351656D01*
X0259453Y0352110D01*
X0259244Y0352614D01*
X0259138Y0353149D01*
X0259138Y0353421D01*
X0261906Y0353421D01*
X0261906Y0353421D01*
X0261906Y0350653D01*
X0261992Y0350653D01*
X0261992Y0349957D01*
X0262384Y0349012D01*
X0261992Y0350569D02*
X0232285Y0350569D01*
X0230795Y0352168D02*
X0259429Y0352168D01*
X0259138Y0353421D02*
X0261906Y0353421D01*
X0261906Y0353421D01*
X0261906Y0356190D01*
X0261633Y0356190D01*
X0261099Y0356083D01*
X0260595Y0355875D01*
X0260141Y0355572D01*
X0259756Y0355186D01*
X0259453Y0354733D01*
X0259244Y0354229D01*
X0259138Y0353694D01*
X0259138Y0353421D01*
X0259152Y0353766D02*
X0151839Y0353766D01*
X0152501Y0352168D02*
X0191700Y0352168D01*
X0192143Y0352351D02*
X0191089Y0351915D01*
X0190283Y0351108D01*
X0189846Y0350055D01*
X0189846Y0348914D01*
X0190283Y0347860D01*
X0191089Y0347054D01*
X0192143Y0346617D01*
X0193284Y0346617D01*
X0194337Y0347054D01*
X0195144Y0347860D01*
X0195580Y0348914D01*
X0195580Y0350055D01*
X0195144Y0351108D01*
X0194337Y0351915D01*
X0193284Y0352351D01*
X0192143Y0352351D01*
X0193727Y0352168D02*
X0228254Y0352168D01*
X0226764Y0350569D02*
X0195367Y0350569D01*
X0195580Y0348971D02*
X0226559Y0348971D01*
X0227443Y0347372D02*
X0194655Y0347372D01*
X0190771Y0347372D02*
X0151806Y0347372D01*
X0152468Y0348971D02*
X0189846Y0348971D01*
X0190059Y0350569D02*
X0152643Y0350569D01*
X0150421Y0355365D02*
X0259934Y0355365D01*
X0261906Y0355365D02*
X0261906Y0355365D01*
X0261906Y0356190D02*
X0262179Y0356190D01*
X0262714Y0356083D01*
X0263218Y0355875D01*
X0263671Y0355572D01*
X0264057Y0355186D01*
X0264360Y0354733D01*
X0264568Y0354229D01*
X0264675Y0353694D01*
X0264675Y0353421D01*
X0261906Y0353421D01*
X0261906Y0353421D01*
X0261906Y0356190D01*
X0263878Y0355365D02*
X0320079Y0355365D01*
X0321469Y0355365D02*
X0326329Y0355365D01*
X0326513Y0355289D02*
X0327536Y0355289D01*
X0328481Y0355680D01*
X0329204Y0356404D01*
X0329596Y0357349D01*
X0329596Y0358372D01*
X0329204Y0359317D01*
X0328481Y0360040D01*
X0327536Y0360432D01*
X0326513Y0360432D01*
X0325568Y0360040D01*
X0324844Y0359317D01*
X0324453Y0358372D01*
X0324453Y0357349D01*
X0324844Y0356404D01*
X0325568Y0355680D01*
X0326513Y0355289D01*
X0327719Y0355365D02*
X0332579Y0355365D01*
X0332763Y0355289D02*
X0333786Y0355289D01*
X0334731Y0355680D01*
X0335454Y0356404D01*
X0335846Y0357349D01*
X0335846Y0358372D01*
X0335454Y0359317D01*
X0334731Y0360040D01*
X0333786Y0360432D01*
X0332763Y0360432D01*
X0331818Y0360040D01*
X0331094Y0359317D01*
X0330703Y0358372D01*
X0330703Y0357349D01*
X0331094Y0356404D01*
X0331818Y0355680D01*
X0332763Y0355289D01*
X0333969Y0355365D02*
X0338829Y0355365D01*
X0339013Y0355289D02*
X0338068Y0355680D01*
X0337344Y0356404D01*
X0336953Y0357349D01*
X0336953Y0358372D01*
X0337344Y0359317D01*
X0338068Y0360040D01*
X0339013Y0360432D01*
X0340036Y0360432D01*
X0340981Y0360040D01*
X0341704Y0359317D01*
X0342096Y0358372D01*
X0342096Y0357349D01*
X0341704Y0356404D01*
X0340981Y0355680D01*
X0340036Y0355289D01*
X0339013Y0355289D01*
X0340219Y0355365D02*
X0368058Y0355365D01*
X0367900Y0355430D02*
X0368954Y0354993D01*
X0370095Y0354993D01*
X0371148Y0355430D01*
X0371955Y0356236D01*
X0372391Y0357290D01*
X0372391Y0358430D01*
X0371955Y0359484D01*
X0371148Y0360291D01*
X0370095Y0360727D01*
X0368954Y0360727D01*
X0367900Y0360291D01*
X0367094Y0359484D01*
X0366657Y0358430D01*
X0366657Y0357290D01*
X0367094Y0356236D01*
X0367900Y0355430D01*
X0366793Y0356963D02*
X0347682Y0356963D01*
X0347398Y0356680D02*
X0348205Y0357486D01*
X0348641Y0358540D01*
X0348641Y0359680D01*
X0348205Y0360734D01*
X0347398Y0361541D01*
X0346345Y0361977D01*
X0345204Y0361977D01*
X0344150Y0361541D01*
X0343344Y0360734D01*
X0342907Y0359680D01*
X0342907Y0358540D01*
X0343344Y0357486D01*
X0344150Y0356680D01*
X0345204Y0356243D01*
X0346345Y0356243D01*
X0347398Y0356680D01*
X0348641Y0358562D02*
X0366712Y0358562D01*
X0367770Y0360160D02*
X0348443Y0360160D01*
X0346872Y0361759D02*
X0382452Y0361759D01*
X0382452Y0363357D02*
X0221414Y0363357D01*
X0217634Y0363357D02*
X0173568Y0363357D01*
X0173553Y0364956D02*
X0177355Y0364956D01*
X0177344Y0364966D02*
X0178068Y0364243D01*
X0179013Y0363852D01*
X0180036Y0363852D01*
X0180981Y0364243D01*
X0181704Y0364966D01*
X0182096Y0365912D01*
X0182096Y0366935D01*
X0181704Y0367880D01*
X0180981Y0368603D01*
X0180036Y0368995D01*
X0179013Y0368995D01*
X0178068Y0368603D01*
X0177344Y0367880D01*
X0176953Y0366935D01*
X0176953Y0365912D01*
X0177344Y0364966D01*
X0176953Y0366554D02*
X0172804Y0366554D01*
X0170346Y0368153D02*
X0177617Y0368153D01*
X0181432Y0368153D02*
X0382452Y0368153D01*
X0382452Y0369751D02*
X0163568Y0369751D01*
X0163568Y0369919D02*
X0162952Y0371406D01*
X0161813Y0372545D01*
X0160325Y0373161D01*
X0158715Y0373161D01*
X0157227Y0372545D01*
X0156088Y0371406D01*
X0155472Y0369919D01*
X0155472Y0368308D01*
X0156088Y0366820D01*
X0157227Y0365682D01*
X0158715Y0365065D01*
X0160325Y0365065D01*
X0161813Y0365682D01*
X0162952Y0366820D01*
X0163568Y0368308D01*
X0163568Y0369919D01*
X0162975Y0371350D02*
X0166281Y0371350D01*
X0166282Y0371348D02*
X0166755Y0370876D01*
X0167295Y0370483D01*
X0167891Y0370179D01*
X0168526Y0369973D01*
X0169186Y0369868D01*
X0169434Y0369868D01*
X0169434Y0374027D01*
X0169606Y0374027D01*
X0169606Y0369868D01*
X0169854Y0369868D01*
X0170514Y0369973D01*
X0171150Y0370179D01*
X0171745Y0370483D01*
X0172286Y0370876D01*
X0172758Y0371348D01*
X0173151Y0371889D01*
X0173454Y0372484D01*
X0173661Y0373119D01*
X0173765Y0373779D01*
X0173765Y0374027D01*
X0169606Y0374027D01*
X0169606Y0374199D01*
X0173765Y0374199D01*
X0173765Y0374447D01*
X0173661Y0375107D01*
X0173454Y0375743D01*
X0173151Y0376338D01*
X0172758Y0376879D01*
X0172286Y0377351D01*
X0171745Y0377744D01*
X0171150Y0378047D01*
X0170514Y0378254D01*
X0169854Y0378358D01*
X0169606Y0378358D01*
X0169606Y0374199D01*
X0169434Y0374199D01*
X0169434Y0374027D01*
X0165275Y0374027D01*
X0165275Y0373779D01*
X0165380Y0373119D01*
X0165586Y0372484D01*
X0165890Y0371889D01*
X0166282Y0371348D01*
X0165435Y0372948D02*
X0160840Y0372948D01*
X0158200Y0372948D02*
X0113211Y0372948D01*
X0113211Y0371350D02*
X0156065Y0371350D01*
X0155472Y0369751D02*
X0145438Y0369751D01*
X0146141Y0368153D02*
X0155537Y0368153D01*
X0156355Y0366554D02*
X0145836Y0366554D01*
X0156485Y0376145D02*
X0113211Y0376145D01*
X0113211Y0374547D02*
X0165291Y0374547D01*
X0165275Y0374447D02*
X0165275Y0374199D01*
X0169434Y0374199D01*
X0169434Y0378358D01*
X0169186Y0378358D01*
X0168526Y0378254D01*
X0167891Y0378047D01*
X0167295Y0377744D01*
X0163538Y0377744D01*
X0163765Y0379342D02*
X0176953Y0379342D01*
X0176953Y0379435D02*
X0176953Y0378412D01*
X0177344Y0377466D01*
X0178068Y0376743D01*
X0179013Y0376352D01*
X0180036Y0376352D01*
X0180981Y0376743D01*
X0181704Y0377466D01*
X0182096Y0378412D01*
X0182096Y0379435D01*
X0181704Y0380380D01*
X0180981Y0381103D01*
X0180036Y0381495D01*
X0179013Y0381495D01*
X0178068Y0381103D01*
X0177344Y0380380D01*
X0176953Y0379435D01*
X0177229Y0377744D02*
X0171745Y0377744D01*
X0169606Y0377744D02*
X0169434Y0377744D01*
X0169434Y0376145D02*
X0169606Y0376145D01*
X0169606Y0374547D02*
X0169434Y0374547D01*
X0169434Y0372948D02*
X0169606Y0372948D01*
X0169606Y0371350D02*
X0169434Y0371350D01*
X0168694Y0368153D02*
X0163504Y0368153D01*
X0162686Y0366554D02*
X0166236Y0366554D01*
X0170554Y0360160D02*
X0217341Y0360160D01*
X0216953Y0361759D02*
X0172890Y0361759D01*
X0181694Y0364956D02*
X0382452Y0364956D01*
X0382452Y0366554D02*
X0182096Y0366554D01*
X0172759Y0371350D02*
X0382452Y0371350D01*
X0382452Y0372948D02*
X0173605Y0372948D01*
X0173749Y0374547D02*
X0262337Y0374547D01*
X0262384Y0374435D02*
X0263107Y0373712D01*
X0264052Y0373320D01*
X0265075Y0373320D01*
X0266020Y0373712D01*
X0266744Y0374435D01*
X0267135Y0375380D01*
X0267135Y0376403D01*
X0266744Y0377348D01*
X0266020Y0378072D01*
X0265075Y0378463D01*
X0264052Y0378463D01*
X0263107Y0378072D01*
X0262384Y0377348D01*
X0261992Y0376403D01*
X0261992Y0375380D01*
X0262384Y0374435D01*
X0261992Y0376145D02*
X0261397Y0376145D01*
X0261099Y0375847D02*
X0261823Y0376571D01*
X0262214Y0377516D01*
X0262214Y0378539D01*
X0261823Y0379484D01*
X0261099Y0380208D01*
X0260154Y0380599D01*
X0259536Y0380599D01*
X0259731Y0380680D01*
X0260454Y0381404D01*
X0260846Y0382349D01*
X0260846Y0383372D01*
X0260454Y0384317D01*
X0259731Y0385040D01*
X0258786Y0385432D01*
X0257763Y0385432D01*
X0256818Y0385040D01*
X0256094Y0384317D01*
X0255703Y0383372D01*
X0255703Y0382349D01*
X0256094Y0381404D01*
X0256818Y0380680D01*
X0257763Y0380289D01*
X0258381Y0380289D01*
X0258186Y0380208D01*
X0257462Y0379484D01*
X0257071Y0378539D01*
X0257071Y0377516D01*
X0257462Y0376571D01*
X0258186Y0375847D01*
X0259131Y0375456D01*
X0260154Y0375456D01*
X0261099Y0375847D01*
X0262214Y0377744D02*
X0262779Y0377744D01*
X0261881Y0379342D02*
X0300593Y0379342D01*
X0300407Y0379790D02*
X0300844Y0378736D01*
X0301650Y0377930D01*
X0302704Y0377493D01*
X0303845Y0377493D01*
X0304898Y0377930D01*
X0305705Y0378736D01*
X0306141Y0379790D01*
X0306141Y0380930D01*
X0305705Y0381984D01*
X0304898Y0382791D01*
X0303845Y0383227D01*
X0302704Y0383227D01*
X0301650Y0382791D01*
X0300844Y0381984D01*
X0300407Y0380930D01*
X0300407Y0379790D01*
X0300412Y0380941D02*
X0259992Y0380941D01*
X0260846Y0382539D02*
X0301399Y0382539D01*
X0305150Y0382539D02*
X0371422Y0382539D01*
X0371533Y0382493D02*
X0372673Y0382493D01*
X0373727Y0382930D01*
X0374533Y0383736D01*
X0374970Y0384790D01*
X0374970Y0385930D01*
X0374533Y0386984D01*
X0373727Y0387791D01*
X0372673Y0388227D01*
X0371533Y0388227D01*
X0370479Y0387791D01*
X0369673Y0386984D01*
X0369236Y0385930D01*
X0369236Y0384790D01*
X0369673Y0383736D01*
X0370479Y0382930D01*
X0371533Y0382493D01*
X0372784Y0382539D02*
X0382452Y0382539D01*
X0382452Y0380941D02*
X0323831Y0380941D01*
X0323481Y0381290D02*
X0324204Y0380567D01*
X0324596Y0379622D01*
X0324596Y0378599D01*
X0324204Y0377654D01*
X0323481Y0376930D01*
X0322536Y0376539D01*
X0321513Y0376539D01*
X0320568Y0376930D01*
X0319844Y0377654D01*
X0319453Y0378599D01*
X0319453Y0379622D01*
X0319844Y0380567D01*
X0320568Y0381290D01*
X0321513Y0381682D01*
X0322536Y0381682D01*
X0323481Y0381290D01*
X0324596Y0379342D02*
X0382452Y0379342D01*
X0382452Y0377744D02*
X0324242Y0377744D01*
X0319807Y0377744D02*
X0304449Y0377744D01*
X0305956Y0379342D02*
X0319453Y0379342D01*
X0320218Y0380941D02*
X0306137Y0380941D01*
X0302099Y0377744D02*
X0266348Y0377744D01*
X0267135Y0376145D02*
X0382452Y0376145D01*
X0382452Y0374547D02*
X0266790Y0374547D01*
X0257888Y0376145D02*
X0173249Y0376145D01*
X0172351Y0380941D02*
X0177905Y0380941D01*
X0181144Y0380941D02*
X0256557Y0380941D01*
X0257403Y0379342D02*
X0182096Y0379342D01*
X0181819Y0377744D02*
X0257071Y0377744D01*
X0255703Y0382539D02*
X0173472Y0382539D01*
X0169606Y0382539D02*
X0169434Y0382539D01*
X0169434Y0380941D02*
X0169606Y0380941D01*
X0166690Y0380941D02*
X0163353Y0380941D01*
X0162027Y0382539D02*
X0165568Y0382539D01*
X0165584Y0385736D02*
X0161868Y0385736D01*
X0163165Y0387335D02*
X0166738Y0387335D01*
X0169434Y0387335D02*
X0169606Y0387335D01*
X0169606Y0385736D02*
X0169434Y0385736D01*
X0171452Y0390532D02*
X0316548Y0390532D01*
X0316650Y0390430D02*
X0317704Y0389993D01*
X0318845Y0389993D01*
X0319898Y0390430D01*
X0320705Y0391236D01*
X0321141Y0392290D01*
X0321141Y0393430D01*
X0320705Y0394484D01*
X0319898Y0395291D01*
X0318845Y0395727D01*
X0317704Y0395727D01*
X0316650Y0395291D01*
X0315844Y0394484D01*
X0315407Y0393430D01*
X0315407Y0392290D01*
X0315844Y0391236D01*
X0316650Y0390430D01*
X0315473Y0392130D02*
X0173080Y0392130D01*
X0173568Y0393729D02*
X0211456Y0393729D01*
X0211094Y0394091D02*
X0211818Y0393367D01*
X0212763Y0392976D01*
X0213786Y0392976D01*
X0214731Y0393367D01*
X0215454Y0394091D01*
X0215846Y0395036D01*
X0215846Y0396059D01*
X0215454Y0397004D01*
X0214731Y0397727D01*
X0213786Y0398119D01*
X0212763Y0398119D01*
X0211818Y0397727D01*
X0211094Y0397004D01*
X0210703Y0396059D01*
X0210703Y0395036D01*
X0211094Y0394091D01*
X0210703Y0395327D02*
X0173399Y0395327D01*
X0172432Y0396926D02*
X0177885Y0396926D01*
X0178068Y0396743D02*
X0177344Y0397466D01*
X0176953Y0398412D01*
X0176953Y0399435D01*
X0177344Y0400380D01*
X0178068Y0401103D01*
X0179013Y0401495D01*
X0180036Y0401495D01*
X0180981Y0401103D01*
X0181704Y0400380D01*
X0182096Y0399435D01*
X0182096Y0398412D01*
X0181704Y0397466D01*
X0180981Y0396743D01*
X0180036Y0396352D01*
X0179013Y0396352D01*
X0178068Y0396743D01*
X0176953Y0398524D02*
X0163568Y0398524D01*
X0163484Y0400123D02*
X0177238Y0400123D01*
X0181811Y0400123D02*
X0216030Y0400123D01*
X0215844Y0399937D02*
X0215407Y0398883D01*
X0215407Y0397743D01*
X0215844Y0396689D01*
X0216650Y0395883D01*
X0217704Y0395446D01*
X0218845Y0395446D01*
X0219898Y0395883D01*
X0220705Y0396689D01*
X0221141Y0397743D01*
X0221141Y0398883D01*
X0220705Y0399937D01*
X0219898Y0400743D01*
X0218845Y0401180D01*
X0217704Y0401180D01*
X0216650Y0400743D01*
X0215844Y0399937D01*
X0215407Y0398524D02*
X0182096Y0398524D01*
X0181164Y0396926D02*
X0211062Y0396926D01*
X0215487Y0396926D02*
X0215746Y0396926D01*
X0215846Y0395327D02*
X0224605Y0395327D01*
X0224453Y0395695D02*
X0224844Y0394750D01*
X0225568Y0394027D01*
X0226513Y0393635D01*
X0227536Y0393635D01*
X0228481Y0394027D01*
X0229204Y0394750D01*
X0229596Y0395695D01*
X0229596Y0396718D01*
X0229204Y0397663D01*
X0228481Y0398387D01*
X0227536Y0398778D01*
X0226513Y0398778D01*
X0225568Y0398387D01*
X0224844Y0397663D01*
X0224453Y0396718D01*
X0224453Y0395695D01*
X0224539Y0396926D02*
X0220803Y0396926D01*
X0221141Y0398524D02*
X0225900Y0398524D01*
X0228149Y0398524D02*
X0267313Y0398524D01*
X0267140Y0398106D02*
X0267140Y0397083D01*
X0267531Y0396138D01*
X0268255Y0395414D01*
X0269200Y0395023D01*
X0270223Y0395023D01*
X0271168Y0395414D01*
X0271891Y0396138D01*
X0272283Y0397083D01*
X0272283Y0398106D01*
X0271891Y0399051D01*
X0271168Y0399775D01*
X0270223Y0400166D01*
X0269200Y0400166D01*
X0268255Y0399775D01*
X0267531Y0399051D01*
X0267140Y0398106D01*
X0267205Y0396926D02*
X0245419Y0396926D01*
X0245705Y0396640D02*
X0244898Y0397446D01*
X0243845Y0397883D01*
X0242704Y0397883D01*
X0241650Y0397446D01*
X0240844Y0396640D01*
X0240407Y0395586D01*
X0240407Y0394445D01*
X0240844Y0393392D01*
X0241650Y0392585D01*
X0242704Y0392149D01*
X0243845Y0392149D01*
X0244898Y0392585D01*
X0245705Y0393392D01*
X0246141Y0394445D01*
X0246141Y0395586D01*
X0245705Y0396640D01*
X0246141Y0395327D02*
X0268464Y0395327D01*
X0270958Y0395327D02*
X0316739Y0395327D01*
X0315531Y0393729D02*
X0245844Y0393729D01*
X0240704Y0393729D02*
X0227762Y0393729D01*
X0226286Y0393729D02*
X0215093Y0393729D01*
X0220519Y0400123D02*
X0269095Y0400123D01*
X0270327Y0400123D02*
X0362160Y0400123D01*
X0362344Y0400567D02*
X0361953Y0399622D01*
X0361953Y0398599D01*
X0362344Y0397654D01*
X0363068Y0396930D01*
X0364013Y0396539D01*
X0365036Y0396539D01*
X0365981Y0396930D01*
X0366704Y0397654D01*
X0367096Y0398599D01*
X0367096Y0399622D01*
X0366704Y0400567D01*
X0365981Y0401290D01*
X0365036Y0401682D01*
X0364013Y0401682D01*
X0363068Y0401290D01*
X0362344Y0400567D01*
X0361983Y0398524D02*
X0272110Y0398524D01*
X0272218Y0396926D02*
X0363078Y0396926D01*
X0362536Y0395432D02*
X0361513Y0395432D01*
X0360568Y0395040D01*
X0359844Y0394317D01*
X0359453Y0393372D01*
X0359453Y0392349D01*
X0359844Y0391404D01*
X0360568Y0390680D01*
X0361513Y0390289D01*
X0362536Y0390289D01*
X0363481Y0390680D01*
X0364204Y0391404D01*
X0364596Y0392349D01*
X0364596Y0393372D01*
X0364204Y0394317D01*
X0363481Y0395040D01*
X0362536Y0395432D01*
X0362788Y0395327D02*
X0379008Y0395327D01*
X0377410Y0396926D02*
X0365971Y0396926D01*
X0367065Y0398524D02*
X0375811Y0398524D01*
X0374213Y0400123D02*
X0366888Y0400123D01*
X0371016Y0403320D02*
X0330543Y0403320D01*
X0330536Y0404918D02*
X0369417Y0404918D01*
X0372614Y0401721D02*
X0329040Y0401721D01*
X0327134Y0401721D02*
X0162637Y0401721D01*
X0162996Y0396926D02*
X0166608Y0396926D01*
X0151944Y0409714D02*
X0190906Y0409714D01*
X0192552Y0409714D02*
X0230276Y0409714D01*
X0231922Y0409714D02*
X0269646Y0409714D01*
X0271292Y0409714D02*
X0309017Y0409714D01*
X0310662Y0409714D02*
X0329491Y0409714D01*
X0329653Y0408115D02*
X0150674Y0408115D01*
X0159434Y0382539D02*
X0159606Y0382539D01*
X0159606Y0380941D02*
X0159434Y0380941D01*
X0159434Y0379342D02*
X0159606Y0379342D01*
X0159606Y0377744D02*
X0159434Y0377744D01*
X0159434Y0376145D02*
X0159606Y0376145D01*
X0162555Y0376145D02*
X0165791Y0376145D01*
X0165890Y0376338D02*
X0165586Y0375743D01*
X0165380Y0375107D01*
X0165275Y0374447D01*
X0165890Y0376338D02*
X0166282Y0376879D01*
X0166755Y0377351D01*
X0167295Y0377744D01*
X0180727Y0384138D02*
X0256020Y0384138D01*
X0260529Y0384138D02*
X0353497Y0384138D01*
X0353594Y0383904D02*
X0354318Y0383180D01*
X0355263Y0382789D01*
X0356286Y0382789D01*
X0357231Y0383180D01*
X0357954Y0383904D01*
X0358346Y0384849D01*
X0358346Y0385872D01*
X0357954Y0386817D01*
X0357231Y0387540D01*
X0356286Y0387932D01*
X0355263Y0387932D01*
X0354318Y0387540D01*
X0353594Y0386817D01*
X0353203Y0385872D01*
X0353203Y0384849D01*
X0353594Y0383904D01*
X0353203Y0385736D02*
X0182023Y0385736D01*
X0181930Y0387335D02*
X0354112Y0387335D01*
X0357437Y0387335D02*
X0370023Y0387335D01*
X0369236Y0385736D02*
X0358346Y0385736D01*
X0358051Y0384138D02*
X0369506Y0384138D01*
X0374700Y0384138D02*
X0382452Y0384138D01*
X0382452Y0385736D02*
X0374970Y0385736D01*
X0374183Y0387335D02*
X0382452Y0387335D01*
X0382452Y0388933D02*
X0350467Y0388933D01*
X0350454Y0388904D02*
X0350846Y0389849D01*
X0350846Y0390872D01*
X0350454Y0391817D01*
X0349731Y0392540D01*
X0348786Y0392932D01*
X0347763Y0392932D01*
X0346818Y0392540D01*
X0346094Y0391817D01*
X0345703Y0390872D01*
X0345703Y0389849D01*
X0346094Y0388904D01*
X0346818Y0388180D01*
X0347763Y0387789D01*
X0348786Y0387789D01*
X0349731Y0388180D01*
X0350454Y0388904D01*
X0350846Y0390532D02*
X0360925Y0390532D01*
X0359543Y0392130D02*
X0350141Y0392130D01*
X0346408Y0392130D02*
X0337059Y0392130D01*
X0337125Y0392290D02*
X0336689Y0391236D01*
X0335883Y0390430D01*
X0334829Y0389993D01*
X0333688Y0389993D01*
X0332635Y0390430D01*
X0331828Y0391236D01*
X0331392Y0392290D01*
X0331392Y0393430D01*
X0331828Y0394484D01*
X0332635Y0395291D01*
X0333688Y0395727D01*
X0334829Y0395727D01*
X0335883Y0395291D01*
X0336689Y0394484D01*
X0337125Y0393430D01*
X0337125Y0392290D01*
X0337002Y0393729D02*
X0359601Y0393729D01*
X0361260Y0395327D02*
X0335794Y0395327D01*
X0332723Y0395327D02*
X0319810Y0395327D01*
X0321018Y0393729D02*
X0331515Y0393729D01*
X0331458Y0392130D02*
X0321075Y0392130D01*
X0320000Y0390532D02*
X0332532Y0390532D01*
X0335985Y0390532D02*
X0345703Y0390532D01*
X0346082Y0388933D02*
X0180184Y0388933D01*
X0229444Y0395327D02*
X0240407Y0395327D01*
X0241130Y0396926D02*
X0229510Y0396926D01*
X0261906Y0353766D02*
X0261906Y0353766D01*
X0261906Y0352168D02*
X0261906Y0352168D01*
X0264660Y0353766D02*
X0381775Y0353766D01*
X0382059Y0352168D02*
X0315521Y0352168D01*
X0315705Y0351984D02*
X0314898Y0352791D01*
X0313845Y0353227D01*
X0312704Y0353227D01*
X0311650Y0352791D01*
X0310844Y0351984D01*
X0310407Y0350930D01*
X0310407Y0349790D01*
X0310844Y0348736D01*
X0311650Y0347930D01*
X0312704Y0347493D01*
X0313845Y0347493D01*
X0314898Y0347930D01*
X0315705Y0348736D01*
X0316141Y0349790D01*
X0316141Y0350930D01*
X0315705Y0351984D01*
X0316141Y0350569D02*
X0382452Y0350569D01*
X0382452Y0348971D02*
X0315802Y0348971D01*
X0310747Y0348971D02*
X0308528Y0348971D01*
X0308641Y0348696D02*
X0308205Y0349750D01*
X0307398Y0350556D01*
X0306345Y0350993D01*
X0305204Y0350993D01*
X0304150Y0350556D01*
X0303344Y0349750D01*
X0302907Y0348696D01*
X0302907Y0347556D01*
X0303344Y0346502D01*
X0304150Y0345696D01*
X0305204Y0345259D01*
X0306345Y0345259D01*
X0307398Y0345696D01*
X0308205Y0346502D01*
X0308641Y0347556D01*
X0308641Y0348696D01*
X0308565Y0347372D02*
X0382452Y0347372D01*
X0382452Y0345774D02*
X0378789Y0345774D01*
X0374747Y0345774D02*
X0307476Y0345774D01*
X0304072Y0345774D02*
X0277748Y0345774D01*
X0277954Y0345567D02*
X0277231Y0346290D01*
X0276286Y0346682D01*
X0275263Y0346682D01*
X0274318Y0346290D01*
X0273594Y0345567D01*
X0273203Y0344622D01*
X0273203Y0343599D01*
X0273594Y0342654D01*
X0274318Y0341930D01*
X0275263Y0341539D01*
X0276286Y0341539D01*
X0277231Y0341930D01*
X0277954Y0342654D01*
X0278346Y0343599D01*
X0278346Y0344622D01*
X0277954Y0345567D01*
X0278346Y0344175D02*
X0298216Y0344175D01*
X0298344Y0344484D02*
X0297907Y0343430D01*
X0297907Y0342290D01*
X0298344Y0341236D01*
X0299150Y0340430D01*
X0300204Y0339993D01*
X0301345Y0339993D01*
X0302398Y0340430D01*
X0303205Y0341236D01*
X0303641Y0342290D01*
X0303641Y0343430D01*
X0303205Y0344484D01*
X0302398Y0345291D01*
X0301345Y0345727D01*
X0300204Y0345727D01*
X0299150Y0345291D01*
X0298344Y0344484D01*
X0297907Y0342577D02*
X0277877Y0342577D01*
X0273671Y0342577D02*
X0128485Y0342577D01*
X0129653Y0340978D02*
X0298602Y0340978D01*
X0300400Y0337791D02*
X0301454Y0338227D01*
X0302595Y0338227D01*
X0303648Y0337791D01*
X0304455Y0336984D01*
X0304891Y0335930D01*
X0304891Y0334790D01*
X0304455Y0333736D01*
X0303648Y0332930D01*
X0302595Y0332493D01*
X0301454Y0332493D01*
X0300400Y0332930D01*
X0299594Y0333736D01*
X0299157Y0334790D01*
X0299157Y0335930D01*
X0299594Y0336984D01*
X0300400Y0337791D01*
X0300391Y0337781D02*
X0258250Y0337781D01*
X0258146Y0337885D02*
X0257201Y0338276D01*
X0256178Y0338276D01*
X0255233Y0337885D01*
X0254509Y0337161D01*
X0254118Y0336216D01*
X0254118Y0335193D01*
X0254509Y0334248D01*
X0255233Y0333525D01*
X0256178Y0333133D01*
X0257201Y0333133D01*
X0258146Y0333525D01*
X0258870Y0334248D01*
X0259261Y0335193D01*
X0259261Y0336216D01*
X0258870Y0337161D01*
X0258146Y0337885D01*
X0259261Y0336182D02*
X0299262Y0336182D01*
X0299243Y0334584D02*
X0277687Y0334584D01*
X0277954Y0334317D02*
X0277231Y0335040D01*
X0276286Y0335432D01*
X0275263Y0335432D01*
X0274318Y0335040D01*
X0273594Y0334317D01*
X0273203Y0333372D01*
X0273203Y0332349D01*
X0273594Y0331404D01*
X0274318Y0330680D01*
X0275263Y0330289D01*
X0276286Y0330289D01*
X0277231Y0330680D01*
X0277954Y0331404D01*
X0278203Y0332003D01*
X0278203Y0331099D01*
X0278594Y0330154D01*
X0279318Y0329430D01*
X0280263Y0329039D01*
X0281286Y0329039D01*
X0282231Y0329430D01*
X0282954Y0330154D01*
X0283346Y0331099D01*
X0283346Y0332122D01*
X0282954Y0333067D01*
X0282231Y0333790D01*
X0281286Y0334182D01*
X0280263Y0334182D01*
X0279318Y0333790D01*
X0278594Y0333067D01*
X0278346Y0332468D01*
X0278346Y0333372D01*
X0277954Y0334317D01*
X0278346Y0332985D02*
X0278560Y0332985D01*
X0278203Y0331387D02*
X0277938Y0331387D01*
X0278959Y0329788D02*
X0261029Y0329788D01*
X0260838Y0329327D02*
X0261230Y0330272D01*
X0261230Y0331295D01*
X0260838Y0332240D01*
X0260115Y0332964D01*
X0259170Y0333355D01*
X0258147Y0333355D01*
X0257201Y0332964D01*
X0256478Y0332240D01*
X0256086Y0331295D01*
X0256086Y0330272D01*
X0256478Y0329327D01*
X0257201Y0328603D01*
X0258147Y0328212D01*
X0259170Y0328212D01*
X0260115Y0328603D01*
X0260838Y0329327D01*
X0261192Y0331387D02*
X0273611Y0331387D01*
X0273203Y0332985D02*
X0260062Y0332985D01*
X0259009Y0334584D02*
X0273861Y0334584D01*
X0282988Y0332985D02*
X0300345Y0332985D01*
X0300400Y0331541D02*
X0299594Y0330734D01*
X0299157Y0329680D01*
X0299157Y0328540D01*
X0299594Y0327486D01*
X0300400Y0326680D01*
X0301454Y0326243D01*
X0302595Y0326243D01*
X0303648Y0326680D01*
X0304455Y0327486D01*
X0304891Y0328540D01*
X0304891Y0329680D01*
X0304455Y0330734D01*
X0303648Y0331541D01*
X0302595Y0331977D01*
X0301454Y0331977D01*
X0300400Y0331541D01*
X0300247Y0331387D02*
X0283346Y0331387D01*
X0282589Y0329788D02*
X0299202Y0329788D01*
X0299302Y0328190D02*
X0256948Y0328190D01*
X0256901Y0328303D02*
X0256178Y0329027D01*
X0255233Y0329418D01*
X0254210Y0329418D01*
X0253264Y0329027D01*
X0252541Y0328303D01*
X0252149Y0327358D01*
X0252149Y0326335D01*
X0252541Y0325390D01*
X0253264Y0324666D01*
X0254210Y0324275D01*
X0255233Y0324275D01*
X0256178Y0324666D01*
X0256901Y0325390D01*
X0257293Y0326335D01*
X0257293Y0327358D01*
X0256901Y0328303D01*
X0256287Y0329788D02*
X0216046Y0329788D01*
X0215824Y0330011D02*
X0214878Y0330402D01*
X0213855Y0330402D01*
X0212910Y0330011D01*
X0212187Y0329287D01*
X0211795Y0328342D01*
X0211795Y0327319D01*
X0212187Y0326374D01*
X0212910Y0325651D01*
X0213855Y0325259D01*
X0214878Y0325259D01*
X0215824Y0325651D01*
X0216547Y0326374D01*
X0216938Y0327319D01*
X0216938Y0328342D01*
X0216547Y0329287D01*
X0215824Y0330011D01*
X0216271Y0331387D02*
X0213340Y0331387D01*
X0213264Y0331311D02*
X0213988Y0332035D01*
X0214379Y0332980D01*
X0214379Y0334003D01*
X0213988Y0334948D01*
X0213264Y0335672D01*
X0212319Y0336063D01*
X0211296Y0336063D01*
X0210351Y0335672D01*
X0209628Y0334948D01*
X0209236Y0334003D01*
X0209236Y0332980D01*
X0209628Y0332035D01*
X0210351Y0331311D01*
X0211296Y0330920D01*
X0212319Y0330920D01*
X0213264Y0331311D01*
X0212688Y0329788D02*
X0129281Y0329788D01*
X0130204Y0331387D02*
X0210276Y0331387D01*
X0209236Y0332985D02*
X0130745Y0332985D01*
X0131112Y0334584D02*
X0209477Y0334584D01*
X0214139Y0334584D02*
X0214887Y0334584D01*
X0214748Y0334248D02*
X0214748Y0333225D01*
X0215139Y0332279D01*
X0215863Y0331556D01*
X0216808Y0331165D01*
X0217831Y0331165D01*
X0218776Y0331556D01*
X0219500Y0332279D01*
X0219891Y0333225D01*
X0219891Y0334248D01*
X0219500Y0335193D01*
X0218776Y0335916D01*
X0217831Y0336308D01*
X0216808Y0336308D01*
X0215863Y0335916D01*
X0215139Y0335193D01*
X0214748Y0334248D01*
X0214847Y0332985D02*
X0214379Y0332985D01*
X0216505Y0336182D02*
X0131112Y0336182D01*
X0130917Y0337781D02*
X0218685Y0337781D01*
X0218685Y0338185D02*
X0218685Y0337162D01*
X0219076Y0336216D01*
X0219800Y0335493D01*
X0220745Y0335102D01*
X0221768Y0335102D01*
X0222713Y0335493D01*
X0223437Y0336216D01*
X0223828Y0337162D01*
X0223828Y0338185D01*
X0223437Y0339130D01*
X0222713Y0339853D01*
X0221768Y0340245D01*
X0220745Y0340245D01*
X0219800Y0339853D01*
X0219076Y0339130D01*
X0218685Y0338185D01*
X0219326Y0339379D02*
X0130489Y0339379D01*
X0126689Y0344175D02*
X0257427Y0344175D01*
X0261858Y0344175D02*
X0273203Y0344175D01*
X0273801Y0345774D02*
X0262214Y0345774D01*
X0261454Y0347372D02*
X0302983Y0347372D01*
X0303021Y0348971D02*
X0266703Y0348971D01*
X0267135Y0350569D02*
X0304181Y0350569D01*
X0307368Y0350569D02*
X0310407Y0350569D01*
X0311027Y0352168D02*
X0266501Y0352168D01*
X0255129Y0337781D02*
X0223828Y0337781D01*
X0223403Y0336182D02*
X0250954Y0336182D01*
X0251257Y0336308D02*
X0250312Y0335916D01*
X0249588Y0335193D01*
X0249197Y0334248D01*
X0249197Y0333225D01*
X0249588Y0332279D01*
X0250312Y0331556D01*
X0251257Y0331165D01*
X0252280Y0331165D01*
X0253225Y0331556D01*
X0253948Y0332279D01*
X0254340Y0333225D01*
X0254340Y0334248D01*
X0253948Y0335193D01*
X0253225Y0335916D01*
X0252280Y0336308D01*
X0251257Y0336308D01*
X0252583Y0336182D02*
X0254118Y0336182D01*
X0254201Y0334584D02*
X0254370Y0334584D01*
X0254241Y0332985D02*
X0257254Y0332985D01*
X0256125Y0331387D02*
X0252817Y0331387D01*
X0250720Y0331387D02*
X0218368Y0331387D01*
X0219792Y0332985D02*
X0249296Y0332985D01*
X0249336Y0334584D02*
X0219752Y0334584D01*
X0219110Y0336182D02*
X0218134Y0336182D01*
X0223187Y0339379D02*
X0334550Y0339379D01*
X0334594Y0339484D02*
X0334157Y0338430D01*
X0334157Y0337290D01*
X0334594Y0336236D01*
X0335400Y0335430D01*
X0336454Y0334993D01*
X0337595Y0334993D01*
X0338648Y0335430D01*
X0339455Y0336236D01*
X0339891Y0337290D01*
X0339891Y0338430D01*
X0339455Y0339484D01*
X0338648Y0340291D01*
X0337595Y0340727D01*
X0336454Y0340727D01*
X0335400Y0340291D01*
X0334594Y0339484D01*
X0334157Y0337781D02*
X0303658Y0337781D01*
X0304787Y0336182D02*
X0334648Y0336182D01*
X0339401Y0336182D02*
X0366520Y0336182D01*
X0366520Y0334584D02*
X0304806Y0334584D01*
X0303704Y0332985D02*
X0366887Y0332985D01*
X0367427Y0331387D02*
X0303802Y0331387D01*
X0304846Y0329788D02*
X0368350Y0329788D01*
X0369789Y0328190D02*
X0304746Y0328190D01*
X0303435Y0326591D02*
X0372055Y0326591D01*
X0381481Y0326591D02*
X0382452Y0326591D01*
X0382452Y0324993D02*
X0256504Y0324993D01*
X0257293Y0326591D02*
X0300614Y0326591D01*
X0301454Y0320727D02*
X0300400Y0320291D01*
X0299594Y0319484D01*
X0299157Y0318430D01*
X0299157Y0317290D01*
X0299594Y0316236D01*
X0300400Y0315430D01*
X0301454Y0314993D01*
X0302595Y0314993D01*
X0303648Y0315430D01*
X0304455Y0316236D01*
X0304891Y0317290D01*
X0304891Y0318430D01*
X0304455Y0319484D01*
X0303648Y0320291D01*
X0302595Y0320727D01*
X0301454Y0320727D01*
X0300307Y0320197D02*
X0231990Y0320197D01*
X0232038Y0320245D02*
X0232490Y0321335D01*
X0232490Y0322515D01*
X0232038Y0323605D01*
X0231204Y0324439D01*
X0230114Y0324891D01*
X0228934Y0324891D01*
X0227845Y0324439D01*
X0227010Y0323605D01*
X0226559Y0322515D01*
X0226559Y0321335D01*
X0227010Y0320245D01*
X0227845Y0319411D01*
X0228934Y0318960D01*
X0230114Y0318960D01*
X0231204Y0319411D01*
X0232038Y0320245D01*
X0232490Y0321796D02*
X0382452Y0321796D01*
X0382452Y0323394D02*
X0232125Y0323394D01*
X0226923Y0323394D02*
X0221806Y0323394D01*
X0221896Y0323432D02*
X0220843Y0322995D01*
X0219702Y0322995D01*
X0218648Y0323432D01*
X0217842Y0324238D01*
X0217405Y0325292D01*
X0217405Y0326432D01*
X0217842Y0327486D01*
X0218648Y0328293D01*
X0219702Y0328729D01*
X0220843Y0328729D01*
X0221896Y0328293D01*
X0222703Y0327486D01*
X0223139Y0326432D01*
X0223139Y0325292D01*
X0222703Y0324238D01*
X0221896Y0323432D01*
X0223015Y0324993D02*
X0252938Y0324993D01*
X0252149Y0326591D02*
X0223073Y0326591D01*
X0221999Y0328190D02*
X0252494Y0328190D01*
X0243481Y0309322D02*
X0242536Y0309713D01*
X0241513Y0309713D01*
X0240568Y0309322D01*
X0239844Y0308598D01*
X0239453Y0307653D01*
X0239453Y0306630D01*
X0239844Y0305685D01*
X0240568Y0304962D01*
X0241513Y0304570D01*
X0242536Y0304570D01*
X0243481Y0304962D01*
X0244204Y0305685D01*
X0244596Y0306630D01*
X0244596Y0307653D01*
X0244204Y0308598D01*
X0243481Y0309322D01*
X0243795Y0309008D02*
X0382452Y0309008D01*
X0382452Y0310606D02*
X0190758Y0310606D01*
X0190705Y0310734D02*
X0189898Y0311541D01*
X0188845Y0311977D01*
X0187704Y0311977D01*
X0186650Y0311541D01*
X0185844Y0310734D01*
X0185407Y0309680D01*
X0185407Y0308540D01*
X0185844Y0307486D01*
X0186650Y0306680D01*
X0187704Y0306243D01*
X0188845Y0306243D01*
X0189898Y0306680D01*
X0190705Y0307486D01*
X0191141Y0308540D01*
X0191141Y0309680D01*
X0190705Y0310734D01*
X0191141Y0309008D02*
X0240253Y0309008D01*
X0239453Y0307409D02*
X0190628Y0307409D01*
X0185921Y0307409D02*
X0131292Y0307409D01*
X0131415Y0307705D02*
X0130746Y0306092D01*
X0129511Y0304857D01*
X0127898Y0304188D01*
X0126151Y0304188D01*
X0124537Y0304857D01*
X0123302Y0306092D01*
X0122634Y0307705D01*
X0122634Y0309452D01*
X0123302Y0311066D01*
X0124537Y0312301D01*
X0126151Y0312969D01*
X0127898Y0312969D01*
X0128082Y0312893D01*
X0127838Y0313481D01*
X0127838Y0314621D01*
X0128275Y0315675D01*
X0129081Y0316482D01*
X0130135Y0316918D01*
X0131276Y0316918D01*
X0132329Y0316482D01*
X0133136Y0315675D01*
X0133572Y0314621D01*
X0133572Y0313481D01*
X0133136Y0312427D01*
X0132329Y0311621D01*
X0131276Y0311184D01*
X0130628Y0311184D01*
X0130746Y0311066D01*
X0131415Y0309452D01*
X0131415Y0307705D01*
X0131415Y0309008D02*
X0185407Y0309008D01*
X0185791Y0310606D02*
X0130937Y0310606D01*
X0132913Y0312205D02*
X0334875Y0312205D01*
X0334594Y0312486D02*
X0335400Y0311680D01*
X0336454Y0311243D01*
X0337595Y0311243D01*
X0338648Y0311680D01*
X0339455Y0312486D01*
X0339891Y0313540D01*
X0339891Y0314680D01*
X0339455Y0315734D01*
X0338648Y0316541D01*
X0337595Y0316977D01*
X0336454Y0316977D01*
X0335400Y0316541D01*
X0334594Y0315734D01*
X0334157Y0314680D01*
X0334157Y0313540D01*
X0334594Y0312486D01*
X0334157Y0313803D02*
X0190732Y0313803D01*
X0190705Y0313736D02*
X0191141Y0314790D01*
X0191141Y0315930D01*
X0190705Y0316984D01*
X0189898Y0317791D01*
X0188845Y0318227D01*
X0187704Y0318227D01*
X0186650Y0317791D01*
X0185844Y0316984D01*
X0185407Y0315930D01*
X0185407Y0314790D01*
X0185844Y0313736D01*
X0186650Y0312930D01*
X0187704Y0312493D01*
X0188845Y0312493D01*
X0189898Y0312930D01*
X0190705Y0313736D01*
X0191141Y0315402D02*
X0300468Y0315402D01*
X0299277Y0317000D02*
X0190689Y0317000D01*
X0185860Y0317000D02*
X0113211Y0317000D01*
X0113211Y0318599D02*
X0299227Y0318599D01*
X0303742Y0320197D02*
X0382452Y0320197D01*
X0382452Y0318599D02*
X0304821Y0318599D01*
X0304771Y0317000D02*
X0382452Y0317000D01*
X0382099Y0315402D02*
X0369240Y0315402D01*
X0369106Y0315724D02*
X0369497Y0314779D01*
X0369497Y0313756D01*
X0369106Y0312811D01*
X0368383Y0312088D01*
X0367437Y0311696D01*
X0366414Y0311696D01*
X0365469Y0312088D01*
X0364746Y0312811D01*
X0364354Y0313756D01*
X0364354Y0314779D01*
X0364746Y0315724D01*
X0365469Y0316448D01*
X0366414Y0316839D01*
X0367437Y0316839D01*
X0368383Y0316448D01*
X0369106Y0315724D01*
X0369497Y0313803D02*
X0381775Y0313803D01*
X0382434Y0312205D02*
X0368500Y0312205D01*
X0365352Y0312205D02*
X0339173Y0312205D01*
X0339891Y0313803D02*
X0364354Y0313803D01*
X0364612Y0315402D02*
X0339592Y0315402D01*
X0334456Y0315402D02*
X0303581Y0315402D01*
X0302595Y0306977D02*
X0301454Y0306977D01*
X0300400Y0306541D01*
X0299594Y0305734D01*
X0299157Y0304680D01*
X0299157Y0303540D01*
X0299594Y0302486D01*
X0300400Y0301680D01*
X0301454Y0301243D01*
X0302595Y0301243D01*
X0303648Y0301680D01*
X0304455Y0302486D01*
X0304891Y0303540D01*
X0304891Y0304680D01*
X0304455Y0305734D01*
X0303648Y0306541D01*
X0302595Y0306977D01*
X0304378Y0305811D02*
X0364832Y0305811D01*
X0364746Y0305724D02*
X0364354Y0304779D01*
X0364354Y0303756D01*
X0364746Y0302811D01*
X0365469Y0302088D01*
X0366414Y0301696D01*
X0367437Y0301696D01*
X0368383Y0302088D01*
X0369106Y0302811D01*
X0369497Y0303756D01*
X0369497Y0304779D01*
X0369106Y0305724D01*
X0368383Y0306448D01*
X0367437Y0306839D01*
X0366414Y0306839D01*
X0365469Y0306448D01*
X0364746Y0305724D01*
X0364354Y0304212D02*
X0304891Y0304212D01*
X0304508Y0302614D02*
X0364943Y0302614D01*
X0368909Y0302614D02*
X0382452Y0302614D01*
X0382452Y0304212D02*
X0369497Y0304212D01*
X0369020Y0305811D02*
X0382452Y0305811D01*
X0382452Y0307409D02*
X0268612Y0307409D01*
X0268481Y0307540D02*
X0267536Y0307932D01*
X0266513Y0307932D01*
X0265568Y0307540D01*
X0264844Y0306817D01*
X0264453Y0305872D01*
X0264453Y0304849D01*
X0264844Y0303904D01*
X0265568Y0303180D01*
X0266513Y0302789D01*
X0267536Y0302789D01*
X0268481Y0303180D01*
X0269204Y0303904D01*
X0269596Y0304849D01*
X0269596Y0305872D01*
X0269204Y0306817D01*
X0268481Y0307540D01*
X0269596Y0305811D02*
X0299670Y0305811D01*
X0299157Y0304212D02*
X0269332Y0304212D01*
X0264716Y0304212D02*
X0127956Y0304212D01*
X0128098Y0303053D02*
X0127385Y0303166D01*
X0127224Y0303166D01*
X0127224Y0298779D01*
X0126824Y0298779D01*
X0126824Y0298379D01*
X0122437Y0298379D01*
X0122437Y0298218D01*
X0122550Y0297505D01*
X0122773Y0296818D01*
X0123101Y0296174D01*
X0123525Y0295590D01*
X0124036Y0295080D01*
X0124620Y0294655D01*
X0125263Y0294327D01*
X0125950Y0294104D01*
X0126663Y0293991D01*
X0126824Y0293991D01*
X0126824Y0298379D01*
X0127224Y0298379D01*
X0127224Y0293991D01*
X0127385Y0293991D01*
X0128098Y0294104D01*
X0128785Y0294327D01*
X0129429Y0294655D01*
X0130013Y0295080D01*
X0130523Y0295590D01*
X0130948Y0296174D01*
X0131276Y0296818D01*
X0131499Y0297505D01*
X0131612Y0298218D01*
X0131612Y0298379D01*
X0127224Y0298379D01*
X0127224Y0298779D01*
X0131612Y0298779D01*
X0131612Y0298940D01*
X0131499Y0299653D01*
X0131276Y0300340D01*
X0130948Y0300983D01*
X0130523Y0301567D01*
X0130013Y0302078D01*
X0129429Y0302502D01*
X0128785Y0302830D01*
X0128098Y0303053D01*
X0127224Y0302614D02*
X0126824Y0302614D01*
X0126824Y0303166D02*
X0126663Y0303166D01*
X0125950Y0303053D01*
X0125263Y0302830D01*
X0124620Y0302502D01*
X0124036Y0302078D01*
X0123525Y0301567D01*
X0123101Y0300983D01*
X0122773Y0300340D01*
X0122550Y0299653D01*
X0122437Y0298940D01*
X0122437Y0298779D01*
X0126824Y0298779D01*
X0126824Y0303166D01*
X0126093Y0304212D02*
X0113211Y0304212D01*
X0113211Y0302614D02*
X0124839Y0302614D01*
X0123124Y0301015D02*
X0113211Y0301015D01*
X0113211Y0299417D02*
X0122512Y0299417D01*
X0122500Y0297818D02*
X0113211Y0297818D01*
X0113211Y0296220D02*
X0123078Y0296220D01*
X0124687Y0294621D02*
X0113211Y0294621D01*
X0113211Y0293023D02*
X0217006Y0293023D01*
X0217094Y0293234D02*
X0216657Y0292180D01*
X0216657Y0291040D01*
X0217094Y0289986D01*
X0217900Y0289180D01*
X0218954Y0288743D01*
X0220095Y0288743D01*
X0221148Y0289180D01*
X0221955Y0289986D01*
X0222391Y0291040D01*
X0222391Y0292180D01*
X0221955Y0293234D01*
X0221148Y0294041D01*
X0220095Y0294477D01*
X0218954Y0294477D01*
X0217900Y0294041D01*
X0217094Y0293234D01*
X0216657Y0291424D02*
X0201265Y0291424D01*
X0201148Y0291541D02*
X0200095Y0291977D01*
X0198954Y0291977D01*
X0197900Y0291541D01*
X0197094Y0290734D01*
X0196657Y0289680D01*
X0196657Y0288540D01*
X0197094Y0287486D01*
X0197900Y0286680D01*
X0198954Y0286243D01*
X0200095Y0286243D01*
X0201148Y0286680D01*
X0201955Y0287486D01*
X0202391Y0288540D01*
X0202391Y0289680D01*
X0201955Y0290734D01*
X0201148Y0291541D01*
X0202331Y0289826D02*
X0217254Y0289826D01*
X0221794Y0289826D02*
X0242254Y0289826D01*
X0242094Y0289986D02*
X0242900Y0289180D01*
X0243954Y0288743D01*
X0245095Y0288743D01*
X0246148Y0289180D01*
X0246955Y0289986D01*
X0247391Y0291040D01*
X0247391Y0292180D01*
X0246955Y0293234D01*
X0246148Y0294041D01*
X0245095Y0294477D01*
X0243954Y0294477D01*
X0242900Y0294041D01*
X0242094Y0293234D01*
X0241657Y0292180D01*
X0241657Y0291040D01*
X0242094Y0289986D01*
X0241657Y0291424D02*
X0222391Y0291424D01*
X0222042Y0293023D02*
X0242006Y0293023D01*
X0247042Y0293023D02*
X0269826Y0293023D01*
X0269844Y0293067D02*
X0269453Y0292122D01*
X0269453Y0291099D01*
X0269844Y0290154D01*
X0270568Y0289430D01*
X0271513Y0289039D01*
X0272536Y0289039D01*
X0273481Y0289430D01*
X0274204Y0290154D01*
X0274596Y0291099D01*
X0274596Y0292122D01*
X0274204Y0293067D01*
X0273481Y0293790D01*
X0272536Y0294182D01*
X0271513Y0294182D01*
X0270568Y0293790D01*
X0269844Y0293067D01*
X0269453Y0291424D02*
X0247391Y0291424D01*
X0246794Y0289826D02*
X0270172Y0289826D01*
X0273877Y0289826D02*
X0299754Y0289826D01*
X0299594Y0289986D02*
X0300400Y0289180D01*
X0301454Y0288743D01*
X0302595Y0288743D01*
X0303648Y0289180D01*
X0304455Y0289986D01*
X0304891Y0291040D01*
X0304891Y0292180D01*
X0304455Y0293234D01*
X0303648Y0294041D01*
X0302595Y0294477D01*
X0301454Y0294477D01*
X0300400Y0294041D01*
X0299594Y0293234D01*
X0299157Y0292180D01*
X0299157Y0291040D01*
X0299594Y0289986D01*
X0299157Y0291424D02*
X0274596Y0291424D01*
X0274223Y0293023D02*
X0299506Y0293023D01*
X0304542Y0293023D02*
X0316872Y0293023D01*
X0316657Y0293540D02*
X0317094Y0292486D01*
X0317900Y0291680D01*
X0318954Y0291243D01*
X0320095Y0291243D01*
X0321148Y0291680D01*
X0321955Y0292486D01*
X0322391Y0293540D01*
X0322391Y0294680D01*
X0321955Y0295734D01*
X0321148Y0296541D01*
X0320095Y0296977D01*
X0318954Y0296977D01*
X0317900Y0296541D01*
X0317094Y0295734D01*
X0316657Y0294680D01*
X0316657Y0293540D01*
X0316657Y0294621D02*
X0311590Y0294621D01*
X0311955Y0294986D02*
X0312391Y0296040D01*
X0312391Y0297180D01*
X0311955Y0298234D01*
X0311148Y0299041D01*
X0310095Y0299477D01*
X0308954Y0299477D01*
X0307900Y0299041D01*
X0307094Y0298234D01*
X0306657Y0297180D01*
X0306657Y0296040D01*
X0307094Y0294986D01*
X0307900Y0294180D01*
X0308954Y0293743D01*
X0310095Y0293743D01*
X0311148Y0294180D01*
X0311955Y0294986D01*
X0312391Y0296220D02*
X0317579Y0296220D01*
X0321469Y0296220D02*
X0334277Y0296220D01*
X0334157Y0295930D02*
X0334157Y0294790D01*
X0334594Y0293736D01*
X0335400Y0292930D01*
X0336454Y0292493D01*
X0337595Y0292493D01*
X0338648Y0292930D01*
X0339455Y0293736D01*
X0339891Y0294790D01*
X0339891Y0295930D01*
X0339455Y0296984D01*
X0338648Y0297791D01*
X0337595Y0298227D01*
X0336454Y0298227D01*
X0335400Y0297791D01*
X0334594Y0296984D01*
X0334157Y0295930D01*
X0334227Y0294621D02*
X0322391Y0294621D01*
X0322177Y0293023D02*
X0335307Y0293023D01*
X0338741Y0293023D02*
X0364658Y0293023D01*
X0364746Y0292811D02*
X0365469Y0292088D01*
X0366414Y0291696D01*
X0367437Y0291696D01*
X0368383Y0292088D01*
X0369106Y0292811D01*
X0369497Y0293756D01*
X0369497Y0294779D01*
X0369106Y0295724D01*
X0368383Y0296448D01*
X0367437Y0296839D01*
X0366414Y0296839D01*
X0365469Y0296448D01*
X0364746Y0295724D01*
X0364354Y0294779D01*
X0364354Y0293756D01*
X0364746Y0292811D01*
X0364354Y0294621D02*
X0339821Y0294621D01*
X0339771Y0296220D02*
X0365241Y0296220D01*
X0368611Y0296220D02*
X0382452Y0296220D01*
X0382452Y0297818D02*
X0338582Y0297818D01*
X0335467Y0297818D02*
X0312127Y0297818D01*
X0310240Y0299417D02*
X0382452Y0299417D01*
X0382452Y0301015D02*
X0130924Y0301015D01*
X0131536Y0299417D02*
X0308808Y0299417D01*
X0306921Y0297818D02*
X0131548Y0297818D01*
X0130971Y0296220D02*
X0306657Y0296220D01*
X0307459Y0294621D02*
X0129362Y0294621D01*
X0127224Y0294621D02*
X0126824Y0294621D01*
X0126824Y0296220D02*
X0127224Y0296220D01*
X0127224Y0297818D02*
X0126824Y0297818D01*
X0126824Y0299417D02*
X0127224Y0299417D01*
X0127224Y0301015D02*
X0126824Y0301015D01*
X0129210Y0302614D02*
X0299541Y0302614D01*
X0304891Y0291424D02*
X0318517Y0291424D01*
X0320531Y0291424D02*
X0382452Y0291424D01*
X0382452Y0289826D02*
X0304294Y0289826D01*
X0287391Y0284680D02*
X0287391Y0283540D01*
X0286955Y0282486D01*
X0286148Y0281680D01*
X0285095Y0281243D01*
X0283954Y0281243D01*
X0282900Y0281680D01*
X0282094Y0282486D01*
X0281657Y0283540D01*
X0281657Y0284680D01*
X0282094Y0285734D01*
X0282900Y0286541D01*
X0283954Y0286977D01*
X0285095Y0286977D01*
X0286148Y0286541D01*
X0286955Y0285734D01*
X0287391Y0284680D01*
X0287246Y0285030D02*
X0364458Y0285030D01*
X0364354Y0284779D02*
X0364354Y0283756D01*
X0364746Y0282811D01*
X0365469Y0282088D01*
X0366414Y0281696D01*
X0367437Y0281696D01*
X0368383Y0282088D01*
X0369106Y0282811D01*
X0369497Y0283756D01*
X0369497Y0284779D01*
X0369106Y0285724D01*
X0368383Y0286448D01*
X0367437Y0286839D01*
X0366414Y0286839D01*
X0365469Y0286448D01*
X0364746Y0285724D01*
X0364354Y0284779D01*
X0364489Y0283432D02*
X0287346Y0283432D01*
X0286302Y0281833D02*
X0366084Y0281833D01*
X0367768Y0281833D02*
X0382452Y0281833D01*
X0382452Y0280235D02*
X0214919Y0280235D01*
X0215174Y0280129D02*
X0214229Y0280520D01*
X0213206Y0280520D01*
X0212260Y0280129D01*
X0211537Y0279406D01*
X0211146Y0278460D01*
X0211146Y0277437D01*
X0211537Y0276492D01*
X0212260Y0275769D01*
X0213206Y0275377D01*
X0214229Y0275377D01*
X0215174Y0275769D01*
X0215897Y0276492D01*
X0216289Y0277437D01*
X0216289Y0278460D01*
X0215897Y0279406D01*
X0215174Y0280129D01*
X0216216Y0278636D02*
X0228701Y0278636D01*
X0228727Y0278662D02*
X0228004Y0277939D01*
X0227612Y0276994D01*
X0227612Y0275971D01*
X0228004Y0275026D01*
X0228727Y0274302D01*
X0229672Y0273911D01*
X0230695Y0273911D01*
X0231640Y0274302D01*
X0232364Y0275026D01*
X0232755Y0275971D01*
X0232755Y0276994D01*
X0232364Y0277939D01*
X0231640Y0278662D01*
X0230695Y0279054D01*
X0229672Y0279054D01*
X0228727Y0278662D01*
X0227630Y0277038D02*
X0216123Y0277038D01*
X0214378Y0275439D02*
X0227832Y0275439D01*
X0232535Y0275439D02*
X0380334Y0275439D01*
X0381775Y0277038D02*
X0232737Y0277038D01*
X0231667Y0278636D02*
X0382452Y0278636D01*
X0382452Y0283432D02*
X0369363Y0283432D01*
X0369394Y0285030D02*
X0382452Y0285030D01*
X0382452Y0286629D02*
X0367946Y0286629D01*
X0365906Y0286629D02*
X0285936Y0286629D01*
X0283113Y0286629D02*
X0201025Y0286629D01*
X0202262Y0288227D02*
X0382452Y0288227D01*
X0382452Y0293023D02*
X0369194Y0293023D01*
X0369497Y0294621D02*
X0382452Y0294621D01*
X0378735Y0273841D02*
X0273152Y0273841D01*
X0273346Y0273372D02*
X0272954Y0274317D01*
X0272231Y0275040D01*
X0271286Y0275432D01*
X0270263Y0275432D01*
X0269318Y0275040D01*
X0268594Y0274317D01*
X0268203Y0273372D01*
X0268203Y0272349D01*
X0268594Y0271404D01*
X0269318Y0270680D01*
X0270263Y0270289D01*
X0271286Y0270289D01*
X0272231Y0270680D01*
X0272954Y0271404D01*
X0273346Y0272349D01*
X0273346Y0273372D01*
X0273302Y0272242D02*
X0377137Y0272242D01*
X0375538Y0270644D02*
X0272143Y0270644D01*
X0269406Y0270644D02*
X0190977Y0270644D01*
X0191116Y0272242D02*
X0268247Y0272242D01*
X0268397Y0273841D02*
X0190098Y0273841D01*
X0189898Y0275430D02*
X0190705Y0276236D01*
X0191141Y0277290D01*
X0191141Y0278430D01*
X0190705Y0279484D01*
X0189898Y0280291D01*
X0188845Y0280727D01*
X0187704Y0280727D01*
X0186650Y0280291D01*
X0185844Y0279484D01*
X0185407Y0278430D01*
X0185407Y0277290D01*
X0185844Y0276236D01*
X0186650Y0275430D01*
X0187704Y0274993D01*
X0188845Y0274993D01*
X0189898Y0275430D01*
X0189908Y0275439D02*
X0213056Y0275439D01*
X0211311Y0277038D02*
X0191037Y0277038D01*
X0191056Y0278636D02*
X0211218Y0278636D01*
X0212515Y0280235D02*
X0189954Y0280235D01*
X0186594Y0280235D02*
X0113211Y0280235D01*
X0113211Y0281833D02*
X0268416Y0281833D01*
X0268594Y0281404D02*
X0269318Y0280680D01*
X0270263Y0280289D01*
X0271286Y0280289D01*
X0272231Y0280680D01*
X0272954Y0281404D01*
X0273346Y0282349D01*
X0273346Y0283372D01*
X0272954Y0284317D01*
X0272231Y0285040D01*
X0271286Y0285432D01*
X0270263Y0285432D01*
X0269318Y0285040D01*
X0268594Y0284317D01*
X0268203Y0283372D01*
X0268203Y0282349D01*
X0268594Y0281404D01*
X0268227Y0283432D02*
X0113211Y0283432D01*
X0113211Y0285030D02*
X0269307Y0285030D01*
X0272241Y0285030D02*
X0281802Y0285030D01*
X0281702Y0283432D02*
X0273321Y0283432D01*
X0273132Y0281833D02*
X0282747Y0281833D01*
X0282128Y0269045D02*
X0317865Y0269045D01*
X0321498Y0269045D02*
X0372983Y0269045D01*
X0374800Y0247122D02*
X0120863Y0247122D01*
X0111020Y0237280D01*
X0111020Y0136886D01*
X0122831Y0125075D01*
X0276375Y0125075D01*
X0355115Y0125075D01*
X0384642Y0154602D01*
X0384642Y0237280D01*
X0374800Y0247122D01*
X0366714Y0337781D02*
X0339891Y0337781D01*
X0339498Y0339379D02*
X0367143Y0339379D01*
X0367979Y0340978D02*
X0302946Y0340978D01*
X0303641Y0342577D02*
X0369146Y0342577D01*
X0370942Y0344175D02*
X0303333Y0344175D01*
X0318641Y0360160D02*
X0319607Y0360160D01*
X0318298Y0361759D02*
X0344676Y0361759D01*
X0343106Y0360160D02*
X0340692Y0360160D01*
X0342017Y0358562D02*
X0342907Y0358562D01*
X0343867Y0356963D02*
X0341936Y0356963D01*
X0338357Y0360160D02*
X0334442Y0360160D01*
X0335767Y0358562D02*
X0337031Y0358562D01*
X0337112Y0356963D02*
X0335686Y0356963D01*
X0332107Y0360160D02*
X0328192Y0360160D01*
X0329517Y0358562D02*
X0330781Y0358562D01*
X0330862Y0356963D02*
X0329436Y0356963D01*
X0325857Y0360160D02*
X0321942Y0360160D01*
X0323267Y0358562D02*
X0324531Y0358562D01*
X0324612Y0356963D02*
X0323186Y0356963D01*
X0363123Y0390532D02*
X0382452Y0390532D01*
X0381813Y0392130D02*
X0364505Y0392130D01*
X0364448Y0393729D02*
X0380607Y0393729D01*
X0382452Y0360160D02*
X0371279Y0360160D01*
X0372337Y0358562D02*
X0382452Y0358562D01*
X0382452Y0356963D02*
X0372256Y0356963D01*
X0370991Y0355365D02*
X0382452Y0355365D01*
X0278495Y0269045D02*
X0242758Y0269045D01*
X0239125Y0269045D02*
X0203388Y0269045D01*
X0199755Y0269045D02*
X0189573Y0269045D01*
X0186976Y0269045D02*
X0164018Y0269045D01*
X0160385Y0269045D02*
X0122679Y0269045D01*
X0120124Y0270644D02*
X0185572Y0270644D01*
X0185433Y0272242D02*
X0118526Y0272242D01*
X0116927Y0273841D02*
X0186450Y0273841D01*
X0186641Y0275439D02*
X0115329Y0275439D01*
X0113887Y0277038D02*
X0185512Y0277038D01*
X0185492Y0278636D02*
X0113211Y0278636D01*
X0113211Y0286629D02*
X0198024Y0286629D01*
X0196787Y0288227D02*
X0113211Y0288227D01*
X0113211Y0289826D02*
X0196717Y0289826D01*
X0197784Y0291424D02*
X0113211Y0291424D01*
X0113211Y0305811D02*
X0123583Y0305811D01*
X0122756Y0307409D02*
X0113211Y0307409D01*
X0113211Y0309008D02*
X0122634Y0309008D01*
X0123112Y0310606D02*
X0113211Y0310606D01*
X0113228Y0312205D02*
X0124441Y0312205D01*
X0127838Y0313803D02*
X0113887Y0313803D01*
X0113564Y0315402D02*
X0128162Y0315402D01*
X0133249Y0315402D02*
X0185407Y0315402D01*
X0185816Y0313803D02*
X0133572Y0313803D01*
X0130465Y0305811D02*
X0239792Y0305811D01*
X0244256Y0305811D02*
X0264453Y0305811D01*
X0265436Y0307409D02*
X0244596Y0307409D01*
X0227058Y0320197D02*
X0113211Y0320197D01*
X0113211Y0321796D02*
X0226559Y0321796D01*
X0218739Y0323394D02*
X0113211Y0323394D01*
X0113211Y0324993D02*
X0217529Y0324993D01*
X0217471Y0326591D02*
X0216637Y0326591D01*
X0216938Y0328190D02*
X0218546Y0328190D01*
X0212097Y0326591D02*
X0125576Y0326591D01*
X0127842Y0328190D02*
X0211795Y0328190D01*
X0129756Y0352168D02*
X0113604Y0352168D01*
X0113887Y0353766D02*
X0118435Y0353766D01*
X0118926Y0353275D02*
X0120413Y0352659D01*
X0122024Y0352659D01*
X0123512Y0353275D01*
X0124650Y0354414D01*
X0125267Y0355902D01*
X0125267Y0357512D01*
X0124650Y0359000D01*
X0123512Y0360139D01*
X0122024Y0360755D01*
X0120413Y0360755D01*
X0118926Y0360139D01*
X0117787Y0359000D01*
X0117171Y0357512D01*
X0117171Y0355902D01*
X0117787Y0354414D01*
X0118926Y0353275D01*
X0117393Y0355365D02*
X0113211Y0355365D01*
X0113211Y0356963D02*
X0117171Y0356963D01*
X0117605Y0358562D02*
X0113211Y0358562D01*
X0113211Y0360160D02*
X0118978Y0360160D01*
X0117604Y0363357D02*
X0127315Y0363357D01*
X0126653Y0361759D02*
X0113211Y0361759D01*
X0118890Y0364956D02*
X0128652Y0364956D01*
X0130846Y0366554D02*
X0119284Y0366554D01*
X0123460Y0360160D02*
X0126240Y0360160D01*
X0126240Y0358562D02*
X0124832Y0358562D01*
X0125267Y0356963D02*
X0126448Y0356963D01*
X0127110Y0355365D02*
X0125044Y0355365D01*
X0124003Y0353766D02*
X0128157Y0353766D01*
X0115036Y0344175D02*
X0113211Y0344175D01*
X0113211Y0342577D02*
X0113241Y0342577D01*
X0113211Y0328190D02*
X0113884Y0328190D01*
X0113211Y0326591D02*
X0116150Y0326591D01*
X0276798Y0125498D02*
X0276375Y0125075D01*
D19*
X0262398Y0166610D03*
X0254721Y0167398D03*
X0258658Y0176256D03*
X0262595Y0182161D03*
X0251768Y0192004D03*
X0263461Y0219110D03*
X0278461Y0236610D03*
X0270774Y0272860D03*
X0270774Y0282860D03*
X0272024Y0291610D03*
X0267024Y0305360D03*
X0254721Y0326846D03*
X0258658Y0330783D03*
X0256690Y0335705D03*
X0251768Y0333736D03*
X0259642Y0345547D03*
X0264564Y0350469D03*
X0261906Y0353421D03*
X0275774Y0344110D03*
X0275774Y0332860D03*
X0280774Y0331610D03*
X0242024Y0307142D03*
X0214367Y0327831D03*
X0211808Y0333492D03*
X0217320Y0333736D03*
X0221257Y0337673D03*
X0219524Y0361610D03*
X0213274Y0395547D03*
X0227024Y0396207D03*
X0258274Y0382860D03*
X0259642Y0378028D03*
X0264564Y0375892D03*
X0269711Y0397594D03*
X0322024Y0379110D03*
X0320774Y0357860D03*
X0327024Y0357860D03*
X0333274Y0357860D03*
X0339524Y0357860D03*
X0355774Y0385360D03*
X0348274Y0390360D03*
X0362024Y0392860D03*
X0364524Y0399110D03*
X0332024Y0409110D03*
X0328087Y0404110D03*
X0366926Y0314268D03*
X0366926Y0304268D03*
X0366926Y0294268D03*
X0366926Y0284268D03*
X0317024Y0175360D03*
X0220272Y0175272D03*
X0217320Y0182161D03*
X0189524Y0175360D03*
X0183993Y0179110D03*
X0179465Y0175301D03*
X0162024Y0172860D03*
X0213717Y0277949D03*
X0230184Y0276482D03*
X0179524Y0366423D03*
X0179524Y0378923D03*
X0179524Y0386423D03*
X0179524Y0398923D03*
X0145774Y0395360D03*
M02*
